<svg width="380" height="64" viewBox="0 0 380 64" version="1.1" xmlns="http://www.w3.org/2000/svg" xmlns:xlink="http://www.w3.org/1999/xlink">
<title>Group.svg</title>
<desc>Created using Figma</desc>
<g id="Canvas" transform="translate(-294 -83)">
<g id="Group">
<g id="a b c d e f g h i">
<use xlink:href="#path0_fill" transform="translate(338 88)" fill="#333333"/>
</g>
<g id="Component">
<g id="Line 2">
<use xlink:href="#path1_stroke" transform="matrix(8.27892e-32 1 -0.998976 0.0452422 329 85)"/>
</g>
<g id="Line 3">
<use xlink:href="#path2_stroke" transform="translate(329 85)"/>
</g>
<g id="Line 3">
<use xlink:href="#path2_stroke" transform="translate(329 147)"/>
</g>
</g>
<g id="Line 2">
<use xlink:href="#path1_stroke" transform="matrix(-1.22465e-16 -1 0.998976 -0.0452422 398 145)"/>
</g>
<g id="Line 3">
<use xlink:href="#path2_stroke" transform="matrix(-1 1.22465e-16 -1.22465e-16 -1 398 145)"/>
</g>
<g id="Line 3">
<use xlink:href="#path2_stroke" transform="matrix(-1 1.22465e-16 -1.22465e-16 -1 398 83)"/>
</g>
<g id="det ( ) = a* + b* + c*">
<use xlink:href="#path3_fill" transform="translate(294 106)"/>
</g>
<g id="e f h i">
<use xlink:href="#path4_fill" transform="translate(459 93)" fill="#333333"/>
</g>
<g id="Component">
<g id="Line 2">
<use xlink:href="#path5_stroke" transform="matrix(1.25193e-31 1 -0.999552 0.0299354 451 93)"/>
</g>
<g id="Line 3">
<use xlink:href="#path2_stroke" transform="translate(451 93)"/>
</g>
<g id="Line 3">
<use xlink:href="#path2_stroke" transform="translate(451 134)"/>
</g>
</g>
<g id="Component">
<g id="Line 2">
<use xlink:href="#path5_stroke" transform="matrix(-1.22465e-16 -1 0.999552 -0.0299354 497 133)"/>
</g>
<g id="Line 3">
<use xlink:href="#path2_stroke" transform="matrix(-1 1.22465e-16 -1.22465e-16 -1 497 133)"/>
</g>
<g id="Line 3">
<use xlink:href="#path2_stroke" transform="matrix(-1 1.22465e-16 -1.22465e-16 -1 497 92)"/>
</g>
</g>
<g id="d f g i">
<use xlink:href="#path6_fill" transform="translate(550 93)" fill="#333333"/>
</g>
<g id="Component">
<g id="Line 2">
<use xlink:href="#path5_stroke" transform="matrix(1.25193e-31 1 -0.999552 0.0299354 542 93)"/>
</g>
<g id="Line 3">
<use xlink:href="#path2_stroke" transform="translate(542 93)"/>
</g>
<g id="Line 3">
<use xlink:href="#path2_stroke" transform="translate(542 134)"/>
</g>
</g>
<g id="Component">
<g id="Line 2">
<use xlink:href="#path5_stroke" transform="matrix(-1.22465e-16 -1 0.999552 -0.0299354 588 133)"/>
</g>
<g id="Line 3">
<use xlink:href="#path2_stroke" transform="matrix(-1 1.22465e-16 -1.22465e-16 -1 588 133)"/>
</g>
<g id="Line 3">
<use xlink:href="#path2_stroke" transform="matrix(-1 1.22465e-16 -1.22465e-16 -1 588 92)"/>
</g>
</g>
<g id="d e g h">
<use xlink:href="#path7_fill" transform="translate(636 93)" fill="#333333"/>
</g>
<g id="Component">
<g id="Line 2">
<use xlink:href="#path5_stroke" transform="matrix(1.25193e-31 1 -0.999552 0.0299354 628 93)"/>
</g>
<g id="Line 3">
<use xlink:href="#path2_stroke" transform="translate(628 93)"/>
</g>
<g id="Line 3">
<use xlink:href="#path2_stroke" transform="translate(628 134)"/>
</g>
</g>
<g id="Component">
<g id="Line 2">
<use xlink:href="#path5_stroke" transform="matrix(-1.22465e-16 -1 0.999552 -0.0299354 674 133)"/>
</g>
<g id="Line 3">
<use xlink:href="#path2_stroke" transform="matrix(-1 1.22465e-16 -1.22465e-16 -1 674 133)"/>
</g>
<g id="Line 3">
<use xlink:href="#path2_stroke" transform="matrix(-1 1.22465e-16 -1.22465e-16 -1 674 92)"/>
</g>
</g>
</g>
</g>
<defs>
<path id="path0_fill" d="M 6.3125 15C 6.22917 14.8333 6.16146 14.5365 6.10938 14.1094C 5.4375 14.8073 4.63542 15.1562 3.70312 15.1562C 2.86979 15.1562 2.1849 14.9219 1.64844 14.4531C 1.11719 13.9792 0.851562 13.3802 0.851562 12.6562C 0.851562 11.776 1.1849 11.0938 1.85156 10.6094C 2.52344 10.1198 3.46615 9.875 4.67969 9.875L 6.08594 9.875L 6.08594 9.21094C 6.08594 8.70573 5.9349 8.30469 5.63281 8.00781C 5.33073 7.70573 4.88542 7.55469 4.29688 7.55469C 3.78125 7.55469 3.34896 7.6849 3 7.94531C 2.65104 8.20573 2.47656 8.52083 2.47656 8.89062L 1.02344 8.89062C 1.02344 8.46875 1.17188 8.0625 1.46875 7.67188C 1.77083 7.27604 2.17708 6.96354 2.6875 6.73438C 3.20312 6.50521 3.76823 6.39062 4.38281 6.39062C 5.35677 6.39062 6.11979 6.63542 6.67188 7.125C 7.22396 7.60938 7.51042 8.27865 7.53125 9.13281L 7.53125 13.0234C 7.53125 13.7995 7.63021 14.4167 7.82812 14.875L 7.82812 15L 6.3125 15ZM 3.91406 13.8984C 4.36719 13.8984 4.79688 13.7812 5.20312 13.5469C 5.60938 13.3125 5.90365 13.0078 6.08594 12.6328L 6.08594 10.8984L 4.95312 10.8984C 3.18229 10.8984 2.29688 11.4167 2.29688 12.4531C 2.29688 12.9062 2.44792 13.2604 2.75 13.5156C 3.05208 13.7708 3.4401 13.8984 3.91406 13.8984ZM 28.8594 10.8672C 28.8594 12.1589 28.5625 13.1979 27.9688 13.9844C 27.375 14.7656 26.5781 15.1562 25.5781 15.1562C 24.5104 15.1562 23.6849 14.7786 23.1016 14.0234L 23.0312 15L 21.7031 15L 21.7031 3L 23.1484 3L 23.1484 7.47656C 23.7318 6.7526 24.5365 6.39062 25.5625 6.39062C 26.5885 6.39062 27.3932 6.77865 27.9766 7.55469C 28.5651 8.33073 28.8594 9.39323 28.8594 10.7422L 28.8594 10.8672ZM 27.4141 10.7031C 27.4141 9.71875 27.224 8.95833 26.8438 8.42188C 26.4635 7.88542 25.9167 7.61719 25.2031 7.61719C 24.25 7.61719 23.5651 8.0599 23.1484 8.94531L 23.1484 12.6016C 23.5911 13.487 24.2812 13.9297 25.2188 13.9297C 25.9115 13.9297 26.4505 13.6615 26.8359 13.125C 27.2214 12.5885 27.4141 11.7812 27.4141 10.7031ZM 45.9844 13.9766C 46.5 13.9766 46.9505 13.8203 47.3359 13.5078C 47.7214 13.1953 47.9349 12.8047 47.9766 12.3359L 49.3438 12.3359C 49.3177 12.8203 49.151 13.2812 48.8438 13.7188C 48.5365 14.1562 48.125 14.5052 47.6094 14.7656C 47.099 15.026 46.5573 15.1562 45.9844 15.1562C 44.8333 15.1562 43.9167 14.7734 43.2344 14.0078C 42.5573 13.237 42.2188 12.1849 42.2188 10.8516L 42.2188 10.6094C 42.2188 9.78646 42.3698 9.05469 42.6719 8.41406C 42.974 7.77344 43.4062 7.27604 43.9688 6.92188C 44.5365 6.56771 45.2057 6.39062 45.9766 6.39062C 46.9245 6.39062 47.7109 6.67448 48.3359 7.24219C 48.9661 7.8099 49.3021 8.54688 49.3438 9.45312L 47.9766 9.45312C 47.9349 8.90625 47.7266 8.45833 47.3516 8.10938C 46.9818 7.75521 46.5234 7.57812 45.9766 7.57812C 45.2422 7.57812 44.6719 7.84375 44.2656 8.375C 43.8646 8.90104 43.6641 9.66406 43.6641 10.6641L 43.6641 10.9375C 43.6641 11.9115 43.8646 12.6615 44.2656 13.1875C 44.6667 13.7135 45.2396 13.9766 45.9844 13.9766ZM 0.742188 29.7031C 0.742188 28.4062 1.04948 27.3646 1.66406 26.5781C 2.27865 25.7865 3.08333 25.3906 4.07812 25.3906C 5.06771 25.3906 5.85156 25.7292 6.42969 26.4062L 6.42969 22L 7.875 22L 7.875 34L 6.54688 34L 6.47656 33.0938C 5.89844 33.8021 5.09375 34.1562 4.0625 34.1562C 3.08333 34.1562 2.28385 33.7552 1.66406 32.9531C 1.04948 32.151 0.742188 31.1042 0.742188 29.8125L 0.742188 29.7031ZM 2.1875 29.8672C 2.1875 30.8255 2.38542 31.5755 2.78125 32.1172C 3.17708 32.6589 3.72396 32.9297 4.42188 32.9297C 5.33854 32.9297 6.00781 32.5182 6.42969 31.6953L 6.42969 27.8125C 5.9974 27.0156 5.33333 26.6172 4.4375 26.6172C 3.72917 26.6172 3.17708 26.8906 2.78125 27.4375C 2.38542 27.9844 2.1875 28.7943 2.1875 29.8672ZM 25.5391 34.1562C 24.3932 34.1562 23.4609 33.7812 22.7422 33.0312C 22.0234 32.276 21.6641 31.2682 21.6641 30.0078L 21.6641 29.7422C 21.6641 28.9036 21.8229 28.1562 22.1406 27.5C 22.4635 26.8385 22.9115 26.3229 23.4844 25.9531C 24.0625 25.5781 24.6875 25.3906 25.3594 25.3906C 26.4583 25.3906 27.3125 25.7526 27.9219 26.4766C 28.5312 27.2005 28.8359 28.237 28.8359 29.5859L 28.8359 30.1875L 23.1094 30.1875C 23.1302 31.0208 23.3724 31.6953 23.8359 32.2109C 24.3047 32.7214 24.8984 32.9766 25.6172 32.9766C 26.1276 32.9766 26.5599 32.8724 26.9141 32.6641C 27.2682 32.4557 27.5781 32.1797 27.8438 31.8359L 28.7266 32.5234C 28.0182 33.612 26.9557 34.1562 25.5391 34.1562ZM 25.3594 26.5781C 24.776 26.5781 24.2865 26.7917 23.8906 27.2188C 23.4948 27.6406 23.25 28.2344 23.1562 29L 27.3906 29L 27.3906 28.8906C 27.349 28.1562 27.151 27.5885 26.7969 27.1875C 26.4427 26.7812 25.9635 26.5781 25.3594 26.5781ZM 43.1328 34L 43.1328 26.6641L 41.7969 26.6641L 41.7969 25.5469L 43.1328 25.5469L 43.1328 24.6797C 43.1328 23.7734 43.375 23.0729 43.8594 22.5781C 44.3438 22.0833 45.0286 21.8359 45.9141 21.8359C 46.2474 21.8359 46.5781 21.8802 46.9062 21.9688L 46.8281 23.1406C 46.5833 23.0938 46.3229 23.0703 46.0469 23.0703C 45.5781 23.0703 45.2161 23.2083 44.9609 23.4844C 44.7057 23.7552 44.5781 24.1458 44.5781 24.6562L 44.5781 25.5469L 46.3828 25.5469L 46.3828 26.6641L 44.5781 26.6641L 44.5781 34L 43.1328 34ZM 0.75 47.7031C 0.75 46.3854 1.05469 45.3385 1.66406 44.5625C 2.27344 43.7812 3.08073 43.3906 4.08594 43.3906C 5.11719 43.3906 5.92188 43.7552 6.5 44.4844L 6.57031 43.5469L 7.89062 43.5469L 7.89062 51.7969C 7.89062 52.8906 7.5651 53.7526 6.91406 54.3828C 6.26823 55.013 5.39844 55.3281 4.30469 55.3281C 3.69531 55.3281 3.09896 55.1979 2.51562 54.9375C 1.93229 54.6771 1.48698 54.3203 1.17969 53.8672L 1.92969 53C 2.54948 53.7656 3.30729 54.1484 4.20312 54.1484C 4.90625 54.1484 5.45312 53.9505 5.84375 53.5547C 6.23958 53.1589 6.4375 52.6016 6.4375 51.8828L 6.4375 51.1562C 5.85938 51.8229 5.07031 52.1562 4.07031 52.1562C 3.08073 52.1562 2.27865 51.7578 1.66406 50.9609C 1.05469 50.1641 0.75 49.0781 0.75 47.7031ZM 2.20312 47.8672C 2.20312 48.8203 2.39844 49.5703 2.78906 50.1172C 3.17969 50.6589 3.72656 50.9297 4.42969 50.9297C 5.34115 50.9297 6.01042 50.5156 6.4375 49.6875L 6.4375 45.8281C 5.99479 45.0208 5.33073 44.6172 4.44531 44.6172C 3.74219 44.6172 3.19271 44.8906 2.79688 45.4375C 2.40104 45.9844 2.20312 46.7943 2.20312 47.8672ZM 23.4297 44.5703C 24.0703 43.7839 24.9036 43.3906 25.9297 43.3906C 27.7161 43.3906 28.6172 44.3984 28.6328 46.4141L 28.6328 52L 27.1875 52L 27.1875 46.4062C 27.1823 45.7969 27.0417 45.3464 26.7656 45.0547C 26.4948 44.763 26.0703 44.6172 25.4922 44.6172C 25.0234 44.6172 24.612 44.7422 24.2578 44.9922C 23.9036 45.2422 23.6276 45.5703 23.4297 45.9766L 23.4297 52L 21.9844 52L 21.9844 40L 23.4297 40L 23.4297 44.5703ZM 44.2734 52L 42.8281 52L 42.8281 43.5469L 44.2734 43.5469L 44.2734 52ZM 42.7109 41.3047C 42.7109 41.0703 42.7812 40.8724 42.9219 40.7109C 43.0677 40.5495 43.2812 40.4688 43.5625 40.4688C 43.8438 40.4688 44.0573 40.5495 44.2031 40.7109C 44.349 40.8724 44.4219 41.0703 44.4219 41.3047C 44.4219 41.5391 44.349 41.7344 44.2031 41.8906C 44.0573 42.0469 43.8438 42.125 43.5625 42.125C 43.2812 42.125 43.0677 42.0469 42.9219 41.8906C 42.7812 41.7344 42.7109 41.5391 42.7109 41.3047Z"/>
<path id="path1_stroke" d="M 0 0L 62 0L 62 -1L 0 -1L 0 0Z"/>
<path id="path2_stroke" d="M 0 0L 6 0L 6 -1L 0 -1L 0 0Z"/>
<path id="path3_fill" d="M 0.742188 10.7031C 0.742188 9.40625 1.04948 8.36458 1.66406 7.57812C 2.27865 6.78646 3.08333 6.39062 4.07812 6.39062C 5.06771 6.39062 5.85156 6.72917 6.42969 7.40625L 6.42969 3L 7.875 3L 7.875 15L 6.54688 15L 6.47656 14.0938C 5.89844 14.8021 5.09375 15.1562 4.0625 15.1562C 3.08333 15.1562 2.28385 14.7552 1.66406 13.9531C 1.04948 13.151 0.742188 12.1042 0.742188 10.8125L 0.742188 10.7031ZM 2.1875 10.8672C 2.1875 11.8255 2.38542 12.5755 2.78125 13.1172C 3.17708 13.6589 3.72396 13.9297 4.42188 13.9297C 5.33854 13.9297 6.00781 13.5182 6.42969 12.6953L 6.42969 8.8125C 5.9974 8.01562 5.33333 7.61719 4.4375 7.61719C 3.72917 7.61719 3.17708 7.89062 2.78125 8.4375C 2.38542 8.98438 2.1875 9.79427 2.1875 10.8672ZM 13.6328 15.1562C 12.487 15.1562 11.5547 14.7812 10.8359 14.0312C 10.1172 13.276 9.75781 12.2682 9.75781 11.0078L 9.75781 10.7422C 9.75781 9.90365 9.91667 9.15625 10.2344 8.5C 10.5573 7.83854 11.0052 7.32292 11.5781 6.95312C 12.1562 6.57812 12.7812 6.39062 13.4531 6.39062C 14.5521 6.39062 15.4062 6.7526 16.0156 7.47656C 16.625 8.20052 16.9297 9.23698 16.9297 10.5859L 16.9297 11.1875L 11.2031 11.1875C 11.224 12.0208 11.4661 12.6953 11.9297 13.2109C 12.3984 13.7214 12.9922 13.9766 13.7109 13.9766C 14.2214 13.9766 14.6536 13.8724 15.0078 13.6641C 15.362 13.4557 15.6719 13.1797 15.9375 12.8359L 16.8203 13.5234C 16.112 14.612 15.0495 15.1562 13.6328 15.1562ZM 13.4531 7.57812C 12.8698 7.57812 12.3802 7.79167 11.9844 8.21875C 11.5885 8.64062 11.3438 9.23438 11.25 10L 15.4844 10L 15.4844 9.89062C 15.4427 9.15625 15.2448 8.58854 14.8906 8.1875C 14.5365 7.78125 14.0573 7.57812 13.4531 7.57812ZM 20.5703 4.5L 20.5703 6.54688L 22.1484 6.54688L 22.1484 7.66406L 20.5703 7.66406L 20.5703 12.9062C 20.5703 13.2448 20.6406 13.5 20.7812 13.6719C 20.9219 13.8385 21.1615 13.9219 21.5 13.9219C 21.6667 13.9219 21.8958 13.8906 22.1875 13.8281L 22.1875 15C 21.8073 15.1042 21.4375 15.1562 21.0781 15.1562C 20.4323 15.1562 19.9453 14.9609 19.6172 14.5703C 19.2891 14.1797 19.125 13.625 19.125 12.9062L 19.125 7.66406L 17.5859 7.66406L 17.5859 6.54688L 19.125 6.54688L 19.125 4.5L 20.5703 4.5ZM 27.7578 10.3828C 27.7578 9.20573 27.9141 8.07552 28.2266 6.99219C 28.5443 5.90885 29.0156 4.92448 29.6406 4.03906C 30.2656 3.15365 30.9141 2.52865 31.5859 2.16406L 31.8828 3.11719C 31.1224 3.70052 30.4974 4.59115 30.0078 5.78906C 29.5234 6.98698 29.2578 8.32812 29.2109 9.8125L 29.2031 10.4766C 29.2031 12.487 29.5703 14.2318 30.3047 15.7109C 30.7474 16.5964 31.2734 17.2891 31.8828 17.7891L 31.5859 18.6719C 30.8932 18.2865 30.2318 17.6406 29.6016 16.7344C 28.3724 14.9635 27.7578 12.8464 27.7578 10.3828ZM 112.023 10.4609C 112.023 11.6224 111.87 12.737 111.562 13.8047C 111.26 14.8672 110.794 15.849 110.164 16.75C 109.539 17.651 108.883 18.2917 108.195 18.6719L 107.891 17.7891C 108.693 17.1745 109.336 16.2214 109.82 14.9297C 110.31 13.6328 110.56 12.1953 110.57 10.6172L 110.57 10.3672C 110.57 9.27344 110.456 8.25781 110.227 7.32031C 109.997 6.3776 109.677 5.53385 109.266 4.78906C 108.859 4.04427 108.401 3.46354 107.891 3.04688L 108.195 2.16406C 108.883 2.54427 109.536 3.17969 110.156 4.07031C 110.781 4.96094 111.247 5.94271 111.555 7.01562C 111.867 8.08854 112.023 9.23698 112.023 10.4609ZM 128.797 8.64062L 122.281 8.64062L 122.281 7.38281L 128.797 7.38281L 128.797 8.64062ZM 128.797 11.8828L 122.281 11.8828L 122.281 10.6328L 128.797 10.6328L 128.797 11.8828ZM 144.125 15C 144.042 14.8333 143.974 14.5365 143.922 14.1094C 143.25 14.8073 142.448 15.1562 141.516 15.1562C 140.682 15.1562 139.997 14.9219 139.461 14.4531C 138.93 13.9792 138.664 13.3802 138.664 12.6562C 138.664 11.776 138.997 11.0938 139.664 10.6094C 140.336 10.1198 141.279 9.875 142.492 9.875L 143.898 9.875L 143.898 9.21094C 143.898 8.70573 143.747 8.30469 143.445 8.00781C 143.143 7.70573 142.698 7.55469 142.109 7.55469C 141.594 7.55469 141.161 7.6849 140.812 7.94531C 140.464 8.20573 140.289 8.52083 140.289 8.89062L 138.836 8.89062C 138.836 8.46875 138.984 8.0625 139.281 7.67188C 139.583 7.27604 139.99 6.96354 140.5 6.73438C 141.016 6.50521 141.581 6.39062 142.195 6.39062C 143.169 6.39062 143.932 6.63542 144.484 7.125C 145.036 7.60938 145.323 8.27865 145.344 9.13281L 145.344 13.0234C 145.344 13.7995 145.443 14.4167 145.641 14.875L 145.641 15L 144.125 15ZM 141.727 13.8984C 142.18 13.8984 142.609 13.7812 143.016 13.5469C 143.422 13.3125 143.716 13.0078 143.898 12.6328L 143.898 10.8984L 142.766 10.8984C 140.995 10.8984 140.109 11.4167 140.109 12.4531C 140.109 12.9062 140.26 13.2604 140.562 13.5156C 140.865 13.7708 141.253 13.8984 141.727 13.8984ZM 149.094 7.32031L 146.734 6.61719L 147.094 5.4375L 149.453 6.3125L 149.383 3.625L 150.578 3.625L 150.5 6.35156L 152.82 5.49219L 153.18 6.67969L 150.781 7.39062L 152.328 9.50781L 151.359 10.2422L 149.906 7.99219L 148.5 10.1875L 147.523 9.47656L 149.094 7.32031ZM 218.172 8.89844L 221.344 8.89844L 221.344 10.2656L 218.172 10.2656L 218.172 13.8594L 216.719 13.8594L 216.719 10.2656L 213.547 10.2656L 213.547 8.89844L 216.719 8.89844L 216.719 5.57812L 218.172 5.57812L 218.172 8.89844ZM 234.234 10.8672C 234.234 12.1589 233.938 13.1979 233.344 13.9844C 232.75 14.7656 231.953 15.1562 230.953 15.1562C 229.885 15.1562 229.06 14.7786 228.477 14.0234L 228.406 15L 227.078 15L 227.078 3L 228.523 3L 228.523 7.47656C 229.107 6.7526 229.911 6.39062 230.938 6.39062C 231.964 6.39062 232.768 6.77865 233.352 7.55469C 233.94 8.33073 234.234 9.39323 234.234 10.7422L 234.234 10.8672ZM 232.789 10.7031C 232.789 9.71875 232.599 8.95833 232.219 8.42188C 231.839 7.88542 231.292 7.61719 230.578 7.61719C 229.625 7.61719 228.94 8.0599 228.523 8.94531L 228.523 12.6016C 228.966 13.487 229.656 13.9297 230.594 13.9297C 231.286 13.9297 231.826 13.6615 232.211 13.125C 232.596 12.5885 232.789 11.7812 232.789 10.7031ZM 237.547 7.32031L 235.188 6.61719L 235.547 5.4375L 237.906 6.3125L 237.836 3.625L 239.031 3.625L 238.953 6.35156L 241.273 5.49219L 241.633 6.67969L 239.234 7.39062L 240.781 9.50781L 239.812 10.2422L 238.359 7.99219L 236.953 10.1875L 235.977 9.47656L 237.547 7.32031ZM 306.625 8.89844L 309.797 8.89844L 309.797 10.2656L 306.625 10.2656L 306.625 13.8594L 305.172 13.8594L 305.172 10.2656L 302 10.2656L 302 8.89844L 305.172 8.89844L 305.172 5.57812L 306.625 5.57812L 306.625 8.89844ZM 318.922 13.9766C 319.438 13.9766 319.888 13.8203 320.273 13.5078C 320.659 13.1953 320.872 12.8047 320.914 12.3359L 322.281 12.3359C 322.255 12.8203 322.089 13.2812 321.781 13.7188C 321.474 14.1562 321.062 14.5052 320.547 14.7656C 320.036 15.026 319.495 15.1562 318.922 15.1562C 317.771 15.1562 316.854 14.7734 316.172 14.0078C 315.495 13.237 315.156 12.1849 315.156 10.8516L 315.156 10.6094C 315.156 9.78646 315.307 9.05469 315.609 8.41406C 315.911 7.77344 316.344 7.27604 316.906 6.92188C 317.474 6.56771 318.143 6.39062 318.914 6.39062C 319.862 6.39062 320.648 6.67448 321.273 7.24219C 321.904 7.8099 322.24 8.54688 322.281 9.45312L 320.914 9.45312C 320.872 8.90625 320.664 8.45833 320.289 8.10938C 319.919 7.75521 319.461 7.57812 318.914 7.57812C 318.18 7.57812 317.609 7.84375 317.203 8.375C 316.802 8.90104 316.602 9.66406 316.602 10.6641L 316.602 10.9375C 316.602 11.9115 316.802 12.6615 317.203 13.1875C 317.604 13.7135 318.177 13.9766 318.922 13.9766ZM 325.391 7.32031L 323.031 6.61719L 323.391 5.4375L 325.75 6.3125L 325.68 3.625L 326.875 3.625L 326.797 6.35156L 329.117 5.49219L 329.477 6.67969L 327.078 7.39062L 328.625 9.50781L 327.656 10.2422L 326.203 7.99219L 324.797 10.1875L 323.82 9.47656L 325.391 7.32031Z"/>
<path id="path4_fill" d="M 4.60156 15.1562C 3.45573 15.1562 2.52344 14.7812 1.80469 14.0312C 1.08594 13.276 0.726562 12.2682 0.726562 11.0078L 0.726562 10.7422C 0.726562 9.90365 0.885417 9.15625 1.20312 8.5C 1.52604 7.83854 1.97396 7.32292 2.54688 6.95312C 3.125 6.57812 3.75 6.39062 4.42188 6.39062C 5.52083 6.39062 6.375 6.7526 6.98438 7.47656C 7.59375 8.20052 7.89844 9.23698 7.89844 10.5859L 7.89844 11.1875L 2.17188 11.1875C 2.19271 12.0208 2.4349 12.6953 2.89844 13.2109C 3.36719 13.7214 3.96094 13.9766 4.67969 13.9766C 5.1901 13.9766 5.6224 13.8724 5.97656 13.6641C 6.33073 13.4557 6.64062 13.1797 6.90625 12.8359L 7.78906 13.5234C 7.08073 14.612 6.01823 15.1562 4.60156 15.1562ZM 4.42188 7.57812C 3.83854 7.57812 3.34896 7.79167 2.95312 8.21875C 2.55729 8.64062 2.3125 9.23438 2.21875 10L 6.45312 10L 6.45312 9.89062C 6.41146 9.15625 6.21354 8.58854 5.85938 8.1875C 5.50521 7.78125 5.02604 7.57812 4.42188 7.57812ZM 22.1953 15L 22.1953 7.66406L 20.8594 7.66406L 20.8594 6.54688L 22.1953 6.54688L 22.1953 5.67969C 22.1953 4.77344 22.4375 4.07292 22.9219 3.57812C 23.4062 3.08333 24.0911 2.83594 24.9766 2.83594C 25.3099 2.83594 25.6406 2.88021 25.9688 2.96875L 25.8906 4.14062C 25.6458 4.09375 25.3854 4.07031 25.1094 4.07031C 24.6406 4.07031 24.2786 4.20833 24.0234 4.48438C 23.7682 4.75521 23.6406 5.14583 23.6406 5.65625L 23.6406 6.54688L 25.4453 6.54688L 25.4453 7.66406L 23.6406 7.66406L 23.6406 15L 22.1953 15ZM 2.53906 26.5703C 3.17969 25.7839 4.01302 25.3906 5.03906 25.3906C 6.82552 25.3906 7.72656 26.3984 7.74219 28.4141L 7.74219 34L 6.29688 34L 6.29688 28.4062C 6.29167 27.7969 6.15104 27.3464 5.875 27.0547C 5.60417 26.763 5.17969 26.6172 4.60156 26.6172C 4.13281 26.6172 3.72135 26.7422 3.36719 26.9922C 3.01302 27.2422 2.73698 27.5703 2.53906 27.9766L 2.53906 34L 1.09375 34L 1.09375 22L 2.53906 22L 2.53906 26.5703ZM 23.3828 34L 21.9375 34L 21.9375 25.5469L 23.3828 25.5469L 23.3828 34ZM 21.8203 23.3047C 21.8203 23.0703 21.8906 22.8724 22.0312 22.7109C 22.1771 22.5495 22.3906 22.4688 22.6719 22.4688C 22.9531 22.4688 23.1667 22.5495 23.3125 22.7109C 23.4583 22.8724 23.5312 23.0703 23.5312 23.3047C 23.5312 23.5391 23.4583 23.7344 23.3125 23.8906C 23.1667 24.0469 22.9531 24.125 22.6719 24.125C 22.3906 24.125 22.1771 24.0469 22.0312 23.8906C 21.8906 23.7344 21.8203 23.5391 21.8203 23.3047Z"/>
<path id="path5_stroke" d="M 0 0L 41 0L 41 -1L 0 -1L 0 0Z"/>
<path id="path6_fill" d="M 0.742188 10.7031C 0.742188 9.40625 1.04948 8.36458 1.66406 7.57812C 2.27865 6.78646 3.08333 6.39062 4.07812 6.39062C 5.06771 6.39062 5.85156 6.72917 6.42969 7.40625L 6.42969 3L 7.875 3L 7.875 15L 6.54688 15L 6.47656 14.0938C 5.89844 14.8021 5.09375 15.1562 4.0625 15.1562C 3.08333 15.1562 2.28385 14.7552 1.66406 13.9531C 1.04948 13.151 0.742188 12.1042 0.742188 10.8125L 0.742188 10.7031ZM 2.1875 10.8672C 2.1875 11.8255 2.38542 12.5755 2.78125 13.1172C 3.17708 13.6589 3.72396 13.9297 4.42188 13.9297C 5.33854 13.9297 6.00781 13.5182 6.42969 12.6953L 6.42969 8.8125C 5.9974 8.01562 5.33333 7.61719 4.4375 7.61719C 3.72917 7.61719 3.17708 7.89062 2.78125 8.4375C 2.38542 8.98438 2.1875 9.79427 2.1875 10.8672ZM 22.7422 15L 22.7422 7.66406L 21.4062 7.66406L 21.4062 6.54688L 22.7422 6.54688L 22.7422 5.67969C 22.7422 4.77344 22.9844 4.07292 23.4688 3.57812C 23.9531 3.08333 24.638 2.83594 25.5234 2.83594C 25.8568 2.83594 26.1875 2.88021 26.5156 2.96875L 26.4375 4.14062C 26.1927 4.09375 25.9323 4.07031 25.6562 4.07031C 25.1875 4.07031 24.8255 4.20833 24.5703 4.48438C 24.3151 4.75521 24.1875 5.14583 24.1875 5.65625L 24.1875 6.54688L 25.9922 6.54688L 25.9922 7.66406L 24.1875 7.66406L 24.1875 15L 22.7422 15ZM 0.75 29.7031C 0.75 28.3854 1.05469 27.3385 1.66406 26.5625C 2.27344 25.7812 3.08073 25.3906 4.08594 25.3906C 5.11719 25.3906 5.92188 25.7552 6.5 26.4844L 6.57031 25.5469L 7.89062 25.5469L 7.89062 33.7969C 7.89062 34.8906 7.5651 35.7526 6.91406 36.3828C 6.26823 37.013 5.39844 37.3281 4.30469 37.3281C 3.69531 37.3281 3.09896 37.1979 2.51562 36.9375C 1.93229 36.6771 1.48698 36.3203 1.17969 35.8672L 1.92969 35C 2.54948 35.7656 3.30729 36.1484 4.20312 36.1484C 4.90625 36.1484 5.45312 35.9505 5.84375 35.5547C 6.23958 35.1589 6.4375 34.6016 6.4375 33.8828L 6.4375 33.1562C 5.85938 33.8229 5.07031 34.1562 4.07031 34.1562C 3.08073 34.1562 2.27865 33.7578 1.66406 32.9609C 1.05469 32.1641 0.75 31.0781 0.75 29.7031ZM 2.20312 29.8672C 2.20312 30.8203 2.39844 31.5703 2.78906 32.1172C 3.17969 32.6589 3.72656 32.9297 4.42969 32.9297C 5.34115 32.9297 6.01042 32.5156 6.4375 31.6875L 6.4375 27.8281C 5.99479 27.0208 5.33073 26.6172 4.44531 26.6172C 3.74219 26.6172 3.19271 26.8906 2.79688 27.4375C 2.40104 27.9844 2.20312 28.7943 2.20312 29.8672ZM 23.5547 34L 22.1094 34L 22.1094 25.5469L 23.5547 25.5469L 23.5547 34ZM 21.9922 23.3047C 21.9922 23.0703 22.0625 22.8724 22.2031 22.7109C 22.349 22.5495 22.5625 22.4688 22.8438 22.4688C 23.125 22.4688 23.3385 22.5495 23.4844 22.7109C 23.6302 22.8724 23.7031 23.0703 23.7031 23.3047C 23.7031 23.5391 23.6302 23.7344 23.4844 23.8906C 23.3385 24.0469 23.125 24.125 22.8438 24.125C 22.5625 24.125 22.349 24.0469 22.2031 23.8906C 22.0625 23.7344 21.9922 23.5391 21.9922 23.3047Z"/>
<path id="path7_fill" d="M 0.742188 10.7031C 0.742188 9.40625 1.04948 8.36458 1.66406 7.57812C 2.27865 6.78646 3.08333 6.39062 4.07812 6.39062C 5.06771 6.39062 5.85156 6.72917 6.42969 7.40625L 6.42969 3L 7.875 3L 7.875 15L 6.54688 15L 6.47656 14.0938C 5.89844 14.8021 5.09375 15.1562 4.0625 15.1562C 3.08333 15.1562 2.28385 14.7552 1.66406 13.9531C 1.04948 13.151 0.742188 12.1042 0.742188 10.8125L 0.742188 10.7031ZM 2.1875 10.8672C 2.1875 11.8255 2.38542 12.5755 2.78125 13.1172C 3.17708 13.6589 3.72396 13.9297 4.42188 13.9297C 5.33854 13.9297 6.00781 13.5182 6.42969 12.6953L 6.42969 8.8125C 5.9974 8.01562 5.33333 7.61719 4.4375 7.61719C 3.72917 7.61719 3.17708 7.89062 2.78125 8.4375C 2.38542 8.98438 2.1875 9.79427 2.1875 10.8672ZM 25.5391 15.1562C 24.3932 15.1562 23.4609 14.7812 22.7422 14.0312C 22.0234 13.276 21.6641 12.2682 21.6641 11.0078L 21.6641 10.7422C 21.6641 9.90365 21.8229 9.15625 22.1406 8.5C 22.4635 7.83854 22.9115 7.32292 23.4844 6.95312C 24.0625 6.57812 24.6875 6.39062 25.3594 6.39062C 26.4583 6.39062 27.3125 6.7526 27.9219 7.47656C 28.5312 8.20052 28.8359 9.23698 28.8359 10.5859L 28.8359 11.1875L 23.1094 11.1875C 23.1302 12.0208 23.3724 12.6953 23.8359 13.2109C 24.3047 13.7214 24.8984 13.9766 25.6172 13.9766C 26.1276 13.9766 26.5599 13.8724 26.9141 13.6641C 27.2682 13.4557 27.5781 13.1797 27.8438 12.8359L 28.7266 13.5234C 28.0182 14.612 26.9557 15.1562 25.5391 15.1562ZM 25.3594 7.57812C 24.776 7.57812 24.2865 7.79167 23.8906 8.21875C 23.4948 8.64062 23.25 9.23438 23.1562 10L 27.3906 10L 27.3906 9.89062C 27.349 9.15625 27.151 8.58854 26.7969 8.1875C 26.4427 7.78125 25.9635 7.57812 25.3594 7.57812ZM 0.75 29.7031C 0.75 28.3854 1.05469 27.3385 1.66406 26.5625C 2.27344 25.7812 3.08073 25.3906 4.08594 25.3906C 5.11719 25.3906 5.92188 25.7552 6.5 26.4844L 6.57031 25.5469L 7.89062 25.5469L 7.89062 33.7969C 7.89062 34.8906 7.5651 35.7526 6.91406 36.3828C 6.26823 37.013 5.39844 37.3281 4.30469 37.3281C 3.69531 37.3281 3.09896 37.1979 2.51562 36.9375C 1.93229 36.6771 1.48698 36.3203 1.17969 35.8672L 1.92969 35C 2.54948 35.7656 3.30729 36.1484 4.20312 36.1484C 4.90625 36.1484 5.45312 35.9505 5.84375 35.5547C 6.23958 35.1589 6.4375 34.6016 6.4375 33.8828L 6.4375 33.1562C 5.85938 33.8229 5.07031 34.1562 4.07031 34.1562C 3.08073 34.1562 2.27865 33.7578 1.66406 32.9609C 1.05469 32.1641 0.75 31.0781 0.75 29.7031ZM 2.20312 29.8672C 2.20312 30.8203 2.39844 31.5703 2.78906 32.1172C 3.17969 32.6589 3.72656 32.9297 4.42969 32.9297C 5.34115 32.9297 6.01042 32.5156 6.4375 31.6875L 6.4375 27.8281C 5.99479 27.0208 5.33073 26.6172 4.44531 26.6172C 3.74219 26.6172 3.19271 26.8906 2.79688 27.4375C 2.40104 27.9844 2.20312 28.7943 2.20312 29.8672ZM 23.4297 26.5703C 24.0703 25.7839 24.9036 25.3906 25.9297 25.3906C 27.7161 25.3906 28.6172 26.3984 28.6328 28.4141L 28.6328 34L 27.1875 34L 27.1875 28.4062C 27.1823 27.7969 27.0417 27.3464 26.7656 27.0547C 26.4948 26.763 26.0703 26.6172 25.4922 26.6172C 25.0234 26.6172 24.612 26.7422 24.2578 26.9922C 23.9036 27.2422 23.6276 27.5703 23.4297 27.9766L 23.4297 34L 21.9844 34L 21.9844 22L 23.4297 22L 23.4297 26.5703Z"/>
</defs>
</svg>

