<svg width="589" height="64" viewBox="0 0 589 64" version="1.1" xmlns="http://www.w3.org/2000/svg" xmlns:xlink="http://www.w3.org/1999/xlink">
<title>Group.svg</title>
<desc>Created using Figma</desc>
<g id="Canvas" transform="translate(-288 -177)">
<g id="Group">
<g id="Group">
<g id="a b c d e f g h i">
<use xlink:href="#path0_fill" transform="translate(332 182)" fill="#333333"/>
</g>
<g id="Component">
<g id="Line 2">
<use xlink:href="#path1_stroke" transform="matrix(8.27892e-32 1 -0.998976 0.0452422 323 179)"/>
</g>
<g id="Line 3">
<use xlink:href="#path2_stroke" transform="translate(323 179)"/>
</g>
<g id="Line 3">
<use xlink:href="#path2_stroke" transform="translate(323 241)"/>
</g>
</g>
<g id="Line 2">
<use xlink:href="#path1_stroke" transform="matrix(-1.22465e-16 -1 0.998976 -0.0452422 392 239)"/>
</g>
<g id="Line 3">
<use xlink:href="#path2_stroke" transform="matrix(-1 1.22465e-16 -1.22465e-16 -1 392 239)"/>
</g>
<g id="Line 3">
<use xlink:href="#path2_stroke" transform="matrix(-1 1.22465e-16 -1.22465e-16 -1 392 177)"/>
</g>
<g id="det ( ) = a * det( ) + b * det( ) + c * det( )">
<use xlink:href="#path3_fill" transform="translate(288 200)"/>
</g>
<g id="a b c d e f g h i">
<use xlink:href="#path4_fill" transform="translate(492 180)" fill="#EB5757"/>
<use xlink:href="#path5_fill" transform="translate(492 180)" fill="#333333"/>
</g>
<g id="Line 2">
<use xlink:href="#path1_stroke" transform="matrix(2.44929e-16 1 -0.998976 0.0452422 482 178)"/>
</g>
<g id="Line 3">
<use xlink:href="#path2_stroke" transform="matrix(1 -2.44929e-16 2.44929e-16 1 482 178)"/>
</g>
<g id="Line 3">
<use xlink:href="#path2_stroke" transform="matrix(1 -2.44929e-16 2.44929e-16 1 482 240)"/>
</g>
<g id="Line 2">
<use xlink:href="#path1_stroke" transform="matrix(-1.22465e-16 -1 0.998976 -0.0452422 552 239)"/>
</g>
<g id="Line 3">
<use xlink:href="#path2_stroke" transform="matrix(-1 1.22465e-16 -1.22465e-16 -1 552 239)"/>
</g>
<g id="Line 3">
<use xlink:href="#path2_stroke" transform="matrix(-1 1.22465e-16 -1.22465e-16 -1 552 177)"/>
</g>
<g id="Line 9">
<use xlink:href="#path6_stroke" transform="translate(513.5 190)"/>
</g>
<g id="Line 9">
<use xlink:href="#path7_stroke" transform="matrix(6.12323e-17 1 -1 6.12323e-17 495 207)"/>
</g>
<g id="a b c d e f g h i">
<use xlink:href="#path8_fill" transform="translate(652 180)" fill="#EB5757"/>
<use xlink:href="#path9_fill" transform="translate(652 180)" fill="#333333"/>
</g>
<g id="Line 2">
<use xlink:href="#path1_stroke" transform="matrix(2.44929e-16 1 -0.998976 0.0452422 642 178)"/>
</g>
<g id="Line 3">
<use xlink:href="#path2_stroke" transform="matrix(1 -2.44929e-16 2.44929e-16 1 642 178)"/>
</g>
<g id="Line 2">
<use xlink:href="#path1_stroke" transform="matrix(-1.22465e-16 -1 0.998976 -0.0452422 712 239)"/>
</g>
<g id="Line 3">
<use xlink:href="#path2_stroke" transform="matrix(-1 1.22465e-16 -1.22465e-16 -1 712 177)"/>
</g>
<g id="Line 9">
<use xlink:href="#path10_stroke" transform="translate(650 192)"/>
</g>
<g id="Line 9">
<use xlink:href="#path11_stroke" transform="matrix(6.12323e-17 1 -1 6.12323e-17 675 205)"/>
</g>
<g id="Line 3">
<use xlink:href="#path2_stroke" transform="matrix(1 -2.44929e-16 2.44929e-16 1 642 240)"/>
</g>
<g id="Line 3">
<use xlink:href="#path2_stroke" transform="matrix(1 -2.44929e-16 2.44929e-16 1 706 239)"/>
</g>
<g id="Line 9">
<use xlink:href="#path10_stroke" transform="translate(691 193)"/>
</g>
<g id="a b c d e f g h i">
<use xlink:href="#path12_fill" transform="translate(808 180)" fill="#EB5757"/>
<use xlink:href="#path13_fill" transform="translate(808 180)" fill="#333333"/>
</g>
<g id="Line 2">
<use xlink:href="#path1_stroke" transform="matrix(2.44929e-16 1 -0.998976 0.0452422 798 178)"/>
</g>
<g id="Line 3">
<use xlink:href="#path2_stroke" transform="matrix(1 -2.44929e-16 2.44929e-16 1 798 178)"/>
</g>
<g id="Line 2">
<use xlink:href="#path1_stroke" transform="matrix(-1.22465e-16 -1 0.998976 -0.0452422 868 239)"/>
</g>
<g id="Line 3">
<use xlink:href="#path2_stroke" transform="matrix(-1 1.22465e-16 -1.22465e-16 -1 868 177)"/>
</g>
<g id="Line 9">
<use xlink:href="#path14_stroke" transform="translate(808 192)"/>
</g>
<g id="Line 9">
<use xlink:href="#path15_stroke" transform="matrix(8.44153e-17 1 -1 8.32667e-17 851 203)"/>
</g>
<g id="Line 3">
<use xlink:href="#path2_stroke" transform="matrix(1 -2.44929e-16 2.44929e-16 1 798 240)"/>
</g>
<g id="Line 3">
<use xlink:href="#path2_stroke" transform="matrix(1 -2.44929e-16 2.44929e-16 1 862 239)"/>
</g>
</g>
</g>
</g>
<defs>
<path id="path0_fill" d="M 6.3125 15C 6.22917 14.8333 6.16146 14.5365 6.10938 14.1094C 5.4375 14.8073 4.63542 15.1562 3.70312 15.1562C 2.86979 15.1562 2.1849 14.9219 1.64844 14.4531C 1.11719 13.9792 0.851562 13.3802 0.851562 12.6562C 0.851562 11.776 1.1849 11.0938 1.85156 10.6094C 2.52344 10.1198 3.46615 9.875 4.67969 9.875L 6.08594 9.875L 6.08594 9.21094C 6.08594 8.70573 5.9349 8.30469 5.63281 8.00781C 5.33073 7.70573 4.88542 7.55469 4.29688 7.55469C 3.78125 7.55469 3.34896 7.6849 3 7.94531C 2.65104 8.20573 2.47656 8.52083 2.47656 8.89062L 1.02344 8.89062C 1.02344 8.46875 1.17188 8.0625 1.46875 7.67188C 1.77083 7.27604 2.17708 6.96354 2.6875 6.73438C 3.20312 6.50521 3.76823 6.39062 4.38281 6.39062C 5.35677 6.39062 6.11979 6.63542 6.67188 7.125C 7.22396 7.60938 7.51042 8.27865 7.53125 9.13281L 7.53125 13.0234C 7.53125 13.7995 7.63021 14.4167 7.82812 14.875L 7.82812 15L 6.3125 15ZM 3.91406 13.8984C 4.36719 13.8984 4.79688 13.7812 5.20312 13.5469C 5.60938 13.3125 5.90365 13.0078 6.08594 12.6328L 6.08594 10.8984L 4.95312 10.8984C 3.18229 10.8984 2.29688 11.4167 2.29688 12.4531C 2.29688 12.9062 2.44792 13.2604 2.75 13.5156C 3.05208 13.7708 3.4401 13.8984 3.91406 13.8984ZM 28.8594 10.8672C 28.8594 12.1589 28.5625 13.1979 27.9688 13.9844C 27.375 14.7656 26.5781 15.1562 25.5781 15.1562C 24.5104 15.1562 23.6849 14.7786 23.1016 14.0234L 23.0312 15L 21.7031 15L 21.7031 3L 23.1484 3L 23.1484 7.47656C 23.7318 6.7526 24.5365 6.39062 25.5625 6.39062C 26.5885 6.39062 27.3932 6.77865 27.9766 7.55469C 28.5651 8.33073 28.8594 9.39323 28.8594 10.7422L 28.8594 10.8672ZM 27.4141 10.7031C 27.4141 9.71875 27.224 8.95833 26.8438 8.42188C 26.4635 7.88542 25.9167 7.61719 25.2031 7.61719C 24.25 7.61719 23.5651 8.0599 23.1484 8.94531L 23.1484 12.6016C 23.5911 13.487 24.2812 13.9297 25.2188 13.9297C 25.9115 13.9297 26.4505 13.6615 26.8359 13.125C 27.2214 12.5885 27.4141 11.7812 27.4141 10.7031ZM 45.9844 13.9766C 46.5 13.9766 46.9505 13.8203 47.3359 13.5078C 47.7214 13.1953 47.9349 12.8047 47.9766 12.3359L 49.3438 12.3359C 49.3177 12.8203 49.151 13.2812 48.8438 13.7188C 48.5365 14.1562 48.125 14.5052 47.6094 14.7656C 47.099 15.026 46.5573 15.1562 45.9844 15.1562C 44.8333 15.1562 43.9167 14.7734 43.2344 14.0078C 42.5573 13.237 42.2188 12.1849 42.2188 10.8516L 42.2188 10.6094C 42.2188 9.78646 42.3698 9.05469 42.6719 8.41406C 42.974 7.77344 43.4062 7.27604 43.9688 6.92188C 44.5365 6.56771 45.2057 6.39062 45.9766 6.39062C 46.9245 6.39062 47.7109 6.67448 48.3359 7.24219C 48.9661 7.8099 49.3021 8.54688 49.3438 9.45312L 47.9766 9.45312C 47.9349 8.90625 47.7266 8.45833 47.3516 8.10938C 46.9818 7.75521 46.5234 7.57812 45.9766 7.57812C 45.2422 7.57812 44.6719 7.84375 44.2656 8.375C 43.8646 8.90104 43.6641 9.66406 43.6641 10.6641L 43.6641 10.9375C 43.6641 11.9115 43.8646 12.6615 44.2656 13.1875C 44.6667 13.7135 45.2396 13.9766 45.9844 13.9766ZM 0.742188 29.7031C 0.742188 28.4062 1.04948 27.3646 1.66406 26.5781C 2.27865 25.7865 3.08333 25.3906 4.07812 25.3906C 5.06771 25.3906 5.85156 25.7292 6.42969 26.4062L 6.42969 22L 7.875 22L 7.875 34L 6.54688 34L 6.47656 33.0938C 5.89844 33.8021 5.09375 34.1562 4.0625 34.1562C 3.08333 34.1562 2.28385 33.7552 1.66406 32.9531C 1.04948 32.151 0.742188 31.1042 0.742188 29.8125L 0.742188 29.7031ZM 2.1875 29.8672C 2.1875 30.8255 2.38542 31.5755 2.78125 32.1172C 3.17708 32.6589 3.72396 32.9297 4.42188 32.9297C 5.33854 32.9297 6.00781 32.5182 6.42969 31.6953L 6.42969 27.8125C 5.9974 27.0156 5.33333 26.6172 4.4375 26.6172C 3.72917 26.6172 3.17708 26.8906 2.78125 27.4375C 2.38542 27.9844 2.1875 28.7943 2.1875 29.8672ZM 25.5391 34.1562C 24.3932 34.1562 23.4609 33.7812 22.7422 33.0312C 22.0234 32.276 21.6641 31.2682 21.6641 30.0078L 21.6641 29.7422C 21.6641 28.9036 21.8229 28.1562 22.1406 27.5C 22.4635 26.8385 22.9115 26.3229 23.4844 25.9531C 24.0625 25.5781 24.6875 25.3906 25.3594 25.3906C 26.4583 25.3906 27.3125 25.7526 27.9219 26.4766C 28.5312 27.2005 28.8359 28.237 28.8359 29.5859L 28.8359 30.1875L 23.1094 30.1875C 23.1302 31.0208 23.3724 31.6953 23.8359 32.2109C 24.3047 32.7214 24.8984 32.9766 25.6172 32.9766C 26.1276 32.9766 26.5599 32.8724 26.9141 32.6641C 27.2682 32.4557 27.5781 32.1797 27.8438 31.8359L 28.7266 32.5234C 28.0182 33.612 26.9557 34.1562 25.5391 34.1562ZM 25.3594 26.5781C 24.776 26.5781 24.2865 26.7917 23.8906 27.2188C 23.4948 27.6406 23.25 28.2344 23.1562 29L 27.3906 29L 27.3906 28.8906C 27.349 28.1562 27.151 27.5885 26.7969 27.1875C 26.4427 26.7812 25.9635 26.5781 25.3594 26.5781ZM 43.1328 34L 43.1328 26.6641L 41.7969 26.6641L 41.7969 25.5469L 43.1328 25.5469L 43.1328 24.6797C 43.1328 23.7734 43.375 23.0729 43.8594 22.5781C 44.3438 22.0833 45.0286 21.8359 45.9141 21.8359C 46.2474 21.8359 46.5781 21.8802 46.9062 21.9688L 46.8281 23.1406C 46.5833 23.0938 46.3229 23.0703 46.0469 23.0703C 45.5781 23.0703 45.2161 23.2083 44.9609 23.4844C 44.7057 23.7552 44.5781 24.1458 44.5781 24.6562L 44.5781 25.5469L 46.3828 25.5469L 46.3828 26.6641L 44.5781 26.6641L 44.5781 34L 43.1328 34ZM 0.75 47.7031C 0.75 46.3854 1.05469 45.3385 1.66406 44.5625C 2.27344 43.7812 3.08073 43.3906 4.08594 43.3906C 5.11719 43.3906 5.92188 43.7552 6.5 44.4844L 6.57031 43.5469L 7.89062 43.5469L 7.89062 51.7969C 7.89062 52.8906 7.5651 53.7526 6.91406 54.3828C 6.26823 55.013 5.39844 55.3281 4.30469 55.3281C 3.69531 55.3281 3.09896 55.1979 2.51562 54.9375C 1.93229 54.6771 1.48698 54.3203 1.17969 53.8672L 1.92969 53C 2.54948 53.7656 3.30729 54.1484 4.20312 54.1484C 4.90625 54.1484 5.45312 53.9505 5.84375 53.5547C 6.23958 53.1589 6.4375 52.6016 6.4375 51.8828L 6.4375 51.1562C 5.85938 51.8229 5.07031 52.1562 4.07031 52.1562C 3.08073 52.1562 2.27865 51.7578 1.66406 50.9609C 1.05469 50.1641 0.75 49.0781 0.75 47.7031ZM 2.20312 47.8672C 2.20312 48.8203 2.39844 49.5703 2.78906 50.1172C 3.17969 50.6589 3.72656 50.9297 4.42969 50.9297C 5.34115 50.9297 6.01042 50.5156 6.4375 49.6875L 6.4375 45.8281C 5.99479 45.0208 5.33073 44.6172 4.44531 44.6172C 3.74219 44.6172 3.19271 44.8906 2.79688 45.4375C 2.40104 45.9844 2.20312 46.7943 2.20312 47.8672ZM 23.4297 44.5703C 24.0703 43.7839 24.9036 43.3906 25.9297 43.3906C 27.7161 43.3906 28.6172 44.3984 28.6328 46.4141L 28.6328 52L 27.1875 52L 27.1875 46.4062C 27.1823 45.7969 27.0417 45.3464 26.7656 45.0547C 26.4948 44.763 26.0703 44.6172 25.4922 44.6172C 25.0234 44.6172 24.612 44.7422 24.2578 44.9922C 23.9036 45.2422 23.6276 45.5703 23.4297 45.9766L 23.4297 52L 21.9844 52L 21.9844 40L 23.4297 40L 23.4297 44.5703ZM 44.2734 52L 42.8281 52L 42.8281 43.5469L 44.2734 43.5469L 44.2734 52ZM 42.7109 41.3047C 42.7109 41.0703 42.7812 40.8724 42.9219 40.7109C 43.0677 40.5495 43.2812 40.4688 43.5625 40.4688C 43.8438 40.4688 44.0573 40.5495 44.2031 40.7109C 44.349 40.8724 44.4219 41.0703 44.4219 41.3047C 44.4219 41.5391 44.349 41.7344 44.2031 41.8906C 44.0573 42.0469 43.8438 42.125 43.5625 42.125C 43.2812 42.125 43.0677 42.0469 42.9219 41.8906C 42.7812 41.7344 42.7109 41.5391 42.7109 41.3047Z"/>
<path id="path1_stroke" d="M 0 0L 62 0L 62 -1L 0 -1L 0 0Z"/>
<path id="path2_stroke" d="M 0 0L 6 0L 6 -1L 0 -1L 0 0Z"/>
<path id="path3_fill" d="M 0.742188 10.7031C 0.742188 9.40625 1.04948 8.36458 1.66406 7.57812C 2.27865 6.78646 3.08333 6.39062 4.07812 6.39062C 5.06771 6.39062 5.85156 6.72917 6.42969 7.40625L 6.42969 3L 7.875 3L 7.875 15L 6.54688 15L 6.47656 14.0938C 5.89844 14.8021 5.09375 15.1562 4.0625 15.1562C 3.08333 15.1562 2.28385 14.7552 1.66406 13.9531C 1.04948 13.151 0.742188 12.1042 0.742188 10.8125L 0.742188 10.7031ZM 2.1875 10.8672C 2.1875 11.8255 2.38542 12.5755 2.78125 13.1172C 3.17708 13.6589 3.72396 13.9297 4.42188 13.9297C 5.33854 13.9297 6.00781 13.5182 6.42969 12.6953L 6.42969 8.8125C 5.9974 8.01562 5.33333 7.61719 4.4375 7.61719C 3.72917 7.61719 3.17708 7.89062 2.78125 8.4375C 2.38542 8.98438 2.1875 9.79427 2.1875 10.8672ZM 13.6328 15.1562C 12.487 15.1562 11.5547 14.7812 10.8359 14.0312C 10.1172 13.276 9.75781 12.2682 9.75781 11.0078L 9.75781 10.7422C 9.75781 9.90365 9.91667 9.15625 10.2344 8.5C 10.5573 7.83854 11.0052 7.32292 11.5781 6.95312C 12.1562 6.57812 12.7812 6.39062 13.4531 6.39062C 14.5521 6.39062 15.4062 6.7526 16.0156 7.47656C 16.625 8.20052 16.9297 9.23698 16.9297 10.5859L 16.9297 11.1875L 11.2031 11.1875C 11.224 12.0208 11.4661 12.6953 11.9297 13.2109C 12.3984 13.7214 12.9922 13.9766 13.7109 13.9766C 14.2214 13.9766 14.6536 13.8724 15.0078 13.6641C 15.362 13.4557 15.6719 13.1797 15.9375 12.8359L 16.8203 13.5234C 16.112 14.612 15.0495 15.1562 13.6328 15.1562ZM 13.4531 7.57812C 12.8698 7.57812 12.3802 7.79167 11.9844 8.21875C 11.5885 8.64062 11.3438 9.23438 11.25 10L 15.4844 10L 15.4844 9.89062C 15.4427 9.15625 15.2448 8.58854 14.8906 8.1875C 14.5365 7.78125 14.0573 7.57812 13.4531 7.57812ZM 20.5703 4.5L 20.5703 6.54688L 22.1484 6.54688L 22.1484 7.66406L 20.5703 7.66406L 20.5703 12.9062C 20.5703 13.2448 20.6406 13.5 20.7812 13.6719C 20.9219 13.8385 21.1615 13.9219 21.5 13.9219C 21.6667 13.9219 21.8958 13.8906 22.1875 13.8281L 22.1875 15C 21.8073 15.1042 21.4375 15.1562 21.0781 15.1562C 20.4323 15.1562 19.9453 14.9609 19.6172 14.5703C 19.2891 14.1797 19.125 13.625 19.125 12.9062L 19.125 7.66406L 17.5859 7.66406L 17.5859 6.54688L 19.125 6.54688L 19.125 4.5L 20.5703 4.5ZM 27.7578 10.3828C 27.7578 9.20573 27.9141 8.07552 28.2266 6.99219C 28.5443 5.90885 29.0156 4.92448 29.6406 4.03906C 30.2656 3.15365 30.9141 2.52865 31.5859 2.16406L 31.8828 3.11719C 31.1224 3.70052 30.4974 4.59115 30.0078 5.78906C 29.5234 6.98698 29.2578 8.32812 29.2109 9.8125L 29.2031 10.4766C 29.2031 12.487 29.5703 14.2318 30.3047 15.7109C 30.7474 16.5964 31.2734 17.2891 31.8828 17.7891L 31.5859 18.6719C 30.8932 18.2865 30.2318 17.6406 29.6016 16.7344C 28.3724 14.9635 27.7578 12.8464 27.7578 10.3828ZM 112.023 10.4609C 112.023 11.6224 111.87 12.737 111.562 13.8047C 111.26 14.8672 110.794 15.849 110.164 16.75C 109.539 17.651 108.883 18.2917 108.195 18.6719L 107.891 17.7891C 108.693 17.1745 109.336 16.2214 109.82 14.9297C 110.31 13.6328 110.56 12.1953 110.57 10.6172L 110.57 10.3672C 110.57 9.27344 110.456 8.25781 110.227 7.32031C 109.997 6.3776 109.677 5.53385 109.266 4.78906C 108.859 4.04427 108.401 3.46354 107.891 3.04688L 108.195 2.16406C 108.883 2.54427 109.536 3.17969 110.156 4.07031C 110.781 4.96094 111.247 5.94271 111.555 7.01562C 111.867 8.08854 112.023 9.23698 112.023 10.4609ZM 128.797 8.64062L 122.281 8.64062L 122.281 7.38281L 128.797 7.38281L 128.797 8.64062ZM 128.797 11.8828L 122.281 11.8828L 122.281 10.6328L 128.797 10.6328L 128.797 11.8828ZM 144.125 15C 144.042 14.8333 143.974 14.5365 143.922 14.1094C 143.25 14.8073 142.448 15.1562 141.516 15.1562C 140.682 15.1562 139.997 14.9219 139.461 14.4531C 138.93 13.9792 138.664 13.3802 138.664 12.6562C 138.664 11.776 138.997 11.0938 139.664 10.6094C 140.336 10.1198 141.279 9.875 142.492 9.875L 143.898 9.875L 143.898 9.21094C 143.898 8.70573 143.747 8.30469 143.445 8.00781C 143.143 7.70573 142.698 7.55469 142.109 7.55469C 141.594 7.55469 141.161 7.6849 140.812 7.94531C 140.464 8.20573 140.289 8.52083 140.289 8.89062L 138.836 8.89062C 138.836 8.46875 138.984 8.0625 139.281 7.67188C 139.583 7.27604 139.99 6.96354 140.5 6.73438C 141.016 6.50521 141.581 6.39062 142.195 6.39062C 143.169 6.39062 143.932 6.63542 144.484 7.125C 145.036 7.60938 145.323 8.27865 145.344 9.13281L 145.344 13.0234C 145.344 13.7995 145.443 14.4167 145.641 14.875L 145.641 15L 144.125 15ZM 141.727 13.8984C 142.18 13.8984 142.609 13.7812 143.016 13.5469C 143.422 13.3125 143.716 13.0078 143.898 12.6328L 143.898 10.8984L 142.766 10.8984C 140.995 10.8984 140.109 11.4167 140.109 12.4531C 140.109 12.9062 140.26 13.2604 140.562 13.5156C 140.865 13.7708 141.253 13.8984 141.727 13.8984ZM 153.062 7.32031L 150.703 6.61719L 151.062 5.4375L 153.422 6.3125L 153.352 3.625L 154.547 3.625L 154.469 6.35156L 156.789 5.49219L 157.148 6.67969L 154.75 7.39062L 156.297 9.50781L 155.328 10.2422L 153.875 7.99219L 152.469 10.1875L 151.492 9.47656L 153.062 7.32031ZM 162.086 10.7031C 162.086 9.40625 162.393 8.36458 163.008 7.57812C 163.622 6.78646 164.427 6.39062 165.422 6.39062C 166.411 6.39062 167.195 6.72917 167.773 7.40625L 167.773 3L 169.219 3L 169.219 15L 167.891 15L 167.82 14.0938C 167.242 14.8021 166.438 15.1562 165.406 15.1562C 164.427 15.1562 163.628 14.7552 163.008 13.9531C 162.393 13.151 162.086 12.1042 162.086 10.8125L 162.086 10.7031ZM 163.531 10.8672C 163.531 11.8255 163.729 12.5755 164.125 13.1172C 164.521 13.6589 165.068 13.9297 165.766 13.9297C 166.682 13.9297 167.352 13.5182 167.773 12.6953L 167.773 8.8125C 167.341 8.01562 166.677 7.61719 165.781 7.61719C 165.073 7.61719 164.521 7.89062 164.125 8.4375C 163.729 8.98438 163.531 9.79427 163.531 10.8672ZM 174.977 15.1562C 173.831 15.1562 172.898 14.7812 172.18 14.0312C 171.461 13.276 171.102 12.2682 171.102 11.0078L 171.102 10.7422C 171.102 9.90365 171.26 9.15625 171.578 8.5C 171.901 7.83854 172.349 7.32292 172.922 6.95312C 173.5 6.57812 174.125 6.39062 174.797 6.39062C 175.896 6.39062 176.75 6.7526 177.359 7.47656C 177.969 8.20052 178.273 9.23698 178.273 10.5859L 178.273 11.1875L 172.547 11.1875C 172.568 12.0208 172.81 12.6953 173.273 13.2109C 173.742 13.7214 174.336 13.9766 175.055 13.9766C 175.565 13.9766 175.997 13.8724 176.352 13.6641C 176.706 13.4557 177.016 13.1797 177.281 12.8359L 178.164 13.5234C 177.456 14.612 176.393 15.1562 174.977 15.1562ZM 174.797 7.57812C 174.214 7.57812 173.724 7.79167 173.328 8.21875C 172.932 8.64062 172.688 9.23438 172.594 10L 176.828 10L 176.828 9.89062C 176.786 9.15625 176.589 8.58854 176.234 8.1875C 175.88 7.78125 175.401 7.57812 174.797 7.57812ZM 181.914 4.5L 181.914 6.54688L 183.492 6.54688L 183.492 7.66406L 181.914 7.66406L 181.914 12.9062C 181.914 13.2448 181.984 13.5 182.125 13.6719C 182.266 13.8385 182.505 13.9219 182.844 13.9219C 183.01 13.9219 183.24 13.8906 183.531 13.8281L 183.531 15C 183.151 15.1042 182.781 15.1562 182.422 15.1562C 181.776 15.1562 181.289 14.9609 180.961 14.5703C 180.633 14.1797 180.469 13.625 180.469 12.9062L 180.469 7.66406L 178.93 7.66406L 178.93 6.54688L 180.469 6.54688L 180.469 4.5L 181.914 4.5ZM 185.133 10.3828C 185.133 9.20573 185.289 8.07552 185.602 6.99219C 185.919 5.90885 186.391 4.92448 187.016 4.03906C 187.641 3.15365 188.289 2.52865 188.961 2.16406L 189.258 3.11719C 188.497 3.70052 187.872 4.59115 187.383 5.78906C 186.898 6.98698 186.633 8.32812 186.586 9.8125L 186.578 10.4766C 186.578 12.487 186.945 14.2318 187.68 15.7109C 188.122 16.5964 188.648 17.2891 189.258 17.7891L 188.961 18.6719C 188.268 18.2865 187.607 17.6406 186.977 16.7344C 185.747 14.9635 185.133 12.8464 185.133 10.3828ZM 273.367 10.4609C 273.367 11.6224 273.214 12.737 272.906 13.8047C 272.604 14.8672 272.138 15.849 271.508 16.75C 270.883 17.651 270.227 18.2917 269.539 18.6719L 269.234 17.7891C 270.036 17.1745 270.68 16.2214 271.164 14.9297C 271.654 13.6328 271.904 12.1953 271.914 10.6172L 271.914 10.3672C 271.914 9.27344 271.799 8.25781 271.57 7.32031C 271.341 6.3776 271.021 5.53385 270.609 4.78906C 270.203 4.04427 269.745 3.46354 269.234 3.04688L 269.539 2.16406C 270.227 2.54427 270.88 3.17969 271.5 4.07031C 272.125 4.96094 272.591 5.94271 272.898 7.01562C 273.211 8.08854 273.367 9.23698 273.367 10.4609ZM 287.672 8.89844L 290.844 8.89844L 290.844 10.2656L 287.672 10.2656L 287.672 13.8594L 286.219 13.8594L 286.219 10.2656L 283.047 10.2656L 283.047 8.89844L 286.219 8.89844L 286.219 5.57812L 287.672 5.57812L 287.672 8.89844ZM 307.703 10.8672C 307.703 12.1589 307.406 13.1979 306.812 13.9844C 306.219 14.7656 305.422 15.1562 304.422 15.1562C 303.354 15.1562 302.529 14.7786 301.945 14.0234L 301.875 15L 300.547 15L 300.547 3L 301.992 3L 301.992 7.47656C 302.576 6.7526 303.38 6.39062 304.406 6.39062C 305.432 6.39062 306.237 6.77865 306.82 7.55469C 307.409 8.33073 307.703 9.39323 307.703 10.7422L 307.703 10.8672ZM 306.258 10.7031C 306.258 9.71875 306.068 8.95833 305.688 8.42188C 305.307 7.88542 304.76 7.61719 304.047 7.61719C 303.094 7.61719 302.409 8.0599 301.992 8.94531L 301.992 12.6016C 302.435 13.487 303.125 13.9297 304.062 13.9297C 304.755 13.9297 305.294 13.6615 305.68 13.125C 306.065 12.5885 306.258 11.7812 306.258 10.7031ZM 314.984 7.32031L 312.625 6.61719L 312.984 5.4375L 315.344 6.3125L 315.273 3.625L 316.469 3.625L 316.391 6.35156L 318.711 5.49219L 319.07 6.67969L 316.672 7.39062L 318.219 9.50781L 317.25 10.2422L 315.797 7.99219L 314.391 10.1875L 313.414 9.47656L 314.984 7.32031ZM 324.008 10.7031C 324.008 9.40625 324.315 8.36458 324.93 7.57812C 325.544 6.78646 326.349 6.39062 327.344 6.39062C 328.333 6.39062 329.117 6.72917 329.695 7.40625L 329.695 3L 331.141 3L 331.141 15L 329.812 15L 329.742 14.0938C 329.164 14.8021 328.359 15.1562 327.328 15.1562C 326.349 15.1562 325.549 14.7552 324.93 13.9531C 324.315 13.151 324.008 12.1042 324.008 10.8125L 324.008 10.7031ZM 325.453 10.8672C 325.453 11.8255 325.651 12.5755 326.047 13.1172C 326.443 13.6589 326.99 13.9297 327.688 13.9297C 328.604 13.9297 329.273 13.5182 329.695 12.6953L 329.695 8.8125C 329.263 8.01562 328.599 7.61719 327.703 7.61719C 326.995 7.61719 326.443 7.89062 326.047 8.4375C 325.651 8.98438 325.453 9.79427 325.453 10.8672ZM 336.898 15.1562C 335.753 15.1562 334.82 14.7812 334.102 14.0312C 333.383 13.276 333.023 12.2682 333.023 11.0078L 333.023 10.7422C 333.023 9.90365 333.182 9.15625 333.5 8.5C 333.823 7.83854 334.271 7.32292 334.844 6.95312C 335.422 6.57812 336.047 6.39062 336.719 6.39062C 337.818 6.39062 338.672 6.7526 339.281 7.47656C 339.891 8.20052 340.195 9.23698 340.195 10.5859L 340.195 11.1875L 334.469 11.1875C 334.49 12.0208 334.732 12.6953 335.195 13.2109C 335.664 13.7214 336.258 13.9766 336.977 13.9766C 337.487 13.9766 337.919 13.8724 338.273 13.6641C 338.628 13.4557 338.938 13.1797 339.203 12.8359L 340.086 13.5234C 339.378 14.612 338.315 15.1562 336.898 15.1562ZM 336.719 7.57812C 336.135 7.57812 335.646 7.79167 335.25 8.21875C 334.854 8.64062 334.609 9.23438 334.516 10L 338.75 10L 338.75 9.89062C 338.708 9.15625 338.51 8.58854 338.156 8.1875C 337.802 7.78125 337.323 7.57812 336.719 7.57812ZM 343.836 4.5L 343.836 6.54688L 345.414 6.54688L 345.414 7.66406L 343.836 7.66406L 343.836 12.9062C 343.836 13.2448 343.906 13.5 344.047 13.6719C 344.188 13.8385 344.427 13.9219 344.766 13.9219C 344.932 13.9219 345.161 13.8906 345.453 13.8281L 345.453 15C 345.073 15.1042 344.703 15.1562 344.344 15.1562C 343.698 15.1562 343.211 14.9609 342.883 14.5703C 342.555 14.1797 342.391 13.625 342.391 12.9062L 342.391 7.66406L 340.852 7.66406L 340.852 6.54688L 342.391 6.54688L 342.391 4.5L 343.836 4.5ZM 347.055 10.3828C 347.055 9.20573 347.211 8.07552 347.523 6.99219C 347.841 5.90885 348.312 4.92448 348.938 4.03906C 349.562 3.15365 350.211 2.52865 350.883 2.16406L 351.18 3.11719C 350.419 3.70052 349.794 4.59115 349.305 5.78906C 348.82 6.98698 348.555 8.32812 348.508 9.8125L 348.5 10.4766C 348.5 12.487 348.867 14.2318 349.602 15.7109C 350.044 16.5964 350.57 17.2891 351.18 17.7891L 350.883 18.6719C 350.19 18.2865 349.529 17.6406 348.898 16.7344C 347.669 14.9635 347.055 12.8464 347.055 10.3828ZM 431.32 10.4609C 431.32 11.6224 431.167 12.737 430.859 13.8047C 430.557 14.8672 430.091 15.849 429.461 16.75C 428.836 17.651 428.18 18.2917 427.492 18.6719L 427.188 17.7891C 427.99 17.1745 428.633 16.2214 429.117 14.9297C 429.607 13.6328 429.857 12.1953 429.867 10.6172L 429.867 10.3672C 429.867 9.27344 429.753 8.25781 429.523 7.32031C 429.294 6.3776 428.974 5.53385 428.562 4.78906C 428.156 4.04427 427.698 3.46354 427.188 3.04688L 427.492 2.16406C 428.18 2.54427 428.833 3.17969 429.453 4.07031C 430.078 4.96094 430.544 5.94271 430.852 7.01562C 431.164 8.08854 431.32 9.23698 431.32 10.4609ZM 449.594 8.89844L 452.766 8.89844L 452.766 10.2656L 449.594 10.2656L 449.594 13.8594L 448.141 13.8594L 448.141 10.2656L 444.969 10.2656L 444.969 8.89844L 448.141 8.89844L 448.141 5.57812L 449.594 5.57812L 449.594 8.89844ZM 461.891 13.9766C 462.406 13.9766 462.857 13.8203 463.242 13.5078C 463.628 13.1953 463.841 12.8047 463.883 12.3359L 465.25 12.3359C 465.224 12.8203 465.057 13.2812 464.75 13.7188C 464.443 14.1562 464.031 14.5052 463.516 14.7656C 463.005 15.026 462.464 15.1562 461.891 15.1562C 460.74 15.1562 459.823 14.7734 459.141 14.0078C 458.464 13.237 458.125 12.1849 458.125 10.8516L 458.125 10.6094C 458.125 9.78646 458.276 9.05469 458.578 8.41406C 458.88 7.77344 459.312 7.27604 459.875 6.92188C 460.443 6.56771 461.112 6.39062 461.883 6.39062C 462.831 6.39062 463.617 6.67448 464.242 7.24219C 464.872 7.8099 465.208 8.54688 465.25 9.45312L 463.883 9.45312C 463.841 8.90625 463.633 8.45833 463.258 8.10938C 462.888 7.75521 462.43 7.57812 461.883 7.57812C 461.148 7.57812 460.578 7.84375 460.172 8.375C 459.771 8.90104 459.57 9.66406 459.57 10.6641L 459.57 10.9375C 459.57 11.9115 459.771 12.6615 460.172 13.1875C 460.573 13.7135 461.146 13.9766 461.891 13.9766ZM 472.328 7.32031L 469.969 6.61719L 470.328 5.4375L 472.688 6.3125L 472.617 3.625L 473.812 3.625L 473.734 6.35156L 476.055 5.49219L 476.414 6.67969L 474.016 7.39062L 475.562 9.50781L 474.594 10.2422L 473.141 7.99219L 471.734 10.1875L 470.758 9.47656L 472.328 7.32031ZM 481.352 10.7031C 481.352 9.40625 481.659 8.36458 482.273 7.57812C 482.888 6.78646 483.693 6.39062 484.688 6.39062C 485.677 6.39062 486.461 6.72917 487.039 7.40625L 487.039 3L 488.484 3L 488.484 15L 487.156 15L 487.086 14.0938C 486.508 14.8021 485.703 15.1562 484.672 15.1562C 483.693 15.1562 482.893 14.7552 482.273 13.9531C 481.659 13.151 481.352 12.1042 481.352 10.8125L 481.352 10.7031ZM 482.797 10.8672C 482.797 11.8255 482.995 12.5755 483.391 13.1172C 483.786 13.6589 484.333 13.9297 485.031 13.9297C 485.948 13.9297 486.617 13.5182 487.039 12.6953L 487.039 8.8125C 486.607 8.01562 485.943 7.61719 485.047 7.61719C 484.339 7.61719 483.786 7.89062 483.391 8.4375C 482.995 8.98438 482.797 9.79427 482.797 10.8672ZM 494.242 15.1562C 493.096 15.1562 492.164 14.7812 491.445 14.0312C 490.727 13.276 490.367 12.2682 490.367 11.0078L 490.367 10.7422C 490.367 9.90365 490.526 9.15625 490.844 8.5C 491.167 7.83854 491.615 7.32292 492.188 6.95312C 492.766 6.57812 493.391 6.39062 494.062 6.39062C 495.161 6.39062 496.016 6.7526 496.625 7.47656C 497.234 8.20052 497.539 9.23698 497.539 10.5859L 497.539 11.1875L 491.812 11.1875C 491.833 12.0208 492.076 12.6953 492.539 13.2109C 493.008 13.7214 493.602 13.9766 494.32 13.9766C 494.831 13.9766 495.263 13.8724 495.617 13.6641C 495.971 13.4557 496.281 13.1797 496.547 12.8359L 497.43 13.5234C 496.721 14.612 495.659 15.1562 494.242 15.1562ZM 494.062 7.57812C 493.479 7.57812 492.99 7.79167 492.594 8.21875C 492.198 8.64062 491.953 9.23438 491.859 10L 496.094 10L 496.094 9.89062C 496.052 9.15625 495.854 8.58854 495.5 8.1875C 495.146 7.78125 494.667 7.57812 494.062 7.57812ZM 501.18 4.5L 501.18 6.54688L 502.758 6.54688L 502.758 7.66406L 501.18 7.66406L 501.18 12.9062C 501.18 13.2448 501.25 13.5 501.391 13.6719C 501.531 13.8385 501.771 13.9219 502.109 13.9219C 502.276 13.9219 502.505 13.8906 502.797 13.8281L 502.797 15C 502.417 15.1042 502.047 15.1562 501.688 15.1562C 501.042 15.1562 500.555 14.9609 500.227 14.5703C 499.898 14.1797 499.734 13.625 499.734 12.9062L 499.734 7.66406L 498.195 7.66406L 498.195 6.54688L 499.734 6.54688L 499.734 4.5L 501.18 4.5ZM 504.398 10.3828C 504.398 9.20573 504.555 8.07552 504.867 6.99219C 505.185 5.90885 505.656 4.92448 506.281 4.03906C 506.906 3.15365 507.555 2.52865 508.227 2.16406L 508.523 3.11719C 507.763 3.70052 507.138 4.59115 506.648 5.78906C 506.164 6.98698 505.898 8.32812 505.852 9.8125L 505.844 10.4766C 505.844 12.487 506.211 14.2318 506.945 15.7109C 507.388 16.5964 507.914 17.2891 508.523 17.7891L 508.227 18.6719C 507.534 18.2865 506.872 17.6406 506.242 16.7344C 505.013 14.9635 504.398 12.8464 504.398 10.3828ZM 588.664 10.4609C 588.664 11.6224 588.51 12.737 588.203 13.8047C 587.901 14.8672 587.435 15.849 586.805 16.75C 586.18 17.651 585.523 18.2917 584.836 18.6719L 584.531 17.7891C 585.333 17.1745 585.977 16.2214 586.461 14.9297C 586.951 13.6328 587.201 12.1953 587.211 10.6172L 587.211 10.3672C 587.211 9.27344 587.096 8.25781 586.867 7.32031C 586.638 6.3776 586.318 5.53385 585.906 4.78906C 585.5 4.04427 585.042 3.46354 584.531 3.04688L 584.836 2.16406C 585.523 2.54427 586.177 3.17969 586.797 4.07031C 587.422 4.96094 587.888 5.94271 588.195 7.01562C 588.508 8.08854 588.664 9.23698 588.664 10.4609Z"/>
<path id="path4_fill" d="M 25.5391 34.1562C 24.3932 34.1562 23.4609 33.7812 22.7422 33.0312C 22.0234 32.276 21.6641 31.2682 21.6641 30.0078L 21.6641 29.7422C 21.6641 28.9036 21.8229 28.1562 22.1406 27.5C 22.4635 26.8385 22.9115 26.3229 23.4844 25.9531C 24.0625 25.5781 24.6875 25.3906 25.3594 25.3906C 26.4583 25.3906 27.3125 25.7526 27.9219 26.4766C 28.5312 27.2005 28.8359 28.237 28.8359 29.5859L 28.8359 30.1875L 23.1094 30.1875C 23.1302 31.0208 23.3724 31.6953 23.8359 32.2109C 24.3047 32.7214 24.8984 32.9766 25.6172 32.9766C 26.1276 32.9766 26.5599 32.8724 26.9141 32.6641C 27.2682 32.4557 27.5781 32.1797 27.8438 31.8359L 28.7266 32.5234C 28.0182 33.612 26.9557 34.1562 25.5391 34.1562ZM 25.3594 26.5781C 24.776 26.5781 24.2865 26.7917 23.8906 27.2188C 23.4948 27.6406 23.25 28.2344 23.1562 29L 27.3906 29L 27.3906 28.8906C 27.349 28.1562 27.151 27.5885 26.7969 27.1875C 26.4427 26.7812 25.9635 26.5781 25.3594 26.5781ZM 43.1328 34L 43.1328 26.6641L 41.7969 26.6641L 41.7969 25.5469L 43.1328 25.5469L 43.1328 24.6797C 43.1328 23.7734 43.375 23.0729 43.8594 22.5781C 44.3438 22.0833 45.0286 21.8359 45.9141 21.8359C 46.2474 21.8359 46.5781 21.8802 46.9062 21.9688L 46.8281 23.1406C 46.5833 23.0938 46.3229 23.0703 46.0469 23.0703C 45.5781 23.0703 45.2161 23.2083 44.9609 23.4844C 44.7057 23.7552 44.5781 24.1458 44.5781 24.6562L 44.5781 25.5469L 46.3828 25.5469L 46.3828 26.6641L 44.5781 26.6641L 44.5781 34L 43.1328 34ZM 23.4297 44.5703C 24.0703 43.7839 24.9036 43.3906 25.9297 43.3906C 27.7161 43.3906 28.6172 44.3984 28.6328 46.4141L 28.6328 52L 27.1875 52L 27.1875 46.4062C 27.1823 45.7969 27.0417 45.3464 26.7656 45.0547C 26.4948 44.763 26.0703 44.6172 25.4922 44.6172C 25.0234 44.6172 24.612 44.7422 24.2578 44.9922C 23.9036 45.2422 23.6276 45.5703 23.4297 45.9766L 23.4297 52L 21.9844 52L 21.9844 40L 23.4297 40L 23.4297 44.5703ZM 44.2734 52L 42.8281 52L 42.8281 43.5469L 44.2734 43.5469L 44.2734 52ZM 42.7109 41.3047C 42.7109 41.0703 42.7812 40.8724 42.9219 40.7109C 43.0677 40.5495 43.2812 40.4688 43.5625 40.4688C 43.8438 40.4688 44.0573 40.5495 44.2031 40.7109C 44.349 40.8724 44.4219 41.0703 44.4219 41.3047C 44.4219 41.5391 44.349 41.7344 44.2031 41.8906C 44.0573 42.0469 43.8438 42.125 43.5625 42.125C 43.2812 42.125 43.0677 42.0469 42.9219 41.8906C 42.7812 41.7344 42.7109 41.5391 42.7109 41.3047Z"/>
<path id="path5_fill" d="M 6.3125 15C 6.22917 14.8333 6.16146 14.5365 6.10938 14.1094C 5.4375 14.8073 4.63542 15.1562 3.70312 15.1562C 2.86979 15.1562 2.1849 14.9219 1.64844 14.4531C 1.11719 13.9792 0.851562 13.3802 0.851562 12.6562C 0.851562 11.776 1.1849 11.0938 1.85156 10.6094C 2.52344 10.1198 3.46615 9.875 4.67969 9.875L 6.08594 9.875L 6.08594 9.21094C 6.08594 8.70573 5.9349 8.30469 5.63281 8.00781C 5.33073 7.70573 4.88542 7.55469 4.29688 7.55469C 3.78125 7.55469 3.34896 7.6849 3 7.94531C 2.65104 8.20573 2.47656 8.52083 2.47656 8.89062L 1.02344 8.89062C 1.02344 8.46875 1.17188 8.0625 1.46875 7.67188C 1.77083 7.27604 2.17708 6.96354 2.6875 6.73438C 3.20312 6.50521 3.76823 6.39062 4.38281 6.39062C 5.35677 6.39062 6.11979 6.63542 6.67188 7.125C 7.22396 7.60938 7.51042 8.27865 7.53125 9.13281L 7.53125 13.0234C 7.53125 13.7995 7.63021 14.4167 7.82812 14.875L 7.82812 15L 6.3125 15ZM 3.91406 13.8984C 4.36719 13.8984 4.79688 13.7812 5.20312 13.5469C 5.60938 13.3125 5.90365 13.0078 6.08594 12.6328L 6.08594 10.8984L 4.95312 10.8984C 3.18229 10.8984 2.29688 11.4167 2.29688 12.4531C 2.29688 12.9062 2.44792 13.2604 2.75 13.5156C 3.05208 13.7708 3.4401 13.8984 3.91406 13.8984ZM 28.8594 10.8672C 28.8594 12.1589 28.5625 13.1979 27.9688 13.9844C 27.375 14.7656 26.5781 15.1562 25.5781 15.1562C 24.5104 15.1562 23.6849 14.7786 23.1016 14.0234L 23.0312 15L 21.7031 15L 21.7031 3L 23.1484 3L 23.1484 7.47656C 23.7318 6.7526 24.5365 6.39062 25.5625 6.39062C 26.5885 6.39062 27.3932 6.77865 27.9766 7.55469C 28.5651 8.33073 28.8594 9.39323 28.8594 10.7422L 28.8594 10.8672ZM 27.4141 10.7031C 27.4141 9.71875 27.224 8.95833 26.8438 8.42188C 26.4635 7.88542 25.9167 7.61719 25.2031 7.61719C 24.25 7.61719 23.5651 8.0599 23.1484 8.94531L 23.1484 12.6016C 23.5911 13.487 24.2812 13.9297 25.2188 13.9297C 25.9115 13.9297 26.4505 13.6615 26.8359 13.125C 27.2214 12.5885 27.4141 11.7812 27.4141 10.7031ZM 45.9844 13.9766C 46.5 13.9766 46.9505 13.8203 47.3359 13.5078C 47.7214 13.1953 47.9349 12.8047 47.9766 12.3359L 49.3438 12.3359C 49.3177 12.8203 49.151 13.2812 48.8438 13.7188C 48.5365 14.1562 48.125 14.5052 47.6094 14.7656C 47.099 15.026 46.5573 15.1562 45.9844 15.1562C 44.8333 15.1562 43.9167 14.7734 43.2344 14.0078C 42.5573 13.237 42.2188 12.1849 42.2188 10.8516L 42.2188 10.6094C 42.2188 9.78646 42.3698 9.05469 42.6719 8.41406C 42.974 7.77344 43.4062 7.27604 43.9688 6.92188C 44.5365 6.56771 45.2057 6.39062 45.9766 6.39062C 46.9245 6.39062 47.7109 6.67448 48.3359 7.24219C 48.9661 7.8099 49.3021 8.54688 49.3438 9.45312L 47.9766 9.45312C 47.9349 8.90625 47.7266 8.45833 47.3516 8.10938C 46.9818 7.75521 46.5234 7.57812 45.9766 7.57812C 45.2422 7.57812 44.6719 7.84375 44.2656 8.375C 43.8646 8.90104 43.6641 9.66406 43.6641 10.6641L 43.6641 10.9375C 43.6641 11.9115 43.8646 12.6615 44.2656 13.1875C 44.6667 13.7135 45.2396 13.9766 45.9844 13.9766ZM 0.742188 29.7031C 0.742188 28.4062 1.04948 27.3646 1.66406 26.5781C 2.27865 25.7865 3.08333 25.3906 4.07812 25.3906C 5.06771 25.3906 5.85156 25.7292 6.42969 26.4062L 6.42969 22L 7.875 22L 7.875 34L 6.54688 34L 6.47656 33.0938C 5.89844 33.8021 5.09375 34.1562 4.0625 34.1562C 3.08333 34.1562 2.28385 33.7552 1.66406 32.9531C 1.04948 32.151 0.742188 31.1042 0.742188 29.8125L 0.742188 29.7031ZM 2.1875 29.8672C 2.1875 30.8255 2.38542 31.5755 2.78125 32.1172C 3.17708 32.6589 3.72396 32.9297 4.42188 32.9297C 5.33854 32.9297 6.00781 32.5182 6.42969 31.6953L 6.42969 27.8125C 5.9974 27.0156 5.33333 26.6172 4.4375 26.6172C 3.72917 26.6172 3.17708 26.8906 2.78125 27.4375C 2.38542 27.9844 2.1875 28.7943 2.1875 29.8672ZM 0.75 47.7031C 0.75 46.3854 1.05469 45.3385 1.66406 44.5625C 2.27344 43.7812 3.08073 43.3906 4.08594 43.3906C 5.11719 43.3906 5.92188 43.7552 6.5 44.4844L 6.57031 43.5469L 7.89062 43.5469L 7.89062 51.7969C 7.89062 52.8906 7.5651 53.7526 6.91406 54.3828C 6.26823 55.013 5.39844 55.3281 4.30469 55.3281C 3.69531 55.3281 3.09896 55.1979 2.51562 54.9375C 1.93229 54.6771 1.48698 54.3203 1.17969 53.8672L 1.92969 53C 2.54948 53.7656 3.30729 54.1484 4.20312 54.1484C 4.90625 54.1484 5.45312 53.9505 5.84375 53.5547C 6.23958 53.1589 6.4375 52.6016 6.4375 51.8828L 6.4375 51.1562C 5.85938 51.8229 5.07031 52.1562 4.07031 52.1562C 3.08073 52.1562 2.27865 51.7578 1.66406 50.9609C 1.05469 50.1641 0.75 49.0781 0.75 47.7031ZM 2.20312 47.8672C 2.20312 48.8203 2.39844 49.5703 2.78906 50.1172C 3.17969 50.6589 3.72656 50.9297 4.42969 50.9297C 5.34115 50.9297 6.01042 50.5156 6.4375 49.6875L 6.4375 45.8281C 5.99479 45.0208 5.33073 44.6172 4.44531 44.6172C 3.74219 44.6172 3.19271 44.8906 2.79688 45.4375C 2.40104 45.9844 2.20312 46.7943 2.20312 47.8672Z"/>
<path id="path6_stroke" d="M 0 2L 35.5 2L 35.5 -2L 0 -2L 0 2Z"/>
<path id="path7_stroke" d="M 0 0L 26 0L 26 -4L 0 -4L 0 0Z"/>
<path id="path8_fill" d="M 0.742188 29.7031C 0.742188 28.4062 1.04948 27.3646 1.66406 26.5781C 2.27865 25.7865 3.08333 25.3906 4.07812 25.3906C 5.06771 25.3906 5.85156 25.7292 6.42969 26.4062L 6.42969 22L 7.875 22L 7.875 34L 6.54688 34L 6.47656 33.0938C 5.89844 33.8021 5.09375 34.1562 4.0625 34.1562C 3.08333 34.1562 2.28385 33.7552 1.66406 32.9531C 1.04948 32.151 0.742188 31.1042 0.742188 29.8125L 0.742188 29.7031ZM 2.1875 29.8672C 2.1875 30.8255 2.38542 31.5755 2.78125 32.1172C 3.17708 32.6589 3.72396 32.9297 4.42188 32.9297C 5.33854 32.9297 6.00781 32.5182 6.42969 31.6953L 6.42969 27.8125C 5.9974 27.0156 5.33333 26.6172 4.4375 26.6172C 3.72917 26.6172 3.17708 26.8906 2.78125 27.4375C 2.38542 27.9844 2.1875 28.7943 2.1875 29.8672ZM 43.1328 34L 43.1328 26.6641L 41.7969 26.6641L 41.7969 25.5469L 43.1328 25.5469L 43.1328 24.6797C 43.1328 23.7734 43.375 23.0729 43.8594 22.5781C 44.3438 22.0833 45.0286 21.8359 45.9141 21.8359C 46.2474 21.8359 46.5781 21.8802 46.9062 21.9688L 46.8281 23.1406C 46.5833 23.0938 46.3229 23.0703 46.0469 23.0703C 45.5781 23.0703 45.2161 23.2083 44.9609 23.4844C 44.7057 23.7552 44.5781 24.1458 44.5781 24.6562L 44.5781 25.5469L 46.3828 25.5469L 46.3828 26.6641L 44.5781 26.6641L 44.5781 34L 43.1328 34ZM 0.75 47.7031C 0.75 46.3854 1.05469 45.3385 1.66406 44.5625C 2.27344 43.7812 3.08073 43.3906 4.08594 43.3906C 5.11719 43.3906 5.92188 43.7552 6.5 44.4844L 6.57031 43.5469L 7.89062 43.5469L 7.89062 51.7969C 7.89062 52.8906 7.5651 53.7526 6.91406 54.3828C 6.26823 55.013 5.39844 55.3281 4.30469 55.3281C 3.69531 55.3281 3.09896 55.1979 2.51562 54.9375C 1.93229 54.6771 1.48698 54.3203 1.17969 53.8672L 1.92969 53C 2.54948 53.7656 3.30729 54.1484 4.20312 54.1484C 4.90625 54.1484 5.45312 53.9505 5.84375 53.5547C 6.23958 53.1589 6.4375 52.6016 6.4375 51.8828L 6.4375 51.1562C 5.85938 51.8229 5.07031 52.1562 4.07031 52.1562C 3.08073 52.1562 2.27865 51.7578 1.66406 50.9609C 1.05469 50.1641 0.75 49.0781 0.75 47.7031ZM 2.20312 47.8672C 2.20312 48.8203 2.39844 49.5703 2.78906 50.1172C 3.17969 50.6589 3.72656 50.9297 4.42969 50.9297C 5.34115 50.9297 6.01042 50.5156 6.4375 49.6875L 6.4375 45.8281C 5.99479 45.0208 5.33073 44.6172 4.44531 44.6172C 3.74219 44.6172 3.19271 44.8906 2.79688 45.4375C 2.40104 45.9844 2.20312 46.7943 2.20312 47.8672ZM 44.2734 52L 42.8281 52L 42.8281 43.5469L 44.2734 43.5469L 44.2734 52ZM 42.7109 41.3047C 42.7109 41.0703 42.7812 40.8724 42.9219 40.7109C 43.0677 40.5495 43.2812 40.4688 43.5625 40.4688C 43.8438 40.4688 44.0573 40.5495 44.2031 40.7109C 44.349 40.8724 44.4219 41.0703 44.4219 41.3047C 44.4219 41.5391 44.349 41.7344 44.2031 41.8906C 44.0573 42.0469 43.8438 42.125 43.5625 42.125C 43.2812 42.125 43.0677 42.0469 42.9219 41.8906C 42.7812 41.7344 42.7109 41.5391 42.7109 41.3047Z"/>
<path id="path9_fill" d="M 6.3125 15C 6.22917 14.8333 6.16146 14.5365 6.10938 14.1094C 5.4375 14.8073 4.63542 15.1562 3.70312 15.1562C 2.86979 15.1562 2.1849 14.9219 1.64844 14.4531C 1.11719 13.9792 0.851562 13.3802 0.851562 12.6562C 0.851562 11.776 1.1849 11.0938 1.85156 10.6094C 2.52344 10.1198 3.46615 9.875 4.67969 9.875L 6.08594 9.875L 6.08594 9.21094C 6.08594 8.70573 5.9349 8.30469 5.63281 8.00781C 5.33073 7.70573 4.88542 7.55469 4.29688 7.55469C 3.78125 7.55469 3.34896 7.6849 3 7.94531C 2.65104 8.20573 2.47656 8.52083 2.47656 8.89062L 1.02344 8.89062C 1.02344 8.46875 1.17188 8.0625 1.46875 7.67188C 1.77083 7.27604 2.17708 6.96354 2.6875 6.73438C 3.20312 6.50521 3.76823 6.39062 4.38281 6.39062C 5.35677 6.39062 6.11979 6.63542 6.67188 7.125C 7.22396 7.60938 7.51042 8.27865 7.53125 9.13281L 7.53125 13.0234C 7.53125 13.7995 7.63021 14.4167 7.82812 14.875L 7.82812 15L 6.3125 15ZM 3.91406 13.8984C 4.36719 13.8984 4.79688 13.7812 5.20312 13.5469C 5.60938 13.3125 5.90365 13.0078 6.08594 12.6328L 6.08594 10.8984L 4.95312 10.8984C 3.18229 10.8984 2.29688 11.4167 2.29688 12.4531C 2.29688 12.9062 2.44792 13.2604 2.75 13.5156C 3.05208 13.7708 3.4401 13.8984 3.91406 13.8984ZM 28.8594 10.8672C 28.8594 12.1589 28.5625 13.1979 27.9688 13.9844C 27.375 14.7656 26.5781 15.1562 25.5781 15.1562C 24.5104 15.1562 23.6849 14.7786 23.1016 14.0234L 23.0312 15L 21.7031 15L 21.7031 3L 23.1484 3L 23.1484 7.47656C 23.7318 6.7526 24.5365 6.39062 25.5625 6.39062C 26.5885 6.39062 27.3932 6.77865 27.9766 7.55469C 28.5651 8.33073 28.8594 9.39323 28.8594 10.7422L 28.8594 10.8672ZM 27.4141 10.7031C 27.4141 9.71875 27.224 8.95833 26.8438 8.42188C 26.4635 7.88542 25.9167 7.61719 25.2031 7.61719C 24.25 7.61719 23.5651 8.0599 23.1484 8.94531L 23.1484 12.6016C 23.5911 13.487 24.2812 13.9297 25.2188 13.9297C 25.9115 13.9297 26.4505 13.6615 26.8359 13.125C 27.2214 12.5885 27.4141 11.7812 27.4141 10.7031ZM 45.9844 13.9766C 46.5 13.9766 46.9505 13.8203 47.3359 13.5078C 47.7214 13.1953 47.9349 12.8047 47.9766 12.3359L 49.3438 12.3359C 49.3177 12.8203 49.151 13.2812 48.8438 13.7188C 48.5365 14.1562 48.125 14.5052 47.6094 14.7656C 47.099 15.026 46.5573 15.1562 45.9844 15.1562C 44.8333 15.1562 43.9167 14.7734 43.2344 14.0078C 42.5573 13.237 42.2188 12.1849 42.2188 10.8516L 42.2188 10.6094C 42.2188 9.78646 42.3698 9.05469 42.6719 8.41406C 42.974 7.77344 43.4062 7.27604 43.9688 6.92188C 44.5365 6.56771 45.2057 6.39062 45.9766 6.39062C 46.9245 6.39062 47.7109 6.67448 48.3359 7.24219C 48.9661 7.8099 49.3021 8.54688 49.3438 9.45312L 47.9766 9.45312C 47.9349 8.90625 47.7266 8.45833 47.3516 8.10938C 46.9818 7.75521 46.5234 7.57812 45.9766 7.57812C 45.2422 7.57812 44.6719 7.84375 44.2656 8.375C 43.8646 8.90104 43.6641 9.66406 43.6641 10.6641L 43.6641 10.9375C 43.6641 11.9115 43.8646 12.6615 44.2656 13.1875C 44.6667 13.7135 45.2396 13.9766 45.9844 13.9766ZM 25.5391 34.1562C 24.3932 34.1562 23.4609 33.7812 22.7422 33.0312C 22.0234 32.276 21.6641 31.2682 21.6641 30.0078L 21.6641 29.7422C 21.6641 28.9036 21.8229 28.1562 22.1406 27.5C 22.4635 26.8385 22.9115 26.3229 23.4844 25.9531C 24.0625 25.5781 24.6875 25.3906 25.3594 25.3906C 26.4583 25.3906 27.3125 25.7526 27.9219 26.4766C 28.5312 27.2005 28.8359 28.237 28.8359 29.5859L 28.8359 30.1875L 23.1094 30.1875C 23.1302 31.0208 23.3724 31.6953 23.8359 32.2109C 24.3047 32.7214 24.8984 32.9766 25.6172 32.9766C 26.1276 32.9766 26.5599 32.8724 26.9141 32.6641C 27.2682 32.4557 27.5781 32.1797 27.8438 31.8359L 28.7266 32.5234C 28.0182 33.612 26.9557 34.1562 25.5391 34.1562ZM 25.3594 26.5781C 24.776 26.5781 24.2865 26.7917 23.8906 27.2188C 23.4948 27.6406 23.25 28.2344 23.1562 29L 27.3906 29L 27.3906 28.8906C 27.349 28.1562 27.151 27.5885 26.7969 27.1875C 26.4427 26.7812 25.9635 26.5781 25.3594 26.5781ZM 23.4297 44.5703C 24.0703 43.7839 24.9036 43.3906 25.9297 43.3906C 27.7161 43.3906 28.6172 44.3984 28.6328 46.4141L 28.6328 52L 27.1875 52L 27.1875 46.4062C 27.1823 45.7969 27.0417 45.3464 26.7656 45.0547C 26.4948 44.763 26.0703 44.6172 25.4922 44.6172C 25.0234 44.6172 24.612 44.7422 24.2578 44.9922C 23.9036 45.2422 23.6276 45.5703 23.4297 45.9766L 23.4297 52L 21.9844 52L 21.9844 40L 23.4297 40L 23.4297 44.5703Z"/>
<path id="path10_stroke" d="M 0 0L 13 0L 13 -4L 0 -4L 0 0Z"/>
<path id="path11_stroke" d="M 0 0L 25 0L 25 -4L 0 -4L 0 0Z"/>
<path id="path12_fill" d="M 0.742188 29.7031C 0.742188 28.4062 1.04948 27.3646 1.66406 26.5781C 2.27865 25.7865 3.08333 25.3906 4.07812 25.3906C 5.06771 25.3906 5.85156 25.7292 6.42969 26.4062L 6.42969 22L 7.875 22L 7.875 34L 6.54688 34L 6.47656 33.0938C 5.89844 33.8021 5.09375 34.1562 4.0625 34.1562C 3.08333 34.1562 2.28385 33.7552 1.66406 32.9531C 1.04948 32.151 0.742188 31.1042 0.742188 29.8125L 0.742188 29.7031ZM 2.1875 29.8672C 2.1875 30.8255 2.38542 31.5755 2.78125 32.1172C 3.17708 32.6589 3.72396 32.9297 4.42188 32.9297C 5.33854 32.9297 6.00781 32.5182 6.42969 31.6953L 6.42969 27.8125C 5.9974 27.0156 5.33333 26.6172 4.4375 26.6172C 3.72917 26.6172 3.17708 26.8906 2.78125 27.4375C 2.38542 27.9844 2.1875 28.7943 2.1875 29.8672ZM 25.5391 34.1562C 24.3932 34.1562 23.4609 33.7812 22.7422 33.0312C 22.0234 32.276 21.6641 31.2682 21.6641 30.0078L 21.6641 29.7422C 21.6641 28.9036 21.8229 28.1562 22.1406 27.5C 22.4635 26.8385 22.9115 26.3229 23.4844 25.9531C 24.0625 25.5781 24.6875 25.3906 25.3594 25.3906C 26.4583 25.3906 27.3125 25.7526 27.9219 26.4766C 28.5312 27.2005 28.8359 28.237 28.8359 29.5859L 28.8359 30.1875L 23.1094 30.1875C 23.1302 31.0208 23.3724 31.6953 23.8359 32.2109C 24.3047 32.7214 24.8984 32.9766 25.6172 32.9766C 26.1276 32.9766 26.5599 32.8724 26.9141 32.6641C 27.2682 32.4557 27.5781 32.1797 27.8438 31.8359L 28.7266 32.5234C 28.0182 33.612 26.9557 34.1562 25.5391 34.1562ZM 25.3594 26.5781C 24.776 26.5781 24.2865 26.7917 23.8906 27.2188C 23.4948 27.6406 23.25 28.2344 23.1562 29L 27.3906 29L 27.3906 28.8906C 27.349 28.1562 27.151 27.5885 26.7969 27.1875C 26.4427 26.7812 25.9635 26.5781 25.3594 26.5781ZM 0.75 47.7031C 0.75 46.3854 1.05469 45.3385 1.66406 44.5625C 2.27344 43.7812 3.08073 43.3906 4.08594 43.3906C 5.11719 43.3906 5.92188 43.7552 6.5 44.4844L 6.57031 43.5469L 7.89062 43.5469L 7.89062 51.7969C 7.89062 52.8906 7.5651 53.7526 6.91406 54.3828C 6.26823 55.013 5.39844 55.3281 4.30469 55.3281C 3.69531 55.3281 3.09896 55.1979 2.51562 54.9375C 1.93229 54.6771 1.48698 54.3203 1.17969 53.8672L 1.92969 53C 2.54948 53.7656 3.30729 54.1484 4.20312 54.1484C 4.90625 54.1484 5.45312 53.9505 5.84375 53.5547C 6.23958 53.1589 6.4375 52.6016 6.4375 51.8828L 6.4375 51.1562C 5.85938 51.8229 5.07031 52.1562 4.07031 52.1562C 3.08073 52.1562 2.27865 51.7578 1.66406 50.9609C 1.05469 50.1641 0.75 49.0781 0.75 47.7031ZM 2.20312 47.8672C 2.20312 48.8203 2.39844 49.5703 2.78906 50.1172C 3.17969 50.6589 3.72656 50.9297 4.42969 50.9297C 5.34115 50.9297 6.01042 50.5156 6.4375 49.6875L 6.4375 45.8281C 5.99479 45.0208 5.33073 44.6172 4.44531 44.6172C 3.74219 44.6172 3.19271 44.8906 2.79688 45.4375C 2.40104 45.9844 2.20312 46.7943 2.20312 47.8672ZM 23.4297 44.5703C 24.0703 43.7839 24.9036 43.3906 25.9297 43.3906C 27.7161 43.3906 28.6172 44.3984 28.6328 46.4141L 28.6328 52L 27.1875 52L 27.1875 46.4062C 27.1823 45.7969 27.0417 45.3464 26.7656 45.0547C 26.4948 44.763 26.0703 44.6172 25.4922 44.6172C 25.0234 44.6172 24.612 44.7422 24.2578 44.9922C 23.9036 45.2422 23.6276 45.5703 23.4297 45.9766L 23.4297 52L 21.9844 52L 21.9844 40L 23.4297 40L 23.4297 44.5703Z"/>
<path id="path13_fill" d="M 6.3125 15C 6.22917 14.8333 6.16146 14.5365 6.10938 14.1094C 5.4375 14.8073 4.63542 15.1562 3.70312 15.1562C 2.86979 15.1562 2.1849 14.9219 1.64844 14.4531C 1.11719 13.9792 0.851562 13.3802 0.851562 12.6562C 0.851562 11.776 1.1849 11.0938 1.85156 10.6094C 2.52344 10.1198 3.46615 9.875 4.67969 9.875L 6.08594 9.875L 6.08594 9.21094C 6.08594 8.70573 5.9349 8.30469 5.63281 8.00781C 5.33073 7.70573 4.88542 7.55469 4.29688 7.55469C 3.78125 7.55469 3.34896 7.6849 3 7.94531C 2.65104 8.20573 2.47656 8.52083 2.47656 8.89062L 1.02344 8.89062C 1.02344 8.46875 1.17188 8.0625 1.46875 7.67188C 1.77083 7.27604 2.17708 6.96354 2.6875 6.73438C 3.20312 6.50521 3.76823 6.39062 4.38281 6.39062C 5.35677 6.39062 6.11979 6.63542 6.67188 7.125C 7.22396 7.60938 7.51042 8.27865 7.53125 9.13281L 7.53125 13.0234C 7.53125 13.7995 7.63021 14.4167 7.82812 14.875L 7.82812 15L 6.3125 15ZM 3.91406 13.8984C 4.36719 13.8984 4.79688 13.7812 5.20312 13.5469C 5.60938 13.3125 5.90365 13.0078 6.08594 12.6328L 6.08594 10.8984L 4.95312 10.8984C 3.18229 10.8984 2.29688 11.4167 2.29688 12.4531C 2.29688 12.9062 2.44792 13.2604 2.75 13.5156C 3.05208 13.7708 3.4401 13.8984 3.91406 13.8984ZM 28.8594 10.8672C 28.8594 12.1589 28.5625 13.1979 27.9688 13.9844C 27.375 14.7656 26.5781 15.1562 25.5781 15.1562C 24.5104 15.1562 23.6849 14.7786 23.1016 14.0234L 23.0312 15L 21.7031 15L 21.7031 3L 23.1484 3L 23.1484 7.47656C 23.7318 6.7526 24.5365 6.39062 25.5625 6.39062C 26.5885 6.39062 27.3932 6.77865 27.9766 7.55469C 28.5651 8.33073 28.8594 9.39323 28.8594 10.7422L 28.8594 10.8672ZM 27.4141 10.7031C 27.4141 9.71875 27.224 8.95833 26.8438 8.42188C 26.4635 7.88542 25.9167 7.61719 25.2031 7.61719C 24.25 7.61719 23.5651 8.0599 23.1484 8.94531L 23.1484 12.6016C 23.5911 13.487 24.2812 13.9297 25.2188 13.9297C 25.9115 13.9297 26.4505 13.6615 26.8359 13.125C 27.2214 12.5885 27.4141 11.7812 27.4141 10.7031ZM 45.9844 13.9766C 46.5 13.9766 46.9505 13.8203 47.3359 13.5078C 47.7214 13.1953 47.9349 12.8047 47.9766 12.3359L 49.3438 12.3359C 49.3177 12.8203 49.151 13.2812 48.8438 13.7188C 48.5365 14.1562 48.125 14.5052 47.6094 14.7656C 47.099 15.026 46.5573 15.1562 45.9844 15.1562C 44.8333 15.1562 43.9167 14.7734 43.2344 14.0078C 42.5573 13.237 42.2188 12.1849 42.2188 10.8516L 42.2188 10.6094C 42.2188 9.78646 42.3698 9.05469 42.6719 8.41406C 42.974 7.77344 43.4062 7.27604 43.9688 6.92188C 44.5365 6.56771 45.2057 6.39062 45.9766 6.39062C 46.9245 6.39062 47.7109 6.67448 48.3359 7.24219C 48.9661 7.8099 49.3021 8.54688 49.3438 9.45312L 47.9766 9.45312C 47.9349 8.90625 47.7266 8.45833 47.3516 8.10938C 46.9818 7.75521 46.5234 7.57812 45.9766 7.57812C 45.2422 7.57812 44.6719 7.84375 44.2656 8.375C 43.8646 8.90104 43.6641 9.66406 43.6641 10.6641L 43.6641 10.9375C 43.6641 11.9115 43.8646 12.6615 44.2656 13.1875C 44.6667 13.7135 45.2396 13.9766 45.9844 13.9766ZM 43.1328 34L 43.1328 26.6641L 41.7969 26.6641L 41.7969 25.5469L 43.1328 25.5469L 43.1328 24.6797C 43.1328 23.7734 43.375 23.0729 43.8594 22.5781C 44.3438 22.0833 45.0286 21.8359 45.9141 21.8359C 46.2474 21.8359 46.5781 21.8802 46.9062 21.9688L 46.8281 23.1406C 46.5833 23.0938 46.3229 23.0703 46.0469 23.0703C 45.5781 23.0703 45.2161 23.2083 44.9609 23.4844C 44.7057 23.7552 44.5781 24.1458 44.5781 24.6562L 44.5781 25.5469L 46.3828 25.5469L 46.3828 26.6641L 44.5781 26.6641L 44.5781 34L 43.1328 34ZM 44.2734 52L 42.8281 52L 42.8281 43.5469L 44.2734 43.5469L 44.2734 52ZM 42.7109 41.3047C 42.7109 41.0703 42.7812 40.8724 42.9219 40.7109C 43.0677 40.5495 43.2812 40.4688 43.5625 40.4688C 43.8438 40.4688 44.0573 40.5495 44.2031 40.7109C 44.349 40.8724 44.4219 41.0703 44.4219 41.3047C 44.4219 41.5391 44.349 41.7344 44.2031 41.8906C 44.0573 42.0469 43.8438 42.125 43.5625 42.125C 43.2812 42.125 43.0677 42.0469 42.9219 41.8906C 42.7812 41.7344 42.7109 41.5391 42.7109 41.3047Z"/>
<path id="path14_stroke" d="M 0 0L 29 0L 29 -4L 0 -4L 0 0Z"/>
<path id="path15_stroke" d="M 0 0L 30 0L 30 -4L 0 -4L 0 0Z"/>
</defs>
</svg>

