<svg width="595" height="222" viewBox="0 0 595 222" version="1.1" xmlns="http://www.w3.org/2000/svg" xmlns:xlink="http://www.w3.org/1999/xlink">
<title>Group.svg</title>
<desc>Created using Figma</desc>
<g id="Canvas" transform="translate(-438 -450)">
<g id="Group">
<g id="a b c d e f g h i">
<use xlink:href="#path0_fill" transform="translate(451 537)" fill="#333333"/>
</g>
<g id="Group">
<g id="Group">
<g id="Line 2">
<use xlink:href="#path1_stroke" transform="matrix(-1.22465e-16 -1 0.998976 -0.0452422 514 598)"/>
</g>
<g id="Line 3">
<use xlink:href="#path2_stroke" transform="matrix(-1 1.22465e-16 -1.22465e-16 -1 514 598)"/>
</g>
</g>
<g id="Line 3">
<use xlink:href="#path2_stroke" transform="matrix(-1 1.22465e-16 -1.22465e-16 -1 514 536)"/>
</g>
</g>
<g id="-1">
<use xlink:href="#path3_fill" transform="translate(519 532)"/>
</g>
<g id="=">
<use xlink:href="#path4_fill" transform="translate(531 557)"/>
</g>
<g id="Group">
<g id="Group">
<g id="Line 2">
<use xlink:href="#path5_stroke" transform="matrix(2.34487e-32 1 -0.987456 0.157892 684 451)"/>
</g>
<g id="Line 3">
<use xlink:href="#path2_stroke" transform="translate(684 451)"/>
</g>
</g>
<g id="Group">
<g id="Line 2">
<use xlink:href="#path5_stroke" transform="matrix(2.34487e-32 1 -0.987456 0.157892 684 451)"/>
</g>
<g id="Line 3">
<use xlink:href="#path2_stroke" transform="translate(684 451)"/>
</g>
</g>
</g>
<g id="Line 3">
<use xlink:href="#path2_stroke" transform="translate(684 672)"/>
</g>
<g id="a b c d e f g h i">
<use xlink:href="#path6_fill" transform="translate(732 458)" fill="#EB5757"/>
<use xlink:href="#path7_fill" transform="translate(732 458)" fill="#333333"/>
</g>
<g id="Line 2">
<use xlink:href="#path1_stroke" transform="matrix(2.44929e-16 1 -0.998976 0.0452422 722 456)"/>
</g>
<g id="Line 3">
<use xlink:href="#path2_stroke" transform="matrix(1 -2.44929e-16 2.44929e-16 1 722 456)"/>
</g>
<g id="Line 3">
<use xlink:href="#path2_stroke" transform="matrix(1 -2.44929e-16 2.44929e-16 1 722 518)"/>
</g>
<g id="Line 2">
<use xlink:href="#path1_stroke" transform="matrix(-1.22465e-16 -1 0.998976 -0.0452422 792 517)"/>
</g>
<g id="Line 3">
<use xlink:href="#path2_stroke" transform="matrix(-1 1.22465e-16 -1.22465e-16 -1 792 517)"/>
</g>
<g id="Line 3">
<use xlink:href="#path2_stroke" transform="matrix(-1 1.22465e-16 -1.22465e-16 -1 792 455)"/>
</g>
<g id="Line 9">
<use xlink:href="#path8_stroke" transform="translate(753.5 468)"/>
</g>
<g id="Line 9">
<use xlink:href="#path9_stroke" transform="matrix(6.12323e-17 1 -1 6.12323e-17 735 485)"/>
</g>
<g id="det( )">
<use xlink:href="#path10_fill" transform="translate(690 472)"/>
</g>
<g id="det( )">
<use xlink:href="#path11_fill" transform="translate(550 556)"/>
</g>
<g id="1">
<use xlink:href="#path12_fill" transform="translate(610 494)"/>
</g>
<g id="Line 10">
<use xlink:href="#path13_stroke" transform="translate(589 524)"/>
</g>
<g id="a b c d e f g h i">
<use xlink:href="#path0_fill" transform="translate(596 536)" fill="#333333"/>
</g>
<g id="Group">
<g id="Group">
<g id="Line 2">
<use xlink:href="#path1_stroke" transform="matrix(8.27892e-32 1 -0.998976 0.0452422 581 536)"/>
</g>
<g id="Line 3">
<use xlink:href="#path2_stroke" transform="translate(581 536)"/>
</g>
</g>
<g id="Group">
<g id="Line 2">
<use xlink:href="#path1_stroke" transform="matrix(8.27892e-32 1 -0.998976 0.0452422 581 536)"/>
</g>
<g id="Line 3">
<use xlink:href="#path2_stroke" transform="translate(581 536)"/>
</g>
</g>
</g>
<g id="Group">
<g id="Group">
<g id="Line 2">
<use xlink:href="#path1_stroke" transform="matrix(-1.22465e-16 -1 0.998976 -0.0452422 659 597)"/>
</g>
<g id="Line 3">
<use xlink:href="#path2_stroke" transform="matrix(-1 1.22465e-16 -1.22465e-16 -1 659 597)"/>
</g>
</g>
<g id="Line 3">
<use xlink:href="#path2_stroke" transform="matrix(-1 1.22465e-16 -1.22465e-16 -1 659 535)"/>
</g>
</g>
<g id="Line 11">
<use xlink:href="#path2_stroke" transform="translate(581 598)"/>
</g>
<g id="a b c d e f g h i">
<use xlink:href="#path14_fill" transform="translate(943 609)" fill="#333333"/>
<use xlink:href="#path15_fill" transform="translate(943 609)" fill="#EB5757"/>
</g>
<g id="Line 2">
<use xlink:href="#path1_stroke" transform="matrix(2.44929e-16 1 -0.998976 0.0452422 933 607)"/>
</g>
<g id="Line 3">
<use xlink:href="#path2_stroke" transform="matrix(1 -2.44929e-16 2.44929e-16 1 933 607)"/>
</g>
<g id="Line 2">
<use xlink:href="#path1_stroke" transform="matrix(-1.22465e-16 -1 0.998976 -0.0452422 1003 668)"/>
</g>
<g id="Line 3">
<use xlink:href="#path2_stroke" transform="matrix(-1 1.22465e-16 -1.22465e-16 -1 1003 606)"/>
</g>
<g id="Line 9">
<use xlink:href="#path8_stroke" transform="translate(943 656)"/>
</g>
<g id="det( )">
<use xlink:href="#path16_fill" transform="translate(900 623)"/>
</g>
<g id="Line 3">
<use xlink:href="#path2_stroke" transform="matrix(-1 1.22465e-16 -1.22465e-16 -1 939 669)"/>
</g>
<g id="a b c d e f g h i">
<use xlink:href="#path17_fill" transform="translate(732 609)" fill="#EB5757"/>
<use xlink:href="#path18_fill" transform="translate(732 609)" fill="#333333"/>
</g>
<g id="Line 2">
<use xlink:href="#path1_stroke" transform="matrix(2.44929e-16 1 -0.998976 0.0452422 722 607)"/>
</g>
<g id="Line 3">
<use xlink:href="#path2_stroke" transform="matrix(1 -2.44929e-16 2.44929e-16 1 722 607)"/>
</g>
<g id="Line 2">
<use xlink:href="#path1_stroke" transform="matrix(-1.22465e-16 -1 0.998976 -0.0452422 792 668)"/>
</g>
<g id="Line 3">
<use xlink:href="#path2_stroke" transform="matrix(-1 1.22465e-16 -1.22465e-16 -1 792 606)"/>
</g>
<g id="Line 9">
<use xlink:href="#path8_stroke" transform="translate(749 659)"/>
</g>
<g id="Line 9">
<use xlink:href="#path19_stroke" transform="matrix(6.12323e-17 1 -1 6.12323e-17 736 616)"/>
</g>
<g id="det( )">
<use xlink:href="#path16_fill" transform="translate(690 623)"/>
</g>
<g id="Line 3">
<use xlink:href="#path2_stroke" transform="matrix(-1 1.22465e-16 -1.22465e-16 -1 728 669)"/>
</g>
<g id="a b c d e f g h i">
<use xlink:href="#path20_fill" transform="translate(940 456)" fill="#EB5757"/>
<use xlink:href="#path21_fill" transform="translate(940 456)" fill="#333333"/>
</g>
<g id="Line 2">
<use xlink:href="#path1_stroke" transform="matrix(2.44929e-16 1 -0.998976 0.0452422 930 454)"/>
</g>
<g id="Line 3">
<use xlink:href="#path2_stroke" transform="matrix(1 -2.44929e-16 2.44929e-16 1 930 454)"/>
</g>
<g id="Line 3">
<use xlink:href="#path2_stroke" transform="matrix(1 -2.44929e-16 2.44929e-16 1 930 516)"/>
</g>
<g id="Line 2">
<use xlink:href="#path1_stroke" transform="matrix(-1.22465e-16 -1 0.998976 -0.0452422 1000 515)"/>
</g>
<g id="Line 3">
<use xlink:href="#path2_stroke" transform="matrix(-1 1.22465e-16 -1.22465e-16 -1 1000 515)"/>
</g>
<g id="Line 3">
<use xlink:href="#path2_stroke" transform="matrix(-1 1.22465e-16 -1.22465e-16 -1 1000 453)"/>
</g>
<g id="Line 9">
<use xlink:href="#path8_stroke" transform="translate(937 467)"/>
</g>
<g id="Line 9">
<use xlink:href="#path9_stroke" transform="matrix(6.12323e-17 1 -1 6.12323e-17 983 480)"/>
</g>
<g id="det( )">
<use xlink:href="#path10_fill" transform="translate(898 470)"/>
</g>
<g id="...">
<use xlink:href="#path22_fill" transform="translate(750 552)"/>
</g>
<g id="...">
<use xlink:href="#path23_fill" transform="translate(849 470)"/>
</g>
<g id="...">
<use xlink:href="#path23_fill" transform="translate(849 555)"/>
</g>
<g id="...">
<use xlink:href="#path23_fill" transform="translate(957 555)"/>
</g>
<g id="...">
<use xlink:href="#path23_fill" transform="translate(849 616)"/>
</g>
<g id="Group">
<g id="Group">
<g id="Line 2">
<use xlink:href="#path5_stroke" transform="matrix(-1.22465e-16 -1 0.987456 -0.157892 1033 671)"/>
</g>
<g id="Line 3">
<use xlink:href="#path2_stroke" transform="matrix(-1 1.22465e-16 -1.22465e-16 -1 1033 671)"/>
</g>
</g>
<g id="Group">
<g id="Line 2">
<use xlink:href="#path5_stroke" transform="matrix(-1.22465e-16 -1 0.987456 -0.157892 1033 671)"/>
</g>
<g id="Line 3">
<use xlink:href="#path2_stroke" transform="matrix(-1 1.22465e-16 -1.22465e-16 -1 1033 671)"/>
</g>
</g>
</g>
<g id="Line 3">
<use xlink:href="#path2_stroke" transform="matrix(-1 1.22465e-16 -1.22465e-16 -1 1033 450)"/>
</g>
<g id="Line 9">
<use xlink:href="#path8_stroke" transform="matrix(6.12323e-17 1 -1 6.12323e-17 989 610)"/>
</g>
<g id="Group">
<g id="Group">
<g id="Line 2">
<use xlink:href="#path1_stroke" transform="matrix(2.44929e-16 1 -0.998976 0.0452422 438 537)"/>
</g>
<g id="Line 3">
<use xlink:href="#path2_stroke" transform="matrix(1 -2.44929e-16 2.44929e-16 1 438 537)"/>
</g>
</g>
<g id="Line 3">
<use xlink:href="#path2_stroke" transform="matrix(1 -2.44929e-16 2.44929e-16 1 438 599)"/>
</g>
</g>
<g id="Line 3">
<use xlink:href="#path2_stroke" transform="matrix(-1 1.22465e-16 -1.22465e-16 -1 1003 668)"/>
</g>
<g id="Line 3">
<use xlink:href="#path2_stroke" transform="matrix(-1 1.22465e-16 -1.22465e-16 -1 792 668)"/>
</g>
</g>
</g>
<defs>
<path id="path0_fill" d="M 6.3125 15C 6.22917 14.8333 6.16146 14.5365 6.10938 14.1094C 5.4375 14.8073 4.63542 15.1562 3.70312 15.1562C 2.86979 15.1562 2.1849 14.9219 1.64844 14.4531C 1.11719 13.9792 0.851562 13.3802 0.851562 12.6562C 0.851562 11.776 1.1849 11.0938 1.85156 10.6094C 2.52344 10.1198 3.46615 9.875 4.67969 9.875L 6.08594 9.875L 6.08594 9.21094C 6.08594 8.70573 5.9349 8.30469 5.63281 8.00781C 5.33073 7.70573 4.88542 7.55469 4.29688 7.55469C 3.78125 7.55469 3.34896 7.6849 3 7.94531C 2.65104 8.20573 2.47656 8.52083 2.47656 8.89062L 1.02344 8.89062C 1.02344 8.46875 1.17188 8.0625 1.46875 7.67188C 1.77083 7.27604 2.17708 6.96354 2.6875 6.73438C 3.20312 6.50521 3.76823 6.39062 4.38281 6.39062C 5.35677 6.39062 6.11979 6.63542 6.67188 7.125C 7.22396 7.60938 7.51042 8.27865 7.53125 9.13281L 7.53125 13.0234C 7.53125 13.7995 7.63021 14.4167 7.82812 14.875L 7.82812 15L 6.3125 15ZM 3.91406 13.8984C 4.36719 13.8984 4.79688 13.7812 5.20312 13.5469C 5.60938 13.3125 5.90365 13.0078 6.08594 12.6328L 6.08594 10.8984L 4.95312 10.8984C 3.18229 10.8984 2.29688 11.4167 2.29688 12.4531C 2.29688 12.9062 2.44792 13.2604 2.75 13.5156C 3.05208 13.7708 3.4401 13.8984 3.91406 13.8984ZM 28.8594 10.8672C 28.8594 12.1589 28.5625 13.1979 27.9688 13.9844C 27.375 14.7656 26.5781 15.1562 25.5781 15.1562C 24.5104 15.1562 23.6849 14.7786 23.1016 14.0234L 23.0312 15L 21.7031 15L 21.7031 3L 23.1484 3L 23.1484 7.47656C 23.7318 6.7526 24.5365 6.39062 25.5625 6.39062C 26.5885 6.39062 27.3932 6.77865 27.9766 7.55469C 28.5651 8.33073 28.8594 9.39323 28.8594 10.7422L 28.8594 10.8672ZM 27.4141 10.7031C 27.4141 9.71875 27.224 8.95833 26.8438 8.42188C 26.4635 7.88542 25.9167 7.61719 25.2031 7.61719C 24.25 7.61719 23.5651 8.0599 23.1484 8.94531L 23.1484 12.6016C 23.5911 13.487 24.2812 13.9297 25.2188 13.9297C 25.9115 13.9297 26.4505 13.6615 26.8359 13.125C 27.2214 12.5885 27.4141 11.7812 27.4141 10.7031ZM 45.9844 13.9766C 46.5 13.9766 46.9505 13.8203 47.3359 13.5078C 47.7214 13.1953 47.9349 12.8047 47.9766 12.3359L 49.3438 12.3359C 49.3177 12.8203 49.151 13.2812 48.8438 13.7188C 48.5365 14.1562 48.125 14.5052 47.6094 14.7656C 47.099 15.026 46.5573 15.1562 45.9844 15.1562C 44.8333 15.1562 43.9167 14.7734 43.2344 14.0078C 42.5573 13.237 42.2188 12.1849 42.2188 10.8516L 42.2188 10.6094C 42.2188 9.78646 42.3698 9.05469 42.6719 8.41406C 42.974 7.77344 43.4062 7.27604 43.9688 6.92188C 44.5365 6.56771 45.2057 6.39062 45.9766 6.39062C 46.9245 6.39062 47.7109 6.67448 48.3359 7.24219C 48.9661 7.8099 49.3021 8.54688 49.3438 9.45312L 47.9766 9.45312C 47.9349 8.90625 47.7266 8.45833 47.3516 8.10938C 46.9818 7.75521 46.5234 7.57812 45.9766 7.57812C 45.2422 7.57812 44.6719 7.84375 44.2656 8.375C 43.8646 8.90104 43.6641 9.66406 43.6641 10.6641L 43.6641 10.9375C 43.6641 11.9115 43.8646 12.6615 44.2656 13.1875C 44.6667 13.7135 45.2396 13.9766 45.9844 13.9766ZM 0.742188 29.7031C 0.742188 28.4062 1.04948 27.3646 1.66406 26.5781C 2.27865 25.7865 3.08333 25.3906 4.07812 25.3906C 5.06771 25.3906 5.85156 25.7292 6.42969 26.4062L 6.42969 22L 7.875 22L 7.875 34L 6.54688 34L 6.47656 33.0938C 5.89844 33.8021 5.09375 34.1562 4.0625 34.1562C 3.08333 34.1562 2.28385 33.7552 1.66406 32.9531C 1.04948 32.151 0.742188 31.1042 0.742188 29.8125L 0.742188 29.7031ZM 2.1875 29.8672C 2.1875 30.8255 2.38542 31.5755 2.78125 32.1172C 3.17708 32.6589 3.72396 32.9297 4.42188 32.9297C 5.33854 32.9297 6.00781 32.5182 6.42969 31.6953L 6.42969 27.8125C 5.9974 27.0156 5.33333 26.6172 4.4375 26.6172C 3.72917 26.6172 3.17708 26.8906 2.78125 27.4375C 2.38542 27.9844 2.1875 28.7943 2.1875 29.8672ZM 25.5391 34.1562C 24.3932 34.1562 23.4609 33.7812 22.7422 33.0312C 22.0234 32.276 21.6641 31.2682 21.6641 30.0078L 21.6641 29.7422C 21.6641 28.9036 21.8229 28.1562 22.1406 27.5C 22.4635 26.8385 22.9115 26.3229 23.4844 25.9531C 24.0625 25.5781 24.6875 25.3906 25.3594 25.3906C 26.4583 25.3906 27.3125 25.7526 27.9219 26.4766C 28.5312 27.2005 28.8359 28.237 28.8359 29.5859L 28.8359 30.1875L 23.1094 30.1875C 23.1302 31.0208 23.3724 31.6953 23.8359 32.2109C 24.3047 32.7214 24.8984 32.9766 25.6172 32.9766C 26.1276 32.9766 26.5599 32.8724 26.9141 32.6641C 27.2682 32.4557 27.5781 32.1797 27.8438 31.8359L 28.7266 32.5234C 28.0182 33.612 26.9557 34.1562 25.5391 34.1562ZM 25.3594 26.5781C 24.776 26.5781 24.2865 26.7917 23.8906 27.2188C 23.4948 27.6406 23.25 28.2344 23.1562 29L 27.3906 29L 27.3906 28.8906C 27.349 28.1562 27.151 27.5885 26.7969 27.1875C 26.4427 26.7812 25.9635 26.5781 25.3594 26.5781ZM 43.1328 34L 43.1328 26.6641L 41.7969 26.6641L 41.7969 25.5469L 43.1328 25.5469L 43.1328 24.6797C 43.1328 23.7734 43.375 23.0729 43.8594 22.5781C 44.3438 22.0833 45.0286 21.8359 45.9141 21.8359C 46.2474 21.8359 46.5781 21.8802 46.9062 21.9688L 46.8281 23.1406C 46.5833 23.0938 46.3229 23.0703 46.0469 23.0703C 45.5781 23.0703 45.2161 23.2083 44.9609 23.4844C 44.7057 23.7552 44.5781 24.1458 44.5781 24.6562L 44.5781 25.5469L 46.3828 25.5469L 46.3828 26.6641L 44.5781 26.6641L 44.5781 34L 43.1328 34ZM 0.75 47.7031C 0.75 46.3854 1.05469 45.3385 1.66406 44.5625C 2.27344 43.7812 3.08073 43.3906 4.08594 43.3906C 5.11719 43.3906 5.92188 43.7552 6.5 44.4844L 6.57031 43.5469L 7.89062 43.5469L 7.89062 51.7969C 7.89062 52.8906 7.5651 53.7526 6.91406 54.3828C 6.26823 55.013 5.39844 55.3281 4.30469 55.3281C 3.69531 55.3281 3.09896 55.1979 2.51562 54.9375C 1.93229 54.6771 1.48698 54.3203 1.17969 53.8672L 1.92969 53C 2.54948 53.7656 3.30729 54.1484 4.20312 54.1484C 4.90625 54.1484 5.45312 53.9505 5.84375 53.5547C 6.23958 53.1589 6.4375 52.6016 6.4375 51.8828L 6.4375 51.1562C 5.85938 51.8229 5.07031 52.1562 4.07031 52.1562C 3.08073 52.1562 2.27865 51.7578 1.66406 50.9609C 1.05469 50.1641 0.75 49.0781 0.75 47.7031ZM 2.20312 47.8672C 2.20312 48.8203 2.39844 49.5703 2.78906 50.1172C 3.17969 50.6589 3.72656 50.9297 4.42969 50.9297C 5.34115 50.9297 6.01042 50.5156 6.4375 49.6875L 6.4375 45.8281C 5.99479 45.0208 5.33073 44.6172 4.44531 44.6172C 3.74219 44.6172 3.19271 44.8906 2.79688 45.4375C 2.40104 45.9844 2.20312 46.7943 2.20312 47.8672ZM 23.4297 44.5703C 24.0703 43.7839 24.9036 43.3906 25.9297 43.3906C 27.7161 43.3906 28.6172 44.3984 28.6328 46.4141L 28.6328 52L 27.1875 52L 27.1875 46.4062C 27.1823 45.7969 27.0417 45.3464 26.7656 45.0547C 26.4948 44.763 26.0703 44.6172 25.4922 44.6172C 25.0234 44.6172 24.612 44.7422 24.2578 44.9922C 23.9036 45.2422 23.6276 45.5703 23.4297 45.9766L 23.4297 52L 21.9844 52L 21.9844 40L 23.4297 40L 23.4297 44.5703ZM 44.2734 52L 42.8281 52L 42.8281 43.5469L 44.2734 43.5469L 44.2734 52ZM 42.7109 41.3047C 42.7109 41.0703 42.7812 40.8724 42.9219 40.7109C 43.0677 40.5495 43.2812 40.4688 43.5625 40.4688C 43.8438 40.4688 44.0573 40.5495 44.2031 40.7109C 44.349 40.8724 44.4219 41.0703 44.4219 41.3047C 44.4219 41.5391 44.349 41.7344 44.2031 41.8906C 44.0573 42.0469 43.8438 42.125 43.5625 42.125C 43.2812 42.125 43.0677 42.0469 42.9219 41.8906C 42.7812 41.7344 42.7109 41.5391 42.7109 41.3047Z"/>
<path id="path1_stroke" d="M 0 0L 62 0L 62 -1L 0 -1L 0 0Z"/>
<path id="path2_stroke" d="M 0 0L 6 0L 6 -1L 0 -1L 0 0Z"/>
<path id="path3_fill" d="M 3.58887 9.28809L 0.25293 9.28809L 0.25293 8.25586L 3.58887 8.25586L 3.58887 9.28809ZM 8.85254 13L 7.58105 13L 7.58105 4.57129L 5.03125 5.50781L 5.03125 4.35938L 8.6543 2.99902L 8.85254 2.99902L 8.85254 13Z"/>
<path id="path4_fill" d="M 6.74023 7.43555L 1.03906 7.43555L 1.03906 6.33496L 6.74023 6.33496L 6.74023 7.43555ZM 6.74023 10.2725L 1.03906 10.2725L 1.03906 9.17871L 6.74023 9.17871L 6.74023 10.2725Z"/>
<path id="path5_stroke" d="M 0 0L 221 0L 221 -1L 0 -1L 0 0Z"/>
<path id="path6_fill" d="M 25.5391 34.1562C 24.3932 34.1562 23.4609 33.7812 22.7422 33.0312C 22.0234 32.276 21.6641 31.2682 21.6641 30.0078L 21.6641 29.7422C 21.6641 28.9036 21.8229 28.1562 22.1406 27.5C 22.4635 26.8385 22.9115 26.3229 23.4844 25.9531C 24.0625 25.5781 24.6875 25.3906 25.3594 25.3906C 26.4583 25.3906 27.3125 25.7526 27.9219 26.4766C 28.5312 27.2005 28.8359 28.237 28.8359 29.5859L 28.8359 30.1875L 23.1094 30.1875C 23.1302 31.0208 23.3724 31.6953 23.8359 32.2109C 24.3047 32.7214 24.8984 32.9766 25.6172 32.9766C 26.1276 32.9766 26.5599 32.8724 26.9141 32.6641C 27.2682 32.4557 27.5781 32.1797 27.8438 31.8359L 28.7266 32.5234C 28.0182 33.612 26.9557 34.1562 25.5391 34.1562ZM 25.3594 26.5781C 24.776 26.5781 24.2865 26.7917 23.8906 27.2188C 23.4948 27.6406 23.25 28.2344 23.1562 29L 27.3906 29L 27.3906 28.8906C 27.349 28.1562 27.151 27.5885 26.7969 27.1875C 26.4427 26.7812 25.9635 26.5781 25.3594 26.5781ZM 43.1328 34L 43.1328 26.6641L 41.7969 26.6641L 41.7969 25.5469L 43.1328 25.5469L 43.1328 24.6797C 43.1328 23.7734 43.375 23.0729 43.8594 22.5781C 44.3438 22.0833 45.0286 21.8359 45.9141 21.8359C 46.2474 21.8359 46.5781 21.8802 46.9062 21.9688L 46.8281 23.1406C 46.5833 23.0938 46.3229 23.0703 46.0469 23.0703C 45.5781 23.0703 45.2161 23.2083 44.9609 23.4844C 44.7057 23.7552 44.5781 24.1458 44.5781 24.6562L 44.5781 25.5469L 46.3828 25.5469L 46.3828 26.6641L 44.5781 26.6641L 44.5781 34L 43.1328 34ZM 23.4297 44.5703C 24.0703 43.7839 24.9036 43.3906 25.9297 43.3906C 27.7161 43.3906 28.6172 44.3984 28.6328 46.4141L 28.6328 52L 27.1875 52L 27.1875 46.4062C 27.1823 45.7969 27.0417 45.3464 26.7656 45.0547C 26.4948 44.763 26.0703 44.6172 25.4922 44.6172C 25.0234 44.6172 24.612 44.7422 24.2578 44.9922C 23.9036 45.2422 23.6276 45.5703 23.4297 45.9766L 23.4297 52L 21.9844 52L 21.9844 40L 23.4297 40L 23.4297 44.5703ZM 44.2734 52L 42.8281 52L 42.8281 43.5469L 44.2734 43.5469L 44.2734 52ZM 42.7109 41.3047C 42.7109 41.0703 42.7812 40.8724 42.9219 40.7109C 43.0677 40.5495 43.2812 40.4688 43.5625 40.4688C 43.8438 40.4688 44.0573 40.5495 44.2031 40.7109C 44.349 40.8724 44.4219 41.0703 44.4219 41.3047C 44.4219 41.5391 44.349 41.7344 44.2031 41.8906C 44.0573 42.0469 43.8438 42.125 43.5625 42.125C 43.2812 42.125 43.0677 42.0469 42.9219 41.8906C 42.7812 41.7344 42.7109 41.5391 42.7109 41.3047Z"/>
<path id="path7_fill" d="M 6.3125 15C 6.22917 14.8333 6.16146 14.5365 6.10938 14.1094C 5.4375 14.8073 4.63542 15.1562 3.70312 15.1562C 2.86979 15.1562 2.1849 14.9219 1.64844 14.4531C 1.11719 13.9792 0.851562 13.3802 0.851562 12.6562C 0.851562 11.776 1.1849 11.0938 1.85156 10.6094C 2.52344 10.1198 3.46615 9.875 4.67969 9.875L 6.08594 9.875L 6.08594 9.21094C 6.08594 8.70573 5.9349 8.30469 5.63281 8.00781C 5.33073 7.70573 4.88542 7.55469 4.29688 7.55469C 3.78125 7.55469 3.34896 7.6849 3 7.94531C 2.65104 8.20573 2.47656 8.52083 2.47656 8.89062L 1.02344 8.89062C 1.02344 8.46875 1.17188 8.0625 1.46875 7.67188C 1.77083 7.27604 2.17708 6.96354 2.6875 6.73438C 3.20312 6.50521 3.76823 6.39062 4.38281 6.39062C 5.35677 6.39062 6.11979 6.63542 6.67188 7.125C 7.22396 7.60938 7.51042 8.27865 7.53125 9.13281L 7.53125 13.0234C 7.53125 13.7995 7.63021 14.4167 7.82812 14.875L 7.82812 15L 6.3125 15ZM 3.91406 13.8984C 4.36719 13.8984 4.79688 13.7812 5.20312 13.5469C 5.60938 13.3125 5.90365 13.0078 6.08594 12.6328L 6.08594 10.8984L 4.95312 10.8984C 3.18229 10.8984 2.29688 11.4167 2.29688 12.4531C 2.29688 12.9062 2.44792 13.2604 2.75 13.5156C 3.05208 13.7708 3.4401 13.8984 3.91406 13.8984ZM 28.8594 10.8672C 28.8594 12.1589 28.5625 13.1979 27.9688 13.9844C 27.375 14.7656 26.5781 15.1562 25.5781 15.1562C 24.5104 15.1562 23.6849 14.7786 23.1016 14.0234L 23.0312 15L 21.7031 15L 21.7031 3L 23.1484 3L 23.1484 7.47656C 23.7318 6.7526 24.5365 6.39062 25.5625 6.39062C 26.5885 6.39062 27.3932 6.77865 27.9766 7.55469C 28.5651 8.33073 28.8594 9.39323 28.8594 10.7422L 28.8594 10.8672ZM 27.4141 10.7031C 27.4141 9.71875 27.224 8.95833 26.8438 8.42188C 26.4635 7.88542 25.9167 7.61719 25.2031 7.61719C 24.25 7.61719 23.5651 8.0599 23.1484 8.94531L 23.1484 12.6016C 23.5911 13.487 24.2812 13.9297 25.2188 13.9297C 25.9115 13.9297 26.4505 13.6615 26.8359 13.125C 27.2214 12.5885 27.4141 11.7812 27.4141 10.7031ZM 45.9844 13.9766C 46.5 13.9766 46.9505 13.8203 47.3359 13.5078C 47.7214 13.1953 47.9349 12.8047 47.9766 12.3359L 49.3438 12.3359C 49.3177 12.8203 49.151 13.2812 48.8438 13.7188C 48.5365 14.1562 48.125 14.5052 47.6094 14.7656C 47.099 15.026 46.5573 15.1562 45.9844 15.1562C 44.8333 15.1562 43.9167 14.7734 43.2344 14.0078C 42.5573 13.237 42.2188 12.1849 42.2188 10.8516L 42.2188 10.6094C 42.2188 9.78646 42.3698 9.05469 42.6719 8.41406C 42.974 7.77344 43.4062 7.27604 43.9688 6.92188C 44.5365 6.56771 45.2057 6.39062 45.9766 6.39062C 46.9245 6.39062 47.7109 6.67448 48.3359 7.24219C 48.9661 7.8099 49.3021 8.54688 49.3438 9.45312L 47.9766 9.45312C 47.9349 8.90625 47.7266 8.45833 47.3516 8.10938C 46.9818 7.75521 46.5234 7.57812 45.9766 7.57812C 45.2422 7.57812 44.6719 7.84375 44.2656 8.375C 43.8646 8.90104 43.6641 9.66406 43.6641 10.6641L 43.6641 10.9375C 43.6641 11.9115 43.8646 12.6615 44.2656 13.1875C 44.6667 13.7135 45.2396 13.9766 45.9844 13.9766ZM 0.742188 29.7031C 0.742188 28.4062 1.04948 27.3646 1.66406 26.5781C 2.27865 25.7865 3.08333 25.3906 4.07812 25.3906C 5.06771 25.3906 5.85156 25.7292 6.42969 26.4062L 6.42969 22L 7.875 22L 7.875 34L 6.54688 34L 6.47656 33.0938C 5.89844 33.8021 5.09375 34.1562 4.0625 34.1562C 3.08333 34.1562 2.28385 33.7552 1.66406 32.9531C 1.04948 32.151 0.742188 31.1042 0.742188 29.8125L 0.742188 29.7031ZM 2.1875 29.8672C 2.1875 30.8255 2.38542 31.5755 2.78125 32.1172C 3.17708 32.6589 3.72396 32.9297 4.42188 32.9297C 5.33854 32.9297 6.00781 32.5182 6.42969 31.6953L 6.42969 27.8125C 5.9974 27.0156 5.33333 26.6172 4.4375 26.6172C 3.72917 26.6172 3.17708 26.8906 2.78125 27.4375C 2.38542 27.9844 2.1875 28.7943 2.1875 29.8672ZM 0.75 47.7031C 0.75 46.3854 1.05469 45.3385 1.66406 44.5625C 2.27344 43.7812 3.08073 43.3906 4.08594 43.3906C 5.11719 43.3906 5.92188 43.7552 6.5 44.4844L 6.57031 43.5469L 7.89062 43.5469L 7.89062 51.7969C 7.89062 52.8906 7.5651 53.7526 6.91406 54.3828C 6.26823 55.013 5.39844 55.3281 4.30469 55.3281C 3.69531 55.3281 3.09896 55.1979 2.51562 54.9375C 1.93229 54.6771 1.48698 54.3203 1.17969 53.8672L 1.92969 53C 2.54948 53.7656 3.30729 54.1484 4.20312 54.1484C 4.90625 54.1484 5.45312 53.9505 5.84375 53.5547C 6.23958 53.1589 6.4375 52.6016 6.4375 51.8828L 6.4375 51.1562C 5.85938 51.8229 5.07031 52.1562 4.07031 52.1562C 3.08073 52.1562 2.27865 51.7578 1.66406 50.9609C 1.05469 50.1641 0.75 49.0781 0.75 47.7031ZM 2.20312 47.8672C 2.20312 48.8203 2.39844 49.5703 2.78906 50.1172C 3.17969 50.6589 3.72656 50.9297 4.42969 50.9297C 5.34115 50.9297 6.01042 50.5156 6.4375 49.6875L 6.4375 45.8281C 5.99479 45.0208 5.33073 44.6172 4.44531 44.6172C 3.74219 44.6172 3.19271 44.8906 2.79688 45.4375C 2.40104 45.9844 2.20312 46.7943 2.20312 47.8672Z"/>
<path id="path8_stroke" d="M 0 2L 35.5 2L 35.5 -2L 0 -2L 0 2Z"/>
<path id="path9_stroke" d="M 0 0L 26 0L 26 -4L 0 -4L 0 0Z"/>
<path id="path10_fill" d="M 0.742188 10.7031C 0.742188 9.40625 1.04948 8.36458 1.66406 7.57812C 2.27865 6.78646 3.08333 6.39062 4.07812 6.39062C 5.06771 6.39062 5.85156 6.72917 6.42969 7.40625L 6.42969 3L 7.875 3L 7.875 15L 6.54688 15L 6.47656 14.0938C 5.89844 14.8021 5.09375 15.1562 4.0625 15.1562C 3.08333 15.1562 2.28385 14.7552 1.66406 13.9531C 1.04948 13.151 0.742188 12.1042 0.742188 10.8125L 0.742188 10.7031ZM 2.1875 10.8672C 2.1875 11.8255 2.38542 12.5755 2.78125 13.1172C 3.17708 13.6589 3.72396 13.9297 4.42188 13.9297C 5.33854 13.9297 6.00781 13.5182 6.42969 12.6953L 6.42969 8.8125C 5.9974 8.01562 5.33333 7.61719 4.4375 7.61719C 3.72917 7.61719 3.17708 7.89062 2.78125 8.4375C 2.38542 8.98438 2.1875 9.79427 2.1875 10.8672ZM 13.6328 15.1562C 12.487 15.1562 11.5547 14.7812 10.8359 14.0312C 10.1172 13.276 9.75781 12.2682 9.75781 11.0078L 9.75781 10.7422C 9.75781 9.90365 9.91667 9.15625 10.2344 8.5C 10.5573 7.83854 11.0052 7.32292 11.5781 6.95312C 12.1562 6.57812 12.7812 6.39062 13.4531 6.39062C 14.5521 6.39062 15.4062 6.7526 16.0156 7.47656C 16.625 8.20052 16.9297 9.23698 16.9297 10.5859L 16.9297 11.1875L 11.2031 11.1875C 11.224 12.0208 11.4661 12.6953 11.9297 13.2109C 12.3984 13.7214 12.9922 13.9766 13.7109 13.9766C 14.2214 13.9766 14.6536 13.8724 15.0078 13.6641C 15.362 13.4557 15.6719 13.1797 15.9375 12.8359L 16.8203 13.5234C 16.112 14.612 15.0495 15.1562 13.6328 15.1562ZM 13.4531 7.57812C 12.8698 7.57812 12.3802 7.79167 11.9844 8.21875C 11.5885 8.64062 11.3438 9.23438 11.25 10L 15.4844 10L 15.4844 9.89062C 15.4427 9.15625 15.2448 8.58854 14.8906 8.1875C 14.5365 7.78125 14.0573 7.57812 13.4531 7.57812ZM 20.5703 4.5L 20.5703 6.54688L 22.1484 6.54688L 22.1484 7.66406L 20.5703 7.66406L 20.5703 12.9062C 20.5703 13.2448 20.6406 13.5 20.7812 13.6719C 20.9219 13.8385 21.1615 13.9219 21.5 13.9219C 21.6667 13.9219 21.8958 13.8906 22.1875 13.8281L 22.1875 15C 21.8073 15.1042 21.4375 15.1562 21.0781 15.1562C 20.4323 15.1562 19.9453 14.9609 19.6172 14.5703C 19.2891 14.1797 19.125 13.625 19.125 12.9062L 19.125 7.66406L 17.5859 7.66406L 17.5859 6.54688L 19.125 6.54688L 19.125 4.5L 20.5703 4.5ZM 23.7891 10.3828C 23.7891 9.20573 23.9453 8.07552 24.2578 6.99219C 24.5755 5.90885 25.0469 4.92448 25.6719 4.03906C 26.2969 3.15365 26.9453 2.52865 27.6172 2.16406L 27.9141 3.11719C 27.1536 3.70052 26.5286 4.59115 26.0391 5.78906C 25.5547 6.98698 25.2891 8.32812 25.2422 9.8125L 25.2344 10.4766C 25.2344 12.487 25.6016 14.2318 26.3359 15.7109C 26.7786 16.5964 27.3047 17.2891 27.9141 17.7891L 27.6172 18.6719C 26.9245 18.2865 26.263 17.6406 25.6328 16.7344C 24.4036 14.9635 23.7891 12.8464 23.7891 10.3828ZM 112.023 10.4609C 112.023 11.6224 111.87 12.737 111.562 13.8047C 111.26 14.8672 110.794 15.849 110.164 16.75C 109.539 17.651 108.883 18.2917 108.195 18.6719L 107.891 17.7891C 108.693 17.1745 109.336 16.2214 109.82 14.9297C 110.31 13.6328 110.56 12.1953 110.57 10.6172L 110.57 10.3672C 110.57 9.27344 110.456 8.25781 110.227 7.32031C 109.997 6.3776 109.677 5.53385 109.266 4.78906C 108.859 4.04427 108.401 3.46354 107.891 3.04688L 108.195 2.16406C 108.883 2.54427 109.536 3.17969 110.156 4.07031C 110.781 4.96094 111.247 5.94271 111.555 7.01562C 111.867 8.08854 112.023 9.23698 112.023 10.4609Z"/>
<path id="path11_fill" d="M 0.742188 10.7031C 0.742188 9.40625 1.04948 8.36458 1.66406 7.57812C 2.27865 6.78646 3.08333 6.39062 4.07812 6.39062C 5.06771 6.39062 5.85156 6.72917 6.42969 7.40625L 6.42969 3L 7.875 3L 7.875 15L 6.54688 15L 6.47656 14.0938C 5.89844 14.8021 5.09375 15.1562 4.0625 15.1562C 3.08333 15.1562 2.28385 14.7552 1.66406 13.9531C 1.04948 13.151 0.742188 12.1042 0.742188 10.8125L 0.742188 10.7031ZM 2.1875 10.8672C 2.1875 11.8255 2.38542 12.5755 2.78125 13.1172C 3.17708 13.6589 3.72396 13.9297 4.42188 13.9297C 5.33854 13.9297 6.00781 13.5182 6.42969 12.6953L 6.42969 8.8125C 5.9974 8.01562 5.33333 7.61719 4.4375 7.61719C 3.72917 7.61719 3.17708 7.89062 2.78125 8.4375C 2.38542 8.98438 2.1875 9.79427 2.1875 10.8672ZM 13.6328 15.1562C 12.487 15.1562 11.5547 14.7812 10.8359 14.0312C 10.1172 13.276 9.75781 12.2682 9.75781 11.0078L 9.75781 10.7422C 9.75781 9.90365 9.91667 9.15625 10.2344 8.5C 10.5573 7.83854 11.0052 7.32292 11.5781 6.95312C 12.1562 6.57812 12.7812 6.39062 13.4531 6.39062C 14.5521 6.39062 15.4062 6.7526 16.0156 7.47656C 16.625 8.20052 16.9297 9.23698 16.9297 10.5859L 16.9297 11.1875L 11.2031 11.1875C 11.224 12.0208 11.4661 12.6953 11.9297 13.2109C 12.3984 13.7214 12.9922 13.9766 13.7109 13.9766C 14.2214 13.9766 14.6536 13.8724 15.0078 13.6641C 15.362 13.4557 15.6719 13.1797 15.9375 12.8359L 16.8203 13.5234C 16.112 14.612 15.0495 15.1562 13.6328 15.1562ZM 13.4531 7.57812C 12.8698 7.57812 12.3802 7.79167 11.9844 8.21875C 11.5885 8.64062 11.3438 9.23438 11.25 10L 15.4844 10L 15.4844 9.89062C 15.4427 9.15625 15.2448 8.58854 14.8906 8.1875C 14.5365 7.78125 14.0573 7.57812 13.4531 7.57812ZM 20.5703 4.5L 20.5703 6.54688L 22.1484 6.54688L 22.1484 7.66406L 20.5703 7.66406L 20.5703 12.9062C 20.5703 13.2448 20.6406 13.5 20.7812 13.6719C 20.9219 13.8385 21.1615 13.9219 21.5 13.9219C 21.6667 13.9219 21.8958 13.8906 22.1875 13.8281L 22.1875 15C 21.8073 15.1042 21.4375 15.1562 21.0781 15.1562C 20.4323 15.1562 19.9453 14.9609 19.6172 14.5703C 19.2891 14.1797 19.125 13.625 19.125 12.9062L 19.125 7.66406L 17.5859 7.66406L 17.5859 6.54688L 19.125 6.54688L 19.125 4.5L 20.5703 4.5ZM 23.7891 10.3828C 23.7891 9.20573 23.9453 8.07552 24.2578 6.99219C 24.5755 5.90885 25.0469 4.92448 25.6719 4.03906C 26.2969 3.15365 26.9453 2.52865 27.6172 2.16406L 27.9141 3.11719C 27.1536 3.70052 26.5286 4.59115 26.0391 5.78906C 25.5547 6.98698 25.2891 8.32812 25.2422 9.8125L 25.2344 10.4766C 25.2344 12.487 25.6016 14.2318 26.3359 15.7109C 26.7786 16.5964 27.3047 17.2891 27.9141 17.7891L 27.6172 18.6719C 26.9245 18.2865 26.263 17.6406 25.6328 16.7344C 24.4036 14.9635 23.7891 12.8464 23.7891 10.3828ZM 115.992 10.4609C 115.992 11.6224 115.839 12.737 115.531 13.8047C 115.229 14.8672 114.763 15.849 114.133 16.75C 113.508 17.651 112.852 18.2917 112.164 18.6719L 111.859 17.7891C 112.661 17.1745 113.305 16.2214 113.789 14.9297C 114.279 13.6328 114.529 12.1953 114.539 10.6172L 114.539 10.3672C 114.539 9.27344 114.424 8.25781 114.195 7.32031C 113.966 6.3776 113.646 5.53385 113.234 4.78906C 112.828 4.04427 112.37 3.46354 111.859 3.04688L 112.164 2.16406C 112.852 2.54427 113.505 3.17969 114.125 4.07031C 114.75 4.96094 115.216 5.94271 115.523 7.01562C 115.836 8.08854 115.992 9.23698 115.992 10.4609Z"/>
<path id="path12_fill" d="M 5.69531 15L 4.24219 15L 4.24219 5.36719L 1.32812 6.4375L 1.32812 5.125L 5.46875 3.57031L 5.69531 3.57031L 5.69531 15Z"/>
<path id="path13_stroke" d="M 0 0L 64 0L 64 -1L 0 -1L 0 0Z"/>
<path id="path14_fill" d="M 45.9844 13.9766C 46.5 13.9766 46.9505 13.8203 47.3359 13.5078C 47.7214 13.1953 47.9349 12.8047 47.9766 12.3359L 49.3438 12.3359C 49.3177 12.8203 49.151 13.2812 48.8438 13.7188C 48.5365 14.1562 48.125 14.5052 47.6094 14.7656C 47.099 15.026 46.5573 15.1562 45.9844 15.1562C 44.8333 15.1562 43.9167 14.7734 43.2344 14.0078C 42.5573 13.237 42.2188 12.1849 42.2188 10.8516L 42.2188 10.6094C 42.2188 9.78646 42.3698 9.05469 42.6719 8.41406C 42.974 7.77344 43.4062 7.27604 43.9688 6.92188C 44.5365 6.56771 45.2057 6.39062 45.9766 6.39062C 46.9245 6.39062 47.7109 6.67448 48.3359 7.24219C 48.9661 7.8099 49.3021 8.54688 49.3438 9.45312L 47.9766 9.45312C 47.9349 8.90625 47.7266 8.45833 47.3516 8.10938C 46.9818 7.75521 46.5234 7.57812 45.9766 7.57812C 45.2422 7.57812 44.6719 7.84375 44.2656 8.375C 43.8646 8.90104 43.6641 9.66406 43.6641 10.6641L 43.6641 10.9375C 43.6641 11.9115 43.8646 12.6615 44.2656 13.1875C 44.6667 13.7135 45.2396 13.9766 45.9844 13.9766ZM 43.1328 34L 43.1328 26.6641L 41.7969 26.6641L 41.7969 25.5469L 43.1328 25.5469L 43.1328 24.6797C 43.1328 23.7734 43.375 23.0729 43.8594 22.5781C 44.3438 22.0833 45.0286 21.8359 45.9141 21.8359C 46.2474 21.8359 46.5781 21.8802 46.9062 21.9688L 46.8281 23.1406C 46.5833 23.0938 46.3229 23.0703 46.0469 23.0703C 45.5781 23.0703 45.2161 23.2083 44.9609 23.4844C 44.7057 23.7552 44.5781 24.1458 44.5781 24.6562L 44.5781 25.5469L 46.3828 25.5469L 46.3828 26.6641L 44.5781 26.6641L 44.5781 34L 43.1328 34ZM 0.75 47.7031C 0.75 46.3854 1.05469 45.3385 1.66406 44.5625C 2.27344 43.7812 3.08073 43.3906 4.08594 43.3906C 5.11719 43.3906 5.92188 43.7552 6.5 44.4844L 6.57031 43.5469L 7.89062 43.5469L 7.89062 51.7969C 7.89062 52.8906 7.5651 53.7526 6.91406 54.3828C 6.26823 55.013 5.39844 55.3281 4.30469 55.3281C 3.69531 55.3281 3.09896 55.1979 2.51562 54.9375C 1.93229 54.6771 1.48698 54.3203 1.17969 53.8672L 1.92969 53C 2.54948 53.7656 3.30729 54.1484 4.20312 54.1484C 4.90625 54.1484 5.45312 53.9505 5.84375 53.5547C 6.23958 53.1589 6.4375 52.6016 6.4375 51.8828L 6.4375 51.1562C 5.85938 51.8229 5.07031 52.1562 4.07031 52.1562C 3.08073 52.1562 2.27865 51.7578 1.66406 50.9609C 1.05469 50.1641 0.75 49.0781 0.75 47.7031ZM 2.20312 47.8672C 2.20312 48.8203 2.39844 49.5703 2.78906 50.1172C 3.17969 50.6589 3.72656 50.9297 4.42969 50.9297C 5.34115 50.9297 6.01042 50.5156 6.4375 49.6875L 6.4375 45.8281C 5.99479 45.0208 5.33073 44.6172 4.44531 44.6172C 3.74219 44.6172 3.19271 44.8906 2.79688 45.4375C 2.40104 45.9844 2.20312 46.7943 2.20312 47.8672ZM 23.4297 44.5703C 24.0703 43.7839 24.9036 43.3906 25.9297 43.3906C 27.7161 43.3906 28.6172 44.3984 28.6328 46.4141L 28.6328 52L 27.1875 52L 27.1875 46.4062C 27.1823 45.7969 27.0417 45.3464 26.7656 45.0547C 26.4948 44.763 26.0703 44.6172 25.4922 44.6172C 25.0234 44.6172 24.612 44.7422 24.2578 44.9922C 23.9036 45.2422 23.6276 45.5703 23.4297 45.9766L 23.4297 52L 21.9844 52L 21.9844 40L 23.4297 40L 23.4297 44.5703ZM 44.2734 52L 42.8281 52L 42.8281 43.5469L 44.2734 43.5469L 44.2734 52ZM 42.7109 41.3047C 42.7109 41.0703 42.7812 40.8724 42.9219 40.7109C 43.0677 40.5495 43.2812 40.4688 43.5625 40.4688C 43.8438 40.4688 44.0573 40.5495 44.2031 40.7109C 44.349 40.8724 44.4219 41.0703 44.4219 41.3047C 44.4219 41.5391 44.349 41.7344 44.2031 41.8906C 44.0573 42.0469 43.8438 42.125 43.5625 42.125C 43.2812 42.125 43.0677 42.0469 42.9219 41.8906C 42.7812 41.7344 42.7109 41.5391 42.7109 41.3047Z"/>
<path id="path15_fill" d="M 6.3125 15C 6.22917 14.8333 6.16146 14.5365 6.10938 14.1094C 5.4375 14.8073 4.63542 15.1562 3.70312 15.1562C 2.86979 15.1562 2.1849 14.9219 1.64844 14.4531C 1.11719 13.9792 0.851562 13.3802 0.851562 12.6562C 0.851562 11.776 1.1849 11.0938 1.85156 10.6094C 2.52344 10.1198 3.46615 9.875 4.67969 9.875L 6.08594 9.875L 6.08594 9.21094C 6.08594 8.70573 5.9349 8.30469 5.63281 8.00781C 5.33073 7.70573 4.88542 7.55469 4.29688 7.55469C 3.78125 7.55469 3.34896 7.6849 3 7.94531C 2.65104 8.20573 2.47656 8.52083 2.47656 8.89062L 1.02344 8.89062C 1.02344 8.46875 1.17188 8.0625 1.46875 7.67188C 1.77083 7.27604 2.17708 6.96354 2.6875 6.73438C 3.20312 6.50521 3.76823 6.39062 4.38281 6.39062C 5.35677 6.39062 6.11979 6.63542 6.67188 7.125C 7.22396 7.60938 7.51042 8.27865 7.53125 9.13281L 7.53125 13.0234C 7.53125 13.7995 7.63021 14.4167 7.82812 14.875L 7.82812 15L 6.3125 15ZM 3.91406 13.8984C 4.36719 13.8984 4.79688 13.7812 5.20312 13.5469C 5.60938 13.3125 5.90365 13.0078 6.08594 12.6328L 6.08594 10.8984L 4.95312 10.8984C 3.18229 10.8984 2.29688 11.4167 2.29688 12.4531C 2.29688 12.9062 2.44792 13.2604 2.75 13.5156C 3.05208 13.7708 3.4401 13.8984 3.91406 13.8984ZM 28.8594 10.8672C 28.8594 12.1589 28.5625 13.1979 27.9688 13.9844C 27.375 14.7656 26.5781 15.1562 25.5781 15.1562C 24.5104 15.1562 23.6849 14.7786 23.1016 14.0234L 23.0312 15L 21.7031 15L 21.7031 3L 23.1484 3L 23.1484 7.47656C 23.7318 6.7526 24.5365 6.39062 25.5625 6.39062C 26.5885 6.39062 27.3932 6.77865 27.9766 7.55469C 28.5651 8.33073 28.8594 9.39323 28.8594 10.7422L 28.8594 10.8672ZM 27.4141 10.7031C 27.4141 9.71875 27.224 8.95833 26.8438 8.42188C 26.4635 7.88542 25.9167 7.61719 25.2031 7.61719C 24.25 7.61719 23.5651 8.0599 23.1484 8.94531L 23.1484 12.6016C 23.5911 13.487 24.2812 13.9297 25.2188 13.9297C 25.9115 13.9297 26.4505 13.6615 26.8359 13.125C 27.2214 12.5885 27.4141 11.7812 27.4141 10.7031ZM 0.742188 29.7031C 0.742188 28.4062 1.04948 27.3646 1.66406 26.5781C 2.27865 25.7865 3.08333 25.3906 4.07812 25.3906C 5.06771 25.3906 5.85156 25.7292 6.42969 26.4062L 6.42969 22L 7.875 22L 7.875 34L 6.54688 34L 6.47656 33.0938C 5.89844 33.8021 5.09375 34.1562 4.0625 34.1562C 3.08333 34.1562 2.28385 33.7552 1.66406 32.9531C 1.04948 32.151 0.742188 31.1042 0.742188 29.8125L 0.742188 29.7031ZM 2.1875 29.8672C 2.1875 30.8255 2.38542 31.5755 2.78125 32.1172C 3.17708 32.6589 3.72396 32.9297 4.42188 32.9297C 5.33854 32.9297 6.00781 32.5182 6.42969 31.6953L 6.42969 27.8125C 5.9974 27.0156 5.33333 26.6172 4.4375 26.6172C 3.72917 26.6172 3.17708 26.8906 2.78125 27.4375C 2.38542 27.9844 2.1875 28.7943 2.1875 29.8672ZM 25.5391 34.1562C 24.3932 34.1562 23.4609 33.7812 22.7422 33.0312C 22.0234 32.276 21.6641 31.2682 21.6641 30.0078L 21.6641 29.7422C 21.6641 28.9036 21.8229 28.1562 22.1406 27.5C 22.4635 26.8385 22.9115 26.3229 23.4844 25.9531C 24.0625 25.5781 24.6875 25.3906 25.3594 25.3906C 26.4583 25.3906 27.3125 25.7526 27.9219 26.4766C 28.5312 27.2005 28.8359 28.237 28.8359 29.5859L 28.8359 30.1875L 23.1094 30.1875C 23.1302 31.0208 23.3724 31.6953 23.8359 32.2109C 24.3047 32.7214 24.8984 32.9766 25.6172 32.9766C 26.1276 32.9766 26.5599 32.8724 26.9141 32.6641C 27.2682 32.4557 27.5781 32.1797 27.8438 31.8359L 28.7266 32.5234C 28.0182 33.612 26.9557 34.1562 25.5391 34.1562ZM 25.3594 26.5781C 24.776 26.5781 24.2865 26.7917 23.8906 27.2188C 23.4948 27.6406 23.25 28.2344 23.1562 29L 27.3906 29L 27.3906 28.8906C 27.349 28.1562 27.151 27.5885 26.7969 27.1875C 26.4427 26.7812 25.9635 26.5781 25.3594 26.5781Z"/>
<path id="path16_fill" d="M 0.742188 10.7031C 0.742188 9.40625 1.04948 8.36458 1.66406 7.57812C 2.27865 6.78646 3.08333 6.39062 4.07812 6.39062C 5.06771 6.39062 5.85156 6.72917 6.42969 7.40625L 6.42969 3L 7.875 3L 7.875 15L 6.54688 15L 6.47656 14.0938C 5.89844 14.8021 5.09375 15.1562 4.0625 15.1562C 3.08333 15.1562 2.28385 14.7552 1.66406 13.9531C 1.04948 13.151 0.742188 12.1042 0.742188 10.8125L 0.742188 10.7031ZM 2.1875 10.8672C 2.1875 11.8255 2.38542 12.5755 2.78125 13.1172C 3.17708 13.6589 3.72396 13.9297 4.42188 13.9297C 5.33854 13.9297 6.00781 13.5182 6.42969 12.6953L 6.42969 8.8125C 5.9974 8.01562 5.33333 7.61719 4.4375 7.61719C 3.72917 7.61719 3.17708 7.89062 2.78125 8.4375C 2.38542 8.98438 2.1875 9.79427 2.1875 10.8672ZM 13.6328 15.1562C 12.487 15.1562 11.5547 14.7812 10.8359 14.0312C 10.1172 13.276 9.75781 12.2682 9.75781 11.0078L 9.75781 10.7422C 9.75781 9.90365 9.91667 9.15625 10.2344 8.5C 10.5573 7.83854 11.0052 7.32292 11.5781 6.95312C 12.1562 6.57812 12.7812 6.39062 13.4531 6.39062C 14.5521 6.39062 15.4062 6.7526 16.0156 7.47656C 16.625 8.20052 16.9297 9.23698 16.9297 10.5859L 16.9297 11.1875L 11.2031 11.1875C 11.224 12.0208 11.4661 12.6953 11.9297 13.2109C 12.3984 13.7214 12.9922 13.9766 13.7109 13.9766C 14.2214 13.9766 14.6536 13.8724 15.0078 13.6641C 15.362 13.4557 15.6719 13.1797 15.9375 12.8359L 16.8203 13.5234C 16.112 14.612 15.0495 15.1562 13.6328 15.1562ZM 13.4531 7.57812C 12.8698 7.57812 12.3802 7.79167 11.9844 8.21875C 11.5885 8.64062 11.3438 9.23438 11.25 10L 15.4844 10L 15.4844 9.89062C 15.4427 9.15625 15.2448 8.58854 14.8906 8.1875C 14.5365 7.78125 14.0573 7.57812 13.4531 7.57812ZM 20.5703 4.5L 20.5703 6.54688L 22.1484 6.54688L 22.1484 7.66406L 20.5703 7.66406L 20.5703 12.9062C 20.5703 13.2448 20.6406 13.5 20.7812 13.6719C 20.9219 13.8385 21.1615 13.9219 21.5 13.9219C 21.6667 13.9219 21.8958 13.8906 22.1875 13.8281L 22.1875 15C 21.8073 15.1042 21.4375 15.1562 21.0781 15.1562C 20.4323 15.1562 19.9453 14.9609 19.6172 14.5703C 19.2891 14.1797 19.125 13.625 19.125 12.9062L 19.125 7.66406L 17.5859 7.66406L 17.5859 6.54688L 19.125 6.54688L 19.125 4.5L 20.5703 4.5ZM 23.7891 10.3828C 23.7891 9.20573 23.9453 8.07552 24.2578 6.99219C 24.5755 5.90885 25.0469 4.92448 25.6719 4.03906C 26.2969 3.15365 26.9453 2.52865 27.6172 2.16406L 27.9141 3.11719C 27.1536 3.70052 26.5286 4.59115 26.0391 5.78906C 25.5547 6.98698 25.2891 8.32812 25.2422 9.8125L 25.2344 10.4766C 25.2344 12.487 25.6016 14.2318 26.3359 15.7109C 26.7786 16.5964 27.3047 17.2891 27.9141 17.7891L 27.6172 18.6719C 26.9245 18.2865 26.263 17.6406 25.6328 16.7344C 24.4036 14.9635 23.7891 12.8464 23.7891 10.3828ZM 112.023 10.4609C 112.023 11.6224 111.87 12.737 111.562 13.8047C 111.26 14.8672 110.794 15.849 110.164 16.75C 109.539 17.651 108.883 18.2917 108.195 18.6719L 107.891 17.7891C 108.693 17.1745 109.336 16.2214 109.82 14.9297C 110.31 13.6328 110.56 12.1953 110.57 10.6172L 110.57 10.3672C 110.57 9.27344 110.456 8.25781 110.227 7.32031C 109.997 6.3776 109.677 5.53385 109.266 4.78906C 108.859 4.04427 108.401 3.46354 107.891 3.04688L 108.195 2.16406C 108.883 2.54427 109.536 3.17969 110.156 4.07031C 110.781 4.96094 111.247 5.94271 111.555 7.01562C 111.867 8.08854 112.023 9.23698 112.023 10.4609Z"/>
<path id="path17_fill" d="M 28.8594 10.8672C 28.8594 12.1589 28.5625 13.1979 27.9688 13.9844C 27.375 14.7656 26.5781 15.1562 25.5781 15.1562C 24.5104 15.1562 23.6849 14.7786 23.1016 14.0234L 23.0312 15L 21.7031 15L 21.7031 3L 23.1484 3L 23.1484 7.47656C 23.7318 6.7526 24.5365 6.39062 25.5625 6.39062C 26.5885 6.39062 27.3932 6.77865 27.9766 7.55469C 28.5651 8.33073 28.8594 9.39323 28.8594 10.7422L 28.8594 10.8672ZM 27.4141 10.7031C 27.4141 9.71875 27.224 8.95833 26.8438 8.42188C 26.4635 7.88542 25.9167 7.61719 25.2031 7.61719C 24.25 7.61719 23.5651 8.0599 23.1484 8.94531L 23.1484 12.6016C 23.5911 13.487 24.2812 13.9297 25.2188 13.9297C 25.9115 13.9297 26.4505 13.6615 26.8359 13.125C 27.2214 12.5885 27.4141 11.7812 27.4141 10.7031ZM 45.9844 13.9766C 46.5 13.9766 46.9505 13.8203 47.3359 13.5078C 47.7214 13.1953 47.9349 12.8047 47.9766 12.3359L 49.3438 12.3359C 49.3177 12.8203 49.151 13.2812 48.8438 13.7188C 48.5365 14.1562 48.125 14.5052 47.6094 14.7656C 47.099 15.026 46.5573 15.1562 45.9844 15.1562C 44.8333 15.1562 43.9167 14.7734 43.2344 14.0078C 42.5573 13.237 42.2188 12.1849 42.2188 10.8516L 42.2188 10.6094C 42.2188 9.78646 42.3698 9.05469 42.6719 8.41406C 42.974 7.77344 43.4062 7.27604 43.9688 6.92188C 44.5365 6.56771 45.2057 6.39062 45.9766 6.39062C 46.9245 6.39062 47.7109 6.67448 48.3359 7.24219C 48.9661 7.8099 49.3021 8.54688 49.3438 9.45312L 47.9766 9.45312C 47.9349 8.90625 47.7266 8.45833 47.3516 8.10938C 46.9818 7.75521 46.5234 7.57812 45.9766 7.57812C 45.2422 7.57812 44.6719 7.84375 44.2656 8.375C 43.8646 8.90104 43.6641 9.66406 43.6641 10.6641L 43.6641 10.9375C 43.6641 11.9115 43.8646 12.6615 44.2656 13.1875C 44.6667 13.7135 45.2396 13.9766 45.9844 13.9766ZM 25.5391 34.1562C 24.3932 34.1562 23.4609 33.7812 22.7422 33.0312C 22.0234 32.276 21.6641 31.2682 21.6641 30.0078L 21.6641 29.7422C 21.6641 28.9036 21.8229 28.1562 22.1406 27.5C 22.4635 26.8385 22.9115 26.3229 23.4844 25.9531C 24.0625 25.5781 24.6875 25.3906 25.3594 25.3906C 26.4583 25.3906 27.3125 25.7526 27.9219 26.4766C 28.5312 27.2005 28.8359 28.237 28.8359 29.5859L 28.8359 30.1875L 23.1094 30.1875C 23.1302 31.0208 23.3724 31.6953 23.8359 32.2109C 24.3047 32.7214 24.8984 32.9766 25.6172 32.9766C 26.1276 32.9766 26.5599 32.8724 26.9141 32.6641C 27.2682 32.4557 27.5781 32.1797 27.8438 31.8359L 28.7266 32.5234C 28.0182 33.612 26.9557 34.1562 25.5391 34.1562ZM 25.3594 26.5781C 24.776 26.5781 24.2865 26.7917 23.8906 27.2188C 23.4948 27.6406 23.25 28.2344 23.1562 29L 27.3906 29L 27.3906 28.8906C 27.349 28.1562 27.151 27.5885 26.7969 27.1875C 26.4427 26.7812 25.9635 26.5781 25.3594 26.5781ZM 43.1328 34L 43.1328 26.6641L 41.7969 26.6641L 41.7969 25.5469L 43.1328 25.5469L 43.1328 24.6797C 43.1328 23.7734 43.375 23.0729 43.8594 22.5781C 44.3438 22.0833 45.0286 21.8359 45.9141 21.8359C 46.2474 21.8359 46.5781 21.8802 46.9062 21.9688L 46.8281 23.1406C 46.5833 23.0938 46.3229 23.0703 46.0469 23.0703C 45.5781 23.0703 45.2161 23.2083 44.9609 23.4844C 44.7057 23.7552 44.5781 24.1458 44.5781 24.6562L 44.5781 25.5469L 46.3828 25.5469L 46.3828 26.6641L 44.5781 26.6641L 44.5781 34L 43.1328 34Z"/>
<path id="path18_fill" d="M 6.3125 15C 6.22917 14.8333 6.16146 14.5365 6.10938 14.1094C 5.4375 14.8073 4.63542 15.1562 3.70312 15.1562C 2.86979 15.1562 2.1849 14.9219 1.64844 14.4531C 1.11719 13.9792 0.851562 13.3802 0.851562 12.6562C 0.851562 11.776 1.1849 11.0938 1.85156 10.6094C 2.52344 10.1198 3.46615 9.875 4.67969 9.875L 6.08594 9.875L 6.08594 9.21094C 6.08594 8.70573 5.9349 8.30469 5.63281 8.00781C 5.33073 7.70573 4.88542 7.55469 4.29688 7.55469C 3.78125 7.55469 3.34896 7.6849 3 7.94531C 2.65104 8.20573 2.47656 8.52083 2.47656 8.89062L 1.02344 8.89062C 1.02344 8.46875 1.17188 8.0625 1.46875 7.67188C 1.77083 7.27604 2.17708 6.96354 2.6875 6.73438C 3.20312 6.50521 3.76823 6.39062 4.38281 6.39062C 5.35677 6.39062 6.11979 6.63542 6.67188 7.125C 7.22396 7.60938 7.51042 8.27865 7.53125 9.13281L 7.53125 13.0234C 7.53125 13.7995 7.63021 14.4167 7.82812 14.875L 7.82812 15L 6.3125 15ZM 3.91406 13.8984C 4.36719 13.8984 4.79688 13.7812 5.20312 13.5469C 5.60938 13.3125 5.90365 13.0078 6.08594 12.6328L 6.08594 10.8984L 4.95312 10.8984C 3.18229 10.8984 2.29688 11.4167 2.29688 12.4531C 2.29688 12.9062 2.44792 13.2604 2.75 13.5156C 3.05208 13.7708 3.4401 13.8984 3.91406 13.8984ZM 0.742188 29.7031C 0.742188 28.4062 1.04948 27.3646 1.66406 26.5781C 2.27865 25.7865 3.08333 25.3906 4.07812 25.3906C 5.06771 25.3906 5.85156 25.7292 6.42969 26.4062L 6.42969 22L 7.875 22L 7.875 34L 6.54688 34L 6.47656 33.0938C 5.89844 33.8021 5.09375 34.1562 4.0625 34.1562C 3.08333 34.1562 2.28385 33.7552 1.66406 32.9531C 1.04948 32.151 0.742188 31.1042 0.742188 29.8125L 0.742188 29.7031ZM 2.1875 29.8672C 2.1875 30.8255 2.38542 31.5755 2.78125 32.1172C 3.17708 32.6589 3.72396 32.9297 4.42188 32.9297C 5.33854 32.9297 6.00781 32.5182 6.42969 31.6953L 6.42969 27.8125C 5.9974 27.0156 5.33333 26.6172 4.4375 26.6172C 3.72917 26.6172 3.17708 26.8906 2.78125 27.4375C 2.38542 27.9844 2.1875 28.7943 2.1875 29.8672ZM 0.75 47.7031C 0.75 46.3854 1.05469 45.3385 1.66406 44.5625C 2.27344 43.7812 3.08073 43.3906 4.08594 43.3906C 5.11719 43.3906 5.92188 43.7552 6.5 44.4844L 6.57031 43.5469L 7.89062 43.5469L 7.89062 51.7969C 7.89062 52.8906 7.5651 53.7526 6.91406 54.3828C 6.26823 55.013 5.39844 55.3281 4.30469 55.3281C 3.69531 55.3281 3.09896 55.1979 2.51562 54.9375C 1.93229 54.6771 1.48698 54.3203 1.17969 53.8672L 1.92969 53C 2.54948 53.7656 3.30729 54.1484 4.20312 54.1484C 4.90625 54.1484 5.45312 53.9505 5.84375 53.5547C 6.23958 53.1589 6.4375 52.6016 6.4375 51.8828L 6.4375 51.1562C 5.85938 51.8229 5.07031 52.1562 4.07031 52.1562C 3.08073 52.1562 2.27865 51.7578 1.66406 50.9609C 1.05469 50.1641 0.75 49.0781 0.75 47.7031ZM 2.20312 47.8672C 2.20312 48.8203 2.39844 49.5703 2.78906 50.1172C 3.17969 50.6589 3.72656 50.9297 4.42969 50.9297C 5.34115 50.9297 6.01042 50.5156 6.4375 49.6875L 6.4375 45.8281C 5.99479 45.0208 5.33073 44.6172 4.44531 44.6172C 3.74219 44.6172 3.19271 44.8906 2.79688 45.4375C 2.40104 45.9844 2.20312 46.7943 2.20312 47.8672ZM 23.4297 44.5703C 24.0703 43.7839 24.9036 43.3906 25.9297 43.3906C 27.7161 43.3906 28.6172 44.3984 28.6328 46.4141L 28.6328 52L 27.1875 52L 27.1875 46.4062C 27.1823 45.7969 27.0417 45.3464 26.7656 45.0547C 26.4948 44.763 26.0703 44.6172 25.4922 44.6172C 25.0234 44.6172 24.612 44.7422 24.2578 44.9922C 23.9036 45.2422 23.6276 45.5703 23.4297 45.9766L 23.4297 52L 21.9844 52L 21.9844 40L 23.4297 40L 23.4297 44.5703ZM 44.2734 52L 42.8281 52L 42.8281 43.5469L 44.2734 43.5469L 44.2734 52ZM 42.7109 41.3047C 42.7109 41.0703 42.7812 40.8724 42.9219 40.7109C 43.0677 40.5495 43.2812 40.4688 43.5625 40.4688C 43.8438 40.4688 44.0573 40.5495 44.2031 40.7109C 44.349 40.8724 44.4219 41.0703 44.4219 41.3047C 44.4219 41.5391 44.349 41.7344 44.2031 41.8906C 44.0573 42.0469 43.8438 42.125 43.5625 42.125C 43.2812 42.125 43.0677 42.0469 42.9219 41.8906C 42.7812 41.7344 42.7109 41.5391 42.7109 41.3047Z"/>
<path id="path19_stroke" d="M 0 0L 23 0L 23 -4L 0 -4L 0 0Z"/>
<path id="path20_fill" d="M 0.742188 29.7031C 0.742188 28.4062 1.04948 27.3646 1.66406 26.5781C 2.27865 25.7865 3.08333 25.3906 4.07812 25.3906C 5.06771 25.3906 5.85156 25.7292 6.42969 26.4062L 6.42969 22L 7.875 22L 7.875 34L 6.54688 34L 6.47656 33.0938C 5.89844 33.8021 5.09375 34.1562 4.0625 34.1562C 3.08333 34.1562 2.28385 33.7552 1.66406 32.9531C 1.04948 32.151 0.742188 31.1042 0.742188 29.8125L 0.742188 29.7031ZM 2.1875 29.8672C 2.1875 30.8255 2.38542 31.5755 2.78125 32.1172C 3.17708 32.6589 3.72396 32.9297 4.42188 32.9297C 5.33854 32.9297 6.00781 32.5182 6.42969 31.6953L 6.42969 27.8125C 5.9974 27.0156 5.33333 26.6172 4.4375 26.6172C 3.72917 26.6172 3.17708 26.8906 2.78125 27.4375C 2.38542 27.9844 2.1875 28.7943 2.1875 29.8672ZM 25.5391 34.1562C 24.3932 34.1562 23.4609 33.7812 22.7422 33.0312C 22.0234 32.276 21.6641 31.2682 21.6641 30.0078L 21.6641 29.7422C 21.6641 28.9036 21.8229 28.1562 22.1406 27.5C 22.4635 26.8385 22.9115 26.3229 23.4844 25.9531C 24.0625 25.5781 24.6875 25.3906 25.3594 25.3906C 26.4583 25.3906 27.3125 25.7526 27.9219 26.4766C 28.5312 27.2005 28.8359 28.237 28.8359 29.5859L 28.8359 30.1875L 23.1094 30.1875C 23.1302 31.0208 23.3724 31.6953 23.8359 32.2109C 24.3047 32.7214 24.8984 32.9766 25.6172 32.9766C 26.1276 32.9766 26.5599 32.8724 26.9141 32.6641C 27.2682 32.4557 27.5781 32.1797 27.8438 31.8359L 28.7266 32.5234C 28.0182 33.612 26.9557 34.1562 25.5391 34.1562ZM 25.3594 26.5781C 24.776 26.5781 24.2865 26.7917 23.8906 27.2188C 23.4948 27.6406 23.25 28.2344 23.1562 29L 27.3906 29L 27.3906 28.8906C 27.349 28.1562 27.151 27.5885 26.7969 27.1875C 26.4427 26.7812 25.9635 26.5781 25.3594 26.5781ZM 0.75 47.7031C 0.75 46.3854 1.05469 45.3385 1.66406 44.5625C 2.27344 43.7812 3.08073 43.3906 4.08594 43.3906C 5.11719 43.3906 5.92188 43.7552 6.5 44.4844L 6.57031 43.5469L 7.89062 43.5469L 7.89062 51.7969C 7.89062 52.8906 7.5651 53.7526 6.91406 54.3828C 6.26823 55.013 5.39844 55.3281 4.30469 55.3281C 3.69531 55.3281 3.09896 55.1979 2.51562 54.9375C 1.93229 54.6771 1.48698 54.3203 1.17969 53.8672L 1.92969 53C 2.54948 53.7656 3.30729 54.1484 4.20312 54.1484C 4.90625 54.1484 5.45312 53.9505 5.84375 53.5547C 6.23958 53.1589 6.4375 52.6016 6.4375 51.8828L 6.4375 51.1562C 5.85938 51.8229 5.07031 52.1562 4.07031 52.1562C 3.08073 52.1562 2.27865 51.7578 1.66406 50.9609C 1.05469 50.1641 0.75 49.0781 0.75 47.7031ZM 2.20312 47.8672C 2.20312 48.8203 2.39844 49.5703 2.78906 50.1172C 3.17969 50.6589 3.72656 50.9297 4.42969 50.9297C 5.34115 50.9297 6.01042 50.5156 6.4375 49.6875L 6.4375 45.8281C 5.99479 45.0208 5.33073 44.6172 4.44531 44.6172C 3.74219 44.6172 3.19271 44.8906 2.79688 45.4375C 2.40104 45.9844 2.20312 46.7943 2.20312 47.8672ZM 23.4297 44.5703C 24.0703 43.7839 24.9036 43.3906 25.9297 43.3906C 27.7161 43.3906 28.6172 44.3984 28.6328 46.4141L 28.6328 52L 27.1875 52L 27.1875 46.4062C 27.1823 45.7969 27.0417 45.3464 26.7656 45.0547C 26.4948 44.763 26.0703 44.6172 25.4922 44.6172C 25.0234 44.6172 24.612 44.7422 24.2578 44.9922C 23.9036 45.2422 23.6276 45.5703 23.4297 45.9766L 23.4297 52L 21.9844 52L 21.9844 40L 23.4297 40L 23.4297 44.5703Z"/>
<path id="path21_fill" d="M 6.3125 15C 6.22917 14.8333 6.16146 14.5365 6.10938 14.1094C 5.4375 14.8073 4.63542 15.1562 3.70312 15.1562C 2.86979 15.1562 2.1849 14.9219 1.64844 14.4531C 1.11719 13.9792 0.851562 13.3802 0.851562 12.6562C 0.851562 11.776 1.1849 11.0938 1.85156 10.6094C 2.52344 10.1198 3.46615 9.875 4.67969 9.875L 6.08594 9.875L 6.08594 9.21094C 6.08594 8.70573 5.9349 8.30469 5.63281 8.00781C 5.33073 7.70573 4.88542 7.55469 4.29688 7.55469C 3.78125 7.55469 3.34896 7.6849 3 7.94531C 2.65104 8.20573 2.47656 8.52083 2.47656 8.89062L 1.02344 8.89062C 1.02344 8.46875 1.17188 8.0625 1.46875 7.67188C 1.77083 7.27604 2.17708 6.96354 2.6875 6.73438C 3.20312 6.50521 3.76823 6.39062 4.38281 6.39062C 5.35677 6.39062 6.11979 6.63542 6.67188 7.125C 7.22396 7.60938 7.51042 8.27865 7.53125 9.13281L 7.53125 13.0234C 7.53125 13.7995 7.63021 14.4167 7.82812 14.875L 7.82812 15L 6.3125 15ZM 3.91406 13.8984C 4.36719 13.8984 4.79688 13.7812 5.20312 13.5469C 5.60938 13.3125 5.90365 13.0078 6.08594 12.6328L 6.08594 10.8984L 4.95312 10.8984C 3.18229 10.8984 2.29688 11.4167 2.29688 12.4531C 2.29688 12.9062 2.44792 13.2604 2.75 13.5156C 3.05208 13.7708 3.4401 13.8984 3.91406 13.8984ZM 28.8594 10.8672C 28.8594 12.1589 28.5625 13.1979 27.9688 13.9844C 27.375 14.7656 26.5781 15.1562 25.5781 15.1562C 24.5104 15.1562 23.6849 14.7786 23.1016 14.0234L 23.0312 15L 21.7031 15L 21.7031 3L 23.1484 3L 23.1484 7.47656C 23.7318 6.7526 24.5365 6.39062 25.5625 6.39062C 26.5885 6.39062 27.3932 6.77865 27.9766 7.55469C 28.5651 8.33073 28.8594 9.39323 28.8594 10.7422L 28.8594 10.8672ZM 27.4141 10.7031C 27.4141 9.71875 27.224 8.95833 26.8438 8.42188C 26.4635 7.88542 25.9167 7.61719 25.2031 7.61719C 24.25 7.61719 23.5651 8.0599 23.1484 8.94531L 23.1484 12.6016C 23.5911 13.487 24.2812 13.9297 25.2188 13.9297C 25.9115 13.9297 26.4505 13.6615 26.8359 13.125C 27.2214 12.5885 27.4141 11.7812 27.4141 10.7031ZM 45.9844 13.9766C 46.5 13.9766 46.9505 13.8203 47.3359 13.5078C 47.7214 13.1953 47.9349 12.8047 47.9766 12.3359L 49.3438 12.3359C 49.3177 12.8203 49.151 13.2812 48.8438 13.7188C 48.5365 14.1562 48.125 14.5052 47.6094 14.7656C 47.099 15.026 46.5573 15.1562 45.9844 15.1562C 44.8333 15.1562 43.9167 14.7734 43.2344 14.0078C 42.5573 13.237 42.2188 12.1849 42.2188 10.8516L 42.2188 10.6094C 42.2188 9.78646 42.3698 9.05469 42.6719 8.41406C 42.974 7.77344 43.4062 7.27604 43.9688 6.92188C 44.5365 6.56771 45.2057 6.39062 45.9766 6.39062C 46.9245 6.39062 47.7109 6.67448 48.3359 7.24219C 48.9661 7.8099 49.3021 8.54688 49.3438 9.45312L 47.9766 9.45312C 47.9349 8.90625 47.7266 8.45833 47.3516 8.10938C 46.9818 7.75521 46.5234 7.57812 45.9766 7.57812C 45.2422 7.57812 44.6719 7.84375 44.2656 8.375C 43.8646 8.90104 43.6641 9.66406 43.6641 10.6641L 43.6641 10.9375C 43.6641 11.9115 43.8646 12.6615 44.2656 13.1875C 44.6667 13.7135 45.2396 13.9766 45.9844 13.9766ZM 43.1328 34L 43.1328 26.6641L 41.7969 26.6641L 41.7969 25.5469L 43.1328 25.5469L 43.1328 24.6797C 43.1328 23.7734 43.375 23.0729 43.8594 22.5781C 44.3438 22.0833 45.0286 21.8359 45.9141 21.8359C 46.2474 21.8359 46.5781 21.8802 46.9062 21.9688L 46.8281 23.1406C 46.5833 23.0938 46.3229 23.0703 46.0469 23.0703C 45.5781 23.0703 45.2161 23.2083 44.9609 23.4844C 44.7057 23.7552 44.5781 24.1458 44.5781 24.6562L 44.5781 25.5469L 46.3828 25.5469L 46.3828 26.6641L 44.5781 26.6641L 44.5781 34L 43.1328 34ZM 44.2734 52L 42.8281 52L 42.8281 43.5469L 44.2734 43.5469L 44.2734 52ZM 42.7109 41.3047C 42.7109 41.0703 42.7812 40.8724 42.9219 40.7109C 43.0677 40.5495 43.2812 40.4688 43.5625 40.4688C 43.8438 40.4688 44.0573 40.5495 44.2031 40.7109C 44.349 40.8724 44.4219 41.0703 44.4219 41.3047C 44.4219 41.5391 44.349 41.7344 44.2031 41.8906C 44.0573 42.0469 43.8438 42.125 43.5625 42.125C 43.2812 42.125 43.0677 42.0469 42.9219 41.8906C 42.7812 41.7344 42.7109 41.5391 42.7109 41.3047Z"/>
<path id="path22_fill" d="M 1.125 14.2422C 1.125 13.9922 1.19792 13.7839 1.34375 13.6172C 1.49479 13.4505 1.71875 13.3672 2.01562 13.3672C 2.3125 13.3672 2.53646 13.4505 2.6875 13.6172C 2.84375 13.7839 2.92188 13.9922 2.92188 14.2422C 2.92188 14.4818 2.84375 14.6823 2.6875 14.8438C 2.53646 15.0052 2.3125 15.0859 2.01562 15.0859C 1.71875 15.0859 1.49479 15.0052 1.34375 14.8438C 1.19792 14.6823 1.125 14.4818 1.125 14.2422ZM 5.34375 14.2422C 5.34375 13.9922 5.41667 13.7839 5.5625 13.6172C 5.71354 13.4505 5.9375 13.3672 6.23438 13.3672C 6.53125 13.3672 6.75521 13.4505 6.90625 13.6172C 7.0625 13.7839 7.14062 13.9922 7.14062 14.2422C 7.14062 14.4818 7.0625 14.6823 6.90625 14.8438C 6.75521 15.0052 6.53125 15.0859 6.23438 15.0859C 5.9375 15.0859 5.71354 15.0052 5.5625 14.8438C 5.41667 14.6823 5.34375 14.4818 5.34375 14.2422ZM 9.5625 14.2422C 9.5625 13.9922 9.63542 13.7839 9.78125 13.6172C 9.93229 13.4505 10.1562 13.3672 10.4531 13.3672C 10.75 13.3672 10.974 13.4505 11.125 13.6172C 11.2812 13.7839 11.3594 13.9922 11.3594 14.2422C 11.3594 14.4818 11.2812 14.6823 11.125 14.8438C 10.974 15.0052 10.75 15.0859 10.4531 15.0859C 10.1562 15.0859 9.93229 15.0052 9.78125 14.8438C 9.63542 14.6823 9.5625 14.4818 9.5625 14.2422Z"/>
<path id="path23_fill" d="M 1.125 14.2422C 1.125 13.9922 1.19792 13.7839 1.34375 13.6172C 1.49479 13.4505 1.71875 13.3672 2.01562 13.3672C 2.3125 13.3672 2.53646 13.4505 2.6875 13.6172C 2.84375 13.7839 2.92188 13.9922 2.92188 14.2422C 2.92188 14.4818 2.84375 14.6823 2.6875 14.8438C 2.53646 15.0052 2.3125 15.0859 2.01562 15.0859C 1.71875 15.0859 1.49479 15.0052 1.34375 14.8438C 1.19792 14.6823 1.125 14.4818 1.125 14.2422ZM 5.34375 14.2422C 5.34375 13.9922 5.41667 13.7839 5.5625 13.6172C 5.71354 13.4505 5.9375 13.3672 6.23438 13.3672C 6.53125 13.3672 6.75521 13.4505 6.90625 13.6172C 7.0625 13.7839 7.14062 13.9922 7.14062 14.2422C 7.14062 14.4818 7.0625 14.6823 6.90625 14.8438C 6.75521 15.0052 6.53125 15.0859 6.23438 15.0859C 5.9375 15.0859 5.71354 15.0052 5.5625 14.8438C 5.41667 14.6823 5.34375 14.4818 5.34375 14.2422ZM 9.5625 14.2422C 9.5625 13.9922 9.63542 13.7839 9.78125 13.6172C 9.93229 13.4505 10.1562 13.3672 10.4531 13.3672C 10.75 13.3672 10.974 13.4505 11.125 13.6172C 11.2812 13.7839 11.3594 13.9922 11.3594 14.2422C 11.3594 14.4818 11.2812 14.6823 11.125 14.8438C 10.974 15.0052 10.75 15.0859 10.4531 15.0859C 10.1562 15.0859 9.93229 15.0052 9.78125 14.8438C 9.63542 14.6823 9.5625 14.4818 9.5625 14.2422Z"/>
</defs>
</svg>

