<svg width="258" height="62" viewBox="0 0 258 62" version="1.1" xmlns="http://www.w3.org/2000/svg" xmlns:xlink="http://www.w3.org/1999/xlink">
<title>Group.svg</title>
<desc>Created using Figma</desc>
<g id="Canvas" transform="translate(-304 -1510)">
<g id="Group">
<g id="Component">
<g id="Line 2">
<use xlink:href="#path0_stroke" transform="matrix(8.55488e-32 1 -0.999041 0.0437856 304 1511)" fill="#333333"/>
</g>
<g id="Line 3">
<use xlink:href="#path1_stroke" transform="translate(304 1511)" fill="#333333"/>
</g>
<g id="Line 3">
<use xlink:href="#path1_stroke" transform="translate(304 1571)" fill="#333333"/>
</g>
</g>
<g id="Component">
<g id="Line 2">
<use xlink:href="#path0_stroke" transform="matrix(-1.22465e-16 -1 0.999041 -0.0437856 332 1571)" fill="#333333"/>
</g>
<g id="Line 3">
<use xlink:href="#path1_stroke" transform="matrix(-1 1.22465e-16 -1.22465e-16 -1 332 1570)" fill="#333333"/>
</g>
<g id="Line 3">
<use xlink:href="#path1_stroke" transform="matrix(-1 1.22465e-16 -1.22465e-16 -1 332 1510)" fill="#333333"/>
</g>
</g>
<g id="1 2 1">
<use xlink:href="#path2_fill" transform="translate(314 1516)" fill="#2F80ED"/>
<use xlink:href="#path3_fill" transform="translate(314 1516)" fill="#EB5757"/>
<use xlink:href="#path4_fill" transform="translate(314 1516)"/>
</g>
<g id="*">
<use xlink:href="#path5_fill" transform="translate(339 1534)"/>
</g>
<g id="Component">
<g id="Line 2">
<use xlink:href="#path0_stroke" transform="matrix(8.55488e-32 1 -0.999041 0.0437856 350 1511)" fill="#333333"/>
</g>
<g id="Line 3">
<use xlink:href="#path1_stroke" transform="translate(350 1511)" fill="#333333"/>
</g>
<g id="Line 3">
<use xlink:href="#path1_stroke" transform="translate(350 1571)" fill="#333333"/>
</g>
</g>
<g id="Component">
<g id="Line 2">
<use xlink:href="#path0_stroke" transform="matrix(-1.22465e-16 -1 0.999041 -0.0437856 378 1570)" fill="#333333"/>
</g>
<g id="Line 3">
<use xlink:href="#path1_stroke" transform="matrix(-1 1.22465e-16 -1.22465e-16 -1 378 1570)" fill="#333333"/>
</g>
<g id="Line 3">
<use xlink:href="#path1_stroke" transform="matrix(-1 1.22465e-16 -1.22465e-16 -1 378 1510)" fill="#333333"/>
</g>
</g>
<g id="3 0 1">
<use xlink:href="#path6_fill" transform="translate(360 1516)" fill="#2F80ED"/>
<use xlink:href="#path7_fill" transform="translate(360 1516)" fill="#EB5757"/>
<use xlink:href="#path8_fill" transform="translate(360 1516)"/>
</g>
<g id="=">
<use xlink:href="#path9_fill" transform="translate(387 1531)"/>
</g>
<g id="(1*3) + (2*0) + (1*1) = 4">
<use xlink:href="#path10_fill" transform="translate(405 1531)" fill="#2F80ED"/>
<use xlink:href="#path11_fill" transform="translate(405 1531)" fill="#EB5757"/>
<use xlink:href="#path12_fill" transform="translate(405 1531)"/>
</g>
</g>
</g>
<defs>
<path id="path0_stroke" d="M 0 0L 60 0L 60 -1L 0 -1L 0 0Z"/>
<path id="path1_stroke" d="M 0 0L 6 0L 6 -1L 0 -1L 0 0Z"/>
<path id="path2_fill" d="M 4.9834 46L 3.71191 46L 3.71191 37.5713L 1.16211 38.5078L 1.16211 37.3594L 4.78516 35.999L 4.9834 35.999L 4.9834 46Z"/>
<path id="path3_fill" d="M 7.34863 29L 0.827148 29L 0.827148 28.0908L 4.27246 24.2627C 4.78288 23.6839 5.13379 23.2145 5.3252 22.8545C 5.52116 22.4899 5.61914 22.1139 5.61914 21.7266C 5.61914 21.207 5.46191 20.7809 5.14746 20.4482C 4.83301 20.1156 4.41374 19.9492 3.88965 19.9492C 3.26074 19.9492 2.77083 20.1292 2.41992 20.4893C 2.07357 20.8447 1.90039 21.3415 1.90039 21.9795L 0.635742 21.9795C 0.635742 21.0635 0.929688 20.3229 1.51758 19.7578C 2.11003 19.1927 2.90072 18.9102 3.88965 18.9102C 4.81478 18.9102 5.54622 19.154 6.08398 19.6416C 6.62174 20.1247 6.89062 20.7695 6.89062 21.5762C 6.89062 22.556 6.26628 23.7227 5.01758 25.0762L 2.35156 27.9678L 7.34863 27.9678L 7.34863 29Z"/>
<path id="path4_fill" d="M 4.9834 13L 3.71191 13L 3.71191 4.57129L 1.16211 5.50781L 1.16211 4.35938L 4.78516 2.99902L 4.9834 2.99902L 4.9834 13Z"/>
<path id="path5_fill" d="M 2.25586 6.28027L 0.191406 5.66504L 0.505859 4.63281L 2.57031 5.39844L 2.50879 3.04688L 3.55469 3.04688L 3.48633 5.43262L 5.5166 4.68066L 5.83105 5.71973L 3.73242 6.3418L 5.08594 8.19434L 4.23828 8.83691L 2.9668 6.86816L 1.73633 8.78906L 0.881836 8.16699L 2.25586 6.28027Z"/>
<path id="path6_fill" d="M 4.9834 46L 3.71191 46L 3.71191 37.5713L 1.16211 38.5078L 1.16211 37.3594L 4.78516 35.999L 4.9834 35.999L 4.9834 46Z"/>
<path id="path7_fill" d="M 7.06836 24.7549C 7.06836 26.236 6.81543 27.3366 6.30957 28.0566C 5.80371 28.7767 5.01302 29.1367 3.9375 29.1367C 2.87565 29.1367 2.08952 28.7858 1.5791 28.084C 1.06868 27.3776 0.804362 26.3249 0.786133 24.9258L 0.786133 23.2373C 0.786133 21.7744 1.03906 20.6875 1.54492 19.9766C 2.05078 19.2656 2.84375 18.9102 3.92383 18.9102C 4.99479 18.9102 5.7832 19.2542 6.28906 19.9424C 6.79492 20.626 7.05469 21.6833 7.06836 23.1143L 7.06836 24.7549ZM 5.80371 23.0254C 5.80371 21.9544 5.65332 21.1751 5.35254 20.6875C 5.05176 20.1953 4.57552 19.9492 3.92383 19.9492C 3.27669 19.9492 2.80501 20.193 2.50879 20.6807C 2.21257 21.1683 2.0599 21.918 2.05078 22.9297L 2.05078 24.9531C 2.05078 26.0286 2.20573 26.8239 2.51562 27.3389C 2.83008 27.8493 3.30404 28.1045 3.9375 28.1045C 4.56185 28.1045 5.02441 27.863 5.3252 27.3799C 5.63053 26.8968 5.79004 26.1357 5.80371 25.0967L 5.80371 23.0254Z"/>
<path id="path8_fill" d="M 2.66602 7.4082L 3.61621 7.4082C 4.21322 7.39909 4.68262 7.24186 5.02441 6.93652C 5.36621 6.63118 5.53711 6.21875 5.53711 5.69922C 5.53711 4.53255 4.95605 3.94922 3.79395 3.94922C 3.24707 3.94922 2.80957 4.10645 2.48145 4.4209C 2.15788 4.73079 1.99609 5.14323 1.99609 5.6582L 0.731445 5.6582C 0.731445 4.86979 1.01855 4.21582 1.59277 3.69629C 2.17155 3.1722 2.90527 2.91016 3.79395 2.91016C 4.73275 2.91016 5.46875 3.15853 6.00195 3.65527C 6.53516 4.15202 6.80176 4.84245 6.80176 5.72656C 6.80176 6.15951 6.66048 6.57878 6.37793 6.98438C 6.09993 7.38997 5.7194 7.69303 5.23633 7.89355C 5.7832 8.06673 6.20475 8.35384 6.50098 8.75488C 6.80176 9.15592 6.95215 9.64583 6.95215 10.2246C 6.95215 11.1178 6.66048 11.8265 6.07715 12.3506C 5.49382 12.8747 4.73503 13.1367 3.80078 13.1367C 2.86654 13.1367 2.10547 12.8838 1.51758 12.3779C 0.934245 11.8721 0.642578 11.2044 0.642578 10.375L 1.91406 10.375C 1.91406 10.8991 2.08496 11.3184 2.42676 11.6328C 2.76855 11.9473 3.22656 12.1045 3.80078 12.1045C 4.41146 12.1045 4.87858 11.945 5.20215 11.626C 5.52572 11.307 5.6875 10.849 5.6875 10.252C 5.6875 9.67318 5.50977 9.22884 5.1543 8.91895C 4.79883 8.60905 4.28613 8.44954 3.61621 8.44043L 2.66602 8.44043L 2.66602 7.4082Z"/>
<path id="path9_fill" d="M 6.74023 7.43555L 1.03906 7.43555L 1.03906 6.33496L 6.74023 6.33496L 6.74023 7.43555ZM 6.74023 10.2725L 1.03906 10.2725L 1.03906 9.17871L 6.74023 9.17871L 6.74023 10.2725Z"/>
<path id="path10_fill" d="M 93.4951 8.95996C 93.4951 7.93001 93.6318 6.94108 93.9053 5.99316C 94.1833 5.04525 94.5957 4.18392 95.1426 3.40918C 95.6895 2.63444 96.2568 2.08757 96.8447 1.76855L 97.1045 2.60254C 96.4391 3.11296 95.8923 3.89225 95.4639 4.94043C 95.04 5.98861 94.8076 7.16211 94.7666 8.46094L 94.7598 9.04199C 94.7598 10.8011 95.0811 12.3278 95.7236 13.6221C 96.111 14.3968 96.5713 15.0029 97.1045 15.4404L 96.8447 16.2129C 96.2386 15.8757 95.6598 15.3105 95.1084 14.5176C 94.0329 12.9681 93.4951 11.1156 93.4951 8.95996ZM 102.354 13L 101.083 13L 101.083 4.57129L 98.5332 5.50781L 98.5332 4.35938L 102.156 2.99902L 102.354 2.99902L 102.354 13ZM 107.488 6.28027L 105.424 5.66504L 105.738 4.63281L 107.803 5.39844L 107.741 3.04688L 108.787 3.04688L 108.719 5.43262L 110.749 4.68066L 111.063 5.71973L 108.965 6.3418L 110.318 8.19434L 109.471 8.83691L 108.199 6.86816L 106.969 8.78906L 106.114 8.16699L 107.488 6.28027ZM 116.245 13L 114.974 13L 114.974 4.57129L 112.424 5.50781L 112.424 4.35938L 116.047 2.99902L 116.245 2.99902L 116.245 13ZM 122.999 9.02832C 122.999 10.0446 122.865 11.0199 122.596 11.9541C 122.331 12.8838 121.924 13.7428 121.372 14.5312C 120.825 15.3197 120.251 15.8802 119.649 16.2129L 119.383 15.4404C 120.085 14.9027 120.647 14.0687 121.071 12.9385C 121.5 11.8037 121.718 10.5459 121.728 9.16504L 121.728 8.94629C 121.728 7.98926 121.627 7.10059 121.427 6.28027C 121.226 5.4554 120.946 4.71712 120.586 4.06543C 120.23 3.41374 119.829 2.9056 119.383 2.54102L 119.649 1.76855C 120.251 2.10124 120.823 2.65723 121.365 3.43652C 121.912 4.21582 122.32 5.07487 122.589 6.01367C 122.862 6.95247 122.999 7.95736 122.999 9.02832Z"/>
<path id="path11_fill" d="M 47.2021 8.95996C 47.2021 7.93001 47.3389 6.94108 47.6123 5.99316C 47.8903 5.04525 48.3027 4.18392 48.8496 3.40918C 49.3965 2.63444 49.9639 2.08757 50.5518 1.76855L 50.8115 2.60254C 50.1462 3.11296 49.5993 3.89225 49.1709 4.94043C 48.7471 5.98861 48.5146 7.16211 48.4736 8.46094L 48.4668 9.04199C 48.4668 10.8011 48.7881 12.3278 49.4307 13.6221C 49.818 14.3968 50.2783 15.0029 50.8115 15.4404L 50.5518 16.2129C 49.9456 15.8757 49.3669 15.3105 48.8154 14.5176C 47.7399 12.9681 47.2021 11.1156 47.2021 8.95996ZM 58.4268 13L 51.9053 13L 51.9053 12.0908L 55.3506 8.2627C 55.861 7.68392 56.2119 7.21452 56.4033 6.85449C 56.5993 6.48991 56.6973 6.11393 56.6973 5.72656C 56.6973 5.20703 56.54 4.78092 56.2256 4.44824C 55.9111 4.11556 55.4919 3.94922 54.9678 3.94922C 54.3389 3.94922 53.849 4.12923 53.498 4.48926C 53.1517 4.84473 52.9785 5.34147 52.9785 5.97949L 51.7139 5.97949C 51.7139 5.06348 52.0078 4.32292 52.5957 3.75781C 53.1882 3.19271 53.9788 2.91016 54.9678 2.91016C 55.8929 2.91016 56.6243 3.15397 57.1621 3.6416C 57.6999 4.12467 57.9688 4.76953 57.9688 5.57617C 57.9688 6.55599 57.3444 7.72266 56.0957 9.07617L 53.4297 11.9678L 58.4268 11.9678L 58.4268 13ZM 61.1953 6.28027L 59.1309 5.66504L 59.4453 4.63281L 61.5098 5.39844L 61.4482 3.04688L 62.4941 3.04688L 62.4258 5.43262L 64.4561 4.68066L 64.7705 5.71973L 62.6719 6.3418L 64.0254 8.19434L 63.1777 8.83691L 61.9062 6.86816L 60.6758 8.78906L 59.8213 8.16699L 61.1953 6.28027ZM 72.0371 8.75488C 72.0371 10.236 71.7842 11.3366 71.2783 12.0566C 70.7725 12.7767 69.9818 13.1367 68.9062 13.1367C 67.8444 13.1367 67.0583 12.7858 66.5479 12.084C 66.0374 11.3776 65.7731 10.3249 65.7549 8.92578L 65.7549 7.2373C 65.7549 5.77441 66.0078 4.6875 66.5137 3.97656C 67.0195 3.26562 67.8125 2.91016 68.8926 2.91016C 69.9635 2.91016 70.752 3.25423 71.2578 3.94238C 71.7637 4.62598 72.0234 5.68327 72.0371 7.11426L 72.0371 8.75488ZM 70.7725 7.02539C 70.7725 5.95443 70.6221 5.17513 70.3213 4.6875C 70.0205 4.19531 69.5443 3.94922 68.8926 3.94922C 68.2454 3.94922 67.7738 4.19303 67.4775 4.68066C 67.1813 5.16829 67.0286 5.91797 67.0195 6.92969L 67.0195 8.95312C 67.0195 10.0286 67.1745 10.8239 67.4844 11.3389C 67.7988 11.8493 68.2728 12.1045 68.9062 12.1045C 69.5306 12.1045 69.9932 11.863 70.2939 11.3799C 70.5993 10.8968 70.7588 10.1357 70.7725 9.09668L 70.7725 7.02539ZM 76.7061 9.02832C 76.7061 10.0446 76.5716 11.0199 76.3027 11.9541C 76.0384 12.8838 75.6305 13.7428 75.0791 14.5312C 74.5322 15.3197 73.958 15.8802 73.3564 16.2129L 73.0898 15.4404C 73.7917 14.9027 74.3545 14.0687 74.7783 12.9385C 75.2067 11.8037 75.4255 10.5459 75.4346 9.16504L 75.4346 8.94629C 75.4346 7.98926 75.3343 7.10059 75.1338 6.28027C 74.9333 5.4554 74.653 4.71712 74.293 4.06543C 73.9375 3.41374 73.5365 2.9056 73.0898 2.54102L 73.3564 1.76855C 73.958 2.10124 74.5299 2.65723 75.0723 3.43652C 75.6191 4.21582 76.027 5.07487 76.2959 6.01367C 76.5693 6.95247 76.7061 7.95736 76.7061 9.02832Z"/>
<path id="path12_fill" d="M 0.90918 8.95996C 0.90918 7.93001 1.0459 6.94108 1.31934 5.99316C 1.59733 5.04525 2.00977 4.18392 2.55664 3.40918C 3.10352 2.63444 3.6709 2.08757 4.25879 1.76855L 4.51855 2.60254C 3.85319 3.11296 3.30632 3.89225 2.87793 4.94043C 2.4541 5.98861 2.22168 7.16211 2.18066 8.46094L 2.17383 9.04199C 2.17383 10.8011 2.49512 12.3278 3.1377 13.6221C 3.52507 14.3968 3.98535 15.0029 4.51855 15.4404L 4.25879 16.2129C 3.65267 15.8757 3.07389 15.3105 2.52246 14.5176C 1.44694 12.9681 0.90918 11.1156 0.90918 8.95996ZM 9.76855 13L 8.49707 13L 8.49707 4.57129L 5.94727 5.50781L 5.94727 4.35938L 9.57031 2.99902L 9.76855 2.99902L 9.76855 13ZM 14.9023 6.28027L 12.8379 5.66504L 13.1523 4.63281L 15.2168 5.39844L 15.1553 3.04688L 16.2012 3.04688L 16.1328 5.43262L 18.1631 4.68066L 18.4775 5.71973L 16.3789 6.3418L 17.7324 8.19434L 16.8848 8.83691L 15.6133 6.86816L 14.3828 8.78906L 13.5283 8.16699L 14.9023 6.28027ZM 21.3418 7.4082L 22.292 7.4082C 22.889 7.39909 23.3584 7.24186 23.7002 6.93652C 24.042 6.63118 24.2129 6.21875 24.2129 5.69922C 24.2129 4.53255 23.6318 3.94922 22.4697 3.94922C 21.9229 3.94922 21.4854 4.10645 21.1572 4.4209C 20.8337 4.73079 20.6719 5.14323 20.6719 5.6582L 19.4072 5.6582C 19.4072 4.86979 19.6943 4.21582 20.2686 3.69629C 20.8473 3.1722 21.5811 2.91016 22.4697 2.91016C 23.4085 2.91016 24.1445 3.15853 24.6777 3.65527C 25.2109 4.15202 25.4775 4.84245 25.4775 5.72656C 25.4775 6.15951 25.3363 6.57878 25.0537 6.98438C 24.7757 7.38997 24.3952 7.69303 23.9121 7.89355C 24.459 8.06673 24.8805 8.35384 25.1768 8.75488C 25.4775 9.15592 25.6279 9.64583 25.6279 10.2246C 25.6279 11.1178 25.3363 11.8265 24.7529 12.3506C 24.1696 12.8747 23.4108 13.1367 22.4766 13.1367C 21.5423 13.1367 20.7812 12.8838 20.1934 12.3779C 19.61 11.8721 19.3184 11.2044 19.3184 10.375L 20.5898 10.375C 20.5898 10.8991 20.7607 11.3184 21.1025 11.6328C 21.4443 11.9473 21.9023 12.1045 22.4766 12.1045C 23.0872 12.1045 23.5544 11.945 23.8779 11.626C 24.2015 11.307 24.3633 10.849 24.3633 10.252C 24.3633 9.67318 24.1855 9.22884 23.8301 8.91895C 23.4746 8.60905 22.9619 8.44954 22.292 8.44043L 21.3418 8.44043L 21.3418 7.4082ZM 30.4131 9.02832C 30.4131 10.0446 30.2786 11.0199 30.0098 11.9541C 29.7454 12.8838 29.3376 13.7428 28.7861 14.5312C 28.2393 15.3197 27.665 15.8802 27.0635 16.2129L 26.7969 15.4404C 27.4987 14.9027 28.0615 14.0687 28.4854 12.9385C 28.9137 11.8037 29.1325 10.5459 29.1416 9.16504L 29.1416 8.94629C 29.1416 7.98926 29.0413 7.10059 28.8408 6.28027C 28.6403 5.4554 28.36 4.71712 28 4.06543C 27.6445 3.41374 27.2435 2.9056 26.7969 2.54102L 27.0635 1.76855C 27.665 2.10124 28.237 2.65723 28.7793 3.43652C 29.3262 4.21582 29.734 5.07487 30.0029 6.01367C 30.2764 6.95247 30.4131 7.95736 30.4131 9.02832ZM 39.457 7.66113L 42.2324 7.66113L 42.2324 8.85742L 39.457 8.85742L 39.457 12.002L 38.1855 12.002L 38.1855 8.85742L 35.4102 8.85742L 35.4102 7.66113L 38.1855 7.66113L 38.1855 4.75586L 39.457 4.75586L 39.457 7.66113ZM 85.75 7.66113L 88.5254 7.66113L 88.5254 8.85742L 85.75 8.85742L 85.75 12.002L 84.4785 12.002L 84.4785 8.85742L 81.7031 8.85742L 81.7031 7.66113L 84.4785 7.66113L 84.4785 4.75586L 85.75 4.75586L 85.75 7.66113ZM 137.676 7.43555L 131.975 7.43555L 131.975 6.33496L 137.676 6.33496L 137.676 7.43555ZM 137.676 10.2725L 131.975 10.2725L 131.975 9.17871L 137.676 9.17871L 137.676 10.2725ZM 155.203 9.65723L 156.584 9.65723L 156.584 10.6895L 155.203 10.6895L 155.203 13L 153.932 13L 153.932 10.6895L 149.399 10.6895L 149.399 9.94434L 153.856 3.04688L 155.203 3.04688L 155.203 9.65723ZM 150.835 9.65723L 153.932 9.65723L 153.932 4.77637L 153.781 5.0498L 150.835 9.65723Z"/>
</defs>
</svg>

