<svg width="452" height="44" viewBox="0 0 452 44" version="1.1" xmlns="http://www.w3.org/2000/svg" xmlns:xlink="http://www.w3.org/1999/xlink">
<title>Group</title>
<desc>Created using Figma</desc>
<g id="Canvas" transform="translate(272 -357)">
<g id="Group">
<g id="Component">
<g id="Line 3">
<use xlink:href="#path0_stroke" transform="translate(-272 401)" fill="#333333"/>
</g>
</g>
<g id="Line 3">
<use xlink:href="#path0_stroke" transform="translate(13 401)" fill="#333333"/>
</g>
<g id="30 -1 -1000 50 -1 -100">
<use xlink:href="#path1_fill" transform="translate(-263 361)" fill="#333333"/>
</g>
<g id="Component">
<g id="Line 2">
<use xlink:href="#path2_stroke" transform="matrix(6.12323e-17 1 -1 6.12323e-17 -272 359)" fill="#333333"/>
</g>
<g id="Line 3">
<use xlink:href="#path0_stroke" transform="translate(-272 359)" fill="#333333"/>
</g>
</g>
<g id="Line">
<use xlink:href="#path3_stroke" transform="matrix(6.12323e-17 1 -1 6.12323e-17 -213 360)" fill="#333333"/>
</g>
<g id="1 -1/30 -1000/30 50 -1 - 100">
<use xlink:href="#path4_fill" transform="translate(24 361)" fill="#333333"/>
</g>
<g id="Component">
</g>
<g id="Arrow 4">
<use xlink:href="#path5_stroke" transform="translate(-142 376)" fill="#333333"/>
</g>
<g id="R1 = R1 / 30">
<use xlink:href="#path6_fill" transform="translate(-115 367)"/>
</g>
<g id="Arrow 4">
<use xlink:href="#path5_stroke" transform="translate(-17 376)" fill="#333333"/>
</g>
<g id="Component">
<g id="Line 2">
<use xlink:href="#path2_stroke" transform="matrix(-1.83697e-16 -1 1 -1.83697e-16 -154 399)" fill="#333333"/>
</g>
<g id="Line 3">
<use xlink:href="#path0_stroke" transform="matrix(-1 1.22465e-16 -1.22465e-16 -1 -154 399)" fill="#333333"/>
</g>
</g>
<g id="Line 3">
<use xlink:href="#path0_stroke" transform="matrix(-1 1.22465e-16 -1.22465e-16 -1 -154 357)" fill="#333333"/>
</g>
<g id="Component">
<g id="Line 2">
<use xlink:href="#path2_stroke" transform="matrix(6.12323e-17 1 -1 6.12323e-17 12 359)" fill="#333333"/>
</g>
<g id="Line 3">
<use xlink:href="#path0_stroke" transform="translate(12 359)" fill="#333333"/>
</g>
</g>
<g id="Component">
<g id="Line 2">
<use xlink:href="#path2_stroke" transform="matrix(-1.83697e-16 -1 1 -1.83697e-16 180 399)" fill="#333333"/>
</g>
<g id="Line 3">
<use xlink:href="#path0_stroke" transform="matrix(-1 1.22465e-16 -1.22465e-16 -1 180 399)" fill="#333333"/>
</g>
</g>
<g id="Line 3">
<use xlink:href="#path0_stroke" transform="matrix(-1 1.22465e-16 -1.22465e-16 -1 179 357)" fill="#333333"/>
</g>
<g id="Line">
<use xlink:href="#path3_stroke" transform="matrix(6.12323e-17 1 -1 6.12323e-17 99 360)" fill="#333333"/>
</g>
</g>
</g>
<defs>
<path id="path0_stroke" d="M 0 0L 6 0L 6 -1L 0 -1L 0 0Z"/>
<path id="path1_fill" d="M 3.04688 8.60938L 4.13281 8.60938C 4.8151 8.59896 5.35156 8.41927 5.74219 8.07031C 6.13281 7.72135 6.32812 7.25 6.32812 6.65625C 6.32812 5.32292 5.66406 4.65625 4.33594 4.65625C 3.71094 4.65625 3.21094 4.83594 2.83594 5.19531C 2.46615 5.54948 2.28125 6.02083 2.28125 6.60938L 0.835938 6.60938C 0.835938 5.70833 1.16406 4.96094 1.82031 4.36719C 2.48177 3.76823 3.32031 3.46875 4.33594 3.46875C 5.40885 3.46875 6.25 3.7526 6.85938 4.32031C 7.46875 4.88802 7.77344 5.67708 7.77344 6.6875C 7.77344 7.18229 7.61198 7.66146 7.28906 8.125C 6.97135 8.58854 6.53646 8.9349 5.98438 9.16406C 6.60938 9.36198 7.09115 9.6901 7.42969 10.1484C 7.77344 10.6068 7.94531 11.1667 7.94531 11.8281C 7.94531 12.849 7.61198 13.6589 6.94531 14.2578C 6.27865 14.8568 5.41146 15.1562 4.34375 15.1562C 3.27604 15.1562 2.40625 14.8672 1.73438 14.2891C 1.06771 13.7109 0.734375 12.9479 0.734375 12L 2.1875 12C 2.1875 12.599 2.38281 13.0781 2.77344 13.4375C 3.16406 13.7969 3.6875 13.9766 4.34375 13.9766C 5.04167 13.9766 5.57552 13.7943 5.94531 13.4297C 6.3151 13.0651 6.5 12.5417 6.5 11.8594C 6.5 11.1979 6.29688 10.6901 5.89062 10.3359C 5.48438 9.98177 4.89844 9.79948 4.13281 9.78906L 3.04688 9.78906L 3.04688 8.60938ZM 17.0625 10.1484C 17.0625 11.8411 16.7734 13.099 16.1953 13.9219C 15.6172 14.7448 14.7135 15.1562 13.4844 15.1562C 12.2708 15.1562 11.3724 14.7552 10.7891 13.9531C 10.2057 13.1458 9.90365 11.9427 9.88281 10.3438L 9.88281 8.41406C 9.88281 6.74219 10.1719 5.5 10.75 4.6875C 11.3281 3.875 12.2344 3.46875 13.4688 3.46875C 14.6927 3.46875 15.5938 3.86198 16.1719 4.64844C 16.75 5.42969 17.0469 6.63802 17.0625 8.27344L 17.0625 10.1484ZM 15.6172 8.17188C 15.6172 6.94792 15.4453 6.05729 15.1016 5.5C 14.7578 4.9375 14.2135 4.65625 13.4688 4.65625C 12.7292 4.65625 12.1901 4.9349 11.8516 5.49219C 11.513 6.04948 11.3385 6.90625 11.3281 8.0625L 11.3281 10.375C 11.3281 11.6042 11.5052 12.513 11.8594 13.1016C 12.2188 13.6849 12.7604 13.9766 13.4844 13.9766C 14.1979 13.9766 14.7266 13.7005 15.0703 13.1484C 15.4193 12.5964 15.6016 11.7266 15.6172 10.5391L 15.6172 8.17188ZM 33.9766 10.7578L 30.1641 10.7578L 30.1641 9.57812L 33.9766 9.57812L 33.9766 10.7578ZM 39.9922 15L 38.5391 15L 38.5391 5.36719L 35.625 6.4375L 35.625 5.125L 39.7656 3.57031L 39.9922 3.57031L 39.9922 15ZM 63.2578 10.7578L 59.4453 10.7578L 59.4453 9.57812L 63.2578 9.57812L 63.2578 10.7578ZM 69.2734 15L 67.8203 15L 67.8203 5.36719L 64.9062 6.4375L 64.9062 5.125L 69.0469 3.57031L 69.2734 3.57031L 69.2734 15ZM 80.6406 10.1484C 80.6406 11.8411 80.3516 13.099 79.7734 13.9219C 79.1953 14.7448 78.2917 15.1562 77.0625 15.1562C 75.849 15.1562 74.9505 14.7552 74.3672 13.9531C 73.7839 13.1458 73.4818 11.9427 73.4609 10.3438L 73.4609 8.41406C 73.4609 6.74219 73.75 5.5 74.3281 4.6875C 74.9062 3.875 75.8125 3.46875 77.0469 3.46875C 78.2708 3.46875 79.1719 3.86198 79.75 4.64844C 80.3281 5.42969 80.625 6.63802 80.6406 8.27344L 80.6406 10.1484ZM 79.1953 8.17188C 79.1953 6.94792 79.0234 6.05729 78.6797 5.5C 78.3359 4.9375 77.7917 4.65625 77.0469 4.65625C 76.3073 4.65625 75.7682 4.9349 75.4297 5.49219C 75.0911 6.04948 74.9167 6.90625 74.9062 8.0625L 74.9062 10.375C 74.9062 11.6042 75.0833 12.513 75.4375 13.1016C 75.7969 13.6849 76.3385 13.9766 77.0625 13.9766C 77.776 13.9766 78.3047 13.7005 78.6484 13.1484C 78.9974 12.5964 79.1797 11.7266 79.1953 10.5391L 79.1953 8.17188ZM 89.625 10.1484C 89.625 11.8411 89.3359 13.099 88.7578 13.9219C 88.1797 14.7448 87.276 15.1562 86.0469 15.1562C 84.8333 15.1562 83.9349 14.7552 83.3516 13.9531C 82.7682 13.1458 82.4661 11.9427 82.4453 10.3438L 82.4453 8.41406C 82.4453 6.74219 82.7344 5.5 83.3125 4.6875C 83.8906 3.875 84.7969 3.46875 86.0312 3.46875C 87.2552 3.46875 88.1562 3.86198 88.7344 4.64844C 89.3125 5.42969 89.6094 6.63802 89.625 8.27344L 89.625 10.1484ZM 88.1797 8.17188C 88.1797 6.94792 88.0078 6.05729 87.6641 5.5C 87.3203 4.9375 86.776 4.65625 86.0312 4.65625C 85.2917 4.65625 84.7526 4.9349 84.4141 5.49219C 84.0755 6.04948 83.901 6.90625 83.8906 8.0625L 83.8906 10.375C 83.8906 11.6042 84.0677 12.513 84.4219 13.1016C 84.7812 13.6849 85.3229 13.9766 86.0469 13.9766C 86.7604 13.9766 87.2891 13.7005 87.6328 13.1484C 87.9818 12.5964 88.1641 11.7266 88.1797 10.5391L 88.1797 8.17188ZM 98.6094 10.1484C 98.6094 11.8411 98.3203 13.099 97.7422 13.9219C 97.1641 14.7448 96.2604 15.1562 95.0312 15.1562C 93.8177 15.1562 92.9193 14.7552 92.3359 13.9531C 91.7526 13.1458 91.4505 11.9427 91.4297 10.3438L 91.4297 8.41406C 91.4297 6.74219 91.7188 5.5 92.2969 4.6875C 92.875 3.875 93.7812 3.46875 95.0156 3.46875C 96.2396 3.46875 97.1406 3.86198 97.7188 4.64844C 98.2969 5.42969 98.5938 6.63802 98.6094 8.27344L 98.6094 10.1484ZM 97.1641 8.17188C 97.1641 6.94792 96.9922 6.05729 96.6484 5.5C 96.3047 4.9375 95.7604 4.65625 95.0156 4.65625C 94.276 4.65625 93.737 4.9349 93.3984 5.49219C 93.0599 6.04948 92.8854 6.90625 92.875 8.0625L 92.875 10.375C 92.875 11.6042 93.0521 12.513 93.4062 13.1016C 93.7656 13.6849 94.3073 13.9766 95.0312 13.9766C 95.7448 13.9766 96.2734 13.7005 96.6172 13.1484C 96.9661 12.5964 97.1484 11.7266 97.1641 10.5391L 97.1641 8.17188ZM 1.60938 28.2969L 2.1875 22.625L 8.01562 22.625L 8.01562 23.9609L 3.41406 23.9609L 3.07031 27.0625C 3.6276 26.7344 4.26042 26.5703 4.96875 26.5703C 6.00521 26.5703 6.82812 26.9141 7.4375 27.6016C 8.04688 28.2839 8.35156 29.2083 8.35156 30.375C 8.35156 31.5469 8.03385 32.4714 7.39844 33.1484C 6.76823 33.8203 5.88542 34.1562 4.75 34.1562C 3.74479 34.1562 2.92448 33.8776 2.28906 33.3203C 1.65365 32.763 1.29167 31.9922 1.20312 31.0078L 2.57031 31.0078C 2.65885 31.6589 2.89062 32.151 3.26562 32.4844C 3.64062 32.8125 4.13542 32.9766 4.75 32.9766C 5.42188 32.9766 5.94792 32.7474 6.32812 32.2891C 6.71354 31.8307 6.90625 31.1979 6.90625 30.3906C 6.90625 29.6302 6.69792 29.0208 6.28125 28.5625C 5.86979 28.099 5.32031 27.8672 4.63281 27.8672C 4.0026 27.8672 3.50781 28.0052 3.14844 28.2812L 2.76562 28.5938L 1.60938 28.2969ZM 17.0625 29.1484C 17.0625 30.8411 16.7734 32.099 16.1953 32.9219C 15.6172 33.7448 14.7135 34.1562 13.4844 34.1562C 12.2708 34.1562 11.3724 33.7552 10.7891 32.9531C 10.2057 32.1458 9.90365 30.9427 9.88281 29.3438L 9.88281 27.4141C 9.88281 25.7422 10.1719 24.5 10.75 23.6875C 11.3281 22.875 12.2344 22.4688 13.4688 22.4688C 14.6927 22.4688 15.5938 22.862 16.1719 23.6484C 16.75 24.4297 17.0469 25.638 17.0625 27.2734L 17.0625 29.1484ZM 15.6172 27.1719C 15.6172 25.9479 15.4453 25.0573 15.1016 24.5C 14.7578 23.9375 14.2135 23.6562 13.4688 23.6562C 12.7292 23.6562 12.1901 23.9349 11.8516 24.4922C 11.513 25.0495 11.3385 25.9062 11.3281 27.0625L 11.3281 29.375C 11.3281 30.6042 11.5052 31.513 11.8594 32.1016C 12.2188 32.6849 12.7604 32.9766 13.4844 32.9766C 14.1979 32.9766 14.7266 32.7005 15.0703 32.1484C 15.4193 31.5964 15.6016 30.7266 15.6172 29.5391L 15.6172 27.1719ZM 33.9766 29.7578L 30.1641 29.7578L 30.1641 28.5781L 33.9766 28.5781L 33.9766 29.7578ZM 39.9922 34L 38.5391 34L 38.5391 24.3672L 35.625 25.4375L 35.625 24.125L 39.7656 22.5703L 39.9922 22.5703L 39.9922 34ZM 63.2578 29.7578L 59.4453 29.7578L 59.4453 28.5781L 63.2578 28.5781L 63.2578 29.7578ZM 69.2734 34L 67.8203 34L 67.8203 24.3672L 64.9062 25.4375L 64.9062 24.125L 69.0469 22.5703L 69.2734 22.5703L 69.2734 34ZM 80.6406 29.1484C 80.6406 30.8411 80.3516 32.099 79.7734 32.9219C 79.1953 33.7448 78.2917 34.1562 77.0625 34.1562C 75.849 34.1562 74.9505 33.7552 74.3672 32.9531C 73.7839 32.1458 73.4818 30.9427 73.4609 29.3438L 73.4609 27.4141C 73.4609 25.7422 73.75 24.5 74.3281 23.6875C 74.9062 22.875 75.8125 22.4688 77.0469 22.4688C 78.2708 22.4688 79.1719 22.862 79.75 23.6484C 80.3281 24.4297 80.625 25.638 80.6406 27.2734L 80.6406 29.1484ZM 79.1953 27.1719C 79.1953 25.9479 79.0234 25.0573 78.6797 24.5C 78.3359 23.9375 77.7917 23.6562 77.0469 23.6562C 76.3073 23.6562 75.7682 23.9349 75.4297 24.4922C 75.0911 25.0495 74.9167 25.9062 74.9062 27.0625L 74.9062 29.375C 74.9062 30.6042 75.0833 31.513 75.4375 32.1016C 75.7969 32.6849 76.3385 32.9766 77.0625 32.9766C 77.776 32.9766 78.3047 32.7005 78.6484 32.1484C 78.9974 31.5964 79.1797 30.7266 79.1953 29.5391L 79.1953 27.1719ZM 89.625 29.1484C 89.625 30.8411 89.3359 32.099 88.7578 32.9219C 88.1797 33.7448 87.276 34.1562 86.0469 34.1562C 84.8333 34.1562 83.9349 33.7552 83.3516 32.9531C 82.7682 32.1458 82.4661 30.9427 82.4453 29.3438L 82.4453 27.4141C 82.4453 25.7422 82.7344 24.5 83.3125 23.6875C 83.8906 22.875 84.7969 22.4688 86.0312 22.4688C 87.2552 22.4688 88.1562 22.862 88.7344 23.6484C 89.3125 24.4297 89.6094 25.638 89.625 27.2734L 89.625 29.1484ZM 88.1797 27.1719C 88.1797 25.9479 88.0078 25.0573 87.6641 24.5C 87.3203 23.9375 86.776 23.6562 86.0312 23.6562C 85.2917 23.6562 84.7526 23.9349 84.4141 24.4922C 84.0755 25.0495 83.901 25.9062 83.8906 27.0625L 83.8906 29.375C 83.8906 30.6042 84.0677 31.513 84.4219 32.1016C 84.7812 32.6849 85.3229 32.9766 86.0469 32.9766C 86.7604 32.9766 87.2891 32.7005 87.6328 32.1484C 87.9818 31.5964 88.1641 30.7266 88.1797 29.5391L 88.1797 27.1719Z"/>
<path id="path2_stroke" d="M 0 0L 42 0L 42 -1L 0 -1L 0 0Z"/>
<path id="path3_stroke" d="M 0 0L 37 0L 37 -1L 0 -1L 0 0Z"/>
<path id="path4_fill" d="M 5.69531 15L 4.24219 15L 4.24219 5.36719L 1.32812 6.4375L 1.32812 5.125L 5.46875 3.57031L 5.69531 3.57031L 5.69531 15ZM 32.9297 10.7578L 29.1172 10.7578L 29.1172 9.57812L 32.9297 9.57812L 32.9297 10.7578ZM 38.9453 15L 37.4922 15L 37.4922 5.36719L 34.5781 6.4375L 34.5781 5.125L 38.7188 3.57031L 38.9453 3.57031L 38.9453 15ZM 43.6172 15.9766L 42.375 15.9766L 47.125 3.625L 48.3594 3.625L 43.6172 15.9766ZM 51.875 8.60938L 52.9609 8.60938C 53.6432 8.59896 54.1797 8.41927 54.5703 8.07031C 54.9609 7.72135 55.1562 7.25 55.1562 6.65625C 55.1562 5.32292 54.4922 4.65625 53.1641 4.65625C 52.5391 4.65625 52.0391 4.83594 51.6641 5.19531C 51.2943 5.54948 51.1094 6.02083 51.1094 6.60938L 49.6641 6.60938C 49.6641 5.70833 49.9922 4.96094 50.6484 4.36719C 51.3099 3.76823 52.1484 3.46875 53.1641 3.46875C 54.237 3.46875 55.0781 3.7526 55.6875 4.32031C 56.2969 4.88802 56.6016 5.67708 56.6016 6.6875C 56.6016 7.18229 56.4401 7.66146 56.1172 8.125C 55.7995 8.58854 55.3646 8.9349 54.8125 9.16406C 55.4375 9.36198 55.9193 9.6901 56.2578 10.1484C 56.6016 10.6068 56.7734 11.1667 56.7734 11.8281C 56.7734 12.849 56.4401 13.6589 55.7734 14.2578C 55.1068 14.8568 54.2396 15.1562 53.1719 15.1562C 52.1042 15.1562 51.2344 14.8672 50.5625 14.2891C 49.8958 13.7109 49.5625 12.9479 49.5625 12L 51.0156 12C 51.0156 12.599 51.2109 13.0781 51.6016 13.4375C 51.9922 13.7969 52.5156 13.9766 53.1719 13.9766C 53.8698 13.9766 54.4036 13.7943 54.7734 13.4297C 55.1432 13.0651 55.3281 12.5417 55.3281 11.8594C 55.3281 11.1979 55.125 10.6901 54.7188 10.3359C 54.3125 9.98177 53.7266 9.79948 52.9609 9.78906L 51.875 9.78906L 51.875 8.60938ZM 65.8906 10.1484C 65.8906 11.8411 65.6016 13.099 65.0234 13.9219C 64.4453 14.7448 63.5417 15.1562 62.3125 15.1562C 61.099 15.1562 60.2005 14.7552 59.6172 13.9531C 59.0339 13.1458 58.7318 11.9427 58.7109 10.3438L 58.7109 8.41406C 58.7109 6.74219 59 5.5 59.5781 4.6875C 60.1562 3.875 61.0625 3.46875 62.2969 3.46875C 63.5208 3.46875 64.4219 3.86198 65 4.64844C 65.5781 5.42969 65.875 6.63802 65.8906 8.27344L 65.8906 10.1484ZM 64.4453 8.17188C 64.4453 6.94792 64.2734 6.05729 63.9297 5.5C 63.5859 4.9375 63.0417 4.65625 62.2969 4.65625C 61.5573 4.65625 61.0182 4.9349 60.6797 5.49219C 60.3411 6.04948 60.1667 6.90625 60.1562 8.0625L 60.1562 10.375C 60.1562 11.6042 60.3333 12.513 60.6875 13.1016C 61.0469 13.6849 61.5885 13.9766 62.3125 13.9766C 63.026 13.9766 63.5547 13.7005 63.8984 13.1484C 64.2474 12.5964 64.4297 11.7266 64.4453 10.5391L 64.4453 8.17188ZM 86.7734 10.7578L 82.9609 10.7578L 82.9609 9.57812L 86.7734 9.57812L 86.7734 10.7578ZM 92.7891 15L 91.3359 15L 91.3359 5.36719L 88.4219 6.4375L 88.4219 5.125L 92.5625 3.57031L 92.7891 3.57031L 92.7891 15ZM 104.156 10.1484C 104.156 11.8411 103.867 13.099 103.289 13.9219C 102.711 14.7448 101.807 15.1562 100.578 15.1562C 99.3646 15.1562 98.4661 14.7552 97.8828 13.9531C 97.2995 13.1458 96.9974 11.9427 96.9766 10.3438L 96.9766 8.41406C 96.9766 6.74219 97.2656 5.5 97.8438 4.6875C 98.4219 3.875 99.3281 3.46875 100.562 3.46875C 101.786 3.46875 102.688 3.86198 103.266 4.64844C 103.844 5.42969 104.141 6.63802 104.156 8.27344L 104.156 10.1484ZM 102.711 8.17188C 102.711 6.94792 102.539 6.05729 102.195 5.5C 101.852 4.9375 101.307 4.65625 100.562 4.65625C 99.8229 4.65625 99.2839 4.9349 98.9453 5.49219C 98.6068 6.04948 98.4323 6.90625 98.4219 8.0625L 98.4219 10.375C 98.4219 11.6042 98.599 12.513 98.9531 13.1016C 99.3125 13.6849 99.8542 13.9766 100.578 13.9766C 101.292 13.9766 101.82 13.7005 102.164 13.1484C 102.513 12.5964 102.695 11.7266 102.711 10.5391L 102.711 8.17188ZM 113.141 10.1484C 113.141 11.8411 112.852 13.099 112.273 13.9219C 111.695 14.7448 110.792 15.1562 109.562 15.1562C 108.349 15.1562 107.451 14.7552 106.867 13.9531C 106.284 13.1458 105.982 11.9427 105.961 10.3438L 105.961 8.41406C 105.961 6.74219 106.25 5.5 106.828 4.6875C 107.406 3.875 108.312 3.46875 109.547 3.46875C 110.771 3.46875 111.672 3.86198 112.25 4.64844C 112.828 5.42969 113.125 6.63802 113.141 8.27344L 113.141 10.1484ZM 111.695 8.17188C 111.695 6.94792 111.523 6.05729 111.18 5.5C 110.836 4.9375 110.292 4.65625 109.547 4.65625C 108.807 4.65625 108.268 4.9349 107.93 5.49219C 107.591 6.04948 107.417 6.90625 107.406 8.0625L 107.406 10.375C 107.406 11.6042 107.583 12.513 107.938 13.1016C 108.297 13.6849 108.839 13.9766 109.562 13.9766C 110.276 13.9766 110.805 13.7005 111.148 13.1484C 111.497 12.5964 111.68 11.7266 111.695 10.5391L 111.695 8.17188ZM 122.125 10.1484C 122.125 11.8411 121.836 13.099 121.258 13.9219C 120.68 14.7448 119.776 15.1562 118.547 15.1562C 117.333 15.1562 116.435 14.7552 115.852 13.9531C 115.268 13.1458 114.966 11.9427 114.945 10.3438L 114.945 8.41406C 114.945 6.74219 115.234 5.5 115.812 4.6875C 116.391 3.875 117.297 3.46875 118.531 3.46875C 119.755 3.46875 120.656 3.86198 121.234 4.64844C 121.812 5.42969 122.109 6.63802 122.125 8.27344L 122.125 10.1484ZM 120.68 8.17188C 120.68 6.94792 120.508 6.05729 120.164 5.5C 119.82 4.9375 119.276 4.65625 118.531 4.65625C 117.792 4.65625 117.253 4.9349 116.914 5.49219C 116.576 6.04948 116.401 6.90625 116.391 8.0625L 116.391 10.375C 116.391 11.6042 116.568 12.513 116.922 13.1016C 117.281 13.6849 117.823 13.9766 118.547 13.9766C 119.26 13.9766 119.789 13.7005 120.133 13.1484C 120.482 12.5964 120.664 11.7266 120.68 10.5391L 120.68 8.17188ZM 124.414 15.9766L 123.172 15.9766L 127.922 3.625L 129.156 3.625L 124.414 15.9766ZM 132.672 8.60938L 133.758 8.60938C 134.44 8.59896 134.977 8.41927 135.367 8.07031C 135.758 7.72135 135.953 7.25 135.953 6.65625C 135.953 5.32292 135.289 4.65625 133.961 4.65625C 133.336 4.65625 132.836 4.83594 132.461 5.19531C 132.091 5.54948 131.906 6.02083 131.906 6.60938L 130.461 6.60938C 130.461 5.70833 130.789 4.96094 131.445 4.36719C 132.107 3.76823 132.945 3.46875 133.961 3.46875C 135.034 3.46875 135.875 3.7526 136.484 4.32031C 137.094 4.88802 137.398 5.67708 137.398 6.6875C 137.398 7.18229 137.237 7.66146 136.914 8.125C 136.596 8.58854 136.161 8.9349 135.609 9.16406C 136.234 9.36198 136.716 9.6901 137.055 10.1484C 137.398 10.6068 137.57 11.1667 137.57 11.8281C 137.57 12.849 137.237 13.6589 136.57 14.2578C 135.904 14.8568 135.036 15.1562 133.969 15.1562C 132.901 15.1562 132.031 14.8672 131.359 14.2891C 130.693 13.7109 130.359 12.9479 130.359 12L 131.812 12C 131.812 12.599 132.008 13.0781 132.398 13.4375C 132.789 13.7969 133.312 13.9766 133.969 13.9766C 134.667 13.9766 135.201 13.7943 135.57 13.4297C 135.94 13.0651 136.125 12.5417 136.125 11.8594C 136.125 11.1979 135.922 10.6901 135.516 10.3359C 135.109 9.98177 134.523 9.79948 133.758 9.78906L 132.672 9.78906L 132.672 8.60938ZM 146.688 10.1484C 146.688 11.8411 146.398 13.099 145.82 13.9219C 145.242 14.7448 144.339 15.1562 143.109 15.1562C 141.896 15.1562 140.997 14.7552 140.414 13.9531C 139.831 13.1458 139.529 11.9427 139.508 10.3438L 139.508 8.41406C 139.508 6.74219 139.797 5.5 140.375 4.6875C 140.953 3.875 141.859 3.46875 143.094 3.46875C 144.318 3.46875 145.219 3.86198 145.797 4.64844C 146.375 5.42969 146.672 6.63802 146.688 8.27344L 146.688 10.1484ZM 145.242 8.17188C 145.242 6.94792 145.07 6.05729 144.727 5.5C 144.383 4.9375 143.839 4.65625 143.094 4.65625C 142.354 4.65625 141.815 4.9349 141.477 5.49219C 141.138 6.04948 140.964 6.90625 140.953 8.0625L 140.953 10.375C 140.953 11.6042 141.13 12.513 141.484 13.1016C 141.844 13.6849 142.385 13.9766 143.109 13.9766C 143.823 13.9766 144.352 13.7005 144.695 13.1484C 145.044 12.5964 145.227 11.7266 145.242 10.5391L 145.242 8.17188ZM 1.60938 28.2969L 2.1875 22.625L 8.01562 22.625L 8.01562 23.9609L 3.41406 23.9609L 3.07031 27.0625C 3.6276 26.7344 4.26042 26.5703 4.96875 26.5703C 6.00521 26.5703 6.82812 26.9141 7.4375 27.6016C 8.04688 28.2839 8.35156 29.2083 8.35156 30.375C 8.35156 31.5469 8.03385 32.4714 7.39844 33.1484C 6.76823 33.8203 5.88542 34.1562 4.75 34.1562C 3.74479 34.1562 2.92448 33.8776 2.28906 33.3203C 1.65365 32.763 1.29167 31.9922 1.20312 31.0078L 2.57031 31.0078C 2.65885 31.6589 2.89062 32.151 3.26562 32.4844C 3.64062 32.8125 4.13542 32.9766 4.75 32.9766C 5.42188 32.9766 5.94792 32.7474 6.32812 32.2891C 6.71354 31.8307 6.90625 31.1979 6.90625 30.3906C 6.90625 29.6302 6.69792 29.0208 6.28125 28.5625C 5.86979 28.099 5.32031 27.8672 4.63281 27.8672C 4.0026 27.8672 3.50781 28.0052 3.14844 28.2812L 2.76562 28.5938L 1.60938 28.2969ZM 17.0625 29.1484C 17.0625 30.8411 16.7734 32.099 16.1953 32.9219C 15.6172 33.7448 14.7135 34.1562 13.4844 34.1562C 12.2708 34.1562 11.3724 33.7552 10.7891 32.9531C 10.2057 32.1458 9.90365 30.9427 9.88281 29.3438L 9.88281 27.4141C 9.88281 25.7422 10.1719 24.5 10.75 23.6875C 11.3281 22.875 12.2344 22.4688 13.4688 22.4688C 14.6927 22.4688 15.5938 22.862 16.1719 23.6484C 16.75 24.4297 17.0469 25.638 17.0625 27.2734L 17.0625 29.1484ZM 15.6172 27.1719C 15.6172 25.9479 15.4453 25.0573 15.1016 24.5C 14.7578 23.9375 14.2135 23.6562 13.4688 23.6562C 12.7292 23.6562 12.1901 23.9349 11.8516 24.4922C 11.513 25.0495 11.3385 25.9062 11.3281 27.0625L 11.3281 29.375C 11.3281 30.6042 11.5052 31.513 11.8594 32.1016C 12.2188 32.6849 12.7604 32.9766 13.4844 32.9766C 14.1979 32.9766 14.7266 32.7005 15.0703 32.1484C 15.4193 31.5964 15.6016 30.7266 15.6172 29.5391L 15.6172 27.1719ZM 33.9766 29.7578L 30.1641 29.7578L 30.1641 28.5781L 33.9766 28.5781L 33.9766 29.7578ZM 39.9922 34L 38.5391 34L 38.5391 24.3672L 35.625 25.4375L 35.625 24.125L 39.7656 22.5703L 39.9922 22.5703L 39.9922 34ZM 87.0703 29.7578L 83.2578 29.7578L 83.2578 28.5781L 87.0703 28.5781L 87.0703 29.7578ZM 97.0547 34L 95.6016 34L 95.6016 24.3672L 92.6875 25.4375L 92.6875 24.125L 96.8281 22.5703L 97.0547 22.5703L 97.0547 34ZM 108.422 29.1484C 108.422 30.8411 108.133 32.099 107.555 32.9219C 106.977 33.7448 106.073 34.1562 104.844 34.1562C 103.63 34.1562 102.732 33.7552 102.148 32.9531C 101.565 32.1458 101.263 30.9427 101.242 29.3438L 101.242 27.4141C 101.242 25.7422 101.531 24.5 102.109 23.6875C 102.688 22.875 103.594 22.4688 104.828 22.4688C 106.052 22.4688 106.953 22.862 107.531 23.6484C 108.109 24.4297 108.406 25.638 108.422 27.2734L 108.422 29.1484ZM 106.977 27.1719C 106.977 25.9479 106.805 25.0573 106.461 24.5C 106.117 23.9375 105.573 23.6562 104.828 23.6562C 104.089 23.6562 103.549 23.9349 103.211 24.4922C 102.872 25.0495 102.698 25.9062 102.688 27.0625L 102.688 29.375C 102.688 30.6042 102.865 31.513 103.219 32.1016C 103.578 32.6849 104.12 32.9766 104.844 32.9766C 105.557 32.9766 106.086 32.7005 106.43 32.1484C 106.779 31.5964 106.961 30.7266 106.977 29.5391L 106.977 27.1719ZM 117.406 29.1484C 117.406 30.8411 117.117 32.099 116.539 32.9219C 115.961 33.7448 115.057 34.1562 113.828 34.1562C 112.615 34.1562 111.716 33.7552 111.133 32.9531C 110.549 32.1458 110.247 30.9427 110.227 29.3438L 110.227 27.4141C 110.227 25.7422 110.516 24.5 111.094 23.6875C 111.672 22.875 112.578 22.4688 113.812 22.4688C 115.036 22.4688 115.938 22.862 116.516 23.6484C 117.094 24.4297 117.391 25.638 117.406 27.2734L 117.406 29.1484ZM 115.961 27.1719C 115.961 25.9479 115.789 25.0573 115.445 24.5C 115.102 23.9375 114.557 23.6562 113.812 23.6562C 113.073 23.6562 112.534 23.9349 112.195 24.4922C 111.857 25.0495 111.682 25.9062 111.672 27.0625L 111.672 29.375C 111.672 30.6042 111.849 31.513 112.203 32.1016C 112.562 32.6849 113.104 32.9766 113.828 32.9766C 114.542 32.9766 115.07 32.7005 115.414 32.1484C 115.763 31.5964 115.945 30.7266 115.961 29.5391L 115.961 27.1719Z"/>
<path id="path5_stroke" d="M 17.3536 0.353553C 17.5488 0.158291 17.5488 -0.158291 17.3536 -0.353553L 14.1716 -3.53553C 13.9763 -3.7308 13.6597 -3.7308 13.4645 -3.53553C 13.2692 -3.34027 13.2692 -3.02369 13.4645 -2.82843L 16.2929 0L 13.4645 2.82843C 13.2692 3.02369 13.2692 3.34027 13.4645 3.53553C 13.6597 3.7308 13.9763 3.7308 14.1716 3.53553L 17.3536 0.353553ZM 0 0.5L 17 0.5L 17 -0.5L 0 -0.5L 0 0.5Z"/>
<path id="path6_fill" d="M 5.53906 10.3984L 2.86719 10.3984L 2.86719 15L 1.35938 15L 1.35938 3.625L 5.125 3.625C 6.40625 3.625 7.39062 3.91667 8.07812 4.5C 8.77083 5.08333 9.11719 5.93229 9.11719 7.04688C 9.11719 7.75521 8.92448 8.3724 8.53906 8.89844C 8.15885 9.42448 7.6276 9.81771 6.94531 10.0781L 9.61719 14.9062L 9.61719 15L 8.00781 15L 5.53906 10.3984ZM 2.86719 9.17188L 5.17188 9.17188C 5.91667 9.17188 6.50781 8.97917 6.94531 8.59375C 7.38802 8.20833 7.60938 7.69271 7.60938 7.04688C 7.60938 6.34375 7.39844 5.80469 6.97656 5.42969C 6.5599 5.05469 5.95573 4.86458 5.16406 4.85938L 2.86719 4.85938L 2.86719 9.17188ZM 15.6016 15L 14.1484 15L 14.1484 5.36719L 11.2344 6.4375L 11.2344 5.125L 15.375 3.57031L 15.6016 3.57031L 15.6016 15ZM 30.5625 8.64062L 24.0469 8.64062L 24.0469 7.38281L 30.5625 7.38281L 30.5625 8.64062ZM 30.5625 11.8828L 24.0469 11.8828L 24.0469 10.6328L 30.5625 10.6328L 30.5625 11.8828ZM 41.1016 10.3984L 38.4297 10.3984L 38.4297 15L 36.9219 15L 36.9219 3.625L 40.6875 3.625C 41.9688 3.625 42.9531 3.91667 43.6406 4.5C 44.3333 5.08333 44.6797 5.93229 44.6797 7.04688C 44.6797 7.75521 44.487 8.3724 44.1016 8.89844C 43.7214 9.42448 43.1901 9.81771 42.5078 10.0781L 45.1797 14.9062L 45.1797 15L 43.5703 15L 41.1016 10.3984ZM 38.4297 9.17188L 40.7344 9.17188C 41.4792 9.17188 42.0703 8.97917 42.5078 8.59375C 42.9505 8.20833 43.1719 7.69271 43.1719 7.04688C 43.1719 6.34375 42.9609 5.80469 42.5391 5.42969C 42.1224 5.05469 41.5182 4.86458 40.7266 4.85938L 38.4297 4.85938L 38.4297 9.17188ZM 51.1641 15L 49.7109 15L 49.7109 5.36719L 46.7969 6.4375L 46.7969 5.125L 50.9375 3.57031L 51.1641 3.57031L 51.1641 15ZM 59.8047 15.9766L 58.5625 15.9766L 63.3125 3.625L 64.5469 3.625L 59.8047 15.9766ZM 72.0312 8.60938L 73.1172 8.60938C 73.7995 8.59896 74.3359 8.41927 74.7266 8.07031C 75.1172 7.72135 75.3125 7.25 75.3125 6.65625C 75.3125 5.32292 74.6484 4.65625 73.3203 4.65625C 72.6953 4.65625 72.1953 4.83594 71.8203 5.19531C 71.4505 5.54948 71.2656 6.02083 71.2656 6.60938L 69.8203 6.60938C 69.8203 5.70833 70.1484 4.96094 70.8047 4.36719C 71.4661 3.76823 72.3047 3.46875 73.3203 3.46875C 74.3932 3.46875 75.2344 3.7526 75.8438 4.32031C 76.4531 4.88802 76.7578 5.67708 76.7578 6.6875C 76.7578 7.18229 76.5964 7.66146 76.2734 8.125C 75.9557 8.58854 75.5208 8.9349 74.9688 9.16406C 75.5938 9.36198 76.0755 9.6901 76.4141 10.1484C 76.7578 10.6068 76.9297 11.1667 76.9297 11.8281C 76.9297 12.849 76.5964 13.6589 75.9297 14.2578C 75.263 14.8568 74.3958 15.1562 73.3281 15.1562C 72.2604 15.1562 71.3906 14.8672 70.7188 14.2891C 70.0521 13.7109 69.7188 12.9479 69.7188 12L 71.1719 12C 71.1719 12.599 71.3672 13.0781 71.7578 13.4375C 72.1484 13.7969 72.6719 13.9766 73.3281 13.9766C 74.026 13.9766 74.5599 13.7943 74.9297 13.4297C 75.2995 13.0651 75.4844 12.5417 75.4844 11.8594C 75.4844 11.1979 75.2812 10.6901 74.875 10.3359C 74.4688 9.98177 73.8828 9.79948 73.1172 9.78906L 72.0312 9.78906L 72.0312 8.60938ZM 86.0469 10.1484C 86.0469 11.8411 85.7578 13.099 85.1797 13.9219C 84.6016 14.7448 83.6979 15.1562 82.4688 15.1562C 81.2552 15.1562 80.3568 14.7552 79.7734 13.9531C 79.1901 13.1458 78.888 11.9427 78.8672 10.3438L 78.8672 8.41406C 78.8672 6.74219 79.1562 5.5 79.7344 4.6875C 80.3125 3.875 81.2188 3.46875 82.4531 3.46875C 83.6771 3.46875 84.5781 3.86198 85.1562 4.64844C 85.7344 5.42969 86.0312 6.63802 86.0469 8.27344L 86.0469 10.1484ZM 84.6016 8.17188C 84.6016 6.94792 84.4297 6.05729 84.0859 5.5C 83.7422 4.9375 83.1979 4.65625 82.4531 4.65625C 81.7135 4.65625 81.1745 4.9349 80.8359 5.49219C 80.4974 6.04948 80.3229 6.90625 80.3125 8.0625L 80.3125 10.375C 80.3125 11.6042 80.4896 12.513 80.8438 13.1016C 81.2031 13.6849 81.7448 13.9766 82.4688 13.9766C 83.1823 13.9766 83.7109 13.7005 84.0547 13.1484C 84.4036 12.5964 84.5859 11.7266 84.6016 10.5391L 84.6016 8.17188Z"/>
</defs>
</svg>

