<svg width="548" height="44" viewBox="0 0 548 44" version="1.1" xmlns="http://www.w3.org/2000/svg" xmlns:xlink="http://www.w3.org/1999/xlink">
<title>Group</title>
<desc>Created using Figma</desc>
<g id="Canvas" transform="translate(272 -430)">
<g id="Group">
<g id="1 -1/30 -1000/30 0 20/30 47000/30">
<use xlink:href="#path0_fill" transform="translate(110 433)" fill="#333333"/>
</g>
<g id="R2 = R2 - (R1 * 50)">
<use xlink:href="#path1_fill" transform="translate(-70 441)"/>
</g>
<g id="1 -1/30 -1000/30 50 -1 - 100">
<use xlink:href="#path2_fill" transform="translate(-263 434)" fill="#333333"/>
</g>
<g id="Component">
<g id="Component">
<g id="Line 2">
<use xlink:href="#path3_stroke" transform="matrix(6.12323e-17 1 -1 6.12323e-17 -272 432)" fill="#333333"/>
</g>
<g id="Line 3">
<use xlink:href="#path4_stroke" transform="translate(-272 432)" fill="#333333"/>
</g>
</g>
<g id="Line 3">
<use xlink:href="#path4_stroke" transform="translate(-272 474)" fill="#333333"/>
</g>
</g>
<g id="Line">
<use xlink:href="#path3_stroke" transform="matrix(6.12323e-17 1 -1 6.12323e-17 -189 430)" fill="#333333"/>
</g>
<g id="Component">
</g>
<g id="Arrow 4">
<use xlink:href="#path5_stroke" transform="translate(-95 449)" fill="#333333"/>
</g>
<g id="Arrow 4">
<use xlink:href="#path5_stroke" transform="translate(69 449)" fill="#333333"/>
</g>
<g id="Component">
<g id="Line 2">
<use xlink:href="#path3_stroke" transform="matrix(-1.83697e-16 -1 1 -1.83697e-16 -105 472)" fill="#333333"/>
</g>
<g id="Line 3">
<use xlink:href="#path4_stroke" transform="matrix(-1 1.22465e-16 -1.22465e-16 -1 -105 472)" fill="#333333"/>
</g>
</g>
<g id="Line 3">
<use xlink:href="#path4_stroke" transform="matrix(-1 1.22465e-16 -1.22465e-16 -1 -105 430)" fill="#333333"/>
</g>
<g id="Component">
<g id="Line 2">
<use xlink:href="#path3_stroke" transform="matrix(6.12323e-17 1 -1 6.12323e-17 98 432)" fill="#333333"/>
</g>
<g id="Line 3">
<use xlink:href="#path4_stroke" transform="translate(98 432)" fill="#333333"/>
</g>
</g>
<g id="Component">
<g id="Line 2">
<use xlink:href="#path3_stroke" transform="matrix(-1.83697e-16 -1 1 -1.83697e-16 276 472)" fill="#333333"/>
</g>
<g id="Line 3">
<use xlink:href="#path4_stroke" transform="matrix(-1 1.22465e-16 -1.22465e-16 -1 276 472)" fill="#333333"/>
</g>
</g>
<g id="Line 3">
<use xlink:href="#path4_stroke" transform="matrix(-1 1.22465e-16 -1.22465e-16 -1 275 430)" fill="#333333"/>
</g>
<g id="Line">
<use xlink:href="#path6_stroke" transform="matrix(6.12323e-17 1 -1 6.12323e-17 189 433)" fill="#333333"/>
</g>
<g id="Line 3">
<use xlink:href="#path4_stroke" transform="translate(98 474)" fill="#333333"/>
</g>
</g>
</g>
<defs>
<path id="path0_fill" d="M 5.69531 15L 4.24219 15L 4.24219 5.36719L 1.32812 6.4375L 1.32812 5.125L 5.46875 3.57031L 5.69531 3.57031L 5.69531 15ZM 32.9297 10.7578L 29.1172 10.7578L 29.1172 9.57812L 32.9297 9.57812L 32.9297 10.7578ZM 38.9453 15L 37.4922 15L 37.4922 5.36719L 34.5781 6.4375L 34.5781 5.125L 38.7188 3.57031L 38.9453 3.57031L 38.9453 15ZM 43.6172 15.9766L 42.375 15.9766L 47.125 3.625L 48.3594 3.625L 43.6172 15.9766ZM 51.875 8.60938L 52.9609 8.60938C 53.6432 8.59896 54.1797 8.41927 54.5703 8.07031C 54.9609 7.72135 55.1562 7.25 55.1562 6.65625C 55.1562 5.32292 54.4922 4.65625 53.1641 4.65625C 52.5391 4.65625 52.0391 4.83594 51.6641 5.19531C 51.2943 5.54948 51.1094 6.02083 51.1094 6.60938L 49.6641 6.60938C 49.6641 5.70833 49.9922 4.96094 50.6484 4.36719C 51.3099 3.76823 52.1484 3.46875 53.1641 3.46875C 54.237 3.46875 55.0781 3.7526 55.6875 4.32031C 56.2969 4.88802 56.6016 5.67708 56.6016 6.6875C 56.6016 7.18229 56.4401 7.66146 56.1172 8.125C 55.7995 8.58854 55.3646 8.9349 54.8125 9.16406C 55.4375 9.36198 55.9193 9.6901 56.2578 10.1484C 56.6016 10.6068 56.7734 11.1667 56.7734 11.8281C 56.7734 12.849 56.4401 13.6589 55.7734 14.2578C 55.1068 14.8568 54.2396 15.1562 53.1719 15.1562C 52.1042 15.1562 51.2344 14.8672 50.5625 14.2891C 49.8958 13.7109 49.5625 12.9479 49.5625 12L 51.0156 12C 51.0156 12.599 51.2109 13.0781 51.6016 13.4375C 51.9922 13.7969 52.5156 13.9766 53.1719 13.9766C 53.8698 13.9766 54.4036 13.7943 54.7734 13.4297C 55.1432 13.0651 55.3281 12.5417 55.3281 11.8594C 55.3281 11.1979 55.125 10.6901 54.7188 10.3359C 54.3125 9.98177 53.7266 9.79948 52.9609 9.78906L 51.875 9.78906L 51.875 8.60938ZM 65.8906 10.1484C 65.8906 11.8411 65.6016 13.099 65.0234 13.9219C 64.4453 14.7448 63.5417 15.1562 62.3125 15.1562C 61.099 15.1562 60.2005 14.7552 59.6172 13.9531C 59.0339 13.1458 58.7318 11.9427 58.7109 10.3438L 58.7109 8.41406C 58.7109 6.74219 59 5.5 59.5781 4.6875C 60.1562 3.875 61.0625 3.46875 62.2969 3.46875C 63.5208 3.46875 64.4219 3.86198 65 4.64844C 65.5781 5.42969 65.875 6.63802 65.8906 8.27344L 65.8906 10.1484ZM 64.4453 8.17188C 64.4453 6.94792 64.2734 6.05729 63.9297 5.5C 63.5859 4.9375 63.0417 4.65625 62.2969 4.65625C 61.5573 4.65625 61.0182 4.9349 60.6797 5.49219C 60.3411 6.04948 60.1667 6.90625 60.1562 8.0625L 60.1562 10.375C 60.1562 11.6042 60.3333 12.513 60.6875 13.1016C 61.0469 13.6849 61.5885 13.9766 62.3125 13.9766C 63.026 13.9766 63.5547 13.7005 63.8984 13.1484C 64.2474 12.5964 64.4297 11.7266 64.4453 10.5391L 64.4453 8.17188ZM 94.7109 10.7578L 90.8984 10.7578L 90.8984 9.57812L 94.7109 9.57812L 94.7109 10.7578ZM 100.727 15L 99.2734 15L 99.2734 5.36719L 96.3594 6.4375L 96.3594 5.125L 100.5 3.57031L 100.727 3.57031L 100.727 15ZM 112.094 10.1484C 112.094 11.8411 111.805 13.099 111.227 13.9219C 110.648 14.7448 109.745 15.1562 108.516 15.1562C 107.302 15.1562 106.404 14.7552 105.82 13.9531C 105.237 13.1458 104.935 11.9427 104.914 10.3438L 104.914 8.41406C 104.914 6.74219 105.203 5.5 105.781 4.6875C 106.359 3.875 107.266 3.46875 108.5 3.46875C 109.724 3.46875 110.625 3.86198 111.203 4.64844C 111.781 5.42969 112.078 6.63802 112.094 8.27344L 112.094 10.1484ZM 110.648 8.17188C 110.648 6.94792 110.477 6.05729 110.133 5.5C 109.789 4.9375 109.245 4.65625 108.5 4.65625C 107.76 4.65625 107.221 4.9349 106.883 5.49219C 106.544 6.04948 106.37 6.90625 106.359 8.0625L 106.359 10.375C 106.359 11.6042 106.536 12.513 106.891 13.1016C 107.25 13.6849 107.792 13.9766 108.516 13.9766C 109.229 13.9766 109.758 13.7005 110.102 13.1484C 110.451 12.5964 110.633 11.7266 110.648 10.5391L 110.648 8.17188ZM 121.078 10.1484C 121.078 11.8411 120.789 13.099 120.211 13.9219C 119.633 14.7448 118.729 15.1562 117.5 15.1562C 116.286 15.1562 115.388 14.7552 114.805 13.9531C 114.221 13.1458 113.919 11.9427 113.898 10.3438L 113.898 8.41406C 113.898 6.74219 114.188 5.5 114.766 4.6875C 115.344 3.875 116.25 3.46875 117.484 3.46875C 118.708 3.46875 119.609 3.86198 120.188 4.64844C 120.766 5.42969 121.062 6.63802 121.078 8.27344L 121.078 10.1484ZM 119.633 8.17188C 119.633 6.94792 119.461 6.05729 119.117 5.5C 118.773 4.9375 118.229 4.65625 117.484 4.65625C 116.745 4.65625 116.206 4.9349 115.867 5.49219C 115.529 6.04948 115.354 6.90625 115.344 8.0625L 115.344 10.375C 115.344 11.6042 115.521 12.513 115.875 13.1016C 116.234 13.6849 116.776 13.9766 117.5 13.9766C 118.214 13.9766 118.742 13.7005 119.086 13.1484C 119.435 12.5964 119.617 11.7266 119.633 10.5391L 119.633 8.17188ZM 130.062 10.1484C 130.062 11.8411 129.773 13.099 129.195 13.9219C 128.617 14.7448 127.714 15.1562 126.484 15.1562C 125.271 15.1562 124.372 14.7552 123.789 13.9531C 123.206 13.1458 122.904 11.9427 122.883 10.3438L 122.883 8.41406C 122.883 6.74219 123.172 5.5 123.75 4.6875C 124.328 3.875 125.234 3.46875 126.469 3.46875C 127.693 3.46875 128.594 3.86198 129.172 4.64844C 129.75 5.42969 130.047 6.63802 130.062 8.27344L 130.062 10.1484ZM 128.617 8.17188C 128.617 6.94792 128.445 6.05729 128.102 5.5C 127.758 4.9375 127.214 4.65625 126.469 4.65625C 125.729 4.65625 125.19 4.9349 124.852 5.49219C 124.513 6.04948 124.339 6.90625 124.328 8.0625L 124.328 10.375C 124.328 11.6042 124.505 12.513 124.859 13.1016C 125.219 13.6849 125.76 13.9766 126.484 13.9766C 127.198 13.9766 127.727 13.7005 128.07 13.1484C 128.419 12.5964 128.602 11.7266 128.617 10.5391L 128.617 8.17188ZM 132.352 15.9766L 131.109 15.9766L 135.859 3.625L 137.094 3.625L 132.352 15.9766ZM 140.609 8.60938L 141.695 8.60938C 142.378 8.59896 142.914 8.41927 143.305 8.07031C 143.695 7.72135 143.891 7.25 143.891 6.65625C 143.891 5.32292 143.227 4.65625 141.898 4.65625C 141.273 4.65625 140.773 4.83594 140.398 5.19531C 140.029 5.54948 139.844 6.02083 139.844 6.60938L 138.398 6.60938C 138.398 5.70833 138.727 4.96094 139.383 4.36719C 140.044 3.76823 140.883 3.46875 141.898 3.46875C 142.971 3.46875 143.812 3.7526 144.422 4.32031C 145.031 4.88802 145.336 5.67708 145.336 6.6875C 145.336 7.18229 145.174 7.66146 144.852 8.125C 144.534 8.58854 144.099 8.9349 143.547 9.16406C 144.172 9.36198 144.654 9.6901 144.992 10.1484C 145.336 10.6068 145.508 11.1667 145.508 11.8281C 145.508 12.849 145.174 13.6589 144.508 14.2578C 143.841 14.8568 142.974 15.1562 141.906 15.1562C 140.839 15.1562 139.969 14.8672 139.297 14.2891C 138.63 13.7109 138.297 12.9479 138.297 12L 139.75 12C 139.75 12.599 139.945 13.0781 140.336 13.4375C 140.727 13.7969 141.25 13.9766 141.906 13.9766C 142.604 13.9766 143.138 13.7943 143.508 13.4297C 143.878 13.0651 144.062 12.5417 144.062 11.8594C 144.062 11.1979 143.859 10.6901 143.453 10.3359C 143.047 9.98177 142.461 9.79948 141.695 9.78906L 140.609 9.78906L 140.609 8.60938ZM 154.625 10.1484C 154.625 11.8411 154.336 13.099 153.758 13.9219C 153.18 14.7448 152.276 15.1562 151.047 15.1562C 149.833 15.1562 148.935 14.7552 148.352 13.9531C 147.768 13.1458 147.466 11.9427 147.445 10.3438L 147.445 8.41406C 147.445 6.74219 147.734 5.5 148.312 4.6875C 148.891 3.875 149.797 3.46875 151.031 3.46875C 152.255 3.46875 153.156 3.86198 153.734 4.64844C 154.312 5.42969 154.609 6.63802 154.625 8.27344L 154.625 10.1484ZM 153.18 8.17188C 153.18 6.94792 153.008 6.05729 152.664 5.5C 152.32 4.9375 151.776 4.65625 151.031 4.65625C 150.292 4.65625 149.753 4.9349 149.414 5.49219C 149.076 6.04948 148.901 6.90625 148.891 8.0625L 148.891 10.375C 148.891 11.6042 149.068 12.513 149.422 13.1016C 149.781 13.6849 150.323 13.9766 151.047 13.9766C 151.76 13.9766 152.289 13.7005 152.633 13.1484C 152.982 12.5964 153.164 11.7266 153.18 10.5391L 153.18 8.17188ZM 8.07812 29.1484C 8.07812 30.8411 7.78906 32.099 7.21094 32.9219C 6.63281 33.7448 5.72917 34.1562 4.5 34.1562C 3.28646 34.1562 2.38802 33.7552 1.80469 32.9531C 1.22135 32.1458 0.919271 30.9427 0.898438 29.3438L 0.898438 27.4141C 0.898438 25.7422 1.1875 24.5 1.76562 23.6875C 2.34375 22.875 3.25 22.4688 4.48438 22.4688C 5.70833 22.4688 6.60938 22.862 7.1875 23.6484C 7.76562 24.4297 8.0625 25.638 8.07812 27.2734L 8.07812 29.1484ZM 6.63281 27.1719C 6.63281 25.9479 6.46094 25.0573 6.11719 24.5C 5.77344 23.9375 5.22917 23.6562 4.48438 23.6562C 3.74479 23.6562 3.20573 23.9349 2.86719 24.4922C 2.52865 25.0495 2.35417 25.9062 2.34375 27.0625L 2.34375 29.375C 2.34375 30.6042 2.52083 31.513 2.875 32.1016C 3.23438 32.6849 3.77604 32.9766 4.5 32.9766C 5.21354 32.9766 5.74219 32.7005 6.08594 32.1484C 6.4349 31.5964 6.61719 30.7266 6.63281 29.5391L 6.63281 27.1719ZM 33.2578 34L 25.8047 34L 25.8047 32.9609L 29.7422 28.5859C 30.3255 27.9245 30.7266 27.388 30.9453 26.9766C 31.1693 26.5599 31.2812 26.1302 31.2812 25.6875C 31.2812 25.0938 31.1016 24.6068 30.7422 24.2266C 30.3828 23.8464 29.9036 23.6562 29.3047 23.6562C 28.5859 23.6562 28.026 23.862 27.625 24.2734C 27.2292 24.6797 27.0312 25.2474 27.0312 25.9766L 25.5859 25.9766C 25.5859 24.9297 25.9219 24.0833 26.5938 23.4375C 27.2708 22.7917 28.1745 22.4688 29.3047 22.4688C 30.362 22.4688 31.1979 22.7474 31.8125 23.3047C 32.4271 23.8568 32.7344 24.5938 32.7344 25.5156C 32.7344 26.6354 32.0208 27.9688 30.5938 29.5156L 27.5469 32.8203L 33.2578 32.8203L 33.2578 34ZM 41.9219 29.1484C 41.9219 30.8411 41.6328 32.099 41.0547 32.9219C 40.4766 33.7448 39.5729 34.1562 38.3438 34.1562C 37.1302 34.1562 36.2318 33.7552 35.6484 32.9531C 35.0651 32.1458 34.763 30.9427 34.7422 29.3438L 34.7422 27.4141C 34.7422 25.7422 35.0312 24.5 35.6094 23.6875C 36.1875 22.875 37.0938 22.4688 38.3281 22.4688C 39.5521 22.4688 40.4531 22.862 41.0312 23.6484C 41.6094 24.4297 41.9062 25.638 41.9219 27.2734L 41.9219 29.1484ZM 40.4766 27.1719C 40.4766 25.9479 40.3047 25.0573 39.9609 24.5C 39.6172 23.9375 39.0729 23.6562 38.3281 23.6562C 37.5885 23.6562 37.0495 23.9349 36.7109 24.4922C 36.3724 25.0495 36.1979 25.9062 36.1875 27.0625L 36.1875 29.375C 36.1875 30.6042 36.3646 31.513 36.7188 32.1016C 37.0781 32.6849 37.6198 32.9766 38.3438 32.9766C 39.0573 32.9766 39.5859 32.7005 39.9297 32.1484C 40.2786 31.5964 40.4609 30.7266 40.4766 29.5391L 40.4766 27.1719ZM 44.2109 34.9766L 42.9688 34.9766L 47.7188 22.625L 48.9531 22.625L 44.2109 34.9766ZM 52.4688 27.6094L 53.5547 27.6094C 54.237 27.599 54.7734 27.4193 55.1641 27.0703C 55.5547 26.7214 55.75 26.25 55.75 25.6562C 55.75 24.3229 55.0859 23.6562 53.7578 23.6562C 53.1328 23.6562 52.6328 23.8359 52.2578 24.1953C 51.888 24.5495 51.7031 25.0208 51.7031 25.6094L 50.2578 25.6094C 50.2578 24.7083 50.5859 23.9609 51.2422 23.3672C 51.9036 22.7682 52.7422 22.4688 53.7578 22.4688C 54.8307 22.4688 55.6719 22.7526 56.2812 23.3203C 56.8906 23.888 57.1953 24.6771 57.1953 25.6875C 57.1953 26.1823 57.0339 26.6615 56.7109 27.125C 56.3932 27.5885 55.9583 27.9349 55.4062 28.1641C 56.0312 28.362 56.513 28.6901 56.8516 29.1484C 57.1953 29.6068 57.3672 30.1667 57.3672 30.8281C 57.3672 31.849 57.0339 32.6589 56.3672 33.2578C 55.7005 33.8568 54.8333 34.1562 53.7656 34.1562C 52.6979 34.1562 51.8281 33.8672 51.1562 33.2891C 50.4896 32.7109 50.1562 31.9479 50.1562 31L 51.6094 31C 51.6094 31.599 51.8047 32.0781 52.1953 32.4375C 52.5859 32.7969 53.1094 32.9766 53.7656 32.9766C 54.4635 32.9766 54.9974 32.7943 55.3672 32.4297C 55.737 32.0651 55.9219 31.5417 55.9219 30.8594C 55.9219 30.1979 55.7188 29.6901 55.3125 29.3359C 54.9062 28.9818 54.3203 28.7995 53.5547 28.7891L 52.4688 28.7891L 52.4688 27.6094ZM 66.4844 29.1484C 66.4844 30.8411 66.1953 32.099 65.6172 32.9219C 65.0391 33.7448 64.1354 34.1562 62.9062 34.1562C 61.6927 34.1562 60.7943 33.7552 60.2109 32.9531C 59.6276 32.1458 59.3255 30.9427 59.3047 29.3438L 59.3047 27.4141C 59.3047 25.7422 59.5938 24.5 60.1719 23.6875C 60.75 22.875 61.6562 22.4688 62.8906 22.4688C 64.1146 22.4688 65.0156 22.862 65.5938 23.6484C 66.1719 24.4297 66.4688 25.638 66.4844 27.2734L 66.4844 29.1484ZM 65.0391 27.1719C 65.0391 25.9479 64.8672 25.0573 64.5234 24.5C 64.1797 23.9375 63.6354 23.6562 62.8906 23.6562C 62.151 23.6562 61.612 23.9349 61.2734 24.4922C 60.9349 25.0495 60.7604 25.9062 60.75 27.0625L 60.75 29.375C 60.75 30.6042 60.9271 31.513 61.2812 32.1016C 61.6406 32.6849 62.1823 32.9766 62.9062 32.9766C 63.6198 32.9766 64.1484 32.7005 64.4922 32.1484C 64.8411 31.5964 65.0234 30.7266 65.0391 29.5391L 65.0391 27.1719ZM 94.2812 30.1797L 95.8594 30.1797L 95.8594 31.3594L 94.2812 31.3594L 94.2812 34L 92.8281 34L 92.8281 31.3594L 87.6484 31.3594L 87.6484 30.5078L 92.7422 22.625L 94.2812 22.625L 94.2812 30.1797ZM 89.2891 30.1797L 92.8281 30.1797L 92.8281 24.6016L 92.6562 24.9141L 89.2891 30.1797ZM 104.508 23.4375L 99.7969 34L 98.2812 34L 102.977 23.8125L 96.8203 23.8125L 96.8203 22.625L 104.508 22.625L 104.508 23.4375ZM 113.281 29.1484C 113.281 30.8411 112.992 32.099 112.414 32.9219C 111.836 33.7448 110.932 34.1562 109.703 34.1562C 108.49 34.1562 107.591 33.7552 107.008 32.9531C 106.424 32.1458 106.122 30.9427 106.102 29.3438L 106.102 27.4141C 106.102 25.7422 106.391 24.5 106.969 23.6875C 107.547 22.875 108.453 22.4688 109.688 22.4688C 110.911 22.4688 111.812 22.862 112.391 23.6484C 112.969 24.4297 113.266 25.638 113.281 27.2734L 113.281 29.1484ZM 111.836 27.1719C 111.836 25.9479 111.664 25.0573 111.32 24.5C 110.977 23.9375 110.432 23.6562 109.688 23.6562C 108.948 23.6562 108.409 23.9349 108.07 24.4922C 107.732 25.0495 107.557 25.9062 107.547 27.0625L 107.547 29.375C 107.547 30.6042 107.724 31.513 108.078 32.1016C 108.438 32.6849 108.979 32.9766 109.703 32.9766C 110.417 32.9766 110.945 32.7005 111.289 32.1484C 111.638 31.5964 111.82 30.7266 111.836 29.5391L 111.836 27.1719ZM 122.266 29.1484C 122.266 30.8411 121.977 32.099 121.398 32.9219C 120.82 33.7448 119.917 34.1562 118.688 34.1562C 117.474 34.1562 116.576 33.7552 115.992 32.9531C 115.409 32.1458 115.107 30.9427 115.086 29.3438L 115.086 27.4141C 115.086 25.7422 115.375 24.5 115.953 23.6875C 116.531 22.875 117.438 22.4688 118.672 22.4688C 119.896 22.4688 120.797 22.862 121.375 23.6484C 121.953 24.4297 122.25 25.638 122.266 27.2734L 122.266 29.1484ZM 120.82 27.1719C 120.82 25.9479 120.648 25.0573 120.305 24.5C 119.961 23.9375 119.417 23.6562 118.672 23.6562C 117.932 23.6562 117.393 23.9349 117.055 24.4922C 116.716 25.0495 116.542 25.9062 116.531 27.0625L 116.531 29.375C 116.531 30.6042 116.708 31.513 117.062 32.1016C 117.422 32.6849 117.964 32.9766 118.688 32.9766C 119.401 32.9766 119.93 32.7005 120.273 32.1484C 120.622 31.5964 120.805 30.7266 120.82 29.5391L 120.82 27.1719ZM 131.25 29.1484C 131.25 30.8411 130.961 32.099 130.383 32.9219C 129.805 33.7448 128.901 34.1562 127.672 34.1562C 126.458 34.1562 125.56 33.7552 124.977 32.9531C 124.393 32.1458 124.091 30.9427 124.07 29.3438L 124.07 27.4141C 124.07 25.7422 124.359 24.5 124.938 23.6875C 125.516 22.875 126.422 22.4688 127.656 22.4688C 128.88 22.4688 129.781 22.862 130.359 23.6484C 130.938 24.4297 131.234 25.638 131.25 27.2734L 131.25 29.1484ZM 129.805 27.1719C 129.805 25.9479 129.633 25.0573 129.289 24.5C 128.945 23.9375 128.401 23.6562 127.656 23.6562C 126.917 23.6562 126.378 23.9349 126.039 24.4922C 125.701 25.0495 125.526 25.9062 125.516 27.0625L 125.516 29.375C 125.516 30.6042 125.693 31.513 126.047 32.1016C 126.406 32.6849 126.948 32.9766 127.672 32.9766C 128.385 32.9766 128.914 32.7005 129.258 32.1484C 129.607 31.5964 129.789 30.7266 129.805 29.5391L 129.805 27.1719ZM 133.539 34.9766L 132.297 34.9766L 137.047 22.625L 138.281 22.625L 133.539 34.9766ZM 141.797 27.6094L 142.883 27.6094C 143.565 27.599 144.102 27.4193 144.492 27.0703C 144.883 26.7214 145.078 26.25 145.078 25.6562C 145.078 24.3229 144.414 23.6562 143.086 23.6562C 142.461 23.6562 141.961 23.8359 141.586 24.1953C 141.216 24.5495 141.031 25.0208 141.031 25.6094L 139.586 25.6094C 139.586 24.7083 139.914 23.9609 140.57 23.3672C 141.232 22.7682 142.07 22.4688 143.086 22.4688C 144.159 22.4688 145 22.7526 145.609 23.3203C 146.219 23.888 146.523 24.6771 146.523 25.6875C 146.523 26.1823 146.362 26.6615 146.039 27.125C 145.721 27.5885 145.286 27.9349 144.734 28.1641C 145.359 28.362 145.841 28.6901 146.18 29.1484C 146.523 29.6068 146.695 30.1667 146.695 30.8281C 146.695 31.849 146.362 32.6589 145.695 33.2578C 145.029 33.8568 144.161 34.1562 143.094 34.1562C 142.026 34.1562 141.156 33.8672 140.484 33.2891C 139.818 32.7109 139.484 31.9479 139.484 31L 140.938 31C 140.938 31.599 141.133 32.0781 141.523 32.4375C 141.914 32.7969 142.438 32.9766 143.094 32.9766C 143.792 32.9766 144.326 32.7943 144.695 32.4297C 145.065 32.0651 145.25 31.5417 145.25 30.8594C 145.25 30.1979 145.047 29.6901 144.641 29.3359C 144.234 28.9818 143.648 28.7995 142.883 28.7891L 141.797 28.7891L 141.797 27.6094ZM 155.812 29.1484C 155.812 30.8411 155.523 32.099 154.945 32.9219C 154.367 33.7448 153.464 34.1562 152.234 34.1562C 151.021 34.1562 150.122 33.7552 149.539 32.9531C 148.956 32.1458 148.654 30.9427 148.633 29.3438L 148.633 27.4141C 148.633 25.7422 148.922 24.5 149.5 23.6875C 150.078 22.875 150.984 22.4688 152.219 22.4688C 153.443 22.4688 154.344 22.862 154.922 23.6484C 155.5 24.4297 155.797 25.638 155.812 27.2734L 155.812 29.1484ZM 154.367 27.1719C 154.367 25.9479 154.195 25.0573 153.852 24.5C 153.508 23.9375 152.964 23.6562 152.219 23.6562C 151.479 23.6562 150.94 23.9349 150.602 24.4922C 150.263 25.0495 150.089 25.9062 150.078 27.0625L 150.078 29.375C 150.078 30.6042 150.255 31.513 150.609 32.1016C 150.969 32.6849 151.51 32.9766 152.234 32.9766C 152.948 32.9766 153.477 32.7005 153.82 32.1484C 154.169 31.5964 154.352 30.7266 154.367 29.5391L 154.367 27.1719Z"/>
<path id="path1_fill" d="M 5.77344 10.3984L 3.10156 10.3984L 3.10156 15L 1.59375 15L 1.59375 3.625L 5.35938 3.625C 6.64062 3.625 7.625 3.91667 8.3125 4.5C 9.00521 5.08333 9.35156 5.93229 9.35156 7.04688C 9.35156 7.75521 9.15885 8.3724 8.77344 8.89844C 8.39323 9.42448 7.86198 9.81771 7.17969 10.0781L 9.85156 14.9062L 9.85156 15L 8.24219 15L 5.77344 10.3984ZM 3.10156 9.17188L 5.40625 9.17188C 6.15104 9.17188 6.74219 8.97917 7.17969 8.59375C 7.6224 8.20833 7.84375 7.69271 7.84375 7.04688C 7.84375 6.34375 7.63281 5.80469 7.21094 5.42969C 6.79427 5.05469 6.1901 4.86458 5.39844 4.85938L 3.10156 4.85938L 3.10156 9.17188ZM 18.5391 15L 11.0859 15L 11.0859 13.9609L 15.0234 9.58594C 15.6068 8.92448 16.0078 8.38802 16.2266 7.97656C 16.4505 7.5599 16.5625 7.13021 16.5625 6.6875C 16.5625 6.09375 16.3828 5.60677 16.0234 5.22656C 15.6641 4.84635 15.1849 4.65625 14.5859 4.65625C 13.8672 4.65625 13.3073 4.86198 12.9062 5.27344C 12.5104 5.67969 12.3125 6.2474 12.3125 6.97656L 10.8672 6.97656C 10.8672 5.92969 11.2031 5.08333 11.875 4.4375C 12.5521 3.79167 13.4557 3.46875 14.5859 3.46875C 15.6432 3.46875 16.4792 3.7474 17.0938 4.30469C 17.7083 4.85677 18.0156 5.59375 18.0156 6.51562C 18.0156 7.63542 17.3021 8.96875 15.875 10.5156L 12.8281 13.8203L 18.5391 13.8203L 18.5391 15ZM 30.7969 8.64062L 24.2812 8.64062L 24.2812 7.38281L 30.7969 7.38281L 30.7969 8.64062ZM 30.7969 11.8828L 24.2812 11.8828L 24.2812 10.6328L 30.7969 10.6328L 30.7969 11.8828ZM 41.3359 10.3984L 38.6641 10.3984L 38.6641 15L 37.1562 15L 37.1562 3.625L 40.9219 3.625C 42.2031 3.625 43.1875 3.91667 43.875 4.5C 44.5677 5.08333 44.9141 5.93229 44.9141 7.04688C 44.9141 7.75521 44.7214 8.3724 44.3359 8.89844C 43.9557 9.42448 43.4245 9.81771 42.7422 10.0781L 45.4141 14.9062L 45.4141 15L 43.8047 15L 41.3359 10.3984ZM 38.6641 9.17188L 40.9688 9.17188C 41.7135 9.17188 42.3047 8.97917 42.7422 8.59375C 43.1849 8.20833 43.4062 7.69271 43.4062 7.04688C 43.4062 6.34375 43.1953 5.80469 42.7734 5.42969C 42.3568 5.05469 41.7526 4.86458 40.9609 4.85938L 38.6641 4.85938L 38.6641 9.17188ZM 54.1016 15L 46.6484 15L 46.6484 13.9609L 50.5859 9.58594C 51.1693 8.92448 51.5703 8.38802 51.7891 7.97656C 52.013 7.5599 52.125 7.13021 52.125 6.6875C 52.125 6.09375 51.9453 5.60677 51.5859 5.22656C 51.2266 4.84635 50.7474 4.65625 50.1484 4.65625C 49.4297 4.65625 48.8698 4.86198 48.4688 5.27344C 48.0729 5.67969 47.875 6.2474 47.875 6.97656L 46.4297 6.97656C 46.4297 5.92969 46.7656 5.08333 47.4375 4.4375C 48.1146 3.79167 49.0182 3.46875 50.1484 3.46875C 51.2057 3.46875 52.0417 3.7474 52.6562 4.30469C 53.2708 4.85677 53.5781 5.59375 53.5781 6.51562C 53.5781 7.63542 52.8646 8.96875 51.4375 10.5156L 48.3906 13.8203L 54.1016 13.8203L 54.1016 15ZM 62.7578 10.7578L 58.9453 10.7578L 58.9453 9.57812L 62.7578 9.57812L 62.7578 10.7578ZM 68.0859 10.3828C 68.0859 9.20573 68.2422 8.07552 68.5547 6.99219C 68.8724 5.90885 69.3438 4.92448 69.9688 4.03906C 70.5938 3.15365 71.2422 2.52865 71.9141 2.16406L 72.2109 3.11719C 71.4505 3.70052 70.8255 4.59115 70.3359 5.78906C 69.8516 6.98698 69.5859 8.32812 69.5391 9.8125L 69.5312 10.4766C 69.5312 12.487 69.8984 14.2318 70.6328 15.7109C 71.0755 16.5964 71.6016 17.2891 72.2109 17.7891L 71.9141 18.6719C 71.2214 18.2865 70.5599 17.6406 69.9297 16.7344C 68.7005 14.9635 68.0859 12.8464 68.0859 10.3828ZM 78.0078 10.3984L 75.3359 10.3984L 75.3359 15L 73.8281 15L 73.8281 3.625L 77.5938 3.625C 78.875 3.625 79.8594 3.91667 80.5469 4.5C 81.2396 5.08333 81.5859 5.93229 81.5859 7.04688C 81.5859 7.75521 81.3932 8.3724 81.0078 8.89844C 80.6276 9.42448 80.0964 9.81771 79.4141 10.0781L 82.0859 14.9062L 82.0859 15L 80.4766 15L 78.0078 10.3984ZM 75.3359 9.17188L 77.6406 9.17188C 78.3854 9.17188 78.9766 8.97917 79.4141 8.59375C 79.8568 8.20833 80.0781 7.69271 80.0781 7.04688C 80.0781 6.34375 79.8672 5.80469 79.4453 5.42969C 79.0286 5.05469 78.4245 4.86458 77.6328 4.85938L 75.3359 4.85938L 75.3359 9.17188ZM 88.0703 15L 86.6172 15L 86.6172 5.36719L 83.7031 6.4375L 83.7031 5.125L 87.8438 3.57031L 88.0703 3.57031L 88.0703 15ZM 97.9062 7.32031L 95.5469 6.61719L 95.9062 5.4375L 98.2656 6.3125L 98.1953 3.625L 99.3906 3.625L 99.3125 6.35156L 101.633 5.49219L 101.992 6.67969L 99.5938 7.39062L 101.141 9.50781L 100.172 10.2422L 98.7188 7.99219L 97.3125 10.1875L 96.3359 9.47656L 97.9062 7.32031ZM 107.797 9.29688L 108.375 3.625L 114.203 3.625L 114.203 4.96094L 109.602 4.96094L 109.258 8.0625C 109.815 7.73438 110.448 7.57031 111.156 7.57031C 112.193 7.57031 113.016 7.91406 113.625 8.60156C 114.234 9.28385 114.539 10.2083 114.539 11.375C 114.539 12.5469 114.221 13.4714 113.586 14.1484C 112.956 14.8203 112.073 15.1562 110.938 15.1562C 109.932 15.1562 109.112 14.8776 108.477 14.3203C 107.841 13.763 107.479 12.9922 107.391 12.0078L 108.758 12.0078C 108.846 12.6589 109.078 13.151 109.453 13.4844C 109.828 13.8125 110.323 13.9766 110.938 13.9766C 111.609 13.9766 112.135 13.7474 112.516 13.2891C 112.901 12.8307 113.094 12.1979 113.094 11.3906C 113.094 10.6302 112.885 10.0208 112.469 9.5625C 112.057 9.09896 111.508 8.86719 110.82 8.86719C 110.19 8.86719 109.695 9.00521 109.336 9.28125L 108.953 9.59375L 107.797 9.29688ZM 123.25 10.1484C 123.25 11.8411 122.961 13.099 122.383 13.9219C 121.805 14.7448 120.901 15.1562 119.672 15.1562C 118.458 15.1562 117.56 14.7552 116.977 13.9531C 116.393 13.1458 116.091 11.9427 116.07 10.3438L 116.07 8.41406C 116.07 6.74219 116.359 5.5 116.938 4.6875C 117.516 3.875 118.422 3.46875 119.656 3.46875C 120.88 3.46875 121.781 3.86198 122.359 4.64844C 122.938 5.42969 123.234 6.63802 123.25 8.27344L 123.25 10.1484ZM 121.805 8.17188C 121.805 6.94792 121.633 6.05729 121.289 5.5C 120.945 4.9375 120.401 4.65625 119.656 4.65625C 118.917 4.65625 118.378 4.9349 118.039 5.49219C 117.701 6.04948 117.526 6.90625 117.516 8.0625L 117.516 10.375C 117.516 11.6042 117.693 12.513 118.047 13.1016C 118.406 13.6849 118.948 13.9766 119.672 13.9766C 120.385 13.9766 120.914 13.7005 121.258 13.1484C 121.607 12.5964 121.789 11.7266 121.805 10.5391L 121.805 8.17188ZM 128.586 10.4609C 128.586 11.6224 128.432 12.737 128.125 13.8047C 127.823 14.8672 127.357 15.849 126.727 16.75C 126.102 17.651 125.445 18.2917 124.758 18.6719L 124.453 17.7891C 125.255 17.1745 125.898 16.2214 126.383 14.9297C 126.872 13.6328 127.122 12.1953 127.133 10.6172L 127.133 10.3672C 127.133 9.27344 127.018 8.25781 126.789 7.32031C 126.56 6.3776 126.24 5.53385 125.828 4.78906C 125.422 4.04427 124.964 3.46354 124.453 3.04688L 124.758 2.16406C 125.445 2.54427 126.099 3.17969 126.719 4.07031C 127.344 4.96094 127.81 5.94271 128.117 7.01562C 128.43 8.08854 128.586 9.23698 128.586 10.4609Z"/>
<path id="path2_fill" d="M 5.69531 15L 4.24219 15L 4.24219 5.36719L 1.32812 6.4375L 1.32812 5.125L 5.46875 3.57031L 5.69531 3.57031L 5.69531 15ZM 32.9297 10.7578L 29.1172 10.7578L 29.1172 9.57812L 32.9297 9.57812L 32.9297 10.7578ZM 38.9453 15L 37.4922 15L 37.4922 5.36719L 34.5781 6.4375L 34.5781 5.125L 38.7188 3.57031L 38.9453 3.57031L 38.9453 15ZM 43.6172 15.9766L 42.375 15.9766L 47.125 3.625L 48.3594 3.625L 43.6172 15.9766ZM 51.875 8.60938L 52.9609 8.60938C 53.6432 8.59896 54.1797 8.41927 54.5703 8.07031C 54.9609 7.72135 55.1562 7.25 55.1562 6.65625C 55.1562 5.32292 54.4922 4.65625 53.1641 4.65625C 52.5391 4.65625 52.0391 4.83594 51.6641 5.19531C 51.2943 5.54948 51.1094 6.02083 51.1094 6.60938L 49.6641 6.60938C 49.6641 5.70833 49.9922 4.96094 50.6484 4.36719C 51.3099 3.76823 52.1484 3.46875 53.1641 3.46875C 54.237 3.46875 55.0781 3.7526 55.6875 4.32031C 56.2969 4.88802 56.6016 5.67708 56.6016 6.6875C 56.6016 7.18229 56.4401 7.66146 56.1172 8.125C 55.7995 8.58854 55.3646 8.9349 54.8125 9.16406C 55.4375 9.36198 55.9193 9.6901 56.2578 10.1484C 56.6016 10.6068 56.7734 11.1667 56.7734 11.8281C 56.7734 12.849 56.4401 13.6589 55.7734 14.2578C 55.1068 14.8568 54.2396 15.1562 53.1719 15.1562C 52.1042 15.1562 51.2344 14.8672 50.5625 14.2891C 49.8958 13.7109 49.5625 12.9479 49.5625 12L 51.0156 12C 51.0156 12.599 51.2109 13.0781 51.6016 13.4375C 51.9922 13.7969 52.5156 13.9766 53.1719 13.9766C 53.8698 13.9766 54.4036 13.7943 54.7734 13.4297C 55.1432 13.0651 55.3281 12.5417 55.3281 11.8594C 55.3281 11.1979 55.125 10.6901 54.7188 10.3359C 54.3125 9.98177 53.7266 9.79948 52.9609 9.78906L 51.875 9.78906L 51.875 8.60938ZM 65.8906 10.1484C 65.8906 11.8411 65.6016 13.099 65.0234 13.9219C 64.4453 14.7448 63.5417 15.1562 62.3125 15.1562C 61.099 15.1562 60.2005 14.7552 59.6172 13.9531C 59.0339 13.1458 58.7318 11.9427 58.7109 10.3438L 58.7109 8.41406C 58.7109 6.74219 59 5.5 59.5781 4.6875C 60.1562 3.875 61.0625 3.46875 62.2969 3.46875C 63.5208 3.46875 64.4219 3.86198 65 4.64844C 65.5781 5.42969 65.875 6.63802 65.8906 8.27344L 65.8906 10.1484ZM 64.4453 8.17188C 64.4453 6.94792 64.2734 6.05729 63.9297 5.5C 63.5859 4.9375 63.0417 4.65625 62.2969 4.65625C 61.5573 4.65625 61.0182 4.9349 60.6797 5.49219C 60.3411 6.04948 60.1667 6.90625 60.1562 8.0625L 60.1562 10.375C 60.1562 11.6042 60.3333 12.513 60.6875 13.1016C 61.0469 13.6849 61.5885 13.9766 62.3125 13.9766C 63.026 13.9766 63.5547 13.7005 63.8984 13.1484C 64.2474 12.5964 64.4297 11.7266 64.4453 10.5391L 64.4453 8.17188ZM 86.7734 10.7578L 82.9609 10.7578L 82.9609 9.57812L 86.7734 9.57812L 86.7734 10.7578ZM 92.7891 15L 91.3359 15L 91.3359 5.36719L 88.4219 6.4375L 88.4219 5.125L 92.5625 3.57031L 92.7891 3.57031L 92.7891 15ZM 104.156 10.1484C 104.156 11.8411 103.867 13.099 103.289 13.9219C 102.711 14.7448 101.807 15.1562 100.578 15.1562C 99.3646 15.1562 98.4661 14.7552 97.8828 13.9531C 97.2995 13.1458 96.9974 11.9427 96.9766 10.3438L 96.9766 8.41406C 96.9766 6.74219 97.2656 5.5 97.8438 4.6875C 98.4219 3.875 99.3281 3.46875 100.562 3.46875C 101.786 3.46875 102.688 3.86198 103.266 4.64844C 103.844 5.42969 104.141 6.63802 104.156 8.27344L 104.156 10.1484ZM 102.711 8.17188C 102.711 6.94792 102.539 6.05729 102.195 5.5C 101.852 4.9375 101.307 4.65625 100.562 4.65625C 99.8229 4.65625 99.2839 4.9349 98.9453 5.49219C 98.6068 6.04948 98.4323 6.90625 98.4219 8.0625L 98.4219 10.375C 98.4219 11.6042 98.599 12.513 98.9531 13.1016C 99.3125 13.6849 99.8542 13.9766 100.578 13.9766C 101.292 13.9766 101.82 13.7005 102.164 13.1484C 102.513 12.5964 102.695 11.7266 102.711 10.5391L 102.711 8.17188ZM 113.141 10.1484C 113.141 11.8411 112.852 13.099 112.273 13.9219C 111.695 14.7448 110.792 15.1562 109.562 15.1562C 108.349 15.1562 107.451 14.7552 106.867 13.9531C 106.284 13.1458 105.982 11.9427 105.961 10.3438L 105.961 8.41406C 105.961 6.74219 106.25 5.5 106.828 4.6875C 107.406 3.875 108.312 3.46875 109.547 3.46875C 110.771 3.46875 111.672 3.86198 112.25 4.64844C 112.828 5.42969 113.125 6.63802 113.141 8.27344L 113.141 10.1484ZM 111.695 8.17188C 111.695 6.94792 111.523 6.05729 111.18 5.5C 110.836 4.9375 110.292 4.65625 109.547 4.65625C 108.807 4.65625 108.268 4.9349 107.93 5.49219C 107.591 6.04948 107.417 6.90625 107.406 8.0625L 107.406 10.375C 107.406 11.6042 107.583 12.513 107.938 13.1016C 108.297 13.6849 108.839 13.9766 109.562 13.9766C 110.276 13.9766 110.805 13.7005 111.148 13.1484C 111.497 12.5964 111.68 11.7266 111.695 10.5391L 111.695 8.17188ZM 122.125 10.1484C 122.125 11.8411 121.836 13.099 121.258 13.9219C 120.68 14.7448 119.776 15.1562 118.547 15.1562C 117.333 15.1562 116.435 14.7552 115.852 13.9531C 115.268 13.1458 114.966 11.9427 114.945 10.3438L 114.945 8.41406C 114.945 6.74219 115.234 5.5 115.812 4.6875C 116.391 3.875 117.297 3.46875 118.531 3.46875C 119.755 3.46875 120.656 3.86198 121.234 4.64844C 121.812 5.42969 122.109 6.63802 122.125 8.27344L 122.125 10.1484ZM 120.68 8.17188C 120.68 6.94792 120.508 6.05729 120.164 5.5C 119.82 4.9375 119.276 4.65625 118.531 4.65625C 117.792 4.65625 117.253 4.9349 116.914 5.49219C 116.576 6.04948 116.401 6.90625 116.391 8.0625L 116.391 10.375C 116.391 11.6042 116.568 12.513 116.922 13.1016C 117.281 13.6849 117.823 13.9766 118.547 13.9766C 119.26 13.9766 119.789 13.7005 120.133 13.1484C 120.482 12.5964 120.664 11.7266 120.68 10.5391L 120.68 8.17188ZM 124.414 15.9766L 123.172 15.9766L 127.922 3.625L 129.156 3.625L 124.414 15.9766ZM 132.672 8.60938L 133.758 8.60938C 134.44 8.59896 134.977 8.41927 135.367 8.07031C 135.758 7.72135 135.953 7.25 135.953 6.65625C 135.953 5.32292 135.289 4.65625 133.961 4.65625C 133.336 4.65625 132.836 4.83594 132.461 5.19531C 132.091 5.54948 131.906 6.02083 131.906 6.60938L 130.461 6.60938C 130.461 5.70833 130.789 4.96094 131.445 4.36719C 132.107 3.76823 132.945 3.46875 133.961 3.46875C 135.034 3.46875 135.875 3.7526 136.484 4.32031C 137.094 4.88802 137.398 5.67708 137.398 6.6875C 137.398 7.18229 137.237 7.66146 136.914 8.125C 136.596 8.58854 136.161 8.9349 135.609 9.16406C 136.234 9.36198 136.716 9.6901 137.055 10.1484C 137.398 10.6068 137.57 11.1667 137.57 11.8281C 137.57 12.849 137.237 13.6589 136.57 14.2578C 135.904 14.8568 135.036 15.1562 133.969 15.1562C 132.901 15.1562 132.031 14.8672 131.359 14.2891C 130.693 13.7109 130.359 12.9479 130.359 12L 131.812 12C 131.812 12.599 132.008 13.0781 132.398 13.4375C 132.789 13.7969 133.312 13.9766 133.969 13.9766C 134.667 13.9766 135.201 13.7943 135.57 13.4297C 135.94 13.0651 136.125 12.5417 136.125 11.8594C 136.125 11.1979 135.922 10.6901 135.516 10.3359C 135.109 9.98177 134.523 9.79948 133.758 9.78906L 132.672 9.78906L 132.672 8.60938ZM 146.688 10.1484C 146.688 11.8411 146.398 13.099 145.82 13.9219C 145.242 14.7448 144.339 15.1562 143.109 15.1562C 141.896 15.1562 140.997 14.7552 140.414 13.9531C 139.831 13.1458 139.529 11.9427 139.508 10.3438L 139.508 8.41406C 139.508 6.74219 139.797 5.5 140.375 4.6875C 140.953 3.875 141.859 3.46875 143.094 3.46875C 144.318 3.46875 145.219 3.86198 145.797 4.64844C 146.375 5.42969 146.672 6.63802 146.688 8.27344L 146.688 10.1484ZM 145.242 8.17188C 145.242 6.94792 145.07 6.05729 144.727 5.5C 144.383 4.9375 143.839 4.65625 143.094 4.65625C 142.354 4.65625 141.815 4.9349 141.477 5.49219C 141.138 6.04948 140.964 6.90625 140.953 8.0625L 140.953 10.375C 140.953 11.6042 141.13 12.513 141.484 13.1016C 141.844 13.6849 142.385 13.9766 143.109 13.9766C 143.823 13.9766 144.352 13.7005 144.695 13.1484C 145.044 12.5964 145.227 11.7266 145.242 10.5391L 145.242 8.17188ZM 1.60938 28.2969L 2.1875 22.625L 8.01562 22.625L 8.01562 23.9609L 3.41406 23.9609L 3.07031 27.0625C 3.6276 26.7344 4.26042 26.5703 4.96875 26.5703C 6.00521 26.5703 6.82812 26.9141 7.4375 27.6016C 8.04688 28.2839 8.35156 29.2083 8.35156 30.375C 8.35156 31.5469 8.03385 32.4714 7.39844 33.1484C 6.76823 33.8203 5.88542 34.1562 4.75 34.1562C 3.74479 34.1562 2.92448 33.8776 2.28906 33.3203C 1.65365 32.763 1.29167 31.9922 1.20312 31.0078L 2.57031 31.0078C 2.65885 31.6589 2.89062 32.151 3.26562 32.4844C 3.64062 32.8125 4.13542 32.9766 4.75 32.9766C 5.42188 32.9766 5.94792 32.7474 6.32812 32.2891C 6.71354 31.8307 6.90625 31.1979 6.90625 30.3906C 6.90625 29.6302 6.69792 29.0208 6.28125 28.5625C 5.86979 28.099 5.32031 27.8672 4.63281 27.8672C 4.0026 27.8672 3.50781 28.0052 3.14844 28.2812L 2.76562 28.5938L 1.60938 28.2969ZM 17.0625 29.1484C 17.0625 30.8411 16.7734 32.099 16.1953 32.9219C 15.6172 33.7448 14.7135 34.1562 13.4844 34.1562C 12.2708 34.1562 11.3724 33.7552 10.7891 32.9531C 10.2057 32.1458 9.90365 30.9427 9.88281 29.3438L 9.88281 27.4141C 9.88281 25.7422 10.1719 24.5 10.75 23.6875C 11.3281 22.875 12.2344 22.4688 13.4688 22.4688C 14.6927 22.4688 15.5938 22.862 16.1719 23.6484C 16.75 24.4297 17.0469 25.638 17.0625 27.2734L 17.0625 29.1484ZM 15.6172 27.1719C 15.6172 25.9479 15.4453 25.0573 15.1016 24.5C 14.7578 23.9375 14.2135 23.6562 13.4688 23.6562C 12.7292 23.6562 12.1901 23.9349 11.8516 24.4922C 11.513 25.0495 11.3385 25.9062 11.3281 27.0625L 11.3281 29.375C 11.3281 30.6042 11.5052 31.513 11.8594 32.1016C 12.2188 32.6849 12.7604 32.9766 13.4844 32.9766C 14.1979 32.9766 14.7266 32.7005 15.0703 32.1484C 15.4193 31.5964 15.6016 30.7266 15.6172 29.5391L 15.6172 27.1719ZM 33.9766 29.7578L 30.1641 29.7578L 30.1641 28.5781L 33.9766 28.5781L 33.9766 29.7578ZM 39.9922 34L 38.5391 34L 38.5391 24.3672L 35.625 25.4375L 35.625 24.125L 39.7656 22.5703L 39.9922 22.5703L 39.9922 34ZM 87.0703 29.7578L 83.2578 29.7578L 83.2578 28.5781L 87.0703 28.5781L 87.0703 29.7578ZM 97.0547 34L 95.6016 34L 95.6016 24.3672L 92.6875 25.4375L 92.6875 24.125L 96.8281 22.5703L 97.0547 22.5703L 97.0547 34ZM 108.422 29.1484C 108.422 30.8411 108.133 32.099 107.555 32.9219C 106.977 33.7448 106.073 34.1562 104.844 34.1562C 103.63 34.1562 102.732 33.7552 102.148 32.9531C 101.565 32.1458 101.263 30.9427 101.242 29.3438L 101.242 27.4141C 101.242 25.7422 101.531 24.5 102.109 23.6875C 102.688 22.875 103.594 22.4688 104.828 22.4688C 106.052 22.4688 106.953 22.862 107.531 23.6484C 108.109 24.4297 108.406 25.638 108.422 27.2734L 108.422 29.1484ZM 106.977 27.1719C 106.977 25.9479 106.805 25.0573 106.461 24.5C 106.117 23.9375 105.573 23.6562 104.828 23.6562C 104.089 23.6562 103.549 23.9349 103.211 24.4922C 102.872 25.0495 102.698 25.9062 102.688 27.0625L 102.688 29.375C 102.688 30.6042 102.865 31.513 103.219 32.1016C 103.578 32.6849 104.12 32.9766 104.844 32.9766C 105.557 32.9766 106.086 32.7005 106.43 32.1484C 106.779 31.5964 106.961 30.7266 106.977 29.5391L 106.977 27.1719ZM 117.406 29.1484C 117.406 30.8411 117.117 32.099 116.539 32.9219C 115.961 33.7448 115.057 34.1562 113.828 34.1562C 112.615 34.1562 111.716 33.7552 111.133 32.9531C 110.549 32.1458 110.247 30.9427 110.227 29.3438L 110.227 27.4141C 110.227 25.7422 110.516 24.5 111.094 23.6875C 111.672 22.875 112.578 22.4688 113.812 22.4688C 115.036 22.4688 115.938 22.862 116.516 23.6484C 117.094 24.4297 117.391 25.638 117.406 27.2734L 117.406 29.1484ZM 115.961 27.1719C 115.961 25.9479 115.789 25.0573 115.445 24.5C 115.102 23.9375 114.557 23.6562 113.812 23.6562C 113.073 23.6562 112.534 23.9349 112.195 24.4922C 111.857 25.0495 111.682 25.9062 111.672 27.0625L 111.672 29.375C 111.672 30.6042 111.849 31.513 112.203 32.1016C 112.562 32.6849 113.104 32.9766 113.828 32.9766C 114.542 32.9766 115.07 32.7005 115.414 32.1484C 115.763 31.5964 115.945 30.7266 115.961 29.5391L 115.961 27.1719Z"/>
<path id="path3_stroke" d="M 0 0L 42 0L 42 -1L 0 -1L 0 0Z"/>
<path id="path4_stroke" d="M 0 0L 6 0L 6 -1L 0 -1L 0 0Z"/>
<path id="path5_stroke" d="M 17.3536 0.353553C 17.5488 0.158291 17.5488 -0.158291 17.3536 -0.353553L 14.1716 -3.53553C 13.9763 -3.7308 13.6597 -3.7308 13.4645 -3.53553C 13.2692 -3.34027 13.2692 -3.02369 13.4645 -2.82843L 16.2929 0L 13.4645 2.82843C 13.2692 3.02369 13.2692 3.34027 13.4645 3.53553C 13.6597 3.7308 13.9763 3.7308 14.1716 3.53553L 17.3536 0.353553ZM 0 0.5L 17 0.5L 17 -0.5L 0 -0.5L 0 0.5Z"/>
<path id="path6_stroke" d="M 0 0L 37 0L 37 -1L 0 -1L 0 0Z"/>
</defs>
</svg>

