<svg width="443" height="90" viewBox="0 0 443 90" version="1.1" xmlns="http://www.w3.org/2000/svg" xmlns:xlink="http://www.w3.org/1999/xlink">
<title>Group</title>
<desc>Created using Figma</desc>
<g id="Canvas" transform="translate(236 343)">
<g id="Group">
<g id="y = 1000 + 30x y = 100 + 50x">
<use xlink:href="#path0_fill" transform="translate(-236 -295)" fill="#333333"/>
</g>
<g id="30x - y = 1000 50x - y = 100">
<use xlink:href="#path1_fill" transform="translate(-76 -296)" fill="#333333"/>
</g>
<g id="30 -1 -1000 50 -1 -100">
<use xlink:href="#path2_fill" transform="translate(101 -297)" fill="#333333"/>
</g>
<g id="Component">
<g id="Line 2">
<use xlink:href="#path3_stroke" transform="matrix(1.04754e-31 1 -0.99936 0.0357696 93 -302)"/>
</g>
<g id="Line 3">
<use xlink:href="#path4_stroke" transform="translate(93 -302)"/>
</g>
<g id="Line 3">
<use xlink:href="#path4_stroke" transform="translate(93 -253)"/>
</g>
</g>
<g id="Component">
<g id="Line 2">
<use xlink:href="#path5_stroke" transform="matrix(-1.22465e-16 -1 0.999386 -0.0350406 207 -254)"/>
</g>
<g id="Line 3">
<use xlink:href="#path4_stroke" transform="matrix(-1 1.22465e-16 -1.22465e-16 -1 207 -254)"/>
</g>
<g id="Line 3">
<use xlink:href="#path4_stroke" transform="matrix(-1 1.22465e-16 -1.22465e-16 -1 207 -302)"/>
</g>
</g>
<g id="Line">
<use xlink:href="#path6_stroke" transform="matrix(6.12323e-17 1 -1 6.12323e-17 150 -299)"/>
</g>
<g id="Slope-intercept form">
<use xlink:href="#path7_fill" transform="translate(-232 -346)"/>
</g>
<g id="General form">
<use xlink:href="#path8_fill" transform="translate(-47 -346)"/>
</g>
<g id="Augmented Matrix">
<use xlink:href="#path9_fill" transform="translate(111 -346)"/>
</g>
<g id="30x - y = 1000 50x - y = 100">
<use xlink:href="#path10_fill" transform="translate(-76 -296)" fill="#333333"/>
</g>
<g id="30 -1 -1000 50 -1 -100">
<use xlink:href="#path11_fill" transform="translate(101 -297)" fill="#333333"/>
</g>
<g id="Line 2">
<use xlink:href="#path3_stroke" transform="matrix(1.04754e-31 1 -0.99936 0.0357696 93 -302)"/>
</g>
<g id="Line 3">
<use xlink:href="#path4_stroke" transform="translate(93 -253)"/>
</g>
<g id="Line 2">
<use xlink:href="#path5_stroke" transform="matrix(-1.22465e-16 -1 0.999386 -0.0350406 207 -254)"/>
</g>
<g id="Line 3">
<use xlink:href="#path4_stroke" transform="matrix(-1 1.22465e-16 -1.22465e-16 -1 207 -254)"/>
</g>
<g id="Line">
<use xlink:href="#path6_stroke" transform="matrix(6.12323e-17 1 -1 6.12323e-17 150 -299)"/>
</g>
<g id="Arrow 2">
<use xlink:href="#path12_stroke" transform="translate(-108 -278)"/>
</g>
<g id="Arrow 2">
<use xlink:href="#path12_stroke" transform="translate(54 -278)"/>
</g>
</g>
</g>
<defs>
<path id="path0_fill" d="M 3.85938 12.8828L 5.82812 6.54688L 7.375 6.54688L 3.97656 16.3047C 3.45052 17.7109 2.61458 18.4141 1.46875 18.4141L 1.19531 18.3906L 0.65625 18.2891L 0.65625 17.1172L 1.04688 17.1484C 1.53646 17.1484 1.91667 17.0495 2.1875 16.8516C 2.46354 16.6536 2.6901 16.2917 2.86719 15.7656L 3.1875 14.9062L 0.171875 6.54688L 1.75 6.54688L 3.85938 12.8828ZM 23.2188 8.64062L 16.7031 8.64062L 16.7031 7.38281L 23.2188 7.38281L 23.2188 8.64062ZM 23.2188 11.8828L 16.7031 11.8828L 16.7031 10.6328L 23.2188 10.6328L 23.2188 11.8828ZM 37.9297 15L 36.4766 15L 36.4766 5.36719L 33.5625 6.4375L 33.5625 5.125L 37.7031 3.57031L 37.9297 3.57031L 37.9297 15ZM 49.2969 10.1484C 49.2969 11.8411 49.0078 13.099 48.4297 13.9219C 47.8516 14.7448 46.9479 15.1562 45.7188 15.1562C 44.5052 15.1562 43.6068 14.7552 43.0234 13.9531C 42.4401 13.1458 42.138 11.9427 42.1172 10.3438L 42.1172 8.41406C 42.1172 6.74219 42.4062 5.5 42.9844 4.6875C 43.5625 3.875 44.4688 3.46875 45.7031 3.46875C 46.9271 3.46875 47.8281 3.86198 48.4062 4.64844C 48.9844 5.42969 49.2812 6.63802 49.2969 8.27344L 49.2969 10.1484ZM 47.8516 8.17188C 47.8516 6.94792 47.6797 6.05729 47.3359 5.5C 46.9922 4.9375 46.4479 4.65625 45.7031 4.65625C 44.9635 4.65625 44.4245 4.9349 44.0859 5.49219C 43.7474 6.04948 43.5729 6.90625 43.5625 8.0625L 43.5625 10.375C 43.5625 11.6042 43.7396 12.513 44.0938 13.1016C 44.4531 13.6849 44.9948 13.9766 45.7188 13.9766C 46.4323 13.9766 46.9609 13.7005 47.3047 13.1484C 47.6536 12.5964 47.8359 11.7266 47.8516 10.5391L 47.8516 8.17188ZM 58.2812 10.1484C 58.2812 11.8411 57.9922 13.099 57.4141 13.9219C 56.8359 14.7448 55.9323 15.1562 54.7031 15.1562C 53.4896 15.1562 52.5911 14.7552 52.0078 13.9531C 51.4245 13.1458 51.1224 11.9427 51.1016 10.3438L 51.1016 8.41406C 51.1016 6.74219 51.3906 5.5 51.9688 4.6875C 52.5469 3.875 53.4531 3.46875 54.6875 3.46875C 55.9115 3.46875 56.8125 3.86198 57.3906 4.64844C 57.9688 5.42969 58.2656 6.63802 58.2812 8.27344L 58.2812 10.1484ZM 56.8359 8.17188C 56.8359 6.94792 56.6641 6.05729 56.3203 5.5C 55.9766 4.9375 55.4323 4.65625 54.6875 4.65625C 53.9479 4.65625 53.4089 4.9349 53.0703 5.49219C 52.7318 6.04948 52.5573 6.90625 52.5469 8.0625L 52.5469 10.375C 52.5469 11.6042 52.724 12.513 53.0781 13.1016C 53.4375 13.6849 53.9792 13.9766 54.7031 13.9766C 55.4167 13.9766 55.9453 13.7005 56.2891 13.1484C 56.638 12.5964 56.8203 11.7266 56.8359 10.5391L 56.8359 8.17188ZM 67.2656 10.1484C 67.2656 11.8411 66.9766 13.099 66.3984 13.9219C 65.8203 14.7448 64.9167 15.1562 63.6875 15.1562C 62.474 15.1562 61.5755 14.7552 60.9922 13.9531C 60.4089 13.1458 60.1068 11.9427 60.0859 10.3438L 60.0859 8.41406C 60.0859 6.74219 60.375 5.5 60.9531 4.6875C 61.5312 3.875 62.4375 3.46875 63.6719 3.46875C 64.8958 3.46875 65.7969 3.86198 66.375 4.64844C 66.9531 5.42969 67.25 6.63802 67.2656 8.27344L 67.2656 10.1484ZM 65.8203 8.17188C 65.8203 6.94792 65.6484 6.05729 65.3047 5.5C 64.9609 4.9375 64.4167 4.65625 63.6719 4.65625C 62.9323 4.65625 62.3932 4.9349 62.0547 5.49219C 61.7161 6.04948 61.5417 6.90625 61.5312 8.0625L 61.5312 10.375C 61.5312 11.6042 61.7083 12.513 62.0625 13.1016C 62.4219 13.6849 62.9635 13.9766 63.6875 13.9766C 64.401 13.9766 64.9297 13.7005 65.2734 13.1484C 65.6224 12.5964 65.8047 11.7266 65.8203 10.5391L 65.8203 8.17188ZM 77.375 8.89844L 80.5469 8.89844L 80.5469 10.2656L 77.375 10.2656L 77.375 13.8594L 75.9219 13.8594L 75.9219 10.2656L 72.75 10.2656L 72.75 8.89844L 75.9219 8.89844L 75.9219 5.57812L 77.375 5.57812L 77.375 8.89844ZM 88.2344 8.60938L 89.3203 8.60938C 90.0026 8.59896 90.5391 8.41927 90.9297 8.07031C 91.3203 7.72135 91.5156 7.25 91.5156 6.65625C 91.5156 5.32292 90.8516 4.65625 89.5234 4.65625C 88.8984 4.65625 88.3984 4.83594 88.0234 5.19531C 87.6536 5.54948 87.4688 6.02083 87.4688 6.60938L 86.0234 6.60938C 86.0234 5.70833 86.3516 4.96094 87.0078 4.36719C 87.6693 3.76823 88.5078 3.46875 89.5234 3.46875C 90.5964 3.46875 91.4375 3.7526 92.0469 4.32031C 92.6562 4.88802 92.9609 5.67708 92.9609 6.6875C 92.9609 7.18229 92.7995 7.66146 92.4766 8.125C 92.1589 8.58854 91.724 8.9349 91.1719 9.16406C 91.7969 9.36198 92.2786 9.6901 92.6172 10.1484C 92.9609 10.6068 93.1328 11.1667 93.1328 11.8281C 93.1328 12.849 92.7995 13.6589 92.1328 14.2578C 91.4661 14.8568 90.599 15.1562 89.5312 15.1562C 88.4635 15.1562 87.5938 14.8672 86.9219 14.2891C 86.2552 13.7109 85.9219 12.9479 85.9219 12L 87.375 12C 87.375 12.599 87.5703 13.0781 87.9609 13.4375C 88.3516 13.7969 88.875 13.9766 89.5312 13.9766C 90.2292 13.9766 90.763 13.7943 91.1328 13.4297C 91.5026 13.0651 91.6875 12.5417 91.6875 11.8594C 91.6875 11.1979 91.4844 10.6901 91.0781 10.3359C 90.6719 9.98177 90.0859 9.79948 89.3203 9.78906L 88.2344 9.78906L 88.2344 8.60938ZM 102.25 10.1484C 102.25 11.8411 101.961 13.099 101.383 13.9219C 100.805 14.7448 99.901 15.1562 98.6719 15.1562C 97.4583 15.1562 96.5599 14.7552 95.9766 13.9531C 95.3932 13.1458 95.0911 11.9427 95.0703 10.3438L 95.0703 8.41406C 95.0703 6.74219 95.3594 5.5 95.9375 4.6875C 96.5156 3.875 97.4219 3.46875 98.6562 3.46875C 99.8802 3.46875 100.781 3.86198 101.359 4.64844C 101.938 5.42969 102.234 6.63802 102.25 8.27344L 102.25 10.1484ZM 100.805 8.17188C 100.805 6.94792 100.633 6.05729 100.289 5.5C 99.9453 4.9375 99.401 4.65625 98.6562 4.65625C 97.9167 4.65625 97.3776 4.9349 97.0391 5.49219C 96.7005 6.04948 96.526 6.90625 96.5156 8.0625L 96.5156 10.375C 96.5156 11.6042 96.6927 12.513 97.0469 13.1016C 97.4062 13.6849 97.9479 13.9766 98.6719 13.9766C 99.3854 13.9766 99.9141 13.7005 100.258 13.1484C 100.607 12.5964 100.789 11.7266 100.805 10.5391L 100.805 8.17188ZM 107.086 9.63281L 108.961 6.54688L 110.648 6.54688L 107.883 10.7266L 110.734 15L 109.062 15L 107.109 11.8359L 105.156 15L 103.477 15L 106.328 10.7266L 103.562 6.54688L 105.234 6.54688L 107.086 9.63281ZM 3.85938 31.8828L 5.82812 25.5469L 7.375 25.5469L 3.97656 35.3047C 3.45052 36.7109 2.61458 37.4141 1.46875 37.4141L 1.19531 37.3906L 0.65625 37.2891L 0.65625 36.1172L 1.04688 36.1484C 1.53646 36.1484 1.91667 36.0495 2.1875 35.8516C 2.46354 35.6536 2.6901 35.2917 2.86719 34.7656L 3.1875 33.9062L 0.171875 25.5469L 1.75 25.5469L 3.85938 31.8828ZM 23.2188 27.6406L 16.7031 27.6406L 16.7031 26.3828L 23.2188 26.3828L 23.2188 27.6406ZM 23.2188 30.8828L 16.7031 30.8828L 16.7031 29.6328L 23.2188 29.6328L 23.2188 30.8828ZM 37.9297 34L 36.4766 34L 36.4766 24.3672L 33.5625 25.4375L 33.5625 24.125L 37.7031 22.5703L 37.9297 22.5703L 37.9297 34ZM 49.2969 29.1484C 49.2969 30.8411 49.0078 32.099 48.4297 32.9219C 47.8516 33.7448 46.9479 34.1562 45.7188 34.1562C 44.5052 34.1562 43.6068 33.7552 43.0234 32.9531C 42.4401 32.1458 42.138 30.9427 42.1172 29.3438L 42.1172 27.4141C 42.1172 25.7422 42.4062 24.5 42.9844 23.6875C 43.5625 22.875 44.4688 22.4688 45.7031 22.4688C 46.9271 22.4688 47.8281 22.862 48.4062 23.6484C 48.9844 24.4297 49.2812 25.638 49.2969 27.2734L 49.2969 29.1484ZM 47.8516 27.1719C 47.8516 25.9479 47.6797 25.0573 47.3359 24.5C 46.9922 23.9375 46.4479 23.6562 45.7031 23.6562C 44.9635 23.6562 44.4245 23.9349 44.0859 24.4922C 43.7474 25.0495 43.5729 25.9062 43.5625 27.0625L 43.5625 29.375C 43.5625 30.6042 43.7396 31.513 44.0938 32.1016C 44.4531 32.6849 44.9948 32.9766 45.7188 32.9766C 46.4323 32.9766 46.9609 32.7005 47.3047 32.1484C 47.6536 31.5964 47.8359 30.7266 47.8516 29.5391L 47.8516 27.1719ZM 58.2812 29.1484C 58.2812 30.8411 57.9922 32.099 57.4141 32.9219C 56.8359 33.7448 55.9323 34.1562 54.7031 34.1562C 53.4896 34.1562 52.5911 33.7552 52.0078 32.9531C 51.4245 32.1458 51.1224 30.9427 51.1016 29.3438L 51.1016 27.4141C 51.1016 25.7422 51.3906 24.5 51.9688 23.6875C 52.5469 22.875 53.4531 22.4688 54.6875 22.4688C 55.9115 22.4688 56.8125 22.862 57.3906 23.6484C 57.9688 24.4297 58.2656 25.638 58.2812 27.2734L 58.2812 29.1484ZM 56.8359 27.1719C 56.8359 25.9479 56.6641 25.0573 56.3203 24.5C 55.9766 23.9375 55.4323 23.6562 54.6875 23.6562C 53.9479 23.6562 53.4089 23.9349 53.0703 24.4922C 52.7318 25.0495 52.5573 25.9062 52.5469 27.0625L 52.5469 29.375C 52.5469 30.6042 52.724 31.513 53.0781 32.1016C 53.4375 32.6849 53.9792 32.9766 54.7031 32.9766C 55.4167 32.9766 55.9453 32.7005 56.2891 32.1484C 56.638 31.5964 56.8203 30.7266 56.8359 29.5391L 56.8359 27.1719ZM 68.3906 27.8984L 71.5625 27.8984L 71.5625 29.2656L 68.3906 29.2656L 68.3906 32.8594L 66.9375 32.8594L 66.9375 29.2656L 63.7656 29.2656L 63.7656 27.8984L 66.9375 27.8984L 66.9375 24.5781L 68.3906 24.5781L 68.3906 27.8984ZM 77.8125 28.2969L 78.3906 22.625L 84.2188 22.625L 84.2188 23.9609L 79.6172 23.9609L 79.2734 27.0625C 79.8307 26.7344 80.4635 26.5703 81.1719 26.5703C 82.2083 26.5703 83.0312 26.9141 83.6406 27.6016C 84.25 28.2839 84.5547 29.2083 84.5547 30.375C 84.5547 31.5469 84.237 32.4714 83.6016 33.1484C 82.9714 33.8203 82.0885 34.1562 80.9531 34.1562C 79.9479 34.1562 79.1276 33.8776 78.4922 33.3203C 77.8568 32.763 77.4948 31.9922 77.4062 31.0078L 78.7734 31.0078C 78.862 31.6589 79.0938 32.151 79.4688 32.4844C 79.8438 32.8125 80.3385 32.9766 80.9531 32.9766C 81.625 32.9766 82.151 32.7474 82.5312 32.2891C 82.9167 31.8307 83.1094 31.1979 83.1094 30.3906C 83.1094 29.6302 82.901 29.0208 82.4844 28.5625C 82.0729 28.099 81.5234 27.8672 80.8359 27.8672C 80.2057 27.8672 79.7109 28.0052 79.3516 28.2812L 78.9688 28.5938L 77.8125 28.2969ZM 93.2656 29.1484C 93.2656 30.8411 92.9766 32.099 92.3984 32.9219C 91.8203 33.7448 90.9167 34.1562 89.6875 34.1562C 88.474 34.1562 87.5755 33.7552 86.9922 32.9531C 86.4089 32.1458 86.1068 30.9427 86.0859 29.3438L 86.0859 27.4141C 86.0859 25.7422 86.375 24.5 86.9531 23.6875C 87.5312 22.875 88.4375 22.4688 89.6719 22.4688C 90.8958 22.4688 91.7969 22.862 92.375 23.6484C 92.9531 24.4297 93.25 25.638 93.2656 27.2734L 93.2656 29.1484ZM 91.8203 27.1719C 91.8203 25.9479 91.6484 25.0573 91.3047 24.5C 90.9609 23.9375 90.4167 23.6562 89.6719 23.6562C 88.9323 23.6562 88.3932 23.9349 88.0547 24.4922C 87.7161 25.0495 87.5417 25.9062 87.5312 27.0625L 87.5312 29.375C 87.5312 30.6042 87.7083 31.513 88.0625 32.1016C 88.4219 32.6849 88.9635 32.9766 89.6875 32.9766C 90.401 32.9766 90.9297 32.7005 91.2734 32.1484C 91.6224 31.5964 91.8047 30.7266 91.8203 29.5391L 91.8203 27.1719ZM 98.1016 28.6328L 99.9766 25.5469L 101.664 25.5469L 98.8984 29.7266L 101.75 34L 100.078 34L 98.125 30.8359L 96.1719 34L 94.4922 34L 97.3438 29.7266L 94.5781 25.5469L 96.25 25.5469L 98.1016 28.6328Z"/>
<path id="path1_fill" d="M 3.04688 8.60938L 4.13281 8.60938C 4.8151 8.59896 5.35156 8.41927 5.74219 8.07031C 6.13281 7.72135 6.32812 7.25 6.32812 6.65625C 6.32812 5.32292 5.66406 4.65625 4.33594 4.65625C 3.71094 4.65625 3.21094 4.83594 2.83594 5.19531C 2.46615 5.54948 2.28125 6.02083 2.28125 6.60938L 0.835938 6.60938C 0.835938 5.70833 1.16406 4.96094 1.82031 4.36719C 2.48177 3.76823 3.32031 3.46875 4.33594 3.46875C 5.40885 3.46875 6.25 3.7526 6.85938 4.32031C 7.46875 4.88802 7.77344 5.67708 7.77344 6.6875C 7.77344 7.18229 7.61198 7.66146 7.28906 8.125C 6.97135 8.58854 6.53646 8.9349 5.98438 9.16406C 6.60938 9.36198 7.09115 9.6901 7.42969 10.1484C 7.77344 10.6068 7.94531 11.1667 7.94531 11.8281C 7.94531 12.849 7.61198 13.6589 6.94531 14.2578C 6.27865 14.8568 5.41146 15.1562 4.34375 15.1562C 3.27604 15.1562 2.40625 14.8672 1.73438 14.2891C 1.06771 13.7109 0.734375 12.9479 0.734375 12L 2.1875 12C 2.1875 12.599 2.38281 13.0781 2.77344 13.4375C 3.16406 13.7969 3.6875 13.9766 4.34375 13.9766C 5.04167 13.9766 5.57552 13.7943 5.94531 13.4297C 6.3151 13.0651 6.5 12.5417 6.5 11.8594C 6.5 11.1979 6.29688 10.6901 5.89062 10.3359C 5.48438 9.98177 4.89844 9.79948 4.13281 9.78906L 3.04688 9.78906L 3.04688 8.60938ZM 17.0625 10.1484C 17.0625 11.8411 16.7734 13.099 16.1953 13.9219C 15.6172 14.7448 14.7135 15.1562 13.4844 15.1562C 12.2708 15.1562 11.3724 14.7552 10.7891 13.9531C 10.2057 13.1458 9.90365 11.9427 9.88281 10.3438L 9.88281 8.41406C 9.88281 6.74219 10.1719 5.5 10.75 4.6875C 11.3281 3.875 12.2344 3.46875 13.4688 3.46875C 14.6927 3.46875 15.5938 3.86198 16.1719 4.64844C 16.75 5.42969 17.0469 6.63802 17.0625 8.27344L 17.0625 10.1484ZM 15.6172 8.17188C 15.6172 6.94792 15.4453 6.05729 15.1016 5.5C 14.7578 4.9375 14.2135 4.65625 13.4688 4.65625C 12.7292 4.65625 12.1901 4.9349 11.8516 5.49219C 11.513 6.04948 11.3385 6.90625 11.3281 8.0625L 11.3281 10.375C 11.3281 11.6042 11.5052 12.513 11.8594 13.1016C 12.2188 13.6849 12.7604 13.9766 13.4844 13.9766C 14.1979 13.9766 14.7266 13.7005 15.0703 13.1484C 15.4193 12.5964 15.6016 11.7266 15.6172 10.5391L 15.6172 8.17188ZM 21.8984 9.63281L 23.7734 6.54688L 25.4609 6.54688L 22.6953 10.7266L 25.5469 15L 23.875 15L 21.9219 11.8359L 19.9688 15L 18.2891 15L 21.1406 10.7266L 18.375 6.54688L 20.0469 6.54688L 21.8984 9.63281ZM 33.9766 10.7578L 30.1641 10.7578L 30.1641 9.57812L 33.9766 9.57812L 33.9766 10.7578ZM 42.125 12.8828L 44.0938 6.54688L 45.6406 6.54688L 42.2422 16.3047C 41.7161 17.7109 40.8802 18.4141 39.7344 18.4141L 39.4609 18.3906L 38.9219 18.2891L 38.9219 17.1172L 39.3125 17.1484C 39.8021 17.1484 40.1823 17.0495 40.4531 16.8516C 40.7292 16.6536 40.9557 16.2917 41.1328 15.7656L 41.4531 14.9062L 38.4375 6.54688L 40.0156 6.54688L 42.125 12.8828ZM 61.4844 8.64062L 54.9688 8.64062L 54.9688 7.38281L 61.4844 7.38281L 61.4844 8.64062ZM 61.4844 11.8828L 54.9688 11.8828L 54.9688 10.6328L 61.4844 10.6328L 61.4844 11.8828ZM 76.1953 15L 74.7422 15L 74.7422 5.36719L 71.8281 6.4375L 71.8281 5.125L 75.9688 3.57031L 76.1953 3.57031L 76.1953 15ZM 87.5625 10.1484C 87.5625 11.8411 87.2734 13.099 86.6953 13.9219C 86.1172 14.7448 85.2135 15.1562 83.9844 15.1562C 82.7708 15.1562 81.8724 14.7552 81.2891 13.9531C 80.7057 13.1458 80.4036 11.9427 80.3828 10.3438L 80.3828 8.41406C 80.3828 6.74219 80.6719 5.5 81.25 4.6875C 81.8281 3.875 82.7344 3.46875 83.9688 3.46875C 85.1927 3.46875 86.0938 3.86198 86.6719 4.64844C 87.25 5.42969 87.5469 6.63802 87.5625 8.27344L 87.5625 10.1484ZM 86.1172 8.17188C 86.1172 6.94792 85.9453 6.05729 85.6016 5.5C 85.2578 4.9375 84.7135 4.65625 83.9688 4.65625C 83.2292 4.65625 82.6901 4.9349 82.3516 5.49219C 82.013 6.04948 81.8385 6.90625 81.8281 8.0625L 81.8281 10.375C 81.8281 11.6042 82.0052 12.513 82.3594 13.1016C 82.7188 13.6849 83.2604 13.9766 83.9844 13.9766C 84.6979 13.9766 85.2266 13.7005 85.5703 13.1484C 85.9193 12.5964 86.1016 11.7266 86.1172 10.5391L 86.1172 8.17188ZM 96.5469 10.1484C 96.5469 11.8411 96.2578 13.099 95.6797 13.9219C 95.1016 14.7448 94.1979 15.1562 92.9688 15.1562C 91.7552 15.1562 90.8568 14.7552 90.2734 13.9531C 89.6901 13.1458 89.388 11.9427 89.3672 10.3438L 89.3672 8.41406C 89.3672 6.74219 89.6562 5.5 90.2344 4.6875C 90.8125 3.875 91.7188 3.46875 92.9531 3.46875C 94.1771 3.46875 95.0781 3.86198 95.6562 4.64844C 96.2344 5.42969 96.5312 6.63802 96.5469 8.27344L 96.5469 10.1484ZM 95.1016 8.17188C 95.1016 6.94792 94.9297 6.05729 94.5859 5.5C 94.2422 4.9375 93.6979 4.65625 92.9531 4.65625C 92.2135 4.65625 91.6745 4.9349 91.3359 5.49219C 90.9974 6.04948 90.8229 6.90625 90.8125 8.0625L 90.8125 10.375C 90.8125 11.6042 90.9896 12.513 91.3438 13.1016C 91.7031 13.6849 92.2448 13.9766 92.9688 13.9766C 93.6823 13.9766 94.2109 13.7005 94.5547 13.1484C 94.9036 12.5964 95.0859 11.7266 95.1016 10.5391L 95.1016 8.17188ZM 105.531 10.1484C 105.531 11.8411 105.242 13.099 104.664 13.9219C 104.086 14.7448 103.182 15.1562 101.953 15.1562C 100.74 15.1562 99.8411 14.7552 99.2578 13.9531C 98.6745 13.1458 98.3724 11.9427 98.3516 10.3438L 98.3516 8.41406C 98.3516 6.74219 98.6406 5.5 99.2188 4.6875C 99.7969 3.875 100.703 3.46875 101.938 3.46875C 103.161 3.46875 104.062 3.86198 104.641 4.64844C 105.219 5.42969 105.516 6.63802 105.531 8.27344L 105.531 10.1484ZM 104.086 8.17188C 104.086 6.94792 103.914 6.05729 103.57 5.5C 103.227 4.9375 102.682 4.65625 101.938 4.65625C 101.198 4.65625 100.659 4.9349 100.32 5.49219C 99.9818 6.04948 99.8073 6.90625 99.7969 8.0625L 99.7969 10.375C 99.7969 11.6042 99.974 12.513 100.328 13.1016C 100.688 13.6849 101.229 13.9766 101.953 13.9766C 102.667 13.9766 103.195 13.7005 103.539 13.1484C 103.888 12.5964 104.07 11.7266 104.086 10.5391L 104.086 8.17188ZM 1.60938 28.2969L 2.1875 22.625L 8.01562 22.625L 8.01562 23.9609L 3.41406 23.9609L 3.07031 27.0625C 3.6276 26.7344 4.26042 26.5703 4.96875 26.5703C 6.00521 26.5703 6.82812 26.9141 7.4375 27.6016C 8.04688 28.2839 8.35156 29.2083 8.35156 30.375C 8.35156 31.5469 8.03385 32.4714 7.39844 33.1484C 6.76823 33.8203 5.88542 34.1562 4.75 34.1562C 3.74479 34.1562 2.92448 33.8776 2.28906 33.3203C 1.65365 32.763 1.29167 31.9922 1.20312 31.0078L 2.57031 31.0078C 2.65885 31.6589 2.89062 32.151 3.26562 32.4844C 3.64062 32.8125 4.13542 32.9766 4.75 32.9766C 5.42188 32.9766 5.94792 32.7474 6.32812 32.2891C 6.71354 31.8307 6.90625 31.1979 6.90625 30.3906C 6.90625 29.6302 6.69792 29.0208 6.28125 28.5625C 5.86979 28.099 5.32031 27.8672 4.63281 27.8672C 4.0026 27.8672 3.50781 28.0052 3.14844 28.2812L 2.76562 28.5938L 1.60938 28.2969ZM 17.0625 29.1484C 17.0625 30.8411 16.7734 32.099 16.1953 32.9219C 15.6172 33.7448 14.7135 34.1562 13.4844 34.1562C 12.2708 34.1562 11.3724 33.7552 10.7891 32.9531C 10.2057 32.1458 9.90365 30.9427 9.88281 29.3438L 9.88281 27.4141C 9.88281 25.7422 10.1719 24.5 10.75 23.6875C 11.3281 22.875 12.2344 22.4688 13.4688 22.4688C 14.6927 22.4688 15.5938 22.862 16.1719 23.6484C 16.75 24.4297 17.0469 25.638 17.0625 27.2734L 17.0625 29.1484ZM 15.6172 27.1719C 15.6172 25.9479 15.4453 25.0573 15.1016 24.5C 14.7578 23.9375 14.2135 23.6562 13.4688 23.6562C 12.7292 23.6562 12.1901 23.9349 11.8516 24.4922C 11.513 25.0495 11.3385 25.9062 11.3281 27.0625L 11.3281 29.375C 11.3281 30.6042 11.5052 31.513 11.8594 32.1016C 12.2188 32.6849 12.7604 32.9766 13.4844 32.9766C 14.1979 32.9766 14.7266 32.7005 15.0703 32.1484C 15.4193 31.5964 15.6016 30.7266 15.6172 29.5391L 15.6172 27.1719ZM 21.8984 28.6328L 23.7734 25.5469L 25.4609 25.5469L 22.6953 29.7266L 25.5469 34L 23.875 34L 21.9219 30.8359L 19.9688 34L 18.2891 34L 21.1406 29.7266L 18.375 25.5469L 20.0469 25.5469L 21.8984 28.6328ZM 33.9766 29.7578L 30.1641 29.7578L 30.1641 28.5781L 33.9766 28.5781L 33.9766 29.7578ZM 42.125 31.8828L 44.0938 25.5469L 45.6406 25.5469L 42.2422 35.3047C 41.7161 36.7109 40.8802 37.4141 39.7344 37.4141L 39.4609 37.3906L 38.9219 37.2891L 38.9219 36.1172L 39.3125 36.1484C 39.8021 36.1484 40.1823 36.0495 40.4531 35.8516C 40.7292 35.6536 40.9557 35.2917 41.1328 34.7656L 41.4531 33.9062L 38.4375 25.5469L 40.0156 25.5469L 42.125 31.8828ZM 61.4844 27.6406L 54.9688 27.6406L 54.9688 26.3828L 61.4844 26.3828L 61.4844 27.6406ZM 61.4844 30.8828L 54.9688 30.8828L 54.9688 29.6328L 61.4844 29.6328L 61.4844 30.8828ZM 76.1953 34L 74.7422 34L 74.7422 24.3672L 71.8281 25.4375L 71.8281 24.125L 75.9688 22.5703L 76.1953 22.5703L 76.1953 34ZM 87.5625 29.1484C 87.5625 30.8411 87.2734 32.099 86.6953 32.9219C 86.1172 33.7448 85.2135 34.1562 83.9844 34.1562C 82.7708 34.1562 81.8724 33.7552 81.2891 32.9531C 80.7057 32.1458 80.4036 30.9427 80.3828 29.3438L 80.3828 27.4141C 80.3828 25.7422 80.6719 24.5 81.25 23.6875C 81.8281 22.875 82.7344 22.4688 83.9688 22.4688C 85.1927 22.4688 86.0938 22.862 86.6719 23.6484C 87.25 24.4297 87.5469 25.638 87.5625 27.2734L 87.5625 29.1484ZM 86.1172 27.1719C 86.1172 25.9479 85.9453 25.0573 85.6016 24.5C 85.2578 23.9375 84.7135 23.6562 83.9688 23.6562C 83.2292 23.6562 82.6901 23.9349 82.3516 24.4922C 82.013 25.0495 81.8385 25.9062 81.8281 27.0625L 81.8281 29.375C 81.8281 30.6042 82.0052 31.513 82.3594 32.1016C 82.7188 32.6849 83.2604 32.9766 83.9844 32.9766C 84.6979 32.9766 85.2266 32.7005 85.5703 32.1484C 85.9193 31.5964 86.1016 30.7266 86.1172 29.5391L 86.1172 27.1719ZM 96.5469 29.1484C 96.5469 30.8411 96.2578 32.099 95.6797 32.9219C 95.1016 33.7448 94.1979 34.1562 92.9688 34.1562C 91.7552 34.1562 90.8568 33.7552 90.2734 32.9531C 89.6901 32.1458 89.388 30.9427 89.3672 29.3438L 89.3672 27.4141C 89.3672 25.7422 89.6562 24.5 90.2344 23.6875C 90.8125 22.875 91.7188 22.4688 92.9531 22.4688C 94.1771 22.4688 95.0781 22.862 95.6562 23.6484C 96.2344 24.4297 96.5312 25.638 96.5469 27.2734L 96.5469 29.1484ZM 95.1016 27.1719C 95.1016 25.9479 94.9297 25.0573 94.5859 24.5C 94.2422 23.9375 93.6979 23.6562 92.9531 23.6562C 92.2135 23.6562 91.6745 23.9349 91.3359 24.4922C 90.9974 25.0495 90.8229 25.9062 90.8125 27.0625L 90.8125 29.375C 90.8125 30.6042 90.9896 31.513 91.3438 32.1016C 91.7031 32.6849 92.2448 32.9766 92.9688 32.9766C 93.6823 32.9766 94.2109 32.7005 94.5547 32.1484C 94.9036 31.5964 95.0859 30.7266 95.1016 29.5391L 95.1016 27.1719Z"/>
<path id="path2_fill" d="M 3.04688 8.60938L 4.13281 8.60938C 4.8151 8.59896 5.35156 8.41927 5.74219 8.07031C 6.13281 7.72135 6.32812 7.25 6.32812 6.65625C 6.32812 5.32292 5.66406 4.65625 4.33594 4.65625C 3.71094 4.65625 3.21094 4.83594 2.83594 5.19531C 2.46615 5.54948 2.28125 6.02083 2.28125 6.60938L 0.835938 6.60938C 0.835938 5.70833 1.16406 4.96094 1.82031 4.36719C 2.48177 3.76823 3.32031 3.46875 4.33594 3.46875C 5.40885 3.46875 6.25 3.7526 6.85938 4.32031C 7.46875 4.88802 7.77344 5.67708 7.77344 6.6875C 7.77344 7.18229 7.61198 7.66146 7.28906 8.125C 6.97135 8.58854 6.53646 8.9349 5.98438 9.16406C 6.60938 9.36198 7.09115 9.6901 7.42969 10.1484C 7.77344 10.6068 7.94531 11.1667 7.94531 11.8281C 7.94531 12.849 7.61198 13.6589 6.94531 14.2578C 6.27865 14.8568 5.41146 15.1562 4.34375 15.1562C 3.27604 15.1562 2.40625 14.8672 1.73438 14.2891C 1.06771 13.7109 0.734375 12.9479 0.734375 12L 2.1875 12C 2.1875 12.599 2.38281 13.0781 2.77344 13.4375C 3.16406 13.7969 3.6875 13.9766 4.34375 13.9766C 5.04167 13.9766 5.57552 13.7943 5.94531 13.4297C 6.3151 13.0651 6.5 12.5417 6.5 11.8594C 6.5 11.1979 6.29688 10.6901 5.89062 10.3359C 5.48438 9.98177 4.89844 9.79948 4.13281 9.78906L 3.04688 9.78906L 3.04688 8.60938ZM 17.0625 10.1484C 17.0625 11.8411 16.7734 13.099 16.1953 13.9219C 15.6172 14.7448 14.7135 15.1562 13.4844 15.1562C 12.2708 15.1562 11.3724 14.7552 10.7891 13.9531C 10.2057 13.1458 9.90365 11.9427 9.88281 10.3438L 9.88281 8.41406C 9.88281 6.74219 10.1719 5.5 10.75 4.6875C 11.3281 3.875 12.2344 3.46875 13.4688 3.46875C 14.6927 3.46875 15.5938 3.86198 16.1719 4.64844C 16.75 5.42969 17.0469 6.63802 17.0625 8.27344L 17.0625 10.1484ZM 15.6172 8.17188C 15.6172 6.94792 15.4453 6.05729 15.1016 5.5C 14.7578 4.9375 14.2135 4.65625 13.4688 4.65625C 12.7292 4.65625 12.1901 4.9349 11.8516 5.49219C 11.513 6.04948 11.3385 6.90625 11.3281 8.0625L 11.3281 10.375C 11.3281 11.6042 11.5052 12.513 11.8594 13.1016C 12.2188 13.6849 12.7604 13.9766 13.4844 13.9766C 14.1979 13.9766 14.7266 13.7005 15.0703 13.1484C 15.4193 12.5964 15.6016 11.7266 15.6172 10.5391L 15.6172 8.17188ZM 33.9766 10.7578L 30.1641 10.7578L 30.1641 9.57812L 33.9766 9.57812L 33.9766 10.7578ZM 39.9922 15L 38.5391 15L 38.5391 5.36719L 35.625 6.4375L 35.625 5.125L 39.7656 3.57031L 39.9922 3.57031L 39.9922 15ZM 63.2578 10.7578L 59.4453 10.7578L 59.4453 9.57812L 63.2578 9.57812L 63.2578 10.7578ZM 69.2734 15L 67.8203 15L 67.8203 5.36719L 64.9062 6.4375L 64.9062 5.125L 69.0469 3.57031L 69.2734 3.57031L 69.2734 15ZM 80.6406 10.1484C 80.6406 11.8411 80.3516 13.099 79.7734 13.9219C 79.1953 14.7448 78.2917 15.1562 77.0625 15.1562C 75.849 15.1562 74.9505 14.7552 74.3672 13.9531C 73.7839 13.1458 73.4818 11.9427 73.4609 10.3438L 73.4609 8.41406C 73.4609 6.74219 73.75 5.5 74.3281 4.6875C 74.9062 3.875 75.8125 3.46875 77.0469 3.46875C 78.2708 3.46875 79.1719 3.86198 79.75 4.64844C 80.3281 5.42969 80.625 6.63802 80.6406 8.27344L 80.6406 10.1484ZM 79.1953 8.17188C 79.1953 6.94792 79.0234 6.05729 78.6797 5.5C 78.3359 4.9375 77.7917 4.65625 77.0469 4.65625C 76.3073 4.65625 75.7682 4.9349 75.4297 5.49219C 75.0911 6.04948 74.9167 6.90625 74.9062 8.0625L 74.9062 10.375C 74.9062 11.6042 75.0833 12.513 75.4375 13.1016C 75.7969 13.6849 76.3385 13.9766 77.0625 13.9766C 77.776 13.9766 78.3047 13.7005 78.6484 13.1484C 78.9974 12.5964 79.1797 11.7266 79.1953 10.5391L 79.1953 8.17188ZM 89.625 10.1484C 89.625 11.8411 89.3359 13.099 88.7578 13.9219C 88.1797 14.7448 87.276 15.1562 86.0469 15.1562C 84.8333 15.1562 83.9349 14.7552 83.3516 13.9531C 82.7682 13.1458 82.4661 11.9427 82.4453 10.3438L 82.4453 8.41406C 82.4453 6.74219 82.7344 5.5 83.3125 4.6875C 83.8906 3.875 84.7969 3.46875 86.0312 3.46875C 87.2552 3.46875 88.1562 3.86198 88.7344 4.64844C 89.3125 5.42969 89.6094 6.63802 89.625 8.27344L 89.625 10.1484ZM 88.1797 8.17188C 88.1797 6.94792 88.0078 6.05729 87.6641 5.5C 87.3203 4.9375 86.776 4.65625 86.0312 4.65625C 85.2917 4.65625 84.7526 4.9349 84.4141 5.49219C 84.0755 6.04948 83.901 6.90625 83.8906 8.0625L 83.8906 10.375C 83.8906 11.6042 84.0677 12.513 84.4219 13.1016C 84.7812 13.6849 85.3229 13.9766 86.0469 13.9766C 86.7604 13.9766 87.2891 13.7005 87.6328 13.1484C 87.9818 12.5964 88.1641 11.7266 88.1797 10.5391L 88.1797 8.17188ZM 98.6094 10.1484C 98.6094 11.8411 98.3203 13.099 97.7422 13.9219C 97.1641 14.7448 96.2604 15.1562 95.0312 15.1562C 93.8177 15.1562 92.9193 14.7552 92.3359 13.9531C 91.7526 13.1458 91.4505 11.9427 91.4297 10.3438L 91.4297 8.41406C 91.4297 6.74219 91.7188 5.5 92.2969 4.6875C 92.875 3.875 93.7812 3.46875 95.0156 3.46875C 96.2396 3.46875 97.1406 3.86198 97.7188 4.64844C 98.2969 5.42969 98.5938 6.63802 98.6094 8.27344L 98.6094 10.1484ZM 97.1641 8.17188C 97.1641 6.94792 96.9922 6.05729 96.6484 5.5C 96.3047 4.9375 95.7604 4.65625 95.0156 4.65625C 94.276 4.65625 93.737 4.9349 93.3984 5.49219C 93.0599 6.04948 92.8854 6.90625 92.875 8.0625L 92.875 10.375C 92.875 11.6042 93.0521 12.513 93.4062 13.1016C 93.7656 13.6849 94.3073 13.9766 95.0312 13.9766C 95.7448 13.9766 96.2734 13.7005 96.6172 13.1484C 96.9661 12.5964 97.1484 11.7266 97.1641 10.5391L 97.1641 8.17188ZM 1.60938 28.2969L 2.1875 22.625L 8.01562 22.625L 8.01562 23.9609L 3.41406 23.9609L 3.07031 27.0625C 3.6276 26.7344 4.26042 26.5703 4.96875 26.5703C 6.00521 26.5703 6.82812 26.9141 7.4375 27.6016C 8.04688 28.2839 8.35156 29.2083 8.35156 30.375C 8.35156 31.5469 8.03385 32.4714 7.39844 33.1484C 6.76823 33.8203 5.88542 34.1562 4.75 34.1562C 3.74479 34.1562 2.92448 33.8776 2.28906 33.3203C 1.65365 32.763 1.29167 31.9922 1.20312 31.0078L 2.57031 31.0078C 2.65885 31.6589 2.89062 32.151 3.26562 32.4844C 3.64062 32.8125 4.13542 32.9766 4.75 32.9766C 5.42188 32.9766 5.94792 32.7474 6.32812 32.2891C 6.71354 31.8307 6.90625 31.1979 6.90625 30.3906C 6.90625 29.6302 6.69792 29.0208 6.28125 28.5625C 5.86979 28.099 5.32031 27.8672 4.63281 27.8672C 4.0026 27.8672 3.50781 28.0052 3.14844 28.2812L 2.76562 28.5938L 1.60938 28.2969ZM 17.0625 29.1484C 17.0625 30.8411 16.7734 32.099 16.1953 32.9219C 15.6172 33.7448 14.7135 34.1562 13.4844 34.1562C 12.2708 34.1562 11.3724 33.7552 10.7891 32.9531C 10.2057 32.1458 9.90365 30.9427 9.88281 29.3438L 9.88281 27.4141C 9.88281 25.7422 10.1719 24.5 10.75 23.6875C 11.3281 22.875 12.2344 22.4688 13.4688 22.4688C 14.6927 22.4688 15.5938 22.862 16.1719 23.6484C 16.75 24.4297 17.0469 25.638 17.0625 27.2734L 17.0625 29.1484ZM 15.6172 27.1719C 15.6172 25.9479 15.4453 25.0573 15.1016 24.5C 14.7578 23.9375 14.2135 23.6562 13.4688 23.6562C 12.7292 23.6562 12.1901 23.9349 11.8516 24.4922C 11.513 25.0495 11.3385 25.9062 11.3281 27.0625L 11.3281 29.375C 11.3281 30.6042 11.5052 31.513 11.8594 32.1016C 12.2188 32.6849 12.7604 32.9766 13.4844 32.9766C 14.1979 32.9766 14.7266 32.7005 15.0703 32.1484C 15.4193 31.5964 15.6016 30.7266 15.6172 29.5391L 15.6172 27.1719ZM 33.9766 29.7578L 30.1641 29.7578L 30.1641 28.5781L 33.9766 28.5781L 33.9766 29.7578ZM 39.9922 34L 38.5391 34L 38.5391 24.3672L 35.625 25.4375L 35.625 24.125L 39.7656 22.5703L 39.9922 22.5703L 39.9922 34ZM 63.2578 29.7578L 59.4453 29.7578L 59.4453 28.5781L 63.2578 28.5781L 63.2578 29.7578ZM 69.2734 34L 67.8203 34L 67.8203 24.3672L 64.9062 25.4375L 64.9062 24.125L 69.0469 22.5703L 69.2734 22.5703L 69.2734 34ZM 80.6406 29.1484C 80.6406 30.8411 80.3516 32.099 79.7734 32.9219C 79.1953 33.7448 78.2917 34.1562 77.0625 34.1562C 75.849 34.1562 74.9505 33.7552 74.3672 32.9531C 73.7839 32.1458 73.4818 30.9427 73.4609 29.3438L 73.4609 27.4141C 73.4609 25.7422 73.75 24.5 74.3281 23.6875C 74.9062 22.875 75.8125 22.4688 77.0469 22.4688C 78.2708 22.4688 79.1719 22.862 79.75 23.6484C 80.3281 24.4297 80.625 25.638 80.6406 27.2734L 80.6406 29.1484ZM 79.1953 27.1719C 79.1953 25.9479 79.0234 25.0573 78.6797 24.5C 78.3359 23.9375 77.7917 23.6562 77.0469 23.6562C 76.3073 23.6562 75.7682 23.9349 75.4297 24.4922C 75.0911 25.0495 74.9167 25.9062 74.9062 27.0625L 74.9062 29.375C 74.9062 30.6042 75.0833 31.513 75.4375 32.1016C 75.7969 32.6849 76.3385 32.9766 77.0625 32.9766C 77.776 32.9766 78.3047 32.7005 78.6484 32.1484C 78.9974 31.5964 79.1797 30.7266 79.1953 29.5391L 79.1953 27.1719ZM 89.625 29.1484C 89.625 30.8411 89.3359 32.099 88.7578 32.9219C 88.1797 33.7448 87.276 34.1562 86.0469 34.1562C 84.8333 34.1562 83.9349 33.7552 83.3516 32.9531C 82.7682 32.1458 82.4661 30.9427 82.4453 29.3438L 82.4453 27.4141C 82.4453 25.7422 82.7344 24.5 83.3125 23.6875C 83.8906 22.875 84.7969 22.4688 86.0312 22.4688C 87.2552 22.4688 88.1562 22.862 88.7344 23.6484C 89.3125 24.4297 89.6094 25.638 89.625 27.2734L 89.625 29.1484ZM 88.1797 27.1719C 88.1797 25.9479 88.0078 25.0573 87.6641 24.5C 87.3203 23.9375 86.776 23.6562 86.0312 23.6562C 85.2917 23.6562 84.7526 23.9349 84.4141 24.4922C 84.0755 25.0495 83.901 25.9062 83.8906 27.0625L 83.8906 29.375C 83.8906 30.6042 84.0677 31.513 84.4219 32.1016C 84.7812 32.6849 85.3229 32.9766 86.0469 32.9766C 86.7604 32.9766 87.2891 32.7005 87.6328 32.1484C 87.9818 31.5964 88.1641 30.7266 88.1797 29.5391L 88.1797 27.1719Z"/>
<path id="path3_stroke" d="M 0 -5.55112e-17L 49 -5.55112e-17L 49 -1L 0 -1L 0 -5.55112e-17Z"/>
<path id="path4_stroke" d="M 0 0L 6 0L 6 -1L 0 -1L 0 0Z"/>
<path id="path5_stroke" d="M 0 0L 48 0L 48 -1L 0 -1L 0 0Z"/>
<path id="path6_stroke" d="M 0 0L 43 0L 43 -1L 0 -1L 0 0Z"/>
<path id="path7_fill" d="M 5.07812 9.92969C 3.79167 9.5599 2.85417 9.10677 2.26562 8.57031C 1.68229 8.02865 1.39062 7.36198 1.39062 6.57031C 1.39062 5.67448 1.7474 4.9349 2.46094 4.35156C 3.17969 3.76302 4.11198 3.46875 5.25781 3.46875C 6.03906 3.46875 6.73438 3.61979 7.34375 3.92188C 7.95833 4.22396 8.43229 4.64062 8.76562 5.17188C 9.10417 5.70312 9.27344 6.28385 9.27344 6.91406L 7.76562 6.91406C 7.76562 6.22656 7.54688 5.6875 7.10938 5.29688C 6.67188 4.90104 6.05469 4.70312 5.25781 4.70312C 4.51823 4.70312 3.9401 4.86719 3.52344 5.19531C 3.11198 5.51823 2.90625 5.96875 2.90625 6.54688C 2.90625 7.01042 3.10156 7.40365 3.49219 7.72656C 3.88802 8.04427 4.55729 8.33594 5.5 8.60156C 6.44792 8.86719 7.1875 9.16146 7.71875 9.48438C 8.25521 9.80208 8.65104 10.1745 8.90625 10.6016C 9.16667 11.0286 9.29688 11.5312 9.29688 12.1094C 9.29688 13.0312 8.9375 13.7708 8.21875 14.3281C 7.5 14.8802 6.53906 15.1562 5.33594 15.1562C 4.55469 15.1562 3.82552 15.0078 3.14844 14.7109C 2.47135 14.4089 1.94792 13.9974 1.57812 13.4766C 1.21354 12.9557 1.03125 12.3646 1.03125 11.7031L 2.53906 11.7031C 2.53906 12.3906 2.79167 12.9349 3.29688 13.3359C 3.80729 13.7318 4.48698 13.9297 5.33594 13.9297C 6.1276 13.9297 6.73438 13.7682 7.15625 13.4453C 7.57812 13.1224 7.78906 12.6823 7.78906 12.125C 7.78906 11.5677 7.59375 11.138 7.20312 10.8359C 6.8125 10.5286 6.10417 10.2266 5.07812 9.92969ZM 12.5703 15L 11.125 15L 11.125 3L 12.5703 3L 12.5703 15ZM 14.5078 10.6953C 14.5078 9.86719 14.6693 9.1224 14.9922 8.46094C 15.3203 7.79948 15.7734 7.28906 16.3516 6.92969C 16.9349 6.57031 17.599 6.39062 18.3438 6.39062C 19.4948 6.39062 20.4245 6.78906 21.1328 7.58594C 21.8464 8.38281 22.2031 9.44271 22.2031 10.7656L 22.2031 10.8672C 22.2031 11.6901 22.0443 12.4297 21.7266 13.0859C 21.4141 13.737 20.9635 14.2448 20.375 14.6094C 19.7917 14.974 19.1198 15.1562 18.3594 15.1562C 17.2135 15.1562 16.2839 14.7578 15.5703 13.9609C 14.862 13.1641 14.5078 12.1094 14.5078 10.7969L 14.5078 10.6953ZM 15.9609 10.8672C 15.9609 11.8047 16.1771 12.5573 16.6094 13.125C 17.0469 13.6927 17.6302 13.9766 18.3594 13.9766C 19.0938 13.9766 19.6771 13.6901 20.1094 13.1172C 20.5417 12.5391 20.7578 11.7318 20.7578 10.6953C 20.7578 9.76823 20.5365 9.01823 20.0938 8.44531C 19.6562 7.86719 19.0729 7.57812 18.3438 7.57812C 17.6302 7.57812 17.0547 7.86198 16.6172 8.42969C 16.1797 8.9974 15.9609 9.8099 15.9609 10.8672ZM 31.1562 10.8672C 31.1562 12.1536 30.862 13.1901 30.2734 13.9766C 29.6849 14.763 28.888 15.1562 27.8828 15.1562C 26.8568 15.1562 26.0495 14.8307 25.4609 14.1797L 25.4609 18.25L 24.0156 18.25L 24.0156 6.54688L 25.3359 6.54688L 25.4062 7.48438C 25.9948 6.75521 26.8125 6.39062 27.8594 6.39062C 28.875 6.39062 29.6771 6.77344 30.2656 7.53906C 30.8594 8.30469 31.1562 9.36979 31.1562 10.7344L 31.1562 10.8672ZM 29.7109 10.7031C 29.7109 9.75 29.5078 8.9974 29.1016 8.44531C 28.6953 7.89323 28.138 7.61719 27.4297 7.61719C 26.5547 7.61719 25.8984 8.00521 25.4609 8.78125L 25.4609 12.8203C 25.8932 13.5911 26.5547 13.9766 27.4453 13.9766C 28.138 13.9766 28.6875 13.7031 29.0938 13.1562C 29.5052 12.6042 29.7109 11.7865 29.7109 10.7031ZM 36.5078 15.1562C 35.362 15.1562 34.4297 14.7812 33.7109 14.0312C 32.9922 13.276 32.6328 12.2682 32.6328 11.0078L 32.6328 10.7422C 32.6328 9.90365 32.7917 9.15625 33.1094 8.5C 33.4323 7.83854 33.8802 7.32292 34.4531 6.95312C 35.0312 6.57812 35.6562 6.39062 36.3281 6.39062C 37.4271 6.39062 38.2812 6.7526 38.8906 7.47656C 39.5 8.20052 39.8047 9.23698 39.8047 10.5859L 39.8047 11.1875L 34.0781 11.1875C 34.099 12.0208 34.3411 12.6953 34.8047 13.2109C 35.2734 13.7214 35.8672 13.9766 36.5859 13.9766C 37.0964 13.9766 37.5286 13.8724 37.8828 13.6641C 38.237 13.4557 38.5469 13.1797 38.8125 12.8359L 39.6953 13.5234C 38.987 14.612 37.9245 15.1562 36.5078 15.1562ZM 36.3281 7.57812C 35.7448 7.57812 35.2552 7.79167 34.8594 8.21875C 34.4635 8.64062 34.2188 9.23438 34.125 10L 38.3594 10L 38.3594 9.89062C 38.3177 9.15625 38.1198 8.58854 37.7656 8.1875C 37.4115 7.78125 36.9323 7.57812 36.3281 7.57812ZM 44.4922 10.7578L 40.6797 10.7578L 40.6797 9.57812L 44.4922 9.57812L 44.4922 10.7578ZM 47.4766 15L 46.0312 15L 46.0312 6.54688L 47.4766 6.54688L 47.4766 15ZM 45.9141 4.30469C 45.9141 4.07031 45.9844 3.8724 46.125 3.71094C 46.2708 3.54948 46.4844 3.46875 46.7656 3.46875C 47.0469 3.46875 47.2604 3.54948 47.4062 3.71094C 47.5521 3.8724 47.625 4.07031 47.625 4.30469C 47.625 4.53906 47.5521 4.73438 47.4062 4.89062C 47.2604 5.04688 47.0469 5.125 46.7656 5.125C 46.4844 5.125 46.2708 5.04688 46.125 4.89062C 45.9844 4.73438 45.9141 4.53906 45.9141 4.30469ZM 51.1641 6.54688L 51.2109 7.60938C 51.8568 6.79688 52.7005 6.39062 53.7422 6.39062C 55.5286 6.39062 56.4297 7.39844 56.4453 9.41406L 56.4453 15L 55 15L 55 9.40625C 54.9948 8.79688 54.8542 8.34635 54.5781 8.05469C 54.3073 7.76302 53.8828 7.61719 53.3047 7.61719C 52.8359 7.61719 52.4245 7.74219 52.0703 7.99219C 51.7161 8.24219 51.4401 8.57031 51.2422 8.97656L 51.2422 15L 49.7969 15L 49.7969 6.54688L 51.1641 6.54688ZM 60.5859 4.5L 60.5859 6.54688L 62.1641 6.54688L 62.1641 7.66406L 60.5859 7.66406L 60.5859 12.9062C 60.5859 13.2448 60.6562 13.5 60.7969 13.6719C 60.9375 13.8385 61.1771 13.9219 61.5156 13.9219C 61.6823 13.9219 61.9115 13.8906 62.2031 13.8281L 62.2031 15C 61.8229 15.1042 61.4531 15.1562 61.0938 15.1562C 60.4479 15.1562 59.9609 14.9609 59.6328 14.5703C 59.3047 14.1797 59.1406 13.625 59.1406 12.9062L 59.1406 7.66406L 57.6016 7.66406L 57.6016 6.54688L 59.1406 6.54688L 59.1406 4.5L 60.5859 4.5ZM 67.3672 15.1562C 66.2214 15.1562 65.2891 14.7812 64.5703 14.0312C 63.8516 13.276 63.4922 12.2682 63.4922 11.0078L 63.4922 10.7422C 63.4922 9.90365 63.651 9.15625 63.9688 8.5C 64.2917 7.83854 64.7396 7.32292 65.3125 6.95312C 65.8906 6.57812 66.5156 6.39062 67.1875 6.39062C 68.2865 6.39062 69.1406 6.7526 69.75 7.47656C 70.3594 8.20052 70.6641 9.23698 70.6641 10.5859L 70.6641 11.1875L 64.9375 11.1875C 64.9583 12.0208 65.2005 12.6953 65.6641 13.2109C 66.1328 13.7214 66.7266 13.9766 67.4453 13.9766C 67.9557 13.9766 68.388 13.8724 68.7422 13.6641C 69.0964 13.4557 69.4062 13.1797 69.6719 12.8359L 70.5547 13.5234C 69.8464 14.612 68.7839 15.1562 67.3672 15.1562ZM 67.1875 7.57812C 66.6042 7.57812 66.1146 7.79167 65.7188 8.21875C 65.3229 8.64062 65.0781 9.23438 64.9844 10L 69.2188 10L 69.2188 9.89062C 69.1771 9.15625 68.9792 8.58854 68.625 8.1875C 68.2708 7.78125 67.7917 7.57812 67.1875 7.57812ZM 76.4297 7.84375C 76.2109 7.80729 75.974 7.78906 75.7188 7.78906C 74.7708 7.78906 74.1276 8.19271 73.7891 9L 73.7891 15L 72.3438 15L 72.3438 6.54688L 73.75 6.54688L 73.7734 7.52344C 74.2474 6.76823 74.9193 6.39062 75.7891 6.39062C 76.0703 6.39062 76.2839 6.42708 76.4297 6.5L 76.4297 7.84375ZM 81 13.9766C 81.5156 13.9766 81.9661 13.8203 82.3516 13.5078C 82.737 13.1953 82.9505 12.8047 82.9922 12.3359L 84.3594 12.3359C 84.3333 12.8203 84.1667 13.2812 83.8594 13.7188C 83.5521 14.1562 83.1406 14.5052 82.625 14.7656C 82.1146 15.026 81.5729 15.1562 81 15.1562C 79.849 15.1562 78.9323 14.7734 78.25 14.0078C 77.5729 13.237 77.2344 12.1849 77.2344 10.8516L 77.2344 10.6094C 77.2344 9.78646 77.3854 9.05469 77.6875 8.41406C 77.9896 7.77344 78.4219 7.27604 78.9844 6.92188C 79.5521 6.56771 80.2214 6.39062 80.9922 6.39062C 81.9401 6.39062 82.7266 6.67448 83.3516 7.24219C 83.9818 7.8099 84.3177 8.54688 84.3594 9.45312L 82.9922 9.45312C 82.9505 8.90625 82.7422 8.45833 82.3672 8.10938C 81.9974 7.75521 81.5391 7.57812 80.9922 7.57812C 80.2578 7.57812 79.6875 7.84375 79.2812 8.375C 78.8802 8.90104 78.6797 9.66406 78.6797 10.6641L 78.6797 10.9375C 78.6797 11.9115 78.8802 12.6615 79.2812 13.1875C 79.6823 13.7135 80.2552 13.9766 81 13.9766ZM 89.4922 15.1562C 88.3464 15.1562 87.4141 14.7812 86.6953 14.0312C 85.9766 13.276 85.6172 12.2682 85.6172 11.0078L 85.6172 10.7422C 85.6172 9.90365 85.776 9.15625 86.0938 8.5C 86.4167 7.83854 86.8646 7.32292 87.4375 6.95312C 88.0156 6.57812 88.6406 6.39062 89.3125 6.39062C 90.4115 6.39062 91.2656 6.7526 91.875 7.47656C 92.4844 8.20052 92.7891 9.23698 92.7891 10.5859L 92.7891 11.1875L 87.0625 11.1875C 87.0833 12.0208 87.3255 12.6953 87.7891 13.2109C 88.2578 13.7214 88.8516 13.9766 89.5703 13.9766C 90.0807 13.9766 90.513 13.8724 90.8672 13.6641C 91.2214 13.4557 91.5312 13.1797 91.7969 12.8359L 92.6797 13.5234C 91.9714 14.612 90.9089 15.1562 89.4922 15.1562ZM 89.3125 7.57812C 88.7292 7.57812 88.2396 7.79167 87.8438 8.21875C 87.4479 8.64062 87.2031 9.23438 87.1094 10L 91.3438 10L 91.3438 9.89062C 91.3021 9.15625 91.1042 8.58854 90.75 8.1875C 90.3958 7.78125 89.9167 7.57812 89.3125 7.57812ZM 101.609 10.8672C 101.609 12.1536 101.315 13.1901 100.727 13.9766C 100.138 14.763 99.3411 15.1562 98.3359 15.1562C 97.3099 15.1562 96.5026 14.8307 95.9141 14.1797L 95.9141 18.25L 94.4688 18.25L 94.4688 6.54688L 95.7891 6.54688L 95.8594 7.48438C 96.4479 6.75521 97.2656 6.39062 98.3125 6.39062C 99.3281 6.39062 100.13 6.77344 100.719 7.53906C 101.312 8.30469 101.609 9.36979 101.609 10.7344L 101.609 10.8672ZM 100.164 10.7031C 100.164 9.75 99.9609 8.9974 99.5547 8.44531C 99.1484 7.89323 98.5911 7.61719 97.8828 7.61719C 97.0078 7.61719 96.3516 8.00521 95.9141 8.78125L 95.9141 12.8203C 96.3464 13.5911 97.0078 13.9766 97.8984 13.9766C 98.5911 13.9766 99.1406 13.7031 99.5469 13.1562C 99.9583 12.6042 100.164 11.7865 100.164 10.7031ZM 105.414 4.5L 105.414 6.54688L 106.992 6.54688L 106.992 7.66406L 105.414 7.66406L 105.414 12.9062C 105.414 13.2448 105.484 13.5 105.625 13.6719C 105.766 13.8385 106.005 13.9219 106.344 13.9219C 106.51 13.9219 106.74 13.8906 107.031 13.8281L 107.031 15C 106.651 15.1042 106.281 15.1562 105.922 15.1562C 105.276 15.1562 104.789 14.9609 104.461 14.5703C 104.133 14.1797 103.969 13.625 103.969 12.9062L 103.969 7.66406L 102.43 7.66406L 102.43 6.54688L 103.969 6.54688L 103.969 4.5L 105.414 4.5ZM 38.7344 34L 38.7344 26.6641L 37.3984 26.6641L 37.3984 25.5469L 38.7344 25.5469L 38.7344 24.6797C 38.7344 23.7734 38.9766 23.0729 39.4609 22.5781C 39.9453 22.0833 40.6302 21.8359 41.5156 21.8359C 41.849 21.8359 42.1797 21.8802 42.5078 21.9688L 42.4297 23.1406C 42.1849 23.0938 41.9245 23.0703 41.6484 23.0703C 41.1797 23.0703 40.8177 23.2083 40.5625 23.4844C 40.3073 23.7552 40.1797 24.1458 40.1797 24.6562L 40.1797 25.5469L 41.9844 25.5469L 41.9844 26.6641L 40.1797 26.6641L 40.1797 34L 38.7344 34ZM 43.2031 29.6953C 43.2031 28.8672 43.3646 28.1224 43.6875 27.4609C 44.0156 26.7995 44.4688 26.2891 45.0469 25.9297C 45.6302 25.5703 46.2943 25.3906 47.0391 25.3906C 48.1901 25.3906 49.1198 25.7891 49.8281 26.5859C 50.5417 27.3828 50.8984 28.4427 50.8984 29.7656L 50.8984 29.8672C 50.8984 30.6901 50.7396 31.4297 50.4219 32.0859C 50.1094 32.737 49.6589 33.2448 49.0703 33.6094C 48.487 33.974 47.8151 34.1562 47.0547 34.1562C 45.9089 34.1562 44.9792 33.7578 44.2656 32.9609C 43.5573 32.1641 43.2031 31.1094 43.2031 29.7969L 43.2031 29.6953ZM 44.6562 29.8672C 44.6562 30.8047 44.8724 31.5573 45.3047 32.125C 45.7422 32.6927 46.3255 32.9766 47.0547 32.9766C 47.7891 32.9766 48.3724 32.6901 48.8047 32.1172C 49.237 31.5391 49.4531 30.7318 49.4531 29.6953C 49.4531 28.7682 49.2318 28.0182 48.7891 27.4453C 48.3516 26.8672 47.7682 26.5781 47.0391 26.5781C 46.3255 26.5781 45.75 26.862 45.3125 27.4297C 44.875 27.9974 44.6562 28.8099 44.6562 29.8672ZM 56.7969 26.8438C 56.5781 26.8073 56.3411 26.7891 56.0859 26.7891C 55.138 26.7891 54.4948 27.1927 54.1562 28L 54.1562 34L 52.7109 34L 52.7109 25.5469L 54.1172 25.5469L 54.1406 26.5234C 54.6146 25.7682 55.2865 25.3906 56.1562 25.3906C 56.4375 25.3906 56.651 25.4271 56.7969 25.5L 56.7969 26.8438ZM 59.4922 25.5469L 59.5312 26.4844C 60.151 25.7552 60.987 25.3906 62.0391 25.3906C 63.2214 25.3906 64.026 25.8438 64.4531 26.75C 64.7344 26.3438 65.099 26.0156 65.5469 25.7656C 66 25.5156 66.5339 25.3906 67.1484 25.3906C 69.0026 25.3906 69.9453 26.3724 69.9766 28.3359L 69.9766 34L 68.5312 34L 68.5312 28.4219C 68.5312 27.8177 68.3932 27.3672 68.1172 27.0703C 67.8411 26.7682 67.3776 26.6172 66.7266 26.6172C 66.1901 26.6172 65.7448 26.7786 65.3906 27.1016C 65.0365 27.4193 64.8307 27.849 64.7734 28.3906L 64.7734 34L 63.3203 34L 63.3203 28.4609C 63.3203 27.2318 62.7188 26.6172 61.5156 26.6172C 60.5677 26.6172 59.9193 27.0208 59.5703 27.8281L 59.5703 34L 58.125 34L 58.125 25.5469L 59.4922 25.5469Z"/>
<path id="path8_fill" d="M 10.0156 13.5078C 9.63021 14.0599 9.09115 14.474 8.39844 14.75C 7.71094 15.0208 6.90885 15.1562 5.99219 15.1562C 5.0651 15.1562 4.24219 14.9401 3.52344 14.5078C 2.80469 14.0703 2.2474 13.4505 1.85156 12.6484C 1.46094 11.8464 1.26042 10.9167 1.25 9.85938L 1.25 8.86719C 1.25 7.15365 1.64844 5.82552 2.44531 4.88281C 3.2474 3.9401 4.3724 3.46875 5.82031 3.46875C 7.00781 3.46875 7.96354 3.77344 8.6875 4.38281C 9.41146 4.98698 9.85417 5.84635 10.0156 6.96094L 8.51562 6.96094C 8.23438 5.45573 7.33854 4.70312 5.82812 4.70312C 4.82292 4.70312 4.0599 5.05729 3.53906 5.76562C 3.02344 6.46875 2.76302 7.48958 2.75781 8.82812L 2.75781 9.75781C 2.75781 11.0339 3.04948 12.0495 3.63281 12.8047C 4.21615 13.5547 5.00521 13.9297 6 13.9297C 6.5625 13.9297 7.05469 13.8672 7.47656 13.7422C 7.89844 13.6172 8.2474 13.4062 8.52344 13.1094L 8.52344 10.5547L 5.89062 10.5547L 5.89062 9.33594L 10.0156 9.33594L 10.0156 13.5078ZM 15.8047 15.1562C 14.6589 15.1562 13.7266 14.7812 13.0078 14.0312C 12.2891 13.276 11.9297 12.2682 11.9297 11.0078L 11.9297 10.7422C 11.9297 9.90365 12.0885 9.15625 12.4062 8.5C 12.7292 7.83854 13.1771 7.32292 13.75 6.95312C 14.3281 6.57812 14.9531 6.39062 15.625 6.39062C 16.724 6.39062 17.5781 6.7526 18.1875 7.47656C 18.7969 8.20052 19.1016 9.23698 19.1016 10.5859L 19.1016 11.1875L 13.375 11.1875C 13.3958 12.0208 13.638 12.6953 14.1016 13.2109C 14.5703 13.7214 15.1641 13.9766 15.8828 13.9766C 16.3932 13.9766 16.8255 13.8724 17.1797 13.6641C 17.5339 13.4557 17.8438 13.1797 18.1094 12.8359L 18.9922 13.5234C 18.2839 14.612 17.2214 15.1562 15.8047 15.1562ZM 15.625 7.57812C 15.0417 7.57812 14.5521 7.79167 14.1562 8.21875C 13.7604 8.64062 13.5156 9.23438 13.4219 10L 17.6562 10L 17.6562 9.89062C 17.6146 9.15625 17.4167 8.58854 17.0625 8.1875C 16.7083 7.78125 16.2292 7.57812 15.625 7.57812ZM 22.1484 6.54688L 22.1953 7.60938C 22.8411 6.79688 23.6849 6.39062 24.7266 6.39062C 26.513 6.39062 27.4141 7.39844 27.4297 9.41406L 27.4297 15L 25.9844 15L 25.9844 9.40625C 25.9792 8.79688 25.8385 8.34635 25.5625 8.05469C 25.2917 7.76302 24.8672 7.61719 24.2891 7.61719C 23.8203 7.61719 23.4089 7.74219 23.0547 7.99219C 22.7005 8.24219 22.4245 8.57031 22.2266 8.97656L 22.2266 15L 20.7812 15L 20.7812 6.54688L 22.1484 6.54688ZM 33.1172 15.1562C 31.9714 15.1562 31.0391 14.7812 30.3203 14.0312C 29.6016 13.276 29.2422 12.2682 29.2422 11.0078L 29.2422 10.7422C 29.2422 9.90365 29.401 9.15625 29.7188 8.5C 30.0417 7.83854 30.4896 7.32292 31.0625 6.95312C 31.6406 6.57812 32.2656 6.39062 32.9375 6.39062C 34.0365 6.39062 34.8906 6.7526 35.5 7.47656C 36.1094 8.20052 36.4141 9.23698 36.4141 10.5859L 36.4141 11.1875L 30.6875 11.1875C 30.7083 12.0208 30.9505 12.6953 31.4141 13.2109C 31.8828 13.7214 32.4766 13.9766 33.1953 13.9766C 33.7057 13.9766 34.138 13.8724 34.4922 13.6641C 34.8464 13.4557 35.1562 13.1797 35.4219 12.8359L 36.3047 13.5234C 35.5964 14.612 34.5339 15.1562 33.1172 15.1562ZM 32.9375 7.57812C 32.3542 7.57812 31.8646 7.79167 31.4688 8.21875C 31.0729 8.64062 30.8281 9.23438 30.7344 10L 34.9688 10L 34.9688 9.89062C 34.9271 9.15625 34.7292 8.58854 34.375 8.1875C 34.0208 7.78125 33.5417 7.57812 32.9375 7.57812ZM 42.1797 7.84375C 41.9609 7.80729 41.724 7.78906 41.4688 7.78906C 40.5208 7.78906 39.8776 8.19271 39.5391 9L 39.5391 15L 38.0938 15L 38.0938 6.54688L 39.5 6.54688L 39.5234 7.52344C 39.9974 6.76823 40.6693 6.39062 41.5391 6.39062C 41.8203 6.39062 42.0339 6.42708 42.1797 6.5L 42.1797 7.84375ZM 48.4219 15C 48.3385 14.8333 48.2708 14.5365 48.2188 14.1094C 47.5469 14.8073 46.7448 15.1562 45.8125 15.1562C 44.9792 15.1562 44.2943 14.9219 43.7578 14.4531C 43.2266 13.9792 42.9609 13.3802 42.9609 12.6562C 42.9609 11.776 43.2943 11.0938 43.9609 10.6094C 44.6328 10.1198 45.5755 9.875 46.7891 9.875L 48.1953 9.875L 48.1953 9.21094C 48.1953 8.70573 48.0443 8.30469 47.7422 8.00781C 47.4401 7.70573 46.9948 7.55469 46.4062 7.55469C 45.8906 7.55469 45.4583 7.6849 45.1094 7.94531C 44.7604 8.20573 44.5859 8.52083 44.5859 8.89062L 43.1328 8.89062C 43.1328 8.46875 43.2812 8.0625 43.5781 7.67188C 43.8802 7.27604 44.2865 6.96354 44.7969 6.73438C 45.3125 6.50521 45.8776 6.39062 46.4922 6.39062C 47.4661 6.39062 48.2292 6.63542 48.7812 7.125C 49.3333 7.60938 49.6198 8.27865 49.6406 9.13281L 49.6406 13.0234C 49.6406 13.7995 49.7396 14.4167 49.9375 14.875L 49.9375 15L 48.4219 15ZM 46.0234 13.8984C 46.4766 13.8984 46.9062 13.7812 47.3125 13.5469C 47.7188 13.3125 48.013 13.0078 48.1953 12.6328L 48.1953 10.8984L 47.0625 10.8984C 45.2917 10.8984 44.4062 11.4167 44.4062 12.4531C 44.4062 12.9062 44.5573 13.2604 44.8594 13.5156C 45.1615 13.7708 45.5495 13.8984 46.0234 13.8984ZM 53.4766 15L 52.0312 15L 52.0312 3L 53.4766 3L 53.4766 15ZM 12.2344 34L 12.2344 26.6641L 10.8984 26.6641L 10.8984 25.5469L 12.2344 25.5469L 12.2344 24.6797C 12.2344 23.7734 12.4766 23.0729 12.9609 22.5781C 13.4453 22.0833 14.1302 21.8359 15.0156 21.8359C 15.349 21.8359 15.6797 21.8802 16.0078 21.9688L 15.9297 23.1406C 15.6849 23.0938 15.4245 23.0703 15.1484 23.0703C 14.6797 23.0703 14.3177 23.2083 14.0625 23.4844C 13.8073 23.7552 13.6797 24.1458 13.6797 24.6562L 13.6797 25.5469L 15.4844 25.5469L 15.4844 26.6641L 13.6797 26.6641L 13.6797 34L 12.2344 34ZM 16.7031 29.6953C 16.7031 28.8672 16.8646 28.1224 17.1875 27.4609C 17.5156 26.7995 17.9688 26.2891 18.5469 25.9297C 19.1302 25.5703 19.7943 25.3906 20.5391 25.3906C 21.6901 25.3906 22.6198 25.7891 23.3281 26.5859C 24.0417 27.3828 24.3984 28.4427 24.3984 29.7656L 24.3984 29.8672C 24.3984 30.6901 24.2396 31.4297 23.9219 32.0859C 23.6094 32.737 23.1589 33.2448 22.5703 33.6094C 21.987 33.974 21.3151 34.1562 20.5547 34.1562C 19.4089 34.1562 18.4792 33.7578 17.7656 32.9609C 17.0573 32.1641 16.7031 31.1094 16.7031 29.7969L 16.7031 29.6953ZM 18.1562 29.8672C 18.1562 30.8047 18.3724 31.5573 18.8047 32.125C 19.2422 32.6927 19.8255 32.9766 20.5547 32.9766C 21.2891 32.9766 21.8724 32.6901 22.3047 32.1172C 22.737 31.5391 22.9531 30.7318 22.9531 29.6953C 22.9531 28.7682 22.7318 28.0182 22.2891 27.4453C 21.8516 26.8672 21.2682 26.5781 20.5391 26.5781C 19.8255 26.5781 19.25 26.862 18.8125 27.4297C 18.375 27.9974 18.1562 28.8099 18.1562 29.8672ZM 30.2969 26.8438C 30.0781 26.8073 29.8411 26.7891 29.5859 26.7891C 28.638 26.7891 27.9948 27.1927 27.6562 28L 27.6562 34L 26.2109 34L 26.2109 25.5469L 27.6172 25.5469L 27.6406 26.5234C 28.1146 25.7682 28.7865 25.3906 29.6562 25.3906C 29.9375 25.3906 30.151 25.4271 30.2969 25.5L 30.2969 26.8438ZM 32.9922 25.5469L 33.0312 26.4844C 33.651 25.7552 34.487 25.3906 35.5391 25.3906C 36.7214 25.3906 37.526 25.8438 37.9531 26.75C 38.2344 26.3438 38.599 26.0156 39.0469 25.7656C 39.5 25.5156 40.0339 25.3906 40.6484 25.3906C 42.5026 25.3906 43.4453 26.3724 43.4766 28.3359L 43.4766 34L 42.0312 34L 42.0312 28.4219C 42.0312 27.8177 41.8932 27.3672 41.6172 27.0703C 41.3411 26.7682 40.8776 26.6172 40.2266 26.6172C 39.6901 26.6172 39.2448 26.7786 38.8906 27.1016C 38.5365 27.4193 38.3307 27.849 38.2734 28.3906L 38.2734 34L 36.8203 34L 36.8203 28.4609C 36.8203 27.2318 36.2188 26.6172 35.0156 26.6172C 34.0677 26.6172 33.4193 27.0208 33.0703 27.8281L 33.0703 34L 31.625 34L 31.625 25.5469L 32.9922 25.5469Z"/>
<path id="path9_fill" d="M 7.97656 12.0312L 3.21094 12.0312L 2.14062 15L 0.59375 15L 4.9375 3.625L 6.25 3.625L 10.6016 15L 9.0625 15L 7.97656 12.0312ZM 3.66406 10.7969L 7.53125 10.7969L 5.59375 5.47656L 3.66406 10.7969ZM 17.0312 14.1641C 16.4688 14.8255 15.6432 15.1562 14.5547 15.1562C 13.6536 15.1562 12.9661 14.8958 12.4922 14.375C 12.0234 13.849 11.7865 13.0729 11.7812 12.0469L 11.7812 6.54688L 13.2266 6.54688L 13.2266 12.0078C 13.2266 13.2891 13.7474 13.9297 14.7891 13.9297C 15.8932 13.9297 16.6276 13.5182 16.9922 12.6953L 16.9922 6.54688L 18.4375 6.54688L 18.4375 15L 17.0625 15L 17.0312 14.1641ZM 20.2969 10.7031C 20.2969 9.38542 20.6016 8.33854 21.2109 7.5625C 21.8203 6.78125 22.6276 6.39062 23.6328 6.39062C 24.6641 6.39062 25.4688 6.75521 26.0469 7.48438L 26.1172 6.54688L 27.4375 6.54688L 27.4375 14.7969C 27.4375 15.8906 27.112 16.7526 26.4609 17.3828C 25.8151 18.013 24.9453 18.3281 23.8516 18.3281C 23.2422 18.3281 22.6458 18.1979 22.0625 17.9375C 21.4792 17.6771 21.0339 17.3203 20.7266 16.8672L 21.4766 16C 22.0964 16.7656 22.8542 17.1484 23.75 17.1484C 24.4531 17.1484 25 16.9505 25.3906 16.5547C 25.7865 16.1589 25.9844 15.6016 25.9844 14.8828L 25.9844 14.1562C 25.4062 14.8229 24.6172 15.1562 23.6172 15.1562C 22.6276 15.1562 21.8255 14.7578 21.2109 13.9609C 20.6016 13.1641 20.2969 12.0781 20.2969 10.7031ZM 21.75 10.8672C 21.75 11.8203 21.9453 12.5703 22.3359 13.1172C 22.7266 13.6589 23.2734 13.9297 23.9766 13.9297C 24.888 13.9297 25.5573 13.5156 25.9844 12.6875L 25.9844 8.82812C 25.5417 8.02083 24.8776 7.61719 23.9922 7.61719C 23.2891 7.61719 22.7396 7.89062 22.3438 8.4375C 21.9479 8.98438 21.75 9.79427 21.75 10.8672ZM 30.9844 6.54688L 31.0234 7.48438C 31.6432 6.75521 32.4792 6.39062 33.5312 6.39062C 34.7135 6.39062 35.5182 6.84375 35.9453 7.75C 36.2266 7.34375 36.5911 7.01562 37.0391 6.76562C 37.4922 6.51562 38.026 6.39062 38.6406 6.39062C 40.4948 6.39062 41.4375 7.3724 41.4688 9.33594L 41.4688 15L 40.0234 15L 40.0234 9.42188C 40.0234 8.81771 39.8854 8.36719 39.6094 8.07031C 39.3333 7.76823 38.8698 7.61719 38.2188 7.61719C 37.6823 7.61719 37.237 7.77865 36.8828 8.10156C 36.5286 8.41927 36.3229 8.84896 36.2656 9.39062L 36.2656 15L 34.8125 15L 34.8125 9.46094C 34.8125 8.23177 34.2109 7.61719 33.0078 7.61719C 32.0599 7.61719 31.4115 8.02083 31.0625 8.82812L 31.0625 15L 29.6172 15L 29.6172 6.54688L 30.9844 6.54688ZM 47.1641 15.1562C 46.0182 15.1562 45.0859 14.7812 44.3672 14.0312C 43.6484 13.276 43.2891 12.2682 43.2891 11.0078L 43.2891 10.7422C 43.2891 9.90365 43.4479 9.15625 43.7656 8.5C 44.0885 7.83854 44.5365 7.32292 45.1094 6.95312C 45.6875 6.57812 46.3125 6.39062 46.9844 6.39062C 48.0833 6.39062 48.9375 6.7526 49.5469 7.47656C 50.1562 8.20052 50.4609 9.23698 50.4609 10.5859L 50.4609 11.1875L 44.7344 11.1875C 44.7552 12.0208 44.9974 12.6953 45.4609 13.2109C 45.9297 13.7214 46.5234 13.9766 47.2422 13.9766C 47.7526 13.9766 48.1849 13.8724 48.5391 13.6641C 48.8932 13.4557 49.2031 13.1797 49.4688 12.8359L 50.3516 13.5234C 49.6432 14.612 48.5807 15.1562 47.1641 15.1562ZM 46.9844 7.57812C 46.401 7.57812 45.9115 7.79167 45.5156 8.21875C 45.1198 8.64062 44.875 9.23438 44.7812 10L 49.0156 10L 49.0156 9.89062C 48.974 9.15625 48.776 8.58854 48.4219 8.1875C 48.0677 7.78125 47.5885 7.57812 46.9844 7.57812ZM 53.5078 6.54688L 53.5547 7.60938C 54.2005 6.79688 55.0443 6.39062 56.0859 6.39062C 57.8724 6.39062 58.7734 7.39844 58.7891 9.41406L 58.7891 15L 57.3438 15L 57.3438 9.40625C 57.3385 8.79688 57.1979 8.34635 56.9219 8.05469C 56.651 7.76302 56.2266 7.61719 55.6484 7.61719C 55.1797 7.61719 54.7682 7.74219 54.4141 7.99219C 54.0599 8.24219 53.7839 8.57031 53.5859 8.97656L 53.5859 15L 52.1406 15L 52.1406 6.54688L 53.5078 6.54688ZM 62.9297 4.5L 62.9297 6.54688L 64.5078 6.54688L 64.5078 7.66406L 62.9297 7.66406L 62.9297 12.9062C 62.9297 13.2448 63 13.5 63.1406 13.6719C 63.2812 13.8385 63.5208 13.9219 63.8594 13.9219C 64.026 13.9219 64.2552 13.8906 64.5469 13.8281L 64.5469 15C 64.1667 15.1042 63.7969 15.1562 63.4375 15.1562C 62.7917 15.1562 62.3047 14.9609 61.9766 14.5703C 61.6484 14.1797 61.4844 13.625 61.4844 12.9062L 61.4844 7.66406L 59.9453 7.66406L 59.9453 6.54688L 61.4844 6.54688L 61.4844 4.5L 62.9297 4.5ZM 69.7109 15.1562C 68.5651 15.1562 67.6328 14.7812 66.9141 14.0312C 66.1953 13.276 65.8359 12.2682 65.8359 11.0078L 65.8359 10.7422C 65.8359 9.90365 65.9948 9.15625 66.3125 8.5C 66.6354 7.83854 67.0833 7.32292 67.6562 6.95312C 68.2344 6.57812 68.8594 6.39062 69.5312 6.39062C 70.6302 6.39062 71.4844 6.7526 72.0938 7.47656C 72.7031 8.20052 73.0078 9.23698 73.0078 10.5859L 73.0078 11.1875L 67.2812 11.1875C 67.3021 12.0208 67.5443 12.6953 68.0078 13.2109C 68.4766 13.7214 69.0703 13.9766 69.7891 13.9766C 70.2995 13.9766 70.7318 13.8724 71.0859 13.6641C 71.4401 13.4557 71.75 13.1797 72.0156 12.8359L 72.8984 13.5234C 72.1901 14.612 71.1276 15.1562 69.7109 15.1562ZM 69.5312 7.57812C 68.9479 7.57812 68.4583 7.79167 68.0625 8.21875C 67.6667 8.64062 67.4219 9.23438 67.3281 10L 71.5625 10L 71.5625 9.89062C 71.5208 9.15625 71.3229 8.58854 70.9688 8.1875C 70.6146 7.78125 70.1354 7.57812 69.5312 7.57812ZM 74.3359 10.7031C 74.3359 9.40625 74.6432 8.36458 75.2578 7.57812C 75.8724 6.78646 76.6771 6.39062 77.6719 6.39062C 78.6615 6.39062 79.4453 6.72917 80.0234 7.40625L 80.0234 3L 81.4688 3L 81.4688 15L 80.1406 15L 80.0703 14.0938C 79.4922 14.8021 78.6875 15.1562 77.6562 15.1562C 76.6771 15.1562 75.8776 14.7552 75.2578 13.9531C 74.6432 13.151 74.3359 12.1042 74.3359 10.8125L 74.3359 10.7031ZM 75.7812 10.8672C 75.7812 11.8255 75.9792 12.5755 76.375 13.1172C 76.7708 13.6589 77.3177 13.9297 78.0156 13.9297C 78.9323 13.9297 79.6016 13.5182 80.0234 12.6953L 80.0234 8.8125C 79.5911 8.01562 78.9271 7.61719 78.0312 7.61719C 77.3229 7.61719 76.7708 7.89062 76.375 8.4375C 75.9792 8.98438 75.7812 9.79427 75.7812 10.8672ZM 22.1797 22.625L 25.8984 31.9062L 29.6172 22.625L 31.5625 22.625L 31.5625 34L 30.0625 34L 30.0625 29.5703L 30.2031 24.7891L 26.4688 34L 25.3203 34L 21.5938 24.8125L 21.7422 29.5703L 21.7422 34L 20.2422 34L 20.2422 22.625L 22.1797 22.625ZM 39.2031 34C 39.1198 33.8333 39.0521 33.5365 39 33.1094C 38.3281 33.8073 37.526 34.1562 36.5938 34.1562C 35.7604 34.1562 35.0755 33.9219 34.5391 33.4531C 34.0078 32.9792 33.7422 32.3802 33.7422 31.6562C 33.7422 30.776 34.0755 30.0938 34.7422 29.6094C 35.4141 29.1198 36.3568 28.875 37.5703 28.875L 38.9766 28.875L 38.9766 28.2109C 38.9766 27.7057 38.8255 27.3047 38.5234 27.0078C 38.2214 26.7057 37.776 26.5547 37.1875 26.5547C 36.6719 26.5547 36.2396 26.6849 35.8906 26.9453C 35.5417 27.2057 35.3672 27.5208 35.3672 27.8906L 33.9141 27.8906C 33.9141 27.4688 34.0625 27.0625 34.3594 26.6719C 34.6615 26.276 35.0677 25.9635 35.5781 25.7344C 36.0938 25.5052 36.6589 25.3906 37.2734 25.3906C 38.2474 25.3906 39.0104 25.6354 39.5625 26.125C 40.1146 26.6094 40.401 27.2786 40.4219 28.1328L 40.4219 32.0234C 40.4219 32.7995 40.5208 33.4167 40.7188 33.875L 40.7188 34L 39.2031 34ZM 36.8047 32.8984C 37.2578 32.8984 37.6875 32.7812 38.0938 32.5469C 38.5 32.3125 38.7943 32.0078 38.9766 31.6328L 38.9766 29.8984L 37.8438 29.8984C 36.0729 29.8984 35.1875 30.4167 35.1875 31.4531C 35.1875 31.9062 35.3385 32.2604 35.6406 32.5156C 35.9427 32.7708 36.3307 32.8984 36.8047 32.8984ZM 44.6484 23.5L 44.6484 25.5469L 46.2266 25.5469L 46.2266 26.6641L 44.6484 26.6641L 44.6484 31.9062C 44.6484 32.2448 44.7188 32.5 44.8594 32.6719C 45 32.8385 45.2396 32.9219 45.5781 32.9219C 45.7448 32.9219 45.974 32.8906 46.2656 32.8281L 46.2656 34C 45.8854 34.1042 45.5156 34.1562 45.1562 34.1562C 44.5104 34.1562 44.0234 33.9609 43.6953 33.5703C 43.3672 33.1797 43.2031 32.625 43.2031 31.9062L 43.2031 26.6641L 41.6641 26.6641L 41.6641 25.5469L 43.2031 25.5469L 43.2031 23.5L 44.6484 23.5ZM 52.0078 26.8438C 51.7891 26.8073 51.5521 26.7891 51.2969 26.7891C 50.349 26.7891 49.7057 27.1927 49.3672 28L 49.3672 34L 47.9219 34L 47.9219 25.5469L 49.3281 25.5469L 49.3516 26.5234C 49.8255 25.7682 50.4974 25.3906 51.3672 25.3906C 51.6484 25.3906 51.862 25.4271 52.0078 25.5L 52.0078 26.8438ZM 54.9141 34L 53.4688 34L 53.4688 25.5469L 54.9141 25.5469L 54.9141 34ZM 53.3516 23.3047C 53.3516 23.0703 53.4219 22.8724 53.5625 22.7109C 53.7083 22.5495 53.9219 22.4688 54.2031 22.4688C 54.4844 22.4688 54.6979 22.5495 54.8438 22.7109C 54.9896 22.8724 55.0625 23.0703 55.0625 23.3047C 55.0625 23.5391 54.9896 23.7344 54.8438 23.8906C 54.6979 24.0469 54.4844 24.125 54.2031 24.125C 53.9219 24.125 53.7083 24.0469 53.5625 23.8906C 53.4219 23.7344 53.3516 23.5391 53.3516 23.3047ZM 60.0703 28.6328L 61.9453 25.5469L 63.6328 25.5469L 60.8672 29.7266L 63.7188 34L 62.0469 34L 60.0938 30.8359L 58.1406 34L 56.4609 34L 59.3125 29.7266L 56.5469 25.5469L 58.2188 25.5469L 60.0703 28.6328Z"/>
<path id="path10_fill" d="M 3.04688 8.60938L 4.13281 8.60938C 4.8151 8.59896 5.35156 8.41927 5.74219 8.07031C 6.13281 7.72135 6.32812 7.25 6.32812 6.65625C 6.32812 5.32292 5.66406 4.65625 4.33594 4.65625C 3.71094 4.65625 3.21094 4.83594 2.83594 5.19531C 2.46615 5.54948 2.28125 6.02083 2.28125 6.60938L 0.835938 6.60938C 0.835938 5.70833 1.16406 4.96094 1.82031 4.36719C 2.48177 3.76823 3.32031 3.46875 4.33594 3.46875C 5.40885 3.46875 6.25 3.7526 6.85938 4.32031C 7.46875 4.88802 7.77344 5.67708 7.77344 6.6875C 7.77344 7.18229 7.61198 7.66146 7.28906 8.125C 6.97135 8.58854 6.53646 8.9349 5.98438 9.16406C 6.60938 9.36198 7.09115 9.6901 7.42969 10.1484C 7.77344 10.6068 7.94531 11.1667 7.94531 11.8281C 7.94531 12.849 7.61198 13.6589 6.94531 14.2578C 6.27865 14.8568 5.41146 15.1562 4.34375 15.1562C 3.27604 15.1562 2.40625 14.8672 1.73438 14.2891C 1.06771 13.7109 0.734375 12.9479 0.734375 12L 2.1875 12C 2.1875 12.599 2.38281 13.0781 2.77344 13.4375C 3.16406 13.7969 3.6875 13.9766 4.34375 13.9766C 5.04167 13.9766 5.57552 13.7943 5.94531 13.4297C 6.3151 13.0651 6.5 12.5417 6.5 11.8594C 6.5 11.1979 6.29688 10.6901 5.89062 10.3359C 5.48438 9.98177 4.89844 9.79948 4.13281 9.78906L 3.04688 9.78906L 3.04688 8.60938ZM 17.0625 10.1484C 17.0625 11.8411 16.7734 13.099 16.1953 13.9219C 15.6172 14.7448 14.7135 15.1562 13.4844 15.1562C 12.2708 15.1562 11.3724 14.7552 10.7891 13.9531C 10.2057 13.1458 9.90365 11.9427 9.88281 10.3438L 9.88281 8.41406C 9.88281 6.74219 10.1719 5.5 10.75 4.6875C 11.3281 3.875 12.2344 3.46875 13.4688 3.46875C 14.6927 3.46875 15.5938 3.86198 16.1719 4.64844C 16.75 5.42969 17.0469 6.63802 17.0625 8.27344L 17.0625 10.1484ZM 15.6172 8.17188C 15.6172 6.94792 15.4453 6.05729 15.1016 5.5C 14.7578 4.9375 14.2135 4.65625 13.4688 4.65625C 12.7292 4.65625 12.1901 4.9349 11.8516 5.49219C 11.513 6.04948 11.3385 6.90625 11.3281 8.0625L 11.3281 10.375C 11.3281 11.6042 11.5052 12.513 11.8594 13.1016C 12.2188 13.6849 12.7604 13.9766 13.4844 13.9766C 14.1979 13.9766 14.7266 13.7005 15.0703 13.1484C 15.4193 12.5964 15.6016 11.7266 15.6172 10.5391L 15.6172 8.17188ZM 21.8984 9.63281L 23.7734 6.54688L 25.4609 6.54688L 22.6953 10.7266L 25.5469 15L 23.875 15L 21.9219 11.8359L 19.9688 15L 18.2891 15L 21.1406 10.7266L 18.375 6.54688L 20.0469 6.54688L 21.8984 9.63281ZM 33.9766 10.7578L 30.1641 10.7578L 30.1641 9.57812L 33.9766 9.57812L 33.9766 10.7578ZM 42.125 12.8828L 44.0938 6.54688L 45.6406 6.54688L 42.2422 16.3047C 41.7161 17.7109 40.8802 18.4141 39.7344 18.4141L 39.4609 18.3906L 38.9219 18.2891L 38.9219 17.1172L 39.3125 17.1484C 39.8021 17.1484 40.1823 17.0495 40.4531 16.8516C 40.7292 16.6536 40.9557 16.2917 41.1328 15.7656L 41.4531 14.9062L 38.4375 6.54688L 40.0156 6.54688L 42.125 12.8828ZM 61.4844 8.64062L 54.9688 8.64062L 54.9688 7.38281L 61.4844 7.38281L 61.4844 8.64062ZM 61.4844 11.8828L 54.9688 11.8828L 54.9688 10.6328L 61.4844 10.6328L 61.4844 11.8828ZM 76.1953 15L 74.7422 15L 74.7422 5.36719L 71.8281 6.4375L 71.8281 5.125L 75.9688 3.57031L 76.1953 3.57031L 76.1953 15ZM 87.5625 10.1484C 87.5625 11.8411 87.2734 13.099 86.6953 13.9219C 86.1172 14.7448 85.2135 15.1562 83.9844 15.1562C 82.7708 15.1562 81.8724 14.7552 81.2891 13.9531C 80.7057 13.1458 80.4036 11.9427 80.3828 10.3438L 80.3828 8.41406C 80.3828 6.74219 80.6719 5.5 81.25 4.6875C 81.8281 3.875 82.7344 3.46875 83.9688 3.46875C 85.1927 3.46875 86.0938 3.86198 86.6719 4.64844C 87.25 5.42969 87.5469 6.63802 87.5625 8.27344L 87.5625 10.1484ZM 86.1172 8.17188C 86.1172 6.94792 85.9453 6.05729 85.6016 5.5C 85.2578 4.9375 84.7135 4.65625 83.9688 4.65625C 83.2292 4.65625 82.6901 4.9349 82.3516 5.49219C 82.013 6.04948 81.8385 6.90625 81.8281 8.0625L 81.8281 10.375C 81.8281 11.6042 82.0052 12.513 82.3594 13.1016C 82.7188 13.6849 83.2604 13.9766 83.9844 13.9766C 84.6979 13.9766 85.2266 13.7005 85.5703 13.1484C 85.9193 12.5964 86.1016 11.7266 86.1172 10.5391L 86.1172 8.17188ZM 96.5469 10.1484C 96.5469 11.8411 96.2578 13.099 95.6797 13.9219C 95.1016 14.7448 94.1979 15.1562 92.9688 15.1562C 91.7552 15.1562 90.8568 14.7552 90.2734 13.9531C 89.6901 13.1458 89.388 11.9427 89.3672 10.3438L 89.3672 8.41406C 89.3672 6.74219 89.6562 5.5 90.2344 4.6875C 90.8125 3.875 91.7188 3.46875 92.9531 3.46875C 94.1771 3.46875 95.0781 3.86198 95.6562 4.64844C 96.2344 5.42969 96.5312 6.63802 96.5469 8.27344L 96.5469 10.1484ZM 95.1016 8.17188C 95.1016 6.94792 94.9297 6.05729 94.5859 5.5C 94.2422 4.9375 93.6979 4.65625 92.9531 4.65625C 92.2135 4.65625 91.6745 4.9349 91.3359 5.49219C 90.9974 6.04948 90.8229 6.90625 90.8125 8.0625L 90.8125 10.375C 90.8125 11.6042 90.9896 12.513 91.3438 13.1016C 91.7031 13.6849 92.2448 13.9766 92.9688 13.9766C 93.6823 13.9766 94.2109 13.7005 94.5547 13.1484C 94.9036 12.5964 95.0859 11.7266 95.1016 10.5391L 95.1016 8.17188ZM 105.531 10.1484C 105.531 11.8411 105.242 13.099 104.664 13.9219C 104.086 14.7448 103.182 15.1562 101.953 15.1562C 100.74 15.1562 99.8411 14.7552 99.2578 13.9531C 98.6745 13.1458 98.3724 11.9427 98.3516 10.3438L 98.3516 8.41406C 98.3516 6.74219 98.6406 5.5 99.2188 4.6875C 99.7969 3.875 100.703 3.46875 101.938 3.46875C 103.161 3.46875 104.062 3.86198 104.641 4.64844C 105.219 5.42969 105.516 6.63802 105.531 8.27344L 105.531 10.1484ZM 104.086 8.17188C 104.086 6.94792 103.914 6.05729 103.57 5.5C 103.227 4.9375 102.682 4.65625 101.938 4.65625C 101.198 4.65625 100.659 4.9349 100.32 5.49219C 99.9818 6.04948 99.8073 6.90625 99.7969 8.0625L 99.7969 10.375C 99.7969 11.6042 99.974 12.513 100.328 13.1016C 100.688 13.6849 101.229 13.9766 101.953 13.9766C 102.667 13.9766 103.195 13.7005 103.539 13.1484C 103.888 12.5964 104.07 11.7266 104.086 10.5391L 104.086 8.17188ZM 1.60938 28.2969L 2.1875 22.625L 8.01562 22.625L 8.01562 23.9609L 3.41406 23.9609L 3.07031 27.0625C 3.6276 26.7344 4.26042 26.5703 4.96875 26.5703C 6.00521 26.5703 6.82812 26.9141 7.4375 27.6016C 8.04688 28.2839 8.35156 29.2083 8.35156 30.375C 8.35156 31.5469 8.03385 32.4714 7.39844 33.1484C 6.76823 33.8203 5.88542 34.1562 4.75 34.1562C 3.74479 34.1562 2.92448 33.8776 2.28906 33.3203C 1.65365 32.763 1.29167 31.9922 1.20312 31.0078L 2.57031 31.0078C 2.65885 31.6589 2.89062 32.151 3.26562 32.4844C 3.64062 32.8125 4.13542 32.9766 4.75 32.9766C 5.42188 32.9766 5.94792 32.7474 6.32812 32.2891C 6.71354 31.8307 6.90625 31.1979 6.90625 30.3906C 6.90625 29.6302 6.69792 29.0208 6.28125 28.5625C 5.86979 28.099 5.32031 27.8672 4.63281 27.8672C 4.0026 27.8672 3.50781 28.0052 3.14844 28.2812L 2.76562 28.5938L 1.60938 28.2969ZM 17.0625 29.1484C 17.0625 30.8411 16.7734 32.099 16.1953 32.9219C 15.6172 33.7448 14.7135 34.1562 13.4844 34.1562C 12.2708 34.1562 11.3724 33.7552 10.7891 32.9531C 10.2057 32.1458 9.90365 30.9427 9.88281 29.3438L 9.88281 27.4141C 9.88281 25.7422 10.1719 24.5 10.75 23.6875C 11.3281 22.875 12.2344 22.4688 13.4688 22.4688C 14.6927 22.4688 15.5938 22.862 16.1719 23.6484C 16.75 24.4297 17.0469 25.638 17.0625 27.2734L 17.0625 29.1484ZM 15.6172 27.1719C 15.6172 25.9479 15.4453 25.0573 15.1016 24.5C 14.7578 23.9375 14.2135 23.6562 13.4688 23.6562C 12.7292 23.6562 12.1901 23.9349 11.8516 24.4922C 11.513 25.0495 11.3385 25.9062 11.3281 27.0625L 11.3281 29.375C 11.3281 30.6042 11.5052 31.513 11.8594 32.1016C 12.2188 32.6849 12.7604 32.9766 13.4844 32.9766C 14.1979 32.9766 14.7266 32.7005 15.0703 32.1484C 15.4193 31.5964 15.6016 30.7266 15.6172 29.5391L 15.6172 27.1719ZM 21.8984 28.6328L 23.7734 25.5469L 25.4609 25.5469L 22.6953 29.7266L 25.5469 34L 23.875 34L 21.9219 30.8359L 19.9688 34L 18.2891 34L 21.1406 29.7266L 18.375 25.5469L 20.0469 25.5469L 21.8984 28.6328ZM 33.9766 29.7578L 30.1641 29.7578L 30.1641 28.5781L 33.9766 28.5781L 33.9766 29.7578ZM 42.125 31.8828L 44.0938 25.5469L 45.6406 25.5469L 42.2422 35.3047C 41.7161 36.7109 40.8802 37.4141 39.7344 37.4141L 39.4609 37.3906L 38.9219 37.2891L 38.9219 36.1172L 39.3125 36.1484C 39.8021 36.1484 40.1823 36.0495 40.4531 35.8516C 40.7292 35.6536 40.9557 35.2917 41.1328 34.7656L 41.4531 33.9062L 38.4375 25.5469L 40.0156 25.5469L 42.125 31.8828ZM 61.4844 27.6406L 54.9688 27.6406L 54.9688 26.3828L 61.4844 26.3828L 61.4844 27.6406ZM 61.4844 30.8828L 54.9688 30.8828L 54.9688 29.6328L 61.4844 29.6328L 61.4844 30.8828ZM 76.1953 34L 74.7422 34L 74.7422 24.3672L 71.8281 25.4375L 71.8281 24.125L 75.9688 22.5703L 76.1953 22.5703L 76.1953 34ZM 87.5625 29.1484C 87.5625 30.8411 87.2734 32.099 86.6953 32.9219C 86.1172 33.7448 85.2135 34.1562 83.9844 34.1562C 82.7708 34.1562 81.8724 33.7552 81.2891 32.9531C 80.7057 32.1458 80.4036 30.9427 80.3828 29.3438L 80.3828 27.4141C 80.3828 25.7422 80.6719 24.5 81.25 23.6875C 81.8281 22.875 82.7344 22.4688 83.9688 22.4688C 85.1927 22.4688 86.0938 22.862 86.6719 23.6484C 87.25 24.4297 87.5469 25.638 87.5625 27.2734L 87.5625 29.1484ZM 86.1172 27.1719C 86.1172 25.9479 85.9453 25.0573 85.6016 24.5C 85.2578 23.9375 84.7135 23.6562 83.9688 23.6562C 83.2292 23.6562 82.6901 23.9349 82.3516 24.4922C 82.013 25.0495 81.8385 25.9062 81.8281 27.0625L 81.8281 29.375C 81.8281 30.6042 82.0052 31.513 82.3594 32.1016C 82.7188 32.6849 83.2604 32.9766 83.9844 32.9766C 84.6979 32.9766 85.2266 32.7005 85.5703 32.1484C 85.9193 31.5964 86.1016 30.7266 86.1172 29.5391L 86.1172 27.1719ZM 96.5469 29.1484C 96.5469 30.8411 96.2578 32.099 95.6797 32.9219C 95.1016 33.7448 94.1979 34.1562 92.9688 34.1562C 91.7552 34.1562 90.8568 33.7552 90.2734 32.9531C 89.6901 32.1458 89.388 30.9427 89.3672 29.3438L 89.3672 27.4141C 89.3672 25.7422 89.6562 24.5 90.2344 23.6875C 90.8125 22.875 91.7188 22.4688 92.9531 22.4688C 94.1771 22.4688 95.0781 22.862 95.6562 23.6484C 96.2344 24.4297 96.5312 25.638 96.5469 27.2734L 96.5469 29.1484ZM 95.1016 27.1719C 95.1016 25.9479 94.9297 25.0573 94.5859 24.5C 94.2422 23.9375 93.6979 23.6562 92.9531 23.6562C 92.2135 23.6562 91.6745 23.9349 91.3359 24.4922C 90.9974 25.0495 90.8229 25.9062 90.8125 27.0625L 90.8125 29.375C 90.8125 30.6042 90.9896 31.513 91.3438 32.1016C 91.7031 32.6849 92.2448 32.9766 92.9688 32.9766C 93.6823 32.9766 94.2109 32.7005 94.5547 32.1484C 94.9036 31.5964 95.0859 30.7266 95.1016 29.5391L 95.1016 27.1719Z"/>
<path id="path11_fill" d="M 3.04688 8.60938L 4.13281 8.60938C 4.8151 8.59896 5.35156 8.41927 5.74219 8.07031C 6.13281 7.72135 6.32812 7.25 6.32812 6.65625C 6.32812 5.32292 5.66406 4.65625 4.33594 4.65625C 3.71094 4.65625 3.21094 4.83594 2.83594 5.19531C 2.46615 5.54948 2.28125 6.02083 2.28125 6.60938L 0.835938 6.60938C 0.835938 5.70833 1.16406 4.96094 1.82031 4.36719C 2.48177 3.76823 3.32031 3.46875 4.33594 3.46875C 5.40885 3.46875 6.25 3.7526 6.85938 4.32031C 7.46875 4.88802 7.77344 5.67708 7.77344 6.6875C 7.77344 7.18229 7.61198 7.66146 7.28906 8.125C 6.97135 8.58854 6.53646 8.9349 5.98438 9.16406C 6.60938 9.36198 7.09115 9.6901 7.42969 10.1484C 7.77344 10.6068 7.94531 11.1667 7.94531 11.8281C 7.94531 12.849 7.61198 13.6589 6.94531 14.2578C 6.27865 14.8568 5.41146 15.1562 4.34375 15.1562C 3.27604 15.1562 2.40625 14.8672 1.73438 14.2891C 1.06771 13.7109 0.734375 12.9479 0.734375 12L 2.1875 12C 2.1875 12.599 2.38281 13.0781 2.77344 13.4375C 3.16406 13.7969 3.6875 13.9766 4.34375 13.9766C 5.04167 13.9766 5.57552 13.7943 5.94531 13.4297C 6.3151 13.0651 6.5 12.5417 6.5 11.8594C 6.5 11.1979 6.29688 10.6901 5.89062 10.3359C 5.48438 9.98177 4.89844 9.79948 4.13281 9.78906L 3.04688 9.78906L 3.04688 8.60938ZM 17.0625 10.1484C 17.0625 11.8411 16.7734 13.099 16.1953 13.9219C 15.6172 14.7448 14.7135 15.1562 13.4844 15.1562C 12.2708 15.1562 11.3724 14.7552 10.7891 13.9531C 10.2057 13.1458 9.90365 11.9427 9.88281 10.3438L 9.88281 8.41406C 9.88281 6.74219 10.1719 5.5 10.75 4.6875C 11.3281 3.875 12.2344 3.46875 13.4688 3.46875C 14.6927 3.46875 15.5938 3.86198 16.1719 4.64844C 16.75 5.42969 17.0469 6.63802 17.0625 8.27344L 17.0625 10.1484ZM 15.6172 8.17188C 15.6172 6.94792 15.4453 6.05729 15.1016 5.5C 14.7578 4.9375 14.2135 4.65625 13.4688 4.65625C 12.7292 4.65625 12.1901 4.9349 11.8516 5.49219C 11.513 6.04948 11.3385 6.90625 11.3281 8.0625L 11.3281 10.375C 11.3281 11.6042 11.5052 12.513 11.8594 13.1016C 12.2188 13.6849 12.7604 13.9766 13.4844 13.9766C 14.1979 13.9766 14.7266 13.7005 15.0703 13.1484C 15.4193 12.5964 15.6016 11.7266 15.6172 10.5391L 15.6172 8.17188ZM 33.9766 10.7578L 30.1641 10.7578L 30.1641 9.57812L 33.9766 9.57812L 33.9766 10.7578ZM 39.9922 15L 38.5391 15L 38.5391 5.36719L 35.625 6.4375L 35.625 5.125L 39.7656 3.57031L 39.9922 3.57031L 39.9922 15ZM 63.2578 10.7578L 59.4453 10.7578L 59.4453 9.57812L 63.2578 9.57812L 63.2578 10.7578ZM 69.2734 15L 67.8203 15L 67.8203 5.36719L 64.9062 6.4375L 64.9062 5.125L 69.0469 3.57031L 69.2734 3.57031L 69.2734 15ZM 80.6406 10.1484C 80.6406 11.8411 80.3516 13.099 79.7734 13.9219C 79.1953 14.7448 78.2917 15.1562 77.0625 15.1562C 75.849 15.1562 74.9505 14.7552 74.3672 13.9531C 73.7839 13.1458 73.4818 11.9427 73.4609 10.3438L 73.4609 8.41406C 73.4609 6.74219 73.75 5.5 74.3281 4.6875C 74.9062 3.875 75.8125 3.46875 77.0469 3.46875C 78.2708 3.46875 79.1719 3.86198 79.75 4.64844C 80.3281 5.42969 80.625 6.63802 80.6406 8.27344L 80.6406 10.1484ZM 79.1953 8.17188C 79.1953 6.94792 79.0234 6.05729 78.6797 5.5C 78.3359 4.9375 77.7917 4.65625 77.0469 4.65625C 76.3073 4.65625 75.7682 4.9349 75.4297 5.49219C 75.0911 6.04948 74.9167 6.90625 74.9062 8.0625L 74.9062 10.375C 74.9062 11.6042 75.0833 12.513 75.4375 13.1016C 75.7969 13.6849 76.3385 13.9766 77.0625 13.9766C 77.776 13.9766 78.3047 13.7005 78.6484 13.1484C 78.9974 12.5964 79.1797 11.7266 79.1953 10.5391L 79.1953 8.17188ZM 89.625 10.1484C 89.625 11.8411 89.3359 13.099 88.7578 13.9219C 88.1797 14.7448 87.276 15.1562 86.0469 15.1562C 84.8333 15.1562 83.9349 14.7552 83.3516 13.9531C 82.7682 13.1458 82.4661 11.9427 82.4453 10.3438L 82.4453 8.41406C 82.4453 6.74219 82.7344 5.5 83.3125 4.6875C 83.8906 3.875 84.7969 3.46875 86.0312 3.46875C 87.2552 3.46875 88.1562 3.86198 88.7344 4.64844C 89.3125 5.42969 89.6094 6.63802 89.625 8.27344L 89.625 10.1484ZM 88.1797 8.17188C 88.1797 6.94792 88.0078 6.05729 87.6641 5.5C 87.3203 4.9375 86.776 4.65625 86.0312 4.65625C 85.2917 4.65625 84.7526 4.9349 84.4141 5.49219C 84.0755 6.04948 83.901 6.90625 83.8906 8.0625L 83.8906 10.375C 83.8906 11.6042 84.0677 12.513 84.4219 13.1016C 84.7812 13.6849 85.3229 13.9766 86.0469 13.9766C 86.7604 13.9766 87.2891 13.7005 87.6328 13.1484C 87.9818 12.5964 88.1641 11.7266 88.1797 10.5391L 88.1797 8.17188ZM 98.6094 10.1484C 98.6094 11.8411 98.3203 13.099 97.7422 13.9219C 97.1641 14.7448 96.2604 15.1562 95.0312 15.1562C 93.8177 15.1562 92.9193 14.7552 92.3359 13.9531C 91.7526 13.1458 91.4505 11.9427 91.4297 10.3438L 91.4297 8.41406C 91.4297 6.74219 91.7188 5.5 92.2969 4.6875C 92.875 3.875 93.7812 3.46875 95.0156 3.46875C 96.2396 3.46875 97.1406 3.86198 97.7188 4.64844C 98.2969 5.42969 98.5938 6.63802 98.6094 8.27344L 98.6094 10.1484ZM 97.1641 8.17188C 97.1641 6.94792 96.9922 6.05729 96.6484 5.5C 96.3047 4.9375 95.7604 4.65625 95.0156 4.65625C 94.276 4.65625 93.737 4.9349 93.3984 5.49219C 93.0599 6.04948 92.8854 6.90625 92.875 8.0625L 92.875 10.375C 92.875 11.6042 93.0521 12.513 93.4062 13.1016C 93.7656 13.6849 94.3073 13.9766 95.0312 13.9766C 95.7448 13.9766 96.2734 13.7005 96.6172 13.1484C 96.9661 12.5964 97.1484 11.7266 97.1641 10.5391L 97.1641 8.17188ZM 1.60938 28.2969L 2.1875 22.625L 8.01562 22.625L 8.01562 23.9609L 3.41406 23.9609L 3.07031 27.0625C 3.6276 26.7344 4.26042 26.5703 4.96875 26.5703C 6.00521 26.5703 6.82812 26.9141 7.4375 27.6016C 8.04688 28.2839 8.35156 29.2083 8.35156 30.375C 8.35156 31.5469 8.03385 32.4714 7.39844 33.1484C 6.76823 33.8203 5.88542 34.1562 4.75 34.1562C 3.74479 34.1562 2.92448 33.8776 2.28906 33.3203C 1.65365 32.763 1.29167 31.9922 1.20312 31.0078L 2.57031 31.0078C 2.65885 31.6589 2.89062 32.151 3.26562 32.4844C 3.64062 32.8125 4.13542 32.9766 4.75 32.9766C 5.42188 32.9766 5.94792 32.7474 6.32812 32.2891C 6.71354 31.8307 6.90625 31.1979 6.90625 30.3906C 6.90625 29.6302 6.69792 29.0208 6.28125 28.5625C 5.86979 28.099 5.32031 27.8672 4.63281 27.8672C 4.0026 27.8672 3.50781 28.0052 3.14844 28.2812L 2.76562 28.5938L 1.60938 28.2969ZM 17.0625 29.1484C 17.0625 30.8411 16.7734 32.099 16.1953 32.9219C 15.6172 33.7448 14.7135 34.1562 13.4844 34.1562C 12.2708 34.1562 11.3724 33.7552 10.7891 32.9531C 10.2057 32.1458 9.90365 30.9427 9.88281 29.3438L 9.88281 27.4141C 9.88281 25.7422 10.1719 24.5 10.75 23.6875C 11.3281 22.875 12.2344 22.4688 13.4688 22.4688C 14.6927 22.4688 15.5938 22.862 16.1719 23.6484C 16.75 24.4297 17.0469 25.638 17.0625 27.2734L 17.0625 29.1484ZM 15.6172 27.1719C 15.6172 25.9479 15.4453 25.0573 15.1016 24.5C 14.7578 23.9375 14.2135 23.6562 13.4688 23.6562C 12.7292 23.6562 12.1901 23.9349 11.8516 24.4922C 11.513 25.0495 11.3385 25.9062 11.3281 27.0625L 11.3281 29.375C 11.3281 30.6042 11.5052 31.513 11.8594 32.1016C 12.2188 32.6849 12.7604 32.9766 13.4844 32.9766C 14.1979 32.9766 14.7266 32.7005 15.0703 32.1484C 15.4193 31.5964 15.6016 30.7266 15.6172 29.5391L 15.6172 27.1719ZM 33.9766 29.7578L 30.1641 29.7578L 30.1641 28.5781L 33.9766 28.5781L 33.9766 29.7578ZM 39.9922 34L 38.5391 34L 38.5391 24.3672L 35.625 25.4375L 35.625 24.125L 39.7656 22.5703L 39.9922 22.5703L 39.9922 34ZM 63.2578 29.7578L 59.4453 29.7578L 59.4453 28.5781L 63.2578 28.5781L 63.2578 29.7578ZM 69.2734 34L 67.8203 34L 67.8203 24.3672L 64.9062 25.4375L 64.9062 24.125L 69.0469 22.5703L 69.2734 22.5703L 69.2734 34ZM 80.6406 29.1484C 80.6406 30.8411 80.3516 32.099 79.7734 32.9219C 79.1953 33.7448 78.2917 34.1562 77.0625 34.1562C 75.849 34.1562 74.9505 33.7552 74.3672 32.9531C 73.7839 32.1458 73.4818 30.9427 73.4609 29.3438L 73.4609 27.4141C 73.4609 25.7422 73.75 24.5 74.3281 23.6875C 74.9062 22.875 75.8125 22.4688 77.0469 22.4688C 78.2708 22.4688 79.1719 22.862 79.75 23.6484C 80.3281 24.4297 80.625 25.638 80.6406 27.2734L 80.6406 29.1484ZM 79.1953 27.1719C 79.1953 25.9479 79.0234 25.0573 78.6797 24.5C 78.3359 23.9375 77.7917 23.6562 77.0469 23.6562C 76.3073 23.6562 75.7682 23.9349 75.4297 24.4922C 75.0911 25.0495 74.9167 25.9062 74.9062 27.0625L 74.9062 29.375C 74.9062 30.6042 75.0833 31.513 75.4375 32.1016C 75.7969 32.6849 76.3385 32.9766 77.0625 32.9766C 77.776 32.9766 78.3047 32.7005 78.6484 32.1484C 78.9974 31.5964 79.1797 30.7266 79.1953 29.5391L 79.1953 27.1719ZM 89.625 29.1484C 89.625 30.8411 89.3359 32.099 88.7578 32.9219C 88.1797 33.7448 87.276 34.1562 86.0469 34.1562C 84.8333 34.1562 83.9349 33.7552 83.3516 32.9531C 82.7682 32.1458 82.4661 30.9427 82.4453 29.3438L 82.4453 27.4141C 82.4453 25.7422 82.7344 24.5 83.3125 23.6875C 83.8906 22.875 84.7969 22.4688 86.0312 22.4688C 87.2552 22.4688 88.1562 22.862 88.7344 23.6484C 89.3125 24.4297 89.6094 25.638 89.625 27.2734L 89.625 29.1484ZM 88.1797 27.1719C 88.1797 25.9479 88.0078 25.0573 87.6641 24.5C 87.3203 23.9375 86.776 23.6562 86.0312 23.6562C 85.2917 23.6562 84.7526 23.9349 84.4141 24.4922C 84.0755 25.0495 83.901 25.9062 83.8906 27.0625L 83.8906 29.375C 83.8906 30.6042 84.0677 31.513 84.4219 32.1016C 84.7812 32.6849 85.3229 32.9766 86.0469 32.9766C 86.7604 32.9766 87.2891 32.7005 87.6328 32.1484C 87.9818 31.5964 88.1641 30.7266 88.1797 29.5391L 88.1797 27.1719Z"/>
<path id="path12_stroke" d="M 13.3536 0.353553C 13.5488 0.158291 13.5488 -0.158291 13.3536 -0.353553L 10.1716 -3.53553C 9.97631 -3.7308 9.65973 -3.7308 9.46447 -3.53553C 9.2692 -3.34027 9.2692 -3.02369 9.46447 -2.82843L 12.2929 0L 9.46447 2.82843C 9.2692 3.02369 9.2692 3.34027 9.46447 3.53553C 9.65973 3.7308 9.97631 3.7308 10.1716 3.53553L 13.3536 0.353553ZM 0 0.5L 13 0.5L 13 -0.5L 0 -0.5L 0 0.5Z"/>
</defs>
</svg>

