<svg width="290" height="176" viewBox="0 0 290 176" version="1.1" xmlns="http://www.w3.org/2000/svg" xmlns:xlink="http://www.w3.org/1999/xlink" xmlns:figma="http://www.figma.com/figma/ns">
<title>Group</title>
<desc>Created using Figma</desc>
<g id="Canvas" transform="translate(612 -3627)" figma:type="canvas">
<g id="Group" figma:type="frame">
<g id="Component" figma:type="instance">
<g id="Line 2" figma:type="line">
<use xlink:href="#path0_stroke" transform="matrix(1.16657e-31 1 -0.999484 0.0321237 -563 3658)" fill="#333333"/>
</g>
<g id="Line 3" figma:type="line">
<use xlink:href="#path1_stroke" transform="translate(-563 3658)" fill="#333333"/>
</g>
<g id="Line 3" figma:type="line">
<use xlink:href="#path1_stroke" transform="translate(-563 3702)" fill="#333333"/>
</g>
</g>
<g id="Component" figma:type="instance">
<g id="Line 2" figma:type="line">
<use xlink:href="#path2_stroke" transform="matrix(-1.22465e-16 -1 0.999436 -0.0335822 -518 3702)" fill="#333333"/>
</g>
<g id="Line 3" figma:type="line">
<use xlink:href="#path1_stroke" transform="matrix(-1 1.22465e-16 -1.22465e-16 -1 -518 3702)" fill="#333333"/>
</g>
<g id="Line 3" figma:type="line">
<use xlink:href="#path1_stroke" transform="matrix(-1 1.22465e-16 -1.22465e-16 -1 -518 3656)" fill="#333333"/>
</g>
</g>
<g id="1 0 0 1" figma:type="text">
<use xlink:href="#path3_fill" transform="translate(-555 3663)" fill="#2F80ED"/>
</g>
<g id="Component" figma:type="instance">
<g id="Line 2" figma:type="line">
<use xlink:href="#path2_stroke" transform="matrix(1.11585e-31 1 -0.999436 0.0335822 -506 3657)" fill="#333333"/>
</g>
<g id="Line 3" figma:type="line">
<use xlink:href="#path1_stroke" transform="translate(-506 3657)" fill="#333333"/>
</g>
<g id="Line 3" figma:type="line">
<use xlink:href="#path1_stroke" transform="translate(-506 3703)" fill="#333333"/>
</g>
</g>
<g id="Component" figma:type="instance">
<g id="Line 2" figma:type="line">
<use xlink:href="#path4_stroke" transform="matrix(-1.22465e-16 -1 0.999411 -0.0343114 -482 3703)" fill="#333333"/>
</g>
<g id="Line 3" figma:type="line">
<use xlink:href="#path1_stroke" transform="matrix(-1 1.22465e-16 -1.22465e-16 -1 -482 3703)" fill="#333333"/>
</g>
<g id="Line 3" figma:type="line">
<use xlink:href="#path1_stroke" transform="matrix(-1 1.22465e-16 -1.22465e-16 -1 -482 3656)" fill="#333333"/>
</g>
</g>
<g id="3 2" figma:type="text">
<use xlink:href="#path5_fill" transform="translate(-498 3662)" fill="#333333"/>
</g>
<g id="I x" figma:type="text">
<use xlink:href="#path6_fill" transform="translate(-613 3670)"/>
</g>
<g id="=" figma:type="text">
<use xlink:href="#path7_fill" transform="translate(-585 3670)"/>
</g>
<g id="2" figma:type="text">
<use xlink:href="#path8_fill" transform="translate(-609 3679)"/>
</g>
<g id="=" figma:type="text">
<use xlink:href="#path7_fill" transform="translate(-471 3670)"/>
</g>
<g id="Component" figma:type="instance">
<g id="Line 2" figma:type="line">
<use xlink:href="#path2_stroke" transform="matrix(1.11585e-31 1 -0.999436 0.0335822 -456 3657)" fill="#333333"/>
</g>
<g id="Line 3" figma:type="line">
<use xlink:href="#path1_stroke" transform="translate(-456 3657)" fill="#333333"/>
</g>
<g id="Line 3" figma:type="line">
<use xlink:href="#path1_stroke" transform="translate(-456 3703)" fill="#333333"/>
</g>
</g>
<g id="Component" figma:type="instance">
<g id="Line 2" figma:type="line">
<use xlink:href="#path4_stroke" transform="matrix(-1.22465e-16 -1 0.999411 -0.0343114 -375 3703)" fill="#333333"/>
</g>
<g id="Line 3" figma:type="line">
<use xlink:href="#path1_stroke" transform="matrix(-1 1.22465e-16 -1.22465e-16 -1 -375 3703)" fill="#333333"/>
</g>
<g id="Line 3" figma:type="line">
<use xlink:href="#path1_stroke" transform="matrix(-1 1.22465e-16 -1.22465e-16 -1 -375 3656)" fill="#333333"/>
</g>
</g>
<g id="1*3 + 0*2 0*3 + 1*2" figma:type="text">
<use xlink:href="#path9_fill" transform="translate(-448 3662)" fill="#333333"/>
<use xlink:href="#path10_fill" transform="translate(-448 3662)" fill="#2F80ED"/>
</g>
<g id="Component" figma:type="instance">
<g id="Line 2" figma:type="line">
<use xlink:href="#path2_stroke" transform="matrix(1.11585e-31 1 -0.999436 0.0335822 -346 3657)" fill="#333333"/>
</g>
<g id="Line 3" figma:type="line">
<use xlink:href="#path1_stroke" transform="translate(-346 3657)" fill="#333333"/>
</g>
<g id="Line 3" figma:type="line">
<use xlink:href="#path1_stroke" transform="translate(-346 3703)" fill="#333333"/>
</g>
</g>
<g id="Component" figma:type="instance">
<g id="Line 2" figma:type="line">
<use xlink:href="#path4_stroke" transform="matrix(-1.22465e-16 -1 0.999411 -0.0343114 -322 3703)" fill="#333333"/>
</g>
<g id="Line 3" figma:type="line">
<use xlink:href="#path1_stroke" transform="matrix(-1 1.22465e-16 -1.22465e-16 -1 -322 3703)" fill="#333333"/>
</g>
<g id="Line 3" figma:type="line">
<use xlink:href="#path1_stroke" transform="matrix(-1 1.22465e-16 -1.22465e-16 -1 -322 3656)" fill="#333333"/>
</g>
</g>
<g id="3 2" figma:type="text">
<use xlink:href="#path5_fill" transform="translate(-338 3662)" fill="#333333"/>
</g>
<g id="=" figma:type="text">
<use xlink:href="#path7_fill" transform="translate(-364 3670)"/>
</g>
<g id="Component" figma:type="instance">
<g id="Line 2" figma:type="line">
<use xlink:href="#path0_stroke" transform="matrix(1.16657e-31 1 -0.999484 0.0321237 -563 3757)" fill="#333333"/>
</g>
<g id="Line 3" figma:type="line">
<use xlink:href="#path1_stroke" transform="translate(-563 3757)" fill="#333333"/>
</g>
<g id="Line 3" figma:type="line">
<use xlink:href="#path1_stroke" transform="translate(-563 3801)" fill="#333333"/>
</g>
</g>
<g id="Component" figma:type="instance">
<g id="Line 2" figma:type="line">
<use xlink:href="#path2_stroke" transform="matrix(-1.22465e-16 -1 0.999436 -0.0335822 -518 3801)" fill="#333333"/>
</g>
<g id="Line 3" figma:type="line">
<use xlink:href="#path1_stroke" transform="matrix(-1 1.22465e-16 -1.22465e-16 -1 -518 3801)" fill="#333333"/>
</g>
<g id="Line 3" figma:type="line">
<use xlink:href="#path1_stroke" transform="matrix(-1 1.22465e-16 -1.22465e-16 -1 -518 3755)" fill="#333333"/>
</g>
</g>
<g id="1 0 0 1" figma:type="text">
<use xlink:href="#path3_fill" transform="translate(-555 3762)" fill="#2F80ED"/>
</g>
<g id="Component" figma:type="instance">
<g id="Line 2" figma:type="line">
<use xlink:href="#path2_stroke" transform="matrix(1.11585e-31 1 -0.999436 0.0335822 -506 3756)" fill="#333333"/>
</g>
<g id="Line 3" figma:type="line">
<use xlink:href="#path1_stroke" transform="translate(-506 3756)" fill="#333333"/>
</g>
<g id="Line 3" figma:type="line">
<use xlink:href="#path1_stroke" transform="translate(-506 3802)" fill="#333333"/>
</g>
</g>
<g id="Component" figma:type="instance">
<g id="Line 2" figma:type="line">
<use xlink:href="#path4_stroke" transform="matrix(-1.22465e-16 -1 0.999411 -0.0343114 -482 3802)" fill="#333333"/>
</g>
<g id="Line 3" figma:type="line">
<use xlink:href="#path1_stroke" transform="matrix(-1 1.22465e-16 -1.22465e-16 -1 -482 3802)" fill="#333333"/>
</g>
<g id="Line 3" figma:type="line">
<use xlink:href="#path1_stroke" transform="matrix(-1 1.22465e-16 -1.22465e-16 -1 -482 3755)" fill="#333333"/>
</g>
</g>
<g id="x x" figma:type="text">
<use xlink:href="#path11_fill" transform="translate(-499 3761)" fill="#333333"/>
</g>
<g id="I x" figma:type="text">
<use xlink:href="#path6_fill" transform="translate(-613 3769)"/>
</g>
<g id="=" figma:type="text">
<use xlink:href="#path7_fill" transform="translate(-585 3769)"/>
</g>
<g id="2" figma:type="text">
<use xlink:href="#path8_fill" transform="translate(-609 3778)"/>
</g>
<g id="=" figma:type="text">
<use xlink:href="#path7_fill" transform="translate(-471 3769)"/>
</g>
<g id="Component" figma:type="instance">
<g id="Line 2" figma:type="line">
<use xlink:href="#path2_stroke" transform="matrix(1.11585e-31 1 -0.999436 0.0335822 -456 3756)" fill="#333333"/>
</g>
<g id="Line 3" figma:type="line">
<use xlink:href="#path1_stroke" transform="translate(-456 3756)" fill="#333333"/>
</g>
<g id="Line 3" figma:type="line">
<use xlink:href="#path1_stroke" transform="translate(-456 3802)" fill="#333333"/>
</g>
</g>
<g id="Component" figma:type="instance">
<g id="Line 2" figma:type="line">
<use xlink:href="#path4_stroke" transform="matrix(-1.22465e-16 -1 0.999411 -0.0343114 -375 3802)" fill="#333333"/>
</g>
<g id="Line 3" figma:type="line">
<use xlink:href="#path1_stroke" transform="matrix(-1 1.22465e-16 -1.22465e-16 -1 -375 3802)" fill="#333333"/>
</g>
<g id="Line 3" figma:type="line">
<use xlink:href="#path1_stroke" transform="matrix(-1 1.22465e-16 -1.22465e-16 -1 -375 3755)" fill="#333333"/>
</g>
</g>
<g id="1x + 0x 0x + 1x" figma:type="text">
<use xlink:href="#path12_fill" transform="translate(-443 3762)" fill="#333333"/>
<use xlink:href="#path13_fill" transform="translate(-443 3762)" fill="#2F80ED"/>
</g>
<g id="Component" figma:type="instance">
<g id="Line 2" figma:type="line">
<use xlink:href="#path2_stroke" transform="matrix(1.11585e-31 1 -0.999436 0.0335822 -346 3756)" fill="#333333"/>
</g>
<g id="Line 3" figma:type="line">
<use xlink:href="#path1_stroke" transform="translate(-346 3756)" fill="#333333"/>
</g>
<g id="Line 3" figma:type="line">
<use xlink:href="#path1_stroke" transform="translate(-346 3802)" fill="#333333"/>
</g>
</g>
<g id="Component" figma:type="instance">
<g id="Line 2" figma:type="line">
<use xlink:href="#path4_stroke" transform="matrix(-1.22465e-16 -1 0.999411 -0.0343114 -322 3802)" fill="#333333"/>
</g>
<g id="Line 3" figma:type="line">
<use xlink:href="#path1_stroke" transform="matrix(-1 1.22465e-16 -1.22465e-16 -1 -322 3802)" fill="#333333"/>
</g>
<g id="Line 3" figma:type="line">
<use xlink:href="#path1_stroke" transform="matrix(-1 1.22465e-16 -1.22465e-16 -1 -322 3755)" fill="#333333"/>
</g>
</g>
<g id="=" figma:type="text">
<use xlink:href="#path7_fill" transform="translate(-364 3769)"/>
</g>
<g id="Specific Case" figma:type="text">
<use xlink:href="#path14_fill" transform="translate(-483 3626)"/>
</g>
<g id="General Case" figma:type="text">
<use xlink:href="#path15_fill" transform="translate(-481 3727)"/>
</g>
<g id="1 2" figma:type="text">
<use xlink:href="#path16_fill" transform="translate(-491 3770)"/>
</g>
<g id="1 2" figma:type="text">
<use xlink:href="#path17_fill" transform="translate(-428 3771)"/>
</g>
<g id="1 2" figma:type="text">
<use xlink:href="#path17_fill" transform="translate(-428 3787)"/>
</g>
<g id="x x" figma:type="text">
<use xlink:href="#path11_fill" transform="translate(-338 3760)" fill="#333333"/>
</g>
<g id="1 2" figma:type="text">
<use xlink:href="#path16_fill" transform="translate(-330 3769)"/>
</g>
</g>
</g>
<defs>
<path id="path0_stroke" d="M 0 0L 44 0L 44 -1L 0 -1L 0 0Z"/>
<path id="path1_stroke" d="M 0 0L 6 0L 6 -1L 0 -1L 0 0Z"/>
<path id="path2_stroke" d="M 0 0L 46 0L 46 -1L 0 -1L 0 0Z"/>
<path id="path3_fill" d="M 4.9834 13L 3.71191 13L 3.71191 4.57129L 1.16211 5.50781L 1.16211 4.35938L 4.78516 2.99902L 4.9834 2.99902L 4.9834 13ZM 25.3477 8.75488C 25.3477 10.236 25.0947 11.3366 24.5889 12.0566C 24.083 12.7767 23.2923 13.1367 22.2168 13.1367C 21.1549 13.1367 20.3688 12.7858 19.8584 12.084C 19.348 11.3776 19.0837 10.3249 19.0654 8.92578L 19.0654 7.2373C 19.0654 5.77441 19.3184 4.6875 19.8242 3.97656C 20.3301 3.26562 21.123 2.91016 22.2031 2.91016C 23.2741 2.91016 24.0625 3.25423 24.5684 3.94238C 25.0742 4.62598 25.334 5.68327 25.3477 7.11426L 25.3477 8.75488ZM 24.083 7.02539C 24.083 5.95443 23.9326 5.17513 23.6318 4.6875C 23.3311 4.19531 22.8548 3.94922 22.2031 3.94922C 21.556 3.94922 21.0843 4.19303 20.7881 4.68066C 20.4919 5.16829 20.3392 5.91797 20.3301 6.92969L 20.3301 8.95312C 20.3301 10.0286 20.485 10.8239 20.7949 11.3389C 21.1094 11.8493 21.5833 12.1045 22.2168 12.1045C 22.8411 12.1045 23.3037 11.863 23.6045 11.3799C 23.9098 10.8968 24.0693 10.1357 24.083 9.09668L 24.083 7.02539ZM 7.06836 24.7549C 7.06836 26.236 6.81543 27.3366 6.30957 28.0566C 5.80371 28.7767 5.01302 29.1367 3.9375 29.1367C 2.87565 29.1367 2.08952 28.7858 1.5791 28.084C 1.06868 27.3776 0.804362 26.3249 0.786133 24.9258L 0.786133 23.2373C 0.786133 21.7744 1.03906 20.6875 1.54492 19.9766C 2.05078 19.2656 2.84375 18.9102 3.92383 18.9102C 4.99479 18.9102 5.7832 19.2542 6.28906 19.9424C 6.79492 20.626 7.05469 21.6833 7.06836 23.1143L 7.06836 24.7549ZM 5.80371 23.0254C 5.80371 21.9544 5.65332 21.1751 5.35254 20.6875C 5.05176 20.1953 4.57552 19.9492 3.92383 19.9492C 3.27669 19.9492 2.80501 20.193 2.50879 20.6807C 2.21257 21.1683 2.0599 21.918 2.05078 22.9297L 2.05078 24.9531C 2.05078 26.0286 2.20573 26.8239 2.51562 27.3389C 2.83008 27.8493 3.30404 28.1045 3.9375 28.1045C 4.56185 28.1045 5.02441 27.863 5.3252 27.3799C 5.63053 26.8968 5.79004 26.1357 5.80371 25.0967L 5.80371 23.0254ZM 23.2627 29L 21.9912 29L 21.9912 20.5713L 19.4414 21.5078L 19.4414 20.3594L 23.0645 18.999L 23.2627 18.999L 23.2627 29Z"/>
<path id="path4_stroke" d="M 0 0L 47 0L 47 -1L 0 -1L 0 0Z"/>
<path id="path5_fill" d="M 2.66602 7.4082L 3.61621 7.4082C 4.21322 7.39909 4.68262 7.24186 5.02441 6.93652C 5.36621 6.63118 5.53711 6.21875 5.53711 5.69922C 5.53711 4.53255 4.95605 3.94922 3.79395 3.94922C 3.24707 3.94922 2.80957 4.10645 2.48145 4.4209C 2.15788 4.73079 1.99609 5.14323 1.99609 5.6582L 0.731445 5.6582C 0.731445 4.86979 1.01855 4.21582 1.59277 3.69629C 2.17155 3.1722 2.90527 2.91016 3.79395 2.91016C 4.73275 2.91016 5.46875 3.15853 6.00195 3.65527C 6.53516 4.15202 6.80176 4.84245 6.80176 5.72656C 6.80176 6.15951 6.66048 6.57878 6.37793 6.98438C 6.09993 7.38997 5.7194 7.69303 5.23633 7.89355C 5.7832 8.06673 6.20475 8.35384 6.50098 8.75488C 6.80176 9.15592 6.95215 9.64583 6.95215 10.2246C 6.95215 11.1178 6.66048 11.8265 6.07715 12.3506C 5.49382 12.8747 4.73503 13.1367 3.80078 13.1367C 2.86654 13.1367 2.10547 12.8838 1.51758 12.3779C 0.934245 11.8721 0.642578 11.2044 0.642578 10.375L 1.91406 10.375C 1.91406 10.8991 2.08496 11.3184 2.42676 11.6328C 2.76855 11.9473 3.22656 12.1045 3.80078 12.1045C 4.41146 12.1045 4.87858 11.945 5.20215 11.626C 5.52572 11.307 5.6875 10.849 5.6875 10.252C 5.6875 9.67318 5.50977 9.22884 5.1543 8.91895C 4.79883 8.60905 4.28613 8.44954 3.61621 8.44043L 2.66602 8.44043L 2.66602 7.4082ZM 7.34863 29L 0.827148 29L 0.827148 28.0908L 4.27246 24.2627C 4.78288 23.6839 5.13379 23.2145 5.3252 22.8545C 5.52116 22.4899 5.61914 22.1139 5.61914 21.7266C 5.61914 21.207 5.46191 20.7809 5.14746 20.4482C 4.83301 20.1156 4.41374 19.9492 3.88965 19.9492C 3.26074 19.9492 2.77083 20.1292 2.41992 20.4893C 2.07357 20.8447 1.90039 21.3415 1.90039 21.9795L 0.635742 21.9795C 0.635742 21.0635 0.929688 20.3229 1.51758 19.7578C 2.11003 19.1927 2.90072 18.9102 3.88965 18.9102C 4.81478 18.9102 5.54622 19.154 6.08398 19.6416C 6.62174 20.1247 6.89062 20.7695 6.89062 21.5762C 6.89062 22.556 6.26628 23.7227 5.01758 25.0762L 2.35156 27.9678L 7.34863 27.9678L 7.34863 29Z"/>
<path id="path6_fill" d="M 2.56348 13L 1.25098 13L 1.25098 3.04688L 2.56348 3.04688L 2.56348 13ZM 14.1982 8.30371L 15.8389 5.60352L 17.3154 5.60352L 14.8955 9.26074L 17.3906 13L 15.9277 13L 14.2188 10.2314L 12.5098 13L 11.04 13L 13.5352 9.26074L 11.1152 5.60352L 12.5781 5.60352L 14.1982 8.30371Z"/>
<path id="path7_fill" d="M 6.74023 7.43555L 1.03906 7.43555L 1.03906 6.33496L 6.74023 6.33496L 6.74023 7.43555ZM 6.74023 10.2725L 1.03906 10.2725L 1.03906 9.17871L 6.74023 9.17871L 6.74023 10.2725Z"/>
<path id="path8_fill" d="M 4.19922 7L 0.472656 7L 0.472656 6.48047L 2.44141 4.29297C 2.73307 3.96224 2.93359 3.69401 3.04297 3.48828C 3.15495 3.27995 3.21094 3.0651 3.21094 2.84375C 3.21094 2.54688 3.12109 2.30339 2.94141 2.11328C 2.76172 1.92318 2.52214 1.82812 2.22266 1.82812C 1.86328 1.82812 1.58333 1.93099 1.38281 2.13672C 1.1849 2.33984 1.08594 2.6237 1.08594 2.98828L 0.363281 2.98828C 0.363281 2.46484 0.53125 2.04167 0.867188 1.71875C 1.20573 1.39583 1.65755 1.23438 2.22266 1.23438C 2.7513 1.23438 3.16927 1.3737 3.47656 1.65234C 3.78385 1.92839 3.9375 2.29688 3.9375 2.75781C 3.9375 3.31771 3.58073 3.98438 2.86719 4.75781L 1.34375 6.41016L 4.19922 6.41016L 4.19922 7Z"/>
<path id="path9_fill" d="M 10.1172 6.28027L 8.05273 5.66504L 8.36719 4.63281L 10.4316 5.39844L 10.3701 3.04688L 11.416 3.04688L 11.3477 5.43262L 13.3779 4.68066L 13.6924 5.71973L 11.5938 6.3418L 12.9473 8.19434L 12.0996 8.83691L 10.8281 6.86816L 9.59766 8.78906L 8.74316 8.16699L 10.1172 6.28027ZM 16.5566 7.4082L 17.5068 7.4082C 18.1038 7.39909 18.5732 7.24186 18.915 6.93652C 19.2568 6.63118 19.4277 6.21875 19.4277 5.69922C 19.4277 4.53255 18.8467 3.94922 17.6846 3.94922C 17.1377 3.94922 16.7002 4.10645 16.3721 4.4209C 16.0485 4.73079 15.8867 5.14323 15.8867 5.6582L 14.6221 5.6582C 14.6221 4.86979 14.9092 4.21582 15.4834 3.69629C 16.0622 3.1722 16.7959 2.91016 17.6846 2.91016C 18.6234 2.91016 19.3594 3.15853 19.8926 3.65527C 20.4258 4.15202 20.6924 4.84245 20.6924 5.72656C 20.6924 6.15951 20.5511 6.57878 20.2686 6.98438C 19.9906 7.38997 19.61 7.69303 19.127 7.89355C 19.6738 8.06673 20.0954 8.35384 20.3916 8.75488C 20.6924 9.15592 20.8428 9.64583 20.8428 10.2246C 20.8428 11.1178 20.5511 11.8265 19.9678 12.3506C 19.3844 12.8747 18.6257 13.1367 17.6914 13.1367C 16.7572 13.1367 15.9961 12.8838 15.4082 12.3779C 14.8249 11.8721 14.5332 11.2044 14.5332 10.375L 15.8047 10.375C 15.8047 10.8991 15.9756 11.3184 16.3174 11.6328C 16.6592 11.9473 17.1172 12.1045 17.6914 12.1045C 18.3021 12.1045 18.7692 11.945 19.0928 11.626C 19.4163 11.307 19.5781 10.849 19.5781 10.252C 19.5781 9.67318 19.4004 9.22884 19.0449 8.91895C 18.6895 8.60905 18.1768 8.44954 17.5068 8.44043L 16.5566 8.44043L 16.5566 7.4082ZM 33.2773 7.66113L 36.0527 7.66113L 36.0527 8.85742L 33.2773 8.85742L 33.2773 12.002L 32.0059 12.002L 32.0059 8.85742L 29.2305 8.85742L 29.2305 7.66113L 32.0059 7.66113L 32.0059 4.75586L 33.2773 4.75586L 33.2773 7.66113ZM 53.7031 6.28027L 51.6387 5.66504L 51.9531 4.63281L 54.0176 5.39844L 53.9561 3.04688L 55.002 3.04688L 54.9336 5.43262L 56.9639 4.68066L 57.2783 5.71973L 55.1797 6.3418L 56.5332 8.19434L 55.6855 8.83691L 54.4141 6.86816L 53.1836 8.78906L 52.3291 8.16699L 53.7031 6.28027ZM 64.8252 13L 58.3037 13L 58.3037 12.0908L 61.749 8.2627C 62.2594 7.68392 62.6104 7.21452 62.8018 6.85449C 62.9977 6.48991 63.0957 6.11393 63.0957 5.72656C 63.0957 5.20703 62.9385 4.78092 62.624 4.44824C 62.3096 4.11556 61.8903 3.94922 61.3662 3.94922C 60.7373 3.94922 60.2474 4.12923 59.8965 4.48926C 59.5501 4.84473 59.377 5.34147 59.377 5.97949L 58.1123 5.97949C 58.1123 5.06348 58.4062 4.32292 58.9941 3.75781C 59.5866 3.19271 60.3773 2.91016 61.3662 2.91016C 62.2913 2.91016 63.0228 3.15397 63.5605 3.6416C 64.0983 4.12467 64.3672 4.76953 64.3672 5.57617C 64.3672 6.55599 63.7428 7.72266 62.4941 9.07617L 59.8281 11.9678L 64.8252 11.9678L 64.8252 13ZM 10.1172 22.2803L 8.05273 21.665L 8.36719 20.6328L 10.4316 21.3984L 10.3701 19.0469L 11.416 19.0469L 11.3477 21.4326L 13.3779 20.6807L 13.6924 21.7197L 11.5938 22.3418L 12.9473 24.1943L 12.0996 24.8369L 10.8281 22.8682L 9.59766 24.7891L 8.74316 24.167L 10.1172 22.2803ZM 16.5566 23.4082L 17.5068 23.4082C 18.1038 23.3991 18.5732 23.2419 18.915 22.9365C 19.2568 22.6312 19.4277 22.2188 19.4277 21.6992C 19.4277 20.5326 18.8467 19.9492 17.6846 19.9492C 17.1377 19.9492 16.7002 20.1064 16.3721 20.4209C 16.0485 20.7308 15.8867 21.1432 15.8867 21.6582L 14.6221 21.6582C 14.6221 20.8698 14.9092 20.2158 15.4834 19.6963C 16.0622 19.1722 16.7959 18.9102 17.6846 18.9102C 18.6234 18.9102 19.3594 19.1585 19.8926 19.6553C 20.4258 20.152 20.6924 20.8424 20.6924 21.7266C 20.6924 22.1595 20.5511 22.5788 20.2686 22.9844C 19.9906 23.39 19.61 23.693 19.127 23.8936C 19.6738 24.0667 20.0954 24.3538 20.3916 24.7549C 20.6924 25.1559 20.8428 25.6458 20.8428 26.2246C 20.8428 27.1178 20.5511 27.8265 19.9678 28.3506C 19.3844 28.8747 18.6257 29.1367 17.6914 29.1367C 16.7572 29.1367 15.9961 28.8838 15.4082 28.3779C 14.8249 27.8721 14.5332 27.2044 14.5332 26.375L 15.8047 26.375C 15.8047 26.8991 15.9756 27.3184 16.3174 27.6328C 16.6592 27.9473 17.1172 28.1045 17.6914 28.1045C 18.3021 28.1045 18.7692 27.945 19.0928 27.626C 19.4163 27.307 19.5781 26.849 19.5781 26.252C 19.5781 25.6732 19.4004 25.2288 19.0449 24.9189C 18.6895 24.609 18.1768 24.4495 17.5068 24.4404L 16.5566 24.4404L 16.5566 23.4082ZM 33.2773 23.6611L 36.0527 23.6611L 36.0527 24.8574L 33.2773 24.8574L 33.2773 28.002L 32.0059 28.002L 32.0059 24.8574L 29.2305 24.8574L 29.2305 23.6611L 32.0059 23.6611L 32.0059 20.7559L 33.2773 20.7559L 33.2773 23.6611ZM 53.7031 22.2803L 51.6387 21.665L 51.9531 20.6328L 54.0176 21.3984L 53.9561 19.0469L 55.002 19.0469L 54.9336 21.4326L 56.9639 20.6807L 57.2783 21.7197L 55.1797 22.3418L 56.5332 24.1943L 55.6855 24.8369L 54.4141 22.8682L 53.1836 24.7891L 52.3291 24.167L 53.7031 22.2803ZM 64.8252 29L 58.3037 29L 58.3037 28.0908L 61.749 24.2627C 62.2594 23.6839 62.6104 23.2145 62.8018 22.8545C 62.9977 22.4899 63.0957 22.1139 63.0957 21.7266C 63.0957 21.207 62.9385 20.7809 62.624 20.4482C 62.3096 20.1156 61.8903 19.9492 61.3662 19.9492C 60.7373 19.9492 60.2474 20.1292 59.8965 20.4893C 59.5501 20.8447 59.377 21.3415 59.377 21.9795L 58.1123 21.9795C 58.1123 21.0635 58.4062 20.3229 58.9941 19.7578C 59.5866 19.1927 60.3773 18.9102 61.3662 18.9102C 62.2913 18.9102 63.0228 19.154 63.5605 19.6416C 64.0983 20.1247 64.3672 20.7695 64.3672 21.5762C 64.3672 22.556 63.7428 23.7227 62.4941 25.0762L 59.8281 27.9678L 64.8252 27.9678L 64.8252 29Z"/>
<path id="path10_fill" d="M 4.9834 13L 3.71191 13L 3.71191 4.57129L 1.16211 5.50781L 1.16211 4.35938L 4.78516 2.99902L 4.9834 2.99902L 4.9834 13ZM 50.6543 8.75488C 50.6543 10.236 50.4014 11.3366 49.8955 12.0566C 49.3896 12.7767 48.599 13.1367 47.5234 13.1367C 46.4616 13.1367 45.6755 12.7858 45.165 12.084C 44.6546 11.3776 44.3903 10.3249 44.3721 8.92578L 44.3721 7.2373C 44.3721 5.77441 44.625 4.6875 45.1309 3.97656C 45.6367 3.26562 46.4297 2.91016 47.5098 2.91016C 48.5807 2.91016 49.3691 3.25423 49.875 3.94238C 50.3809 4.62598 50.6406 5.68327 50.6543 7.11426L 50.6543 8.75488ZM 49.3896 7.02539C 49.3896 5.95443 49.2393 5.17513 48.9385 4.6875C 48.6377 4.19531 48.1615 3.94922 47.5098 3.94922C 46.8626 3.94922 46.391 4.19303 46.0947 4.68066C 45.7985 5.16829 45.6458 5.91797 45.6367 6.92969L 45.6367 8.95312C 45.6367 10.0286 45.7917 10.8239 46.1016 11.3389C 46.416 11.8493 46.89 12.1045 47.5234 12.1045C 48.1478 12.1045 48.6104 11.863 48.9111 11.3799C 49.2165 10.8968 49.376 10.1357 49.3896 9.09668L 49.3896 7.02539ZM 7.06836 24.7549C 7.06836 26.236 6.81543 27.3366 6.30957 28.0566C 5.80371 28.7767 5.01302 29.1367 3.9375 29.1367C 2.87565 29.1367 2.08952 28.7858 1.5791 28.084C 1.06868 27.3776 0.804362 26.3249 0.786133 24.9258L 0.786133 23.2373C 0.786133 21.7744 1.03906 20.6875 1.54492 19.9766C 2.05078 19.2656 2.84375 18.9102 3.92383 18.9102C 4.99479 18.9102 5.7832 19.2542 6.28906 19.9424C 6.79492 20.626 7.05469 21.6833 7.06836 23.1143L 7.06836 24.7549ZM 5.80371 23.0254C 5.80371 21.9544 5.65332 21.1751 5.35254 20.6875C 5.05176 20.1953 4.57552 19.9492 3.92383 19.9492C 3.27669 19.9492 2.80501 20.193 2.50879 20.6807C 2.21257 21.1683 2.0599 21.918 2.05078 22.9297L 2.05078 24.9531C 2.05078 26.0286 2.20573 26.8239 2.51562 27.3389C 2.83008 27.8493 3.30404 28.1045 3.9375 28.1045C 4.56185 28.1045 5.02441 27.863 5.3252 27.3799C 5.63053 26.8968 5.79004 26.1357 5.80371 25.0967L 5.80371 23.0254ZM 48.5693 29L 47.2979 29L 47.2979 20.5713L 44.748 21.5078L 44.748 20.3594L 48.3711 18.999L 48.5693 18.999L 48.5693 29Z"/>
<path id="path11_fill" d="M 3.43848 8.30371L 5.0791 5.60352L 6.55566 5.60352L 4.13574 9.26074L 6.63086 13L 5.16797 13L 3.45898 10.2314L 1.75 13L 0.280273 13L 2.77539 9.26074L 0.355469 5.60352L 1.81836 5.60352L 3.43848 8.30371ZM 3.43848 24.3037L 5.0791 21.6035L 6.55566 21.6035L 4.13574 25.2607L 6.63086 29L 5.16797 29L 3.45898 26.2314L 1.75 29L 0.280273 29L 2.77539 25.2607L 0.355469 21.6035L 1.81836 21.6035L 3.43848 24.3037Z"/>
<path id="path12_fill" d="M 11.2998 8.30371L 12.9404 5.60352L 14.417 5.60352L 11.9971 9.26074L 14.4922 13L 13.0293 13L 11.3203 10.2314L 9.61133 13L 8.1416 13L 10.6367 9.26074L 8.2168 5.60352L 9.67969 5.60352L 11.2998 8.30371ZM 29.8047 7.66113L 32.5801 7.66113L 32.5801 8.85742L 29.8047 8.85742L 29.8047 12.002L 28.5332 12.002L 28.5332 8.85742L 25.7578 8.85742L 25.7578 7.66113L 28.5332 7.66113L 28.5332 4.75586L 29.8047 4.75586L 29.8047 7.66113ZM 51.4131 8.30371L 53.0537 5.60352L 54.5303 5.60352L 52.1104 9.26074L 54.6055 13L 53.1426 13L 51.4336 10.2314L 49.7246 13L 48.2549 13L 50.75 9.26074L 48.3301 5.60352L 49.793 5.60352L 51.4131 8.30371ZM 11.2998 24.3037L 12.9404 21.6035L 14.417 21.6035L 11.9971 25.2607L 14.4922 29L 13.0293 29L 11.3203 26.2314L 9.61133 29L 8.1416 29L 10.6367 25.2607L 8.2168 21.6035L 9.67969 21.6035L 11.2998 24.3037ZM 29.8047 23.6611L 32.5801 23.6611L 32.5801 24.8574L 29.8047 24.8574L 29.8047 28.002L 28.5332 28.002L 28.5332 24.8574L 25.7578 24.8574L 25.7578 23.6611L 28.5332 23.6611L 28.5332 20.7559L 29.8047 20.7559L 29.8047 23.6611ZM 51.4131 24.3037L 53.0537 21.6035L 54.5303 21.6035L 52.1104 25.2607L 54.6055 29L 53.1426 29L 51.4336 26.2314L 49.7246 29L 48.2549 29L 50.75 25.2607L 48.3301 21.6035L 49.793 21.6035L 51.4131 24.3037Z"/>
<path id="path13_fill" d="M 4.9834 13L 3.71191 13L 3.71191 4.57129L 1.16211 5.50781L 1.16211 4.35938L 4.78516 2.99902L 4.9834 2.99902L 4.9834 13ZM 47.1816 8.75488C 47.1816 10.236 46.9287 11.3366 46.4229 12.0566C 45.917 12.7767 45.1263 13.1367 44.0508 13.1367C 42.9889 13.1367 42.2028 12.7858 41.6924 12.084C 41.182 11.3776 40.9176 10.3249 40.8994 8.92578L 40.8994 7.2373C 40.8994 5.77441 41.1523 4.6875 41.6582 3.97656C 42.1641 3.26562 42.957 2.91016 44.0371 2.91016C 45.1081 2.91016 45.8965 3.25423 46.4023 3.94238C 46.9082 4.62598 47.168 5.68327 47.1816 7.11426L 47.1816 8.75488ZM 45.917 7.02539C 45.917 5.95443 45.7666 5.17513 45.4658 4.6875C 45.165 4.19531 44.6888 3.94922 44.0371 3.94922C 43.39 3.94922 42.9183 4.19303 42.6221 4.68066C 42.3258 5.16829 42.1732 5.91797 42.1641 6.92969L 42.1641 8.95312C 42.1641 10.0286 42.319 10.8239 42.6289 11.3389C 42.9434 11.8493 43.4173 12.1045 44.0508 12.1045C 44.6751 12.1045 45.1377 11.863 45.4385 11.3799C 45.7438 10.8968 45.9033 10.1357 45.917 9.09668L 45.917 7.02539ZM 7.06836 24.7549C 7.06836 26.236 6.81543 27.3366 6.30957 28.0566C 5.80371 28.7767 5.01302 29.1367 3.9375 29.1367C 2.87565 29.1367 2.08952 28.7858 1.5791 28.084C 1.06868 27.3776 0.804362 26.3249 0.786133 24.9258L 0.786133 23.2373C 0.786133 21.7744 1.03906 20.6875 1.54492 19.9766C 2.05078 19.2656 2.84375 18.9102 3.92383 18.9102C 4.99479 18.9102 5.7832 19.2542 6.28906 19.9424C 6.79492 20.626 7.05469 21.6833 7.06836 23.1143L 7.06836 24.7549ZM 5.80371 23.0254C 5.80371 21.9544 5.65332 21.1751 5.35254 20.6875C 5.05176 20.1953 4.57552 19.9492 3.92383 19.9492C 3.27669 19.9492 2.80501 20.193 2.50879 20.6807C 2.21257 21.1683 2.0599 21.918 2.05078 22.9297L 2.05078 24.9531C 2.05078 26.0286 2.20573 26.8239 2.51562 27.3389C 2.83008 27.8493 3.30404 28.1045 3.9375 28.1045C 4.56185 28.1045 5.02441 27.863 5.3252 27.3799C 5.63053 26.8968 5.79004 26.1357 5.80371 25.0967L 5.80371 23.0254ZM 45.0967 29L 43.8252 29L 43.8252 20.5713L 41.2754 21.5078L 41.2754 20.3594L 44.8984 18.999L 45.0967 18.999L 45.0967 29Z"/>
<path id="path14_fill" d="M 3.50391 7.19727C 2.53906 6.91992 1.83594 6.58008 1.39453 6.17773C 0.957031 5.77148 0.738281 5.27148 0.738281 4.67773C 0.738281 4.00586 1.00586 3.45117 1.54102 3.01367C 2.08008 2.57227 2.7793 2.35156 3.63867 2.35156C 4.22461 2.35156 4.74609 2.46484 5.20312 2.69141C 5.66406 2.91797 6.01953 3.23047 6.26953 3.62891C 6.52344 4.02734 6.65039 4.46289 6.65039 4.93555L 5.51953 4.93555C 5.51953 4.41992 5.35547 4.01562 5.02734 3.72266C 4.69922 3.42578 4.23633 3.27734 3.63867 3.27734C 3.08398 3.27734 2.65039 3.40039 2.33789 3.64648C 2.0293 3.88867 1.875 4.22656 1.875 4.66016C 1.875 5.00781 2.02148 5.30273 2.31445 5.54492C 2.61133 5.7832 3.11328 6.00195 3.82031 6.20117C 4.53125 6.40039 5.08594 6.62109 5.48438 6.86328C 5.88672 7.10156 6.18359 7.38086 6.375 7.70117C 6.57031 8.02148 6.66797 8.39844 6.66797 8.83203C 6.66797 9.52344 6.39844 10.0781 5.85938 10.4961C 5.32031 10.9102 4.59961 11.1172 3.69727 11.1172C 3.11133 11.1172 2.56445 11.0059 2.05664 10.7832C 1.54883 10.5566 1.15625 10.248 0.878906 9.85742C 0.605469 9.4668 0.46875 9.02344 0.46875 8.52734L 1.59961 8.52734C 1.59961 9.04297 1.78906 9.45117 2.16797 9.75195C 2.55078 10.0488 3.06055 10.1973 3.69727 10.1973C 4.29102 10.1973 4.74609 10.0762 5.0625 9.83398C 5.37891 9.5918 5.53711 9.26172 5.53711 8.84375C 5.53711 8.42578 5.39062 8.10352 5.09766 7.87695C 4.80469 7.64648 4.27344 7.41992 3.50391 7.19727ZM 13.3008 7.90039C 13.3008 8.86523 13.0801 9.64258 12.6387 10.2324C 12.1973 10.8223 11.5996 11.1172 10.8457 11.1172C 10.0762 11.1172 9.4707 10.873 9.0293 10.3848L 9.0293 13.4375L 7.94531 13.4375L 7.94531 4.66016L 8.93555 4.66016L 8.98828 5.36328C 9.42969 4.81641 10.043 4.54297 10.8281 4.54297C 11.5898 4.54297 12.1914 4.83008 12.6328 5.4043C 13.0781 5.97852 13.3008 6.77734 13.3008 7.80078L 13.3008 7.90039ZM 12.2168 7.77734C 12.2168 7.0625 12.0645 6.49805 11.7598 6.08398C 11.4551 5.66992 11.0371 5.46289 10.5059 5.46289C 9.84961 5.46289 9.35742 5.75391 9.0293 6.33594L 9.0293 9.36523C 9.35352 9.94336 9.84961 10.2324 10.5176 10.2324C 11.0371 10.2324 11.4492 10.0273 11.7539 9.61719C 12.0625 9.20312 12.2168 8.58984 12.2168 7.77734ZM 17.3145 11.1172C 16.4551 11.1172 15.7559 10.8359 15.2168 10.2734C 14.6777 9.70703 14.4082 8.95117 14.4082 8.00586L 14.4082 7.80664C 14.4082 7.17773 14.5273 6.61719 14.7656 6.125C 15.0078 5.62891 15.3438 5.24219 15.7734 4.96484C 16.207 4.68359 16.6758 4.54297 17.1797 4.54297C 18.0039 4.54297 18.6445 4.81445 19.1016 5.35742C 19.5586 5.90039 19.7871 6.67773 19.7871 7.68945L 19.7871 8.14062L 15.4922 8.14062C 15.5078 8.76562 15.6895 9.27148 16.0371 9.6582C 16.3887 10.041 16.834 10.2324 17.373 10.2324C 17.7559 10.2324 18.0801 10.1543 18.3457 9.99805C 18.6113 9.8418 18.8438 9.63477 19.043 9.37695L 19.7051 9.89258C 19.1738 10.709 18.377 11.1172 17.3145 11.1172ZM 17.1797 5.43359C 16.7422 5.43359 16.375 5.59375 16.0781 5.91406C 15.7812 6.23047 15.5977 6.67578 15.5273 7.25L 18.7031 7.25L 18.7031 7.16797C 18.6719 6.61719 18.5234 6.19141 18.2578 5.89062C 17.9922 5.58594 17.6328 5.43359 17.1797 5.43359ZM 23.5898 10.2324C 23.9766 10.2324 24.3145 10.1152 24.6035 9.88086C 24.8926 9.64648 25.0527 9.35352 25.084 9.00195L 26.1094 9.00195C 26.0898 9.36523 25.9648 9.71094 25.7344 10.0391C 25.5039 10.3672 25.1953 10.6289 24.8086 10.8242C 24.4258 11.0195 24.0195 11.1172 23.5898 11.1172C 22.7266 11.1172 22.0391 10.8301 21.5273 10.2559C 21.0195 9.67773 20.7656 8.88867 20.7656 7.88867L 20.7656 7.70703C 20.7656 7.08984 20.8789 6.54102 21.1055 6.06055C 21.332 5.58008 21.6562 5.20703 22.0781 4.94141C 22.5039 4.67578 23.0059 4.54297 23.584 4.54297C 24.2949 4.54297 24.8848 4.75586 25.3535 5.18164C 25.8262 5.60742 26.0781 6.16016 26.1094 6.83984L 25.084 6.83984C 25.0527 6.42969 24.8965 6.09375 24.6152 5.83203C 24.3379 5.56641 23.9941 5.43359 23.584 5.43359C 23.0332 5.43359 22.6055 5.63281 22.3008 6.03125C 22 6.42578 21.8496 6.99805 21.8496 7.74805L 21.8496 7.95312C 21.8496 8.68359 22 9.24609 22.3008 9.64062C 22.6016 10.0352 23.0312 10.2324 23.5898 10.2324ZM 28.5059 11L 27.4219 11L 27.4219 4.66016L 28.5059 4.66016L 28.5059 11ZM 27.334 2.97852C 27.334 2.80273 27.3867 2.6543 27.4922 2.5332C 27.6016 2.41211 27.7617 2.35156 27.9727 2.35156C 28.1836 2.35156 28.3438 2.41211 28.4531 2.5332C 28.5625 2.6543 28.6172 2.80273 28.6172 2.97852C 28.6172 3.1543 28.5625 3.30078 28.4531 3.41797C 28.3438 3.53516 28.1836 3.59375 27.9727 3.59375C 27.7617 3.59375 27.6016 3.53516 27.4922 3.41797C 27.3867 3.30078 27.334 3.1543 27.334 2.97852ZM 30.6094 11L 30.6094 5.49805L 29.6074 5.49805L 29.6074 4.66016L 30.6094 4.66016L 30.6094 4.12109C 30.6094 3.41406 30.8105 2.86328 31.2129 2.46875C 31.6191 2.07422 32.1914 1.87695 32.9297 1.87695C 33.3672 1.87695 33.9199 1.99609 34.5879 2.23438L 34.4062 3.14844C 33.918 2.95313 33.4531 2.85547 33.0117 2.85547C 32.5469 2.85547 32.2109 2.96094 32.0039 3.17188C 31.8008 3.37891 31.6992 3.69141 31.6992 4.10938L 31.6992 4.66016L 32.9941 4.66016L 32.9941 5.49805L 31.6992 5.49805L 31.6992 11L 30.6094 11ZM 35.127 11L 34.0371 11L 34.0371 4.66016L 35.127 4.66016L 35.127 11ZM 39.4336 10.2324C 39.8203 10.2324 40.1582 10.1152 40.4473 9.88086C 40.7363 9.64648 40.8965 9.35352 40.9277 9.00195L 41.9531 9.00195C 41.9336 9.36523 41.8086 9.71094 41.5781 10.0391C 41.3477 10.3672 41.0391 10.6289 40.6523 10.8242C 40.2695 11.0195 39.8633 11.1172 39.4336 11.1172C 38.5703 11.1172 37.8828 10.8301 37.3711 10.2559C 36.8633 9.67773 36.6094 8.88867 36.6094 7.88867L 36.6094 7.70703C 36.6094 7.08984 36.7227 6.54102 36.9492 6.06055C 37.1758 5.58008 37.5 5.20703 37.9219 4.94141C 38.3477 4.67578 38.8496 4.54297 39.4277 4.54297C 40.1387 4.54297 40.7285 4.75586 41.1973 5.18164C 41.6699 5.60742 41.9219 6.16016 41.9531 6.83984L 40.9277 6.83984C 40.8965 6.42969 40.7402 6.09375 40.459 5.83203C 40.1816 5.56641 39.8379 5.43359 39.4277 5.43359C 38.877 5.43359 38.4492 5.63281 38.1445 6.03125C 37.8438 6.42578 37.6934 6.99805 37.6934 7.74805L 37.6934 7.95312C 37.6934 8.68359 37.8438 9.24609 38.1445 9.64062C 38.4453 10.0352 38.875 10.2324 39.4336 10.2324ZM 52.5938 8.29297C 52.4883 9.19531 52.1543 9.89258 51.5918 10.3848C 51.0332 10.873 50.2891 11.1172 49.3594 11.1172C 48.3516 11.1172 47.543 10.7559 46.9336 10.0332C 46.3281 9.31055 46.0254 8.34375 46.0254 7.13281L 46.0254 6.3125C 46.0254 5.51953 46.166 4.82227 46.4473 4.2207C 46.7324 3.61914 47.1348 3.1582 47.6543 2.83789C 48.1738 2.51367 48.7754 2.35156 49.459 2.35156C 50.3652 2.35156 51.0918 2.60547 51.6387 3.11328C 52.1855 3.61719 52.5039 4.31641 52.5938 5.21094L 51.4629 5.21094C 51.3652 4.53125 51.1523 4.03906 50.8242 3.73438C 50.5 3.42969 50.0449 3.27734 49.459 3.27734C 48.7402 3.27734 48.1758 3.54297 47.7656 4.07422C 47.3594 4.60547 47.1562 5.36133 47.1562 6.3418L 47.1562 7.16797C 47.1562 8.09375 47.3496 8.83008 47.7363 9.37695C 48.123 9.92383 48.6641 10.1973 49.3594 10.1973C 49.9844 10.1973 50.4629 10.0566 50.7949 9.77539C 51.1309 9.49023 51.3535 8.99609 51.4629 8.29297L 52.5938 8.29297ZM 57.8789 11C 57.8164 10.875 57.7656 10.6523 57.7266 10.332C 57.2227 10.8555 56.6211 11.1172 55.9219 11.1172C 55.2969 11.1172 54.7832 10.9414 54.3809 10.5898C 53.9824 10.2344 53.7832 9.78516 53.7832 9.24219C 53.7832 8.58203 54.0332 8.07031 54.5332 7.70703C 55.0371 7.33984 55.7441 7.15625 56.6543 7.15625L 57.709 7.15625L 57.709 6.6582C 57.709 6.2793 57.5957 5.97852 57.3691 5.75586C 57.1426 5.5293 56.8086 5.41602 56.3672 5.41602C 55.9805 5.41602 55.6562 5.51367 55.3945 5.70898C 55.1328 5.9043 55.002 6.14062 55.002 6.41797L 53.9121 6.41797C 53.9121 6.10156 54.0234 5.79688 54.2461 5.50391C 54.4727 5.20703 54.7773 4.97266 55.1602 4.80078C 55.5469 4.62891 55.9707 4.54297 56.4316 4.54297C 57.1621 4.54297 57.7344 4.72656 58.1484 5.09375C 58.5625 5.45703 58.7773 5.95898 58.793 6.59961L 58.793 9.51758C 58.793 10.0996 58.8672 10.5625 59.0156 10.9062L 59.0156 11L 57.8789 11ZM 56.0801 10.1738C 56.4199 10.1738 56.7422 10.0859 57.0469 9.91016C 57.3516 9.73438 57.5723 9.50586 57.709 9.22461L 57.709 7.92383L 56.8594 7.92383C 55.5312 7.92383 54.8672 8.3125 54.8672 9.08984C 54.8672 9.42969 54.9805 9.69531 55.207 9.88672C 55.4336 10.0781 55.7246 10.1738 56.0801 10.1738ZM 64.1836 9.31836C 64.1836 9.02539 64.0723 8.79883 63.8496 8.63867C 63.6309 8.47461 63.2461 8.33398 62.6953 8.2168C 62.1484 8.09961 61.7129 7.95898 61.3887 7.79492C 61.0684 7.63086 60.8301 7.43555 60.6738 7.20898C 60.5215 6.98242 60.4453 6.71289 60.4453 6.40039C 60.4453 5.88086 60.6641 5.44141 61.1016 5.08203C 61.543 4.72266 62.1055 4.54297 62.7891 4.54297C 63.5078 4.54297 64.0898 4.72852 64.5352 5.09961C 64.9844 5.4707 65.209 5.94531 65.209 6.52344L 64.1191 6.52344C 64.1191 6.22656 63.9922 5.9707 63.7383 5.75586C 63.4883 5.54102 63.1719 5.43359 62.7891 5.43359C 62.3945 5.43359 62.0859 5.51953 61.8633 5.69141C 61.6406 5.86328 61.5293 6.08789 61.5293 6.36523C 61.5293 6.62695 61.6328 6.82422 61.8398 6.95703C 62.0469 7.08984 62.4199 7.2168 62.959 7.33789C 63.502 7.45898 63.9414 7.60352 64.2773 7.77148C 64.6133 7.93945 64.8613 8.14258 65.0215 8.38086C 65.1855 8.61523 65.2676 8.90234 65.2676 9.24219C 65.2676 9.80859 65.041 10.2637 64.5879 10.6074C 64.1348 10.9473 63.5469 11.1172 62.8242 11.1172C 62.3164 11.1172 61.8672 11.0273 61.4766 10.8477C 61.0859 10.668 60.7793 10.418 60.5566 10.0977C 60.3379 9.77344 60.2285 9.42383 60.2285 9.04883L 61.3125 9.04883C 61.332 9.41211 61.4766 9.70117 61.7461 9.91602C 62.0195 10.127 62.3789 10.2324 62.8242 10.2324C 63.2344 10.2324 63.5625 10.1504 63.8086 9.98633C 64.0586 9.81836 64.1836 9.5957 64.1836 9.31836ZM 69.3105 11.1172C 68.4512 11.1172 67.752 10.8359 67.2129 10.2734C 66.6738 9.70703 66.4043 8.95117 66.4043 8.00586L 66.4043 7.80664C 66.4043 7.17773 66.5234 6.61719 66.7617 6.125C 67.0039 5.62891 67.3398 5.24219 67.7695 4.96484C 68.2031 4.68359 68.6719 4.54297 69.1758 4.54297C 70 4.54297 70.6406 4.81445 71.0977 5.35742C 71.5547 5.90039 71.7832 6.67773 71.7832 7.68945L 71.7832 8.14062L 67.4883 8.14062C 67.5039 8.76562 67.6855 9.27148 68.0332 9.6582C 68.3848 10.041 68.8301 10.2324 69.3691 10.2324C 69.752 10.2324 70.0762 10.1543 70.3418 9.99805C 70.6074 9.8418 70.8398 9.63477 71.0391 9.37695L 71.7012 9.89258C 71.1699 10.709 70.373 11.1172 69.3105 11.1172ZM 69.1758 5.43359C 68.7383 5.43359 68.3711 5.59375 68.0742 5.91406C 67.7773 6.23047 67.5938 6.67578 67.5234 7.25L 70.6992 7.25L 70.6992 7.16797C 70.668 6.61719 70.5195 6.19141 70.2539 5.89062C 69.9883 5.58594 69.6289 5.43359 69.1758 5.43359Z"/>
<path id="path15_fill" d="M 7.28906 9.88086C 7 10.2949 6.5957 10.6055 6.07617 10.8125C 5.56055 11.0156 4.95898 11.1172 4.27148 11.1172C 3.57617 11.1172 2.95898 10.9551 2.41992 10.6309C 1.88086 10.3027 1.46289 9.83789 1.16602 9.23633C 0.873047 8.63477 0.722656 7.9375 0.714844 7.14453L 0.714844 6.40039C 0.714844 5.11523 1.01367 4.11914 1.61133 3.41211C 2.21289 2.70508 3.05664 2.35156 4.14258 2.35156C 5.0332 2.35156 5.75 2.58008 6.29297 3.03711C 6.83594 3.49023 7.16797 4.13477 7.28906 4.9707L 6.16406 4.9707C 5.95312 3.8418 5.28125 3.27734 4.14844 3.27734C 3.39453 3.27734 2.82227 3.54297 2.43164 4.07422C 2.04492 4.60156 1.84961 5.36719 1.8457 6.37109L 1.8457 7.06836C 1.8457 8.02539 2.06445 8.78711 2.50195 9.35352C 2.93945 9.91602 3.53125 10.1973 4.27734 10.1973C 4.69922 10.1973 5.06836 10.1504 5.38477 10.0566C 5.70117 9.96289 5.96289 9.80469 6.16992 9.58203L 6.16992 7.66602L 4.19531 7.66602L 4.19531 6.75195L 7.28906 6.75195L 7.28906 9.88086ZM 11.6309 11.1172C 10.7715 11.1172 10.0723 10.8359 9.5332 10.2734C 8.99414 9.70703 8.72461 8.95117 8.72461 8.00586L 8.72461 7.80664C 8.72461 7.17773 8.84375 6.61719 9.08203 6.125C 9.32422 5.62891 9.66016 5.24219 10.0898 4.96484C 10.5234 4.68359 10.9922 4.54297 11.4961 4.54297C 12.3203 4.54297 12.9609 4.81445 13.418 5.35742C 13.875 5.90039 14.1035 6.67773 14.1035 7.68945L 14.1035 8.14062L 9.80859 8.14062C 9.82422 8.76562 10.0059 9.27148 10.3535 9.6582C 10.7051 10.041 11.1504 10.2324 11.6895 10.2324C 12.0723 10.2324 12.3965 10.1543 12.6621 9.99805C 12.9277 9.8418 13.1602 9.63477 13.3594 9.37695L 14.0215 9.89258C 13.4902 10.709 12.6934 11.1172 11.6309 11.1172ZM 11.4961 5.43359C 11.0586 5.43359 10.6914 5.59375 10.3945 5.91406C 10.0977 6.23047 9.91406 6.67578 9.84375 7.25L 13.0195 7.25L 13.0195 7.16797C 12.9883 6.61719 12.8398 6.19141 12.5742 5.89062C 12.3086 5.58594 11.9492 5.43359 11.4961 5.43359ZM 16.3887 4.66016L 16.4238 5.45703C 16.9082 4.84766 17.541 4.54297 18.3223 4.54297C 19.6621 4.54297 20.3379 5.29883 20.3496 6.81055L 20.3496 11L 19.2656 11L 19.2656 6.80469C 19.2617 6.34766 19.1562 6.00977 18.9492 5.79102C 18.7461 5.57227 18.4277 5.46289 17.9941 5.46289C 17.6426 5.46289 17.334 5.55664 17.0684 5.74414C 16.8027 5.93164 16.5957 6.17773 16.4473 6.48242L 16.4473 11L 15.3633 11L 15.3633 4.66016L 16.3887 4.66016ZM 24.6152 11.1172C 23.7559 11.1172 23.0566 10.8359 22.5176 10.2734C 21.9785 9.70703 21.709 8.95117 21.709 8.00586L 21.709 7.80664C 21.709 7.17773 21.8281 6.61719 22.0664 6.125C 22.3086 5.62891 22.6445 5.24219 23.0742 4.96484C 23.5078 4.68359 23.9766 4.54297 24.4805 4.54297C 25.3047 4.54297 25.9453 4.81445 26.4023 5.35742C 26.8594 5.90039 27.0879 6.67773 27.0879 7.68945L 27.0879 8.14062L 22.793 8.14062C 22.8086 8.76562 22.9902 9.27148 23.3379 9.6582C 23.6895 10.041 24.1348 10.2324 24.6738 10.2324C 25.0566 10.2324 25.3809 10.1543 25.6465 9.99805C 25.9121 9.8418 26.1445 9.63477 26.3438 9.37695L 27.0059 9.89258C 26.4746 10.709 25.6777 11.1172 24.6152 11.1172ZM 24.4805 5.43359C 24.043 5.43359 23.6758 5.59375 23.3789 5.91406C 23.082 6.23047 22.8984 6.67578 22.8281 7.25L 26.0039 7.25L 26.0039 7.16797C 25.9727 6.61719 25.8242 6.19141 25.5586 5.89062C 25.293 5.58594 24.9336 5.43359 24.4805 5.43359ZM 31.4121 5.63281C 31.248 5.60547 31.0703 5.5918 30.8789 5.5918C 30.168 5.5918 29.6855 5.89453 29.4316 6.5L 29.4316 11L 28.3477 11L 28.3477 4.66016L 29.4023 4.66016L 29.4199 5.39258C 29.7754 4.82617 30.2793 4.54297 30.9316 4.54297C 31.1426 4.54297 31.3027 4.57031 31.4121 4.625L 31.4121 5.63281ZM 36.0938 11C 36.0312 10.875 35.9805 10.6523 35.9414 10.332C 35.4375 10.8555 34.8359 11.1172 34.1367 11.1172C 33.5117 11.1172 32.998 10.9414 32.5957 10.5898C 32.1973 10.2344 31.998 9.78516 31.998 9.24219C 31.998 8.58203 32.248 8.07031 32.748 7.70703C 33.252 7.33984 33.959 7.15625 34.8691 7.15625L 35.9238 7.15625L 35.9238 6.6582C 35.9238 6.2793 35.8105 5.97852 35.584 5.75586C 35.3574 5.5293 35.0234 5.41602 34.582 5.41602C 34.1953 5.41602 33.8711 5.51367 33.6094 5.70898C 33.3477 5.9043 33.2168 6.14062 33.2168 6.41797L 32.127 6.41797C 32.127 6.10156 32.2383 5.79688 32.4609 5.50391C 32.6875 5.20703 32.9922 4.97266 33.375 4.80078C 33.7617 4.62891 34.1855 4.54297 34.6465 4.54297C 35.377 4.54297 35.9492 4.72656 36.3633 5.09375C 36.7773 5.45703 36.9922 5.95898 37.0078 6.59961L 37.0078 9.51758C 37.0078 10.0996 37.082 10.5625 37.2305 10.9062L 37.2305 11L 36.0938 11ZM 34.2949 10.1738C 34.6348 10.1738 34.957 10.0859 35.2617 9.91016C 35.5664 9.73438 35.7871 9.50586 35.9238 9.22461L 35.9238 7.92383L 35.0742 7.92383C 33.7461 7.92383 33.082 8.3125 33.082 9.08984C 33.082 9.42969 33.1953 9.69531 33.4219 9.88672C 33.6484 10.0781 33.9395 10.1738 34.2949 10.1738ZM 39.8848 11L 38.8008 11L 38.8008 2L 39.8848 2L 39.8848 11ZM 51.0469 8.29297C 50.9414 9.19531 50.6074 9.89258 50.0449 10.3848C 49.4863 10.873 48.7422 11.1172 47.8125 11.1172C 46.8047 11.1172 45.9961 10.7559 45.3867 10.0332C 44.7812 9.31055 44.4785 8.34375 44.4785 7.13281L 44.4785 6.3125C 44.4785 5.51953 44.6191 4.82227 44.9004 4.2207C 45.1855 3.61914 45.5879 3.1582 46.1074 2.83789C 46.627 2.51367 47.2285 2.35156 47.9121 2.35156C 48.8184 2.35156 49.5449 2.60547 50.0918 3.11328C 50.6387 3.61719 50.957 4.31641 51.0469 5.21094L 49.916 5.21094C 49.8184 4.53125 49.6055 4.03906 49.2773 3.73438C 48.9531 3.42969 48.498 3.27734 47.9121 3.27734C 47.1934 3.27734 46.6289 3.54297 46.2188 4.07422C 45.8125 4.60547 45.6094 5.36133 45.6094 6.3418L 45.6094 7.16797C 45.6094 8.09375 45.8027 8.83008 46.1895 9.37695C 46.5762 9.92383 47.1172 10.1973 47.8125 10.1973C 48.4375 10.1973 48.916 10.0566 49.248 9.77539C 49.584 9.49023 49.8066 8.99609 49.916 8.29297L 51.0469 8.29297ZM 56.332 11C 56.2695 10.875 56.2188 10.6523 56.1797 10.332C 55.6758 10.8555 55.0742 11.1172 54.375 11.1172C 53.75 11.1172 53.2363 10.9414 52.834 10.5898C 52.4355 10.2344 52.2363 9.78516 52.2363 9.24219C 52.2363 8.58203 52.4863 8.07031 52.9863 7.70703C 53.4902 7.33984 54.1973 7.15625 55.1074 7.15625L 56.1621 7.15625L 56.1621 6.6582C 56.1621 6.2793 56.0488 5.97852 55.8223 5.75586C 55.5957 5.5293 55.2617 5.41602 54.8203 5.41602C 54.4336 5.41602 54.1094 5.51367 53.8477 5.70898C 53.5859 5.9043 53.4551 6.14062 53.4551 6.41797L 52.3652 6.41797C 52.3652 6.10156 52.4766 5.79688 52.6992 5.50391C 52.9258 5.20703 53.2305 4.97266 53.6133 4.80078C 54 4.62891 54.4238 4.54297 54.8848 4.54297C 55.6152 4.54297 56.1875 4.72656 56.6016 5.09375C 57.0156 5.45703 57.2305 5.95898 57.2461 6.59961L 57.2461 9.51758C 57.2461 10.0996 57.3203 10.5625 57.4688 10.9062L 57.4688 11L 56.332 11ZM 54.5332 10.1738C 54.873 10.1738 55.1953 10.0859 55.5 9.91016C 55.8047 9.73438 56.0254 9.50586 56.1621 9.22461L 56.1621 7.92383L 55.3125 7.92383C 53.9844 7.92383 53.3203 8.3125 53.3203 9.08984C 53.3203 9.42969 53.4336 9.69531 53.6602 9.88672C 53.8867 10.0781 54.1777 10.1738 54.5332 10.1738ZM 62.6367 9.31836C 62.6367 9.02539 62.5254 8.79883 62.3027 8.63867C 62.084 8.47461 61.6992 8.33398 61.1484 8.2168C 60.6016 8.09961 60.166 7.95898 59.8418 7.79492C 59.5215 7.63086 59.2832 7.43555 59.127 7.20898C 58.9746 6.98242 58.8984 6.71289 58.8984 6.40039C 58.8984 5.88086 59.1172 5.44141 59.5547 5.08203C 59.9961 4.72266 60.5586 4.54297 61.2422 4.54297C 61.9609 4.54297 62.543 4.72852 62.9883 5.09961C 63.4375 5.4707 63.6621 5.94531 63.6621 6.52344L 62.5723 6.52344C 62.5723 6.22656 62.4453 5.9707 62.1914 5.75586C 61.9414 5.54102 61.625 5.43359 61.2422 5.43359C 60.8477 5.43359 60.5391 5.51953 60.3164 5.69141C 60.0938 5.86328 59.9824 6.08789 59.9824 6.36523C 59.9824 6.62695 60.0859 6.82422 60.293 6.95703C 60.5 7.08984 60.873 7.2168 61.4121 7.33789C 61.9551 7.45898 62.3945 7.60352 62.7305 7.77148C 63.0664 7.93945 63.3145 8.14258 63.4746 8.38086C 63.6387 8.61523 63.7207 8.90234 63.7207 9.24219C 63.7207 9.80859 63.4941 10.2637 63.041 10.6074C 62.5879 10.9473 62 11.1172 61.2773 11.1172C 60.7695 11.1172 60.3203 11.0273 59.9297 10.8477C 59.5391 10.668 59.2324 10.418 59.0098 10.0977C 58.791 9.77344 58.6816 9.42383 58.6816 9.04883L 59.7656 9.04883C 59.7852 9.41211 59.9297 9.70117 60.1992 9.91602C 60.4727 10.127 60.832 10.2324 61.2773 10.2324C 61.6875 10.2324 62.0156 10.1504 62.2617 9.98633C 62.5117 9.81836 62.6367 9.5957 62.6367 9.31836ZM 67.7637 11.1172C 66.9043 11.1172 66.2051 10.8359 65.666 10.2734C 65.127 9.70703 64.8574 8.95117 64.8574 8.00586L 64.8574 7.80664C 64.8574 7.17773 64.9766 6.61719 65.2148 6.125C 65.457 5.62891 65.793 5.24219 66.2227 4.96484C 66.6562 4.68359 67.125 4.54297 67.6289 4.54297C 68.4531 4.54297 69.0938 4.81445 69.5508 5.35742C 70.0078 5.90039 70.2363 6.67773 70.2363 7.68945L 70.2363 8.14062L 65.9414 8.14062C 65.957 8.76562 66.1387 9.27148 66.4863 9.6582C 66.8379 10.041 67.2832 10.2324 67.8223 10.2324C 68.2051 10.2324 68.5293 10.1543 68.7949 9.99805C 69.0605 9.8418 69.293 9.63477 69.4922 9.37695L 70.1543 9.89258C 69.623 10.709 68.8262 11.1172 67.7637 11.1172ZM 67.6289 5.43359C 67.1914 5.43359 66.8242 5.59375 66.5273 5.91406C 66.2305 6.23047 66.0469 6.67578 65.9766 7.25L 69.1523 7.25L 69.1523 7.16797C 69.1211 6.61719 68.9727 6.19141 68.707 5.89062C 68.4414 5.58594 68.082 5.43359 67.6289 5.43359Z"/>
<path id="path16_fill" d="M 2.4917 6L 1.85596 6L 1.85596 1.78564L 0.581055 2.25391L 0.581055 1.67969L 2.39258 0.999512L 2.4917 0.999512L 2.4917 6ZM 3.67432 23L 0.413574 23L 0.413574 22.5454L 2.13623 20.6313C 2.39144 20.342 2.56689 20.1073 2.6626 19.9272C 2.76058 19.745 2.80957 19.557 2.80957 19.3633C 2.80957 19.1035 2.73096 18.8905 2.57373 18.7241C 2.4165 18.5578 2.20687 18.4746 1.94482 18.4746C 1.63037 18.4746 1.38542 18.5646 1.20996 18.7446C 1.03678 18.9224 0.950195 19.1707 0.950195 19.4897L 0.317871 19.4897C 0.317871 19.0317 0.464844 18.6615 0.758789 18.3789C 1.05501 18.0964 1.45036 17.9551 1.94482 17.9551C 2.40739 17.9551 2.77311 18.077 3.04199 18.3208C 3.31087 18.5623 3.44531 18.8848 3.44531 19.2881C 3.44531 19.778 3.13314 20.3613 2.50879 21.0381L 1.17578 22.4839L 3.67432 22.4839L 3.67432 23Z"/>
<path id="path17_fill" d="M 2.4917 6L 1.85596 6L 1.85596 1.78564L 0.581055 2.25391L 0.581055 1.67969L 2.39258 0.999512L 2.4917 0.999512L 2.4917 6ZM 44.0679 6L 40.8071 6L 40.8071 5.54541L 42.5298 3.63135C 42.785 3.34196 42.9604 3.10726 43.0562 2.92725C 43.1541 2.74495 43.2031 2.55697 43.2031 2.36328C 43.2031 2.10352 43.1245 1.89046 42.9673 1.72412C 42.8101 1.55778 42.6004 1.47461 42.3384 1.47461C 42.0239 1.47461 41.779 1.56462 41.6035 1.74463C 41.4303 1.92236 41.3438 2.17074 41.3438 2.48975L 40.7114 2.48975C 40.7114 2.03174 40.8584 1.66146 41.1523 1.37891C 41.4486 1.09635 41.8439 0.955078 42.3384 0.955078C 42.8009 0.955078 43.1667 1.07699 43.4355 1.3208C 43.7044 1.56234 43.8389 1.88477 43.8389 2.28809C 43.8389 2.77799 43.5267 3.36133 42.9023 4.03809L 41.5693 5.48389L 44.0679 5.48389L 44.0679 6Z"/>
</defs>
</svg>

