<svg width="392" height="195" viewBox="0 0 392 195" version="1.1" xmlns="http://www.w3.org/2000/svg" xmlns:xlink="http://www.w3.org/1999/xlink">
<title>Group.svg</title>
<desc>Created using Figma</desc>
<g id="Canvas" transform="translate(651 -1567)">
<g id="Group">
<g id="Line 7">
<use xlink:href="#path0_stroke" transform="matrix(0.00648473 0.999979 -0.999979 0.00650202 -422 1568)"/>
</g>
<g id="Line 7">
<use xlink:href="#path1_stroke" transform="matrix(1 -2.45256e-16 2.44604e-16 1 -576.742 1665)"/>
</g>
<g id="Group">
<g id="Line 8">
<use xlink:href="#path2_stroke" transform="matrix(6.12323e-17 1 -1 6.12323e-17 -403.129 1665)"/>
</g>
<g id="Line 8">
<use xlink:href="#path2_stroke" transform="matrix(6.11509e-17 1 -1 6.13139e-17 -383 1665)"/>
</g>
<g id="Line 8">
<use xlink:href="#path2_stroke" transform="matrix(6.11509e-17 1 -1 6.13139e-17 -364.129 1665)"/>
</g>
<g id="Line 8">
<use xlink:href="#path2_stroke" transform="matrix(6.11509e-17 1 -1 6.13139e-17 -345.258 1665)"/>
</g>
<g id="Line 8">
<use xlink:href="#path2_stroke" transform="matrix(6.11509e-17 1 -1 6.13139e-17 -325.129 1665)"/>
</g>
<g id="Line 8">
<use xlink:href="#path2_stroke" transform="matrix(6.11509e-17 1 -1 6.13139e-17 -305 1665)"/>
</g>
<g id="Line 8">
<use xlink:href="#path2_stroke" transform="matrix(6.11509e-17 1 -1 6.13139e-17 -286.129 1665)"/>
</g>
<g id="Line 8">
<use xlink:href="#path2_stroke" transform="matrix(6.11509e-17 1 -1 6.13139e-17 -268.516 1665)"/>
</g>
</g>
<g id="Line 8">
<use xlink:href="#path3_stroke" transform="matrix(1 -2.67545e-24 2.66834e-24 1 -420.742 1646.1)"/>
</g>
<g id="Line 8">
<use xlink:href="#path3_stroke" transform="matrix(1 -2.67545e-24 2.66834e-24 1 -420.742 1625.95)"/>
</g>
<g id="Line 8">
<use xlink:href="#path3_stroke" transform="matrix(1 -2.67545e-24 2.66834e-24 1 -420.742 1607.05)"/>
</g>
<g id="Line 8">
<use xlink:href="#path3_stroke" transform="matrix(1 -2.67545e-24 2.66834e-24 1 -420.742 1588.16)"/>
</g>
<g id="Line 8">
<use xlink:href="#path3_stroke" transform="matrix(1 -2.67545e-24 2.66834e-24 1 -422 1569.26)"/>
</g>
<g id="Line 8">
<use xlink:href="#path3_stroke" transform="matrix(1 -2.67545e-24 2.66834e-24 1 -420.742 1762)"/>
</g>
<g id="Line 8">
<use xlink:href="#path3_stroke" transform="matrix(1 -2.67545e-24 2.66834e-24 1 -420.742 1741.84)"/>
</g>
<g id="Line 8">
<use xlink:href="#path3_stroke" transform="matrix(1 -2.67545e-24 2.66834e-24 1 -420.742 1721.69)"/>
</g>
<g id="Line 8">
<use xlink:href="#path3_stroke" transform="matrix(1 -2.67545e-24 2.66834e-24 1 -420.742 1702.79)"/>
</g>
<g id="Line 8">
<use xlink:href="#path3_stroke" transform="matrix(1 -2.67545e-24 2.66834e-24 1 -420.742 1685.16)"/>
</g>
<g id="Group">
<g id="Line 8">
<use xlink:href="#path2_stroke" transform="matrix(6.12323e-17 1 -1 6.12323e-17 -576.742 1665)"/>
</g>
<g id="Line 8">
<use xlink:href="#path2_stroke" transform="matrix(6.11509e-17 1 -1 6.13139e-17 -556.613 1665)"/>
</g>
<g id="Line 8">
<use xlink:href="#path2_stroke" transform="matrix(6.11509e-17 1 -1 6.13139e-17 -537.742 1665)"/>
</g>
<g id="Line 8">
<use xlink:href="#path2_stroke" transform="matrix(6.11509e-17 1 -1 6.13139e-17 -518.871 1665)"/>
</g>
<g id="Line 8">
<use xlink:href="#path2_stroke" transform="matrix(6.11509e-17 1 -1 6.13139e-17 -498.742 1665)"/>
</g>
<g id="Line 8">
<use xlink:href="#path2_stroke" transform="matrix(6.11509e-17 1 -1 6.13139e-17 -478.613 1665)"/>
</g>
<g id="Line 8">
<use xlink:href="#path2_stroke" transform="matrix(6.11509e-17 1 -1 6.13139e-17 -459.742 1665)"/>
</g>
<g id="Line 8">
<use xlink:href="#path2_stroke" transform="matrix(6.11509e-17 1 -1 6.13139e-17 -442.129 1665)"/>
</g>
</g>
<g id="Arrow 6">
<use xlink:href="#path4_stroke" transform="matrix(0.954745 -0.297427 0.296706 0.954969 -420.742 1663.74)" fill="#2D9CDB"/>
</g>
<g id="Arrow 6">
<use xlink:href="#path5_stroke" transform="matrix(0.946519 -0.322648 0.32188 0.946781 -364.129 1646.1)" fill="#2D9CDB"/>
</g>
<g id="Arrow 6">
<use xlink:href="#path6_stroke" transform="matrix(-0.942074 0.335406 -0.334614 -0.942355 -422 1665)" fill="#2D9CDB"/>
</g>
<g id="Arrow 6">
<use xlink:href="#path7_stroke" transform="matrix(-0.956566 0.291517 -0.290807 -0.956782 -478.613 1685.16)" fill="#2D9CDB"/>
</g>
<g id="Arrow 7">
<use xlink:href="#path8_stroke" transform="matrix(0.480341 -0.877082 0.876542 0.481325 -366.645 1646.1)" fill="#F2994A"/>
</g>
<g id="Arrow 7">
<use xlink:href="#path8_stroke" transform="matrix(0.480341 -0.877082 0.876542 0.481325 -305 1627.21)" fill="#F2994A"/>
</g>
<g id="Arrow 7">
<use xlink:href="#path8_stroke" transform="matrix(0.480341 -0.877082 0.876542 0.481325 -420.742 1663.74)" fill="#F2994A"/>
</g>
<g id="Arrow 7">
<use xlink:href="#path9_stroke" transform="matrix(-0.491698 0.870766 -0.870204 -0.492691 -478.113 1685.16)" fill="#F2994A"/>
</g>
<g id="Arrow 7">
<use xlink:href="#path10_stroke" transform="matrix(-0.46708 0.884215 -0.8837 -0.468053 -535.984 1702.79)" fill="#F2994A"/>
</g>
<g id="Arrow 7">
<use xlink:href="#path11_stroke" transform="matrix(-0.464506 0.88557 -0.885061 -0.465476 -422.306 1665)" fill="#F2994A"/>
</g>
<g id="v">
<use xlink:href="#path12_fill" transform="translate(-395 1641)" fill="#2D9CDB"/>
</g>
<g id="2v">
<use xlink:href="#path13_fill" transform="translate(-340 1622)" fill="#2D9CDB"/>
</g>
<g id="w">
<use xlink:href="#path14_fill" transform="translate(-416 1628)" fill="#F2994A"/>
</g>
<g id="-v">
<use xlink:href="#path15_fill" transform="translate(-472 1667)" fill="#2D9CDB"/>
</g>
<g id="-2v">
<use xlink:href="#path16_fill" transform="translate(-522 1682)" fill="#2D9CDB"/>
</g>
<g id="v+w">
<use xlink:href="#path17_fill" transform="translate(-382 1622)"/>
<use xlink:href="#path18_fill" transform="translate(-382 1622)" fill="#F2994A"/>
<use xlink:href="#path19_fill" transform="translate(-382 1622)" fill="#2D9CDB"/>
</g>
<g id="2">
<use xlink:href="#path20_fill" transform="translate(-384.258 1667.52)"/>
</g>
<g id="-2">
<use xlink:href="#path21_fill" transform="translate(-416 1696)"/>
</g>
<g id="-4">
<use xlink:href="#path22_fill" transform="translate(-417 1735)"/>
</g>
<g id="4">
<use xlink:href="#path23_fill" transform="translate(-346.516 1667.52)"/>
</g>
<g id="6">
<use xlink:href="#path24_fill" transform="translate(-306.258 1667.52)"/>
</g>
<g id="8">
<use xlink:href="#path25_fill" transform="translate(-269.774 1667.52)"/>
</g>
<g id="-4">
<use xlink:href="#path22_fill" transform="translate(-503 1668)"/>
</g>
<g id="-6">
<use xlink:href="#path26_fill" transform="translate(-541 1668)"/>
</g>
<g id="-8">
<use xlink:href="#path27_fill" transform="translate(-578 1668)"/>
</g>
<g id="4">
<use xlink:href="#path28_fill" transform="translate(-416.968 1582.38)"/>
</g>
<g id="-w">
<use xlink:href="#path29_fill" transform="translate(-445 1676)" fill="#F2994A"/>
</g>
<g id="Arrow 6">
<use xlink:href="#path6_stroke" transform="matrix(-0.942074 0.335406 -0.334614 -0.942355 -440.871 1701.53)" fill="#2D9CDB"/>
</g>
<g id="-w - v">
<use xlink:href="#path30_fill" transform="translate(-474 1710)"/>
<use xlink:href="#path31_fill" transform="translate(-474 1710)" fill="#2D9CDB"/>
<use xlink:href="#path32_fill" transform="translate(-474 1710)" fill="#F2994A"/>
</g>
<g id="Arrow 6">
<use xlink:href="#path6_stroke" transform="matrix(-0.942074 0.335406 -0.334614 -0.942355 -498.742 1721.69)" fill="#2D9CDB"/>
</g>
<g id="-w - 2v">
<use xlink:href="#path33_fill" transform="translate(-536 1729)"/>
<use xlink:href="#path34_fill" transform="translate(-536 1729)" fill="#2D9CDB"/>
<use xlink:href="#path35_fill" transform="translate(-536 1729)" fill="#F2994A"/>
</g>
<g id="Arrow 6">
<use xlink:href="#path4_stroke" transform="matrix(0.954745 -0.297427 0.296706 0.954969 -401.871 1625.95)" fill="#2D9CDB"/>
</g>
<g id="Arrow 6">
<use xlink:href="#path5_stroke" transform="matrix(0.946519 -0.322648 0.32188 0.946781 -345.258 1608.31)" fill="#2D9CDB"/>
</g>
<g id="Component">
<g id="Line 2">
<use xlink:href="#path36_stroke" transform="matrix(0 1 -3.37153e-28 1 -623 1570.37)" fill="#F2994A"/>
</g>
<g id="Line 3">
<use xlink:href="#path37_stroke" transform="translate(-617 1571.37)" fill="#F2994A"/>
</g>
<g id="Line 3">
<use xlink:href="#path37_stroke" transform="translate(-617 1614)" fill="#F2994A"/>
</g>
</g>
<g id="Component">
</g>
<g id="Line 2">
<use xlink:href="#path38_stroke" transform="matrix(-1.83697e-16 -1 1 -1.73472e-16 -597 1614)" fill="#F2994A"/>
</g>
<g id="Line 3">
<use xlink:href="#path37_stroke" transform="matrix(-1 2.70711e-16 -5.54007e-17 -1 -597 1613)" fill="#F2994A"/>
</g>
<g id="Line 3">
<use xlink:href="#path37_stroke" transform="matrix(-1 1.22465e-16 -1.22465e-16 -1 -597 1570)" fill="#F2994A"/>
</g>
<g id="1 2">
<use xlink:href="#path39_fill" transform="translate(-611 1572)" fill="#F2994A"/>
</g>
<g id="w =">
<use xlink:href="#path40_fill" transform="translate(-651 1581)" fill="#F2994A"/>
</g>
<g id="2v + w">
<use xlink:href="#path41_fill" transform="translate(-294 1604)"/>
<use xlink:href="#path42_fill" transform="translate(-294 1604)" fill="#F2994A"/>
<use xlink:href="#path43_fill" transform="translate(-294 1604)" fill="#2D9CDB"/>
</g>
<g id="w + 2v">
<use xlink:href="#path44_fill" transform="translate(-340 1582)" fill="#333333"/>
<use xlink:href="#path45_fill" transform="translate(-340 1582)" fill="#2D9CDB"/>
<use xlink:href="#path46_fill" transform="translate(-340 1582)" fill="#F2994A"/>
</g>
<g id="w + v">
<use xlink:href="#path47_fill" transform="translate(-392 1603)" fill="#333333"/>
<use xlink:href="#path48_fill" transform="translate(-392 1603)" fill="#2D9CDB"/>
<use xlink:href="#path49_fill" transform="translate(-392 1603)" fill="#F2994A"/>
</g>
<g id="-v+-w">
<use xlink:href="#path50_fill" transform="translate(-483 1689)"/>
<use xlink:href="#path51_fill" transform="translate(-483 1689)" fill="#F2994A"/>
<use xlink:href="#path52_fill" transform="translate(-483 1689)" fill="#2D9CDB"/>
</g>
<g id="-2v + -w">
<use xlink:href="#path53_fill" transform="translate(-587 1709)"/>
<use xlink:href="#path54_fill" transform="translate(-587 1709)" fill="#F2994A"/>
<use xlink:href="#path55_fill" transform="translate(-587 1709)" fill="#2D9CDB"/>
</g>
<g id="Line 2">
<use xlink:href="#path56_stroke" transform="matrix(-5.54007e-17 -1 0.99953 -0.0306649 -616 1613)" fill="#F2994A"/>
</g>
<g id="Component">
<g id="Line 2">
<use xlink:href="#path36_stroke" transform="matrix(0 1 -3.37153e-28 1 -622 1626.37)" fill="#F2994A"/>
</g>
<g id="Line 3">
<use xlink:href="#path37_stroke" transform="translate(-616 1627.37)" fill="#2F80ED"/>
</g>
<g id="Line 3">
<use xlink:href="#path37_stroke" transform="translate(-616 1670)" fill="#2F80ED"/>
</g>
</g>
<g id="Line 2">
<use xlink:href="#path38_stroke" transform="matrix(-1.83697e-16 -1 1 -1.73472e-16 -596 1670)" fill="#2F80ED"/>
</g>
<g id="Line 3">
<use xlink:href="#path37_stroke" transform="matrix(-1 2.70711e-16 -5.54007e-17 -1 -596 1669)" fill="#2F80ED"/>
</g>
<g id="Line 3">
<use xlink:href="#path37_stroke" transform="matrix(-1 1.22465e-16 -1.22465e-16 -1 -596 1626)" fill="#2F80ED"/>
</g>
<g id="3 1">
<use xlink:href="#path57_fill" transform="translate(-610 1628)" fill="#2F80ED"/>
</g>
<g id="v =">
<use xlink:href="#path58_fill" transform="translate(-651 1637)" fill="#2F80ED"/>
</g>
<g id="Line 2">
<use xlink:href="#path56_stroke" transform="matrix(-5.54007e-17 -1 0.99953 -0.0306649 -615 1669)" fill="#2F80ED"/>
</g>
</g>
</g>
<defs>
<path id="path0_stroke" d="M 0 0L 194.004 0L 194.004 -1L 0 -1L 0 0Z"/>
<path id="path1_stroke" d="M 0 -5.55112e-17L 309.484 -5.55112e-17L 309.484 -1L 0 -1L 0 -5.55112e-17Z"/>
<path id="path2_stroke" d="M 0 0L 2.51948 0L 2.51948 -1L 0 -1L 0 0Z"/>
<path id="path3_stroke" d="M 0 -5.55112e-17L 2.51613 -5.55112e-17L 2.51613 -1L 0 -1L 0 -5.55112e-17Z"/>
<path id="path4_stroke" d="M 59.6499 0.353553C 59.8452 0.158291 59.8452 -0.158291 59.6499 -0.353553L 56.468 -3.53553C 56.2727 -3.7308 55.9561 -3.7308 55.7609 -3.53553C 55.5656 -3.34027 55.5656 -3.02369 55.7609 -2.82843L 58.5893 0L 55.7609 2.82843C 55.5656 3.02369 55.5656 3.34027 55.7609 3.53553C 55.9561 3.7308 56.2727 3.7308 56.468 3.53553L 59.6499 0.353553ZM 0 0.5L 59.2964 0.5L 59.2964 -0.5L 0 -0.5L 0 0.5Z"/>
<path id="path5_stroke" d="M 62.8236 0.353553C 63.0188 0.158291 63.0188 -0.158291 62.8236 -0.353553L 59.6416 -3.53553C 59.4463 -3.7308 59.1297 -3.7308 58.9345 -3.53553C 58.7392 -3.34027 58.7392 -3.02369 58.9345 -2.82843L 61.7629 0L 58.9345 2.82843C 58.7392 3.02369 58.7392 3.34027 58.9345 3.53553C 59.1297 3.7308 59.4463 3.7308 59.6416 3.53553L 62.8236 0.353553ZM 0 0.5L 62.47 0.5L 62.47 -0.5L 0 -0.5L 0 0.5Z"/>
<path id="path6_stroke" d="M 60.4475 0.353553C 60.6427 0.158291 60.6427 -0.158291 60.4475 -0.353553L 57.2655 -3.53553C 57.0702 -3.7308 56.7536 -3.7308 56.5584 -3.53553C 56.3631 -3.34027 56.3631 -3.02369 56.5584 -2.82843L 59.3868 0L 56.5584 2.82843C 56.3631 3.02369 56.3631 3.34027 56.5584 3.53553C 56.7536 3.7308 57.0702 3.7308 57.2655 3.53553L 60.4475 0.353553ZM 0 0.5L 60.0939 0.5L 60.0939 -0.5L 0 -0.5L 0 0.5Z"/>
<path id="path7_stroke" d="M 60.8522 0.353553C 61.0475 0.158291 61.0475 -0.158291 60.8522 -0.353553L 57.6702 -3.53553C 57.475 -3.7308 57.1584 -3.7308 56.9631 -3.53553C 56.7679 -3.34027 56.7679 -3.02369 56.9631 -2.82843L 59.7916 0L 56.9631 2.82843C 56.7679 3.02369 56.7679 3.34027 56.9631 3.53553C 57.1584 3.7308 57.475 3.7308 57.6702 3.53553L 60.8522 0.353553ZM 0 0.5L 60.4987 0.5L 60.4987 -0.5L 0 -0.5L 0 0.5Z"/>
<path id="path8_stroke" d="M 44.8784 0.353553C 45.0737 0.158291 45.0737 -0.158291 44.8784 -0.353553L 41.6964 -3.53553C 41.5012 -3.7308 41.1846 -3.7308 40.9893 -3.53553C 40.7941 -3.34027 40.7941 -3.02369 40.9893 -2.82843L 43.8177 0L 40.9893 2.82843C 40.7941 3.02369 40.7941 3.34027 40.9893 3.53553C 41.1846 3.7308 41.5012 3.7308 41.6964 3.53553L 44.8784 0.353553ZM 0 0.5L 44.5249 0.5L 44.5249 -0.5L 0 -0.5L 0 0.5Z"/>
<path id="path9_stroke" d="M 42.308 0.353553C 42.5032 0.158291 42.5032 -0.158291 42.308 -0.353553L 39.126 -3.53553C 38.9307 -3.7308 38.6141 -3.7308 38.4189 -3.53553C 38.2236 -3.34027 38.2236 -3.02369 38.4189 -2.82843L 41.2473 0L 38.4189 2.82843C 38.2236 3.02369 38.2236 3.34027 38.4189 3.53553C 38.6141 3.7308 38.9307 3.7308 39.126 3.53553L 42.308 0.353553ZM 0 0.5L 41.9544 0.5L 41.9544 -0.5L 0 -0.5L 0 0.5Z"/>
<path id="path10_stroke" d="M 44.5192 0.353553C 44.7145 0.158291 44.7145 -0.158291 44.5192 -0.353553L 41.3372 -3.53553C 41.142 -3.7308 40.8254 -3.7308 40.6301 -3.53553C 40.4349 -3.34027 40.4349 -3.02369 40.6301 -2.82843L 43.4586 0L 40.6301 2.82843C 40.4349 3.02369 40.4349 3.34027 40.6301 3.53553C 40.8254 3.7308 41.142 3.7308 41.3372 3.53553L 44.5192 0.353553ZM 0 0.5L 44.1657 0.5L 44.1657 -0.5L 0 -0.5L 0 0.5Z"/>
<path id="path11_stroke" d="M 43.0291 0.353553C 43.2244 0.158291 43.2244 -0.158291 43.0291 -0.353553L 39.8471 -3.53553C 39.6519 -3.7308 39.3353 -3.7308 39.14 -3.53553C 38.9448 -3.34027 38.9448 -3.02369 39.14 -2.82843L 41.9685 0L 39.14 2.82843C 38.9448 3.02369 38.9448 3.34027 39.14 3.53553C 39.3353 3.7308 39.6519 3.7308 39.8471 3.53553L 43.0291 0.353553ZM 0 0.5L 42.6756 0.5L 42.6756 -0.5L 0 -0.5L 0 0.5Z"/>
<path id="path12_fill" d="M 2.91211 9.5293L 4.48242 4.66016L 5.58984 4.66016L 3.31641 11L 2.49023 11L 0.193359 4.66016L 1.30078 4.66016L 2.91211 9.5293Z"/>
<path id="path13_fill" d="M 6.29883 11L 0.708984 11L 0.708984 10.2207L 3.66211 6.93945C 4.09961 6.44336 4.40039 6.04102 4.56445 5.73242C 4.73242 5.41992 4.81641 5.09766 4.81641 4.76562C 4.81641 4.32031 4.68164 3.95508 4.41211 3.66992C 4.14258 3.38477 3.7832 3.24219 3.33398 3.24219C 2.79492 3.24219 2.375 3.39648 2.07422 3.70508C 1.77734 4.00977 1.62891 4.43555 1.62891 4.98242L 0.544922 4.98242C 0.544922 4.19727 0.796875 3.5625 1.30078 3.07812C 1.80859 2.59375 2.48633 2.35156 3.33398 2.35156C 4.12695 2.35156 4.75391 2.56055 5.21484 2.97852C 5.67578 3.39258 5.90625 3.94531 5.90625 4.63672C 5.90625 5.47656 5.37109 6.47656 4.30078 7.63672L 2.01562 10.1152L 6.29883 10.1152L 6.29883 11ZM 9.65039 9.5293L 11.2207 4.66016L 12.3281 4.66016L 10.0547 11L 9.22852 11L 6.93164 4.66016L 8.03906 4.66016L 9.65039 9.5293Z"/>
<path id="path14_fill" d="M 6.43359 9.50586L 7.65234 4.66016L 8.73633 4.66016L 6.89062 11L 6.01172 11L 4.4707 6.19531L 2.9707 11L 2.0918 11L 0.251953 4.66016L 1.33008 4.66016L 2.57812 9.40625L 4.05469 4.66016L 4.92773 4.66016L 6.43359 9.50586Z"/>
<path id="path15_fill" d="M 3.07617 7.81836L 0.216797 7.81836L 0.216797 6.93359L 3.07617 6.93359L 3.07617 7.81836ZM 6.22852 9.5293L 7.79883 4.66016L 8.90625 4.66016L 6.63281 11L 5.80664 11L 3.50977 4.66016L 4.61719 4.66016L 6.22852 9.5293Z"/>
<path id="path16_fill" d="M 3.07617 7.81836L 0.216797 7.81836L 0.216797 6.93359L 3.07617 6.93359L 3.07617 7.81836ZM 9.61523 11L 4.02539 11L 4.02539 10.2207L 6.97852 6.93945C 7.41602 6.44336 7.7168 6.04102 7.88086 5.73242C 8.04883 5.41992 8.13281 5.09766 8.13281 4.76562C 8.13281 4.32031 7.99805 3.95508 7.72852 3.66992C 7.45898 3.38477 7.09961 3.24219 6.65039 3.24219C 6.11133 3.24219 5.69141 3.39648 5.39062 3.70508C 5.09375 4.00977 4.94531 4.43555 4.94531 4.98242L 3.86133 4.98242C 3.86133 4.19727 4.11328 3.5625 4.61719 3.07812C 5.125 2.59375 5.80273 2.35156 6.65039 2.35156C 7.44336 2.35156 8.07031 2.56055 8.53125 2.97852C 8.99219 3.39258 9.22266 3.94531 9.22266 4.63672C 9.22266 5.47656 8.6875 6.47656 7.61719 7.63672L 5.33203 10.1152L 9.61523 10.1152L 9.61523 11ZM 12.9668 9.5293L 14.5371 4.66016L 15.6445 4.66016L 13.3711 11L 12.5449 11L 10.248 4.66016L 11.3555 4.66016L 12.9668 9.5293Z"/>
<path id="path17_fill" d="M 9.73828 6.42383L 12.1172 6.42383L 12.1172 7.44922L 9.73828 7.44922L 9.73828 10.1445L 8.64844 10.1445L 8.64844 7.44922L 6.26953 7.44922L 6.26953 6.42383L 8.64844 6.42383L 8.64844 3.93359L 9.73828 3.93359L 9.73828 6.42383Z"/>
<path id="path18_fill" d="M 19.0547 9.50586L 20.2734 4.66016L 21.3574 4.66016L 19.5117 11L 18.6328 11L 17.0918 6.19531L 15.5918 11L 14.7129 11L 12.873 4.66016L 13.9512 4.66016L 15.1992 9.40625L 16.6758 4.66016L 17.5488 4.66016L 19.0547 9.50586Z"/>
<path id="path19_fill" d="M 2.91211 9.5293L 4.48242 4.66016L 5.58984 4.66016L 3.31641 11L 2.49023 11L 0.193359 4.66016L 1.30078 4.66016L 2.91211 9.5293Z"/>
<path id="path20_fill" d="M 2.09961 4L 0.236328 4L 0.236328 3.74023L 1.2207 2.64648C 1.36654 2.48112 1.4668 2.34701 1.52148 2.24414C 1.57747 2.13997 1.60547 2.03255 1.60547 1.92188C 1.60547 1.77344 1.56055 1.65169 1.4707 1.55664C 1.38086 1.46159 1.26107 1.41406 1.11133 1.41406C 0.931641 1.41406 0.791667 1.46549 0.691406 1.56836C 0.592448 1.66992 0.542969 1.81185 0.542969 1.99414L 0.181641 1.99414C 0.181641 1.73242 0.265625 1.52083 0.433594 1.35938C 0.602865 1.19792 0.828776 1.11719 1.11133 1.11719C 1.37565 1.11719 1.58464 1.18685 1.73828 1.32617C 1.89193 1.46419 1.96875 1.64844 1.96875 1.87891C 1.96875 2.15885 1.79036 2.49219 1.43359 2.87891L 0.671875 3.70508L 2.09961 3.70508L 2.09961 4Z"/>
<path id="path21_fill" d="M 2.56348 6.34863L 0.180664 6.34863L 0.180664 5.61133L 2.56348 5.61133L 2.56348 6.34863ZM 8.0127 9L 3.35449 9L 3.35449 8.35059L 5.81543 5.61621C 6.18001 5.2028 6.43066 4.86751 6.56738 4.61035C 6.70736 4.34993 6.77734 4.08138 6.77734 3.80469C 6.77734 3.43359 6.66504 3.12923 6.44043 2.8916C 6.21582 2.65397 5.91634 2.53516 5.54199 2.53516C 5.09277 2.53516 4.74284 2.66374 4.49219 2.9209C 4.24479 3.1748 4.12109 3.52962 4.12109 3.98535L 3.21777 3.98535C 3.21777 3.33105 3.42773 2.80208 3.84766 2.39844C 4.27083 1.99479 4.83561 1.79297 5.54199 1.79297C 6.2028 1.79297 6.72526 1.96712 7.10938 2.31543C 7.49349 2.66048 7.68555 3.12109 7.68555 3.69727C 7.68555 4.39714 7.23958 5.23047 6.34766 6.19727L 4.44336 8.2627L 8.0127 8.2627L 8.0127 9Z"/>
<path id="path22_fill" d="M 2.56348 6.34863L 0.180664 6.34863L 0.180664 5.61133L 2.56348 5.61133L 2.56348 6.34863ZM 7.16797 6.6123L 8.1543 6.6123L 8.1543 7.34961L 7.16797 7.34961L 7.16797 9L 6.25977 9L 6.25977 7.34961L 3.02246 7.34961L 3.02246 6.81738L 6.20605 1.89062L 7.16797 1.89062L 7.16797 6.6123ZM 4.04785 6.6123L 6.25977 6.6123L 6.25977 3.12598L 6.15234 3.32129L 4.04785 6.6123Z"/>
<path id="path23_fill" d="M 1.76172 3.04492L 2.15625 3.04492L 2.15625 3.33984L 1.76172 3.33984L 1.76172 4L 1.39844 4L 1.39844 3.33984L 0.103516 3.33984L 0.103516 3.12695L 1.37695 1.15625L 1.76172 1.15625L 1.76172 3.04492ZM 0.513672 3.04492L 1.39844 3.04492L 1.39844 1.65039L 1.35547 1.72852L 0.513672 3.04492Z"/>
<path id="path24_fill" d="M 1.6543 1.1543L 1.6543 1.46094L 1.58789 1.46094C 1.30664 1.46615 1.08268 1.54948 0.916016 1.71094C 0.749349 1.8724 0.652995 2.09961 0.626953 2.39258C 0.776693 2.2207 0.98112 2.13477 1.24023 2.13477C 1.48763 2.13477 1.6849 2.22201 1.83203 2.39648C 1.98047 2.57096 2.05469 2.79622 2.05469 3.07227C 2.05469 3.36523 1.97461 3.59961 1.81445 3.77539C 1.6556 3.95117 1.44206 4.03906 1.17383 4.03906C 0.901693 4.03906 0.68099 3.9349 0.511719 3.72656C 0.342448 3.51693 0.257812 3.2474 0.257812 2.91797L 0.257812 2.7793C 0.257812 2.25586 0.369141 1.85612 0.591797 1.58008C 0.815755 1.30273 1.14844 1.16081 1.58984 1.1543L 1.6543 1.1543ZM 1.17969 2.43555C 1.05599 2.43555 0.942057 2.47266 0.837891 2.54688C 0.733724 2.62109 0.661458 2.71419 0.621094 2.82617L 0.621094 2.95898C 0.621094 3.19336 0.673828 3.38216 0.779297 3.52539C 0.884766 3.66862 1.01628 3.74023 1.17383 3.74023C 1.33659 3.74023 1.46419 3.68034 1.55664 3.56055C 1.65039 3.44076 1.69727 3.28385 1.69727 3.08984C 1.69727 2.89453 1.64974 2.73698 1.55469 2.61719C 1.46094 2.49609 1.33594 2.43555 1.17969 2.43555Z"/>
<path id="path25_fill" d="M 1.96094 1.89844C 1.96094 2.04036 1.92318 2.16667 1.84766 2.27734C 1.77344 2.38802 1.67253 2.47461 1.54492 2.53711C 1.69336 2.60091 1.81055 2.69401 1.89648 2.81641C 1.98372 2.9388 2.02734 3.07747 2.02734 3.23242C 2.02734 3.47852 1.94401 3.67448 1.77734 3.82031C 1.61198 3.96615 1.39388 4.03906 1.12305 4.03906C 0.849609 4.03906 0.630208 3.96615 0.464844 3.82031C 0.300781 3.67318 0.21875 3.47721 0.21875 3.23242C 0.21875 3.07878 0.260417 2.9401 0.34375 2.81641C 0.428385 2.69271 0.544922 2.59896 0.693359 2.53516C 0.567057 2.47266 0.467448 2.38607 0.394531 2.27539C 0.321615 2.16471 0.285156 2.03906 0.285156 1.89844C 0.285156 1.65885 0.361979 1.46875 0.515625 1.32812C 0.669271 1.1875 0.871745 1.11719 1.12305 1.11719C 1.37305 1.11719 1.57487 1.1875 1.72852 1.32812C 1.88346 1.46875 1.96094 1.65885 1.96094 1.89844ZM 1.66602 3.22461C 1.66602 3.06576 1.61523 2.9362 1.51367 2.83594C 1.41341 2.73568 1.2819 2.68555 1.11914 2.68555C 0.95638 2.68555 0.825521 2.73503 0.726562 2.83398C 0.628906 2.93294 0.580078 3.06315 0.580078 3.22461C 0.580078 3.38607 0.627604 3.51302 0.722656 3.60547C 0.81901 3.69792 0.952474 3.74414 1.12305 3.74414C 1.29232 3.74414 1.42513 3.69792 1.52148 3.60547C 1.61784 3.51172 1.66602 3.38477 1.66602 3.22461ZM 1.12305 1.41406C 0.98112 1.41406 0.865885 1.45833 0.777344 1.54688C 0.690104 1.63411 0.646484 1.75326 0.646484 1.9043C 0.646484 2.04883 0.689453 2.16602 0.775391 2.25586C 0.86263 2.3444 0.978516 2.38867 1.12305 2.38867C 1.26758 2.38867 1.38281 2.3444 1.46875 2.25586C 1.55599 2.16602 1.59961 2.04883 1.59961 1.9043C 1.59961 1.75977 1.55469 1.64193 1.46484 1.55078C 1.375 1.45964 1.26107 1.41406 1.12305 1.41406Z"/>
<path id="path26_fill" d="M 2.56348 6.34863L 0.180664 6.34863L 0.180664 5.61133L 2.56348 5.61133L 2.56348 6.34863ZM 6.89941 1.88574L 6.89941 2.65234L 6.7334 2.65234C 6.03027 2.66536 5.47038 2.8737 5.05371 3.27734C 4.63704 3.68099 4.39616 4.24902 4.33105 4.98145C 4.7054 4.55176 5.21647 4.33691 5.86426 4.33691C 6.48275 4.33691 6.97591 4.55501 7.34375 4.99121C 7.71484 5.42741 7.90039 5.99056 7.90039 6.68066C 7.90039 7.41309 7.7002 7.99902 7.2998 8.43848C 6.90267 8.87793 6.36882 9.09766 5.69824 9.09766C 5.0179 9.09766 4.46615 8.83724 4.04297 8.31641C 3.61979 7.79232 3.4082 7.11849 3.4082 6.29492L 3.4082 5.94824C 3.4082 4.63965 3.68652 3.6403 4.24316 2.9502C 4.80306 2.25684 5.63477 1.90202 6.73828 1.88574L 6.89941 1.88574ZM 5.71289 5.08887C 5.40365 5.08887 5.11882 5.18164 4.8584 5.36719C 4.59798 5.55273 4.41732 5.78548 4.31641 6.06543L 4.31641 6.39746C 4.31641 6.9834 4.44824 7.4554 4.71191 7.81348C 4.97559 8.17155 5.30436 8.35059 5.69824 8.35059C 6.10514 8.35059 6.42415 8.20085 6.65527 7.90137C 6.88965 7.60189 7.00684 7.20964 7.00684 6.72461C 7.00684 6.23633 6.88802 5.84245 6.65039 5.54297C 6.41602 5.24023 6.10352 5.08887 5.71289 5.08887Z"/>
<path id="path27_fill" d="M 2.56348 6.34863L 0.180664 6.34863L 0.180664 5.61133L 2.56348 5.61133L 2.56348 6.34863ZM 7.66602 3.74609C 7.66602 4.10091 7.57161 4.41667 7.38281 4.69336C 7.19727 4.97005 6.94499 5.18652 6.62598 5.34277C 6.99707 5.50228 7.29004 5.73503 7.50488 6.04102C 7.72298 6.34701 7.83203 6.69368 7.83203 7.08105C 7.83203 7.69629 7.6237 8.1862 7.20703 8.55078C 6.79362 8.91536 6.24837 9.09766 5.57129 9.09766C 4.8877 9.09766 4.33919 8.91536 3.92578 8.55078C 3.51562 8.18294 3.31055 7.69303 3.31055 7.08105C 3.31055 6.69694 3.41471 6.35026 3.62305 6.04102C 3.83464 5.73177 4.12598 5.4974 4.49707 5.33789C 4.18132 5.18164 3.93229 4.96517 3.75 4.68848C 3.56771 4.41178 3.47656 4.09766 3.47656 3.74609C 3.47656 3.14714 3.66862 2.67188 4.05273 2.32031C 4.43685 1.96875 4.94303 1.79297 5.57129 1.79297C 6.19629 1.79297 6.70085 1.96875 7.08496 2.32031C 7.47233 2.67188 7.66602 3.14714 7.66602 3.74609ZM 6.92871 7.06152C 6.92871 6.66439 6.80176 6.34049 6.54785 6.08984C 6.2972 5.83919 5.96842 5.71387 5.56152 5.71387C 5.15462 5.71387 4.82747 5.83757 4.58008 6.08496C 4.33594 6.33236 4.21387 6.65788 4.21387 7.06152C 4.21387 7.46517 4.33268 7.78255 4.57031 8.01367C 4.8112 8.24479 5.14486 8.36035 5.57129 8.36035C 5.99447 8.36035 6.3265 8.24479 6.56738 8.01367C 6.80827 7.7793 6.92871 7.46191 6.92871 7.06152ZM 5.57129 2.53516C 5.21647 2.53516 4.92839 2.64583 4.70703 2.86719C 4.48893 3.08529 4.37988 3.38314 4.37988 3.76074C 4.37988 4.12207 4.4873 4.41504 4.70215 4.63965C 4.92025 4.861 5.20996 4.97168 5.57129 4.97168C 5.93262 4.97168 6.2207 4.861 6.43555 4.63965C 6.65365 4.41504 6.7627 4.12207 6.7627 3.76074C 6.7627 3.39941 6.65039 3.10482 6.42578 2.87695C 6.20117 2.64909 5.91634 2.53516 5.57129 2.53516Z"/>
<path id="path28_fill" d="M 4.4043 6.6123L 5.39062 6.6123L 5.39062 7.34961L 4.4043 7.34961L 4.4043 9L 3.49609 9L 3.49609 7.34961L 0.258789 7.34961L 0.258789 6.81738L 3.44238 1.89062L 4.4043 1.89062L 4.4043 6.6123ZM 1.28418 6.6123L 3.49609 6.6123L 3.49609 3.12598L 3.38867 3.32129L 1.28418 6.6123Z"/>
<path id="path29_fill" d="M 3.07617 7.81836L 0.216797 7.81836L 0.216797 6.93359L 3.07617 6.93359L 3.07617 7.81836ZM 9.75 9.50586L 10.9688 4.66016L 12.0527 4.66016L 10.207 11L 9.32812 11L 7.78711 6.19531L 6.28711 11L 5.4082 11L 3.56836 4.66016L 4.64648 4.66016L 5.89453 9.40625L 7.37109 4.66016L 8.24414 4.66016L 9.75 9.50586Z"/>
<path id="path30_fill" d="M 18.3926 7.81836L 15.5332 7.81836L 15.5332 6.93359L 18.3926 6.93359L 18.3926 7.81836Z"/>
<path id="path31_fill" d="M 24.5215 9.5293L 26.0918 4.66016L 27.1992 4.66016L 24.9258 11L 24.0996 11L 21.8027 4.66016L 22.9102 4.66016L 24.5215 9.5293Z"/>
<path id="path32_fill" d="M 3.07617 7.81836L 0.216797 7.81836L 0.216797 6.93359L 3.07617 6.93359L 3.07617 7.81836ZM 9.75 9.50586L 10.9688 4.66016L 12.0527 4.66016L 10.207 11L 9.32812 11L 7.78711 6.19531L 6.28711 11L 5.4082 11L 3.56836 4.66016L 4.64648 4.66016L 5.89453 9.40625L 7.37109 4.66016L 8.24414 4.66016L 9.75 9.50586Z"/>
<path id="path33_fill" d="M 18.3926 7.81836L 15.5332 7.81836L 15.5332 6.93359L 18.3926 6.93359L 18.3926 7.81836Z"/>
<path id="path34_fill" d="M 27.9082 11L 22.3184 11L 22.3184 10.2207L 25.2715 6.93945C 25.709 6.44336 26.0098 6.04102 26.1738 5.73242C 26.3418 5.41992 26.4258 5.09766 26.4258 4.76562C 26.4258 4.32031 26.291 3.95508 26.0215 3.66992C 25.752 3.38477 25.3926 3.24219 24.9434 3.24219C 24.4043 3.24219 23.9844 3.39648 23.6836 3.70508C 23.3867 4.00977 23.2383 4.43555 23.2383 4.98242L 22.1543 4.98242C 22.1543 4.19727 22.4062 3.5625 22.9102 3.07812C 23.418 2.59375 24.0957 2.35156 24.9434 2.35156C 25.7363 2.35156 26.3633 2.56055 26.8242 2.97852C 27.2852 3.39258 27.5156 3.94531 27.5156 4.63672C 27.5156 5.47656 26.9805 6.47656 25.9102 7.63672L 23.625 10.1152L 27.9082 10.1152L 27.9082 11ZM 31.2598 9.5293L 32.8301 4.66016L 33.9375 4.66016L 31.6641 11L 30.8379 11L 28.541 4.66016L 29.6484 4.66016L 31.2598 9.5293Z"/>
<path id="path35_fill" d="M 3.07617 7.81836L 0.216797 7.81836L 0.216797 6.93359L 3.07617 6.93359L 3.07617 7.81836ZM 9.75 9.50586L 10.9688 4.66016L 12.0527 4.66016L 10.207 11L 9.32812 11L 7.78711 6.19531L 6.28711 11L 5.4082 11L 3.56836 4.66016L 4.64648 4.66016L 5.89453 9.40625L 7.37109 4.66016L 8.24414 4.66016L 9.75 9.50586Z"/>
<path id="path36_stroke" d="M 0 0L 42.6316 0L 42.6316 -1L 0 -1L 0 0Z"/>
<path id="path37_stroke" d="M 0 0L 3 0L 3 -1L 0 -1L 0 0Z"/>
<path id="path38_stroke" d="M 0 0L 44 0L 44 -1L 0 -1L 0 0Z"/>
<path id="path39_fill" d="M 5.69531 15L 4.24219 15L 4.24219 5.36719L 1.32812 6.4375L 1.32812 5.125L 5.46875 3.57031L 5.69531 3.57031L 5.69531 15ZM 8.39844 34L 0.945312 34L 0.945312 32.9609L 4.88281 28.5859C 5.46615 27.9245 5.86719 27.388 6.08594 26.9766C 6.3099 26.5599 6.42188 26.1302 6.42188 25.6875C 6.42188 25.0938 6.24219 24.6068 5.88281 24.2266C 5.52344 23.8464 5.04427 23.6562 4.44531 23.6562C 3.72656 23.6562 3.16667 23.862 2.76562 24.2734C 2.36979 24.6797 2.17188 25.2474 2.17188 25.9766L 0.726562 25.9766C 0.726562 24.9297 1.0625 24.0833 1.73438 23.4375C 2.41146 22.7917 3.3151 22.4688 4.44531 22.4688C 5.5026 22.4688 6.33854 22.7474 6.95312 23.3047C 7.56771 23.8568 7.875 24.5938 7.875 25.5156C 7.875 26.6354 7.16146 27.9688 5.73438 29.5156L 2.6875 32.8203L 8.39844 32.8203L 8.39844 34Z"/>
<path id="path40_fill" d="M 8.57812 13.0078L 10.2031 6.54688L 11.6484 6.54688L 9.1875 15L 8.01562 15L 5.96094 8.59375L 3.96094 15L 2.78906 15L 0.335938 6.54688L 1.77344 6.54688L 3.4375 12.875L 5.40625 6.54688L 6.57031 6.54688L 8.57812 13.0078ZM 23.7031 8.64062L 17.1875 8.64062L 17.1875 7.38281L 23.7031 7.38281L 23.7031 8.64062ZM 23.7031 11.8828L 17.1875 11.8828L 17.1875 10.6328L 23.7031 10.6328L 23.7031 11.8828Z"/>
<path id="path41_fill" d="M 19.4531 6.42383L 21.832 6.42383L 21.832 7.44922L 19.4531 7.44922L 19.4531 10.1445L 18.3633 10.1445L 18.3633 7.44922L 15.9844 7.44922L 15.9844 6.42383L 18.3633 6.42383L 18.3633 3.93359L 19.4531 3.93359L 19.4531 6.42383Z"/>
<path id="path42_fill" d="M 31.7461 9.50586L 32.9648 4.66016L 34.0488 4.66016L 32.2031 11L 31.3242 11L 29.7832 6.19531L 28.2832 11L 27.4043 11L 25.5645 4.66016L 26.6426 4.66016L 27.8906 9.40625L 29.3672 4.66016L 30.2402 4.66016L 31.7461 9.50586Z"/>
<path id="path43_fill" d="M 6.29883 11L 0.708984 11L 0.708984 10.2207L 3.66211 6.93945C 4.09961 6.44336 4.40039 6.04102 4.56445 5.73242C 4.73242 5.41992 4.81641 5.09766 4.81641 4.76562C 4.81641 4.32031 4.68164 3.95508 4.41211 3.66992C 4.14258 3.38477 3.7832 3.24219 3.33398 3.24219C 2.79492 3.24219 2.375 3.39648 2.07422 3.70508C 1.77734 4.00977 1.62891 4.43555 1.62891 4.98242L 0.544922 4.98242C 0.544922 4.19727 0.796875 3.5625 1.30078 3.07812C 1.80859 2.59375 2.48633 2.35156 3.33398 2.35156C 4.12695 2.35156 4.75391 2.56055 5.21484 2.97852C 5.67578 3.39258 5.90625 3.94531 5.90625 4.63672C 5.90625 5.47656 5.37109 6.47656 4.30078 7.63672L 2.01562 10.1152L 6.29883 10.1152L 6.29883 11ZM 9.65039 9.5293L 11.2207 4.66016L 12.3281 4.66016L 10.0547 11L 9.22852 11L 6.93164 4.66016L 8.03906 4.66016L 9.65039 9.5293Z"/>
<path id="path44_fill" d="M 15.9258 6.42383L 18.3047 6.42383L 18.3047 7.44922L 15.9258 7.44922L 15.9258 10.1445L 14.8359 10.1445L 14.8359 7.44922L 12.457 7.44922L 12.457 6.42383L 14.8359 6.42383L 14.8359 3.93359L 15.9258 3.93359L 15.9258 6.42383Z"/>
<path id="path45_fill" d="M 28.084 11L 22.4941 11L 22.4941 10.2207L 25.4473 6.93945C 25.8848 6.44336 26.1855 6.04102 26.3496 5.73242C 26.5176 5.41992 26.6016 5.09766 26.6016 4.76562C 26.6016 4.32031 26.4668 3.95508 26.1973 3.66992C 25.9277 3.38477 25.5684 3.24219 25.1191 3.24219C 24.5801 3.24219 24.1602 3.39648 23.8594 3.70508C 23.5625 4.00977 23.4141 4.43555 23.4141 4.98242L 22.3301 4.98242C 22.3301 4.19727 22.582 3.5625 23.0859 3.07812C 23.5938 2.59375 24.2715 2.35156 25.1191 2.35156C 25.9121 2.35156 26.5391 2.56055 27 2.97852C 27.4609 3.39258 27.6914 3.94531 27.6914 4.63672C 27.6914 5.47656 27.1562 6.47656 26.0859 7.63672L 23.8008 10.1152L 28.084 10.1152L 28.084 11ZM 31.4355 9.5293L 33.0059 4.66016L 34.1133 4.66016L 31.8398 11L 31.0137 11L 28.7168 4.66016L 29.8242 4.66016L 31.4355 9.5293Z"/>
<path id="path46_fill" d="M 6.43359 9.50586L 7.65234 4.66016L 8.73633 4.66016L 6.89062 11L 6.01172 11L 4.4707 6.19531L 2.9707 11L 2.0918 11L 0.251953 4.66016L 1.33008 4.66016L 2.57812 9.40625L 4.05469 4.66016L 4.92773 4.66016L 6.43359 9.50586Z"/>
<path id="path47_fill" d="M 15.9258 6.42383L 18.3047 6.42383L 18.3047 7.44922L 15.9258 7.44922L 15.9258 10.1445L 14.8359 10.1445L 14.8359 7.44922L 12.457 7.44922L 12.457 6.42383L 14.8359 6.42383L 14.8359 3.93359L 15.9258 3.93359L 15.9258 6.42383Z"/>
<path id="path48_fill" d="M 24.6973 9.5293L 26.2676 4.66016L 27.375 4.66016L 25.1016 11L 24.2754 11L 21.9785 4.66016L 23.0859 4.66016L 24.6973 9.5293Z"/>
<path id="path49_fill" d="M 6.43359 9.50586L 7.65234 4.66016L 8.73633 4.66016L 6.89062 11L 6.01172 11L 4.4707 6.19531L 2.9707 11L 2.0918 11L 0.251953 4.66016L 1.33008 4.66016L 2.57812 9.40625L 4.05469 4.66016L 4.92773 4.66016L 6.43359 9.50586Z"/>
<path id="path50_fill" d="M 13.0547 6.42383L 15.4336 6.42383L 15.4336 7.44922L 13.0547 7.44922L 13.0547 10.1445L 11.9648 10.1445L 11.9648 7.44922L 9.58594 7.44922L 9.58594 6.42383L 11.9648 6.42383L 11.9648 3.93359L 13.0547 3.93359L 13.0547 6.42383Z"/>
<path id="path51_fill" d="M 19.0137 7.81836L 16.1543 7.81836L 16.1543 6.93359L 19.0137 6.93359L 19.0137 7.81836ZM 25.6875 9.50586L 26.9062 4.66016L 27.9902 4.66016L 26.1445 11L 25.2656 11L 23.7246 6.19531L 22.2246 11L 21.3457 11L 19.5059 4.66016L 20.584 4.66016L 21.832 9.40625L 23.3086 4.66016L 24.1816 4.66016L 25.6875 9.50586Z"/>
<path id="path52_fill" d="M 3.07617 7.81836L 0.216797 7.81836L 0.216797 6.93359L 3.07617 6.93359L 3.07617 7.81836ZM 6.22852 9.5293L 7.79883 4.66016L 8.90625 4.66016L 6.63281 11L 5.80664 11L 3.50977 4.66016L 4.61719 4.66016L 6.22852 9.5293Z"/>
<path id="path53_fill" d="M 22.7695 6.42383L 25.1484 6.42383L 25.1484 7.44922L 22.7695 7.44922L 22.7695 10.1445L 21.6797 10.1445L 21.6797 7.44922L 19.3008 7.44922L 19.3008 6.42383L 21.6797 6.42383L 21.6797 3.93359L 22.7695 3.93359L 22.7695 6.42383Z"/>
<path id="path54_fill" d="M 31.7051 7.81836L 28.8457 7.81836L 28.8457 6.93359L 31.7051 6.93359L 31.7051 7.81836ZM 38.3789 9.50586L 39.5977 4.66016L 40.6816 4.66016L 38.8359 11L 37.957 11L 36.416 6.19531L 34.916 11L 34.0371 11L 32.1973 4.66016L 33.2754 4.66016L 34.5234 9.40625L 36 4.66016L 36.873 4.66016L 38.3789 9.50586Z"/>
<path id="path55_fill" d="M 3.07617 7.81836L 0.216797 7.81836L 0.216797 6.93359L 3.07617 6.93359L 3.07617 7.81836ZM 9.61523 11L 4.02539 11L 4.02539 10.2207L 6.97852 6.93945C 7.41602 6.44336 7.7168 6.04102 7.88086 5.73242C 8.04883 5.41992 8.13281 5.09766 8.13281 4.76562C 8.13281 4.32031 7.99805 3.95508 7.72852 3.66992C 7.45898 3.38477 7.09961 3.24219 6.65039 3.24219C 6.11133 3.24219 5.69141 3.39648 5.39062 3.70508C 5.09375 4.00977 4.94531 4.43555 4.94531 4.98242L 3.86133 4.98242C 3.86133 4.19727 4.11328 3.5625 4.61719 3.07812C 5.125 2.59375 5.80273 2.35156 6.65039 2.35156C 7.44336 2.35156 8.07031 2.56055 8.53125 2.97852C 8.99219 3.39258 9.22266 3.94531 9.22266 4.63672C 9.22266 5.47656 8.6875 6.47656 7.61719 7.63672L 5.33203 10.1152L 9.61523 10.1152L 9.61523 11ZM 12.9668 9.5293L 14.5371 4.66016L 15.6445 4.66016L 13.3711 11L 12.5449 11L 10.248 4.66016L 11.3555 4.66016L 12.9668 9.5293Z"/>
<path id="path56_stroke" d="M 0 0L 42 0L 42 -1L 0 -1L 0 0Z"/>
<path id="path57_fill" d="M 3.04688 8.60938L 4.13281 8.60938C 4.8151 8.59896 5.35156 8.41927 5.74219 8.07031C 6.13281 7.72135 6.32812 7.25 6.32812 6.65625C 6.32812 5.32292 5.66406 4.65625 4.33594 4.65625C 3.71094 4.65625 3.21094 4.83594 2.83594 5.19531C 2.46615 5.54948 2.28125 6.02083 2.28125 6.60938L 0.835938 6.60938C 0.835938 5.70833 1.16406 4.96094 1.82031 4.36719C 2.48177 3.76823 3.32031 3.46875 4.33594 3.46875C 5.40885 3.46875 6.25 3.7526 6.85938 4.32031C 7.46875 4.88802 7.77344 5.67708 7.77344 6.6875C 7.77344 7.18229 7.61198 7.66146 7.28906 8.125C 6.97135 8.58854 6.53646 8.9349 5.98438 9.16406C 6.60938 9.36198 7.09115 9.6901 7.42969 10.1484C 7.77344 10.6068 7.94531 11.1667 7.94531 11.8281C 7.94531 12.849 7.61198 13.6589 6.94531 14.2578C 6.27865 14.8568 5.41146 15.1562 4.34375 15.1562C 3.27604 15.1562 2.40625 14.8672 1.73438 14.2891C 1.06771 13.7109 0.734375 12.9479 0.734375 12L 2.1875 12C 2.1875 12.599 2.38281 13.0781 2.77344 13.4375C 3.16406 13.7969 3.6875 13.9766 4.34375 13.9766C 5.04167 13.9766 5.57552 13.7943 5.94531 13.4297C 6.3151 13.0651 6.5 12.5417 6.5 11.8594C 6.5 11.1979 6.29688 10.6901 5.89062 10.3359C 5.48438 9.98177 4.89844 9.79948 4.13281 9.78906L 3.04688 9.78906L 3.04688 8.60938ZM 5.69531 34L 4.24219 34L 4.24219 24.3672L 1.32812 25.4375L 1.32812 24.125L 5.46875 22.5703L 5.69531 22.5703L 5.69531 34Z"/>
<path id="path58_fill" d="M 3.88281 13.0391L 5.97656 6.54688L 7.45312 6.54688L 4.42188 15L 3.32031 15L 0.257812 6.54688L 1.73438 6.54688L 3.88281 13.0391ZM 19.4219 8.64062L 12.9062 8.64062L 12.9062 7.38281L 19.4219 7.38281L 19.4219 8.64062ZM 19.4219 11.8828L 12.9062 11.8828L 12.9062 10.6328L 19.4219 10.6328L 19.4219 11.8828Z"/>
</defs>
</svg>
