<svg width="352" height="307" viewBox="0 0 352 307" version="1.1" xmlns="http://www.w3.org/2000/svg" xmlns:xlink="http://www.w3.org/1999/xlink">
<title>Group.svg</title>
<desc>Created using Figma</desc>
<g id="Canvas" transform="translate(42 -1822)">
<g id="Group">
<g id="Line 7">
<use xlink:href="#path0_stroke" transform="matrix(0.00649628 0.999979 -0.999979 0.00649046 67.5 1823)"/>
</g>
<g id="Line 7">
<use xlink:href="#path1_stroke" transform="matrix(0.999966 0.00822976 -0.00822976 0.999966 66 1974)"/>
</g>
<g id="Group">
<g id="Line 8">
<use xlink:href="#path2_stroke" transform="matrix(-0.0105248 0.999945 -0.999945 -0.0105248 95.0268 1972.88)"/>
</g>
<g id="Line 8">
<use xlink:href="#path2_stroke" transform="matrix(-0.0105248 0.999945 -0.999945 -0.0105248 126.831 1973.22)"/>
</g>
<g id="Line 8">
<use xlink:href="#path2_stroke" transform="matrix(-0.0105248 0.999945 -0.999945 -0.0105248 156.648 1973.53)"/>
</g>
<g id="Line 8">
<use xlink:href="#path2_stroke" transform="matrix(-0.0105248 0.999945 -0.999945 -0.0105248 186.465 1973.84)"/>
</g>
<g id="Line 8">
<use xlink:href="#path2_stroke" transform="matrix(-0.0105248 0.999945 -0.999945 -0.0105248 218.27 1974.18)"/>
</g>
<g id="Line 8">
<use xlink:href="#path2_stroke" transform="matrix(-0.0105248 0.999945 -0.999945 -0.0105248 250.075 1974.51)"/>
</g>
<g id="Line 8">
<use xlink:href="#path2_stroke" transform="matrix(-0.0105248 0.999945 -0.999945 -0.0105248 279.892 1974.83)"/>
</g>
<g id="Line 8">
<use xlink:href="#path2_stroke" transform="matrix(-0.0105248 0.999945 -0.999945 -0.0105248 307.721 1975.12)"/>
</g>
</g>
<g id="Line 8">
<use xlink:href="#path3_stroke" transform="matrix(1 -2.67069e-24 2.67309e-24 1 66.4879 1946.19)"/>
</g>
<g id="Line 8">
<use xlink:href="#path3_stroke" transform="matrix(1 -2.67069e-24 2.67309e-24 1 66.4879 1914.4)"/>
</g>
<g id="Line 8">
<use xlink:href="#path3_stroke" transform="matrix(1 -2.67069e-24 2.67309e-24 1 66.4879 1884.6)"/>
</g>
<g id="Line 8">
<use xlink:href="#path3_stroke" transform="matrix(1 -2.67069e-24 2.67309e-24 1 66.4879 1854.79)"/>
</g>
<g id="Line 8">
<use xlink:href="#path3_stroke" transform="matrix(1 -2.67069e-24 2.67309e-24 1 66.5 1823.99)"/>
</g>
<g id="Line 8">
<use xlink:href="#path3_stroke" transform="matrix(1 -2.67069e-24 2.67309e-24 1 67.4879 2129)"/>
</g>
<g id="Line 8">
<use xlink:href="#path3_stroke" transform="matrix(1 -2.67069e-24 2.67309e-24 1 67.4879 2097.21)"/>
</g>
<g id="Line 8">
<use xlink:href="#path3_stroke" transform="matrix(1 -2.67069e-24 2.67309e-24 1 67.4879 2065.42)"/>
</g>
<g id="Line 8">
<use xlink:href="#path3_stroke" transform="matrix(1 -2.67069e-24 2.67309e-24 1 67.4879 2035.61)"/>
</g>
<g id="Line 8">
<use xlink:href="#path3_stroke" transform="matrix(1 -2.67069e-24 2.67309e-24 1 66.4879 2007.79)"/>
</g>
<g id="Arrow 6">
<use xlink:href="#path4_stroke" transform="matrix(0.952477 -0.30461 0.30461 0.952477 69 1974)" fill="#2D9CDB"/>
</g>
<g id="Arrow 6">
<use xlink:href="#path5_stroke" transform="matrix(0.946694 -0.322134 0.322393 0.946606 155.944 1946.19)" fill="#2D9CDB"/>
</g>
<g id="Arrow 7">
<use xlink:href="#path6_stroke" transform="matrix(-0.490588 0.871392 -0.871579 -0.490255 248.892 1918.38)" fill="#F2994A"/>
</g>
<g id="Arrow 7">
<use xlink:href="#path7_stroke" transform="matrix(-0.441982 0.897024 -0.897024 -0.441982 217.085 1976)" fill="#F2994A"/>
</g>
<g id="v">
<use xlink:href="#path8_fill" transform="translate(104.258 1944.21)" fill="#2D9CDB"/>
</g>
<g id="2v">
<use xlink:href="#path9_fill" transform="translate(196 1914)" fill="#2D9CDB"/>
</g>
<g id="2v - w">
<use xlink:href="#path10_fill" transform="translate(236 1940)" fill="#333333"/>
<use xlink:href="#path11_fill" transform="translate(236 1940)" fill="#F2994A"/>
<use xlink:href="#path12_fill" transform="translate(236 1940)" fill="#2D9CDB"/>
</g>
<g id="2v - 2w">
<use xlink:href="#path13_fill" transform="translate(207.888 1996.89)" fill="#333333"/>
<use xlink:href="#path14_fill" transform="translate(207.888 1996.89)" fill="#F2994A"/>
<use xlink:href="#path15_fill" transform="translate(207.888 1996.89)" fill="#2D9CDB"/>
</g>
<g id="Ellipse">
<use xlink:href="#path16_fill" transform="translate(184 2033)" fill="#27AE60"/>
</g>
<g id="Arrow 8">
<use xlink:href="#path17_stroke" transform="matrix(0.888218 0.459423 -0.459423 0.888218 68 1975)" fill="#27AE60"/>
</g>
<g id="2">
<use xlink:href="#path18_fill" transform="translate(124.137 1979.97)"/>
</g>
<g id="-2">
<use xlink:href="#path19_fill" transform="translate(53.6863 2029.55)"/>
</g>
<g id="-4">
<use xlink:href="#path20_fill" transform="translate(53.1553 2090.75)"/>
</g>
<g id="4">
<use xlink:href="#path21_fill" transform="translate(183.774 1979.97)"/>
</g>
<g id="6">
<use xlink:href="#path22_fill" transform="translate(247.387 1979.97)"/>
</g>
<g id="8">
<use xlink:href="#path23_fill" transform="translate(305.036 1979.97)"/>
</g>
<g id="2">
<use xlink:href="#path24_fill" transform="translate(57 1909)"/>
</g>
<g id="4">
<use xlink:href="#path25_fill" transform="translate(56.4516 1848.83)"/>
</g>
<g id="Component">
</g>
<g id="Component">
<g id="Line 2">
<use xlink:href="#path26_stroke" transform="matrix(0 1 -3.37153e-28 1 -14 1921.37)" fill="#F2994A"/>
</g>
<g id="Line 3">
<use xlink:href="#path27_stroke" transform="translate(-8 1922.37)" fill="#F2994A"/>
</g>
<g id="Line 3">
<use xlink:href="#path27_stroke" transform="translate(-8 1965)" fill="#F2994A"/>
</g>
</g>
<g id="Component">
</g>
<g id="Line 2">
<use xlink:href="#path28_stroke" transform="matrix(-1.83697e-16 -1 1 -1.73472e-16 12 1965)" fill="#F2994A"/>
</g>
<g id="Line 3">
<use xlink:href="#path27_stroke" transform="matrix(-1 2.70711e-16 -5.54007e-17 -1 12 1964)" fill="#F2994A"/>
</g>
<g id="Line 3">
<use xlink:href="#path27_stroke" transform="matrix(-1 1.22465e-16 -1.22465e-16 -1 12 1921)" fill="#F2994A"/>
</g>
<g id="1 2">
<use xlink:href="#path29_fill" transform="translate(-2 1923)" fill="#F2994A"/>
</g>
<g id="w =">
<use xlink:href="#path30_fill" transform="translate(-42 1932)" fill="#F2994A"/>
</g>
<g id="Line 2">
<use xlink:href="#path31_stroke" transform="matrix(-5.54007e-17 -1 0.99953 -0.0306649 -7 1964)" fill="#F2994A"/>
</g>
<g id="Component">
<g id="Line 2">
<use xlink:href="#path26_stroke" transform="matrix(0 1 -3.37153e-28 1 -13 1977.37)" fill="#F2994A"/>
</g>
<g id="Line 3">
<use xlink:href="#path27_stroke" transform="translate(-7 1978.37)" fill="#2F80ED"/>
</g>
<g id="Line 3">
<use xlink:href="#path27_stroke" transform="translate(-7 2021)" fill="#2F80ED"/>
</g>
</g>
<g id="Line 2">
<use xlink:href="#path28_stroke" transform="matrix(-1.83697e-16 -1 1 -1.73472e-16 13 2021)" fill="#2F80ED"/>
</g>
<g id="Line 3">
<use xlink:href="#path27_stroke" transform="matrix(-1 2.70711e-16 -5.54007e-17 -1 13 2020)" fill="#2F80ED"/>
</g>
<g id="Line 3">
<use xlink:href="#path27_stroke" transform="matrix(-1 1.22465e-16 -1.22465e-16 -1 13 1977)" fill="#2F80ED"/>
</g>
<g id="3 1">
<use xlink:href="#path32_fill" transform="translate(-1 1979)" fill="#2F80ED"/>
</g>
<g id="v =">
<use xlink:href="#path33_fill" transform="translate(-42 1988)" fill="#2F80ED"/>
</g>
<g id="Line 2">
<use xlink:href="#path31_stroke" transform="matrix(-5.54007e-17 -1 0.99953 -0.0306649 -6 2020)" fill="#2F80ED"/>
</g>
</g>
</g>
<defs>
<path id="path0_stroke" d="M 0 0L 306.006 0L 306.006 -1L 0 -1L 0 0Z"/>
<path id="path1_stroke" d="M 0 0L 243.008 0L 243.008 -1L 0 -1L 0 0Z"/>
<path id="path2_stroke" d="M 0 0L 3.97403 0L 3.97403 -1L 0 -1L 0 0Z"/>
<path id="path3_stroke" d="M 0 0L 3.97581 0L 3.97581 -1L 0 -1L 0 0Z"/>
<path id="path4_stroke" d="M 91.8118 0.53033C 92.1047 0.237437 92.1047 -0.237437 91.8118 -0.53033L 87.0389 -5.3033C 86.746 -5.59619 86.2711 -5.59619 85.9782 -5.3033C 85.6853 -5.01041 85.6853 -4.53553 85.9782 -4.24264L 90.2208 0L 85.9782 4.24264C 85.6853 4.53553 85.6853 5.01041 85.9782 5.3033C 86.2711 5.59619 86.746 5.59619 87.0389 5.3033L 91.8118 0.53033ZM 0 0.75L 91.2815 0.75L 91.2815 -0.75L 0 -0.75L 0 0.75Z"/>
<path id="path5_stroke" d="M 99.2227 0.53033C 99.5156 0.237437 99.5156 -0.237437 99.2227 -0.53033L 94.4497 -5.3033C 94.1568 -5.59619 93.6819 -5.59619 93.3891 -5.3033C 93.0962 -5.01041 93.0962 -4.53553 93.3891 -4.24264L 97.6317 0L 93.3891 4.24264C 93.0962 4.53553 93.0962 5.01041 93.3891 5.3033C 93.6819 5.59619 94.1568 5.59619 94.4497 5.3033L 99.2227 0.53033ZM 0 0.75L 98.6924 0.75L 98.6924 -0.75L 0 -0.75L 0 0.75Z"/>
<path id="path6_stroke" d="M 64.3781 0.53033C 64.6709 0.237437 64.6709 -0.237437 64.3781 -0.53033L 59.6051 -5.3033C 59.3122 -5.59619 58.8373 -5.59619 58.5444 -5.3033C 58.2515 -5.01041 58.2515 -4.53553 58.5444 -4.24264L 62.7871 0L 58.5444 4.24264C 58.2515 4.53553 58.2515 5.01041 58.5444 5.3033C 58.8373 5.59619 59.3122 5.59619 59.6051 5.3033L 64.3781 0.53033ZM 0 0.75L 63.8477 0.75L 63.8477 -0.75L 0 -0.75L 0 0.75Z"/>
<path id="path7_stroke" d="M 64.0738 0.53033C 64.3667 0.237437 64.3667 -0.237437 64.0738 -0.53033L 59.3008 -5.3033C 59.0079 -5.59619 58.533 -5.59619 58.2402 -5.3033C 57.9473 -5.01041 57.9473 -4.53553 58.2402 -4.24264L 62.4828 0L 58.2402 4.24264C 57.9473 4.53553 57.9473 5.01041 58.2402 5.3033C 58.533 5.59619 59.0079 5.59619 59.3008 5.3033L 64.0738 0.53033ZM 0 0.75L 63.5435 0.75L 63.5435 -0.75L 0 -0.75L 0 0.75Z"/>
<path id="path8_fill" d="M 3.39746 11.2842L 5.22949 5.60352L 6.52148 5.60352L 3.86914 13L 2.90527 13L 0.225586 5.60352L 1.51758 5.60352L 3.39746 11.2842Z"/>
<path id="path9_fill" d="M 7.34863 13L 0.827148 13L 0.827148 12.0908L 4.27246 8.2627C 4.78288 7.68392 5.13379 7.21452 5.3252 6.85449C 5.52116 6.48991 5.61914 6.11393 5.61914 5.72656C 5.61914 5.20703 5.46191 4.78092 5.14746 4.44824C 4.83301 4.11556 4.41374 3.94922 3.88965 3.94922C 3.26074 3.94922 2.77083 4.12923 2.41992 4.48926C 2.07357 4.84473 1.90039 5.34147 1.90039 5.97949L 0.635742 5.97949C 0.635742 5.06348 0.929688 4.32292 1.51758 3.75781C 2.11003 3.19271 2.90072 2.91016 3.88965 2.91016C 4.81478 2.91016 5.54622 3.15397 6.08398 3.6416C 6.62174 4.12467 6.89062 4.76953 6.89062 5.57617C 6.89062 6.55599 6.26628 7.72266 5.01758 9.07617L 2.35156 11.9678L 7.34863 11.9678L 7.34863 13ZM 11.2588 11.2842L 13.0908 5.60352L 14.3828 5.60352L 11.7305 13L 10.7666 13L 8.08691 5.60352L 9.37891 5.60352L 11.2588 11.2842Z"/>
<path id="path10_fill" d="M 21.7041 9.28809L 18.3682 9.28809L 18.3682 8.25586L 21.7041 8.25586L 21.7041 9.28809Z"/>
<path id="path11_fill" d="M 32.9629 11.2568L 34.3848 5.60352L 35.6494 5.60352L 33.4961 13L 32.4707 13L 30.6729 7.39453L 28.9229 13L 27.8975 13L 25.751 5.60352L 27.0088 5.60352L 28.4648 11.1406L 30.1875 5.60352L 31.2061 5.60352L 32.9629 11.2568Z"/>
<path id="path12_fill" d="M 7.34863 13L 0.827148 13L 0.827148 12.0908L 4.27246 8.2627C 4.78288 7.68392 5.13379 7.21452 5.3252 6.85449C 5.52116 6.48991 5.61914 6.11393 5.61914 5.72656C 5.61914 5.20703 5.46191 4.78092 5.14746 4.44824C 4.83301 4.11556 4.41374 3.94922 3.88965 3.94922C 3.26074 3.94922 2.77083 4.12923 2.41992 4.48926C 2.07357 4.84473 1.90039 5.34147 1.90039 5.97949L 0.635742 5.97949C 0.635742 5.06348 0.929688 4.32292 1.51758 3.75781C 2.11003 3.19271 2.90072 2.91016 3.88965 2.91016C 4.81478 2.91016 5.54622 3.15397 6.08398 3.6416C 6.62174 4.12467 6.89062 4.76953 6.89062 5.57617C 6.89062 6.55599 6.26628 7.72266 5.01758 9.07617L 2.35156 11.9678L 7.34863 11.9678L 7.34863 13ZM 11.2588 11.2842L 13.0908 5.60352L 14.3828 5.60352L 11.7305 13L 10.7666 13L 8.08691 5.60352L 9.37891 5.60352L 11.2588 11.2842Z"/>
<path id="path13_fill" d="M 21.7041 9.28809L 18.3682 9.28809L 18.3682 8.25586L 21.7041 8.25586L 21.7041 9.28809Z"/>
<path id="path14_fill" d="M 32.8057 13L 26.2842 13L 26.2842 12.0908L 29.7295 8.2627C 30.2399 7.68392 30.5908 7.21452 30.7822 6.85449C 30.9782 6.48991 31.0762 6.11393 31.0762 5.72656C 31.0762 5.20703 30.9189 4.78092 30.6045 4.44824C 30.29 4.11556 29.8708 3.94922 29.3467 3.94922C 28.7178 3.94922 28.2279 4.12923 27.877 4.48926C 27.5306 4.84473 27.3574 5.34147 27.3574 5.97949L 26.0928 5.97949C 26.0928 5.06348 26.3867 4.32292 26.9746 3.75781C 27.5671 3.19271 28.3577 2.91016 29.3467 2.91016C 30.2718 2.91016 31.0033 3.15397 31.541 3.6416C 32.0788 4.12467 32.3477 4.76953 32.3477 5.57617C 32.3477 6.55599 31.7233 7.72266 30.4746 9.07617L 27.8086 11.9678L 32.8057 11.9678L 32.8057 13ZM 40.8242 11.2568L 42.2461 5.60352L 43.5107 5.60352L 41.3574 13L 40.332 13L 38.5342 7.39453L 36.7842 13L 35.7588 13L 33.6123 5.60352L 34.8701 5.60352L 36.3262 11.1406L 38.0488 5.60352L 39.0674 5.60352L 40.8242 11.2568Z"/>
<path id="path15_fill" d="M 7.34863 13L 0.827148 13L 0.827148 12.0908L 4.27246 8.2627C 4.78288 7.68392 5.13379 7.21452 5.3252 6.85449C 5.52116 6.48991 5.61914 6.11393 5.61914 5.72656C 5.61914 5.20703 5.46191 4.78092 5.14746 4.44824C 4.83301 4.11556 4.41374 3.94922 3.88965 3.94922C 3.26074 3.94922 2.77083 4.12923 2.41992 4.48926C 2.07357 4.84473 1.90039 5.34147 1.90039 5.97949L 0.635742 5.97949C 0.635742 5.06348 0.929688 4.32292 1.51758 3.75781C 2.11003 3.19271 2.90072 2.91016 3.88965 2.91016C 4.81478 2.91016 5.54622 3.15397 6.08398 3.6416C 6.62174 4.12467 6.89062 4.76953 6.89062 5.57617C 6.89062 6.55599 6.26628 7.72266 5.01758 9.07617L 2.35156 11.9678L 7.34863 11.9678L 7.34863 13ZM 11.2588 11.2842L 13.0908 5.60352L 14.3828 5.60352L 11.7305 13L 10.7666 13L 8.08691 5.60352L 9.37891 5.60352L 11.2588 11.2842Z"/>
<path id="path16_fill" d="M 5.96371 2.98052C 5.96371 4.62662 4.62869 5.96104 2.98185 5.96104C 1.33502 5.96104 0 4.62662 0 2.98052C 0 1.33442 1.33502 0 2.98185 0C 4.62869 0 5.96371 1.33442 5.96371 2.98052Z"/>
<path id="path17_stroke" d="M 131.129 0.53033C 131.422 0.237437 131.422 -0.237437 131.129 -0.53033L 126.356 -5.3033C 126.063 -5.59619 125.588 -5.59619 125.295 -5.3033C 125.002 -5.01041 125.002 -4.53553 125.295 -4.24264L 129.538 0L 125.295 4.24264C 125.002 4.53553 125.002 5.01041 125.295 5.3033C 125.588 5.59619 126.063 5.59619 126.356 5.3033L 131.129 0.53033ZM 0 0.75L 130.599 0.75L 130.599 -0.75L 0 -0.75L 0 0.75Z"/>
<path id="path18_fill" d="M 4.19922 7L 0.472656 7L 0.472656 6.48047L 2.44141 4.29297C 2.73307 3.96224 2.93359 3.69401 3.04297 3.48828C 3.15495 3.27995 3.21094 3.0651 3.21094 2.84375C 3.21094 2.54688 3.12109 2.30339 2.94141 2.11328C 2.76172 1.92318 2.52214 1.82812 2.22266 1.82812C 1.86328 1.82812 1.58333 1.93099 1.38281 2.13672C 1.1849 2.33984 1.08594 2.6237 1.08594 2.98828L 0.363281 2.98828C 0.363281 2.46484 0.53125 2.04167 0.867188 1.71875C 1.20573 1.39583 1.65755 1.23438 2.22266 1.23438C 2.7513 1.23438 3.16927 1.3737 3.47656 1.65234C 3.78385 1.92839 3.9375 2.29688 3.9375 2.75781C 3.9375 3.31771 3.58073 3.98438 2.86719 4.75781L 1.34375 6.41016L 4.19922 6.41016L 4.19922 7Z"/>
<path id="path19_fill" d="M 3.07617 7.81836L 0.216797 7.81836L 0.216797 6.93359L 3.07617 6.93359L 3.07617 7.81836ZM 9.61523 11L 4.02539 11L 4.02539 10.2207L 6.97852 6.93945C 7.41602 6.44336 7.7168 6.04102 7.88086 5.73242C 8.04883 5.41992 8.13281 5.09766 8.13281 4.76562C 8.13281 4.32031 7.99805 3.95508 7.72852 3.66992C 7.45898 3.38477 7.09961 3.24219 6.65039 3.24219C 6.11133 3.24219 5.69141 3.39648 5.39062 3.70508C 5.09375 4.00977 4.94531 4.43555 4.94531 4.98242L 3.86133 4.98242C 3.86133 4.19727 4.11328 3.5625 4.61719 3.07812C 5.125 2.59375 5.80273 2.35156 6.65039 2.35156C 7.44336 2.35156 8.07031 2.56055 8.53125 2.97852C 8.99219 3.39258 9.22266 3.94531 9.22266 4.63672C 9.22266 5.47656 8.6875 6.47656 7.61719 7.63672L 5.33203 10.1152L 9.61523 10.1152L 9.61523 11Z"/>
<path id="path20_fill" d="M 3.07617 7.81836L 0.216797 7.81836L 0.216797 6.93359L 3.07617 6.93359L 3.07617 7.81836ZM 8.60156 8.13477L 9.78516 8.13477L 9.78516 9.01953L 8.60156 9.01953L 8.60156 11L 7.51172 11L 7.51172 9.01953L 3.62695 9.01953L 3.62695 8.38086L 7.44727 2.46875L 8.60156 2.46875L 8.60156 8.13477ZM 4.85742 8.13477L 7.51172 8.13477L 7.51172 3.95117L 7.38281 4.18555L 4.85742 8.13477Z"/>
<path id="path21_fill" d="M 3.52344 5.08984L 4.3125 5.08984L 4.3125 5.67969L 3.52344 5.67969L 3.52344 7L 2.79688 7L 2.79688 5.67969L 0.207031 5.67969L 0.207031 5.25391L 2.75391 1.3125L 3.52344 1.3125L 3.52344 5.08984ZM 1.02734 5.08984L 2.79688 5.08984L 2.79688 2.30078L 2.71094 2.45703L 1.02734 5.08984Z"/>
<path id="path22_fill" d="M 3.30859 1.30859L 3.30859 1.92188L 3.17578 1.92188C 2.61328 1.93229 2.16536 2.09896 1.83203 2.42188C 1.4987 2.74479 1.30599 3.19922 1.25391 3.78516C 1.55339 3.44141 1.96224 3.26953 2.48047 3.26953C 2.97526 3.26953 3.36979 3.44401 3.66406 3.79297C 3.96094 4.14193 4.10938 4.59245 4.10938 5.14453C 4.10938 5.73047 3.94922 6.19922 3.62891 6.55078C 3.3112 6.90234 2.88411 7.07812 2.34766 7.07812C 1.80339 7.07812 1.36198 6.86979 1.02344 6.45312C 0.684896 6.03385 0.515625 5.49479 0.515625 4.83594L 0.515625 4.55859C 0.515625 3.51172 0.738281 2.71224 1.18359 2.16016C 1.63151 1.60547 2.29688 1.32161 3.17969 1.30859L 3.30859 1.30859ZM 2.35938 3.87109C 2.11198 3.87109 1.88411 3.94531 1.67578 4.09375C 1.46745 4.24219 1.32292 4.42839 1.24219 4.65234L 1.24219 4.91797C 1.24219 5.38672 1.34766 5.76432 1.55859 6.05078C 1.76953 6.33724 2.03255 6.48047 2.34766 6.48047C 2.67318 6.48047 2.92839 6.36068 3.11328 6.12109C 3.30078 5.88151 3.39453 5.56771 3.39453 5.17969C 3.39453 4.78906 3.29948 4.47396 3.10938 4.23438C 2.92188 3.99219 2.67188 3.87109 2.35938 3.87109Z"/>
<path id="path23_fill" d="M 3.92188 2.79688C 3.92188 3.08073 3.84635 3.33333 3.69531 3.55469C 3.54688 3.77604 3.34505 3.94922 3.08984 4.07422C 3.38672 4.20182 3.62109 4.38802 3.79297 4.63281C 3.96745 4.8776 4.05469 5.15495 4.05469 5.46484C 4.05469 5.95703 3.88802 6.34896 3.55469 6.64062C 3.22396 6.93229 2.78776 7.07812 2.24609 7.07812C 1.69922 7.07812 1.26042 6.93229 0.929688 6.64062C 0.601562 6.34635 0.4375 5.95443 0.4375 5.46484C 0.4375 5.15755 0.520833 4.88021 0.6875 4.63281C 0.856771 4.38542 1.08984 4.19792 1.38672 4.07031C 1.13411 3.94531 0.934896 3.77214 0.789062 3.55078C 0.643229 3.32943 0.570312 3.07812 0.570312 2.79688C 0.570312 2.31771 0.723958 1.9375 1.03125 1.65625C 1.33854 1.375 1.74349 1.23438 2.24609 1.23438C 2.74609 1.23438 3.14974 1.375 3.45703 1.65625C 3.76693 1.9375 3.92188 2.31771 3.92188 2.79688ZM 3.33203 5.44922C 3.33203 5.13151 3.23047 4.8724 3.02734 4.67188C 2.82682 4.47135 2.5638 4.37109 2.23828 4.37109C 1.91276 4.37109 1.65104 4.47005 1.45312 4.66797C 1.25781 4.86589 1.16016 5.1263 1.16016 5.44922C 1.16016 5.77214 1.25521 6.02604 1.44531 6.21094C 1.63802 6.39583 1.90495 6.48828 2.24609 6.48828C 2.58464 6.48828 2.85026 6.39583 3.04297 6.21094C 3.23568 6.02344 3.33203 5.76953 3.33203 5.44922ZM 2.24609 1.82812C 1.96224 1.82812 1.73177 1.91667 1.55469 2.09375C 1.38021 2.26823 1.29297 2.50651 1.29297 2.80859C 1.29297 3.09766 1.37891 3.33203 1.55078 3.51172C 1.72526 3.6888 1.95703 3.77734 2.24609 3.77734C 2.53516 3.77734 2.76562 3.6888 2.9375 3.51172C 3.11198 3.33203 3.19922 3.09766 3.19922 2.80859C 3.19922 2.51953 3.10938 2.28385 2.92969 2.10156C 2.75 1.91927 2.52214 1.82812 2.24609 1.82812Z"/>
<path id="path24_fill" d="M 6.29883 11L 0.708984 11L 0.708984 10.2207L 3.66211 6.93945C 4.09961 6.44336 4.40039 6.04102 4.56445 5.73242C 4.73242 5.41992 4.81641 5.09766 4.81641 4.76562C 4.81641 4.32031 4.68164 3.95508 4.41211 3.66992C 4.14258 3.38477 3.7832 3.24219 3.33398 3.24219C 2.79492 3.24219 2.375 3.39648 2.07422 3.70508C 1.77734 4.00977 1.62891 4.43555 1.62891 4.98242L 0.544922 4.98242C 0.544922 4.19727 0.796875 3.5625 1.30078 3.07812C 1.80859 2.59375 2.48633 2.35156 3.33398 2.35156C 4.12695 2.35156 4.75391 2.56055 5.21484 2.97852C 5.67578 3.39258 5.90625 3.94531 5.90625 4.63672C 5.90625 5.47656 5.37109 6.47656 4.30078 7.63672L 2.01562 10.1152L 6.29883 10.1152L 6.29883 11Z"/>
<path id="path25_fill" d="M 5.28516 8.13477L 6.46875 8.13477L 6.46875 9.01953L 5.28516 9.01953L 5.28516 11L 4.19531 11L 4.19531 9.01953L 0.310547 9.01953L 0.310547 8.38086L 4.13086 2.46875L 5.28516 2.46875L 5.28516 8.13477ZM 1.54102 8.13477L 4.19531 8.13477L 4.19531 3.95117L 4.06641 4.18555L 1.54102 8.13477Z"/>
<path id="path26_stroke" d="M 0 0L 42.6316 0L 42.6316 -1L 0 -1L 0 0Z"/>
<path id="path27_stroke" d="M 0 0L 3 0L 3 -1L 0 -1L 0 0Z"/>
<path id="path28_stroke" d="M 0 0L 44 0L 44 -1L 0 -1L 0 0Z"/>
<path id="path29_fill" d="M 5.69531 15L 4.24219 15L 4.24219 5.36719L 1.32812 6.4375L 1.32812 5.125L 5.46875 3.57031L 5.69531 3.57031L 5.69531 15ZM 8.39844 34L 0.945312 34L 0.945312 32.9609L 4.88281 28.5859C 5.46615 27.9245 5.86719 27.388 6.08594 26.9766C 6.3099 26.5599 6.42188 26.1302 6.42188 25.6875C 6.42188 25.0938 6.24219 24.6068 5.88281 24.2266C 5.52344 23.8464 5.04427 23.6562 4.44531 23.6562C 3.72656 23.6562 3.16667 23.862 2.76562 24.2734C 2.36979 24.6797 2.17188 25.2474 2.17188 25.9766L 0.726562 25.9766C 0.726562 24.9297 1.0625 24.0833 1.73438 23.4375C 2.41146 22.7917 3.3151 22.4688 4.44531 22.4688C 5.5026 22.4688 6.33854 22.7474 6.95312 23.3047C 7.56771 23.8568 7.875 24.5938 7.875 25.5156C 7.875 26.6354 7.16146 27.9688 5.73438 29.5156L 2.6875 32.8203L 8.39844 32.8203L 8.39844 34Z"/>
<path id="path30_fill" d="M 8.57812 13.0078L 10.2031 6.54688L 11.6484 6.54688L 9.1875 15L 8.01562 15L 5.96094 8.59375L 3.96094 15L 2.78906 15L 0.335938 6.54688L 1.77344 6.54688L 3.4375 12.875L 5.40625 6.54688L 6.57031 6.54688L 8.57812 13.0078ZM 23.7031 8.64062L 17.1875 8.64062L 17.1875 7.38281L 23.7031 7.38281L 23.7031 8.64062ZM 23.7031 11.8828L 17.1875 11.8828L 17.1875 10.6328L 23.7031 10.6328L 23.7031 11.8828Z"/>
<path id="path31_stroke" d="M 0 0L 42 0L 42 -1L 0 -1L 0 0Z"/>
<path id="path32_fill" d="M 3.04688 8.60938L 4.13281 8.60938C 4.8151 8.59896 5.35156 8.41927 5.74219 8.07031C 6.13281 7.72135 6.32812 7.25 6.32812 6.65625C 6.32812 5.32292 5.66406 4.65625 4.33594 4.65625C 3.71094 4.65625 3.21094 4.83594 2.83594 5.19531C 2.46615 5.54948 2.28125 6.02083 2.28125 6.60938L 0.835938 6.60938C 0.835938 5.70833 1.16406 4.96094 1.82031 4.36719C 2.48177 3.76823 3.32031 3.46875 4.33594 3.46875C 5.40885 3.46875 6.25 3.7526 6.85938 4.32031C 7.46875 4.88802 7.77344 5.67708 7.77344 6.6875C 7.77344 7.18229 7.61198 7.66146 7.28906 8.125C 6.97135 8.58854 6.53646 8.9349 5.98438 9.16406C 6.60938 9.36198 7.09115 9.6901 7.42969 10.1484C 7.77344 10.6068 7.94531 11.1667 7.94531 11.8281C 7.94531 12.849 7.61198 13.6589 6.94531 14.2578C 6.27865 14.8568 5.41146 15.1562 4.34375 15.1562C 3.27604 15.1562 2.40625 14.8672 1.73438 14.2891C 1.06771 13.7109 0.734375 12.9479 0.734375 12L 2.1875 12C 2.1875 12.599 2.38281 13.0781 2.77344 13.4375C 3.16406 13.7969 3.6875 13.9766 4.34375 13.9766C 5.04167 13.9766 5.57552 13.7943 5.94531 13.4297C 6.3151 13.0651 6.5 12.5417 6.5 11.8594C 6.5 11.1979 6.29688 10.6901 5.89062 10.3359C 5.48438 9.98177 4.89844 9.79948 4.13281 9.78906L 3.04688 9.78906L 3.04688 8.60938ZM 5.69531 34L 4.24219 34L 4.24219 24.3672L 1.32812 25.4375L 1.32812 24.125L 5.46875 22.5703L 5.69531 22.5703L 5.69531 34Z"/>
<path id="path33_fill" d="M 3.88281 13.0391L 5.97656 6.54688L 7.45312 6.54688L 4.42188 15L 3.32031 15L 0.257812 6.54688L 1.73438 6.54688L 3.88281 13.0391ZM 19.4219 8.64062L 12.9062 8.64062L 12.9062 7.38281L 19.4219 7.38281L 19.4219 8.64062ZM 19.4219 11.8828L 12.9062 11.8828L 12.9062 10.6328L 19.4219 10.6328L 19.4219 11.8828Z"/>
</defs>
</svg>

