<svg width="717" height="492" viewBox="0 0 717 492" version="1.1" xmlns="http://www.w3.org/2000/svg" xmlns:xlink="http://www.w3.org/1999/xlink">
<title>Group.svg</title>
<desc>Created using Figma</desc>
<g id="Canvas" transform="translate(452 -900)">
<g id="Group">
<g id="Line 4">
<use xlink:href="#path0_stroke" transform="matrix(6.11456e-17 1 -1 6.13192e-17 -128.46 900)"/>
</g>
<g id="Line 4">
<use xlink:href="#path1_stroke" transform="matrix(-1 1.22638e-16 -1.22291e-16 -1 -19 1011.54)"/>
</g>
<g id="Line 5">
<use xlink:href="#path2_stroke" transform="matrix(6.11456e-17 1 -1 6.13192e-17 -99.6549 1009.62)"/>
</g>
<g id="Line 5">
<use xlink:href="#path2_stroke" transform="matrix(6.11456e-17 1 -1 6.13192e-17 -72.7699 1009.62)"/>
</g>
<g id="Line 5">
<use xlink:href="#path2_stroke" transform="matrix(6.11456e-17 1 -1 6.13192e-17 -43.8849 1009.62)"/>
</g>
<g id="Line 5">
<use xlink:href="#path3_stroke" transform="matrix(-1 1.22638e-16 -1.22291e-16 -1 -124.619 928.846)"/>
</g>
<g id="Line 5">
<use xlink:href="#path3_stroke" transform="matrix(-1 1.22638e-16 -1.22291e-16 -1 -124.619 955.769)"/>
</g>
<g id="Line 5">
<use xlink:href="#path3_stroke" transform="matrix(-1 1.22638e-16 -1.22291e-16 -1 -124.619 980.769)"/>
</g>
<g id="Line 4">
<use xlink:href="#path0_stroke" transform="matrix(-1.83437e-16 -1 1 -1.83957e-16 -127.706 1124)"/>
</g>
<g id="Line 4">
<use xlink:href="#path1_stroke" transform="matrix(1 -2.45277e-16 2.44583e-16 1 -236 1012.46)"/>
</g>
<g id="Line 5">
<use xlink:href="#path2_stroke" transform="matrix(-1.83437e-16 -1 1 -1.83957e-16 -155.345 1015.38)"/>
</g>
<g id="Line 5">
<use xlink:href="#path2_stroke" transform="matrix(-1.83437e-16 -1 1 -1.83957e-16 -182.23 1015.38)"/>
</g>
<g id="Line 5">
<use xlink:href="#path2_stroke" transform="matrix(-1.83437e-16 -1 1 -1.83957e-16 -209.115 1015.38)"/>
</g>
<g id="Line 5">
<use xlink:href="#path3_stroke" transform="matrix(1 -2.45277e-16 2.44583e-16 1 -131.547 1069.23)"/>
</g>
<g id="Line 5">
<use xlink:href="#path3_stroke" transform="matrix(1 -2.45277e-16 2.44583e-16 1 -131.547 1042.31)"/>
</g>
<g id="Arrow 5">
<use xlink:href="#path4_stroke" transform="matrix(0.54513 -0.838351 0.837644 0.546216 -126.54 1011.54)" fill="#2F80ED"/>
</g>
<g id="2">
<use xlink:href="#path5_fill" transform="translate(-74.6902 1017.31)"/>
</g>
<g id="-2">
<use xlink:href="#path6_fill" transform="translate(-188 1017)"/>
</g>
<g id="2">
<use xlink:href="#path5_fill" transform="translate(-120.779 948.077)"/>
</g>
<g id="-2">
<use xlink:href="#path6_fill" transform="translate(-121 1059)"/>
</g>
<g id="Line 4">
<use xlink:href="#path7_stroke" transform="matrix(6.14274e-17 1 -1 6.10379e-17 149.035 901)"/>
</g>
<g id="Line 4">
<use xlink:href="#path8_stroke" transform="matrix(-1 1.22076e-16 -1.22855e-16 -1 259 1012.54)"/>
</g>
<g id="Line 5">
<use xlink:href="#path2_stroke" transform="matrix(6.14274e-17 1 -1 6.10379e-17 177.973 1009.62)"/>
</g>
<g id="Line 5">
<use xlink:href="#path2_stroke" transform="matrix(6.14274e-17 1 -1 6.10379e-17 204.982 1009.62)"/>
</g>
<g id="Line 5">
<use xlink:href="#path2_stroke" transform="matrix(6.14274e-17 1 -1 6.10379e-17 231.991 1009.62)"/>
</g>
<g id="Line 5">
<use xlink:href="#path9_stroke" transform="matrix(-1 1.22076e-16 -1.22855e-16 -1 152.894 928.846)"/>
</g>
<g id="Line 5">
<use xlink:href="#path9_stroke" transform="matrix(-1 1.22076e-16 -1.22855e-16 -1 152.894 955.769)"/>
</g>
<g id="Line 5">
<use xlink:href="#path9_stroke" transform="matrix(-1 1.22076e-16 -1.22855e-16 -1 152.894 980.769)"/>
</g>
<g id="Line 4">
<use xlink:href="#path7_stroke" transform="matrix(-1.84282e-16 -1 1 -1.83114e-16 149.965 1125)"/>
</g>
<g id="Line 4">
<use xlink:href="#path8_stroke" transform="matrix(1 -2.44152e-16 2.4571e-16 1 41 1013.46)"/>
</g>
<g id="Line 5">
<use xlink:href="#path2_stroke" transform="matrix(-1.84282e-16 -1 1 -1.83114e-16 122.027 1015.38)"/>
</g>
<g id="Line 5">
<use xlink:href="#path2_stroke" transform="matrix(-1.84282e-16 -1 1 -1.83114e-16 95.0177 1015.38)"/>
</g>
<g id="Line 5">
<use xlink:href="#path2_stroke" transform="matrix(-1.84282e-16 -1 1 -1.83114e-16 68.0089 1015.38)"/>
</g>
<g id="Line 5">
<use xlink:href="#path10_stroke" transform="matrix(1 -2.44312e-16 2.45549e-16 1 147 1096)"/>
</g>
<g id="Line 5">
<use xlink:href="#path9_stroke" transform="matrix(1 -2.44152e-16 2.4571e-16 1 147.106 1069.23)"/>
</g>
<g id="Line 5">
<use xlink:href="#path9_stroke" transform="matrix(1 -2.44152e-16 2.4571e-16 1 147.106 1042.31)"/>
</g>
<g id="Arrow 5">
<use xlink:href="#path11_stroke" transform="matrix(-0.538091 0.842887 -0.844434 -0.53566 150.965 1011.54)" fill="#2F80ED"/>
</g>
<g id="2">
<use xlink:href="#path5_fill" transform="translate(203.053 1017.31)"/>
</g>
<g id="-2">
<use xlink:href="#path6_fill" transform="translate(89 1017)"/>
</g>
<g id="2">
<use xlink:href="#path5_fill" transform="translate(156.752 948.077)"/>
</g>
<g id="-2">
<use xlink:href="#path6_fill" transform="translate(157 1061)"/>
</g>
<g id="Line 4">
<use xlink:href="#path12_stroke" transform="matrix(6.12865e-17 1 -1 6.11782e-17 -128.027 1153)"/>
</g>
<g id="Line 4">
<use xlink:href="#path13_stroke" transform="matrix(-1 1.22356e-16 -1.22573e-16 -1 -11 1271.97)"/>
</g>
<g id="Line 5">
<use xlink:href="#path14_stroke" transform="matrix(6.12865e-17 1 -1 6.11782e-17 -97.2301 1269.92)"/>
</g>
<g id="Line 5">
<use xlink:href="#path14_stroke" transform="matrix(6.12865e-17 1 -1 6.11782e-17 -68.4867 1269.92)"/>
</g>
<g id="Line 5">
<use xlink:href="#path15_stroke" transform="matrix(6.13357e-17 1 -1 6.11292e-17 -37 1270)"/>
</g>
<g id="Line 5">
<use xlink:href="#path16_stroke" transform="matrix(-1 1.22356e-16 -1.22573e-16 -1 -123.92 1183.77)"/>
</g>
<g id="Line 5">
<use xlink:href="#path16_stroke" transform="matrix(-1 1.22356e-16 -1.22573e-16 -1 -123.92 1212.49)"/>
</g>
<g id="Line 5">
<use xlink:href="#path16_stroke" transform="matrix(-1 1.22356e-16 -1.22573e-16 -1 -123.92 1239.15)"/>
</g>
<g id="Line 4">
<use xlink:href="#path12_stroke" transform="matrix(-1.8386e-16 -1 1 -1.83535e-16 -127.089 1392)"/>
</g>
<g id="Line 4">
<use xlink:href="#path13_stroke" transform="matrix(1 -2.44713e-16 2.45146e-16 1 -243 1273.03)"/>
</g>
<g id="Line 5">
<use xlink:href="#path14_stroke" transform="matrix(-1.8386e-16 -1 1 -1.83535e-16 -156.77 1276.08)"/>
</g>
<g id="Line 5">
<use xlink:href="#path14_stroke" transform="matrix(-1.8386e-16 -1 1 -1.83535e-16 -185.513 1276.08)"/>
</g>
<g id="Line 5">
<use xlink:href="#path14_stroke" transform="matrix(-1.8386e-16 -1 1 -1.83535e-16 -214.257 1276.08)"/>
</g>
<g id="Line 5">
<use xlink:href="#path16_stroke" transform="matrix(1 -2.44713e-16 2.45146e-16 1 -131.195 1362.23)"/>
</g>
<g id="Line 5">
<use xlink:href="#path16_stroke" transform="matrix(1 -2.44713e-16 2.45146e-16 1 -131.195 1333.51)"/>
</g>
<g id="Line 5">
<use xlink:href="#path16_stroke" transform="matrix(1 -2.44713e-16 2.45146e-16 1 -131.195 1304.79)"/>
</g>
<g id="Arrow 5">
<use xlink:href="#path17_stroke" transform="matrix(0.707419 -0.706794 0.707419 0.706794 -125.973 1271.97)" fill="#F2994A"/>
</g>
<g id="2">
<use xlink:href="#path5_fill" transform="translate(-71.6552 1278.13)"/>
</g>
<g id="-2">
<use xlink:href="#path6_fill" transform="translate(-191.673 1278.13)"/>
</g>
<g id="2">
<use xlink:href="#path5_fill" transform="translate(-119.814 1204.28)"/>
</g>
<g id="-2">
<use xlink:href="#path6_fill" transform="translate(-120.93 1323.26)"/>
</g>
<g id="Line 4">
<use xlink:href="#path18_stroke" transform="matrix(6.12323e-17 1 -1 6.12323e-17 151 1157)"/>
</g>
<g id="Line 4">
<use xlink:href="#path19_stroke" transform="matrix(-1 1.22465e-16 -1.22465e-16 -1 265 1273)"/>
</g>
<g id="Line 5">
<use xlink:href="#path20_stroke" transform="matrix(6.12323e-17 1 -1 6.12323e-17 181 1271)"/>
</g>
<g id="Line 5">
<use xlink:href="#path20_stroke" transform="matrix(6.12323e-17 1 -1 6.12323e-17 209 1271)"/>
</g>
<g id="Line 5">
<use xlink:href="#path20_stroke" transform="matrix(6.12323e-17 1 -1 6.12323e-17 237 1271)"/>
</g>
<g id="Line 5">
<use xlink:href="#path21_stroke" transform="matrix(-1 1.22465e-16 -1.22465e-16 -1 155 1187)"/>
</g>
<g id="Line 5">
<use xlink:href="#path21_stroke" transform="matrix(-1 1.22465e-16 -1.22465e-16 -1 155 1215)"/>
</g>
<g id="Line 5">
<use xlink:href="#path21_stroke" transform="matrix(-1 1.22465e-16 -1.22465e-16 -1 155 1241)"/>
</g>
<g id="Line 4">
<use xlink:href="#path18_stroke" transform="matrix(-1.83697e-16 -1 1 -1.83697e-16 151.881 1390)"/>
</g>
<g id="Line 4">
<use xlink:href="#path19_stroke" transform="matrix(1 -2.44929e-16 2.44929e-16 1 39 1273.88)"/>
</g>
<g id="Line 5">
<use xlink:href="#path20_stroke" transform="matrix(-1.83697e-16 -1 1 -1.83697e-16 123 1277)"/>
</g>
<g id="Line 5">
<use xlink:href="#path20_stroke" transform="matrix(-1.83697e-16 -1 1 -1.83697e-16 95 1277)"/>
</g>
<g id="Line 5">
<use xlink:href="#path20_stroke" transform="matrix(-1.83697e-16 -1 1 -1.83697e-16 67 1277)"/>
</g>
<g id="Line 5">
<use xlink:href="#path22_stroke" transform="matrix(1 -2.44753e-16 2.45106e-16 1 148 1362)"/>
</g>
<g id="Line 5">
<use xlink:href="#path21_stroke" transform="matrix(1 -2.44929e-16 2.44929e-16 1 148.881 1333)"/>
</g>
<g id="Line 5">
<use xlink:href="#path21_stroke" transform="matrix(1 -2.44929e-16 2.44929e-16 1 147.881 1305)"/>
</g>
<g id="Arrow 5">
<use xlink:href="#path23_stroke" transform="matrix(0.707107 -0.707107 0.707107 0.707107 153 1273)" fill="#F2994A"/>
</g>
<g id="2">
<use xlink:href="#path5_fill" transform="translate(207 1279)"/>
</g>
<g id="-2">
<use xlink:href="#path6_fill" transform="translate(89 1279)"/>
</g>
<g id="2">
<use xlink:href="#path5_fill" transform="translate(159 1207)"/>
</g>
<g id="-2">
<use xlink:href="#path6_fill" transform="translate(157.881 1325.24)"/>
</g>
<g id="Same magnitude, different direction">
<use xlink:href="#path24_fill" transform="translate(-452 905)" fill="#2F80ED"/>
<use xlink:href="#path25_fill" transform="translate(-452 905)"/>
</g>
<g id="Same direction, different magnitude">
<use xlink:href="#path26_fill" transform="translate(-450 1157)" fill="#F2994A"/>
<use xlink:href="#path27_fill" transform="translate(-450 1157)"/>
</g>
<g id="Component">
<g id="Line 2">
<use xlink:href="#path28_stroke" transform="matrix(6.12323e-17 1 -1 6.12323e-17 -272 906)" fill="#333333"/>
</g>
<g id="Line 3">
<use xlink:href="#path21_stroke" transform="translate(-272 906)" fill="#333333"/>
</g>
<g id="Line 3">
<use xlink:href="#path21_stroke" transform="translate(-272 957)" fill="#333333"/>
</g>
</g>
<g id="Component">
<g id="Line 2">
<use xlink:href="#path29_stroke" transform="matrix(-1.30708e-16 -1 1 -2.58169e-16 -246 957)"/>
</g>
<g id="Line 3">
<use xlink:href="#path21_stroke" transform="matrix(-1 1.72113e-16 -8.71383e-17 -1 -246 957)"/>
</g>
<g id="Line 3">
<use xlink:href="#path21_stroke" transform="matrix(-1 1.22465e-16 -1.22465e-16 -1 -246 905)"/>
</g>
</g>
<g id="2 3">
<use xlink:href="#path30_fill" transform="translate(-264 912)"/>
</g>
<g id="Component">
<g id="Line 2">
<use xlink:href="#path28_stroke" transform="matrix(6.12323e-17 1 -1 6.12323e-17 -3 906)" fill="#333333"/>
</g>
<g id="Line 3">
<use xlink:href="#path21_stroke" transform="translate(-3 906)" fill="#333333"/>
</g>
<g id="Line 3">
<use xlink:href="#path21_stroke" transform="translate(-3 957)" fill="#333333"/>
</g>
</g>
<g id="Component">
<g id="Line 2">
<use xlink:href="#path29_stroke" transform="matrix(-1.30708e-16 -1 1 -2.58169e-16 23 957)"/>
</g>
<g id="Line 3">
<use xlink:href="#path21_stroke" transform="matrix(-1 1.72113e-16 -8.71383e-17 -1 23 957)"/>
</g>
<g id="Line 3">
<use xlink:href="#path21_stroke" transform="matrix(-1 1.22465e-16 -1.22465e-16 -1 23 905)"/>
</g>
</g>
<g id="-2 -3">
<use xlink:href="#path31_fill" transform="translate(3 912)"/>
</g>
<g id="Component">
<g id="Line 2">
<use xlink:href="#path28_stroke" transform="matrix(6.12323e-17 1 -1 6.12323e-17 -3 1159)" fill="#333333"/>
</g>
<g id="Line 3">
<use xlink:href="#path21_stroke" transform="translate(-3 1159)" fill="#333333"/>
</g>
<g id="Line 3">
<use xlink:href="#path21_stroke" transform="translate(-3 1210)" fill="#333333"/>
</g>
</g>
<g id="Component">
<g id="Line 2">
<use xlink:href="#path29_stroke" transform="matrix(-1.30708e-16 -1 1 -2.58169e-16 23 1210)"/>
</g>
<g id="Line 3">
<use xlink:href="#path21_stroke" transform="matrix(-1 1.72113e-16 -8.71383e-17 -1 23 1210)"/>
</g>
<g id="Line 3">
<use xlink:href="#path21_stroke" transform="matrix(-1 1.22465e-16 -1.22465e-16 -1 23 1158)"/>
</g>
</g>
<g id="2 2">
<use xlink:href="#path32_fill" transform="translate(5 1165)"/>
</g>
<g id="Component">
<g id="Line 2">
<use xlink:href="#path28_stroke" transform="matrix(6.12323e-17 1 -1 6.12323e-17 -269 1157)" fill="#333333"/>
</g>
<g id="Line 3">
<use xlink:href="#path21_stroke" transform="translate(-269 1157)" fill="#333333"/>
</g>
<g id="Line 3">
<use xlink:href="#path21_stroke" transform="translate(-269 1208)" fill="#333333"/>
</g>
</g>
<g id="Component">
<g id="Line 2">
<use xlink:href="#path29_stroke" transform="matrix(-1.30708e-16 -1 1 -2.58169e-16 -243 1208)"/>
</g>
<g id="Line 3">
<use xlink:href="#path21_stroke" transform="matrix(-1 1.72113e-16 -8.71383e-17 -1 -243 1208)"/>
</g>
<g id="Line 3">
<use xlink:href="#path21_stroke" transform="matrix(-1 1.22465e-16 -1.22465e-16 -1 -243 1156)"/>
</g>
</g>
<g id="1 1">
<use xlink:href="#path33_fill" transform="translate(-261 1163)"/>
</g>
<g id="Line 5">
<use xlink:href="#path3_stroke" transform="matrix(1 -2.45277e-16 2.44583e-16 1 -131 1094)"/>
</g>
</g>
</g>
<defs>
<path id="path0_stroke" d="M 0 0L 111.538 0L 111.538 -1L 0 -1L 0 0Z"/>
<path id="path1_stroke" d="M 0 0L 109.46 0L 109.46 -1L 0 -1L 0 0Z"/>
<path id="path2_stroke" d="M 0 0L 5.76923 0L 5.76923 -1L 0 -1L 0 0Z"/>
<path id="path3_stroke" d="M 0 0L 5.76106 0L 5.76106 -1L 0 -1L 0 0Z"/>
<path id="path4_stroke" d="M 99.1671 0.53033C 99.46 0.237437 99.46 -0.237437 99.1671 -0.53033L 94.3942 -5.3033C 94.1013 -5.59619 93.6264 -5.59619 93.3335 -5.3033C 93.0406 -5.01041 93.0406 -4.53553 93.3335 -4.24264L 97.5762 0L 93.3335 4.24264C 93.0406 4.53553 93.0406 5.01041 93.3335 5.3033C 93.6264 5.59619 94.1013 5.59619 94.3942 5.3033L 99.1671 0.53033ZM 0 0.75L 98.6368 0.75L 98.6368 -0.75L 0 -0.75L 0 0.75Z"/>
<path id="path5_fill" d="M 7.34863 13L 0.827148 13L 0.827148 12.0908L 4.27246 8.2627C 4.78288 7.68392 5.13379 7.21452 5.3252 6.85449C 5.52116 6.48991 5.61914 6.11393 5.61914 5.72656C 5.61914 5.20703 5.46191 4.78092 5.14746 4.44824C 4.83301 4.11556 4.41374 3.94922 3.88965 3.94922C 3.26074 3.94922 2.77083 4.12923 2.41992 4.48926C 2.07357 4.84473 1.90039 5.34147 1.90039 5.97949L 0.635742 5.97949C 0.635742 5.06348 0.929688 4.32292 1.51758 3.75781C 2.11003 3.19271 2.90072 2.91016 3.88965 2.91016C 4.81478 2.91016 5.54622 3.15397 6.08398 3.6416C 6.62174 4.12467 6.89062 4.76953 6.89062 5.57617C 6.89062 6.55599 6.26628 7.72266 5.01758 9.07617L 2.35156 11.9678L 7.34863 11.9678L 7.34863 13Z"/>
<path id="path6_fill" d="M 3.58887 9.28809L 0.25293 9.28809L 0.25293 8.25586L 3.58887 8.25586L 3.58887 9.28809ZM 11.2178 13L 4.69629 13L 4.69629 12.0908L 8.1416 8.2627C 8.65202 7.68392 9.00293 7.21452 9.19434 6.85449C 9.3903 6.48991 9.48828 6.11393 9.48828 5.72656C 9.48828 5.20703 9.33105 4.78092 9.0166 4.44824C 8.70215 4.11556 8.28288 3.94922 7.75879 3.94922C 7.12988 3.94922 6.63997 4.12923 6.28906 4.48926C 5.94271 4.84473 5.76953 5.34147 5.76953 5.97949L 4.50488 5.97949C 4.50488 5.06348 4.79883 4.32292 5.38672 3.75781C 5.97917 3.19271 6.76986 2.91016 7.75879 2.91016C 8.68392 2.91016 9.41536 3.15397 9.95312 3.6416C 10.4909 4.12467 10.7598 4.76953 10.7598 5.57617C 10.7598 6.55599 10.1354 7.72266 8.88672 9.07617L 6.2207 11.9678L 11.2178 11.9678L 11.2178 13Z"/>
<path id="path7_stroke" d="M 0 0L 111.538 0L 111.538 -1L 0 -1L 0 0Z"/>
<path id="path8_stroke" d="M 0 -5.55112e-17L 109.965 -5.55112e-17L 109.965 -1L 0 -1L 0 -5.55112e-17Z"/>
<path id="path9_stroke" d="M 0 0L 5.78761 0L 5.78761 -1L 0 -1L 0 0Z"/>
<path id="path10_stroke" d="M 0 0L 4.85841 0L 4.85841 -1L 0 -1L 0 0Z"/>
<path id="path11_stroke" d="M 100.918 0.53033C 101.211 0.237437 101.211 -0.237437 100.918 -0.53033L 96.145 -5.3033C 95.8521 -5.59619 95.3772 -5.59619 95.0843 -5.3033C 94.7914 -5.01041 94.7914 -4.53553 95.0843 -4.24264L 99.327 0L 95.0843 4.24264C 94.7914 4.53553 94.7914 5.01041 95.0843 5.3033C 95.3772 5.59619 95.8521 5.59619 96.145 5.3033L 100.918 0.53033ZM 0 0.75L 100.388 0.75L 100.388 -0.75L 0 -0.75L 0 0.75Z"/>
<path id="path12_stroke" d="M 0 0L 118.974 0L 118.974 -1L 0 -1L 0 0Z"/>
<path id="path13_stroke" d="M 0 0L 117.027 0L 117.027 -1L 0 -1L 0 0Z"/>
<path id="path14_stroke" d="M 0 0L 6.15385 0L 6.15385 -1L 0 -1L 0 0Z"/>
<path id="path15_stroke" d="M 0 0L 5.51282 0L 5.51282 -1L 0 -1L 0 0Z"/>
<path id="path16_stroke" d="M 0 0L 6.15929 0L 6.15929 -1L 0 -1L 0 0Z"/>
<path id="path17_stroke" d="M 38.2594 0.53033C 38.5523 0.237437 38.5523 -0.237437 38.2594 -0.53033L 33.4864 -5.3033C 33.1935 -5.59619 32.7186 -5.59619 32.4257 -5.3033C 32.1329 -5.01041 32.1329 -4.53553 32.4257 -4.24264L 36.6684 0L 32.4257 4.24264C 32.1329 4.53553 32.1329 5.01041 32.4257 5.3033C 32.7186 5.59619 33.1935 5.59619 33.4864 5.3033L 38.2594 0.53033ZM 0 0.75L 37.729 0.75L 37.729 -0.75L 0 -0.75L 0 0.75Z"/>
<path id="path18_stroke" d="M 0 0L 116 0L 116 -1L 0 -1L 0 0Z"/>
<path id="path19_stroke" d="M 0 0L 114 0L 114 -1L 0 -1L 0 0Z"/>
<path id="path20_stroke" d="M 0 0L 6 0L 6 -1L 0 -1L 0 0Z"/>
<path id="path21_stroke" d="M 0 0L 6 0L 6 -1L 0 -1L 0 0Z"/>
<path id="path22_stroke" d="M 0 0L 5.36283 0L 5.36283 -1L 0 -1L 0 0Z"/>
<path id="path23_stroke" d="M 82.5547 0.53033C 82.8476 0.237437 82.8476 -0.237437 82.5547 -0.53033L 77.7818 -5.3033C 77.4889 -5.59619 77.014 -5.59619 76.7211 -5.3033C 76.4282 -5.01041 76.4282 -4.53553 76.7211 -4.24264L 80.9637 0L 76.7211 4.24264C 76.4282 4.53553 76.4282 5.01041 76.7211 5.3033C 77.014 5.59619 77.4889 5.59619 77.7818 5.3033L 82.5547 0.53033ZM 0 0.75L 82.0244 0.75L 82.0244 -0.75L 0 -0.75L 0 0.75Z"/>
<path id="path24_fill" d="M 47.1406 6.54688L 47.1797 7.48438C 47.7995 6.75521 48.6354 6.39062 49.6875 6.39062C 50.8698 6.39062 51.6745 6.84375 52.1016 7.75C 52.3828 7.34375 52.7474 7.01562 53.1953 6.76562C 53.6484 6.51562 54.1823 6.39062 54.7969 6.39062C 56.651 6.39062 57.5938 7.3724 57.625 9.33594L 57.625 15L 56.1797 15L 56.1797 9.42188C 56.1797 8.81771 56.0417 8.36719 55.7656 8.07031C 55.4896 7.76823 55.026 7.61719 54.375 7.61719C 53.8385 7.61719 53.3932 7.77865 53.0391 8.10156C 52.6849 8.41927 52.4792 8.84896 52.4219 9.39062L 52.4219 15L 50.9688 15L 50.9688 9.46094C 50.9688 8.23177 50.3672 7.61719 49.1641 7.61719C 48.2161 7.61719 47.5677 8.02083 47.2188 8.82812L 47.2188 15L 45.7734 15L 45.7734 6.54688L 47.1406 6.54688ZM 65.0312 15C 64.9479 14.8333 64.8802 14.5365 64.8281 14.1094C 64.1562 14.8073 63.3542 15.1562 62.4219 15.1562C 61.5885 15.1562 60.9036 14.9219 60.3672 14.4531C 59.8359 13.9792 59.5703 13.3802 59.5703 12.6562C 59.5703 11.776 59.9036 11.0938 60.5703 10.6094C 61.2422 10.1198 62.1849 9.875 63.3984 9.875L 64.8047 9.875L 64.8047 9.21094C 64.8047 8.70573 64.6536 8.30469 64.3516 8.00781C 64.0495 7.70573 63.6042 7.55469 63.0156 7.55469C 62.5 7.55469 62.0677 7.6849 61.7188 7.94531C 61.3698 8.20573 61.1953 8.52083 61.1953 8.89062L 59.7422 8.89062C 59.7422 8.46875 59.8906 8.0625 60.1875 7.67188C 60.4896 7.27604 60.8958 6.96354 61.4062 6.73438C 61.9219 6.50521 62.487 6.39062 63.1016 6.39062C 64.0755 6.39062 64.8385 6.63542 65.3906 7.125C 65.9427 7.60938 66.2292 8.27865 66.25 9.13281L 66.25 13.0234C 66.25 13.7995 66.349 14.4167 66.5469 14.875L 66.5469 15L 65.0312 15ZM 62.6328 13.8984C 63.0859 13.8984 63.5156 13.7812 63.9219 13.5469C 64.3281 13.3125 64.6224 13.0078 64.8047 12.6328L 64.8047 10.8984L 63.6719 10.8984C 61.901 10.8984 61.0156 11.4167 61.0156 12.4531C 61.0156 12.9062 61.1667 13.2604 61.4688 13.5156C 61.7708 13.7708 62.1589 13.8984 62.6328 13.8984ZM 68.1719 10.7031C 68.1719 9.38542 68.4766 8.33854 69.0859 7.5625C 69.6953 6.78125 70.5026 6.39062 71.5078 6.39062C 72.5391 6.39062 73.3438 6.75521 73.9219 7.48438L 73.9922 6.54688L 75.3125 6.54688L 75.3125 14.7969C 75.3125 15.8906 74.987 16.7526 74.3359 17.3828C 73.6901 18.013 72.8203 18.3281 71.7266 18.3281C 71.1172 18.3281 70.5208 18.1979 69.9375 17.9375C 69.3542 17.6771 68.9089 17.3203 68.6016 16.8672L 69.3516 16C 69.9714 16.7656 70.7292 17.1484 71.625 17.1484C 72.3281 17.1484 72.875 16.9505 73.2656 16.5547C 73.6615 16.1589 73.8594 15.6016 73.8594 14.8828L 73.8594 14.1562C 73.2812 14.8229 72.4922 15.1562 71.4922 15.1562C 70.5026 15.1562 69.7005 14.7578 69.0859 13.9609C 68.4766 13.1641 68.1719 12.0781 68.1719 10.7031ZM 69.625 10.8672C 69.625 11.8203 69.8203 12.5703 70.2109 13.1172C 70.6016 13.6589 71.1484 13.9297 71.8516 13.9297C 72.763 13.9297 73.4323 13.5156 73.8594 12.6875L 73.8594 8.82812C 73.4167 8.02083 72.7526 7.61719 71.8672 7.61719C 71.1641 7.61719 70.6146 7.89062 70.2188 8.4375C 69.8229 8.98438 69.625 9.79427 69.625 10.8672ZM 78.8672 6.54688L 78.9141 7.60938C 79.5599 6.79688 80.4036 6.39062 81.4453 6.39062C 83.2318 6.39062 84.1328 7.39844 84.1484 9.41406L 84.1484 15L 82.7031 15L 82.7031 9.40625C 82.6979 8.79688 82.5573 8.34635 82.2812 8.05469C 82.0104 7.76302 81.5859 7.61719 81.0078 7.61719C 80.5391 7.61719 80.1276 7.74219 79.7734 7.99219C 79.4193 8.24219 79.1432 8.57031 78.9453 8.97656L 78.9453 15L 77.5 15L 77.5 6.54688L 78.8672 6.54688ZM 87.8984 15L 86.4531 15L 86.4531 6.54688L 87.8984 6.54688L 87.8984 15ZM 86.3359 4.30469C 86.3359 4.07031 86.4062 3.8724 86.5469 3.71094C 86.6927 3.54948 86.9062 3.46875 87.1875 3.46875C 87.4688 3.46875 87.6823 3.54948 87.8281 3.71094C 87.974 3.8724 88.0469 4.07031 88.0469 4.30469C 88.0469 4.53906 87.974 4.73438 87.8281 4.89062C 87.6823 5.04688 87.4688 5.125 87.1875 5.125C 86.9062 5.125 86.6927 5.04688 86.5469 4.89062C 86.4062 4.73438 86.3359 4.53906 86.3359 4.30469ZM 92.1797 4.5L 92.1797 6.54688L 93.7578 6.54688L 93.7578 7.66406L 92.1797 7.66406L 92.1797 12.9062C 92.1797 13.2448 92.25 13.5 92.3906 13.6719C 92.5312 13.8385 92.7708 13.9219 93.1094 13.9219C 93.276 13.9219 93.5052 13.8906 93.7969 13.8281L 93.7969 15C 93.4167 15.1042 93.0469 15.1562 92.6875 15.1562C 92.0417 15.1562 91.5547 14.9609 91.2266 14.5703C 90.8984 14.1797 90.7344 13.625 90.7344 12.9062L 90.7344 7.66406L 89.1953 7.66406L 89.1953 6.54688L 90.7344 6.54688L 90.7344 4.5L 92.1797 4.5ZM 100.672 14.1641C 100.109 14.8255 99.2839 15.1562 98.1953 15.1562C 97.2943 15.1562 96.6068 14.8958 96.1328 14.375C 95.6641 13.849 95.4271 13.0729 95.4219 12.0469L 95.4219 6.54688L 96.8672 6.54688L 96.8672 12.0078C 96.8672 13.2891 97.388 13.9297 98.4297 13.9297C 99.5339 13.9297 100.268 13.5182 100.633 12.6953L 100.633 6.54688L 102.078 6.54688L 102.078 15L 100.703 15L 100.672 14.1641ZM 103.93 10.7031C 103.93 9.40625 104.237 8.36458 104.852 7.57812C 105.466 6.78646 106.271 6.39062 107.266 6.39062C 108.255 6.39062 109.039 6.72917 109.617 7.40625L 109.617 3L 111.062 3L 111.062 15L 109.734 15L 109.664 14.0938C 109.086 14.8021 108.281 15.1562 107.25 15.1562C 106.271 15.1562 105.471 14.7552 104.852 13.9531C 104.237 13.151 103.93 12.1042 103.93 10.8125L 103.93 10.7031ZM 105.375 10.8672C 105.375 11.8255 105.573 12.5755 105.969 13.1172C 106.365 13.6589 106.911 13.9297 107.609 13.9297C 108.526 13.9297 109.195 13.5182 109.617 12.6953L 109.617 8.8125C 109.185 8.01562 108.521 7.61719 107.625 7.61719C 106.917 7.61719 106.365 7.89062 105.969 8.4375C 105.573 8.98438 105.375 9.79427 105.375 10.8672ZM 116.82 15.1562C 115.674 15.1562 114.742 14.7812 114.023 14.0312C 113.305 13.276 112.945 12.2682 112.945 11.0078L 112.945 10.7422C 112.945 9.90365 113.104 9.15625 113.422 8.5C 113.745 7.83854 114.193 7.32292 114.766 6.95312C 115.344 6.57812 115.969 6.39062 116.641 6.39062C 117.74 6.39062 118.594 6.7526 119.203 7.47656C 119.812 8.20052 120.117 9.23698 120.117 10.5859L 120.117 11.1875L 114.391 11.1875C 114.411 12.0208 114.654 12.6953 115.117 13.2109C 115.586 13.7214 116.18 13.9766 116.898 13.9766C 117.409 13.9766 117.841 13.8724 118.195 13.6641C 118.549 13.4557 118.859 13.1797 119.125 12.8359L 120.008 13.5234C 119.299 14.612 118.237 15.1562 116.82 15.1562ZM 116.641 7.57812C 116.057 7.57812 115.568 7.79167 115.172 8.21875C 114.776 8.64062 114.531 9.23438 114.438 10L 118.672 10L 118.672 9.89062C 118.63 9.15625 118.432 8.58854 118.078 8.1875C 117.724 7.78125 117.245 7.57812 116.641 7.57812Z"/>
<path id="path25_fill" d="M 4.67188 9.92969C 3.38542 9.5599 2.44792 9.10677 1.85938 8.57031C 1.27604 8.02865 0.984375 7.36198 0.984375 6.57031C 0.984375 5.67448 1.34115 4.9349 2.05469 4.35156C 2.77344 3.76302 3.70573 3.46875 4.85156 3.46875C 5.63281 3.46875 6.32812 3.61979 6.9375 3.92188C 7.55208 4.22396 8.02604 4.64062 8.35938 5.17188C 8.69792 5.70312 8.86719 6.28385 8.86719 6.91406L 7.35938 6.91406C 7.35938 6.22656 7.14062 5.6875 6.70312 5.29688C 6.26562 4.90104 5.64844 4.70312 4.85156 4.70312C 4.11198 4.70312 3.53385 4.86719 3.11719 5.19531C 2.70573 5.51823 2.5 5.96875 2.5 6.54688C 2.5 7.01042 2.69531 7.40365 3.08594 7.72656C 3.48177 8.04427 4.15104 8.33594 5.09375 8.60156C 6.04167 8.86719 6.78125 9.16146 7.3125 9.48438C 7.84896 9.80208 8.24479 10.1745 8.5 10.6016C 8.76042 11.0286 8.89062 11.5312 8.89062 12.1094C 8.89062 13.0312 8.53125 13.7708 7.8125 14.3281C 7.09375 14.8802 6.13281 15.1562 4.92969 15.1562C 4.14844 15.1562 3.41927 15.0078 2.74219 14.7109C 2.0651 14.4089 1.54167 13.9974 1.17188 13.4766C 0.807292 12.9557 0.625 12.3646 0.625 11.7031L 2.13281 11.7031C 2.13281 12.3906 2.38542 12.9349 2.89062 13.3359C 3.40104 13.7318 4.08073 13.9297 4.92969 13.9297C 5.72135 13.9297 6.32812 13.7682 6.75 13.4453C 7.17188 13.1224 7.38281 12.6823 7.38281 12.125C 7.38281 11.5677 7.1875 11.138 6.79688 10.8359C 6.40625 10.5286 5.69792 10.2266 4.67188 9.92969ZM 15.8125 15C 15.7292 14.8333 15.6615 14.5365 15.6094 14.1094C 14.9375 14.8073 14.1354 15.1562 13.2031 15.1562C 12.3698 15.1562 11.6849 14.9219 11.1484 14.4531C 10.6172 13.9792 10.3516 13.3802 10.3516 12.6562C 10.3516 11.776 10.6849 11.0938 11.3516 10.6094C 12.0234 10.1198 12.9661 9.875 14.1797 9.875L 15.5859 9.875L 15.5859 9.21094C 15.5859 8.70573 15.4349 8.30469 15.1328 8.00781C 14.8307 7.70573 14.3854 7.55469 13.7969 7.55469C 13.2812 7.55469 12.849 7.6849 12.5 7.94531C 12.151 8.20573 11.9766 8.52083 11.9766 8.89062L 10.5234 8.89062C 10.5234 8.46875 10.6719 8.0625 10.9688 7.67188C 11.2708 7.27604 11.6771 6.96354 12.1875 6.73438C 12.7031 6.50521 13.2682 6.39062 13.8828 6.39062C 14.8568 6.39062 15.6198 6.63542 16.1719 7.125C 16.724 7.60938 17.0104 8.27865 17.0312 9.13281L 17.0312 13.0234C 17.0312 13.7995 17.1302 14.4167 17.3281 14.875L 17.3281 15L 15.8125 15ZM 13.4141 13.8984C 13.8672 13.8984 14.2969 13.7812 14.7031 13.5469C 15.1094 13.3125 15.4036 13.0078 15.5859 12.6328L 15.5859 10.8984L 14.4531 10.8984C 12.6823 10.8984 11.7969 11.4167 11.7969 12.4531C 11.7969 12.9062 11.9479 13.2604 12.25 13.5156C 12.5521 13.7708 12.9401 13.8984 13.4141 13.8984ZM 20.6562 6.54688L 20.6953 7.48438C 21.3151 6.75521 22.151 6.39062 23.2031 6.39062C 24.3854 6.39062 25.1901 6.84375 25.6172 7.75C 25.8984 7.34375 26.263 7.01562 26.7109 6.76562C 27.1641 6.51562 27.6979 6.39062 28.3125 6.39062C 30.1667 6.39062 31.1094 7.3724 31.1406 9.33594L 31.1406 15L 29.6953 15L 29.6953 9.42188C 29.6953 8.81771 29.5573 8.36719 29.2812 8.07031C 29.0052 7.76823 28.5417 7.61719 27.8906 7.61719C 27.3542 7.61719 26.9089 7.77865 26.5547 8.10156C 26.2005 8.41927 25.9948 8.84896 25.9375 9.39062L 25.9375 15L 24.4844 15L 24.4844 9.46094C 24.4844 8.23177 23.8828 7.61719 22.6797 7.61719C 21.7318 7.61719 21.0833 8.02083 20.7344 8.82812L 20.7344 15L 19.2891 15L 19.2891 6.54688L 20.6562 6.54688ZM 36.8359 15.1562C 35.6901 15.1562 34.7578 14.7812 34.0391 14.0312C 33.3203 13.276 32.9609 12.2682 32.9609 11.0078L 32.9609 10.7422C 32.9609 9.90365 33.1198 9.15625 33.4375 8.5C 33.7604 7.83854 34.2083 7.32292 34.7812 6.95312C 35.3594 6.57812 35.9844 6.39062 36.6562 6.39062C 37.7552 6.39062 38.6094 6.7526 39.2188 7.47656C 39.8281 8.20052 40.1328 9.23698 40.1328 10.5859L 40.1328 11.1875L 34.4062 11.1875C 34.4271 12.0208 34.6693 12.6953 35.1328 13.2109C 35.6016 13.7214 36.1953 13.9766 36.9141 13.9766C 37.4245 13.9766 37.8568 13.8724 38.2109 13.6641C 38.5651 13.4557 38.875 13.1797 39.1406 12.8359L 40.0234 13.5234C 39.3151 14.612 38.2526 15.1562 36.8359 15.1562ZM 36.6562 7.57812C 36.0729 7.57812 35.5833 7.79167 35.1875 8.21875C 34.7917 8.64062 34.5469 9.23438 34.4531 10L 38.6875 10L 38.6875 9.89062C 38.6458 9.15625 38.4479 8.58854 38.0938 8.1875C 37.7396 7.78125 37.2604 7.57812 36.6562 7.57812ZM 121.75 17.2656L 120.93 16.7031C 121.419 16.0208 121.674 15.3177 121.695 14.5938L 121.695 13.2891L 123.109 13.2891L 123.109 14.4219C 123.109 14.9479 122.979 15.474 122.719 16C 122.464 16.526 122.141 16.9479 121.75 17.2656ZM 0.742188 29.7031C 0.742188 28.4062 1.04948 27.3646 1.66406 26.5781C 2.27865 25.7865 3.08333 25.3906 4.07812 25.3906C 5.06771 25.3906 5.85156 25.7292 6.42969 26.4062L 6.42969 22L 7.875 22L 7.875 34L 6.54688 34L 6.47656 33.0938C 5.89844 33.8021 5.09375 34.1562 4.0625 34.1562C 3.08333 34.1562 2.28385 33.7552 1.66406 32.9531C 1.04948 32.151 0.742188 31.1042 0.742188 29.8125L 0.742188 29.7031ZM 2.1875 29.8672C 2.1875 30.8255 2.38542 31.5755 2.78125 32.1172C 3.17708 32.6589 3.72396 32.9297 4.42188 32.9297C 5.33854 32.9297 6.00781 32.5182 6.42969 31.6953L 6.42969 27.8125C 5.9974 27.0156 5.33333 26.6172 4.4375 26.6172C 3.72917 26.6172 3.17708 26.8906 2.78125 27.4375C 2.38542 27.9844 2.1875 28.7943 2.1875 29.8672ZM 11.6953 34L 10.25 34L 10.25 25.5469L 11.6953 25.5469L 11.6953 34ZM 10.1328 23.3047C 10.1328 23.0703 10.2031 22.8724 10.3438 22.7109C 10.4896 22.5495 10.7031 22.4688 10.9844 22.4688C 11.2656 22.4688 11.4792 22.5495 11.625 22.7109C 11.7708 22.8724 11.8438 23.0703 11.8438 23.3047C 11.8438 23.5391 11.7708 23.7344 11.625 23.8906C 11.4792 24.0469 11.2656 24.125 10.9844 24.125C 10.7031 24.125 10.4896 24.0469 10.3438 23.8906C 10.2031 23.7344 10.1328 23.5391 10.1328 23.3047ZM 14.7266 34L 14.7266 26.6641L 13.3906 26.6641L 13.3906 25.5469L 14.7266 25.5469L 14.7266 24.6797C 14.7266 23.7734 14.9688 23.0729 15.4531 22.5781C 15.9375 22.0833 16.6224 21.8359 17.5078 21.8359C 17.8411 21.8359 18.1719 21.8802 18.5 21.9688L 18.4219 23.1406C 18.1771 23.0938 17.9167 23.0703 17.6406 23.0703C 17.1719 23.0703 16.8099 23.2083 16.5547 23.4844C 16.2995 23.7552 16.1719 24.1458 16.1719 24.6562L 16.1719 25.5469L 17.9766 25.5469L 17.9766 26.6641L 16.1719 26.6641L 16.1719 34L 14.7266 34ZM 20.2891 34L 20.2891 26.6641L 18.9531 26.6641L 18.9531 25.5469L 20.2891 25.5469L 20.2891 24.6797C 20.2891 23.7734 20.5312 23.0729 21.0156 22.5781C 21.5 22.0833 22.1849 21.8359 23.0703 21.8359C 23.4036 21.8359 23.7344 21.8802 24.0625 21.9688L 23.9844 23.1406C 23.7396 23.0938 23.4792 23.0703 23.2031 23.0703C 22.7344 23.0703 22.3724 23.2083 22.1172 23.4844C 21.862 23.7552 21.7344 24.1458 21.7344 24.6562L 21.7344 25.5469L 23.5391 25.5469L 23.5391 26.6641L 21.7344 26.6641L 21.7344 34L 20.2891 34ZM 28.4609 34.1562C 27.3151 34.1562 26.3828 33.7812 25.6641 33.0312C 24.9453 32.276 24.5859 31.2682 24.5859 30.0078L 24.5859 29.7422C 24.5859 28.9036 24.7448 28.1562 25.0625 27.5C 25.3854 26.8385 25.8333 26.3229 26.4062 25.9531C 26.9844 25.5781 27.6094 25.3906 28.2812 25.3906C 29.3802 25.3906 30.2344 25.7526 30.8438 26.4766C 31.4531 27.2005 31.7578 28.237 31.7578 29.5859L 31.7578 30.1875L 26.0312 30.1875C 26.0521 31.0208 26.2943 31.6953 26.7578 32.2109C 27.2266 32.7214 27.8203 32.9766 28.5391 32.9766C 29.0495 32.9766 29.4818 32.8724 29.8359 32.6641C 30.1901 32.4557 30.5 32.1797 30.7656 31.8359L 31.6484 32.5234C 30.9401 33.612 29.8776 34.1562 28.4609 34.1562ZM 28.2812 26.5781C 27.6979 26.5781 27.2083 26.7917 26.8125 27.2188C 26.4167 27.6406 26.1719 28.2344 26.0781 29L 30.3125 29L 30.3125 28.8906C 30.2708 28.1562 30.0729 27.5885 29.7188 27.1875C 29.3646 26.7812 28.8854 26.5781 28.2812 26.5781ZM 37.5234 26.8438C 37.3047 26.8073 37.0677 26.7891 36.8125 26.7891C 35.8646 26.7891 35.2214 27.1927 34.8828 28L 34.8828 34L 33.4375 34L 33.4375 25.5469L 34.8438 25.5469L 34.8672 26.5234C 35.3411 25.7682 36.013 25.3906 36.8828 25.3906C 37.1641 25.3906 37.3776 25.4271 37.5234 25.5L 37.5234 26.8438ZM 42.2109 34.1562C 41.0651 34.1562 40.1328 33.7812 39.4141 33.0312C 38.6953 32.276 38.3359 31.2682 38.3359 30.0078L 38.3359 29.7422C 38.3359 28.9036 38.4948 28.1562 38.8125 27.5C 39.1354 26.8385 39.5833 26.3229 40.1562 25.9531C 40.7344 25.5781 41.3594 25.3906 42.0312 25.3906C 43.1302 25.3906 43.9844 25.7526 44.5938 26.4766C 45.2031 27.2005 45.5078 28.237 45.5078 29.5859L 45.5078 30.1875L 39.7812 30.1875C 39.8021 31.0208 40.0443 31.6953 40.5078 32.2109C 40.9766 32.7214 41.5703 32.9766 42.2891 32.9766C 42.7995 32.9766 43.2318 32.8724 43.5859 32.6641C 43.9401 32.4557 44.25 32.1797 44.5156 31.8359L 45.3984 32.5234C 44.6901 33.612 43.6276 34.1562 42.2109 34.1562ZM 42.0312 26.5781C 41.4479 26.5781 40.9583 26.7917 40.5625 27.2188C 40.1667 27.6406 39.9219 28.2344 39.8281 29L 44.0625 29L 44.0625 28.8906C 44.0208 28.1562 43.8229 27.5885 43.4688 27.1875C 43.1146 26.7812 42.6354 26.5781 42.0312 26.5781ZM 48.5547 25.5469L 48.6016 26.6094C 49.2474 25.7969 50.0911 25.3906 51.1328 25.3906C 52.9193 25.3906 53.8203 26.3984 53.8359 28.4141L 53.8359 34L 52.3906 34L 52.3906 28.4062C 52.3854 27.7969 52.2448 27.3464 51.9688 27.0547C 51.6979 26.763 51.2734 26.6172 50.6953 26.6172C 50.2266 26.6172 49.8151 26.7422 49.4609 26.9922C 49.1068 27.2422 48.8307 27.5703 48.6328 27.9766L 48.6328 34L 47.1875 34L 47.1875 25.5469L 48.5547 25.5469ZM 57.9766 23.5L 57.9766 25.5469L 59.5547 25.5469L 59.5547 26.6641L 57.9766 26.6641L 57.9766 31.9062C 57.9766 32.2448 58.0469 32.5 58.1875 32.6719C 58.3281 32.8385 58.5677 32.9219 58.9062 32.9219C 59.0729 32.9219 59.3021 32.8906 59.5938 32.8281L 59.5938 34C 59.2135 34.1042 58.8438 34.1562 58.4844 34.1562C 57.8385 34.1562 57.3516 33.9609 57.0234 33.5703C 56.6953 33.1797 56.5312 32.625 56.5312 31.9062L 56.5312 26.6641L 54.9922 26.6641L 54.9922 25.5469L 56.5312 25.5469L 56.5312 23.5L 57.9766 23.5ZM 64.8672 29.7031C 64.8672 28.4062 65.1745 27.3646 65.7891 26.5781C 66.4036 25.7865 67.2083 25.3906 68.2031 25.3906C 69.1927 25.3906 69.9766 25.7292 70.5547 26.4062L 70.5547 22L 72 22L 72 34L 70.6719 34L 70.6016 33.0938C 70.0234 33.8021 69.2188 34.1562 68.1875 34.1562C 67.2083 34.1562 66.4089 33.7552 65.7891 32.9531C 65.1745 32.151 64.8672 31.1042 64.8672 29.8125L 64.8672 29.7031ZM 66.3125 29.8672C 66.3125 30.8255 66.5104 31.5755 66.9062 32.1172C 67.3021 32.6589 67.849 32.9297 68.5469 32.9297C 69.4635 32.9297 70.1328 32.5182 70.5547 31.6953L 70.5547 27.8125C 70.1224 27.0156 69.4583 26.6172 68.5625 26.6172C 67.8542 26.6172 67.3021 26.8906 66.9062 27.4375C 66.5104 27.9844 66.3125 28.7943 66.3125 29.8672ZM 75.8203 34L 74.375 34L 74.375 25.5469L 75.8203 25.5469L 75.8203 34ZM 74.2578 23.3047C 74.2578 23.0703 74.3281 22.8724 74.4688 22.7109C 74.6146 22.5495 74.8281 22.4688 75.1094 22.4688C 75.3906 22.4688 75.6042 22.5495 75.75 22.7109C 75.8958 22.8724 75.9688 23.0703 75.9688 23.3047C 75.9688 23.5391 75.8958 23.7344 75.75 23.8906C 75.6042 24.0469 75.3906 24.125 75.1094 24.125C 74.8281 24.125 74.6146 24.0469 74.4688 23.8906C 74.3281 23.7344 74.2578 23.5391 74.2578 23.3047ZM 82.2266 26.8438C 82.0078 26.8073 81.7708 26.7891 81.5156 26.7891C 80.5677 26.7891 79.9245 27.1927 79.5859 28L 79.5859 34L 78.1406 34L 78.1406 25.5469L 79.5469 25.5469L 79.5703 26.5234C 80.0443 25.7682 80.7161 25.3906 81.5859 25.3906C 81.8672 25.3906 82.0807 25.4271 82.2266 25.5L 82.2266 26.8438ZM 86.9141 34.1562C 85.7682 34.1562 84.8359 33.7812 84.1172 33.0312C 83.3984 32.276 83.0391 31.2682 83.0391 30.0078L 83.0391 29.7422C 83.0391 28.9036 83.1979 28.1562 83.5156 27.5C 83.8385 26.8385 84.2865 26.3229 84.8594 25.9531C 85.4375 25.5781 86.0625 25.3906 86.7344 25.3906C 87.8333 25.3906 88.6875 25.7526 89.2969 26.4766C 89.9062 27.2005 90.2109 28.237 90.2109 29.5859L 90.2109 30.1875L 84.4844 30.1875C 84.5052 31.0208 84.7474 31.6953 85.2109 32.2109C 85.6797 32.7214 86.2734 32.9766 86.9922 32.9766C 87.5026 32.9766 87.9349 32.8724 88.2891 32.6641C 88.6432 32.4557 88.9531 32.1797 89.2188 31.8359L 90.1016 32.5234C 89.3932 33.612 88.3307 34.1562 86.9141 34.1562ZM 86.7344 26.5781C 86.151 26.5781 85.6615 26.7917 85.2656 27.2188C 84.8698 27.6406 84.625 28.2344 84.5312 29L 88.7656 29L 88.7656 28.8906C 88.724 28.1562 88.526 27.5885 88.1719 27.1875C 87.8177 26.7812 87.3385 26.5781 86.7344 26.5781ZM 95.2812 32.9766C 95.7969 32.9766 96.2474 32.8203 96.6328 32.5078C 97.0182 32.1953 97.2318 31.8047 97.2734 31.3359L 98.6406 31.3359C 98.6146 31.8203 98.4479 32.2812 98.1406 32.7188C 97.8333 33.1562 97.4219 33.5052 96.9062 33.7656C 96.3958 34.026 95.8542 34.1562 95.2812 34.1562C 94.1302 34.1562 93.2135 33.7734 92.5312 33.0078C 91.8542 32.237 91.5156 31.1849 91.5156 29.8516L 91.5156 29.6094C 91.5156 28.7865 91.6667 28.0547 91.9688 27.4141C 92.2708 26.7734 92.7031 26.276 93.2656 25.9219C 93.8333 25.5677 94.5026 25.3906 95.2734 25.3906C 96.2214 25.3906 97.0078 25.6745 97.6328 26.2422C 98.263 26.8099 98.599 27.5469 98.6406 28.4531L 97.2734 28.4531C 97.2318 27.9062 97.0234 27.4583 96.6484 27.1094C 96.2786 26.7552 95.8203 26.5781 95.2734 26.5781C 94.5391 26.5781 93.9688 26.8438 93.5625 27.375C 93.1615 27.901 92.9609 28.6641 92.9609 29.6641L 92.9609 29.9375C 92.9609 30.9115 93.1615 31.6615 93.5625 32.1875C 93.9635 32.7135 94.5365 32.9766 95.2812 32.9766ZM 102.227 23.5L 102.227 25.5469L 103.805 25.5469L 103.805 26.6641L 102.227 26.6641L 102.227 31.9062C 102.227 32.2448 102.297 32.5 102.438 32.6719C 102.578 32.8385 102.818 32.9219 103.156 32.9219C 103.323 32.9219 103.552 32.8906 103.844 32.8281L 103.844 34C 103.464 34.1042 103.094 34.1562 102.734 34.1562C 102.089 34.1562 101.602 33.9609 101.273 33.5703C 100.945 33.1797 100.781 32.625 100.781 31.9062L 100.781 26.6641L 99.2422 26.6641L 99.2422 25.5469L 100.781 25.5469L 100.781 23.5L 102.227 23.5ZM 107.07 34L 105.625 34L 105.625 25.5469L 107.07 25.5469L 107.07 34ZM 105.508 23.3047C 105.508 23.0703 105.578 22.8724 105.719 22.7109C 105.865 22.5495 106.078 22.4688 106.359 22.4688C 106.641 22.4688 106.854 22.5495 107 22.7109C 107.146 22.8724 107.219 23.0703 107.219 23.3047C 107.219 23.5391 107.146 23.7344 107 23.8906C 106.854 24.0469 106.641 24.125 106.359 24.125C 106.078 24.125 105.865 24.0469 105.719 23.8906C 105.578 23.7344 105.508 23.5391 105.508 23.3047ZM 109.008 29.6953C 109.008 28.8672 109.169 28.1224 109.492 27.4609C 109.82 26.7995 110.273 26.2891 110.852 25.9297C 111.435 25.5703 112.099 25.3906 112.844 25.3906C 113.995 25.3906 114.924 25.7891 115.633 26.5859C 116.346 27.3828 116.703 28.4427 116.703 29.7656L 116.703 29.8672C 116.703 30.6901 116.544 31.4297 116.227 32.0859C 115.914 32.737 115.464 33.2448 114.875 33.6094C 114.292 33.974 113.62 34.1562 112.859 34.1562C 111.714 34.1562 110.784 33.7578 110.07 32.9609C 109.362 32.1641 109.008 31.1094 109.008 29.7969L 109.008 29.6953ZM 110.461 29.8672C 110.461 30.8047 110.677 31.5573 111.109 32.125C 111.547 32.6927 112.13 32.9766 112.859 32.9766C 113.594 32.9766 114.177 32.6901 114.609 32.1172C 115.042 31.5391 115.258 30.7318 115.258 29.6953C 115.258 28.7682 115.036 28.0182 114.594 27.4453C 114.156 26.8672 113.573 26.5781 112.844 26.5781C 112.13 26.5781 111.555 26.862 111.117 27.4297C 110.68 27.9974 110.461 28.8099 110.461 29.8672ZM 119.883 25.5469L 119.93 26.6094C 120.576 25.7969 121.419 25.3906 122.461 25.3906C 124.247 25.3906 125.148 26.3984 125.164 28.4141L 125.164 34L 123.719 34L 123.719 28.4062C 123.714 27.7969 123.573 27.3464 123.297 27.0547C 123.026 26.763 122.602 26.6172 122.023 26.6172C 121.555 26.6172 121.143 26.7422 120.789 26.9922C 120.435 27.2422 120.159 27.5703 119.961 27.9766L 119.961 34L 118.516 34L 118.516 25.5469L 119.883 25.5469Z"/>
<path id="path26_fill" d="M 45.4297 10.7031C 45.4297 9.40625 45.737 8.36458 46.3516 7.57812C 46.9661 6.78646 47.7708 6.39062 48.7656 6.39062C 49.7552 6.39062 50.5391 6.72917 51.1172 7.40625L 51.1172 3L 52.5625 3L 52.5625 15L 51.2344 15L 51.1641 14.0938C 50.5859 14.8021 49.7812 15.1562 48.75 15.1562C 47.7708 15.1562 46.9714 14.7552 46.3516 13.9531C 45.737 13.151 45.4297 12.1042 45.4297 10.8125L 45.4297 10.7031ZM 46.875 10.8672C 46.875 11.8255 47.0729 12.5755 47.4688 13.1172C 47.8646 13.6589 48.4115 13.9297 49.1094 13.9297C 50.026 13.9297 50.6953 13.5182 51.1172 12.6953L 51.1172 8.8125C 50.6849 8.01562 50.0208 7.61719 49.125 7.61719C 48.4167 7.61719 47.8646 7.89062 47.4688 8.4375C 47.0729 8.98438 46.875 9.79427 46.875 10.8672ZM 56.3828 15L 54.9375 15L 54.9375 6.54688L 56.3828 6.54688L 56.3828 15ZM 54.8203 4.30469C 54.8203 4.07031 54.8906 3.8724 55.0312 3.71094C 55.1771 3.54948 55.3906 3.46875 55.6719 3.46875C 55.9531 3.46875 56.1667 3.54948 56.3125 3.71094C 56.4583 3.8724 56.5312 4.07031 56.5312 4.30469C 56.5312 4.53906 56.4583 4.73438 56.3125 4.89062C 56.1667 5.04688 55.9531 5.125 55.6719 5.125C 55.3906 5.125 55.1771 5.04688 55.0312 4.89062C 54.8906 4.73438 54.8203 4.53906 54.8203 4.30469ZM 62.7891 7.84375C 62.5703 7.80729 62.3333 7.78906 62.0781 7.78906C 61.1302 7.78906 60.487 8.19271 60.1484 9L 60.1484 15L 58.7031 15L 58.7031 6.54688L 60.1094 6.54688L 60.1328 7.52344C 60.6068 6.76823 61.2786 6.39062 62.1484 6.39062C 62.4297 6.39062 62.6432 6.42708 62.7891 6.5L 62.7891 7.84375ZM 67.4766 15.1562C 66.3307 15.1562 65.3984 14.7812 64.6797 14.0312C 63.9609 13.276 63.6016 12.2682 63.6016 11.0078L 63.6016 10.7422C 63.6016 9.90365 63.7604 9.15625 64.0781 8.5C 64.401 7.83854 64.849 7.32292 65.4219 6.95312C 66 6.57812 66.625 6.39062 67.2969 6.39062C 68.3958 6.39062 69.25 6.7526 69.8594 7.47656C 70.4688 8.20052 70.7734 9.23698 70.7734 10.5859L 70.7734 11.1875L 65.0469 11.1875C 65.0677 12.0208 65.3099 12.6953 65.7734 13.2109C 66.2422 13.7214 66.8359 13.9766 67.5547 13.9766C 68.0651 13.9766 68.4974 13.8724 68.8516 13.6641C 69.2057 13.4557 69.5156 13.1797 69.7812 12.8359L 70.6641 13.5234C 69.9557 14.612 68.8932 15.1562 67.4766 15.1562ZM 67.2969 7.57812C 66.7135 7.57812 66.224 7.79167 65.8281 8.21875C 65.4323 8.64062 65.1875 9.23438 65.0938 10L 69.3281 10L 69.3281 9.89062C 69.2865 9.15625 69.0885 8.58854 68.7344 8.1875C 68.3802 7.78125 67.901 7.57812 67.2969 7.57812ZM 75.8438 13.9766C 76.3594 13.9766 76.8099 13.8203 77.1953 13.5078C 77.5807 13.1953 77.7943 12.8047 77.8359 12.3359L 79.2031 12.3359C 79.1771 12.8203 79.0104 13.2812 78.7031 13.7188C 78.3958 14.1562 77.9844 14.5052 77.4688 14.7656C 76.9583 15.026 76.4167 15.1562 75.8438 15.1562C 74.6927 15.1562 73.776 14.7734 73.0938 14.0078C 72.4167 13.237 72.0781 12.1849 72.0781 10.8516L 72.0781 10.6094C 72.0781 9.78646 72.2292 9.05469 72.5312 8.41406C 72.8333 7.77344 73.2656 7.27604 73.8281 6.92188C 74.3958 6.56771 75.0651 6.39062 75.8359 6.39062C 76.7839 6.39062 77.5703 6.67448 78.1953 7.24219C 78.8255 7.8099 79.1615 8.54688 79.2031 9.45312L 77.8359 9.45312C 77.7943 8.90625 77.5859 8.45833 77.2109 8.10938C 76.8411 7.75521 76.3828 7.57812 75.8359 7.57812C 75.1016 7.57812 74.5312 7.84375 74.125 8.375C 73.724 8.90104 73.5234 9.66406 73.5234 10.6641L 73.5234 10.9375C 73.5234 11.9115 73.724 12.6615 74.125 13.1875C 74.526 13.7135 75.099 13.9766 75.8438 13.9766ZM 82.7891 4.5L 82.7891 6.54688L 84.3672 6.54688L 84.3672 7.66406L 82.7891 7.66406L 82.7891 12.9062C 82.7891 13.2448 82.8594 13.5 83 13.6719C 83.1406 13.8385 83.3802 13.9219 83.7188 13.9219C 83.8854 13.9219 84.1146 13.8906 84.4062 13.8281L 84.4062 15C 84.026 15.1042 83.6562 15.1562 83.2969 15.1562C 82.651 15.1562 82.1641 14.9609 81.8359 14.5703C 81.5078 14.1797 81.3438 13.625 81.3438 12.9062L 81.3438 7.66406L 79.8047 7.66406L 79.8047 6.54688L 81.3438 6.54688L 81.3438 4.5L 82.7891 4.5ZM 87.6328 15L 86.1875 15L 86.1875 6.54688L 87.6328 6.54688L 87.6328 15ZM 86.0703 4.30469C 86.0703 4.07031 86.1406 3.8724 86.2812 3.71094C 86.4271 3.54948 86.6406 3.46875 86.9219 3.46875C 87.2031 3.46875 87.4167 3.54948 87.5625 3.71094C 87.7083 3.8724 87.7812 4.07031 87.7812 4.30469C 87.7812 4.53906 87.7083 4.73438 87.5625 4.89062C 87.4167 5.04688 87.2031 5.125 86.9219 5.125C 86.6406 5.125 86.4271 5.04688 86.2812 4.89062C 86.1406 4.73438 86.0703 4.53906 86.0703 4.30469ZM 89.5703 10.6953C 89.5703 9.86719 89.7318 9.1224 90.0547 8.46094C 90.3828 7.79948 90.8359 7.28906 91.4141 6.92969C 91.9974 6.57031 92.6615 6.39062 93.4062 6.39062C 94.5573 6.39062 95.487 6.78906 96.1953 7.58594C 96.9089 8.38281 97.2656 9.44271 97.2656 10.7656L 97.2656 10.8672C 97.2656 11.6901 97.1068 12.4297 96.7891 13.0859C 96.4766 13.737 96.026 14.2448 95.4375 14.6094C 94.8542 14.974 94.1823 15.1562 93.4219 15.1562C 92.276 15.1562 91.3464 14.7578 90.6328 13.9609C 89.9245 13.1641 89.5703 12.1094 89.5703 10.7969L 89.5703 10.6953ZM 91.0234 10.8672C 91.0234 11.8047 91.2396 12.5573 91.6719 13.125C 92.1094 13.6927 92.6927 13.9766 93.4219 13.9766C 94.1562 13.9766 94.7396 13.6901 95.1719 13.1172C 95.6042 12.5391 95.8203 11.7318 95.8203 10.6953C 95.8203 9.76823 95.599 9.01823 95.1562 8.44531C 94.7188 7.86719 94.1354 7.57812 93.4062 7.57812C 92.6927 7.57812 92.1172 7.86198 91.6797 8.42969C 91.2422 8.9974 91.0234 9.8099 91.0234 10.8672ZM 100.445 6.54688L 100.492 7.60938C 101.138 6.79688 101.982 6.39062 103.023 6.39062C 104.81 6.39062 105.711 7.39844 105.727 9.41406L 105.727 15L 104.281 15L 104.281 9.40625C 104.276 8.79688 104.135 8.34635 103.859 8.05469C 103.589 7.76302 103.164 7.61719 102.586 7.61719C 102.117 7.61719 101.706 7.74219 101.352 7.99219C 100.997 8.24219 100.721 8.57031 100.523 8.97656L 100.523 15L 99.0781 15L 99.0781 6.54688L 100.445 6.54688Z"/>
<path id="path27_fill" d="M 4.67188 9.92969C 3.38542 9.5599 2.44792 9.10677 1.85938 8.57031C 1.27604 8.02865 0.984375 7.36198 0.984375 6.57031C 0.984375 5.67448 1.34115 4.9349 2.05469 4.35156C 2.77344 3.76302 3.70573 3.46875 4.85156 3.46875C 5.63281 3.46875 6.32812 3.61979 6.9375 3.92188C 7.55208 4.22396 8.02604 4.64062 8.35938 5.17188C 8.69792 5.70312 8.86719 6.28385 8.86719 6.91406L 7.35938 6.91406C 7.35938 6.22656 7.14062 5.6875 6.70312 5.29688C 6.26562 4.90104 5.64844 4.70312 4.85156 4.70312C 4.11198 4.70312 3.53385 4.86719 3.11719 5.19531C 2.70573 5.51823 2.5 5.96875 2.5 6.54688C 2.5 7.01042 2.69531 7.40365 3.08594 7.72656C 3.48177 8.04427 4.15104 8.33594 5.09375 8.60156C 6.04167 8.86719 6.78125 9.16146 7.3125 9.48438C 7.84896 9.80208 8.24479 10.1745 8.5 10.6016C 8.76042 11.0286 8.89062 11.5312 8.89062 12.1094C 8.89062 13.0312 8.53125 13.7708 7.8125 14.3281C 7.09375 14.8802 6.13281 15.1562 4.92969 15.1562C 4.14844 15.1562 3.41927 15.0078 2.74219 14.7109C 2.0651 14.4089 1.54167 13.9974 1.17188 13.4766C 0.807292 12.9557 0.625 12.3646 0.625 11.7031L 2.13281 11.7031C 2.13281 12.3906 2.38542 12.9349 2.89062 13.3359C 3.40104 13.7318 4.08073 13.9297 4.92969 13.9297C 5.72135 13.9297 6.32812 13.7682 6.75 13.4453C 7.17188 13.1224 7.38281 12.6823 7.38281 12.125C 7.38281 11.5677 7.1875 11.138 6.79688 10.8359C 6.40625 10.5286 5.69792 10.2266 4.67188 9.92969ZM 15.8125 15C 15.7292 14.8333 15.6615 14.5365 15.6094 14.1094C 14.9375 14.8073 14.1354 15.1562 13.2031 15.1562C 12.3698 15.1562 11.6849 14.9219 11.1484 14.4531C 10.6172 13.9792 10.3516 13.3802 10.3516 12.6562C 10.3516 11.776 10.6849 11.0938 11.3516 10.6094C 12.0234 10.1198 12.9661 9.875 14.1797 9.875L 15.5859 9.875L 15.5859 9.21094C 15.5859 8.70573 15.4349 8.30469 15.1328 8.00781C 14.8307 7.70573 14.3854 7.55469 13.7969 7.55469C 13.2812 7.55469 12.849 7.6849 12.5 7.94531C 12.151 8.20573 11.9766 8.52083 11.9766 8.89062L 10.5234 8.89062C 10.5234 8.46875 10.6719 8.0625 10.9688 7.67188C 11.2708 7.27604 11.6771 6.96354 12.1875 6.73438C 12.7031 6.50521 13.2682 6.39062 13.8828 6.39062C 14.8568 6.39062 15.6198 6.63542 16.1719 7.125C 16.724 7.60938 17.0104 8.27865 17.0312 9.13281L 17.0312 13.0234C 17.0312 13.7995 17.1302 14.4167 17.3281 14.875L 17.3281 15L 15.8125 15ZM 13.4141 13.8984C 13.8672 13.8984 14.2969 13.7812 14.7031 13.5469C 15.1094 13.3125 15.4036 13.0078 15.5859 12.6328L 15.5859 10.8984L 14.4531 10.8984C 12.6823 10.8984 11.7969 11.4167 11.7969 12.4531C 11.7969 12.9062 11.9479 13.2604 12.25 13.5156C 12.5521 13.7708 12.9401 13.8984 13.4141 13.8984ZM 20.6562 6.54688L 20.6953 7.48438C 21.3151 6.75521 22.151 6.39062 23.2031 6.39062C 24.3854 6.39062 25.1901 6.84375 25.6172 7.75C 25.8984 7.34375 26.263 7.01562 26.7109 6.76562C 27.1641 6.51562 27.6979 6.39062 28.3125 6.39062C 30.1667 6.39062 31.1094 7.3724 31.1406 9.33594L 31.1406 15L 29.6953 15L 29.6953 9.42188C 29.6953 8.81771 29.5573 8.36719 29.2812 8.07031C 29.0052 7.76823 28.5417 7.61719 27.8906 7.61719C 27.3542 7.61719 26.9089 7.77865 26.5547 8.10156C 26.2005 8.41927 25.9948 8.84896 25.9375 9.39062L 25.9375 15L 24.4844 15L 24.4844 9.46094C 24.4844 8.23177 23.8828 7.61719 22.6797 7.61719C 21.7318 7.61719 21.0833 8.02083 20.7344 8.82812L 20.7344 15L 19.2891 15L 19.2891 6.54688L 20.6562 6.54688ZM 36.8359 15.1562C 35.6901 15.1562 34.7578 14.7812 34.0391 14.0312C 33.3203 13.276 32.9609 12.2682 32.9609 11.0078L 32.9609 10.7422C 32.9609 9.90365 33.1198 9.15625 33.4375 8.5C 33.7604 7.83854 34.2083 7.32292 34.7812 6.95312C 35.3594 6.57812 35.9844 6.39062 36.6562 6.39062C 37.7552 6.39062 38.6094 6.7526 39.2188 7.47656C 39.8281 8.20052 40.1328 9.23698 40.1328 10.5859L 40.1328 11.1875L 34.4062 11.1875C 34.4271 12.0208 34.6693 12.6953 35.1328 13.2109C 35.6016 13.7214 36.1953 13.9766 36.9141 13.9766C 37.4245 13.9766 37.8568 13.8724 38.2109 13.6641C 38.5651 13.4557 38.875 13.1797 39.1406 12.8359L 40.0234 13.5234C 39.3151 14.612 38.2526 15.1562 36.8359 15.1562ZM 36.6562 7.57812C 36.0729 7.57812 35.5833 7.79167 35.1875 8.21875C 34.7917 8.64062 34.5469 9.23438 34.4531 10L 38.6875 10L 38.6875 9.89062C 38.6458 9.15625 38.4479 8.58854 38.0938 8.1875C 37.7396 7.78125 37.2604 7.57812 36.6562 7.57812ZM 107.859 17.2656L 107.039 16.7031C 107.529 16.0208 107.784 15.3177 107.805 14.5938L 107.805 13.2891L 109.219 13.2891L 109.219 14.4219C 109.219 14.9479 109.089 15.474 108.828 16C 108.573 16.526 108.25 16.9479 107.859 17.2656ZM 0.742188 29.7031C 0.742188 28.4062 1.04948 27.3646 1.66406 26.5781C 2.27865 25.7865 3.08333 25.3906 4.07812 25.3906C 5.06771 25.3906 5.85156 25.7292 6.42969 26.4062L 6.42969 22L 7.875 22L 7.875 34L 6.54688 34L 6.47656 33.0938C 5.89844 33.8021 5.09375 34.1562 4.0625 34.1562C 3.08333 34.1562 2.28385 33.7552 1.66406 32.9531C 1.04948 32.151 0.742188 31.1042 0.742188 29.8125L 0.742188 29.7031ZM 2.1875 29.8672C 2.1875 30.8255 2.38542 31.5755 2.78125 32.1172C 3.17708 32.6589 3.72396 32.9297 4.42188 32.9297C 5.33854 32.9297 6.00781 32.5182 6.42969 31.6953L 6.42969 27.8125C 5.9974 27.0156 5.33333 26.6172 4.4375 26.6172C 3.72917 26.6172 3.17708 26.8906 2.78125 27.4375C 2.38542 27.9844 2.1875 28.7943 2.1875 29.8672ZM 11.6953 34L 10.25 34L 10.25 25.5469L 11.6953 25.5469L 11.6953 34ZM 10.1328 23.3047C 10.1328 23.0703 10.2031 22.8724 10.3438 22.7109C 10.4896 22.5495 10.7031 22.4688 10.9844 22.4688C 11.2656 22.4688 11.4792 22.5495 11.625 22.7109C 11.7708 22.8724 11.8438 23.0703 11.8438 23.3047C 11.8438 23.5391 11.7708 23.7344 11.625 23.8906C 11.4792 24.0469 11.2656 24.125 10.9844 24.125C 10.7031 24.125 10.4896 24.0469 10.3438 23.8906C 10.2031 23.7344 10.1328 23.5391 10.1328 23.3047ZM 14.7266 34L 14.7266 26.6641L 13.3906 26.6641L 13.3906 25.5469L 14.7266 25.5469L 14.7266 24.6797C 14.7266 23.7734 14.9688 23.0729 15.4531 22.5781C 15.9375 22.0833 16.6224 21.8359 17.5078 21.8359C 17.8411 21.8359 18.1719 21.8802 18.5 21.9688L 18.4219 23.1406C 18.1771 23.0938 17.9167 23.0703 17.6406 23.0703C 17.1719 23.0703 16.8099 23.2083 16.5547 23.4844C 16.2995 23.7552 16.1719 24.1458 16.1719 24.6562L 16.1719 25.5469L 17.9766 25.5469L 17.9766 26.6641L 16.1719 26.6641L 16.1719 34L 14.7266 34ZM 20.2891 34L 20.2891 26.6641L 18.9531 26.6641L 18.9531 25.5469L 20.2891 25.5469L 20.2891 24.6797C 20.2891 23.7734 20.5312 23.0729 21.0156 22.5781C 21.5 22.0833 22.1849 21.8359 23.0703 21.8359C 23.4036 21.8359 23.7344 21.8802 24.0625 21.9688L 23.9844 23.1406C 23.7396 23.0938 23.4792 23.0703 23.2031 23.0703C 22.7344 23.0703 22.3724 23.2083 22.1172 23.4844C 21.862 23.7552 21.7344 24.1458 21.7344 24.6562L 21.7344 25.5469L 23.5391 25.5469L 23.5391 26.6641L 21.7344 26.6641L 21.7344 34L 20.2891 34ZM 28.4609 34.1562C 27.3151 34.1562 26.3828 33.7812 25.6641 33.0312C 24.9453 32.276 24.5859 31.2682 24.5859 30.0078L 24.5859 29.7422C 24.5859 28.9036 24.7448 28.1562 25.0625 27.5C 25.3854 26.8385 25.8333 26.3229 26.4062 25.9531C 26.9844 25.5781 27.6094 25.3906 28.2812 25.3906C 29.3802 25.3906 30.2344 25.7526 30.8438 26.4766C 31.4531 27.2005 31.7578 28.237 31.7578 29.5859L 31.7578 30.1875L 26.0312 30.1875C 26.0521 31.0208 26.2943 31.6953 26.7578 32.2109C 27.2266 32.7214 27.8203 32.9766 28.5391 32.9766C 29.0495 32.9766 29.4818 32.8724 29.8359 32.6641C 30.1901 32.4557 30.5 32.1797 30.7656 31.8359L 31.6484 32.5234C 30.9401 33.612 29.8776 34.1562 28.4609 34.1562ZM 28.2812 26.5781C 27.6979 26.5781 27.2083 26.7917 26.8125 27.2188C 26.4167 27.6406 26.1719 28.2344 26.0781 29L 30.3125 29L 30.3125 28.8906C 30.2708 28.1562 30.0729 27.5885 29.7188 27.1875C 29.3646 26.7812 28.8854 26.5781 28.2812 26.5781ZM 37.5234 26.8438C 37.3047 26.8073 37.0677 26.7891 36.8125 26.7891C 35.8646 26.7891 35.2214 27.1927 34.8828 28L 34.8828 34L 33.4375 34L 33.4375 25.5469L 34.8438 25.5469L 34.8672 26.5234C 35.3411 25.7682 36.013 25.3906 36.8828 25.3906C 37.1641 25.3906 37.3776 25.4271 37.5234 25.5L 37.5234 26.8438ZM 42.2109 34.1562C 41.0651 34.1562 40.1328 33.7812 39.4141 33.0312C 38.6953 32.276 38.3359 31.2682 38.3359 30.0078L 38.3359 29.7422C 38.3359 28.9036 38.4948 28.1562 38.8125 27.5C 39.1354 26.8385 39.5833 26.3229 40.1562 25.9531C 40.7344 25.5781 41.3594 25.3906 42.0312 25.3906C 43.1302 25.3906 43.9844 25.7526 44.5938 26.4766C 45.2031 27.2005 45.5078 28.237 45.5078 29.5859L 45.5078 30.1875L 39.7812 30.1875C 39.8021 31.0208 40.0443 31.6953 40.5078 32.2109C 40.9766 32.7214 41.5703 32.9766 42.2891 32.9766C 42.7995 32.9766 43.2318 32.8724 43.5859 32.6641C 43.9401 32.4557 44.25 32.1797 44.5156 31.8359L 45.3984 32.5234C 44.6901 33.612 43.6276 34.1562 42.2109 34.1562ZM 42.0312 26.5781C 41.4479 26.5781 40.9583 26.7917 40.5625 27.2188C 40.1667 27.6406 39.9219 28.2344 39.8281 29L 44.0625 29L 44.0625 28.8906C 44.0208 28.1562 43.8229 27.5885 43.4688 27.1875C 43.1146 26.7812 42.6354 26.5781 42.0312 26.5781ZM 48.5547 25.5469L 48.6016 26.6094C 49.2474 25.7969 50.0911 25.3906 51.1328 25.3906C 52.9193 25.3906 53.8203 26.3984 53.8359 28.4141L 53.8359 34L 52.3906 34L 52.3906 28.4062C 52.3854 27.7969 52.2448 27.3464 51.9688 27.0547C 51.6979 26.763 51.2734 26.6172 50.6953 26.6172C 50.2266 26.6172 49.8151 26.7422 49.4609 26.9922C 49.1068 27.2422 48.8307 27.5703 48.6328 27.9766L 48.6328 34L 47.1875 34L 47.1875 25.5469L 48.5547 25.5469ZM 57.9766 23.5L 57.9766 25.5469L 59.5547 25.5469L 59.5547 26.6641L 57.9766 26.6641L 57.9766 31.9062C 57.9766 32.2448 58.0469 32.5 58.1875 32.6719C 58.3281 32.8385 58.5677 32.9219 58.9062 32.9219C 59.0729 32.9219 59.3021 32.8906 59.5938 32.8281L 59.5938 34C 59.2135 34.1042 58.8438 34.1562 58.4844 34.1562C 57.8385 34.1562 57.3516 33.9609 57.0234 33.5703C 56.6953 33.1797 56.5312 32.625 56.5312 31.9062L 56.5312 26.6641L 54.9922 26.6641L 54.9922 25.5469L 56.5312 25.5469L 56.5312 23.5L 57.9766 23.5ZM 66.5781 25.5469L 66.6172 26.4844C 67.237 25.7552 68.0729 25.3906 69.125 25.3906C 70.3073 25.3906 71.112 25.8438 71.5391 26.75C 71.8203 26.3438 72.1849 26.0156 72.6328 25.7656C 73.0859 25.5156 73.6198 25.3906 74.2344 25.3906C 76.0885 25.3906 77.0312 26.3724 77.0625 28.3359L 77.0625 34L 75.6172 34L 75.6172 28.4219C 75.6172 27.8177 75.4792 27.3672 75.2031 27.0703C 74.9271 26.7682 74.4635 26.6172 73.8125 26.6172C 73.276 26.6172 72.8307 26.7786 72.4766 27.1016C 72.1224 27.4193 71.9167 27.849 71.8594 28.3906L 71.8594 34L 70.4062 34L 70.4062 28.4609C 70.4062 27.2318 69.8047 26.6172 68.6016 26.6172C 67.6536 26.6172 67.0052 27.0208 66.6562 27.8281L 66.6562 34L 65.2109 34L 65.2109 25.5469L 66.5781 25.5469ZM 84.4688 34C 84.3854 33.8333 84.3177 33.5365 84.2656 33.1094C 83.5938 33.8073 82.7917 34.1562 81.8594 34.1562C 81.026 34.1562 80.3411 33.9219 79.8047 33.4531C 79.2734 32.9792 79.0078 32.3802 79.0078 31.6562C 79.0078 30.776 79.3411 30.0938 80.0078 29.6094C 80.6797 29.1198 81.6224 28.875 82.8359 28.875L 84.2422 28.875L 84.2422 28.2109C 84.2422 27.7057 84.0911 27.3047 83.7891 27.0078C 83.487 26.7057 83.0417 26.5547 82.4531 26.5547C 81.9375 26.5547 81.5052 26.6849 81.1562 26.9453C 80.8073 27.2057 80.6328 27.5208 80.6328 27.8906L 79.1797 27.8906C 79.1797 27.4688 79.3281 27.0625 79.625 26.6719C 79.9271 26.276 80.3333 25.9635 80.8438 25.7344C 81.3594 25.5052 81.9245 25.3906 82.5391 25.3906C 83.513 25.3906 84.276 25.6354 84.8281 26.125C 85.3802 26.6094 85.6667 27.2786 85.6875 28.1328L 85.6875 32.0234C 85.6875 32.7995 85.7865 33.4167 85.9844 33.875L 85.9844 34L 84.4688 34ZM 82.0703 32.8984C 82.5234 32.8984 82.9531 32.7812 83.3594 32.5469C 83.7656 32.3125 84.0599 32.0078 84.2422 31.6328L 84.2422 29.8984L 83.1094 29.8984C 81.3385 29.8984 80.4531 30.4167 80.4531 31.4531C 80.4531 31.9062 80.6042 32.2604 80.9062 32.5156C 81.2083 32.7708 81.5964 32.8984 82.0703 32.8984ZM 87.6094 29.7031C 87.6094 28.3854 87.9141 27.3385 88.5234 26.5625C 89.1328 25.7812 89.9401 25.3906 90.9453 25.3906C 91.9766 25.3906 92.7812 25.7552 93.3594 26.4844L 93.4297 25.5469L 94.75 25.5469L 94.75 33.7969C 94.75 34.8906 94.4245 35.7526 93.7734 36.3828C 93.1276 37.013 92.2578 37.3281 91.1641 37.3281C 90.5547 37.3281 89.9583 37.1979 89.375 36.9375C 88.7917 36.6771 88.3464 36.3203 88.0391 35.8672L 88.7891 35C 89.4089 35.7656 90.1667 36.1484 91.0625 36.1484C 91.7656 36.1484 92.3125 35.9505 92.7031 35.5547C 93.099 35.1589 93.2969 34.6016 93.2969 33.8828L 93.2969 33.1562C 92.7188 33.8229 91.9297 34.1562 90.9297 34.1562C 89.9401 34.1562 89.138 33.7578 88.5234 32.9609C 87.9141 32.1641 87.6094 31.0781 87.6094 29.7031ZM 89.0625 29.8672C 89.0625 30.8203 89.2578 31.5703 89.6484 32.1172C 90.0391 32.6589 90.5859 32.9297 91.2891 32.9297C 92.2005 32.9297 92.8698 32.5156 93.2969 31.6875L 93.2969 27.8281C 92.8542 27.0208 92.1901 26.6172 91.3047 26.6172C 90.6016 26.6172 90.0521 26.8906 89.6562 27.4375C 89.2604 27.9844 89.0625 28.7943 89.0625 29.8672ZM 98.3047 25.5469L 98.3516 26.6094C 98.9974 25.7969 99.8411 25.3906 100.883 25.3906C 102.669 25.3906 103.57 26.3984 103.586 28.4141L 103.586 34L 102.141 34L 102.141 28.4062C 102.135 27.7969 101.995 27.3464 101.719 27.0547C 101.448 26.763 101.023 26.6172 100.445 26.6172C 99.9766 26.6172 99.5651 26.7422 99.2109 26.9922C 98.8568 27.2422 98.5807 27.5703 98.3828 27.9766L 98.3828 34L 96.9375 34L 96.9375 25.5469L 98.3047 25.5469ZM 107.336 34L 105.891 34L 105.891 25.5469L 107.336 25.5469L 107.336 34ZM 105.773 23.3047C 105.773 23.0703 105.844 22.8724 105.984 22.7109C 106.13 22.5495 106.344 22.4688 106.625 22.4688C 106.906 22.4688 107.12 22.5495 107.266 22.7109C 107.411 22.8724 107.484 23.0703 107.484 23.3047C 107.484 23.5391 107.411 23.7344 107.266 23.8906C 107.12 24.0469 106.906 24.125 106.625 24.125C 106.344 24.125 106.13 24.0469 105.984 23.8906C 105.844 23.7344 105.773 23.5391 105.773 23.3047ZM 111.617 23.5L 111.617 25.5469L 113.195 25.5469L 113.195 26.6641L 111.617 26.6641L 111.617 31.9062C 111.617 32.2448 111.688 32.5 111.828 32.6719C 111.969 32.8385 112.208 32.9219 112.547 32.9219C 112.714 32.9219 112.943 32.8906 113.234 32.8281L 113.234 34C 112.854 34.1042 112.484 34.1562 112.125 34.1562C 111.479 34.1562 110.992 33.9609 110.664 33.5703C 110.336 33.1797 110.172 32.625 110.172 31.9062L 110.172 26.6641L 108.633 26.6641L 108.633 25.5469L 110.172 25.5469L 110.172 23.5L 111.617 23.5ZM 120.109 33.1641C 119.547 33.8255 118.721 34.1562 117.633 34.1562C 116.732 34.1562 116.044 33.8958 115.57 33.375C 115.102 32.849 114.865 32.0729 114.859 31.0469L 114.859 25.5469L 116.305 25.5469L 116.305 31.0078C 116.305 32.2891 116.826 32.9297 117.867 32.9297C 118.971 32.9297 119.706 32.5182 120.07 31.6953L 120.07 25.5469L 121.516 25.5469L 121.516 34L 120.141 34L 120.109 33.1641ZM 123.367 29.7031C 123.367 28.4062 123.674 27.3646 124.289 26.5781C 124.904 25.7865 125.708 25.3906 126.703 25.3906C 127.693 25.3906 128.477 25.7292 129.055 26.4062L 129.055 22L 130.5 22L 130.5 34L 129.172 34L 129.102 33.0938C 128.523 33.8021 127.719 34.1562 126.688 34.1562C 125.708 34.1562 124.909 33.7552 124.289 32.9531C 123.674 32.151 123.367 31.1042 123.367 29.8125L 123.367 29.7031ZM 124.812 29.8672C 124.812 30.8255 125.01 31.5755 125.406 32.1172C 125.802 32.6589 126.349 32.9297 127.047 32.9297C 127.964 32.9297 128.633 32.5182 129.055 31.6953L 129.055 27.8125C 128.622 27.0156 127.958 26.6172 127.062 26.6172C 126.354 26.6172 125.802 26.8906 125.406 27.4375C 125.01 27.9844 124.812 28.7943 124.812 29.8672ZM 136.258 34.1562C 135.112 34.1562 134.18 33.7812 133.461 33.0312C 132.742 32.276 132.383 31.2682 132.383 30.0078L 132.383 29.7422C 132.383 28.9036 132.542 28.1562 132.859 27.5C 133.182 26.8385 133.63 26.3229 134.203 25.9531C 134.781 25.5781 135.406 25.3906 136.078 25.3906C 137.177 25.3906 138.031 25.7526 138.641 26.4766C 139.25 27.2005 139.555 28.237 139.555 29.5859L 139.555 30.1875L 133.828 30.1875C 133.849 31.0208 134.091 31.6953 134.555 32.2109C 135.023 32.7214 135.617 32.9766 136.336 32.9766C 136.846 32.9766 137.279 32.8724 137.633 32.6641C 137.987 32.4557 138.297 32.1797 138.562 31.8359L 139.445 32.5234C 138.737 33.612 137.674 34.1562 136.258 34.1562ZM 136.078 26.5781C 135.495 26.5781 135.005 26.7917 134.609 27.2188C 134.214 27.6406 133.969 28.2344 133.875 29L 138.109 29L 138.109 28.8906C 138.068 28.1562 137.87 27.5885 137.516 27.1875C 137.161 26.7812 136.682 26.5781 136.078 26.5781Z"/>
<path id="path28_stroke" d="M 0 0L 51 0L 51 -1L 0 -1L 0 0Z"/>
<path id="path29_stroke" d="M 0 0L 52 0L 52 -1L 0 -1L 0 0Z"/>
<path id="path30_fill" d="M 8.39844 15L 0.945312 15L 0.945312 13.9609L 4.88281 9.58594C 5.46615 8.92448 5.86719 8.38802 6.08594 7.97656C 6.3099 7.5599 6.42188 7.13021 6.42188 6.6875C 6.42188 6.09375 6.24219 5.60677 5.88281 5.22656C 5.52344 4.84635 5.04427 4.65625 4.44531 4.65625C 3.72656 4.65625 3.16667 4.86198 2.76562 5.27344C 2.36979 5.67969 2.17188 6.2474 2.17188 6.97656L 0.726562 6.97656C 0.726562 5.92969 1.0625 5.08333 1.73438 4.4375C 2.41146 3.79167 3.3151 3.46875 4.44531 3.46875C 5.5026 3.46875 6.33854 3.7474 6.95312 4.30469C 7.56771 4.85677 7.875 5.59375 7.875 6.51562C 7.875 7.63542 7.16146 8.96875 5.73438 10.5156L 2.6875 13.8203L 8.39844 13.8203L 8.39844 15ZM 3.04688 27.6094L 4.13281 27.6094C 4.8151 27.599 5.35156 27.4193 5.74219 27.0703C 6.13281 26.7214 6.32812 26.25 6.32812 25.6562C 6.32812 24.3229 5.66406 23.6562 4.33594 23.6562C 3.71094 23.6562 3.21094 23.8359 2.83594 24.1953C 2.46615 24.5495 2.28125 25.0208 2.28125 25.6094L 0.835938 25.6094C 0.835938 24.7083 1.16406 23.9609 1.82031 23.3672C 2.48177 22.7682 3.32031 22.4688 4.33594 22.4688C 5.40885 22.4688 6.25 22.7526 6.85938 23.3203C 7.46875 23.888 7.77344 24.6771 7.77344 25.6875C 7.77344 26.1823 7.61198 26.6615 7.28906 27.125C 6.97135 27.5885 6.53646 27.9349 5.98438 28.1641C 6.60938 28.362 7.09115 28.6901 7.42969 29.1484C 7.77344 29.6068 7.94531 30.1667 7.94531 30.8281C 7.94531 31.849 7.61198 32.6589 6.94531 33.2578C 6.27865 33.8568 5.41146 34.1562 4.34375 34.1562C 3.27604 34.1562 2.40625 33.8672 1.73438 33.2891C 1.06771 32.7109 0.734375 31.9479 0.734375 31L 2.1875 31C 2.1875 31.599 2.38281 32.0781 2.77344 32.4375C 3.16406 32.7969 3.6875 32.9766 4.34375 32.9766C 5.04167 32.9766 5.57552 32.7943 5.94531 32.4297C 6.3151 32.0651 6.5 31.5417 6.5 30.8594C 6.5 30.1979 6.29688 29.6901 5.89062 29.3359C 5.48438 28.9818 4.89844 28.7995 4.13281 28.7891L 3.04688 28.7891L 3.04688 27.6094Z"/>
<path id="path31_fill" d="M 4.10156 10.7578L 0.289062 10.7578L 0.289062 9.57812L 4.10156 9.57812L 4.10156 10.7578ZM 12.8203 15L 5.36719 15L 5.36719 13.9609L 9.30469 9.58594C 9.88802 8.92448 10.2891 8.38802 10.5078 7.97656C 10.7318 7.5599 10.8438 7.13021 10.8438 6.6875C 10.8438 6.09375 10.6641 5.60677 10.3047 5.22656C 9.94531 4.84635 9.46615 4.65625 8.86719 4.65625C 8.14844 4.65625 7.58854 4.86198 7.1875 5.27344C 6.79167 5.67969 6.59375 6.2474 6.59375 6.97656L 5.14844 6.97656C 5.14844 5.92969 5.48438 5.08333 6.15625 4.4375C 6.83333 3.79167 7.73698 3.46875 8.86719 3.46875C 9.92448 3.46875 10.7604 3.7474 11.375 4.30469C 11.9896 4.85677 12.2969 5.59375 12.2969 6.51562C 12.2969 7.63542 11.5833 8.96875 10.1562 10.5156L 7.10938 13.8203L 12.8203 13.8203L 12.8203 15ZM 4.10156 29.7578L 0.289062 29.7578L 0.289062 28.5781L 4.10156 28.5781L 4.10156 29.7578ZM 7.46875 27.6094L 8.55469 27.6094C 9.23698 27.599 9.77344 27.4193 10.1641 27.0703C 10.5547 26.7214 10.75 26.25 10.75 25.6562C 10.75 24.3229 10.0859 23.6562 8.75781 23.6562C 8.13281 23.6562 7.63281 23.8359 7.25781 24.1953C 6.88802 24.5495 6.70312 25.0208 6.70312 25.6094L 5.25781 25.6094C 5.25781 24.7083 5.58594 23.9609 6.24219 23.3672C 6.90365 22.7682 7.74219 22.4688 8.75781 22.4688C 9.83073 22.4688 10.6719 22.7526 11.2812 23.3203C 11.8906 23.888 12.1953 24.6771 12.1953 25.6875C 12.1953 26.1823 12.0339 26.6615 11.7109 27.125C 11.3932 27.5885 10.9583 27.9349 10.4062 28.1641C 11.0312 28.362 11.513 28.6901 11.8516 29.1484C 12.1953 29.6068 12.3672 30.1667 12.3672 30.8281C 12.3672 31.849 12.0339 32.6589 11.3672 33.2578C 10.7005 33.8568 9.83333 34.1562 8.76562 34.1562C 7.69792 34.1562 6.82812 33.8672 6.15625 33.2891C 5.48958 32.7109 5.15625 31.9479 5.15625 31L 6.60938 31C 6.60938 31.599 6.80469 32.0781 7.19531 32.4375C 7.58594 32.7969 8.10938 32.9766 8.76562 32.9766C 9.46354 32.9766 9.9974 32.7943 10.3672 32.4297C 10.737 32.0651 10.9219 31.5417 10.9219 30.8594C 10.9219 30.1979 10.7188 29.6901 10.3125 29.3359C 9.90625 28.9818 9.32031 28.7995 8.55469 28.7891L 7.46875 28.7891L 7.46875 27.6094Z"/>
<path id="path32_fill" d="M 8.39844 15L 0.945312 15L 0.945312 13.9609L 4.88281 9.58594C 5.46615 8.92448 5.86719 8.38802 6.08594 7.97656C 6.3099 7.5599 6.42188 7.13021 6.42188 6.6875C 6.42188 6.09375 6.24219 5.60677 5.88281 5.22656C 5.52344 4.84635 5.04427 4.65625 4.44531 4.65625C 3.72656 4.65625 3.16667 4.86198 2.76562 5.27344C 2.36979 5.67969 2.17188 6.2474 2.17188 6.97656L 0.726562 6.97656C 0.726562 5.92969 1.0625 5.08333 1.73438 4.4375C 2.41146 3.79167 3.3151 3.46875 4.44531 3.46875C 5.5026 3.46875 6.33854 3.7474 6.95312 4.30469C 7.56771 4.85677 7.875 5.59375 7.875 6.51562C 7.875 7.63542 7.16146 8.96875 5.73438 10.5156L 2.6875 13.8203L 8.39844 13.8203L 8.39844 15ZM 8.39844 34L 0.945312 34L 0.945312 32.9609L 4.88281 28.5859C 5.46615 27.9245 5.86719 27.388 6.08594 26.9766C 6.3099 26.5599 6.42188 26.1302 6.42188 25.6875C 6.42188 25.0938 6.24219 24.6068 5.88281 24.2266C 5.52344 23.8464 5.04427 23.6562 4.44531 23.6562C 3.72656 23.6562 3.16667 23.862 2.76562 24.2734C 2.36979 24.6797 2.17188 25.2474 2.17188 25.9766L 0.726562 25.9766C 0.726562 24.9297 1.0625 24.0833 1.73438 23.4375C 2.41146 22.7917 3.3151 22.4688 4.44531 22.4688C 5.5026 22.4688 6.33854 22.7474 6.95312 23.3047C 7.56771 23.8568 7.875 24.5938 7.875 25.5156C 7.875 26.6354 7.16146 27.9688 5.73438 29.5156L 2.6875 32.8203L 8.39844 32.8203L 8.39844 34Z"/>
<path id="path33_fill" d="M 5.69531 15L 4.24219 15L 4.24219 5.36719L 1.32812 6.4375L 1.32812 5.125L 5.46875 3.57031L 5.69531 3.57031L 5.69531 15ZM 5.69531 34L 4.24219 34L 4.24219 24.3672L 1.32812 25.4375L 1.32812 24.125L 5.46875 22.5703L 5.69531 22.5703L 5.69531 34Z"/>
</defs>
</svg>

