<svg width="499" height="68" viewBox="0 0 499 68" version="1.1" xmlns="http://www.w3.org/2000/svg" xmlns:xlink="http://www.w3.org/1999/xlink" xmlns:figma="http://www.figma.com/figma/ns">
<title>Group</title>
<desc>Created using Figma</desc>
<g id="Canvas" transform="translate(683 -2937)" figma:type="canvas">
<g id="Group" figma:type="frame">
<g id="Component" figma:type="instance">
<g id="Line 2" figma:type="line">
<use xlink:href="#path0_stroke" transform="matrix(1.16657e-31 1 -0.999484 0.0321237 -622 2959)" fill="#333333"/>
</g>
<g id="Line 3" figma:type="line">
<use xlink:href="#path1_stroke" transform="translate(-622 2959)" fill="#333333"/>
</g>
<g id="Line 3" figma:type="line">
<use xlink:href="#path1_stroke" transform="translate(-622 3003)" fill="#333333"/>
</g>
</g>
<g id="Component" figma:type="instance">
<g id="Line 2" figma:type="line">
<use xlink:href="#path2_stroke" transform="matrix(-1.22465e-16 -1 0.999436 -0.0335822 -568 3003)" fill="#333333"/>
</g>
<g id="Line 3" figma:type="line">
<use xlink:href="#path1_stroke" transform="matrix(-1 1.22465e-16 -1.22465e-16 -1 -568 3003)" fill="#333333"/>
</g>
<g id="Line 3" figma:type="line">
<use xlink:href="#path1_stroke" transform="matrix(-1 1.22465e-16 -1.22465e-16 -1 -568 2957)" fill="#333333"/>
</g>
</g>
<g id="0.7 3 1.7 2" figma:type="text">
<use xlink:href="#path3_fill" transform="translate(-614 2964)" fill="#2F80ED"/>
</g>
<g id="A" figma:type="text">
<use xlink:href="#path4_fill" transform="translate(-597 2934)"/>
</g>
<g id="Component" figma:type="instance">
<g id="Line 2" figma:type="line">
<use xlink:href="#path2_stroke" transform="matrix(1.11585e-31 1 -0.999436 0.0335822 -557 2958)" fill="#333333"/>
</g>
<g id="Line 3" figma:type="line">
<use xlink:href="#path1_stroke" transform="translate(-557 2958)" fill="#333333"/>
</g>
<g id="Line 3" figma:type="line">
<use xlink:href="#path1_stroke" transform="translate(-557 3004)" fill="#333333"/>
</g>
</g>
<g id="Component" figma:type="instance">
<g id="Line 2" figma:type="line">
<use xlink:href="#path5_stroke" transform="matrix(-1.22465e-16 -1 0.999411 -0.0343114 -515 3004)" fill="#333333"/>
</g>
<g id="Line 3" figma:type="line">
<use xlink:href="#path1_stroke" transform="matrix(-1 1.22465e-16 -1.22465e-16 -1 -515 3004)" fill="#333333"/>
</g>
<g id="Line 3" figma:type="line">
<use xlink:href="#path1_stroke" transform="matrix(-1 1.22465e-16 -1.22465e-16 -1 -515 2957)" fill="#333333"/>
</g>
</g>
<g id="1 2 2 3" figma:type="text">
<use xlink:href="#path6_fill" transform="translate(-548 2963)" fill="#333333"/>
</g>
<g id="B" figma:type="text">
<use xlink:href="#path7_fill" transform="translate(-540 2934)"/>
</g>
<g id="AB" figma:type="text">
<use xlink:href="#path8_fill" transform="translate(-683 2971)"/>
</g>
<g id="=" figma:type="text">
<use xlink:href="#path9_fill" transform="translate(-649 2971)"/>
</g>
<g id="=" figma:type="text">
<use xlink:href="#path9_fill" transform="translate(-500 2971)"/>
</g>
<g id="Component" figma:type="instance">
<g id="Line 2" figma:type="line">
<use xlink:href="#path2_stroke" transform="matrix(1.11585e-31 1 -0.999436 0.0335822 -483 2958)" fill="#333333"/>
</g>
<g id="Line 3" figma:type="line">
<use xlink:href="#path1_stroke" transform="translate(-483 2958)" fill="#333333"/>
</g>
<g id="Line 3" figma:type="line">
<use xlink:href="#path1_stroke" transform="translate(-483 3004)" fill="#333333"/>
</g>
</g>
<g id="Component" figma:type="instance">
<g id="Line 2" figma:type="line">
<use xlink:href="#path5_stroke" transform="matrix(-1.22465e-16 -1 0.999411 -0.0343114 -288 3004)" fill="#333333"/>
</g>
<g id="Line 3" figma:type="line">
<use xlink:href="#path1_stroke" transform="matrix(-1 1.22465e-16 -1.22465e-16 -1 -288 3004)" fill="#333333"/>
</g>
<g id="Line 3" figma:type="line">
<use xlink:href="#path1_stroke" transform="matrix(-1 1.22465e-16 -1.22465e-16 -1 -288 2957)" fill="#333333"/>
</g>
</g>
<g id="(0.7*1+3*2) (0.7*2 + 3*3) (1.7*1+2*2) (1.7*2 + 2*3)" figma:type="text">
<use xlink:href="#path10_fill" transform="translate(-474 2963)" fill="#2F80ED"/>
<use xlink:href="#path11_fill" transform="translate(-474 2963)" fill="#333333"/>
</g>
<g id="=" figma:type="text">
<use xlink:href="#path9_fill" transform="translate(-274 2969)"/>
</g>
<g id="Component" figma:type="instance">
<g id="Line 2" figma:type="line">
<use xlink:href="#path2_stroke" transform="matrix(1.11585e-31 1 -0.999436 0.0335822 -260 2958)" fill="#333333"/>
</g>
<g id="Line 3" figma:type="line">
<use xlink:href="#path1_stroke" transform="translate(-260 2958)" fill="#333333"/>
</g>
<g id="Line 3" figma:type="line">
<use xlink:href="#path1_stroke" transform="translate(-260 3004)" fill="#333333"/>
</g>
</g>
<g id="Component" figma:type="instance">
<g id="Line 2" figma:type="line">
<use xlink:href="#path5_stroke" transform="matrix(-1.22465e-16 -1 0.999411 -0.0343114 -184 3004)" fill="#333333"/>
</g>
<g id="Line 3" figma:type="line">
<use xlink:href="#path1_stroke" transform="matrix(-1 1.22465e-16 -1.22465e-16 -1 -184 3004)" fill="#333333"/>
</g>
<g id="Line 3" figma:type="line">
<use xlink:href="#path1_stroke" transform="matrix(-1 1.22465e-16 -1.22465e-16 -1 -184 2957)" fill="#333333"/>
</g>
</g>
<g id="6.7 10.4 5.7 9.4" figma:type="text">
<use xlink:href="#path12_fill" transform="translate(-251 2963)" fill="#333333"/>
</g>
</g>
</g>
<defs>
<path id="path0_stroke" d="M 0 0L 44 0L 44 -1L 0 -1L 0 0Z"/>
<path id="path1_stroke" d="M 0 0L 6 0L 6 -1L 0 -1L 0 0Z"/>
<path id="path2_stroke" d="M 0 0L 46 0L 46 -1L 0 -1L 0 0Z"/>
<path id="path3_fill" d="M 7.06836 8.75488C 7.06836 10.236 6.81543 11.3366 6.30957 12.0566C 5.80371 12.7767 5.01302 13.1367 3.9375 13.1367C 2.87565 13.1367 2.08952 12.7858 1.5791 12.084C 1.06868 11.3776 0.804362 10.3249 0.786133 8.92578L 0.786133 7.2373C 0.786133 5.77441 1.03906 4.6875 1.54492 3.97656C 2.05078 3.26562 2.84375 2.91016 3.92383 2.91016C 4.99479 2.91016 5.7832 3.25423 6.28906 3.94238C 6.79492 4.62598 7.05469 5.68327 7.06836 7.11426L 7.06836 8.75488ZM 5.80371 7.02539C 5.80371 5.95443 5.65332 5.17513 5.35254 4.6875C 5.05176 4.19531 4.57552 3.94922 3.92383 3.94922C 3.27669 3.94922 2.80501 4.19303 2.50879 4.68066C 2.21257 5.16829 2.0599 5.91797 2.05078 6.92969L 2.05078 8.95312C 2.05078 10.0286 2.20573 10.8239 2.51562 11.3389C 2.83008 11.8493 3.30404 12.1045 3.9375 12.1045C 4.56185 12.1045 5.02441 11.863 5.3252 11.3799C 5.63053 10.8968 5.79004 10.1357 5.80371 9.09668L 5.80371 7.02539ZM 8.8457 12.3369C 8.8457 12.1182 8.90951 11.9359 9.03711 11.79C 9.16927 11.6442 9.36523 11.5713 9.625 11.5713C 9.88477 11.5713 10.0807 11.6442 10.2129 11.79C 10.3496 11.9359 10.418 12.1182 10.418 12.3369C 10.418 12.5465 10.3496 12.722 10.2129 12.8633C 10.0807 13.0046 9.88477 13.0752 9.625 13.0752C 9.36523 13.0752 9.16927 13.0046 9.03711 12.8633C 8.90951 12.722 8.8457 12.5465 8.8457 12.3369ZM 18.8057 3.75781L 14.6836 13L 13.3574 13L 17.4658 4.08594L 12.0791 4.08594L 12.0791 3.04688L 18.8057 3.04688L 18.8057 3.75781ZM 32.498 7.4082L 33.4482 7.4082C 34.0452 7.39909 34.5146 7.24186 34.8564 6.93652C 35.1982 6.63118 35.3691 6.21875 35.3691 5.69922C 35.3691 4.53255 34.7881 3.94922 33.626 3.94922C 33.0791 3.94922 32.6416 4.10645 32.3135 4.4209C 31.9899 4.73079 31.8281 5.14323 31.8281 5.6582L 30.5635 5.6582C 30.5635 4.86979 30.8506 4.21582 31.4248 3.69629C 32.0036 3.1722 32.7373 2.91016 33.626 2.91016C 34.5648 2.91016 35.3008 3.15853 35.834 3.65527C 36.3672 4.15202 36.6338 4.84245 36.6338 5.72656C 36.6338 6.15951 36.4925 6.57878 36.21 6.98438C 35.932 7.38997 35.5514 7.69303 35.0684 7.89355C 35.6152 8.06673 36.0368 8.35384 36.333 8.75488C 36.6338 9.15592 36.7842 9.64583 36.7842 10.2246C 36.7842 11.1178 36.4925 11.8265 35.9092 12.3506C 35.3258 12.8747 34.5671 13.1367 33.6328 13.1367C 32.6986 13.1367 31.9375 12.8838 31.3496 12.3779C 30.7663 11.8721 30.4746 11.2044 30.4746 10.375L 31.7461 10.375C 31.7461 10.8991 31.917 11.3184 32.2588 11.6328C 32.6006 11.9473 33.0586 12.1045 33.6328 12.1045C 34.2435 12.1045 34.7106 11.945 35.0342 11.626C 35.3577 11.307 35.5195 10.849 35.5195 10.252C 35.5195 9.67318 35.3418 9.22884 34.9863 8.91895C 34.6309 8.60905 34.1182 8.44954 33.4482 8.44043L 32.498 8.44043L 32.498 7.4082ZM 4.9834 29L 3.71191 29L 3.71191 20.5713L 1.16211 21.5078L 1.16211 20.3594L 4.78516 18.999L 4.9834 18.999L 4.9834 29ZM 8.8457 28.3369C 8.8457 28.1182 8.90951 27.9359 9.03711 27.79C 9.16927 27.6442 9.36523 27.5713 9.625 27.5713C 9.88477 27.5713 10.0807 27.6442 10.2129 27.79C 10.3496 27.9359 10.418 28.1182 10.418 28.3369C 10.418 28.5465 10.3496 28.722 10.2129 28.8633C 10.0807 29.0046 9.88477 29.0752 9.625 29.0752C 9.36523 29.0752 9.16927 29.0046 9.03711 28.8633C 8.90951 28.722 8.8457 28.5465 8.8457 28.3369ZM 18.8057 19.7578L 14.6836 29L 13.3574 29L 17.4658 20.0859L 12.0791 20.0859L 12.0791 19.0469L 18.8057 19.0469L 18.8057 19.7578ZM 37.1807 29L 30.6592 29L 30.6592 28.0908L 34.1045 24.2627C 34.6149 23.6839 34.9658 23.2145 35.1572 22.8545C 35.3532 22.4899 35.4512 22.1139 35.4512 21.7266C 35.4512 21.207 35.2939 20.7809 34.9795 20.4482C 34.665 20.1156 34.2458 19.9492 33.7217 19.9492C 33.0928 19.9492 32.6029 20.1292 32.252 20.4893C 31.9056 20.8447 31.7324 21.3415 31.7324 21.9795L 30.4678 21.9795C 30.4678 21.0635 30.7617 20.3229 31.3496 19.7578C 31.9421 19.1927 32.7327 18.9102 33.7217 18.9102C 34.6468 18.9102 35.3783 19.154 35.916 19.6416C 36.4538 20.1247 36.7227 20.7695 36.7227 21.5762C 36.7227 22.556 36.0983 23.7227 34.8496 25.0762L 32.1836 27.9678L 37.1807 27.9678L 37.1807 29Z"/>
<path id="path4_fill" d="M 6.65137 10.4023L 2.48145 10.4023L 1.54492 13L 0.191406 13L 3.99219 3.04688L 5.14062 3.04688L 8.94824 13L 7.60156 13L 6.65137 10.4023ZM 2.87793 9.32227L 6.26172 9.32227L 4.56641 4.66699L 2.87793 9.32227Z"/>
<path id="path5_stroke" d="M 0 0L 47 0L 47 -1L 0 -1L 0 0Z"/>
<path id="path6_fill" d="M 4.9834 13L 3.71191 13L 3.71191 4.57129L 1.16211 5.50781L 1.16211 4.35938L 4.78516 2.99902L 4.9834 2.99902L 4.9834 13ZM 25.6279 13L 19.1064 13L 19.1064 12.0908L 22.5518 8.2627C 23.0622 7.68392 23.4131 7.21452 23.6045 6.85449C 23.8005 6.48991 23.8984 6.11393 23.8984 5.72656C 23.8984 5.20703 23.7412 4.78092 23.4268 4.44824C 23.1123 4.11556 22.693 3.94922 22.1689 3.94922C 21.54 3.94922 21.0501 4.12923 20.6992 4.48926C 20.3529 4.84473 20.1797 5.34147 20.1797 5.97949L 18.915 5.97949C 18.915 5.06348 19.209 4.32292 19.7969 3.75781C 20.3893 3.19271 21.18 2.91016 22.1689 2.91016C 23.0941 2.91016 23.8255 3.15397 24.3633 3.6416C 24.901 4.12467 25.1699 4.76953 25.1699 5.57617C 25.1699 6.55599 24.5456 7.72266 23.2969 9.07617L 20.6309 11.9678L 25.6279 11.9678L 25.6279 13ZM 7.34863 29L 0.827148 29L 0.827148 28.0908L 4.27246 24.2627C 4.78288 23.6839 5.13379 23.2145 5.3252 22.8545C 5.52116 22.4899 5.61914 22.1139 5.61914 21.7266C 5.61914 21.207 5.46191 20.7809 5.14746 20.4482C 4.83301 20.1156 4.41374 19.9492 3.88965 19.9492C 3.26074 19.9492 2.77083 20.1292 2.41992 20.4893C 2.07357 20.8447 1.90039 21.3415 1.90039 21.9795L 0.635742 21.9795C 0.635742 21.0635 0.929688 20.3229 1.51758 19.7578C 2.11003 19.1927 2.90072 18.9102 3.88965 18.9102C 4.81478 18.9102 5.54622 19.154 6.08398 19.6416C 6.62174 20.1247 6.89062 20.7695 6.89062 21.5762C 6.89062 22.556 6.26628 23.7227 5.01758 25.0762L 2.35156 27.9678L 7.34863 27.9678L 7.34863 29ZM 20.9453 23.4082L 21.8955 23.4082C 22.4925 23.3991 22.9619 23.2419 23.3037 22.9365C 23.6455 22.6312 23.8164 22.2188 23.8164 21.6992C 23.8164 20.5326 23.2354 19.9492 22.0732 19.9492C 21.5264 19.9492 21.0889 20.1064 20.7607 20.4209C 20.4372 20.7308 20.2754 21.1432 20.2754 21.6582L 19.0107 21.6582C 19.0107 20.8698 19.2979 20.2158 19.8721 19.6963C 20.4508 19.1722 21.1846 18.9102 22.0732 18.9102C 23.012 18.9102 23.748 19.1585 24.2812 19.6553C 24.8145 20.152 25.0811 20.8424 25.0811 21.7266C 25.0811 22.1595 24.9398 22.5788 24.6572 22.9844C 24.3792 23.39 23.9987 23.693 23.5156 23.8936C 24.0625 24.0667 24.484 24.3538 24.7803 24.7549C 25.0811 25.1559 25.2314 25.6458 25.2314 26.2246C 25.2314 27.1178 24.9398 27.8265 24.3564 28.3506C 23.7731 28.8747 23.0143 29.1367 22.0801 29.1367C 21.1458 29.1367 20.3848 28.8838 19.7969 28.3779C 19.2135 27.8721 18.9219 27.2044 18.9219 26.375L 20.1934 26.375C 20.1934 26.8991 20.3643 27.3184 20.7061 27.6328C 21.0479 27.9473 21.5059 28.1045 22.0801 28.1045C 22.6908 28.1045 23.1579 27.945 23.4814 27.626C 23.805 27.307 23.9668 26.849 23.9668 26.252C 23.9668 25.6732 23.7891 25.2288 23.4336 24.9189C 23.0781 24.609 22.5654 24.4495 21.8955 24.4404L 20.9453 24.4404L 20.9453 23.4082Z"/>
<path id="path7_fill" d="M 1.15527 13L 1.15527 3.04688L 4.40918 3.04688C 5.48926 3.04688 6.30046 3.27018 6.84277 3.7168C 7.38965 4.16341 7.66309 4.82422 7.66309 5.69922C 7.66309 6.16406 7.53092 6.5765 7.2666 6.93652C 7.00228 7.29199 6.64225 7.56771 6.18652 7.76367C 6.72428 7.91406 7.14811 8.20117 7.45801 8.625C 7.77246 9.04427 7.92969 9.54557 7.92969 10.1289C 7.92969 11.0221 7.6403 11.724 7.06152 12.2344C 6.48275 12.7448 5.66471 13 4.60742 13L 1.15527 13ZM 2.46777 8.34473L 2.46777 11.9268L 4.63477 11.9268C 5.24544 11.9268 5.72624 11.7695 6.07715 11.4551C 6.43262 11.1361 6.61035 10.6986 6.61035 10.1426C 6.61035 8.94401 5.95866 8.34473 4.65527 8.34473L 2.46777 8.34473ZM 2.46777 7.29199L 4.4502 7.29199C 5.02441 7.29199 5.48242 7.14844 5.82422 6.86133C 6.17057 6.57422 6.34375 6.18457 6.34375 5.69238C 6.34375 5.14551 6.18424 4.74902 5.86523 4.50293C 5.54622 4.25228 5.06087 4.12695 4.40918 4.12695L 2.46777 4.12695L 2.46777 7.29199Z"/>
<path id="path8_fill" d="M 6.65137 10.4023L 2.48145 10.4023L 1.54492 13L 0.191406 13L 3.99219 3.04688L 5.14062 3.04688L 8.94824 13L 7.60156 13L 6.65137 10.4023ZM 2.87793 9.32227L 6.26172 9.32227L 4.56641 4.66699L 2.87793 9.32227ZM 10.2881 13L 10.2881 3.04688L 13.542 3.04688C 14.6221 3.04688 15.4333 3.27018 15.9756 3.7168C 16.5225 4.16341 16.7959 4.82422 16.7959 5.69922C 16.7959 6.16406 16.6637 6.5765 16.3994 6.93652C 16.1351 7.29199 15.7751 7.56771 15.3193 7.76367C 15.8571 7.91406 16.2809 8.20117 16.5908 8.625C 16.9053 9.04427 17.0625 9.54557 17.0625 10.1289C 17.0625 11.0221 16.7731 11.724 16.1943 12.2344C 15.6156 12.7448 14.7975 13 13.7402 13L 10.2881 13ZM 11.6006 8.34473L 11.6006 11.9268L 13.7676 11.9268C 14.3783 11.9268 14.859 11.7695 15.21 11.4551C 15.5654 11.1361 15.7432 10.6986 15.7432 10.1426C 15.7432 8.94401 15.0915 8.34473 13.7881 8.34473L 11.6006 8.34473ZM 11.6006 7.29199L 13.583 7.29199C 14.1572 7.29199 14.6152 7.14844 14.957 6.86133C 15.3034 6.57422 15.4766 6.18457 15.4766 5.69238C 15.4766 5.14551 15.3171 4.74902 14.998 4.50293C 14.679 4.25228 14.1937 4.12695 13.542 4.12695L 11.6006 4.12695L 11.6006 7.29199Z"/>
<path id="path9_fill" d="M 6.74023 7.43555L 1.03906 7.43555L 1.03906 6.33496L 6.74023 6.33496L 6.74023 7.43555ZM 6.74023 10.2725L 1.03906 10.2725L 1.03906 9.17871L 6.74023 9.17871L 6.74023 10.2725Z"/>
<path id="path10_fill" d="M 11.8535 8.75488C 11.8535 10.236 11.6006 11.3366 11.0947 12.0566C 10.5889 12.7767 9.79818 13.1367 8.72266 13.1367C 7.66081 13.1367 6.87467 12.7858 6.36426 12.084C 5.85384 11.3776 5.58952 10.3249 5.57129 8.92578L 5.57129 7.2373C 5.57129 5.77441 5.82422 4.6875 6.33008 3.97656C 6.83594 3.26562 7.62891 2.91016 8.70898 2.91016C 9.77995 2.91016 10.5684 3.25423 11.0742 3.94238C 11.5801 4.62598 11.8398 5.68327 11.8535 7.11426L 11.8535 8.75488ZM 10.5889 7.02539C 10.5889 5.95443 10.4385 5.17513 10.1377 4.6875C 9.83691 4.19531 9.36068 3.94922 8.70898 3.94922C 8.06185 3.94922 7.59017 4.19303 7.29395 4.68066C 6.99772 5.16829 6.84505 5.91797 6.83594 6.92969L 6.83594 8.95312C 6.83594 10.0286 6.99089 10.8239 7.30078 11.3389C 7.61523 11.8493 8.08919 12.1045 8.72266 12.1045C 9.34701 12.1045 9.80957 11.863 10.1104 11.3799C 10.4157 10.8968 10.5752 10.1357 10.5889 9.09668L 10.5889 7.02539ZM 13.6309 12.3369C 13.6309 12.1182 13.6947 11.9359 13.8223 11.79C 13.9544 11.6442 14.1504 11.5713 14.4102 11.5713C 14.6699 11.5713 14.8659 11.6442 14.998 11.79C 15.1348 11.9359 15.2031 12.1182 15.2031 12.3369C 15.2031 12.5465 15.1348 12.722 14.998 12.8633C 14.8659 13.0046 14.6699 13.0752 14.4102 13.0752C 14.1504 13.0752 13.9544 13.0046 13.8223 12.8633C 13.6947 12.722 13.6309 12.5465 13.6309 12.3369ZM 23.5908 3.75781L 19.4688 13L 18.1426 13L 22.251 4.08594L 16.8643 4.08594L 16.8643 3.04688L 23.5908 3.04688L 23.5908 3.75781ZM 48.6992 7.4082L 49.6494 7.4082C 50.2464 7.39909 50.7158 7.24186 51.0576 6.93652C 51.3994 6.63118 51.5703 6.21875 51.5703 5.69922C 51.5703 4.53255 50.9893 3.94922 49.8271 3.94922C 49.2803 3.94922 48.8428 4.10645 48.5146 4.4209C 48.1911 4.73079 48.0293 5.14323 48.0293 5.6582L 46.7646 5.6582C 46.7646 4.86979 47.0518 4.21582 47.626 3.69629C 48.2048 3.1722 48.9385 2.91016 49.8271 2.91016C 50.766 2.91016 51.502 3.15853 52.0352 3.65527C 52.5684 4.15202 52.835 4.84245 52.835 5.72656C 52.835 6.15951 52.6937 6.57878 52.4111 6.98438C 52.1331 7.38997 51.7526 7.69303 51.2695 7.89355C 51.8164 8.06673 52.238 8.35384 52.5342 8.75488C 52.835 9.15592 52.9854 9.64583 52.9854 10.2246C 52.9854 11.1178 52.6937 11.8265 52.1104 12.3506C 51.527 12.8747 50.7682 13.1367 49.834 13.1367C 48.8997 13.1367 48.1387 12.8838 47.5508 12.3779C 46.9674 11.8721 46.6758 11.2044 46.6758 10.375L 47.9473 10.375C 47.9473 10.8991 48.1182 11.3184 48.46 11.6328C 48.8018 11.9473 49.2598 12.1045 49.834 12.1045C 50.4447 12.1045 50.9118 11.945 51.2354 11.626C 51.5589 11.307 51.7207 10.849 51.7207 10.252C 51.7207 9.67318 51.543 9.22884 51.1875 8.91895C 50.832 8.60905 50.3193 8.44954 49.6494 8.44043L 48.6992 8.44043L 48.6992 7.4082ZM 105.342 8.75488C 105.342 10.236 105.089 11.3366 104.583 12.0566C 104.077 12.7767 103.286 13.1367 102.211 13.1367C 101.149 13.1367 100.363 12.7858 99.8525 12.084C 99.3421 11.3776 99.0778 10.3249 99.0596 8.92578L 99.0596 7.2373C 99.0596 5.77441 99.3125 4.6875 99.8184 3.97656C 100.324 3.26562 101.117 2.91016 102.197 2.91016C 103.268 2.91016 104.057 3.25423 104.562 3.94238C 105.068 4.62598 105.328 5.68327 105.342 7.11426L 105.342 8.75488ZM 104.077 7.02539C 104.077 5.95443 103.927 5.17513 103.626 4.6875C 103.325 4.19531 102.849 3.94922 102.197 3.94922C 101.55 3.94922 101.078 4.19303 100.782 4.68066C 100.486 5.16829 100.333 5.91797 100.324 6.92969L 100.324 8.95312C 100.324 10.0286 100.479 10.8239 100.789 11.3389C 101.104 11.8493 101.577 12.1045 102.211 12.1045C 102.835 12.1045 103.298 11.863 103.599 11.3799C 103.904 10.8968 104.063 10.1357 104.077 9.09668L 104.077 7.02539ZM 107.119 12.3369C 107.119 12.1182 107.183 11.9359 107.311 11.79C 107.443 11.6442 107.639 11.5713 107.898 11.5713C 108.158 11.5713 108.354 11.6442 108.486 11.79C 108.623 11.9359 108.691 12.1182 108.691 12.3369C 108.691 12.5465 108.623 12.722 108.486 12.8633C 108.354 13.0046 108.158 13.0752 107.898 13.0752C 107.639 13.0752 107.443 13.0046 107.311 12.8633C 107.183 12.722 107.119 12.5465 107.119 12.3369ZM 117.079 3.75781L 112.957 13L 111.631 13L 115.739 4.08594L 110.353 4.08594L 110.353 3.04688L 117.079 3.04688L 117.079 3.75781ZM 149.133 7.4082L 150.083 7.4082C 150.68 7.39909 151.149 7.24186 151.491 6.93652C 151.833 6.63118 152.004 6.21875 152.004 5.69922C 152.004 4.53255 151.423 3.94922 150.261 3.94922C 149.714 3.94922 149.276 4.10645 148.948 4.4209C 148.625 4.73079 148.463 5.14323 148.463 5.6582L 147.198 5.6582C 147.198 4.86979 147.485 4.21582 148.06 3.69629C 148.638 3.1722 149.372 2.91016 150.261 2.91016C 151.2 2.91016 151.936 3.15853 152.469 3.65527C 153.002 4.15202 153.269 4.84245 153.269 5.72656C 153.269 6.15951 153.127 6.57878 152.845 6.98438C 152.567 7.38997 152.186 7.69303 151.703 7.89355C 152.25 8.06673 152.672 8.35384 152.968 8.75488C 153.269 9.15592 153.419 9.64583 153.419 10.2246C 153.419 11.1178 153.127 11.8265 152.544 12.3506C 151.961 12.8747 151.202 13.1367 150.268 13.1367C 149.333 13.1367 148.572 12.8838 147.984 12.3779C 147.401 11.8721 147.109 11.2044 147.109 10.375L 148.381 10.375C 148.381 10.8991 148.552 11.3184 148.894 11.6328C 149.235 11.9473 149.693 12.1045 150.268 12.1045C 150.878 12.1045 151.345 11.945 151.669 11.626C 151.993 11.307 152.154 10.849 152.154 10.252C 152.154 9.67318 151.977 9.22884 151.621 8.91895C 151.266 8.60905 150.753 8.44954 150.083 8.44043L 149.133 8.44043L 149.133 7.4082ZM 9.76855 29L 8.49707 29L 8.49707 20.5713L 5.94727 21.5078L 5.94727 20.3594L 9.57031 18.999L 9.76855 18.999L 9.76855 29ZM 13.6309 28.3369C 13.6309 28.1182 13.6947 27.9359 13.8223 27.79C 13.9544 27.6442 14.1504 27.5713 14.4102 27.5713C 14.6699 27.5713 14.8659 27.6442 14.998 27.79C 15.1348 27.9359 15.2031 28.1182 15.2031 28.3369C 15.2031 28.5465 15.1348 28.722 14.998 28.8633C 14.8659 29.0046 14.6699 29.0752 14.4102 29.0752C 14.1504 29.0752 13.9544 29.0046 13.8223 28.8633C 13.6947 28.722 13.6309 28.5465 13.6309 28.3369ZM 23.5908 19.7578L 19.4688 29L 18.1426 29L 22.251 20.0859L 16.8643 20.0859L 16.8643 19.0469L 23.5908 19.0469L 23.5908 19.7578ZM 53.3818 29L 46.8604 29L 46.8604 28.0908L 50.3057 24.2627C 50.8161 23.6839 51.167 23.2145 51.3584 22.8545C 51.5544 22.4899 51.6523 22.1139 51.6523 21.7266C 51.6523 21.207 51.4951 20.7809 51.1807 20.4482C 50.8662 20.1156 50.4469 19.9492 49.9229 19.9492C 49.2939 19.9492 48.804 20.1292 48.4531 20.4893C 48.1068 20.8447 47.9336 21.3415 47.9336 21.9795L 46.6689 21.9795C 46.6689 21.0635 46.9629 20.3229 47.5508 19.7578C 48.1432 19.1927 48.9339 18.9102 49.9229 18.9102C 50.848 18.9102 51.5794 19.154 52.1172 19.6416C 52.6549 20.1247 52.9238 20.7695 52.9238 21.5762C 52.9238 22.556 52.2995 23.7227 51.0508 25.0762L 48.3848 27.9678L 53.3818 27.9678L 53.3818 29ZM 103.257 29L 101.985 29L 101.985 20.5713L 99.4355 21.5078L 99.4355 20.3594L 103.059 18.999L 103.257 18.999L 103.257 29ZM 107.119 28.3369C 107.119 28.1182 107.183 27.9359 107.311 27.79C 107.443 27.6442 107.639 27.5713 107.898 27.5713C 108.158 27.5713 108.354 27.6442 108.486 27.79C 108.623 27.9359 108.691 28.1182 108.691 28.3369C 108.691 28.5465 108.623 28.722 108.486 28.8633C 108.354 29.0046 108.158 29.0752 107.898 29.0752C 107.639 29.0752 107.443 29.0046 107.311 28.8633C 107.183 28.722 107.119 28.5465 107.119 28.3369ZM 117.079 19.7578L 112.957 29L 111.631 29L 115.739 20.0859L 110.353 20.0859L 110.353 19.0469L 117.079 19.0469L 117.079 19.7578ZM 153.815 29L 147.294 29L 147.294 28.0908L 150.739 24.2627C 151.25 23.6839 151.601 23.2145 151.792 22.8545C 151.988 22.4899 152.086 22.1139 152.086 21.7266C 152.086 21.207 151.929 20.7809 151.614 20.4482C 151.3 20.1156 150.881 19.9492 150.356 19.9492C 149.728 19.9492 149.238 20.1292 148.887 20.4893C 148.54 20.8447 148.367 21.3415 148.367 21.9795L 147.103 21.9795C 147.103 21.0635 147.396 20.3229 147.984 19.7578C 148.577 19.1927 149.368 18.9102 150.356 18.9102C 151.282 18.9102 152.013 19.154 152.551 19.6416C 153.089 20.1247 153.357 20.7695 153.357 21.5762C 153.357 22.556 152.733 23.7227 151.484 25.0762L 148.818 27.9678L 153.815 27.9678L 153.815 29Z"/>
<path id="path11_fill" d="M 0.90918 8.95996C 0.90918 7.93001 1.0459 6.94108 1.31934 5.99316C 1.59733 5.04525 2.00977 4.18392 2.55664 3.40918C 3.10352 2.63444 3.6709 2.08757 4.25879 1.76855L 4.51855 2.60254C 3.85319 3.11296 3.30632 3.89225 2.87793 4.94043C 2.4541 5.98861 2.22168 7.16211 2.18066 8.46094L 2.17383 9.04199C 2.17383 10.8011 2.49512 12.3278 3.1377 13.6221C 3.52507 14.3968 3.98535 15.0029 4.51855 15.4404L 4.25879 16.2129C 3.65267 15.8757 3.07389 15.3105 2.52246 14.5176C 1.44694 12.9681 0.90918 11.1156 0.90918 8.95996ZM 26.4551 6.28027L 24.3906 5.66504L 24.7051 4.63281L 26.7695 5.39844L 26.708 3.04688L 27.7539 3.04688L 27.6855 5.43262L 29.7158 4.68066L 30.0303 5.71973L 27.9316 6.3418L 29.2852 8.19434L 28.4375 8.83691L 27.166 6.86816L 25.9355 8.78906L 25.0811 8.16699L 26.4551 6.28027ZM 35.2119 13L 33.9404 13L 33.9404 4.57129L 31.3906 5.50781L 31.3906 4.35938L 35.0137 2.99902L 35.2119 2.99902L 35.2119 13ZM 42.6699 7.66113L 45.4453 7.66113L 45.4453 8.85742L 42.6699 8.85742L 42.6699 12.002L 41.3984 12.002L 41.3984 8.85742L 38.623 8.85742L 38.623 7.66113L 41.3984 7.66113L 41.3984 4.75586L 42.6699 4.75586L 42.6699 7.66113ZM 56.1504 6.28027L 54.0859 5.66504L 54.4004 4.63281L 56.4648 5.39844L 56.4033 3.04688L 57.4492 3.04688L 57.3809 5.43262L 59.4111 4.68066L 59.7256 5.71973L 57.627 6.3418L 58.9805 8.19434L 58.1328 8.83691L 56.8613 6.86816L 55.6309 8.78906L 54.7764 8.16699L 56.1504 6.28027ZM 67.2725 13L 60.751 13L 60.751 12.0908L 64.1963 8.2627C 64.7067 7.68392 65.0576 7.21452 65.249 6.85449C 65.445 6.48991 65.543 6.11393 65.543 5.72656C 65.543 5.20703 65.3857 4.78092 65.0713 4.44824C 64.7568 4.11556 64.3376 3.94922 63.8135 3.94922C 63.1846 3.94922 62.6947 4.12923 62.3438 4.48926C 61.9974 4.84473 61.8242 5.34147 61.8242 5.97949L 60.5596 5.97949C 60.5596 5.06348 60.8535 4.32292 61.4414 3.75781C 62.0339 3.19271 62.8245 2.91016 63.8135 2.91016C 64.7386 2.91016 65.4701 3.15397 66.0078 3.6416C 66.5456 4.12467 66.8145 4.76953 66.8145 5.57617C 66.8145 6.55599 66.1901 7.72266 64.9414 9.07617L 62.2754 11.9678L 67.2725 11.9678L 67.2725 13ZM 71.6611 9.02832C 71.6611 10.0446 71.5267 11.0199 71.2578 11.9541C 70.9935 12.8838 70.5856 13.7428 70.0342 14.5312C 69.4873 15.3197 68.9131 15.8802 68.3115 16.2129L 68.0449 15.4404C 68.7467 14.9027 69.3096 14.0687 69.7334 12.9385C 70.1618 11.8037 70.3805 10.5459 70.3896 9.16504L 70.3896 8.94629C 70.3896 7.98926 70.2894 7.10059 70.0889 6.28027C 69.8883 5.4554 69.6081 4.71712 69.248 4.06543C 68.8926 3.41374 68.4915 2.9056 68.0449 2.54102L 68.3115 1.76855C 68.9131 2.10124 69.485 2.65723 70.0273 3.43652C 70.5742 4.21582 70.9821 5.07487 71.251 6.01367C 71.5244 6.95247 71.6611 7.95736 71.6611 9.02832ZM 94.3975 8.95996C 94.3975 7.93001 94.5342 6.94108 94.8076 5.99316C 95.0856 5.04525 95.498 4.18392 96.0449 3.40918C 96.5918 2.63444 97.1592 2.08757 97.7471 1.76855L 98.0068 2.60254C 97.3415 3.11296 96.7946 3.89225 96.3662 4.94043C 95.9424 5.98861 95.71 7.16211 95.6689 8.46094L 95.6621 9.04199C 95.6621 10.8011 95.9834 12.3278 96.626 13.6221C 97.0133 14.3968 97.4736 15.0029 98.0068 15.4404L 97.7471 16.2129C 97.141 15.8757 96.5622 15.3105 96.0107 14.5176C 94.9352 12.9681 94.3975 11.1156 94.3975 8.95996ZM 119.943 6.28027L 117.879 5.66504L 118.193 4.63281L 120.258 5.39844L 120.196 3.04688L 121.242 3.04688L 121.174 5.43262L 123.204 4.68066L 123.519 5.71973L 121.42 6.3418L 122.773 8.19434L 121.926 8.83691L 120.654 6.86816L 119.424 8.78906L 118.569 8.16699L 119.943 6.28027ZM 131.065 13L 124.544 13L 124.544 12.0908L 127.989 8.2627C 128.5 7.68392 128.851 7.21452 129.042 6.85449C 129.238 6.48991 129.336 6.11393 129.336 5.72656C 129.336 5.20703 129.179 4.78092 128.864 4.44824C 128.55 4.11556 128.131 3.94922 127.606 3.94922C 126.978 3.94922 126.488 4.12923 126.137 4.48926C 125.79 4.84473 125.617 5.34147 125.617 5.97949L 124.353 5.97949C 124.353 5.06348 124.646 4.32292 125.234 3.75781C 125.827 3.19271 126.618 2.91016 127.606 2.91016C 128.532 2.91016 129.263 3.15397 129.801 3.6416C 130.339 4.12467 130.607 4.76953 130.607 5.57617C 130.607 6.55599 129.983 7.72266 128.734 9.07617L 126.068 11.9678L 131.065 11.9678L 131.065 13ZM 139.631 7.66113L 142.406 7.66113L 142.406 8.85742L 139.631 8.85742L 139.631 12.002L 138.359 12.002L 138.359 8.85742L 135.584 8.85742L 135.584 7.66113L 138.359 7.66113L 138.359 4.75586L 139.631 4.75586L 139.631 7.66113ZM 156.584 6.28027L 154.52 5.66504L 154.834 4.63281L 156.898 5.39844L 156.837 3.04688L 157.883 3.04688L 157.814 5.43262L 159.845 4.68066L 160.159 5.71973L 158.061 6.3418L 159.414 8.19434L 158.566 8.83691L 157.295 6.86816L 156.064 8.78906L 155.21 8.16699L 156.584 6.28027ZM 163.023 7.4082L 163.974 7.4082C 164.571 7.39909 165.04 7.24186 165.382 6.93652C 165.724 6.63118 165.895 6.21875 165.895 5.69922C 165.895 4.53255 165.313 3.94922 164.151 3.94922C 163.604 3.94922 163.167 4.10645 162.839 4.4209C 162.515 4.73079 162.354 5.14323 162.354 5.6582L 161.089 5.6582C 161.089 4.86979 161.376 4.21582 161.95 3.69629C 162.529 3.1722 163.263 2.91016 164.151 2.91016C 165.09 2.91016 165.826 3.15853 166.359 3.65527C 166.893 4.15202 167.159 4.84245 167.159 5.72656C 167.159 6.15951 167.018 6.57878 166.735 6.98438C 166.457 7.38997 166.077 7.69303 165.594 7.89355C 166.141 8.06673 166.562 8.35384 166.858 8.75488C 167.159 9.15592 167.31 9.64583 167.31 10.2246C 167.31 11.1178 167.018 11.8265 166.435 12.3506C 165.851 12.8747 165.092 13.1367 164.158 13.1367C 163.224 13.1367 162.463 12.8838 161.875 12.3779C 161.292 11.8721 161 11.2044 161 10.375L 162.271 10.375C 162.271 10.8991 162.442 11.3184 162.784 11.6328C 163.126 11.9473 163.584 12.1045 164.158 12.1045C 164.769 12.1045 165.236 11.945 165.56 11.626C 165.883 11.307 166.045 10.849 166.045 10.252C 166.045 9.67318 165.867 9.22884 165.512 8.91895C 165.156 8.60905 164.644 8.44954 163.974 8.44043L 163.023 8.44043L 163.023 7.4082ZM 172.095 9.02832C 172.095 10.0446 171.96 11.0199 171.691 11.9541C 171.427 12.8838 171.019 13.7428 170.468 14.5312C 169.921 15.3197 169.347 15.8802 168.745 16.2129L 168.479 15.4404C 169.18 14.9027 169.743 14.0687 170.167 12.9385C 170.595 11.8037 170.814 10.5459 170.823 9.16504L 170.823 8.94629C 170.823 7.98926 170.723 7.10059 170.522 6.28027C 170.322 5.4554 170.042 4.71712 169.682 4.06543C 169.326 3.41374 168.925 2.9056 168.479 2.54102L 168.745 1.76855C 169.347 2.10124 169.919 2.65723 170.461 3.43652C 171.008 4.21582 171.416 5.07487 171.685 6.01367C 171.958 6.95247 172.095 7.95736 172.095 9.02832ZM 0.90918 24.96C 0.90918 23.93 1.0459 22.9411 1.31934 21.9932C 1.59733 21.0452 2.00977 20.1839 2.55664 19.4092C 3.10352 18.6344 3.6709 18.0876 4.25879 17.7686L 4.51855 18.6025C 3.85319 19.113 3.30632 19.8923 2.87793 20.9404C 2.4541 21.9886 2.22168 23.1621 2.18066 24.4609L 2.17383 25.042C 2.17383 26.8011 2.49512 28.3278 3.1377 29.6221C 3.52507 30.3968 3.98535 31.0029 4.51855 31.4404L 4.25879 32.2129C 3.65267 31.8757 3.07389 31.3105 2.52246 30.5176C 1.44694 28.9681 0.90918 27.1156 0.90918 24.96ZM 26.4551 22.2803L 24.3906 21.665L 24.7051 20.6328L 26.7695 21.3984L 26.708 19.0469L 27.7539 19.0469L 27.6855 21.4326L 29.7158 20.6807L 30.0303 21.7197L 27.9316 22.3418L 29.2852 24.1943L 28.4375 24.8369L 27.166 22.8682L 25.9355 24.7891L 25.0811 24.167L 26.4551 22.2803ZM 35.2119 29L 33.9404 29L 33.9404 20.5713L 31.3906 21.5078L 31.3906 20.3594L 35.0137 18.999L 35.2119 18.999L 35.2119 29ZM 42.6699 23.6611L 45.4453 23.6611L 45.4453 24.8574L 42.6699 24.8574L 42.6699 28.002L 41.3984 28.002L 41.3984 24.8574L 38.623 24.8574L 38.623 23.6611L 41.3984 23.6611L 41.3984 20.7559L 42.6699 20.7559L 42.6699 23.6611ZM 56.1504 22.2803L 54.0859 21.665L 54.4004 20.6328L 56.4648 21.3984L 56.4033 19.0469L 57.4492 19.0469L 57.3809 21.4326L 59.4111 20.6807L 59.7256 21.7197L 57.627 22.3418L 58.9805 24.1943L 58.1328 24.8369L 56.8613 22.8682L 55.6309 24.7891L 54.7764 24.167L 56.1504 22.2803ZM 67.2725 29L 60.751 29L 60.751 28.0908L 64.1963 24.2627C 64.7067 23.6839 65.0576 23.2145 65.249 22.8545C 65.445 22.4899 65.543 22.1139 65.543 21.7266C 65.543 21.207 65.3857 20.7809 65.0713 20.4482C 64.7568 20.1156 64.3376 19.9492 63.8135 19.9492C 63.1846 19.9492 62.6947 20.1292 62.3438 20.4893C 61.9974 20.8447 61.8242 21.3415 61.8242 21.9795L 60.5596 21.9795C 60.5596 21.0635 60.8535 20.3229 61.4414 19.7578C 62.0339 19.1927 62.8245 18.9102 63.8135 18.9102C 64.7386 18.9102 65.4701 19.154 66.0078 19.6416C 66.5456 20.1247 66.8145 20.7695 66.8145 21.5762C 66.8145 22.556 66.1901 23.7227 64.9414 25.0762L 62.2754 27.9678L 67.2725 27.9678L 67.2725 29ZM 71.6611 25.0283C 71.6611 26.0446 71.5267 27.0199 71.2578 27.9541C 70.9935 28.8838 70.5856 29.7428 70.0342 30.5312C 69.4873 31.3197 68.9131 31.8802 68.3115 32.2129L 68.0449 31.4404C 68.7467 30.9027 69.3096 30.0687 69.7334 28.9385C 70.1618 27.8037 70.3805 26.5459 70.3896 25.165L 70.3896 24.9463C 70.3896 23.9893 70.2894 23.1006 70.0889 22.2803C 69.8883 21.4554 69.6081 20.7171 69.248 20.0654C 68.8926 19.4137 68.4915 18.9056 68.0449 18.541L 68.3115 17.7686C 68.9131 18.1012 69.485 18.6572 70.0273 19.4365C 70.5742 20.2158 70.9821 21.0749 71.251 22.0137C 71.5244 22.9525 71.6611 23.9574 71.6611 25.0283ZM 94.3975 24.96C 94.3975 23.93 94.5342 22.9411 94.8076 21.9932C 95.0856 21.0452 95.498 20.1839 96.0449 19.4092C 96.5918 18.6344 97.1592 18.0876 97.7471 17.7686L 98.0068 18.6025C 97.3415 19.113 96.7946 19.8923 96.3662 20.9404C 95.9424 21.9886 95.71 23.1621 95.6689 24.4609L 95.6621 25.042C 95.6621 26.8011 95.9834 28.3278 96.626 29.6221C 97.0133 30.3968 97.4736 31.0029 98.0068 31.4404L 97.7471 32.2129C 97.141 31.8757 96.5622 31.3105 96.0107 30.5176C 94.9352 28.9681 94.3975 27.1156 94.3975 24.96ZM 119.943 22.2803L 117.879 21.665L 118.193 20.6328L 120.258 21.3984L 120.196 19.0469L 121.242 19.0469L 121.174 21.4326L 123.204 20.6807L 123.519 21.7197L 121.42 22.3418L 122.773 24.1943L 121.926 24.8369L 120.654 22.8682L 119.424 24.7891L 118.569 24.167L 119.943 22.2803ZM 131.065 29L 124.544 29L 124.544 28.0908L 127.989 24.2627C 128.5 23.6839 128.851 23.2145 129.042 22.8545C 129.238 22.4899 129.336 22.1139 129.336 21.7266C 129.336 21.207 129.179 20.7809 128.864 20.4482C 128.55 20.1156 128.131 19.9492 127.606 19.9492C 126.978 19.9492 126.488 20.1292 126.137 20.4893C 125.79 20.8447 125.617 21.3415 125.617 21.9795L 124.353 21.9795C 124.353 21.0635 124.646 20.3229 125.234 19.7578C 125.827 19.1927 126.618 18.9102 127.606 18.9102C 128.532 18.9102 129.263 19.154 129.801 19.6416C 130.339 20.1247 130.607 20.7695 130.607 21.5762C 130.607 22.556 129.983 23.7227 128.734 25.0762L 126.068 27.9678L 131.065 27.9678L 131.065 29ZM 139.631 23.6611L 142.406 23.6611L 142.406 24.8574L 139.631 24.8574L 139.631 28.002L 138.359 28.002L 138.359 24.8574L 135.584 24.8574L 135.584 23.6611L 138.359 23.6611L 138.359 20.7559L 139.631 20.7559L 139.631 23.6611ZM 156.584 22.2803L 154.52 21.665L 154.834 20.6328L 156.898 21.3984L 156.837 19.0469L 157.883 19.0469L 157.814 21.4326L 159.845 20.6807L 160.159 21.7197L 158.061 22.3418L 159.414 24.1943L 158.566 24.8369L 157.295 22.8682L 156.064 24.7891L 155.21 24.167L 156.584 22.2803ZM 163.023 23.4082L 163.974 23.4082C 164.571 23.3991 165.04 23.2419 165.382 22.9365C 165.724 22.6312 165.895 22.2188 165.895 21.6992C 165.895 20.5326 165.313 19.9492 164.151 19.9492C 163.604 19.9492 163.167 20.1064 162.839 20.4209C 162.515 20.7308 162.354 21.1432 162.354 21.6582L 161.089 21.6582C 161.089 20.8698 161.376 20.2158 161.95 19.6963C 162.529 19.1722 163.263 18.9102 164.151 18.9102C 165.09 18.9102 165.826 19.1585 166.359 19.6553C 166.893 20.152 167.159 20.8424 167.159 21.7266C 167.159 22.1595 167.018 22.5788 166.735 22.9844C 166.457 23.39 166.077 23.693 165.594 23.8936C 166.141 24.0667 166.562 24.3538 166.858 24.7549C 167.159 25.1559 167.31 25.6458 167.31 26.2246C 167.31 27.1178 167.018 27.8265 166.435 28.3506C 165.851 28.8747 165.092 29.1367 164.158 29.1367C 163.224 29.1367 162.463 28.8838 161.875 28.3779C 161.292 27.8721 161 27.2044 161 26.375L 162.271 26.375C 162.271 26.8991 162.442 27.3184 162.784 27.6328C 163.126 27.9473 163.584 28.1045 164.158 28.1045C 164.769 28.1045 165.236 27.945 165.56 27.626C 165.883 27.307 166.045 26.849 166.045 26.252C 166.045 25.6732 165.867 25.2288 165.512 24.9189C 165.156 24.609 164.644 24.4495 163.974 24.4404L 163.023 24.4404L 163.023 23.4082ZM 172.095 25.0283C 172.095 26.0446 171.96 27.0199 171.691 27.9541C 171.427 28.8838 171.019 29.7428 170.468 30.5312C 169.921 31.3197 169.347 31.8802 168.745 32.2129L 168.479 31.4404C 169.18 30.9027 169.743 30.0687 170.167 28.9385C 170.595 27.8037 170.814 26.5459 170.823 25.165L 170.823 24.9463C 170.823 23.9893 170.723 23.1006 170.522 22.2803C 170.322 21.4554 170.042 20.7171 169.682 20.0654C 169.326 19.4137 168.925 18.9056 168.479 18.541L 168.745 17.7686C 169.347 18.1012 169.919 18.6572 170.461 19.4365C 171.008 20.2158 171.416 21.0749 171.685 22.0137C 171.958 22.9525 172.095 23.9574 172.095 25.0283Z"/>
<path id="path12_fill" d="M 5.79004 3.04004L 5.79004 4.11328L 5.55762 4.11328C 4.57324 4.13151 3.78939 4.42318 3.20605 4.98828C 2.62272 5.55339 2.28548 6.34863 2.19434 7.37402C 2.71842 6.77246 3.43392 6.47168 4.34082 6.47168C 5.20671 6.47168 5.89714 6.77702 6.41211 7.3877C 6.93164 7.99837 7.19141 8.78678 7.19141 9.75293C 7.19141 10.7783 6.91113 11.5986 6.35059 12.2139C 5.7946 12.8291 5.0472 13.1367 4.1084 13.1367C 3.15592 13.1367 2.38346 12.7721 1.79102 12.043C 1.19857 11.3092 0.902344 10.3659 0.902344 9.21289L 0.902344 8.72754C 0.902344 6.89551 1.29199 5.49642 2.07129 4.53027C 2.85514 3.55957 4.01953 3.06283 5.56445 3.04004L 5.79004 3.04004ZM 4.12891 7.52441C 3.69596 7.52441 3.2972 7.6543 2.93262 7.91406C 2.56803 8.17383 2.3151 8.49967 2.17383 8.8916L 2.17383 9.35645C 2.17383 10.1768 2.3584 10.8376 2.72754 11.3389C 3.09668 11.8402 3.55697 12.0908 4.1084 12.0908C 4.67806 12.0908 5.12467 11.8812 5.44824 11.4619C 5.77637 11.0426 5.94043 10.4935 5.94043 9.81445C 5.94043 9.13086 5.77409 8.57943 5.44141 8.16016C 5.11328 7.73633 4.67578 7.52441 4.12891 7.52441ZM 8.8457 12.3369C 8.8457 12.1182 8.90951 11.9359 9.03711 11.79C 9.16927 11.6442 9.36523 11.5713 9.625 11.5713C 9.88477 11.5713 10.0807 11.6442 10.2129 11.79C 10.3496 11.9359 10.418 12.1182 10.418 12.3369C 10.418 12.5465 10.3496 12.722 10.2129 12.8633C 10.0807 13.0046 9.88477 13.0752 9.625 13.0752C 9.36523 13.0752 9.16927 13.0046 9.03711 12.8633C 8.90951 12.722 8.8457 12.5465 8.8457 12.3369ZM 18.8057 3.75781L 14.6836 13L 13.3574 13L 17.4658 4.08594L 12.0791 4.08594L 12.0791 3.04688L 18.8057 3.04688L 18.8057 3.75781ZM 34.8154 13L 33.5439 13L 33.5439 4.57129L 30.9941 5.50781L 30.9941 4.35938L 34.6172 2.99902L 34.8154 2.99902L 34.8154 13ZM 44.7617 8.75488C 44.7617 10.236 44.5088 11.3366 44.0029 12.0566C 43.4971 12.7767 42.7064 13.1367 41.6309 13.1367C 40.569 13.1367 39.7829 12.7858 39.2725 12.084C 38.762 11.3776 38.4977 10.3249 38.4795 8.92578L 38.4795 7.2373C 38.4795 5.77441 38.7324 4.6875 39.2383 3.97656C 39.7441 3.26562 40.5371 2.91016 41.6172 2.91016C 42.6882 2.91016 43.4766 3.25423 43.9824 3.94238C 44.4883 4.62598 44.748 5.68327 44.7617 7.11426L 44.7617 8.75488ZM 43.4971 7.02539C 43.4971 5.95443 43.3467 5.17513 43.0459 4.6875C 42.7451 4.19531 42.2689 3.94922 41.6172 3.94922C 40.9701 3.94922 40.4984 4.19303 40.2021 4.68066C 39.9059 5.16829 39.7533 5.91797 39.7441 6.92969L 39.7441 8.95312C 39.7441 10.0286 39.8991 10.8239 40.209 11.3389C 40.5234 11.8493 40.9974 12.1045 41.6309 12.1045C 42.2552 12.1045 42.7178 11.863 43.0186 11.3799C 43.3239 10.8968 43.4834 10.1357 43.4971 9.09668L 43.4971 7.02539ZM 46.5391 12.3369C 46.5391 12.1182 46.6029 11.9359 46.7305 11.79C 46.8626 11.6442 47.0586 11.5713 47.3184 11.5713C 47.5781 11.5713 47.7741 11.6442 47.9062 11.79C 48.043 11.9359 48.1113 12.1182 48.1113 12.3369C 48.1113 12.5465 48.043 12.722 47.9062 12.8633C 47.7741 13.0046 47.5781 13.0752 47.3184 13.0752C 47.0586 13.0752 46.8626 13.0046 46.7305 12.8633C 46.6029 12.722 46.5391 12.5465 46.5391 12.3369ZM 55.4121 9.65723L 56.793 9.65723L 56.793 10.6895L 55.4121 10.6895L 55.4121 13L 54.1406 13L 54.1406 10.6895L 49.6084 10.6895L 49.6084 9.94434L 54.0654 3.04688L 55.4121 3.04688L 55.4121 9.65723ZM 51.0439 9.65723L 54.1406 9.65723L 54.1406 4.77637L 53.9902 5.0498L 51.0439 9.65723ZM 1.4082 24.0098L 1.91406 19.0469L 7.01367 19.0469L 7.01367 20.2158L 2.9873 20.2158L 2.68652 22.9297C 3.17415 22.6426 3.72786 22.499 4.34766 22.499C 5.25456 22.499 5.97461 22.7998 6.50781 23.4014C 7.04102 23.9984 7.30762 24.8073 7.30762 25.8281C 7.30762 26.8535 7.02962 27.6624 6.47363 28.2549C 5.9222 28.8428 5.14974 29.1367 4.15625 29.1367C 3.27669 29.1367 2.55892 28.8929 2.00293 28.4053C 1.44694 27.9176 1.13021 27.2432 1.05273 26.3818L 2.24902 26.3818C 2.3265 26.9515 2.5293 27.3822 2.85742 27.6738C 3.18555 27.9609 3.61849 28.1045 4.15625 28.1045C 4.74414 28.1045 5.20443 27.904 5.53711 27.5029C 5.87435 27.1019 6.04297 26.5482 6.04297 25.8418C 6.04297 25.1764 5.86068 24.6432 5.49609 24.2422C 5.13607 23.8366 4.65527 23.6338 4.05371 23.6338C 3.50228 23.6338 3.06934 23.7546 2.75488 23.9961L 2.41992 24.2695L 1.4082 24.0098ZM 8.8457 28.3369C 8.8457 28.1182 8.90951 27.9359 9.03711 27.79C 9.16927 27.6442 9.36523 27.5713 9.625 27.5713C 9.88477 27.5713 10.0807 27.6442 10.2129 27.79C 10.3496 27.9359 10.418 28.1182 10.418 28.3369C 10.418 28.5465 10.3496 28.722 10.2129 28.8633C 10.0807 29.0046 9.88477 29.0752 9.625 29.0752C 9.36523 29.0752 9.16927 29.0046 9.03711 28.8633C 8.90951 28.722 8.8457 28.5465 8.8457 28.3369ZM 18.8057 19.7578L 14.6836 29L 13.3574 29L 17.4658 20.0859L 12.0791 20.0859L 12.0791 19.0469L 18.8057 19.0469L 18.8057 19.7578ZM 38.9785 24.625C 38.7142 24.9395 38.3975 25.1924 38.0283 25.3838C 37.6637 25.5752 37.2627 25.6709 36.8252 25.6709C 36.251 25.6709 35.7497 25.5296 35.3213 25.2471C 34.8975 24.9645 34.5693 24.568 34.3369 24.0576C 34.1045 23.5426 33.9883 22.9753 33.9883 22.3555C 33.9883 21.6901 34.1136 21.0908 34.3643 20.5576C 34.6195 20.0244 34.9795 19.6165 35.4443 19.334C 35.9092 19.0514 36.4515 18.9102 37.0713 18.9102C 38.0557 18.9102 38.8304 19.2793 39.3955 20.0176C 39.9652 20.7513 40.25 21.7539 40.25 23.0254L 40.25 23.3945C 40.25 25.3314 39.8672 26.7464 39.1016 27.6396C 38.3359 28.5283 37.1807 28.984 35.6357 29.0068L 35.3896 29.0068L 35.3896 27.9404L 35.6562 27.9404C 36.6999 27.9222 37.502 27.651 38.0625 27.127C 38.623 26.5983 38.9284 25.7643 38.9785 24.625ZM 37.0303 24.625C 37.4541 24.625 37.8438 24.4951 38.1992 24.2354C 38.5592 23.9756 38.8213 23.6543 38.9854 23.2715L 38.9854 22.7656C 38.9854 21.9362 38.8053 21.2617 38.4453 20.7422C 38.0853 20.2227 37.6296 19.9629 37.0781 19.9629C 36.5221 19.9629 36.0755 20.1771 35.7383 20.6055C 35.401 21.0293 35.2324 21.5898 35.2324 22.2871C 35.2324 22.9661 35.3942 23.5267 35.7178 23.9688C 36.0459 24.4062 36.4834 24.625 37.0303 24.625ZM 42.1504 28.3369C 42.1504 28.1182 42.2142 27.9359 42.3418 27.79C 42.474 27.6442 42.6699 27.5713 42.9297 27.5713C 43.1895 27.5713 43.3854 27.6442 43.5176 27.79C 43.6543 27.9359 43.7227 28.1182 43.7227 28.3369C 43.7227 28.5465 43.6543 28.722 43.5176 28.8633C 43.3854 29.0046 43.1895 29.0752 42.9297 29.0752C 42.6699 29.0752 42.474 29.0046 42.3418 28.8633C 42.2142 28.722 42.1504 28.5465 42.1504 28.3369ZM 51.0234 25.6572L 52.4043 25.6572L 52.4043 26.6895L 51.0234 26.6895L 51.0234 29L 49.752 29L 49.752 26.6895L 45.2197 26.6895L 45.2197 25.9443L 49.6768 19.0469L 51.0234 19.0469L 51.0234 25.6572ZM 46.6553 25.6572L 49.752 25.6572L 49.752 20.7764L 49.6016 21.0498L 46.6553 25.6572Z"/>
</defs>
</svg>

