<svg width="467" height="80" viewBox="0 0 467 80" version="1.1" xmlns="http://www.w3.org/2000/svg" xmlns:xlink="http://www.w3.org/1999/xlink" xmlns:figma="http://www.figma.com/figma/ns">
<title>Group</title>
<desc>Created using Figma</desc>
<g id="Canvas" transform="translate(708 -2481)" figma:type="canvas">
<g id="Group" figma:type="frame">
<g id="Component" figma:type="instance">
<g id="Line 2" figma:type="line">
<use xlink:href="#path0_stroke" transform="matrix(8.55488e-32 1 -0.999041 0.0437856 -647 2500)" fill="#333333"/>
</g>
<g id="Line 3" figma:type="line">
<use xlink:href="#path1_stroke" transform="translate(-647 2500)" fill="#333333"/>
</g>
<g id="Line 3" figma:type="line">
<use xlink:href="#path1_stroke" transform="translate(-647 2560)" fill="#333333"/>
</g>
</g>
<g id="Component" figma:type="instance">
<g id="Line 2" figma:type="line">
<use xlink:href="#path0_stroke" transform="matrix(-1.22465e-16 -1 0.999041 -0.0437856 -562 2559)" fill="#333333"/>
</g>
<g id="Line 3" figma:type="line">
<use xlink:href="#path1_stroke" transform="matrix(-1 1.22465e-16 -1.22465e-16 -1 -562 2559)" fill="#333333"/>
</g>
<g id="Line 3" figma:type="line">
<use xlink:href="#path1_stroke" transform="matrix(-1 1.22465e-16 -1.22465e-16 -1 -562 2499)" fill="#333333"/>
</g>
</g>
<g id="0.7 3 9 1.7 2 9 0.7 9 2" figma:type="text">
<use xlink:href="#path2_fill" transform="translate(-635 2505)" fill="#2F80ED"/>
</g>
<g id="A" figma:type="text">
<use xlink:href="#path3_fill" transform="translate(-606 2478)"/>
</g>
<g id="Component" figma:type="instance">
<g id="Line 2" figma:type="line">
<use xlink:href="#path0_stroke" transform="matrix(8.55488e-32 1 -0.999041 0.0437856 -546 2500)" fill="#333333"/>
</g>
<g id="Line 3" figma:type="line">
<use xlink:href="#path1_stroke" transform="translate(-546 2500)" fill="#333333"/>
</g>
<g id="Line 3" figma:type="line">
<use xlink:href="#path1_stroke" transform="translate(-546 2560)" fill="#333333"/>
</g>
</g>
<g id="Component" figma:type="instance">
<g id="Line 2" figma:type="line">
<use xlink:href="#path0_stroke" transform="matrix(-1.22465e-16 -1 0.999041 -0.0437856 -516 2559)" fill="#333333"/>
</g>
<g id="Line 3" figma:type="line">
<use xlink:href="#path1_stroke" transform="matrix(-1 1.22465e-16 -1.22465e-16 -1 -516 2559)" fill="#333333"/>
</g>
<g id="Line 3" figma:type="line">
<use xlink:href="#path1_stroke" transform="matrix(-1 1.22465e-16 -1.22465e-16 -1 -516 2499)" fill="#333333"/>
</g>
</g>
<g id="1 2 1" figma:type="text">
<use xlink:href="#path4_fill" transform="translate(-534 2505)" fill="#333333"/>
</g>
<g id="c" figma:type="text">
<use xlink:href="#path5_fill" transform="translate(-532 2478)"/>
</g>
<g id="Ac" figma:type="text">
<use xlink:href="#path6_fill" transform="translate(-708 2521)"/>
</g>
<g id="=" figma:type="text">
<use xlink:href="#path7_fill" transform="translate(-674 2521)"/>
</g>
<g id="Component" figma:type="instance">
<g id="Line 2" figma:type="line">
<use xlink:href="#path0_stroke" transform="matrix(8.55488e-32 1 -0.999041 0.0437856 -480 2500)" fill="#333333"/>
</g>
<g id="Line 3" figma:type="line">
<use xlink:href="#path1_stroke" transform="translate(-480 2500)" fill="#333333"/>
</g>
<g id="Line 3" figma:type="line">
<use xlink:href="#path1_stroke" transform="translate(-480 2560)" fill="#333333"/>
</g>
</g>
<g id="Component" figma:type="instance">
<g id="Line 2" figma:type="line">
<use xlink:href="#path0_stroke" transform="matrix(-1.22465e-16 -1 0.999041 -0.0437856 -323 2559)" fill="#333333"/>
</g>
<g id="Line 3" figma:type="line">
<use xlink:href="#path1_stroke" transform="matrix(-1 1.22465e-16 -1.22465e-16 -1 -323 2559)" fill="#333333"/>
</g>
<g id="Line 3" figma:type="line">
<use xlink:href="#path1_stroke" transform="matrix(-1 1.22465e-16 -1.22465e-16 -1 -323 2499)" fill="#333333"/>
</g>
</g>
<g id="(0.7*1) + (3*2) + (9*1) (1.7*1) + (2*2) + (9 *1) (0.7*1) + (9*2) + (2 *1)" figma:type="text">
<use xlink:href="#path8_fill" transform="translate(-472 2505)" fill="#2F80ED"/>
<use xlink:href="#path9_fill" transform="translate(-472 2505)"/>
</g>
<g id="Component" figma:type="instance">
<g id="Line 2" figma:type="line">
<use xlink:href="#path0_stroke" transform="matrix(8.55488e-32 1 -0.999041 0.0437856 -289 2500)" fill="#333333"/>
</g>
<g id="Line 3" figma:type="line">
<use xlink:href="#path1_stroke" transform="translate(-289 2500)" fill="#333333"/>
</g>
<g id="Line 3" figma:type="line">
<use xlink:href="#path1_stroke" transform="translate(-289 2560)" fill="#333333"/>
</g>
</g>
<g id="Component" figma:type="instance">
<g id="Line 2" figma:type="line">
<use xlink:href="#path0_stroke" transform="matrix(-1.22465e-16 -1 0.999041 -0.0437856 -241 2560)" fill="#333333"/>
</g>
<g id="Line 3" figma:type="line">
<use xlink:href="#path1_stroke" transform="matrix(-1 1.22465e-16 -1.22465e-16 -1 -241 2560)" fill="#333333"/>
</g>
<g id="Line 3" figma:type="line">
<use xlink:href="#path1_stroke" transform="matrix(-1 1.22465e-16 -1.22465e-16 -1 -241 2500)" fill="#333333"/>
</g>
</g>
<g id="15.7 14.7 20.7" figma:type="text">
<use xlink:href="#path10_fill" transform="translate(-279 2505)"/>
</g>
<g id="=" figma:type="text">
<use xlink:href="#path7_fill" transform="translate(-501 2519)"/>
</g>
<g id="=" figma:type="text">
<use xlink:href="#path7_fill" transform="translate(-313 2519)"/>
</g>
</g>
</g>
<defs>
<path id="path0_stroke" d="M 0 0L 60 0L 60 -1L 0 -1L 0 0Z"/>
<path id="path1_stroke" d="M 0 0L 6 0L 6 -1L 0 -1L 0 0Z"/>
<path id="path2_fill" d="M 7.06836 8.75488C 7.06836 10.236 6.81543 11.3366 6.30957 12.0566C 5.80371 12.7767 5.01302 13.1367 3.9375 13.1367C 2.87565 13.1367 2.08952 12.7858 1.5791 12.084C 1.06868 11.3776 0.804362 10.3249 0.786133 8.92578L 0.786133 7.2373C 0.786133 5.77441 1.03906 4.6875 1.54492 3.97656C 2.05078 3.26562 2.84375 2.91016 3.92383 2.91016C 4.99479 2.91016 5.7832 3.25423 6.28906 3.94238C 6.79492 4.62598 7.05469 5.68327 7.06836 7.11426L 7.06836 8.75488ZM 5.80371 7.02539C 5.80371 5.95443 5.65332 5.17513 5.35254 4.6875C 5.05176 4.19531 4.57552 3.94922 3.92383 3.94922C 3.27669 3.94922 2.80501 4.19303 2.50879 4.68066C 2.21257 5.16829 2.0599 5.91797 2.05078 6.92969L 2.05078 8.95312C 2.05078 10.0286 2.20573 10.8239 2.51562 11.3389C 2.83008 11.8493 3.30404 12.1045 3.9375 12.1045C 4.56185 12.1045 5.02441 11.863 5.3252 11.3799C 5.63053 10.8968 5.79004 10.1357 5.80371 9.09668L 5.80371 7.02539ZM 8.8457 12.3369C 8.8457 12.1182 8.90951 11.9359 9.03711 11.79C 9.16927 11.6442 9.36523 11.5713 9.625 11.5713C 9.88477 11.5713 10.0807 11.6442 10.2129 11.79C 10.3496 11.9359 10.418 12.1182 10.418 12.3369C 10.418 12.5465 10.3496 12.722 10.2129 12.8633C 10.0807 13.0046 9.88477 13.0752 9.625 13.0752C 9.36523 13.0752 9.16927 13.0046 9.03711 12.8633C 8.90951 12.722 8.8457 12.5465 8.8457 12.3369ZM 18.8057 3.75781L 14.6836 13L 13.3574 13L 17.4658 4.08594L 12.0791 4.08594L 12.0791 3.04688L 18.8057 3.04688L 18.8057 3.75781ZM 32.498 7.4082L 33.4482 7.4082C 34.0452 7.39909 34.5146 7.24186 34.8564 6.93652C 35.1982 6.63118 35.3691 6.21875 35.3691 5.69922C 35.3691 4.53255 34.7881 3.94922 33.626 3.94922C 33.0791 3.94922 32.6416 4.10645 32.3135 4.4209C 31.9899 4.73079 31.8281 5.14323 31.8281 5.6582L 30.5635 5.6582C 30.5635 4.86979 30.8506 4.21582 31.4248 3.69629C 32.0036 3.1722 32.7373 2.91016 33.626 2.91016C 34.5648 2.91016 35.3008 3.15853 35.834 3.65527C 36.3672 4.15202 36.6338 4.84245 36.6338 5.72656C 36.6338 6.15951 36.4925 6.57878 36.21 6.98438C 35.932 7.38997 35.5514 7.69303 35.0684 7.89355C 35.6152 8.06673 36.0368 8.35384 36.333 8.75488C 36.6338 9.15592 36.7842 9.64583 36.7842 10.2246C 36.7842 11.1178 36.4925 11.8265 35.9092 12.3506C 35.3258 12.8747 34.5671 13.1367 33.6328 13.1367C 32.6986 13.1367 31.9375 12.8838 31.3496 12.3779C 30.7663 11.8721 30.4746 11.2044 30.4746 10.375L 31.7461 10.375C 31.7461 10.8991 31.917 11.3184 32.2588 11.6328C 32.6006 11.9473 33.0586 12.1045 33.6328 12.1045C 34.2435 12.1045 34.7106 11.945 35.0342 11.626C 35.3577 11.307 35.5195 10.849 35.5195 10.252C 35.5195 9.67318 35.3418 9.22884 34.9863 8.91895C 34.6309 8.60905 34.1182 8.44954 33.4482 8.44043L 32.498 8.44043L 32.498 7.4082ZM 53.7852 8.625C 53.5208 8.93945 53.2041 9.19238 52.835 9.38379C 52.4704 9.5752 52.0693 9.6709 51.6318 9.6709C 51.0576 9.6709 50.5563 9.52962 50.1279 9.24707C 49.7041 8.96452 49.376 8.56803 49.1436 8.05762C 48.9111 7.54264 48.7949 6.97526 48.7949 6.35547C 48.7949 5.6901 48.9202 5.09082 49.1709 4.55762C 49.4261 4.02441 49.7861 3.61654 50.251 3.33398C 50.7158 3.05143 51.2581 2.91016 51.8779 2.91016C 52.8623 2.91016 53.637 3.2793 54.2021 4.01758C 54.7718 4.7513 55.0566 5.75391 55.0566 7.02539L 55.0566 7.39453C 55.0566 9.33138 54.6738 10.7464 53.9082 11.6396C 53.1426 12.5283 51.9873 12.984 50.4424 13.0068L 50.1963 13.0068L 50.1963 11.9404L 50.4629 11.9404C 51.5065 11.9222 52.3086 11.651 52.8691 11.127C 53.4297 10.5983 53.735 9.76432 53.7852 8.625ZM 51.8369 8.625C 52.2607 8.625 52.6504 8.49512 53.0059 8.23535C 53.3659 7.97559 53.6279 7.6543 53.792 7.27148L 53.792 6.76562C 53.792 5.9362 53.612 5.26172 53.252 4.74219C 52.8919 4.22266 52.4362 3.96289 51.8848 3.96289C 51.3288 3.96289 50.8822 4.17708 50.5449 4.60547C 50.2077 5.0293 50.0391 5.58984 50.0391 6.28711C 50.0391 6.96615 50.2008 7.52669 50.5244 7.96875C 50.8525 8.40625 51.29 8.625 51.8369 8.625ZM 4.9834 29L 3.71191 29L 3.71191 20.5713L 1.16211 21.5078L 1.16211 20.3594L 4.78516 18.999L 4.9834 18.999L 4.9834 29ZM 8.8457 28.3369C 8.8457 28.1182 8.90951 27.9359 9.03711 27.79C 9.16927 27.6442 9.36523 27.5713 9.625 27.5713C 9.88477 27.5713 10.0807 27.6442 10.2129 27.79C 10.3496 27.9359 10.418 28.1182 10.418 28.3369C 10.418 28.5465 10.3496 28.722 10.2129 28.8633C 10.0807 29.0046 9.88477 29.0752 9.625 29.0752C 9.36523 29.0752 9.16927 29.0046 9.03711 28.8633C 8.90951 28.722 8.8457 28.5465 8.8457 28.3369ZM 18.8057 19.7578L 14.6836 29L 13.3574 29L 17.4658 20.0859L 12.0791 20.0859L 12.0791 19.0469L 18.8057 19.0469L 18.8057 19.7578ZM 37.1807 29L 30.6592 29L 30.6592 28.0908L 34.1045 24.2627C 34.6149 23.6839 34.9658 23.2145 35.1572 22.8545C 35.3532 22.4899 35.4512 22.1139 35.4512 21.7266C 35.4512 21.207 35.2939 20.7809 34.9795 20.4482C 34.665 20.1156 34.2458 19.9492 33.7217 19.9492C 33.0928 19.9492 32.6029 20.1292 32.252 20.4893C 31.9056 20.8447 31.7324 21.3415 31.7324 21.9795L 30.4678 21.9795C 30.4678 21.0635 30.7617 20.3229 31.3496 19.7578C 31.9421 19.1927 32.7327 18.9102 33.7217 18.9102C 34.6468 18.9102 35.3783 19.154 35.916 19.6416C 36.4538 20.1247 36.7227 20.7695 36.7227 21.5762C 36.7227 22.556 36.0983 23.7227 34.8496 25.0762L 32.1836 27.9678L 37.1807 27.9678L 37.1807 29ZM 53.7852 24.625C 53.5208 24.9395 53.2041 25.1924 52.835 25.3838C 52.4704 25.5752 52.0693 25.6709 51.6318 25.6709C 51.0576 25.6709 50.5563 25.5296 50.1279 25.2471C 49.7041 24.9645 49.376 24.568 49.1436 24.0576C 48.9111 23.5426 48.7949 22.9753 48.7949 22.3555C 48.7949 21.6901 48.9202 21.0908 49.1709 20.5576C 49.4261 20.0244 49.7861 19.6165 50.251 19.334C 50.7158 19.0514 51.2581 18.9102 51.8779 18.9102C 52.8623 18.9102 53.637 19.2793 54.2021 20.0176C 54.7718 20.7513 55.0566 21.7539 55.0566 23.0254L 55.0566 23.3945C 55.0566 25.3314 54.6738 26.7464 53.9082 27.6396C 53.1426 28.5283 51.9873 28.984 50.4424 29.0068L 50.1963 29.0068L 50.1963 27.9404L 50.4629 27.9404C 51.5065 27.9222 52.3086 27.651 52.8691 27.127C 53.4297 26.5983 53.735 25.7643 53.7852 24.625ZM 51.8369 24.625C 52.2607 24.625 52.6504 24.4951 53.0059 24.2354C 53.3659 23.9756 53.6279 23.6543 53.792 23.2715L 53.792 22.7656C 53.792 21.9362 53.612 21.2617 53.252 20.7422C 52.8919 20.2227 52.4362 19.9629 51.8848 19.9629C 51.3288 19.9629 50.8822 20.1771 50.5449 20.6055C 50.2077 21.0293 50.0391 21.5898 50.0391 22.2871C 50.0391 22.9661 50.2008 23.5267 50.5244 23.9688C 50.8525 24.4062 51.29 24.625 51.8369 24.625ZM 7.06836 41.7549C 7.06836 43.236 6.81543 44.3366 6.30957 45.0566C 5.80371 45.7767 5.01302 46.1367 3.9375 46.1367C 2.87565 46.1367 2.08952 45.7858 1.5791 45.084C 1.06868 44.3776 0.804362 43.3249 0.786133 41.9258L 0.786133 40.2373C 0.786133 38.7744 1.03906 37.6875 1.54492 36.9766C 2.05078 36.2656 2.84375 35.9102 3.92383 35.9102C 4.99479 35.9102 5.7832 36.2542 6.28906 36.9424C 6.79492 37.626 7.05469 38.6833 7.06836 40.1143L 7.06836 41.7549ZM 5.80371 40.0254C 5.80371 38.9544 5.65332 38.1751 5.35254 37.6875C 5.05176 37.1953 4.57552 36.9492 3.92383 36.9492C 3.27669 36.9492 2.80501 37.193 2.50879 37.6807C 2.21257 38.1683 2.0599 38.918 2.05078 39.9297L 2.05078 41.9531C 2.05078 43.0286 2.20573 43.8239 2.51562 44.3389C 2.83008 44.8493 3.30404 45.1045 3.9375 45.1045C 4.56185 45.1045 5.02441 44.863 5.3252 44.3799C 5.63053 43.8968 5.79004 43.1357 5.80371 42.0967L 5.80371 40.0254ZM 8.8457 45.3369C 8.8457 45.1182 8.90951 44.9359 9.03711 44.79C 9.16927 44.6442 9.36523 44.5713 9.625 44.5713C 9.88477 44.5713 10.0807 44.6442 10.2129 44.79C 10.3496 44.9359 10.418 45.1182 10.418 45.3369C 10.418 45.5465 10.3496 45.722 10.2129 45.8633C 10.0807 46.0046 9.88477 46.0752 9.625 46.0752C 9.36523 46.0752 9.16927 46.0046 9.03711 45.8633C 8.90951 45.722 8.8457 45.5465 8.8457 45.3369ZM 18.8057 36.7578L 14.6836 46L 13.3574 46L 17.4658 37.0859L 12.0791 37.0859L 12.0791 36.0469L 18.8057 36.0469L 18.8057 36.7578ZM 35.5059 41.625C 35.2415 41.9395 34.9248 42.1924 34.5557 42.3838C 34.1911 42.5752 33.79 42.6709 33.3525 42.6709C 32.7783 42.6709 32.277 42.5296 31.8486 42.2471C 31.4248 41.9645 31.0967 41.568 30.8643 41.0576C 30.6318 40.5426 30.5156 39.9753 30.5156 39.3555C 30.5156 38.6901 30.641 38.0908 30.8916 37.5576C 31.1468 37.0244 31.5068 36.6165 31.9717 36.334C 32.4365 36.0514 32.9788 35.9102 33.5986 35.9102C 34.583 35.9102 35.3577 36.2793 35.9229 37.0176C 36.4925 37.7513 36.7773 38.7539 36.7773 40.0254L 36.7773 40.3945C 36.7773 42.3314 36.3945 43.7464 35.6289 44.6396C 34.8633 45.5283 33.708 45.984 32.1631 46.0068L 31.917 46.0068L 31.917 44.9404L 32.1836 44.9404C 33.2272 44.9222 34.0293 44.651 34.5898 44.127C 35.1504 43.5983 35.4557 42.7643 35.5059 41.625ZM 33.5576 41.625C 33.9814 41.625 34.3711 41.4951 34.7266 41.2354C 35.0866 40.9756 35.3486 40.6543 35.5127 40.2715L 35.5127 39.7656C 35.5127 38.9362 35.3327 38.2617 34.9727 37.7422C 34.6126 37.2227 34.1569 36.9629 33.6055 36.9629C 33.0495 36.9629 32.6029 37.1771 32.2656 37.6055C 31.9284 38.0293 31.7598 38.5898 31.7598 39.2871C 31.7598 39.9661 31.9215 40.5267 32.2451 40.9688C 32.5732 41.4062 33.0107 41.625 33.5576 41.625ZM 55.46 46L 48.9385 46L 48.9385 45.0908L 52.3838 41.2627C 52.8942 40.6839 53.2451 40.2145 53.4365 39.8545C 53.6325 39.4899 53.7305 39.1139 53.7305 38.7266C 53.7305 38.207 53.5732 37.7809 53.2588 37.4482C 52.9443 37.1156 52.5251 36.9492 52.001 36.9492C 51.3721 36.9492 50.8822 37.1292 50.5312 37.4893C 50.1849 37.8447 50.0117 38.3415 50.0117 38.9795L 48.7471 38.9795C 48.7471 38.0635 49.041 37.3229 49.6289 36.7578C 50.2214 36.1927 51.012 35.9102 52.001 35.9102C 52.9261 35.9102 53.6576 36.154 54.1953 36.6416C 54.7331 37.1247 55.002 37.7695 55.002 38.5762C 55.002 39.556 54.3776 40.7227 53.1289 42.0762L 50.4629 44.9678L 55.46 44.9678L 55.46 46Z"/>
<path id="path3_fill" d="M 6.65137 10.4023L 2.48145 10.4023L 1.54492 13L 0.191406 13L 3.99219 3.04688L 5.14062 3.04688L 8.94824 13L 7.60156 13L 6.65137 10.4023ZM 2.87793 9.32227L 6.26172 9.32227L 4.56641 4.66699L 2.87793 9.32227Z"/>
<path id="path4_fill" d="M 4.9834 13L 3.71191 13L 3.71191 4.57129L 1.16211 5.50781L 1.16211 4.35938L 4.78516 2.99902L 4.9834 2.99902L 4.9834 13ZM 7.34863 29L 0.827148 29L 0.827148 28.0908L 4.27246 24.2627C 4.78288 23.6839 5.13379 23.2145 5.3252 22.8545C 5.52116 22.4899 5.61914 22.1139 5.61914 21.7266C 5.61914 21.207 5.46191 20.7809 5.14746 20.4482C 4.83301 20.1156 4.41374 19.9492 3.88965 19.9492C 3.26074 19.9492 2.77083 20.1292 2.41992 20.4893C 2.07357 20.8447 1.90039 21.3415 1.90039 21.9795L 0.635742 21.9795C 0.635742 21.0635 0.929688 20.3229 1.51758 19.7578C 2.11003 19.1927 2.90072 18.9102 3.88965 18.9102C 4.81478 18.9102 5.54622 19.154 6.08398 19.6416C 6.62174 20.1247 6.89062 20.7695 6.89062 21.5762C 6.89062 22.556 6.26628 23.7227 5.01758 25.0762L 2.35156 27.9678L 7.34863 27.9678L 7.34863 29ZM 4.9834 46L 3.71191 46L 3.71191 37.5713L 1.16211 38.5078L 1.16211 37.3594L 4.78516 35.999L 4.9834 35.999L 4.9834 46Z"/>
<path id="path5_fill" d="M 3.83496 11.5439C 4.19954 11.5439 4.49577 11.4437 4.72363 11.2432C 4.9515 11.0426 5.06999 10.776 5.0791 10.4434L 6.93164 10.4434C 6.92708 10.9447 6.79036 11.4049 6.52148 11.8242C 6.2526 12.2389 5.88346 12.5625 5.41406 12.7949C 4.94922 13.0228 4.43424 13.1367 3.86914 13.1367C 2.81185 13.1367 1.97786 12.8018 1.36719 12.1318C 0.75651 11.4574 0.451172 10.5277 0.451172 9.34277L 0.451172 9.21289C 0.451172 8.07357 0.754232 7.16439 1.36035 6.48535C 1.96647 5.80632 2.79818 5.4668 3.85547 5.4668C 4.7806 5.4668 5.52116 5.73112 6.07715 6.25977C 6.6377 6.78385 6.92253 7.4834 6.93164 8.3584L 5.0791 8.3584C 5.06999 7.97559 4.9515 7.66569 4.72363 7.42871C 4.49577 7.18717 4.19499 7.06641 3.82129 7.06641C 3.361 7.06641 3.01237 7.23503 2.77539 7.57227C 2.54297 7.90495 2.42676 8.44727 2.42676 9.19922L 2.42676 9.4043C 2.42676 10.1654 2.54297 10.7122 2.77539 11.0449C 3.00781 11.3776 3.361 11.5439 3.83496 11.5439Z"/>
<path id="path6_fill" d="M 6.65137 10.4023L 2.48145 10.4023L 1.54492 13L 0.191406 13L 3.99219 3.04688L 5.14062 3.04688L 8.94824 13L 7.60156 13L 6.65137 10.4023ZM 2.87793 9.32227L 6.26172 9.32227L 4.56641 4.66699L 2.87793 9.32227ZM 12.9678 11.5439C 13.3324 11.5439 13.6286 11.4437 13.8564 11.2432C 14.0843 11.0426 14.2028 10.776 14.2119 10.4434L 16.0645 10.4434C 16.0599 10.9447 15.9232 11.4049 15.6543 11.8242C 15.3854 12.2389 15.0163 12.5625 14.5469 12.7949C 14.082 13.0228 13.5671 13.1367 13.002 13.1367C 11.9447 13.1367 11.1107 12.8018 10.5 12.1318C 9.88932 11.4574 9.58398 10.5277 9.58398 9.34277L 9.58398 9.21289C 9.58398 8.07357 9.88704 7.16439 10.4932 6.48535C 11.0993 5.80632 11.931 5.4668 12.9883 5.4668C 13.9134 5.4668 14.654 5.73112 15.21 6.25977C 15.7705 6.78385 16.0553 7.4834 16.0645 8.3584L 14.2119 8.3584C 14.2028 7.97559 14.0843 7.66569 13.8564 7.42871C 13.6286 7.18717 13.3278 7.06641 12.9541 7.06641C 12.4938 7.06641 12.1452 7.23503 11.9082 7.57227C 11.6758 7.90495 11.5596 8.44727 11.5596 9.19922L 11.5596 9.4043C 11.5596 10.1654 11.6758 10.7122 11.9082 11.0449C 12.1406 11.3776 12.4938 11.5439 12.9678 11.5439Z"/>
<path id="path7_fill" d="M 6.74023 7.43555L 1.03906 7.43555L 1.03906 6.33496L 6.74023 6.33496L 6.74023 7.43555ZM 6.74023 10.2725L 1.03906 10.2725L 1.03906 9.17871L 6.74023 9.17871L 6.74023 10.2725Z"/>
<path id="path8_fill" d="M 11.8535 8.75488C 11.8535 10.236 11.6006 11.3366 11.0947 12.0566C 10.5889 12.7767 9.79818 13.1367 8.72266 13.1367C 7.66081 13.1367 6.87467 12.7858 6.36426 12.084C 5.85384 11.3776 5.58952 10.3249 5.57129 8.92578L 5.57129 7.2373C 5.57129 5.77441 5.82422 4.6875 6.33008 3.97656C 6.83594 3.26562 7.62891 2.91016 8.70898 2.91016C 9.77995 2.91016 10.5684 3.25423 11.0742 3.94238C 11.5801 4.62598 11.8398 5.68327 11.8535 7.11426L 11.8535 8.75488ZM 10.5889 7.02539C 10.5889 5.95443 10.4385 5.17513 10.1377 4.6875C 9.83691 4.19531 9.36068 3.94922 8.70898 3.94922C 8.06185 3.94922 7.59017 4.19303 7.29395 4.68066C 6.99772 5.16829 6.84505 5.91797 6.83594 6.92969L 6.83594 8.95312C 6.83594 10.0286 6.99089 10.8239 7.30078 11.3389C 7.61523 11.8493 8.08919 12.1045 8.72266 12.1045C 9.34701 12.1045 9.80957 11.863 10.1104 11.3799C 10.4157 10.8968 10.5752 10.1357 10.5889 9.09668L 10.5889 7.02539ZM 13.6309 12.3369C 13.6309 12.1182 13.6947 11.9359 13.8223 11.79C 13.9544 11.6442 14.1504 11.5713 14.4102 11.5713C 14.6699 11.5713 14.8659 11.6442 14.998 11.79C 15.1348 11.9359 15.2031 12.1182 15.2031 12.3369C 15.2031 12.5465 15.1348 12.722 14.998 12.8633C 14.8659 13.0046 14.6699 13.0752 14.4102 13.0752C 14.1504 13.0752 13.9544 13.0046 13.8223 12.8633C 13.6947 12.722 13.6309 12.5465 13.6309 12.3369ZM 23.5908 3.75781L 19.4688 13L 18.1426 13L 22.251 4.08594L 16.8643 4.08594L 16.8643 3.04688L 23.5908 3.04688L 23.5908 3.75781ZM 65.2969 7.4082L 66.2471 7.4082C 66.8441 7.39909 67.3135 7.24186 67.6553 6.93652C 67.9971 6.63118 68.168 6.21875 68.168 5.69922C 68.168 4.53255 67.5869 3.94922 66.4248 3.94922C 65.8779 3.94922 65.4404 4.10645 65.1123 4.4209C 64.7887 4.73079 64.627 5.14323 64.627 5.6582L 63.3623 5.6582C 63.3623 4.86979 63.6494 4.21582 64.2236 3.69629C 64.8024 3.1722 65.5361 2.91016 66.4248 2.91016C 67.3636 2.91016 68.0996 3.15853 68.6328 3.65527C 69.166 4.15202 69.4326 4.84245 69.4326 5.72656C 69.4326 6.15951 69.2913 6.57878 69.0088 6.98438C 68.7308 7.38997 68.3503 7.69303 67.8672 7.89355C 68.4141 8.06673 68.8356 8.35384 69.1318 8.75488C 69.4326 9.15592 69.583 9.64583 69.583 10.2246C 69.583 11.1178 69.2913 11.8265 68.708 12.3506C 68.1247 12.8747 67.3659 13.1367 66.4316 13.1367C 65.4974 13.1367 64.7363 12.8838 64.1484 12.3779C 63.5651 11.8721 63.2734 11.2044 63.2734 10.375L 64.5449 10.375C 64.5449 10.8991 64.7158 11.3184 65.0576 11.6328C 65.3994 11.9473 65.8574 12.1045 66.4316 12.1045C 67.0423 12.1045 67.5094 11.945 67.833 11.626C 68.1566 11.307 68.3184 10.849 68.3184 10.252C 68.3184 9.67318 68.1406 9.22884 67.7852 8.91895C 67.4297 8.60905 66.917 8.44954 66.2471 8.44043L 65.2969 8.44043L 65.2969 7.4082ZM 114.598 8.625C 114.333 8.93945 114.017 9.19238 113.647 9.38379C 113.283 9.5752 112.882 9.6709 112.444 9.6709C 111.87 9.6709 111.369 9.52962 110.94 9.24707C 110.517 8.96452 110.188 8.56803 109.956 8.05762C 109.724 7.54264 109.607 6.97526 109.607 6.35547C 109.607 5.6901 109.733 5.09082 109.983 4.55762C 110.239 4.02441 110.599 3.61654 111.063 3.33398C 111.528 3.05143 112.071 2.91016 112.69 2.91016C 113.675 2.91016 114.45 3.2793 115.015 4.01758C 115.584 4.7513 115.869 5.75391 115.869 7.02539L 115.869 7.39453C 115.869 9.33138 115.486 10.7464 114.721 11.6396C 113.955 12.5283 112.8 12.984 111.255 13.0068L 111.009 13.0068L 111.009 11.9404L 111.275 11.9404C 112.319 11.9222 113.121 11.651 113.682 11.127C 114.242 10.5983 114.548 9.76432 114.598 8.625ZM 112.649 8.625C 113.073 8.625 113.463 8.49512 113.818 8.23535C 114.178 7.97559 114.44 7.6543 114.604 7.27148L 114.604 6.76562C 114.604 5.9362 114.424 5.26172 114.064 4.74219C 113.704 4.22266 113.249 3.96289 112.697 3.96289C 112.141 3.96289 111.695 4.17708 111.357 4.60547C 111.02 5.0293 110.852 5.58984 110.852 6.28711C 110.852 6.96615 111.013 7.52669 111.337 7.96875C 111.665 8.40625 112.103 8.625 112.649 8.625ZM 9.76855 29L 8.49707 29L 8.49707 20.5713L 5.94727 21.5078L 5.94727 20.3594L 9.57031 18.999L 9.76855 18.999L 9.76855 29ZM 13.6309 28.3369C 13.6309 28.1182 13.6947 27.9359 13.8223 27.79C 13.9544 27.6442 14.1504 27.5713 14.4102 27.5713C 14.6699 27.5713 14.8659 27.6442 14.998 27.79C 15.1348 27.9359 15.2031 28.1182 15.2031 28.3369C 15.2031 28.5465 15.1348 28.722 14.998 28.8633C 14.8659 29.0046 14.6699 29.0752 14.4102 29.0752C 14.1504 29.0752 13.9544 29.0046 13.8223 28.8633C 13.6947 28.722 13.6309 28.5465 13.6309 28.3369ZM 23.5908 19.7578L 19.4688 29L 18.1426 29L 22.251 20.0859L 16.8643 20.0859L 16.8643 19.0469L 23.5908 19.0469L 23.5908 19.7578ZM 69.9795 29L 63.458 29L 63.458 28.0908L 66.9033 24.2627C 67.4137 23.6839 67.7646 23.2145 67.9561 22.8545C 68.152 22.4899 68.25 22.1139 68.25 21.7266C 68.25 21.207 68.0928 20.7809 67.7783 20.4482C 67.4639 20.1156 67.0446 19.9492 66.5205 19.9492C 65.8916 19.9492 65.4017 20.1292 65.0508 20.4893C 64.7044 20.8447 64.5312 21.3415 64.5312 21.9795L 63.2666 21.9795C 63.2666 21.0635 63.5605 20.3229 64.1484 19.7578C 64.7409 19.1927 65.5316 18.9102 66.5205 18.9102C 67.4456 18.9102 68.1771 19.154 68.7148 19.6416C 69.2526 20.1247 69.5215 20.7695 69.5215 21.5762C 69.5215 22.556 68.8971 23.7227 67.6484 25.0762L 64.9824 27.9678L 69.9795 27.9678L 69.9795 29ZM 114.598 24.625C 114.333 24.9395 114.017 25.1924 113.647 25.3838C 113.283 25.5752 112.882 25.6709 112.444 25.6709C 111.87 25.6709 111.369 25.5296 110.94 25.2471C 110.517 24.9645 110.188 24.568 109.956 24.0576C 109.724 23.5426 109.607 22.9753 109.607 22.3555C 109.607 21.6901 109.733 21.0908 109.983 20.5576C 110.239 20.0244 110.599 19.6165 111.063 19.334C 111.528 19.0514 112.071 18.9102 112.69 18.9102C 113.675 18.9102 114.45 19.2793 115.015 20.0176C 115.584 20.7513 115.869 21.7539 115.869 23.0254L 115.869 23.3945C 115.869 25.3314 115.486 26.7464 114.721 27.6396C 113.955 28.5283 112.8 28.984 111.255 29.0068L 111.009 29.0068L 111.009 27.9404L 111.275 27.9404C 112.319 27.9222 113.121 27.651 113.682 27.127C 114.242 26.5983 114.548 25.7643 114.598 24.625ZM 112.649 24.625C 113.073 24.625 113.463 24.4951 113.818 24.2354C 114.178 23.9756 114.44 23.6543 114.604 23.2715L 114.604 22.7656C 114.604 21.9362 114.424 21.2617 114.064 20.7422C 113.704 20.2227 113.249 19.9629 112.697 19.9629C 112.141 19.9629 111.695 20.1771 111.357 20.6055C 111.02 21.0293 110.852 21.5898 110.852 22.2871C 110.852 22.9661 111.013 23.5267 111.337 23.9688C 111.665 24.4062 112.103 24.625 112.649 24.625ZM 11.8535 41.7549C 11.8535 43.236 11.6006 44.3366 11.0947 45.0566C 10.5889 45.7767 9.79818 46.1367 8.72266 46.1367C 7.66081 46.1367 6.87467 45.7858 6.36426 45.084C 5.85384 44.3776 5.58952 43.3249 5.57129 41.9258L 5.57129 40.2373C 5.57129 38.7744 5.82422 37.6875 6.33008 36.9766C 6.83594 36.2656 7.62891 35.9102 8.70898 35.9102C 9.77995 35.9102 10.5684 36.2542 11.0742 36.9424C 11.5801 37.626 11.8398 38.6833 11.8535 40.1143L 11.8535 41.7549ZM 10.5889 40.0254C 10.5889 38.9544 10.4385 38.1751 10.1377 37.6875C 9.83691 37.1953 9.36068 36.9492 8.70898 36.9492C 8.06185 36.9492 7.59017 37.193 7.29395 37.6807C 6.99772 38.1683 6.84505 38.918 6.83594 39.9297L 6.83594 41.9531C 6.83594 43.0286 6.99089 43.8239 7.30078 44.3389C 7.61523 44.8493 8.08919 45.1045 8.72266 45.1045C 9.34701 45.1045 9.80957 44.863 10.1104 44.3799C 10.4157 43.8968 10.5752 43.1357 10.5889 42.0967L 10.5889 40.0254ZM 13.6309 45.3369C 13.6309 45.1182 13.6947 44.9359 13.8223 44.79C 13.9544 44.6442 14.1504 44.5713 14.4102 44.5713C 14.6699 44.5713 14.8659 44.6442 14.998 44.79C 15.1348 44.9359 15.2031 45.1182 15.2031 45.3369C 15.2031 45.5465 15.1348 45.722 14.998 45.8633C 14.8659 46.0046 14.6699 46.0752 14.4102 46.0752C 14.1504 46.0752 13.9544 46.0046 13.8223 45.8633C 13.6947 45.722 13.6309 45.5465 13.6309 45.3369ZM 23.5908 36.7578L 19.4688 46L 18.1426 46L 22.251 37.0859L 16.8643 37.0859L 16.8643 36.0469L 23.5908 36.0469L 23.5908 36.7578ZM 71.7773 41.625C 71.513 41.9395 71.1963 42.1924 70.8271 42.3838C 70.4626 42.5752 70.0615 42.6709 69.624 42.6709C 69.0498 42.6709 68.5485 42.5296 68.1201 42.2471C 67.6963 41.9645 67.3682 41.568 67.1357 41.0576C 66.9033 40.5426 66.7871 39.9753 66.7871 39.3555C 66.7871 38.6901 66.9124 38.0908 67.1631 37.5576C 67.4183 37.0244 67.7783 36.6165 68.2432 36.334C 68.708 36.0514 69.2503 35.9102 69.8701 35.9102C 70.8545 35.9102 71.6292 36.2793 72.1943 37.0176C 72.764 37.7513 73.0488 38.7539 73.0488 40.0254L 73.0488 40.3945C 73.0488 42.3314 72.666 43.7464 71.9004 44.6396C 71.1348 45.5283 69.9795 45.984 68.4346 46.0068L 68.1885 46.0068L 68.1885 44.9404L 68.4551 44.9404C 69.4987 44.9222 70.3008 44.651 70.8613 44.127C 71.4219 43.5983 71.7272 42.7643 71.7773 41.625ZM 69.8291 41.625C 70.2529 41.625 70.6426 41.4951 70.998 41.2354C 71.3581 40.9756 71.6201 40.6543 71.7842 40.2715L 71.7842 39.7656C 71.7842 38.9362 71.6042 38.2617 71.2441 37.7422C 70.8841 37.2227 70.4284 36.9629 69.877 36.9629C 69.321 36.9629 68.8743 37.1771 68.5371 37.6055C 68.1999 38.0293 68.0312 38.5898 68.0312 39.2871C 68.0312 39.9661 68.193 40.5267 68.5166 40.9688C 68.8447 41.4062 69.2822 41.625 69.8291 41.625ZM 119.745 46L 113.224 46L 113.224 45.0908L 116.669 41.2627C 117.179 40.6839 117.53 40.2145 117.722 39.8545C 117.918 39.4899 118.016 39.1139 118.016 38.7266C 118.016 38.207 117.858 37.7809 117.544 37.4482C 117.229 37.1156 116.81 36.9492 116.286 36.9492C 115.657 36.9492 115.167 37.1292 114.816 37.4893C 114.47 37.8447 114.297 38.3415 114.297 38.9795L 113.032 38.9795C 113.032 38.0635 113.326 37.3229 113.914 36.7578C 114.507 36.1927 115.297 35.9102 116.286 35.9102C 117.211 35.9102 117.943 36.154 118.48 36.6416C 119.018 37.1247 119.287 37.7695 119.287 38.5762C 119.287 39.556 118.663 40.7227 117.414 42.0762L 114.748 44.9678L 119.745 44.9678L 119.745 46Z"/>
<path id="path9_fill" d="M 0.90918 8.95996C 0.90918 7.93001 1.0459 6.94108 1.31934 5.99316C 1.59733 5.04525 2.00977 4.18392 2.55664 3.40918C 3.10352 2.63444 3.6709 2.08757 4.25879 1.76855L 4.51855 2.60254C 3.85319 3.11296 3.30632 3.89225 2.87793 4.94043C 2.4541 5.98861 2.22168 7.16211 2.18066 8.46094L 2.17383 9.04199C 2.17383 10.8011 2.49512 12.3278 3.1377 13.6221C 3.52507 14.3968 3.98535 15.0029 4.51855 15.4404L 4.25879 16.2129C 3.65267 15.8757 3.07389 15.3105 2.52246 14.5176C 1.44694 12.9681 0.90918 11.1156 0.90918 8.95996ZM 26.4551 6.28027L 24.3906 5.66504L 24.7051 4.63281L 26.7695 5.39844L 26.708 3.04688L 27.7539 3.04688L 27.6855 5.43262L 29.7158 4.68066L 30.0303 5.71973L 27.9316 6.3418L 29.2852 8.19434L 28.4375 8.83691L 27.166 6.86816L 25.9355 8.78906L 25.0811 8.16699L 26.4551 6.28027ZM 35.2119 13L 33.9404 13L 33.9404 4.57129L 31.3906 5.50781L 31.3906 4.35938L 35.0137 2.99902L 35.2119 2.99902L 35.2119 13ZM 41.9658 9.02832C 41.9658 10.0446 41.8314 11.0199 41.5625 11.9541C 41.2982 12.8838 40.8903 13.7428 40.3389 14.5312C 39.792 15.3197 39.2178 15.8802 38.6162 16.2129L 38.3496 15.4404C 39.0514 14.9027 39.6143 14.0687 40.0381 12.9385C 40.4665 11.8037 40.6852 10.5459 40.6943 9.16504L 40.6943 8.94629C 40.6943 7.98926 40.5941 7.10059 40.3936 6.28027C 40.193 5.4554 39.9128 4.71712 39.5527 4.06543C 39.1973 3.41374 38.7962 2.9056 38.3496 2.54102L 38.6162 1.76855C 39.2178 2.10124 39.7897 2.65723 40.332 3.43652C 40.8789 4.21582 41.2868 5.07487 41.5557 6.01367C 41.8291 6.95247 41.9658 7.95736 41.9658 9.02832ZM 51.0098 7.66113L 53.7852 7.66113L 53.7852 8.85742L 51.0098 8.85742L 51.0098 12.002L 49.7383 12.002L 49.7383 8.85742L 46.9629 8.85742L 46.9629 7.66113L 49.7383 7.66113L 49.7383 4.75586L 51.0098 4.75586L 51.0098 7.66113ZM 58.7549 8.95996C 58.7549 7.93001 58.8916 6.94108 59.165 5.99316C 59.443 5.04525 59.8555 4.18392 60.4023 3.40918C 60.9492 2.63444 61.5166 2.08757 62.1045 1.76855L 62.3643 2.60254C 61.6989 3.11296 61.152 3.89225 60.7236 4.94043C 60.2998 5.98861 60.0674 7.16211 60.0264 8.46094L 60.0195 9.04199C 60.0195 10.8011 60.3408 12.3278 60.9834 13.6221C 61.3708 14.3968 61.8311 15.0029 62.3643 15.4404L 62.1045 16.2129C 61.4984 15.8757 60.9196 15.3105 60.3682 14.5176C 59.2926 12.9681 58.7549 11.1156 58.7549 8.95996ZM 72.748 6.28027L 70.6836 5.66504L 70.998 4.63281L 73.0625 5.39844L 73.001 3.04688L 74.0469 3.04688L 73.9785 5.43262L 76.0088 4.68066L 76.3232 5.71973L 74.2246 6.3418L 75.5781 8.19434L 74.7305 8.83691L 73.459 6.86816L 72.2285 8.78906L 71.374 8.16699L 72.748 6.28027ZM 83.8701 13L 77.3486 13L 77.3486 12.0908L 80.7939 8.2627C 81.3044 7.68392 81.6553 7.21452 81.8467 6.85449C 82.0426 6.48991 82.1406 6.11393 82.1406 5.72656C 82.1406 5.20703 81.9834 4.78092 81.6689 4.44824C 81.3545 4.11556 80.9352 3.94922 80.4111 3.94922C 79.7822 3.94922 79.2923 4.12923 78.9414 4.48926C 78.5951 4.84473 78.4219 5.34147 78.4219 5.97949L 77.1572 5.97949C 77.1572 5.06348 77.4512 4.32292 78.0391 3.75781C 78.6315 3.19271 79.4222 2.91016 80.4111 2.91016C 81.3363 2.91016 82.0677 3.15397 82.6055 3.6416C 83.1432 4.12467 83.4121 4.76953 83.4121 5.57617C 83.4121 6.55599 82.7878 7.72266 81.5391 9.07617L 78.873 11.9678L 83.8701 11.9678L 83.8701 13ZM 88.2588 9.02832C 88.2588 10.0446 88.1243 11.0199 87.8555 11.9541C 87.5911 12.8838 87.1833 13.7428 86.6318 14.5312C 86.085 15.3197 85.5107 15.8802 84.9092 16.2129L 84.6426 15.4404C 85.3444 14.9027 85.9072 14.0687 86.3311 12.9385C 86.7594 11.8037 86.9782 10.5459 86.9873 9.16504L 86.9873 8.94629C 86.9873 7.98926 86.887 7.10059 86.6865 6.28027C 86.486 5.4554 86.2057 4.71712 85.8457 4.06543C 85.4902 3.41374 85.0892 2.9056 84.6426 2.54102L 84.9092 1.76855C 85.5107 2.10124 86.0827 2.65723 86.625 3.43652C 87.1719 4.21582 87.5798 5.07487 87.8486 6.01367C 88.1221 6.95247 88.2588 7.95736 88.2588 9.02832ZM 97.3027 7.66113L 100.078 7.66113L 100.078 8.85742L 97.3027 8.85742L 97.3027 12.002L 96.0312 12.002L 96.0312 8.85742L 93.2559 8.85742L 93.2559 7.66113L 96.0312 7.66113L 96.0312 4.75586L 97.3027 4.75586L 97.3027 7.66113ZM 105.048 8.95996C 105.048 7.93001 105.185 6.94108 105.458 5.99316C 105.736 5.04525 106.148 4.18392 106.695 3.40918C 107.242 2.63444 107.81 2.08757 108.397 1.76855L 108.657 2.60254C 107.992 3.11296 107.445 3.89225 107.017 4.94043C 106.593 5.98861 106.36 7.16211 106.319 8.46094L 106.312 9.04199C 106.312 10.8011 106.634 12.3278 107.276 13.6221C 107.664 14.3968 108.124 15.0029 108.657 15.4404L 108.397 16.2129C 107.791 15.8757 107.213 15.3105 106.661 14.5176C 105.586 12.9681 105.048 11.1156 105.048 8.95996ZM 119.041 6.28027L 116.977 5.66504L 117.291 4.63281L 119.355 5.39844L 119.294 3.04688L 120.34 3.04688L 120.271 5.43262L 122.302 4.68066L 122.616 5.71973L 120.518 6.3418L 121.871 8.19434L 121.023 8.83691L 119.752 6.86816L 118.521 8.78906L 117.667 8.16699L 119.041 6.28027ZM 127.798 13L 126.526 13L 126.526 4.57129L 123.977 5.50781L 123.977 4.35938L 127.6 2.99902L 127.798 2.99902L 127.798 13ZM 134.552 9.02832C 134.552 10.0446 134.417 11.0199 134.148 11.9541C 133.884 12.8838 133.476 13.7428 132.925 14.5312C 132.378 15.3197 131.804 15.8802 131.202 16.2129L 130.936 15.4404C 131.637 14.9027 132.2 14.0687 132.624 12.9385C 133.052 11.8037 133.271 10.5459 133.28 9.16504L 133.28 8.94629C 133.28 7.98926 133.18 7.10059 132.979 6.28027C 132.779 5.4554 132.499 4.71712 132.139 4.06543C 131.783 3.41374 131.382 2.9056 130.936 2.54102L 131.202 1.76855C 131.804 2.10124 132.376 2.65723 132.918 3.43652C 133.465 4.21582 133.873 5.07487 134.142 6.01367C 134.415 6.95247 134.552 7.95736 134.552 9.02832ZM 0.90918 24.96C 0.90918 23.93 1.0459 22.9411 1.31934 21.9932C 1.59733 21.0452 2.00977 20.1839 2.55664 19.4092C 3.10352 18.6344 3.6709 18.0876 4.25879 17.7686L 4.51855 18.6025C 3.85319 19.113 3.30632 19.8923 2.87793 20.9404C 2.4541 21.9886 2.22168 23.1621 2.18066 24.4609L 2.17383 25.042C 2.17383 26.8011 2.49512 28.3278 3.1377 29.6221C 3.52507 30.3968 3.98535 31.0029 4.51855 31.4404L 4.25879 32.2129C 3.65267 31.8757 3.07389 31.3105 2.52246 30.5176C 1.44694 28.9681 0.90918 27.1156 0.90918 24.96ZM 26.4551 22.2803L 24.3906 21.665L 24.7051 20.6328L 26.7695 21.3984L 26.708 19.0469L 27.7539 19.0469L 27.6855 21.4326L 29.7158 20.6807L 30.0303 21.7197L 27.9316 22.3418L 29.2852 24.1943L 28.4375 24.8369L 27.166 22.8682L 25.9355 24.7891L 25.0811 24.167L 26.4551 22.2803ZM 35.2119 29L 33.9404 29L 33.9404 20.5713L 31.3906 21.5078L 31.3906 20.3594L 35.0137 18.999L 35.2119 18.999L 35.2119 29ZM 41.9658 25.0283C 41.9658 26.0446 41.8314 27.0199 41.5625 27.9541C 41.2982 28.8838 40.8903 29.7428 40.3389 30.5312C 39.792 31.3197 39.2178 31.8802 38.6162 32.2129L 38.3496 31.4404C 39.0514 30.9027 39.6143 30.0687 40.0381 28.9385C 40.4665 27.8037 40.6852 26.5459 40.6943 25.165L 40.6943 24.9463C 40.6943 23.9893 40.5941 23.1006 40.3936 22.2803C 40.193 21.4554 39.9128 20.7171 39.5527 20.0654C 39.1973 19.4137 38.7962 18.9056 38.3496 18.541L 38.6162 17.7686C 39.2178 18.1012 39.7897 18.6572 40.332 19.4365C 40.8789 20.2158 41.2868 21.0749 41.5557 22.0137C 41.8291 22.9525 41.9658 23.9574 41.9658 25.0283ZM 51.0098 23.6611L 53.7852 23.6611L 53.7852 24.8574L 51.0098 24.8574L 51.0098 28.002L 49.7383 28.002L 49.7383 24.8574L 46.9629 24.8574L 46.9629 23.6611L 49.7383 23.6611L 49.7383 20.7559L 51.0098 20.7559L 51.0098 23.6611ZM 58.7549 24.96C 58.7549 23.93 58.8916 22.9411 59.165 21.9932C 59.443 21.0452 59.8555 20.1839 60.4023 19.4092C 60.9492 18.6344 61.5166 18.0876 62.1045 17.7686L 62.3643 18.6025C 61.6989 19.113 61.152 19.8923 60.7236 20.9404C 60.2998 21.9886 60.0674 23.1621 60.0264 24.4609L 60.0195 25.042C 60.0195 26.8011 60.3408 28.3278 60.9834 29.6221C 61.3708 30.3968 61.8311 31.0029 62.3643 31.4404L 62.1045 32.2129C 61.4984 31.8757 60.9196 31.3105 60.3682 30.5176C 59.2926 28.9681 58.7549 27.1156 58.7549 24.96ZM 72.748 22.2803L 70.6836 21.665L 70.998 20.6328L 73.0625 21.3984L 73.001 19.0469L 74.0469 19.0469L 73.9785 21.4326L 76.0088 20.6807L 76.3232 21.7197L 74.2246 22.3418L 75.5781 24.1943L 74.7305 24.8369L 73.459 22.8682L 72.2285 24.7891L 71.374 24.167L 72.748 22.2803ZM 83.8701 29L 77.3486 29L 77.3486 28.0908L 80.7939 24.2627C 81.3044 23.6839 81.6553 23.2145 81.8467 22.8545C 82.0426 22.4899 82.1406 22.1139 82.1406 21.7266C 82.1406 21.207 81.9834 20.7809 81.6689 20.4482C 81.3545 20.1156 80.9352 19.9492 80.4111 19.9492C 79.7822 19.9492 79.2923 20.1292 78.9414 20.4893C 78.5951 20.8447 78.4219 21.3415 78.4219 21.9795L 77.1572 21.9795C 77.1572 21.0635 77.4512 20.3229 78.0391 19.7578C 78.6315 19.1927 79.4222 18.9102 80.4111 18.9102C 81.3363 18.9102 82.0677 19.154 82.6055 19.6416C 83.1432 20.1247 83.4121 20.7695 83.4121 21.5762C 83.4121 22.556 82.7878 23.7227 81.5391 25.0762L 78.873 27.9678L 83.8701 27.9678L 83.8701 29ZM 88.2588 25.0283C 88.2588 26.0446 88.1243 27.0199 87.8555 27.9541C 87.5911 28.8838 87.1833 29.7428 86.6318 30.5312C 86.085 31.3197 85.5107 31.8802 84.9092 32.2129L 84.6426 31.4404C 85.3444 30.9027 85.9072 30.0687 86.3311 28.9385C 86.7594 27.8037 86.9782 26.5459 86.9873 25.165L 86.9873 24.9463C 86.9873 23.9893 86.887 23.1006 86.6865 22.2803C 86.486 21.4554 86.2057 20.7171 85.8457 20.0654C 85.4902 19.4137 85.0892 18.9056 84.6426 18.541L 84.9092 17.7686C 85.5107 18.1012 86.0827 18.6572 86.625 19.4365C 87.1719 20.2158 87.5798 21.0749 87.8486 22.0137C 88.1221 22.9525 88.2588 23.9574 88.2588 25.0283ZM 97.3027 23.6611L 100.078 23.6611L 100.078 24.8574L 97.3027 24.8574L 97.3027 28.002L 96.0312 28.002L 96.0312 24.8574L 93.2559 24.8574L 93.2559 23.6611L 96.0312 23.6611L 96.0312 20.7559L 97.3027 20.7559L 97.3027 23.6611ZM 105.048 24.96C 105.048 23.93 105.185 22.9411 105.458 21.9932C 105.736 21.0452 106.148 20.1839 106.695 19.4092C 107.242 18.6344 107.81 18.0876 108.397 17.7686L 108.657 18.6025C 107.992 19.113 107.445 19.8923 107.017 20.9404C 106.593 21.9886 106.36 23.1621 106.319 24.4609L 106.312 25.042C 106.312 26.8011 106.634 28.3278 107.276 29.6221C 107.664 30.3968 108.124 31.0029 108.657 31.4404L 108.397 32.2129C 107.791 31.8757 107.213 31.3105 106.661 30.5176C 105.586 28.9681 105.048 27.1156 105.048 24.96ZM 122.514 22.2803L 120.449 21.665L 120.764 20.6328L 122.828 21.3984L 122.767 19.0469L 123.812 19.0469L 123.744 21.4326L 125.774 20.6807L 126.089 21.7197L 123.99 22.3418L 125.344 24.1943L 124.496 24.8369L 123.225 22.8682L 121.994 24.7891L 121.14 24.167L 122.514 22.2803ZM 131.271 29L 129.999 29L 129.999 20.5713L 127.449 21.5078L 127.449 20.3594L 131.072 18.999L 131.271 18.999L 131.271 29ZM 138.024 25.0283C 138.024 26.0446 137.89 27.0199 137.621 27.9541C 137.357 28.8838 136.949 29.7428 136.397 30.5312C 135.851 31.3197 135.276 31.8802 134.675 32.2129L 134.408 31.4404C 135.11 30.9027 135.673 30.0687 136.097 28.9385C 136.525 27.8037 136.744 26.5459 136.753 25.165L 136.753 24.9463C 136.753 23.9893 136.653 23.1006 136.452 22.2803C 136.252 21.4554 135.971 20.7171 135.611 20.0654C 135.256 19.4137 134.855 18.9056 134.408 18.541L 134.675 17.7686C 135.276 18.1012 135.848 18.6572 136.391 19.4365C 136.938 20.2158 137.345 21.0749 137.614 22.0137C 137.888 22.9525 138.024 23.9574 138.024 25.0283ZM 0.90918 41.96C 0.90918 40.93 1.0459 39.9411 1.31934 38.9932C 1.59733 38.0452 2.00977 37.1839 2.55664 36.4092C 3.10352 35.6344 3.6709 35.0876 4.25879 34.7686L 4.51855 35.6025C 3.85319 36.113 3.30632 36.8923 2.87793 37.9404C 2.4541 38.9886 2.22168 40.1621 2.18066 41.4609L 2.17383 42.042C 2.17383 43.8011 2.49512 45.3278 3.1377 46.6221C 3.52507 47.3968 3.98535 48.0029 4.51855 48.4404L 4.25879 49.2129C 3.65267 48.8757 3.07389 48.3105 2.52246 47.5176C 1.44694 45.9681 0.90918 44.1156 0.90918 41.96ZM 26.4551 39.2803L 24.3906 38.665L 24.7051 37.6328L 26.7695 38.3984L 26.708 36.0469L 27.7539 36.0469L 27.6855 38.4326L 29.7158 37.6807L 30.0303 38.7197L 27.9316 39.3418L 29.2852 41.1943L 28.4375 41.8369L 27.166 39.8682L 25.9355 41.7891L 25.0811 41.167L 26.4551 39.2803ZM 35.2119 46L 33.9404 46L 33.9404 37.5713L 31.3906 38.5078L 31.3906 37.3594L 35.0137 35.999L 35.2119 35.999L 35.2119 46ZM 41.9658 42.0283C 41.9658 43.0446 41.8314 44.0199 41.5625 44.9541C 41.2982 45.8838 40.8903 46.7428 40.3389 47.5312C 39.792 48.3197 39.2178 48.8802 38.6162 49.2129L 38.3496 48.4404C 39.0514 47.9027 39.6143 47.0687 40.0381 45.9385C 40.4665 44.8037 40.6852 43.5459 40.6943 42.165L 40.6943 41.9463C 40.6943 40.9893 40.5941 40.1006 40.3936 39.2803C 40.193 38.4554 39.9128 37.7171 39.5527 37.0654C 39.1973 36.4137 38.7962 35.9056 38.3496 35.541L 38.6162 34.7686C 39.2178 35.1012 39.7897 35.6572 40.332 36.4365C 40.8789 37.2158 41.2868 38.0749 41.5557 39.0137C 41.8291 39.9525 41.9658 40.9574 41.9658 42.0283ZM 54.4824 40.6611L 57.2578 40.6611L 57.2578 41.8574L 54.4824 41.8574L 54.4824 45.002L 53.2109 45.002L 53.2109 41.8574L 50.4355 41.8574L 50.4355 40.6611L 53.2109 40.6611L 53.2109 37.7559L 54.4824 37.7559L 54.4824 40.6611ZM 62.2275 41.96C 62.2275 40.93 62.3643 39.9411 62.6377 38.9932C 62.9157 38.0452 63.3281 37.1839 63.875 36.4092C 64.4219 35.6344 64.9893 35.0876 65.5771 34.7686L 65.8369 35.6025C 65.1715 36.113 64.6247 36.8923 64.1963 37.9404C 63.7725 38.9886 63.54 40.1621 63.499 41.4609L 63.4922 42.042C 63.4922 43.8011 63.8135 45.3278 64.4561 46.6221C 64.8434 47.3968 65.3037 48.0029 65.8369 48.4404L 65.5771 49.2129C 64.971 48.8757 64.3923 48.3105 63.8408 47.5176C 62.7653 45.9681 62.2275 44.1156 62.2275 41.96ZM 76.2207 39.2803L 74.1562 38.665L 74.4707 37.6328L 76.5352 38.3984L 76.4736 36.0469L 77.5195 36.0469L 77.4512 38.4326L 79.4814 37.6807L 79.7959 38.7197L 77.6973 39.3418L 79.0508 41.1943L 78.2031 41.8369L 76.9316 39.8682L 75.7012 41.7891L 74.8467 41.167L 76.2207 39.2803ZM 87.3428 46L 80.8213 46L 80.8213 45.0908L 84.2666 41.2627C 84.777 40.6839 85.1279 40.2145 85.3193 39.8545C 85.5153 39.4899 85.6133 39.1139 85.6133 38.7266C 85.6133 38.207 85.4561 37.7809 85.1416 37.4482C 84.8271 37.1156 84.4079 36.9492 83.8838 36.9492C 83.2549 36.9492 82.765 37.1292 82.4141 37.4893C 82.0677 37.8447 81.8945 38.3415 81.8945 38.9795L 80.6299 38.9795C 80.6299 38.0635 80.9238 37.3229 81.5117 36.7578C 82.1042 36.1927 82.8949 35.9102 83.8838 35.9102C 84.8089 35.9102 85.5404 36.154 86.0781 36.6416C 86.6159 37.1247 86.8848 37.7695 86.8848 38.5762C 86.8848 39.556 86.2604 40.7227 85.0117 42.0762L 82.3457 44.9678L 87.3428 44.9678L 87.3428 46ZM 91.7314 42.0283C 91.7314 43.0446 91.597 44.0199 91.3281 44.9541C 91.0638 45.8838 90.6559 46.7428 90.1045 47.5312C 89.5576 48.3197 88.9834 48.8802 88.3818 49.2129L 88.1152 48.4404C 88.8171 47.9027 89.3799 47.0687 89.8037 45.9385C 90.2321 44.8037 90.4508 43.5459 90.46 42.165L 90.46 41.9463C 90.46 40.9893 90.3597 40.1006 90.1592 39.2803C 89.9587 38.4554 89.6784 37.7171 89.3184 37.0654C 88.9629 36.4137 88.5618 35.9056 88.1152 35.541L 88.3818 34.7686C 88.9834 35.1012 89.5553 35.6572 90.0977 36.4365C 90.6445 37.2158 91.0524 38.0749 91.3213 39.0137C 91.5947 39.9525 91.7314 40.9574 91.7314 42.0283ZM 100.775 40.6611L 103.551 40.6611L 103.551 41.8574L 100.775 41.8574L 100.775 45.002L 99.5039 45.002L 99.5039 41.8574L 96.7285 41.8574L 96.7285 40.6611L 99.5039 40.6611L 99.5039 37.7559L 100.775 37.7559L 100.775 40.6611ZM 108.521 41.96C 108.521 40.93 108.657 39.9411 108.931 38.9932C 109.209 38.0452 109.621 37.1839 110.168 36.4092C 110.715 35.6344 111.282 35.0876 111.87 34.7686L 112.13 35.6025C 111.465 36.113 110.918 36.8923 110.489 37.9404C 110.065 38.9886 109.833 40.1621 109.792 41.4609L 109.785 42.042C 109.785 43.8011 110.106 45.3278 110.749 46.6221C 111.136 47.3968 111.597 48.0029 112.13 48.4404L 111.87 49.2129C 111.264 48.8757 110.685 48.3105 110.134 47.5176C 109.058 45.9681 108.521 44.1156 108.521 41.96ZM 125.986 39.2803L 123.922 38.665L 124.236 37.6328L 126.301 38.3984L 126.239 36.0469L 127.285 36.0469L 127.217 38.4326L 129.247 37.6807L 129.562 38.7197L 127.463 39.3418L 128.816 41.1943L 127.969 41.8369L 126.697 39.8682L 125.467 41.7891L 124.612 41.167L 125.986 39.2803ZM 134.743 46L 133.472 46L 133.472 37.5713L 130.922 38.5078L 130.922 37.3594L 134.545 35.999L 134.743 35.999L 134.743 46ZM 141.497 42.0283C 141.497 43.0446 141.363 44.0199 141.094 44.9541C 140.829 45.8838 140.422 46.7428 139.87 47.5312C 139.323 48.3197 138.749 48.8802 138.147 49.2129L 137.881 48.4404C 138.583 47.9027 139.146 47.0687 139.569 45.9385C 139.998 44.8037 140.216 43.5459 140.226 42.165L 140.226 41.9463C 140.226 40.9893 140.125 40.1006 139.925 39.2803C 139.724 38.4554 139.444 37.7171 139.084 37.0654C 138.729 36.4137 138.327 35.9056 137.881 35.541L 138.147 34.7686C 138.749 35.1012 139.321 35.6572 139.863 36.4365C 140.41 37.2158 140.818 38.0749 141.087 39.0137C 141.36 39.9525 141.497 40.9574 141.497 42.0283Z"/>
<path id="path10_fill" d="M 4.9834 13L 3.71191 13L 3.71191 4.57129L 1.16211 5.50781L 1.16211 4.35938L 4.78516 2.99902L 4.9834 2.99902L 4.9834 13ZM 9.26953 8.00977L 9.77539 3.04688L 14.875 3.04688L 14.875 4.21582L 10.8486 4.21582L 10.5479 6.92969C 11.0355 6.64258 11.5892 6.49902 12.209 6.49902C 13.1159 6.49902 13.8359 6.7998 14.3691 7.40137C 14.9023 7.99837 15.1689 8.80729 15.1689 9.82812C 15.1689 10.8535 14.891 11.6624 14.335 12.2549C 13.7835 12.8428 13.0111 13.1367 12.0176 13.1367C 11.138 13.1367 10.4202 12.8929 9.86426 12.4053C 9.30827 11.9176 8.99154 11.2432 8.91406 10.3818L 10.1104 10.3818C 10.1878 10.9515 10.3906 11.3822 10.7188 11.6738C 11.0469 11.9609 11.4798 12.1045 12.0176 12.1045C 12.6055 12.1045 13.0658 11.904 13.3984 11.5029C 13.7357 11.1019 13.9043 10.5482 13.9043 9.8418C 13.9043 9.17643 13.722 8.64323 13.3574 8.24219C 12.9974 7.83659 12.5166 7.63379 11.915 7.63379C 11.3636 7.63379 10.9307 7.75456 10.6162 7.99609L 10.2812 8.26953L 9.26953 8.00977ZM 16.707 12.3369C 16.707 12.1182 16.7708 11.9359 16.8984 11.79C 17.0306 11.6442 17.2266 11.5713 17.4863 11.5713C 17.7461 11.5713 17.9421 11.6442 18.0742 11.79C 18.2109 11.9359 18.2793 12.1182 18.2793 12.3369C 18.2793 12.5465 18.2109 12.722 18.0742 12.8633C 17.9421 13.0046 17.7461 13.0752 17.4863 13.0752C 17.2266 13.0752 17.0306 13.0046 16.8984 12.8633C 16.7708 12.722 16.707 12.5465 16.707 12.3369ZM 26.667 3.75781L 22.5449 13L 21.2188 13L 25.3271 4.08594L 19.9404 4.08594L 19.9404 3.04688L 26.667 3.04688L 26.667 3.75781ZM 4.9834 29L 3.71191 29L 3.71191 20.5713L 1.16211 21.5078L 1.16211 20.3594L 4.78516 18.999L 4.9834 18.999L 4.9834 29ZM 14.0273 25.6572L 15.4082 25.6572L 15.4082 26.6895L 14.0273 26.6895L 14.0273 29L 12.7559 29L 12.7559 26.6895L 8.22363 26.6895L 8.22363 25.9443L 12.6807 19.0469L 14.0273 19.0469L 14.0273 25.6572ZM 9.65918 25.6572L 12.7559 25.6572L 12.7559 20.7764L 12.6055 21.0498L 9.65918 25.6572ZM 16.707 28.3369C 16.707 28.1182 16.7708 27.9359 16.8984 27.79C 17.0306 27.6442 17.2266 27.5713 17.4863 27.5713C 17.7461 27.5713 17.9421 27.6442 18.0742 27.79C 18.2109 27.9359 18.2793 28.1182 18.2793 28.3369C 18.2793 28.5465 18.2109 28.722 18.0742 28.8633C 17.9421 29.0046 17.7461 29.0752 17.4863 29.0752C 17.2266 29.0752 17.0306 29.0046 16.8984 28.8633C 16.7708 28.722 16.707 28.5465 16.707 28.3369ZM 26.667 19.7578L 22.5449 29L 21.2188 29L 25.3271 20.0859L 19.9404 20.0859L 19.9404 19.0469L 26.667 19.0469L 26.667 19.7578ZM 7.34863 46L 0.827148 46L 0.827148 45.0908L 4.27246 41.2627C 4.78288 40.6839 5.13379 40.2145 5.3252 39.8545C 5.52116 39.4899 5.61914 39.1139 5.61914 38.7266C 5.61914 38.207 5.46191 37.7809 5.14746 37.4482C 4.83301 37.1156 4.41374 36.9492 3.88965 36.9492C 3.26074 36.9492 2.77083 37.1292 2.41992 37.4893C 2.07357 37.8447 1.90039 38.3415 1.90039 38.9795L 0.635742 38.9795C 0.635742 38.0635 0.929688 37.3229 1.51758 36.7578C 2.11003 36.1927 2.90072 35.9102 3.88965 35.9102C 4.81478 35.9102 5.54622 36.154 6.08398 36.6416C 6.62174 37.1247 6.89062 37.7695 6.89062 38.5762C 6.89062 39.556 6.26628 40.7227 5.01758 42.0762L 2.35156 44.9678L 7.34863 44.9678L 7.34863 46ZM 14.9297 41.7549C 14.9297 43.236 14.6768 44.3366 14.1709 45.0566C 13.665 45.7767 12.8743 46.1367 11.7988 46.1367C 10.737 46.1367 9.95085 45.7858 9.44043 45.084C 8.93001 44.3776 8.66569 43.3249 8.64746 41.9258L 8.64746 40.2373C 8.64746 38.7744 8.90039 37.6875 9.40625 36.9766C 9.91211 36.2656 10.7051 35.9102 11.7852 35.9102C 12.8561 35.9102 13.6445 36.2542 14.1504 36.9424C 14.6562 37.626 14.916 38.6833 14.9297 40.1143L 14.9297 41.7549ZM 13.665 40.0254C 13.665 38.9544 13.5146 38.1751 13.2139 37.6875C 12.9131 37.1953 12.4368 36.9492 11.7852 36.9492C 11.138 36.9492 10.6663 37.193 10.3701 37.6807C 10.0739 38.1683 9.92122 38.918 9.91211 39.9297L 9.91211 41.9531C 9.91211 43.0286 10.0671 43.8239 10.377 44.3389C 10.6914 44.8493 11.1654 45.1045 11.7988 45.1045C 12.4232 45.1045 12.8857 44.863 13.1865 44.3799C 13.4919 43.8968 13.6514 43.1357 13.665 42.0967L 13.665 40.0254ZM 16.707 45.3369C 16.707 45.1182 16.7708 44.9359 16.8984 44.79C 17.0306 44.6442 17.2266 44.5713 17.4863 44.5713C 17.7461 44.5713 17.9421 44.6442 18.0742 44.79C 18.2109 44.9359 18.2793 45.1182 18.2793 45.3369C 18.2793 45.5465 18.2109 45.722 18.0742 45.8633C 17.9421 46.0046 17.7461 46.0752 17.4863 46.0752C 17.2266 46.0752 17.0306 46.0046 16.8984 45.8633C 16.7708 45.722 16.707 45.5465 16.707 45.3369ZM 26.667 36.7578L 22.5449 46L 21.2188 46L 25.3271 37.0859L 19.9404 37.0859L 19.9404 36.0469L 26.667 36.0469L 26.667 36.7578Z"/>
</defs>
</svg>

