<svg width="500" height="68" viewBox="0 0 500 68" version="1.1" xmlns="http://www.w3.org/2000/svg" xmlns:xlink="http://www.w3.org/1999/xlink" xmlns:figma="http://www.figma.com/figma/ns">
<title>Group</title>
<desc>Created using Figma</desc>
<g id="Canvas" transform="translate(681 -3966)" figma:type="canvas">
<g id="Group" figma:type="frame">
<g id="Component" figma:type="instance">
<g id="Line 2" figma:type="line">
<use xlink:href="#path0_stroke" transform="matrix(1.16657e-31 1 -0.999484 0.0321237 -566 3988)" fill="#333333"/>
</g>
<g id="Line 3" figma:type="line">
<use xlink:href="#path1_stroke" transform="translate(-566 3988)" fill="#333333"/>
</g>
<g id="Line 3" figma:type="line">
<use xlink:href="#path1_stroke" transform="translate(-566 4032)" fill="#333333"/>
</g>
</g>
<g id="Component" figma:type="instance">
<g id="Line 2" figma:type="line">
<use xlink:href="#path2_stroke" transform="matrix(-1.22465e-16 -1 0.999436 -0.0335822 -512 4032)" fill="#333333"/>
</g>
<g id="Line 3" figma:type="line">
<use xlink:href="#path1_stroke" transform="matrix(-1 1.22465e-16 -1.22465e-16 -1 -512 4032)" fill="#333333"/>
</g>
<g id="Line 3" figma:type="line">
<use xlink:href="#path1_stroke" transform="matrix(-1 1.22465e-16 -1.22465e-16 -1 -512 3986)" fill="#333333"/>
</g>
</g>
<g id="0.7 3 1.7 2" figma:type="text">
<use xlink:href="#path3_fill" transform="translate(-558 3993)" fill="#333333"/>
</g>
<g id="A" figma:type="text">
<use xlink:href="#path4_fill" transform="translate(-541 3963)"/>
</g>
<g id="Component" figma:type="instance">
<g id="Line 2" figma:type="line">
<use xlink:href="#path2_stroke" transform="matrix(1.11585e-31 1 -0.999436 0.0335822 -619 3987)" fill="#333333"/>
</g>
<g id="Line 3" figma:type="line">
<use xlink:href="#path1_stroke" transform="translate(-619 3987)" fill="#333333"/>
</g>
<g id="Line 3" figma:type="line">
<use xlink:href="#path1_stroke" transform="translate(-619 4033)" fill="#333333"/>
</g>
</g>
<g id="Component" figma:type="instance">
<g id="Line 2" figma:type="line">
<use xlink:href="#path5_stroke" transform="matrix(-1.22465e-16 -1 0.999411 -0.0343114 -577 4033)" fill="#333333"/>
</g>
<g id="Line 3" figma:type="line">
<use xlink:href="#path1_stroke" transform="matrix(-1 1.22465e-16 -1.22465e-16 -1 -577 4033)" fill="#333333"/>
</g>
<g id="Line 3" figma:type="line">
<use xlink:href="#path1_stroke" transform="matrix(-1 1.22465e-16 -1.22465e-16 -1 -577 3986)" fill="#333333"/>
</g>
</g>
<g id="1 2 2 3" figma:type="text">
<use xlink:href="#path6_fill" transform="translate(-610 3992)" fill="#2F80ED"/>
</g>
<g id="B" figma:type="text">
<use xlink:href="#path7_fill" transform="translate(-602 3963)"/>
</g>
<g id="BA" figma:type="text">
<use xlink:href="#path8_fill" transform="translate(-682 4000)"/>
</g>
<g id="=" figma:type="text">
<use xlink:href="#path9_fill" transform="translate(-648 4000)"/>
</g>
<g id="=" figma:type="text">
<use xlink:href="#path9_fill" transform="translate(-499 4000)"/>
</g>
<g id="Component" figma:type="instance">
<g id="Line 2" figma:type="line">
<use xlink:href="#path2_stroke" transform="matrix(1.11585e-31 1 -0.999436 0.0335822 -482 3987)" fill="#333333"/>
</g>
<g id="Line 3" figma:type="line">
<use xlink:href="#path1_stroke" transform="translate(-482 3987)" fill="#333333"/>
</g>
<g id="Line 3" figma:type="line">
<use xlink:href="#path1_stroke" transform="translate(-482 4033)" fill="#333333"/>
</g>
</g>
<g id="Component" figma:type="instance">
<g id="Line 2" figma:type="line">
<use xlink:href="#path5_stroke" transform="matrix(-1.22465e-16 -1 0.999411 -0.0343114 -287 4033)" fill="#333333"/>
</g>
<g id="Line 3" figma:type="line">
<use xlink:href="#path1_stroke" transform="matrix(-1 1.22465e-16 -1.22465e-16 -1 -287 4033)" fill="#333333"/>
</g>
<g id="Line 3" figma:type="line">
<use xlink:href="#path1_stroke" transform="matrix(-1 1.22465e-16 -1.22465e-16 -1 -287 3986)" fill="#333333"/>
</g>
</g>
<g id="(1*0.7 + 2*1.7) (1*3 + 2*2) (2*0.7 + 3*1.7) (2*3 + 3*2)" figma:type="text">
<use xlink:href="#path10_fill" transform="translate(-473 3992)" fill="#2F80ED"/>
<use xlink:href="#path11_fill" transform="translate(-473 3992)" fill="#333333"/>
</g>
<g id="=" figma:type="text">
<use xlink:href="#path9_fill" transform="translate(-273 3998)"/>
</g>
<g id="Component" figma:type="instance">
<g id="Line 2" figma:type="line">
<use xlink:href="#path2_stroke" transform="matrix(1.11585e-31 1 -0.999436 0.0335822 -257 3987)" fill="#333333"/>
</g>
<g id="Line 3" figma:type="line">
<use xlink:href="#path1_stroke" transform="translate(-257 3987)" fill="#333333"/>
</g>
<g id="Line 3" figma:type="line">
<use xlink:href="#path1_stroke" transform="translate(-257 4033)" fill="#333333"/>
</g>
</g>
<g id="Component" figma:type="instance">
<g id="Line 2" figma:type="line">
<use xlink:href="#path5_stroke" transform="matrix(-1.22465e-16 -1 0.999411 -0.0343114 -181 4033)" fill="#333333"/>
</g>
<g id="Line 3" figma:type="line">
<use xlink:href="#path1_stroke" transform="matrix(-1 1.22465e-16 -1.22465e-16 -1 -181 4033)" fill="#333333"/>
</g>
<g id="Line 3" figma:type="line">
<use xlink:href="#path1_stroke" transform="matrix(-1 1.22465e-16 -1.22465e-16 -1 -181 3986)" fill="#333333"/>
</g>
</g>
<g id="4.1 7 6.5 12" figma:type="text">
<use xlink:href="#path12_fill" transform="translate(-245 3993)" fill="#333333"/>
</g>
</g>
</g>
<defs>
<path id="path0_stroke" d="M 0 0L 44 0L 44 -1L 0 -1L 0 0Z"/>
<path id="path1_stroke" d="M 0 0L 6 0L 6 -1L 0 -1L 0 0Z"/>
<path id="path2_stroke" d="M 0 0L 46 0L 46 -1L 0 -1L 0 0Z"/>
<path id="path3_fill" d="M 7.06836 8.75488C 7.06836 10.236 6.81543 11.3366 6.30957 12.0566C 5.80371 12.7767 5.01302 13.1367 3.9375 13.1367C 2.87565 13.1367 2.08952 12.7858 1.5791 12.084C 1.06868 11.3776 0.804362 10.3249 0.786133 8.92578L 0.786133 7.2373C 0.786133 5.77441 1.03906 4.6875 1.54492 3.97656C 2.05078 3.26562 2.84375 2.91016 3.92383 2.91016C 4.99479 2.91016 5.7832 3.25423 6.28906 3.94238C 6.79492 4.62598 7.05469 5.68327 7.06836 7.11426L 7.06836 8.75488ZM 5.80371 7.02539C 5.80371 5.95443 5.65332 5.17513 5.35254 4.6875C 5.05176 4.19531 4.57552 3.94922 3.92383 3.94922C 3.27669 3.94922 2.80501 4.19303 2.50879 4.68066C 2.21257 5.16829 2.0599 5.91797 2.05078 6.92969L 2.05078 8.95312C 2.05078 10.0286 2.20573 10.8239 2.51562 11.3389C 2.83008 11.8493 3.30404 12.1045 3.9375 12.1045C 4.56185 12.1045 5.02441 11.863 5.3252 11.3799C 5.63053 10.8968 5.79004 10.1357 5.80371 9.09668L 5.80371 7.02539ZM 8.8457 12.3369C 8.8457 12.1182 8.90951 11.9359 9.03711 11.79C 9.16927 11.6442 9.36523 11.5713 9.625 11.5713C 9.88477 11.5713 10.0807 11.6442 10.2129 11.79C 10.3496 11.9359 10.418 12.1182 10.418 12.3369C 10.418 12.5465 10.3496 12.722 10.2129 12.8633C 10.0807 13.0046 9.88477 13.0752 9.625 13.0752C 9.36523 13.0752 9.16927 13.0046 9.03711 12.8633C 8.90951 12.722 8.8457 12.5465 8.8457 12.3369ZM 18.8057 3.75781L 14.6836 13L 13.3574 13L 17.4658 4.08594L 12.0791 4.08594L 12.0791 3.04688L 18.8057 3.04688L 18.8057 3.75781ZM 32.498 7.4082L 33.4482 7.4082C 34.0452 7.39909 34.5146 7.24186 34.8564 6.93652C 35.1982 6.63118 35.3691 6.21875 35.3691 5.69922C 35.3691 4.53255 34.7881 3.94922 33.626 3.94922C 33.0791 3.94922 32.6416 4.10645 32.3135 4.4209C 31.9899 4.73079 31.8281 5.14323 31.8281 5.6582L 30.5635 5.6582C 30.5635 4.86979 30.8506 4.21582 31.4248 3.69629C 32.0036 3.1722 32.7373 2.91016 33.626 2.91016C 34.5648 2.91016 35.3008 3.15853 35.834 3.65527C 36.3672 4.15202 36.6338 4.84245 36.6338 5.72656C 36.6338 6.15951 36.4925 6.57878 36.21 6.98438C 35.932 7.38997 35.5514 7.69303 35.0684 7.89355C 35.6152 8.06673 36.0368 8.35384 36.333 8.75488C 36.6338 9.15592 36.7842 9.64583 36.7842 10.2246C 36.7842 11.1178 36.4925 11.8265 35.9092 12.3506C 35.3258 12.8747 34.5671 13.1367 33.6328 13.1367C 32.6986 13.1367 31.9375 12.8838 31.3496 12.3779C 30.7663 11.8721 30.4746 11.2044 30.4746 10.375L 31.7461 10.375C 31.7461 10.8991 31.917 11.3184 32.2588 11.6328C 32.6006 11.9473 33.0586 12.1045 33.6328 12.1045C 34.2435 12.1045 34.7106 11.945 35.0342 11.626C 35.3577 11.307 35.5195 10.849 35.5195 10.252C 35.5195 9.67318 35.3418 9.22884 34.9863 8.91895C 34.6309 8.60905 34.1182 8.44954 33.4482 8.44043L 32.498 8.44043L 32.498 7.4082ZM 4.9834 29L 3.71191 29L 3.71191 20.5713L 1.16211 21.5078L 1.16211 20.3594L 4.78516 18.999L 4.9834 18.999L 4.9834 29ZM 8.8457 28.3369C 8.8457 28.1182 8.90951 27.9359 9.03711 27.79C 9.16927 27.6442 9.36523 27.5713 9.625 27.5713C 9.88477 27.5713 10.0807 27.6442 10.2129 27.79C 10.3496 27.9359 10.418 28.1182 10.418 28.3369C 10.418 28.5465 10.3496 28.722 10.2129 28.8633C 10.0807 29.0046 9.88477 29.0752 9.625 29.0752C 9.36523 29.0752 9.16927 29.0046 9.03711 28.8633C 8.90951 28.722 8.8457 28.5465 8.8457 28.3369ZM 18.8057 19.7578L 14.6836 29L 13.3574 29L 17.4658 20.0859L 12.0791 20.0859L 12.0791 19.0469L 18.8057 19.0469L 18.8057 19.7578ZM 37.1807 29L 30.6592 29L 30.6592 28.0908L 34.1045 24.2627C 34.6149 23.6839 34.9658 23.2145 35.1572 22.8545C 35.3532 22.4899 35.4512 22.1139 35.4512 21.7266C 35.4512 21.207 35.2939 20.7809 34.9795 20.4482C 34.665 20.1156 34.2458 19.9492 33.7217 19.9492C 33.0928 19.9492 32.6029 20.1292 32.252 20.4893C 31.9056 20.8447 31.7324 21.3415 31.7324 21.9795L 30.4678 21.9795C 30.4678 21.0635 30.7617 20.3229 31.3496 19.7578C 31.9421 19.1927 32.7327 18.9102 33.7217 18.9102C 34.6468 18.9102 35.3783 19.154 35.916 19.6416C 36.4538 20.1247 36.7227 20.7695 36.7227 21.5762C 36.7227 22.556 36.0983 23.7227 34.8496 25.0762L 32.1836 27.9678L 37.1807 27.9678L 37.1807 29Z"/>
<path id="path4_fill" d="M 6.65137 10.4023L 2.48145 10.4023L 1.54492 13L 0.191406 13L 3.99219 3.04688L 5.14062 3.04688L 8.94824 13L 7.60156 13L 6.65137 10.4023ZM 2.87793 9.32227L 6.26172 9.32227L 4.56641 4.66699L 2.87793 9.32227Z"/>
<path id="path5_stroke" d="M 0 0L 47 0L 47 -1L 0 -1L 0 0Z"/>
<path id="path6_fill" d="M 4.9834 13L 3.71191 13L 3.71191 4.57129L 1.16211 5.50781L 1.16211 4.35938L 4.78516 2.99902L 4.9834 2.99902L 4.9834 13ZM 25.6279 13L 19.1064 13L 19.1064 12.0908L 22.5518 8.2627C 23.0622 7.68392 23.4131 7.21452 23.6045 6.85449C 23.8005 6.48991 23.8984 6.11393 23.8984 5.72656C 23.8984 5.20703 23.7412 4.78092 23.4268 4.44824C 23.1123 4.11556 22.693 3.94922 22.1689 3.94922C 21.54 3.94922 21.0501 4.12923 20.6992 4.48926C 20.3529 4.84473 20.1797 5.34147 20.1797 5.97949L 18.915 5.97949C 18.915 5.06348 19.209 4.32292 19.7969 3.75781C 20.3893 3.19271 21.18 2.91016 22.1689 2.91016C 23.0941 2.91016 23.8255 3.15397 24.3633 3.6416C 24.901 4.12467 25.1699 4.76953 25.1699 5.57617C 25.1699 6.55599 24.5456 7.72266 23.2969 9.07617L 20.6309 11.9678L 25.6279 11.9678L 25.6279 13ZM 7.34863 29L 0.827148 29L 0.827148 28.0908L 4.27246 24.2627C 4.78288 23.6839 5.13379 23.2145 5.3252 22.8545C 5.52116 22.4899 5.61914 22.1139 5.61914 21.7266C 5.61914 21.207 5.46191 20.7809 5.14746 20.4482C 4.83301 20.1156 4.41374 19.9492 3.88965 19.9492C 3.26074 19.9492 2.77083 20.1292 2.41992 20.4893C 2.07357 20.8447 1.90039 21.3415 1.90039 21.9795L 0.635742 21.9795C 0.635742 21.0635 0.929688 20.3229 1.51758 19.7578C 2.11003 19.1927 2.90072 18.9102 3.88965 18.9102C 4.81478 18.9102 5.54622 19.154 6.08398 19.6416C 6.62174 20.1247 6.89062 20.7695 6.89062 21.5762C 6.89062 22.556 6.26628 23.7227 5.01758 25.0762L 2.35156 27.9678L 7.34863 27.9678L 7.34863 29ZM 20.9453 23.4082L 21.8955 23.4082C 22.4925 23.3991 22.9619 23.2419 23.3037 22.9365C 23.6455 22.6312 23.8164 22.2188 23.8164 21.6992C 23.8164 20.5326 23.2354 19.9492 22.0732 19.9492C 21.5264 19.9492 21.0889 20.1064 20.7607 20.4209C 20.4372 20.7308 20.2754 21.1432 20.2754 21.6582L 19.0107 21.6582C 19.0107 20.8698 19.2979 20.2158 19.8721 19.6963C 20.4508 19.1722 21.1846 18.9102 22.0732 18.9102C 23.012 18.9102 23.748 19.1585 24.2812 19.6553C 24.8145 20.152 25.0811 20.8424 25.0811 21.7266C 25.0811 22.1595 24.9398 22.5788 24.6572 22.9844C 24.3792 23.39 23.9987 23.693 23.5156 23.8936C 24.0625 24.0667 24.484 24.3538 24.7803 24.7549C 25.0811 25.1559 25.2314 25.6458 25.2314 26.2246C 25.2314 27.1178 24.9398 27.8265 24.3564 28.3506C 23.7731 28.8747 23.0143 29.1367 22.0801 29.1367C 21.1458 29.1367 20.3848 28.8838 19.7969 28.3779C 19.2135 27.8721 18.9219 27.2044 18.9219 26.375L 20.1934 26.375C 20.1934 26.8991 20.3643 27.3184 20.7061 27.6328C 21.0479 27.9473 21.5059 28.1045 22.0801 28.1045C 22.6908 28.1045 23.1579 27.945 23.4814 27.626C 23.805 27.307 23.9668 26.849 23.9668 26.252C 23.9668 25.6732 23.7891 25.2288 23.4336 24.9189C 23.0781 24.609 22.5654 24.4495 21.8955 24.4404L 20.9453 24.4404L 20.9453 23.4082Z"/>
<path id="path7_fill" d="M 1.15527 13L 1.15527 3.04688L 4.40918 3.04688C 5.48926 3.04688 6.30046 3.27018 6.84277 3.7168C 7.38965 4.16341 7.66309 4.82422 7.66309 5.69922C 7.66309 6.16406 7.53092 6.5765 7.2666 6.93652C 7.00228 7.29199 6.64225 7.56771 6.18652 7.76367C 6.72428 7.91406 7.14811 8.20117 7.45801 8.625C 7.77246 9.04427 7.92969 9.54557 7.92969 10.1289C 7.92969 11.0221 7.6403 11.724 7.06152 12.2344C 6.48275 12.7448 5.66471 13 4.60742 13L 1.15527 13ZM 2.46777 8.34473L 2.46777 11.9268L 4.63477 11.9268C 5.24544 11.9268 5.72624 11.7695 6.07715 11.4551C 6.43262 11.1361 6.61035 10.6986 6.61035 10.1426C 6.61035 8.94401 5.95866 8.34473 4.65527 8.34473L 2.46777 8.34473ZM 2.46777 7.29199L 4.4502 7.29199C 5.02441 7.29199 5.48242 7.14844 5.82422 6.86133C 6.17057 6.57422 6.34375 6.18457 6.34375 5.69238C 6.34375 5.14551 6.18424 4.74902 5.86523 4.50293C 5.54622 4.25228 5.06087 4.12695 4.40918 4.12695L 2.46777 4.12695L 2.46777 7.29199Z"/>
<path id="path8_fill" d="M 1.15527 13L 1.15527 3.04688L 4.40918 3.04688C 5.48926 3.04688 6.30046 3.27018 6.84277 3.7168C 7.38965 4.16341 7.66309 4.82422 7.66309 5.69922C 7.66309 6.16406 7.53092 6.5765 7.2666 6.93652C 7.00228 7.29199 6.64225 7.56771 6.18652 7.76367C 6.72428 7.91406 7.14811 8.20117 7.45801 8.625C 7.77246 9.04427 7.92969 9.54557 7.92969 10.1289C 7.92969 11.0221 7.6403 11.724 7.06152 12.2344C 6.48275 12.7448 5.66471 13 4.60742 13L 1.15527 13ZM 2.46777 8.34473L 2.46777 11.9268L 4.63477 11.9268C 5.24544 11.9268 5.72624 11.7695 6.07715 11.4551C 6.43262 11.1361 6.61035 10.6986 6.61035 10.1426C 6.61035 8.94401 5.95866 8.34473 4.65527 8.34473L 2.46777 8.34473ZM 2.46777 7.29199L 4.4502 7.29199C 5.02441 7.29199 5.48242 7.14844 5.82422 6.86133C 6.17057 6.57422 6.34375 6.18457 6.34375 5.69238C 6.34375 5.14551 6.18424 4.74902 5.86523 4.50293C 5.54622 4.25228 5.06087 4.12695 4.40918 4.12695L 2.46777 4.12695L 2.46777 7.29199ZM 15.374 10.4023L 11.2041 10.4023L 10.2676 13L 8.91406 13L 12.7148 3.04688L 13.8633 3.04688L 17.6709 13L 16.3242 13L 15.374 10.4023ZM 11.6006 9.32227L 14.9844 9.32227L 13.2891 4.66699L 11.6006 9.32227Z"/>
<path id="path9_fill" d="M 6.74023 7.43555L 1.03906 7.43555L 1.03906 6.33496L 6.74023 6.33496L 6.74023 7.43555ZM 6.74023 10.2725L 1.03906 10.2725L 1.03906 9.17871L 6.74023 9.17871L 6.74023 10.2725Z"/>
<path id="path10_fill" d="M 9.76855 13L 8.49707 13L 8.49707 4.57129L 5.94727 5.50781L 5.94727 4.35938L 9.57031 2.99902L 9.76855 2.99902L 9.76855 13ZM 60.3271 13L 53.8057 13L 53.8057 12.0908L 57.251 8.2627C 57.7614 7.68392 58.1123 7.21452 58.3037 6.85449C 58.4997 6.48991 58.5977 6.11393 58.5977 5.72656C 58.5977 5.20703 58.4404 4.78092 58.126 4.44824C 57.8115 4.11556 57.3923 3.94922 56.8682 3.94922C 56.2393 3.94922 55.7493 4.12923 55.3984 4.48926C 55.0521 4.84473 54.8789 5.34147 54.8789 5.97949L 53.6143 5.97949C 53.6143 5.06348 53.9082 4.32292 54.4961 3.75781C 55.0885 3.19271 55.8792 2.91016 56.8682 2.91016C 57.7933 2.91016 58.5247 3.15397 59.0625 3.6416C 59.6003 4.12467 59.8691 4.76953 59.8691 5.57617C 59.8691 6.55599 59.2448 7.72266 57.9961 9.07617L 55.3301 11.9678L 60.3271 11.9678L 60.3271 13ZM 111.337 13L 110.065 13L 110.065 4.57129L 107.516 5.50781L 107.516 4.35938L 111.139 2.99902L 111.337 2.99902L 111.337 13ZM 150.343 13L 143.821 13L 143.821 12.0908L 147.267 8.2627C 147.777 7.68392 148.128 7.21452 148.319 6.85449C 148.515 6.48991 148.613 6.11393 148.613 5.72656C 148.613 5.20703 148.456 4.78092 148.142 4.44824C 147.827 4.11556 147.408 3.94922 146.884 3.94922C 146.255 3.94922 145.765 4.12923 145.414 4.48926C 145.068 4.84473 144.895 5.34147 144.895 5.97949L 143.63 5.97949C 143.63 5.06348 143.924 4.32292 144.512 3.75781C 145.104 3.19271 145.895 2.91016 146.884 2.91016C 147.809 2.91016 148.54 3.15397 149.078 3.6416C 149.616 4.12467 149.885 4.76953 149.885 5.57617C 149.885 6.55599 149.26 7.72266 148.012 9.07617L 145.346 11.9678L 150.343 11.9678L 150.343 13ZM 12.1338 29L 5.6123 29L 5.6123 28.0908L 9.05762 24.2627C 9.56803 23.6839 9.91895 23.2145 10.1104 22.8545C 10.3063 22.4899 10.4043 22.1139 10.4043 21.7266C 10.4043 21.207 10.2471 20.7809 9.93262 20.4482C 9.61816 20.1156 9.19889 19.9492 8.6748 19.9492C 8.0459 19.9492 7.55599 20.1292 7.20508 20.4893C 6.85872 20.8447 6.68555 21.3415 6.68555 21.9795L 5.4209 21.9795C 5.4209 21.0635 5.71484 20.3229 6.30273 19.7578C 6.89518 19.1927 7.68587 18.9102 8.6748 18.9102C 9.59993 18.9102 10.3314 19.154 10.8691 19.6416C 11.4069 20.1247 11.6758 20.7695 11.6758 21.5762C 11.6758 22.556 11.0514 23.7227 9.80273 25.0762L 7.13672 27.9678L 12.1338 27.9678L 12.1338 29ZM 55.6445 23.4082L 56.5947 23.4082C 57.1917 23.3991 57.6611 23.2419 58.0029 22.9365C 58.3447 22.6312 58.5156 22.2188 58.5156 21.6992C 58.5156 20.5326 57.9346 19.9492 56.7725 19.9492C 56.2256 19.9492 55.7881 20.1064 55.46 20.4209C 55.1364 20.7308 54.9746 21.1432 54.9746 21.6582L 53.71 21.6582C 53.71 20.8698 53.9971 20.2158 54.5713 19.6963C 55.1501 19.1722 55.8838 18.9102 56.7725 18.9102C 57.7113 18.9102 58.4473 19.1585 58.9805 19.6553C 59.5137 20.152 59.7803 20.8424 59.7803 21.7266C 59.7803 22.1595 59.639 22.5788 59.3564 22.9844C 59.0785 23.39 58.6979 23.693 58.2148 23.8936C 58.7617 24.0667 59.1833 24.3538 59.4795 24.7549C 59.7803 25.1559 59.9307 25.6458 59.9307 26.2246C 59.9307 27.1178 59.639 27.8265 59.0557 28.3506C 58.4723 28.8747 57.7135 29.1367 56.7793 29.1367C 55.8451 29.1367 55.084 28.8838 54.4961 28.3779C 53.9128 27.8721 53.6211 27.2044 53.6211 26.375L 54.8926 26.375C 54.8926 26.8991 55.0635 27.3184 55.4053 27.6328C 55.7471 27.9473 56.2051 28.1045 56.7793 28.1045C 57.39 28.1045 57.8571 27.945 58.1807 27.626C 58.5042 27.307 58.666 26.849 58.666 26.252C 58.666 25.6732 58.4883 25.2288 58.1328 24.9189C 57.7773 24.609 57.2646 24.4495 56.5947 24.4404L 55.6445 24.4404L 55.6445 23.4082ZM 113.702 29L 107.181 29L 107.181 28.0908L 110.626 24.2627C 111.136 23.6839 111.487 23.2145 111.679 22.8545C 111.875 22.4899 111.973 22.1139 111.973 21.7266C 111.973 21.207 111.815 20.7809 111.501 20.4482C 111.187 20.1156 110.767 19.9492 110.243 19.9492C 109.614 19.9492 109.124 20.1292 108.773 20.4893C 108.427 20.8447 108.254 21.3415 108.254 21.9795L 106.989 21.9795C 106.989 21.0635 107.283 20.3229 107.871 19.7578C 108.464 19.1927 109.254 18.9102 110.243 18.9102C 111.168 18.9102 111.9 19.154 112.438 19.6416C 112.975 20.1247 113.244 20.7695 113.244 21.5762C 113.244 22.556 112.62 23.7227 111.371 25.0762L 108.705 27.9678L 113.702 27.9678L 113.702 29ZM 145.66 23.4082L 146.61 23.4082C 147.207 23.3991 147.677 23.2419 148.019 22.9365C 148.36 22.6312 148.531 22.2188 148.531 21.6992C 148.531 20.5326 147.95 19.9492 146.788 19.9492C 146.241 19.9492 145.804 20.1064 145.476 20.4209C 145.152 20.7308 144.99 21.1432 144.99 21.6582L 143.726 21.6582C 143.726 20.8698 144.013 20.2158 144.587 19.6963C 145.166 19.1722 145.899 18.9102 146.788 18.9102C 147.727 18.9102 148.463 19.1585 148.996 19.6553C 149.529 20.152 149.796 20.8424 149.796 21.7266C 149.796 22.1595 149.655 22.5788 149.372 22.9844C 149.094 23.39 148.714 23.693 148.23 23.8936C 148.777 24.0667 149.199 24.3538 149.495 24.7549C 149.796 25.1559 149.946 25.6458 149.946 26.2246C 149.946 27.1178 149.655 27.8265 149.071 28.3506C 148.488 28.8747 147.729 29.1367 146.795 29.1367C 145.861 29.1367 145.1 28.8838 144.512 28.3779C 143.928 27.8721 143.637 27.2044 143.637 26.375L 144.908 26.375C 144.908 26.8991 145.079 27.3184 145.421 27.6328C 145.763 27.9473 146.221 28.1045 146.795 28.1045C 147.406 28.1045 147.873 27.945 148.196 27.626C 148.52 27.307 148.682 26.849 148.682 26.252C 148.682 25.6732 148.504 25.2288 148.148 24.9189C 147.793 24.609 147.28 24.4495 146.61 24.4404L 145.66 24.4404L 145.66 23.4082Z"/>
<path id="path11_fill" d="M 0.90918 8.95996C 0.90918 7.93001 1.0459 6.94108 1.31934 5.99316C 1.59733 5.04525 2.00977 4.18392 2.55664 3.40918C 3.10352 2.63444 3.6709 2.08757 4.25879 1.76855L 4.51855 2.60254C 3.85319 3.11296 3.30632 3.89225 2.87793 4.94043C 2.4541 5.98861 2.22168 7.16211 2.18066 8.46094L 2.17383 9.04199C 2.17383 10.8011 2.49512 12.3278 3.1377 13.6221C 3.52507 14.3968 3.98535 15.0029 4.51855 15.4404L 4.25879 16.2129C 3.65267 15.8757 3.07389 15.3105 2.52246 14.5176C 1.44694 12.9681 0.90918 11.1156 0.90918 8.95996ZM 14.9023 6.28027L 12.8379 5.66504L 13.1523 4.63281L 15.2168 5.39844L 15.1553 3.04688L 16.2012 3.04688L 16.1328 5.43262L 18.1631 4.68066L 18.4775 5.71973L 16.3789 6.3418L 17.7324 8.19434L 16.8848 8.83691L 15.6133 6.86816L 14.3828 8.78906L 13.5283 8.16699L 14.9023 6.28027ZM 25.7441 8.75488C 25.7441 10.236 25.4912 11.3366 24.9854 12.0566C 24.4795 12.7767 23.6888 13.1367 22.6133 13.1367C 21.5514 13.1367 20.7653 12.7858 20.2549 12.084C 19.7445 11.3776 19.4801 10.3249 19.4619 8.92578L 19.4619 7.2373C 19.4619 5.77441 19.7148 4.6875 20.2207 3.97656C 20.7266 3.26562 21.5195 2.91016 22.5996 2.91016C 23.6706 2.91016 24.459 3.25423 24.9648 3.94238C 25.4707 4.62598 25.7305 5.68327 25.7441 7.11426L 25.7441 8.75488ZM 24.4795 7.02539C 24.4795 5.95443 24.3291 5.17513 24.0283 4.6875C 23.7275 4.19531 23.2513 3.94922 22.5996 3.94922C 21.9525 3.94922 21.4808 4.19303 21.1846 4.68066C 20.8883 5.16829 20.7357 5.91797 20.7266 6.92969L 20.7266 8.95312C 20.7266 10.0286 20.8815 10.8239 21.1914 11.3389C 21.5059 11.8493 21.9798 12.1045 22.6133 12.1045C 23.2376 12.1045 23.7002 11.863 24.001 11.3799C 24.3063 10.8968 24.4658 10.1357 24.4795 9.09668L 24.4795 7.02539ZM 27.5215 12.3369C 27.5215 12.1182 27.5853 11.9359 27.7129 11.79C 27.8451 11.6442 28.041 11.5713 28.3008 11.5713C 28.5605 11.5713 28.7565 11.6442 28.8887 11.79C 29.0254 11.9359 29.0938 12.1182 29.0938 12.3369C 29.0938 12.5465 29.0254 12.722 28.8887 12.8633C 28.7565 13.0046 28.5605 13.0752 28.3008 13.0752C 28.041 13.0752 27.8451 13.0046 27.7129 12.8633C 27.5853 12.722 27.5215 12.5465 27.5215 12.3369ZM 37.4814 3.75781L 33.3594 13L 32.0332 13L 36.1416 4.08594L 30.7549 4.08594L 30.7549 3.04688L 37.4814 3.04688L 37.4814 3.75781ZM 46.1426 7.66113L 48.918 7.66113L 48.918 8.85742L 46.1426 8.85742L 46.1426 12.002L 44.8711 12.002L 44.8711 8.85742L 42.0957 8.85742L 42.0957 7.66113L 44.8711 7.66113L 44.8711 4.75586L 46.1426 4.75586L 46.1426 7.66113ZM 63.0957 6.28027L 61.0312 5.66504L 61.3457 4.63281L 63.4102 5.39844L 63.3486 3.04688L 64.3945 3.04688L 64.3262 5.43262L 66.3564 4.68066L 66.6709 5.71973L 64.5723 6.3418L 65.9258 8.19434L 65.0781 8.83691L 63.8066 6.86816L 62.5762 8.78906L 61.7217 8.16699L 63.0957 6.28027ZM 71.8525 13L 70.5811 13L 70.5811 4.57129L 68.0312 5.50781L 68.0312 4.35938L 71.6543 2.99902L 71.8525 2.99902L 71.8525 13ZM 75.7148 12.3369C 75.7148 12.1182 75.7786 11.9359 75.9062 11.79C 76.0384 11.6442 76.2344 11.5713 76.4941 11.5713C 76.7539 11.5713 76.9499 11.6442 77.082 11.79C 77.2188 11.9359 77.2871 12.1182 77.2871 12.3369C 77.2871 12.5465 77.2188 12.722 77.082 12.8633C 76.9499 13.0046 76.7539 13.0752 76.4941 13.0752C 76.2344 13.0752 76.0384 13.0046 75.9062 12.8633C 75.7786 12.722 75.7148 12.5465 75.7148 12.3369ZM 85.6748 3.75781L 81.5527 13L 80.2266 13L 84.335 4.08594L 78.9482 4.08594L 78.9482 3.04688L 85.6748 3.04688L 85.6748 3.75781ZM 90.1592 9.02832C 90.1592 10.0446 90.0247 11.0199 89.7559 11.9541C 89.4915 12.8838 89.0837 13.7428 88.5322 14.5312C 87.9854 15.3197 87.4111 15.8802 86.8096 16.2129L 86.543 15.4404C 87.2448 14.9027 87.8076 14.0687 88.2314 12.9385C 88.6598 11.8037 88.8786 10.5459 88.8877 9.16504L 88.8877 8.94629C 88.8877 7.98926 88.7874 7.10059 88.5869 6.28027C 88.3864 5.4554 88.1061 4.71712 87.7461 4.06543C 87.3906 3.41374 86.9896 2.9056 86.543 2.54102L 86.8096 1.76855C 87.4111 2.10124 87.9831 2.65723 88.5254 3.43652C 89.0723 4.21582 89.4801 5.07487 89.749 6.01367C 90.0225 6.95247 90.1592 7.95736 90.1592 9.02832ZM 102.478 8.95996C 102.478 7.93001 102.614 6.94108 102.888 5.99316C 103.166 5.04525 103.578 4.18392 104.125 3.40918C 104.672 2.63444 105.239 2.08757 105.827 1.76855L 106.087 2.60254C 105.422 3.11296 104.875 3.89225 104.446 4.94043C 104.022 5.98861 103.79 7.16211 103.749 8.46094L 103.742 9.04199C 103.742 10.8011 104.063 12.3278 104.706 13.6221C 105.093 14.3968 105.554 15.0029 106.087 15.4404L 105.827 16.2129C 105.221 15.8757 104.642 15.3105 104.091 14.5176C 103.015 12.9681 102.478 11.1156 102.478 8.95996ZM 116.471 6.28027L 114.406 5.66504L 114.721 4.63281L 116.785 5.39844L 116.724 3.04688L 117.77 3.04688L 117.701 5.43262L 119.731 4.68066L 120.046 5.71973L 117.947 6.3418L 119.301 8.19434L 118.453 8.83691L 117.182 6.86816L 115.951 8.78906L 115.097 8.16699L 116.471 6.28027ZM 122.91 7.4082L 123.86 7.4082C 124.457 7.39909 124.927 7.24186 125.269 6.93652C 125.61 6.63118 125.781 6.21875 125.781 5.69922C 125.781 4.53255 125.2 3.94922 124.038 3.94922C 123.491 3.94922 123.054 4.10645 122.726 4.4209C 122.402 4.73079 122.24 5.14323 122.24 5.6582L 120.976 5.6582C 120.976 4.86979 121.263 4.21582 121.837 3.69629C 122.416 3.1722 123.149 2.91016 124.038 2.91016C 124.977 2.91016 125.713 3.15853 126.246 3.65527C 126.779 4.15202 127.046 4.84245 127.046 5.72656C 127.046 6.15951 126.905 6.57878 126.622 6.98438C 126.344 7.38997 125.964 7.69303 125.48 7.89355C 126.027 8.06673 126.449 8.35384 126.745 8.75488C 127.046 9.15592 127.196 9.64583 127.196 10.2246C 127.196 11.1178 126.905 11.8265 126.321 12.3506C 125.738 12.8747 124.979 13.1367 124.045 13.1367C 123.111 13.1367 122.35 12.8838 121.762 12.3779C 121.178 11.8721 120.887 11.2044 120.887 10.375L 122.158 10.375C 122.158 10.8991 122.329 11.3184 122.671 11.6328C 123.013 11.9473 123.471 12.1045 124.045 12.1045C 124.656 12.1045 125.123 11.945 125.446 11.626C 125.77 11.307 125.932 10.849 125.932 10.252C 125.932 9.67318 125.754 9.22884 125.398 8.91895C 125.043 8.60905 124.53 8.44954 123.86 8.44043L 122.91 8.44043L 122.91 7.4082ZM 136.158 7.66113L 138.934 7.66113L 138.934 8.85742L 136.158 8.85742L 136.158 12.002L 134.887 12.002L 134.887 8.85742L 132.111 8.85742L 132.111 7.66113L 134.887 7.66113L 134.887 4.75586L 136.158 4.75586L 136.158 7.66113ZM 153.111 6.28027L 151.047 5.66504L 151.361 4.63281L 153.426 5.39844L 153.364 3.04688L 154.41 3.04688L 154.342 5.43262L 156.372 4.68066L 156.687 5.71973L 154.588 6.3418L 155.941 8.19434L 155.094 8.83691L 153.822 6.86816L 152.592 8.78906L 151.737 8.16699L 153.111 6.28027ZM 164.233 13L 157.712 13L 157.712 12.0908L 161.157 8.2627C 161.668 7.68392 162.019 7.21452 162.21 6.85449C 162.406 6.48991 162.504 6.11393 162.504 5.72656C 162.504 5.20703 162.347 4.78092 162.032 4.44824C 161.718 4.11556 161.299 3.94922 160.774 3.94922C 160.146 3.94922 159.656 4.12923 159.305 4.48926C 158.958 4.84473 158.785 5.34147 158.785 5.97949L 157.521 5.97949C 157.521 5.06348 157.814 4.32292 158.402 3.75781C 158.995 3.19271 159.785 2.91016 160.774 2.91016C 161.7 2.91016 162.431 3.15397 162.969 3.6416C 163.507 4.12467 163.775 4.76953 163.775 5.57617C 163.775 6.55599 163.151 7.72266 161.902 9.07617L 159.236 11.9678L 164.233 11.9678L 164.233 13ZM 168.622 9.02832C 168.622 10.0446 168.488 11.0199 168.219 11.9541C 167.954 12.8838 167.547 13.7428 166.995 14.5312C 166.448 15.3197 165.874 15.8802 165.272 16.2129L 165.006 15.4404C 165.708 14.9027 166.271 14.0687 166.694 12.9385C 167.123 11.8037 167.341 10.5459 167.351 9.16504L 167.351 8.94629C 167.351 7.98926 167.25 7.10059 167.05 6.28027C 166.849 5.4554 166.569 4.71712 166.209 4.06543C 165.854 3.41374 165.452 2.9056 165.006 2.54102L 165.272 1.76855C 165.874 2.10124 166.446 2.65723 166.988 3.43652C 167.535 4.21582 167.943 5.07487 168.212 6.01367C 168.485 6.95247 168.622 7.95736 168.622 9.02832ZM 0.90918 24.96C 0.90918 23.93 1.0459 22.9411 1.31934 21.9932C 1.59733 21.0452 2.00977 20.1839 2.55664 19.4092C 3.10352 18.6344 3.6709 18.0876 4.25879 17.7686L 4.51855 18.6025C 3.85319 19.113 3.30632 19.8923 2.87793 20.9404C 2.4541 21.9886 2.22168 23.1621 2.18066 24.4609L 2.17383 25.042C 2.17383 26.8011 2.49512 28.3278 3.1377 29.6221C 3.52507 30.3968 3.98535 31.0029 4.51855 31.4404L 4.25879 32.2129C 3.65267 31.8757 3.07389 31.3105 2.52246 30.5176C 1.44694 28.9681 0.90918 27.1156 0.90918 24.96ZM 14.9023 22.2803L 12.8379 21.665L 13.1523 20.6328L 15.2168 21.3984L 15.1553 19.0469L 16.2012 19.0469L 16.1328 21.4326L 18.1631 20.6807L 18.4775 21.7197L 16.3789 22.3418L 17.7324 24.1943L 16.8848 24.8369L 15.6133 22.8682L 14.3828 24.7891L 13.5283 24.167L 14.9023 22.2803ZM 25.7441 24.7549C 25.7441 26.236 25.4912 27.3366 24.9854 28.0566C 24.4795 28.7767 23.6888 29.1367 22.6133 29.1367C 21.5514 29.1367 20.7653 28.7858 20.2549 28.084C 19.7445 27.3776 19.4801 26.3249 19.4619 24.9258L 19.4619 23.2373C 19.4619 21.7744 19.7148 20.6875 20.2207 19.9766C 20.7266 19.2656 21.5195 18.9102 22.5996 18.9102C 23.6706 18.9102 24.459 19.2542 24.9648 19.9424C 25.4707 20.626 25.7305 21.6833 25.7441 23.1143L 25.7441 24.7549ZM 24.4795 23.0254C 24.4795 21.9544 24.3291 21.1751 24.0283 20.6875C 23.7275 20.1953 23.2513 19.9492 22.5996 19.9492C 21.9525 19.9492 21.4808 20.193 21.1846 20.6807C 20.8883 21.1683 20.7357 21.918 20.7266 22.9297L 20.7266 24.9531C 20.7266 26.0286 20.8815 26.8239 21.1914 27.3389C 21.5059 27.8493 21.9798 28.1045 22.6133 28.1045C 23.2376 28.1045 23.7002 27.863 24.001 27.3799C 24.3063 26.8968 24.4658 26.1357 24.4795 25.0967L 24.4795 23.0254ZM 27.5215 28.3369C 27.5215 28.1182 27.5853 27.9359 27.7129 27.79C 27.8451 27.6442 28.041 27.5713 28.3008 27.5713C 28.5605 27.5713 28.7565 27.6442 28.8887 27.79C 29.0254 27.9359 29.0938 28.1182 29.0938 28.3369C 29.0938 28.5465 29.0254 28.722 28.8887 28.8633C 28.7565 29.0046 28.5605 29.0752 28.3008 29.0752C 28.041 29.0752 27.8451 29.0046 27.7129 28.8633C 27.5853 28.722 27.5215 28.5465 27.5215 28.3369ZM 37.4814 19.7578L 33.3594 29L 32.0332 29L 36.1416 20.0859L 30.7549 20.0859L 30.7549 19.0469L 37.4814 19.0469L 37.4814 19.7578ZM 46.1426 23.6611L 48.918 23.6611L 48.918 24.8574L 46.1426 24.8574L 46.1426 28.002L 44.8711 28.002L 44.8711 24.8574L 42.0957 24.8574L 42.0957 23.6611L 44.8711 23.6611L 44.8711 20.7559L 46.1426 20.7559L 46.1426 23.6611ZM 63.0957 22.2803L 61.0312 21.665L 61.3457 20.6328L 63.4102 21.3984L 63.3486 19.0469L 64.3945 19.0469L 64.3262 21.4326L 66.3564 20.6807L 66.6709 21.7197L 64.5723 22.3418L 65.9258 24.1943L 65.0781 24.8369L 63.8066 22.8682L 62.5762 24.7891L 61.7217 24.167L 63.0957 22.2803ZM 71.8525 29L 70.5811 29L 70.5811 20.5713L 68.0312 21.5078L 68.0312 20.3594L 71.6543 18.999L 71.8525 18.999L 71.8525 29ZM 75.7148 28.3369C 75.7148 28.1182 75.7786 27.9359 75.9062 27.79C 76.0384 27.6442 76.2344 27.5713 76.4941 27.5713C 76.7539 27.5713 76.9499 27.6442 77.082 27.79C 77.2188 27.9359 77.2871 28.1182 77.2871 28.3369C 77.2871 28.5465 77.2188 28.722 77.082 28.8633C 76.9499 29.0046 76.7539 29.0752 76.4941 29.0752C 76.2344 29.0752 76.0384 29.0046 75.9062 28.8633C 75.7786 28.722 75.7148 28.5465 75.7148 28.3369ZM 85.6748 19.7578L 81.5527 29L 80.2266 29L 84.335 20.0859L 78.9482 20.0859L 78.9482 19.0469L 85.6748 19.0469L 85.6748 19.7578ZM 90.1592 25.0283C 90.1592 26.0446 90.0247 27.0199 89.7559 27.9541C 89.4915 28.8838 89.0837 29.7428 88.5322 30.5312C 87.9854 31.3197 87.4111 31.8802 86.8096 32.2129L 86.543 31.4404C 87.2448 30.9027 87.8076 30.0687 88.2314 28.9385C 88.6598 27.8037 88.8786 26.5459 88.8877 25.165L 88.8877 24.9463C 88.8877 23.9893 88.7874 23.1006 88.5869 22.2803C 88.3864 21.4554 88.1061 20.7171 87.7461 20.0654C 87.3906 19.4137 86.9896 18.9056 86.543 18.541L 86.8096 17.7686C 87.4111 18.1012 87.9831 18.6572 88.5254 19.4365C 89.0723 20.2158 89.4801 21.0749 89.749 22.0137C 90.0225 22.9525 90.1592 23.9574 90.1592 25.0283ZM 102.478 24.96C 102.478 23.93 102.614 22.9411 102.888 21.9932C 103.166 21.0452 103.578 20.1839 104.125 19.4092C 104.672 18.6344 105.239 18.0876 105.827 17.7686L 106.087 18.6025C 105.422 19.113 104.875 19.8923 104.446 20.9404C 104.022 21.9886 103.79 23.1621 103.749 24.4609L 103.742 25.042C 103.742 26.8011 104.063 28.3278 104.706 29.6221C 105.093 30.3968 105.554 31.0029 106.087 31.4404L 105.827 32.2129C 105.221 31.8757 104.642 31.3105 104.091 30.5176C 103.015 28.9681 102.478 27.1156 102.478 24.96ZM 116.471 22.2803L 114.406 21.665L 114.721 20.6328L 116.785 21.3984L 116.724 19.0469L 117.77 19.0469L 117.701 21.4326L 119.731 20.6807L 120.046 21.7197L 117.947 22.3418L 119.301 24.1943L 118.453 24.8369L 117.182 22.8682L 115.951 24.7891L 115.097 24.167L 116.471 22.2803ZM 122.91 23.4082L 123.86 23.4082C 124.457 23.3991 124.927 23.2419 125.269 22.9365C 125.61 22.6312 125.781 22.2188 125.781 21.6992C 125.781 20.5326 125.2 19.9492 124.038 19.9492C 123.491 19.9492 123.054 20.1064 122.726 20.4209C 122.402 20.7308 122.24 21.1432 122.24 21.6582L 120.976 21.6582C 120.976 20.8698 121.263 20.2158 121.837 19.6963C 122.416 19.1722 123.149 18.9102 124.038 18.9102C 124.977 18.9102 125.713 19.1585 126.246 19.6553C 126.779 20.152 127.046 20.8424 127.046 21.7266C 127.046 22.1595 126.905 22.5788 126.622 22.9844C 126.344 23.39 125.964 23.693 125.48 23.8936C 126.027 24.0667 126.449 24.3538 126.745 24.7549C 127.046 25.1559 127.196 25.6458 127.196 26.2246C 127.196 27.1178 126.905 27.8265 126.321 28.3506C 125.738 28.8747 124.979 29.1367 124.045 29.1367C 123.111 29.1367 122.35 28.8838 121.762 28.3779C 121.178 27.8721 120.887 27.2044 120.887 26.375L 122.158 26.375C 122.158 26.8991 122.329 27.3184 122.671 27.6328C 123.013 27.9473 123.471 28.1045 124.045 28.1045C 124.656 28.1045 125.123 27.945 125.446 27.626C 125.77 27.307 125.932 26.849 125.932 26.252C 125.932 25.6732 125.754 25.2288 125.398 24.9189C 125.043 24.609 124.53 24.4495 123.86 24.4404L 122.91 24.4404L 122.91 23.4082ZM 136.158 23.6611L 138.934 23.6611L 138.934 24.8574L 136.158 24.8574L 136.158 28.002L 134.887 28.002L 134.887 24.8574L 132.111 24.8574L 132.111 23.6611L 134.887 23.6611L 134.887 20.7559L 136.158 20.7559L 136.158 23.6611ZM 153.111 22.2803L 151.047 21.665L 151.361 20.6328L 153.426 21.3984L 153.364 19.0469L 154.41 19.0469L 154.342 21.4326L 156.372 20.6807L 156.687 21.7197L 154.588 22.3418L 155.941 24.1943L 155.094 24.8369L 153.822 22.8682L 152.592 24.7891L 151.737 24.167L 153.111 22.2803ZM 164.233 29L 157.712 29L 157.712 28.0908L 161.157 24.2627C 161.668 23.6839 162.019 23.2145 162.21 22.8545C 162.406 22.4899 162.504 22.1139 162.504 21.7266C 162.504 21.207 162.347 20.7809 162.032 20.4482C 161.718 20.1156 161.299 19.9492 160.774 19.9492C 160.146 19.9492 159.656 20.1292 159.305 20.4893C 158.958 20.8447 158.785 21.3415 158.785 21.9795L 157.521 21.9795C 157.521 21.0635 157.814 20.3229 158.402 19.7578C 158.995 19.1927 159.785 18.9102 160.774 18.9102C 161.7 18.9102 162.431 19.154 162.969 19.6416C 163.507 20.1247 163.775 20.7695 163.775 21.5762C 163.775 22.556 163.151 23.7227 161.902 25.0762L 159.236 27.9678L 164.233 27.9678L 164.233 29ZM 168.622 25.0283C 168.622 26.0446 168.488 27.0199 168.219 27.9541C 167.954 28.8838 167.547 29.7428 166.995 30.5312C 166.448 31.3197 165.874 31.8802 165.272 32.2129L 165.006 31.4404C 165.708 30.9027 166.271 30.0687 166.694 28.9385C 167.123 27.8037 167.341 26.5459 167.351 25.165L 167.351 24.9463C 167.351 23.9893 167.25 23.1006 167.05 22.2803C 166.849 21.4554 166.569 20.7171 166.209 20.0654C 165.854 19.4137 165.452 18.9056 165.006 18.541L 165.272 17.7686C 165.874 18.1012 166.446 18.6572 166.988 19.4365C 167.535 20.2158 167.943 21.0749 168.212 22.0137C 168.485 22.9525 168.622 23.9574 168.622 25.0283Z"/>
<path id="path12_fill" d="M 6.16602 9.65723L 7.54688 9.65723L 7.54688 10.6895L 6.16602 10.6895L 6.16602 13L 4.89453 13L 4.89453 10.6895L 0.362305 10.6895L 0.362305 9.94434L 4.81934 3.04688L 6.16602 3.04688L 6.16602 9.65723ZM 1.79785 9.65723L 4.89453 9.65723L 4.89453 4.77637L 4.74414 5.0498L 1.79785 9.65723ZM 8.8457 12.3369C 8.8457 12.1182 8.90951 11.9359 9.03711 11.79C 9.16927 11.6442 9.36523 11.5713 9.625 11.5713C 9.88477 11.5713 10.0807 11.6442 10.2129 11.79C 10.3496 11.9359 10.418 12.1182 10.418 12.3369C 10.418 12.5465 10.3496 12.722 10.2129 12.8633C 10.0807 13.0046 9.88477 13.0752 9.625 13.0752C 9.36523 13.0752 9.16927 13.0046 9.03711 12.8633C 8.90951 12.722 8.8457 12.5465 8.8457 12.3369ZM 16.5361 13L 15.2646 13L 15.2646 4.57129L 12.7148 5.50781L 12.7148 4.35938L 16.3379 2.99902L 16.5361 2.99902L 16.5361 13ZM 40.5576 3.75781L 36.4355 13L 35.1094 13L 39.2178 4.08594L 33.8311 4.08594L 33.8311 3.04688L 40.5576 3.04688L 40.5576 3.75781ZM 5.79004 19.04L 5.79004 20.1133L 5.55762 20.1133C 4.57324 20.1315 3.78939 20.4232 3.20605 20.9883C 2.62272 21.5534 2.28548 22.3486 2.19434 23.374C 2.71842 22.7725 3.43392 22.4717 4.34082 22.4717C 5.20671 22.4717 5.89714 22.777 6.41211 23.3877C 6.93164 23.9984 7.19141 24.7868 7.19141 25.7529C 7.19141 26.7783 6.91113 27.5986 6.35059 28.2139C 5.7946 28.8291 5.0472 29.1367 4.1084 29.1367C 3.15592 29.1367 2.38346 28.7721 1.79102 28.043C 1.19857 27.3092 0.902344 26.3659 0.902344 25.2129L 0.902344 24.7275C 0.902344 22.8955 1.29199 21.4964 2.07129 20.5303C 2.85514 19.5596 4.01953 19.0628 5.56445 19.04L 5.79004 19.04ZM 4.12891 23.5244C 3.69596 23.5244 3.2972 23.6543 2.93262 23.9141C 2.56803 24.1738 2.3151 24.4997 2.17383 24.8916L 2.17383 25.3564C 2.17383 26.1768 2.3584 26.8376 2.72754 27.3389C 3.09668 27.8402 3.55697 28.0908 4.1084 28.0908C 4.67806 28.0908 5.12467 27.8812 5.44824 27.4619C 5.77637 27.0426 5.94043 26.4935 5.94043 25.8145C 5.94043 25.1309 5.77409 24.5794 5.44141 24.1602C 5.11328 23.7363 4.67578 23.5244 4.12891 23.5244ZM 8.8457 28.3369C 8.8457 28.1182 8.90951 27.9359 9.03711 27.79C 9.16927 27.6442 9.36523 27.5713 9.625 27.5713C 9.88477 27.5713 10.0807 27.6442 10.2129 27.79C 10.3496 27.9359 10.418 28.1182 10.418 28.3369C 10.418 28.5465 10.3496 28.722 10.2129 28.8633C 10.0807 29.0046 9.88477 29.0752 9.625 29.0752C 9.36523 29.0752 9.16927 29.0046 9.03711 28.8633C 8.90951 28.722 8.8457 28.5465 8.8457 28.3369ZM 12.9609 24.0098L 13.4668 19.0469L 18.5664 19.0469L 18.5664 20.2158L 14.54 20.2158L 14.2393 22.9297C 14.7269 22.6426 15.2806 22.499 15.9004 22.499C 16.8073 22.499 17.5273 22.7998 18.0605 23.4014C 18.5938 23.9984 18.8604 24.8073 18.8604 25.8281C 18.8604 26.8535 18.5824 27.6624 18.0264 28.2549C 17.4749 28.8428 16.7025 29.1367 15.709 29.1367C 14.8294 29.1367 14.1117 28.8929 13.5557 28.4053C 12.9997 27.9176 12.6829 27.2432 12.6055 26.3818L 13.8018 26.3818C 13.8792 26.9515 14.082 27.3822 14.4102 27.6738C 14.7383 27.9609 15.1712 28.1045 15.709 28.1045C 16.2969 28.1045 16.7572 27.904 17.0898 27.5029C 17.4271 27.1019 17.5957 26.5482 17.5957 25.8418C 17.5957 25.1764 17.4134 24.6432 17.0488 24.2422C 16.6888 23.8366 16.208 23.6338 15.6064 23.6338C 15.055 23.6338 14.6221 23.7546 14.3076 23.9961L 13.9727 24.2695L 12.9609 24.0098ZM 38.2881 29L 37.0166 29L 37.0166 20.5713L 34.4668 21.5078L 34.4668 20.3594L 38.0898 18.999L 38.2881 18.999L 38.2881 29ZM 48.5146 29L 41.9932 29L 41.9932 28.0908L 45.4385 24.2627C 45.9489 23.6839 46.2998 23.2145 46.4912 22.8545C 46.6872 22.4899 46.7852 22.1139 46.7852 21.7266C 46.7852 21.207 46.6279 20.7809 46.3135 20.4482C 45.999 20.1156 45.5798 19.9492 45.0557 19.9492C 44.4268 19.9492 43.9368 20.1292 43.5859 20.4893C 43.2396 20.8447 43.0664 21.3415 43.0664 21.9795L 41.8018 21.9795C 41.8018 21.0635 42.0957 20.3229 42.6836 19.7578C 43.276 19.1927 44.0667 18.9102 45.0557 18.9102C 45.9808 18.9102 46.7122 19.154 47.25 19.6416C 47.7878 20.1247 48.0566 20.7695 48.0566 21.5762C 48.0566 22.556 47.4323 23.7227 46.1836 25.0762L 43.5176 27.9678L 48.5146 27.9678L 48.5146 29Z"/>
</defs>
</svg>

