<?xml version="1.0" encoding="UTF-8" standalone="no"?>
<!-- Copyright 2017 mathsisfun.com -->
<svg xmlns="http://www.w3.org/2000/svg" width="558.6" height="91.3" version="1.1">
<defs/>
<path style="color:black; overflow:visible; fill:#0169c9; stroke:#636466; stroke-width:0.1; stroke-linejoin:round;" d="m 370.1,1.3 c 3.2,-0 8.3,-1 6.9,3.9 -0.2,20.3 0.3,40.9 -0.2,61.1 -2.3,0.9 -5.2,0.2 -7.7,0.4 -1.4,-3.5 4.5,-1.3 6.1,-1.9 -1,0.6 -0,-4.6 -0.4,-6 0,-18.5 -0.2,-38.3 0.1,-56.1 1.2,0.5 -3.8,0 -4.9,0.2 0.2,0.4 -0.2,-2.9 0.1,-1.6 z"/>
<path style="color:black; overflow:visible; fill:#0169c9; stroke:#636466; stroke-width:0.1; stroke-linejoin:round;" d="m 7.5,0.3 c -3.2,-0 -8.3,-1 -6.9,3.9 0.2,20.3 -0.3,40.9 0.2,61.1 2.3,0.9 5.2,0.2 7.7,0.4 1.4,-3.5 -4.5,-1.3 -6.1,-1.9 1,0.6 0,-4.6 0.4,-6 -0,-18.5 0.2,-38.3 -0.1,-56.1 -1.2,0.5 3.8,0 4.9,0.2 -0.2,0.4 0.2,-2.9 -0.1,-1.6 z"/>
<text x="17.2" y="15.1" style="font-family:'Comic Sans MS'; font-weight:900; font-size:15.5px; color:black; overflow:visible; fill:#fd3301; stroke-width:1.1;">0×1 - (-2)×1</text>
<text x="148.6" y="14.7" style="font-family:'Comic Sans MS'; font-weight:900; font-size:15.5px; color:black; overflow:visible; fill:#fd3301; stroke-width:1.1;">2×1 - (-2)×0</text>
<text x="281.5" y="14.7" style="font-family:'Comic Sans MS'; font-weight:900; font-size:15.5px; color:black; overflow:visible; fill:#fd3301; stroke-width:1.1;">2×1 - 0×0</text>
<text x="16.1" y="40.7" style="font-family:'Comic Sans MS'; font-weight:900; font-size:15.5px; color:black; overflow:visible; fill:#fd3301; stroke-width:1.1;">0×1 - 2×1</text>
<text x="147.6" y="40.4" style="font-family:'Comic Sans MS'; font-weight:900; font-size:15.5px; color:black; overflow:visible; fill:#fd3301; stroke-width:1.1;">3×1 - 2×0</text>
<text x="280.5" y="40.4" style="font-family:'Comic Sans MS'; font-weight:900; font-size:15.5px; color:black; overflow:visible; fill:#fd3301; stroke-width:1.1;">3×1 - 0×0</text>
<text x="16.7" y="66.1" style="font-family:'Comic Sans MS'; font-weight:900; font-size:15.5px; color:black; overflow:visible; fill:#fd3301; stroke-width:1.1;">0×(-2) - 2×0</text>
<text x="148.2" y="65.8" style="font-family:'Comic Sans MS'; font-weight:900; font-size:15.5px; color:black; overflow:visible; fill:#fd3301; stroke-width:1.1;">3×(-2) - 2×2</text>
<text x="281.1" y="65.8" style="font-family:'Comic Sans MS'; font-weight:900; font-size:15.5px; color:black; overflow:visible; fill:#fd3301; stroke-width:1.1;">3×0 - 0×2</text>
<path style="color:black; overflow:visible; fill:#0169c9; stroke:#636466; stroke-width:0.1; stroke-linejoin:round;" d="m 532.4,1.8 c 3.2,-0 8.3,-1 6.9,3.9 -0.2,20.3 0.3,40.9 -0.2,61.1 -2.3,0.9 -5.2,0.2 -7.7,0.4 -1.4,-3.5 4.5,-1.3 6.1,-1.9 -1,0.6 -0,-4.6 -0.4,-6 0,-18.5 -0.2,-38.3 0.1,-56.1 1.2,0.5 -3.8,0 -4.9,0.2 0.2,0.4 -0.2,-2.9 0.1,-1.6 z"/>
<text x="478" y="17.9" style="font-family:'Comic Sans MS'; font-weight:900; font-size:15.5px; color:black; overflow:visible; fill:#fd3301; stroke-width:1.1;">2</text>
<text x="442.3" y="17.9" style="font-family:'Comic Sans MS'; font-weight:900; font-size:15.5px; color:black; overflow:visible; fill:#fd3301; stroke-width:1.1;">2</text>
<text x="434.3" y="40.7" style="font-family:'Comic Sans MS'; font-weight:900; font-size:15.5px; color:black; overflow:visible; fill:#fd3301; stroke-width:1.1;">-2</text>
<text x="461.3" y="63.3" style="font-family:'Comic Sans MS'; font-weight:900; font-size:15.5px; color:black; overflow:visible; fill:#fd3301; stroke-width:1.1;">-10</text>
<text x="442.4" y="63.3" style="font-family:'Comic Sans MS'; font-weight:900; font-size:15.5px; color:black; overflow:visible; fill:#fd3301; stroke-width:1.1;">0</text>
<text x="478.1" y="40.7" style="font-family:'Comic Sans MS'; font-weight:900; font-size:15.5px; color:black; overflow:visible; fill:#fd3301; stroke-width:1.1;">3</text>
<path style="color:black; overflow:visible; fill:#0169c9; stroke:#636466; stroke-width:0.1; stroke-linejoin:round;" d="m 430.1,1.8 c -3.2,-0 -8.3,-1 -6.9,3.9 0.2,20.3 -0.3,40.9 0.2,61.1 2.3,0.9 5.2,0.2 7.7,0.4 1.4,-3.5 -4.5,-1.3 -6.1,-1.9 1,0.6 0,-4.6 0.4,-6 -0,-18.5 0.2,-38.3 -0.1,-56.1 -1.2,0.5 3.8,0 4.9,0.2 -0.2,0.4 0.2,-2.9 -0.1,-1.6 z"/>
<text x="514.2" y="17.9" style="font-family:'Comic Sans MS'; font-weight:900; font-size:15.5px; color:black; overflow:visible; fill:#fd3301; stroke-width:1.1;">2</text>
<text x="514.3" y="63.3" style="font-family:'Comic Sans MS'; font-weight:900; font-size:15.5px; color:black; overflow:visible; fill:#fd3301; stroke-width:1.1;">0</text>
<text x="514.4" y="40.7" style="font-family:'Comic Sans MS'; font-weight:900; font-size:15.5px; color:black; overflow:visible; fill:#fd3301; stroke-width:1.1;">3</text>
<text x="394.8" y="39.5" style="font-family:'Comic Sans MS'; font-weight:bold; font-size:21.8px; color:black; overflow:visible; fill:#d76cff; stroke-width:1.1;">=</text>
<text x="403.7" y="89.8" style="font-family:'Comic Sans MS'; font-size:19.3px; font-style:italic; color:black; overflow:visible; fill:#005c94; stroke-width:1px;">Matrix of Minors</text>
</svg>
