<svg width="329" height="80" viewBox="0 0 329 80" version="1.1" xmlns="http://www.w3.org/2000/svg" xmlns:xlink="http://www.w3.org/1999/xlink" xmlns:figma="http://www.figma.com/figma/ns">
<title>Group</title>
<desc>Created using Figma</desc>
<g id="Canvas" transform="translate(743 -2314)" figma:type="canvas">
<g id="Group" figma:type="frame">
<g id="Component" figma:type="instance">
<g id="Line 2" figma:type="line">
<use xlink:href="#path0_stroke" transform="matrix(8.55488e-32 1 -0.999041 0.0437856 -648 2333)" fill="#333333"/>
</g>
<g id="Line 3" figma:type="line">
<use xlink:href="#path1_stroke" transform="translate(-648 2333)" fill="#333333"/>
</g>
<g id="Line 3" figma:type="line">
<use xlink:href="#path1_stroke" transform="translate(-648 2393)" fill="#333333"/>
</g>
</g>
<g id="Component" figma:type="instance">
<g id="Line 2" figma:type="line">
<use xlink:href="#path0_stroke" transform="matrix(-1.22465e-16 -1 0.999041 -0.0437856 -563 2393)" fill="#333333"/>
</g>
<g id="Line 3" figma:type="line">
<use xlink:href="#path1_stroke" transform="matrix(-1 1.22465e-16 -1.22465e-16 -1 -563 2393)" fill="#333333"/>
</g>
<g id="Line 3" figma:type="line">
<use xlink:href="#path1_stroke" transform="matrix(-1 1.22465e-16 -1.22465e-16 -1 -563 2333)" fill="#333333"/>
</g>
</g>
<g id="0.7 3 9 1.7 2 9 0.7 9 2" figma:type="text">
<use xlink:href="#path2_fill" transform="translate(-636 2338)"/>
</g>
<g id="5A" figma:type="text">
<use xlink:href="#path3_fill" transform="translate(-744 2353)"/>
</g>
<g id="=" figma:type="text">
<use xlink:href="#path4_fill" transform="translate(-686 2353)"/>
</g>
<g id="A" figma:type="text">
<use xlink:href="#path5_fill" transform="translate(-607 2311)"/>
</g>
<g id="5" figma:type="text">
<use xlink:href="#path6_fill" transform="translate(-665 2352)"/>
</g>
<g id="=" figma:type="text">
<use xlink:href="#path4_fill" transform="translate(-535 2346)"/>
</g>
<g id="Component" figma:type="instance">
<g id="Line 2" figma:type="line">
<use xlink:href="#path0_stroke" transform="matrix(8.55488e-32 1 -0.999041 0.0437856 -507 2333)" fill="#333333"/>
</g>
<g id="Line 3" figma:type="line">
<use xlink:href="#path1_stroke" transform="translate(-507 2333)" fill="#333333"/>
</g>
<g id="Line 3" figma:type="line">
<use xlink:href="#path1_stroke" transform="translate(-507 2393)" fill="#333333"/>
</g>
</g>
<g id="Component" figma:type="instance">
<g id="Line 2" figma:type="line">
<use xlink:href="#path0_stroke" transform="matrix(-1.22465e-16 -1 0.999041 -0.0437856 -414 2393)" fill="#333333"/>
</g>
<g id="Line 3" figma:type="line">
<use xlink:href="#path1_stroke" transform="matrix(-1 1.22465e-16 -1.22465e-16 -1 -414 2393)" fill="#333333"/>
</g>
<g id="Line 3" figma:type="line">
<use xlink:href="#path1_stroke" transform="matrix(-1 1.22465e-16 -1.22465e-16 -1 -414 2333)" fill="#333333"/>
</g>
</g>
<g id="3.5 15 45 8.5 10 45 3.5 45 10" figma:type="text">
<use xlink:href="#path7_fill" transform="translate(-497 2338)"/>
</g>
</g>
</g>
<defs>
<path id="path0_stroke" d="M 0 0L 60 0L 60 -1L 0 -1L 0 0Z"/>
<path id="path1_stroke" d="M 0 0L 6 0L 6 -1L 0 -1L 0 0Z"/>
<path id="path2_fill" d="M 7.06836 8.75488C 7.06836 10.236 6.81543 11.3366 6.30957 12.0566C 5.80371 12.7767 5.01302 13.1367 3.9375 13.1367C 2.87565 13.1367 2.08952 12.7858 1.5791 12.084C 1.06868 11.3776 0.804362 10.3249 0.786133 8.92578L 0.786133 7.2373C 0.786133 5.77441 1.03906 4.6875 1.54492 3.97656C 2.05078 3.26562 2.84375 2.91016 3.92383 2.91016C 4.99479 2.91016 5.7832 3.25423 6.28906 3.94238C 6.79492 4.62598 7.05469 5.68327 7.06836 7.11426L 7.06836 8.75488ZM 5.80371 7.02539C 5.80371 5.95443 5.65332 5.17513 5.35254 4.6875C 5.05176 4.19531 4.57552 3.94922 3.92383 3.94922C 3.27669 3.94922 2.80501 4.19303 2.50879 4.68066C 2.21257 5.16829 2.0599 5.91797 2.05078 6.92969L 2.05078 8.95312C 2.05078 10.0286 2.20573 10.8239 2.51562 11.3389C 2.83008 11.8493 3.30404 12.1045 3.9375 12.1045C 4.56185 12.1045 5.02441 11.863 5.3252 11.3799C 5.63053 10.8968 5.79004 10.1357 5.80371 9.09668L 5.80371 7.02539ZM 8.8457 12.3369C 8.8457 12.1182 8.90951 11.9359 9.03711 11.79C 9.16927 11.6442 9.36523 11.5713 9.625 11.5713C 9.88477 11.5713 10.0807 11.6442 10.2129 11.79C 10.3496 11.9359 10.418 12.1182 10.418 12.3369C 10.418 12.5465 10.3496 12.722 10.2129 12.8633C 10.0807 13.0046 9.88477 13.0752 9.625 13.0752C 9.36523 13.0752 9.16927 13.0046 9.03711 12.8633C 8.90951 12.722 8.8457 12.5465 8.8457 12.3369ZM 18.8057 3.75781L 14.6836 13L 13.3574 13L 17.4658 4.08594L 12.0791 4.08594L 12.0791 3.04688L 18.8057 3.04688L 18.8057 3.75781ZM 32.498 7.4082L 33.4482 7.4082C 34.0452 7.39909 34.5146 7.24186 34.8564 6.93652C 35.1982 6.63118 35.3691 6.21875 35.3691 5.69922C 35.3691 4.53255 34.7881 3.94922 33.626 3.94922C 33.0791 3.94922 32.6416 4.10645 32.3135 4.4209C 31.9899 4.73079 31.8281 5.14323 31.8281 5.6582L 30.5635 5.6582C 30.5635 4.86979 30.8506 4.21582 31.4248 3.69629C 32.0036 3.1722 32.7373 2.91016 33.626 2.91016C 34.5648 2.91016 35.3008 3.15853 35.834 3.65527C 36.3672 4.15202 36.6338 4.84245 36.6338 5.72656C 36.6338 6.15951 36.4925 6.57878 36.21 6.98438C 35.932 7.38997 35.5514 7.69303 35.0684 7.89355C 35.6152 8.06673 36.0368 8.35384 36.333 8.75488C 36.6338 9.15592 36.7842 9.64583 36.7842 10.2246C 36.7842 11.1178 36.4925 11.8265 35.9092 12.3506C 35.3258 12.8747 34.5671 13.1367 33.6328 13.1367C 32.6986 13.1367 31.9375 12.8838 31.3496 12.3779C 30.7663 11.8721 30.4746 11.2044 30.4746 10.375L 31.7461 10.375C 31.7461 10.8991 31.917 11.3184 32.2588 11.6328C 32.6006 11.9473 33.0586 12.1045 33.6328 12.1045C 34.2435 12.1045 34.7106 11.945 35.0342 11.626C 35.3577 11.307 35.5195 10.849 35.5195 10.252C 35.5195 9.67318 35.3418 9.22884 34.9863 8.91895C 34.6309 8.60905 34.1182 8.44954 33.4482 8.44043L 32.498 8.44043L 32.498 7.4082ZM 53.7852 8.625C 53.5208 8.93945 53.2041 9.19238 52.835 9.38379C 52.4704 9.5752 52.0693 9.6709 51.6318 9.6709C 51.0576 9.6709 50.5563 9.52962 50.1279 9.24707C 49.7041 8.96452 49.376 8.56803 49.1436 8.05762C 48.9111 7.54264 48.7949 6.97526 48.7949 6.35547C 48.7949 5.6901 48.9202 5.09082 49.1709 4.55762C 49.4261 4.02441 49.7861 3.61654 50.251 3.33398C 50.7158 3.05143 51.2581 2.91016 51.8779 2.91016C 52.8623 2.91016 53.637 3.2793 54.2021 4.01758C 54.7718 4.7513 55.0566 5.75391 55.0566 7.02539L 55.0566 7.39453C 55.0566 9.33138 54.6738 10.7464 53.9082 11.6396C 53.1426 12.5283 51.9873 12.984 50.4424 13.0068L 50.1963 13.0068L 50.1963 11.9404L 50.4629 11.9404C 51.5065 11.9222 52.3086 11.651 52.8691 11.127C 53.4297 10.5983 53.735 9.76432 53.7852 8.625ZM 51.8369 8.625C 52.2607 8.625 52.6504 8.49512 53.0059 8.23535C 53.3659 7.97559 53.6279 7.6543 53.792 7.27148L 53.792 6.76562C 53.792 5.9362 53.612 5.26172 53.252 4.74219C 52.8919 4.22266 52.4362 3.96289 51.8848 3.96289C 51.3288 3.96289 50.8822 4.17708 50.5449 4.60547C 50.2077 5.0293 50.0391 5.58984 50.0391 6.28711C 50.0391 6.96615 50.2008 7.52669 50.5244 7.96875C 50.8525 8.40625 51.29 8.625 51.8369 8.625ZM 4.9834 29L 3.71191 29L 3.71191 20.5713L 1.16211 21.5078L 1.16211 20.3594L 4.78516 18.999L 4.9834 18.999L 4.9834 29ZM 8.8457 28.3369C 8.8457 28.1182 8.90951 27.9359 9.03711 27.79C 9.16927 27.6442 9.36523 27.5713 9.625 27.5713C 9.88477 27.5713 10.0807 27.6442 10.2129 27.79C 10.3496 27.9359 10.418 28.1182 10.418 28.3369C 10.418 28.5465 10.3496 28.722 10.2129 28.8633C 10.0807 29.0046 9.88477 29.0752 9.625 29.0752C 9.36523 29.0752 9.16927 29.0046 9.03711 28.8633C 8.90951 28.722 8.8457 28.5465 8.8457 28.3369ZM 18.8057 19.7578L 14.6836 29L 13.3574 29L 17.4658 20.0859L 12.0791 20.0859L 12.0791 19.0469L 18.8057 19.0469L 18.8057 19.7578ZM 37.1807 29L 30.6592 29L 30.6592 28.0908L 34.1045 24.2627C 34.6149 23.6839 34.9658 23.2145 35.1572 22.8545C 35.3532 22.4899 35.4512 22.1139 35.4512 21.7266C 35.4512 21.207 35.2939 20.7809 34.9795 20.4482C 34.665 20.1156 34.2458 19.9492 33.7217 19.9492C 33.0928 19.9492 32.6029 20.1292 32.252 20.4893C 31.9056 20.8447 31.7324 21.3415 31.7324 21.9795L 30.4678 21.9795C 30.4678 21.0635 30.7617 20.3229 31.3496 19.7578C 31.9421 19.1927 32.7327 18.9102 33.7217 18.9102C 34.6468 18.9102 35.3783 19.154 35.916 19.6416C 36.4538 20.1247 36.7227 20.7695 36.7227 21.5762C 36.7227 22.556 36.0983 23.7227 34.8496 25.0762L 32.1836 27.9678L 37.1807 27.9678L 37.1807 29ZM 53.7852 24.625C 53.5208 24.9395 53.2041 25.1924 52.835 25.3838C 52.4704 25.5752 52.0693 25.6709 51.6318 25.6709C 51.0576 25.6709 50.5563 25.5296 50.1279 25.2471C 49.7041 24.9645 49.376 24.568 49.1436 24.0576C 48.9111 23.5426 48.7949 22.9753 48.7949 22.3555C 48.7949 21.6901 48.9202 21.0908 49.1709 20.5576C 49.4261 20.0244 49.7861 19.6165 50.251 19.334C 50.7158 19.0514 51.2581 18.9102 51.8779 18.9102C 52.8623 18.9102 53.637 19.2793 54.2021 20.0176C 54.7718 20.7513 55.0566 21.7539 55.0566 23.0254L 55.0566 23.3945C 55.0566 25.3314 54.6738 26.7464 53.9082 27.6396C 53.1426 28.5283 51.9873 28.984 50.4424 29.0068L 50.1963 29.0068L 50.1963 27.9404L 50.4629 27.9404C 51.5065 27.9222 52.3086 27.651 52.8691 27.127C 53.4297 26.5983 53.735 25.7643 53.7852 24.625ZM 51.8369 24.625C 52.2607 24.625 52.6504 24.4951 53.0059 24.2354C 53.3659 23.9756 53.6279 23.6543 53.792 23.2715L 53.792 22.7656C 53.792 21.9362 53.612 21.2617 53.252 20.7422C 52.8919 20.2227 52.4362 19.9629 51.8848 19.9629C 51.3288 19.9629 50.8822 20.1771 50.5449 20.6055C 50.2077 21.0293 50.0391 21.5898 50.0391 22.2871C 50.0391 22.9661 50.2008 23.5267 50.5244 23.9688C 50.8525 24.4062 51.29 24.625 51.8369 24.625ZM 7.06836 41.7549C 7.06836 43.236 6.81543 44.3366 6.30957 45.0566C 5.80371 45.7767 5.01302 46.1367 3.9375 46.1367C 2.87565 46.1367 2.08952 45.7858 1.5791 45.084C 1.06868 44.3776 0.804362 43.3249 0.786133 41.9258L 0.786133 40.2373C 0.786133 38.7744 1.03906 37.6875 1.54492 36.9766C 2.05078 36.2656 2.84375 35.9102 3.92383 35.9102C 4.99479 35.9102 5.7832 36.2542 6.28906 36.9424C 6.79492 37.626 7.05469 38.6833 7.06836 40.1143L 7.06836 41.7549ZM 5.80371 40.0254C 5.80371 38.9544 5.65332 38.1751 5.35254 37.6875C 5.05176 37.1953 4.57552 36.9492 3.92383 36.9492C 3.27669 36.9492 2.80501 37.193 2.50879 37.6807C 2.21257 38.1683 2.0599 38.918 2.05078 39.9297L 2.05078 41.9531C 2.05078 43.0286 2.20573 43.8239 2.51562 44.3389C 2.83008 44.8493 3.30404 45.1045 3.9375 45.1045C 4.56185 45.1045 5.02441 44.863 5.3252 44.3799C 5.63053 43.8968 5.79004 43.1357 5.80371 42.0967L 5.80371 40.0254ZM 8.8457 45.3369C 8.8457 45.1182 8.90951 44.9359 9.03711 44.79C 9.16927 44.6442 9.36523 44.5713 9.625 44.5713C 9.88477 44.5713 10.0807 44.6442 10.2129 44.79C 10.3496 44.9359 10.418 45.1182 10.418 45.3369C 10.418 45.5465 10.3496 45.722 10.2129 45.8633C 10.0807 46.0046 9.88477 46.0752 9.625 46.0752C 9.36523 46.0752 9.16927 46.0046 9.03711 45.8633C 8.90951 45.722 8.8457 45.5465 8.8457 45.3369ZM 18.8057 36.7578L 14.6836 46L 13.3574 46L 17.4658 37.0859L 12.0791 37.0859L 12.0791 36.0469L 18.8057 36.0469L 18.8057 36.7578ZM 35.5059 41.625C 35.2415 41.9395 34.9248 42.1924 34.5557 42.3838C 34.1911 42.5752 33.79 42.6709 33.3525 42.6709C 32.7783 42.6709 32.277 42.5296 31.8486 42.2471C 31.4248 41.9645 31.0967 41.568 30.8643 41.0576C 30.6318 40.5426 30.5156 39.9753 30.5156 39.3555C 30.5156 38.6901 30.641 38.0908 30.8916 37.5576C 31.1468 37.0244 31.5068 36.6165 31.9717 36.334C 32.4365 36.0514 32.9788 35.9102 33.5986 35.9102C 34.583 35.9102 35.3577 36.2793 35.9229 37.0176C 36.4925 37.7513 36.7773 38.7539 36.7773 40.0254L 36.7773 40.3945C 36.7773 42.3314 36.3945 43.7464 35.6289 44.6396C 34.8633 45.5283 33.708 45.984 32.1631 46.0068L 31.917 46.0068L 31.917 44.9404L 32.1836 44.9404C 33.2272 44.9222 34.0293 44.651 34.5898 44.127C 35.1504 43.5983 35.4557 42.7643 35.5059 41.625ZM 33.5576 41.625C 33.9814 41.625 34.3711 41.4951 34.7266 41.2354C 35.0866 40.9756 35.3486 40.6543 35.5127 40.2715L 35.5127 39.7656C 35.5127 38.9362 35.3327 38.2617 34.9727 37.7422C 34.6126 37.2227 34.1569 36.9629 33.6055 36.9629C 33.0495 36.9629 32.6029 37.1771 32.2656 37.6055C 31.9284 38.0293 31.7598 38.5898 31.7598 39.2871C 31.7598 39.9661 31.9215 40.5267 32.2451 40.9688C 32.5732 41.4062 33.0107 41.625 33.5576 41.625ZM 55.46 46L 48.9385 46L 48.9385 45.0908L 52.3838 41.2627C 52.8942 40.6839 53.2451 40.2145 53.4365 39.8545C 53.6325 39.4899 53.7305 39.1139 53.7305 38.7266C 53.7305 38.207 53.5732 37.7809 53.2588 37.4482C 52.9443 37.1156 52.5251 36.9492 52.001 36.9492C 51.3721 36.9492 50.8822 37.1292 50.5312 37.4893C 50.1849 37.8447 50.0117 38.3415 50.0117 38.9795L 48.7471 38.9795C 48.7471 38.0635 49.041 37.3229 49.6289 36.7578C 50.2214 36.1927 51.012 35.9102 52.001 35.9102C 52.9261 35.9102 53.6576 36.154 54.1953 36.6416C 54.7331 37.1247 55.002 37.7695 55.002 38.5762C 55.002 39.556 54.3776 40.7227 53.1289 42.0762L 50.4629 44.9678L 55.46 44.9678L 55.46 46Z"/>
<path id="path3_fill" d="M 1.4082 8.00977L 1.91406 3.04688L 7.01367 3.04688L 7.01367 4.21582L 2.9873 4.21582L 2.68652 6.92969C 3.17415 6.64258 3.72786 6.49902 4.34766 6.49902C 5.25456 6.49902 5.97461 6.7998 6.50781 7.40137C 7.04102 7.99837 7.30762 8.80729 7.30762 9.82812C 7.30762 10.8535 7.02962 11.6624 6.47363 12.2549C 5.9222 12.8428 5.14974 13.1367 4.15625 13.1367C 3.27669 13.1367 2.55892 12.8929 2.00293 12.4053C 1.44694 11.9176 1.13021 11.2432 1.05273 10.3818L 2.24902 10.3818C 2.3265 10.9515 2.5293 11.3822 2.85742 11.6738C 3.18555 11.9609 3.61849 12.1045 4.15625 12.1045C 4.74414 12.1045 5.20443 11.904 5.53711 11.5029C 5.87435 11.1019 6.04297 10.5482 6.04297 9.8418C 6.04297 9.17643 5.86068 8.64323 5.49609 8.24219C 5.13607 7.83659 4.65527 7.63379 4.05371 7.63379C 3.50228 7.63379 3.06934 7.75456 2.75488 7.99609L 2.41992 8.26953L 1.4082 8.00977ZM 14.5127 10.4023L 10.3428 10.4023L 9.40625 13L 8.05273 13L 11.8535 3.04688L 13.002 3.04688L 16.8096 13L 15.4629 13L 14.5127 10.4023ZM 10.7393 9.32227L 14.123 9.32227L 12.4277 4.66699L 10.7393 9.32227Z"/>
<path id="path4_fill" d="M 6.74023 7.43555L 1.03906 7.43555L 1.03906 6.33496L 6.74023 6.33496L 6.74023 7.43555ZM 6.74023 10.2725L 1.03906 10.2725L 1.03906 9.17871L 6.74023 9.17871L 6.74023 10.2725Z"/>
<path id="path5_fill" d="M 6.65137 10.4023L 2.48145 10.4023L 1.54492 13L 0.191406 13L 3.99219 3.04688L 5.14062 3.04688L 8.94824 13L 7.60156 13L 6.65137 10.4023ZM 2.87793 9.32227L 6.26172 9.32227L 4.56641 4.66699L 2.87793 9.32227Z"/>
<path id="path6_fill" d="M 1.4082 8.00977L 1.91406 3.04688L 7.01367 3.04688L 7.01367 4.21582L 2.9873 4.21582L 2.68652 6.92969C 3.17415 6.64258 3.72786 6.49902 4.34766 6.49902C 5.25456 6.49902 5.97461 6.7998 6.50781 7.40137C 7.04102 7.99837 7.30762 8.80729 7.30762 9.82812C 7.30762 10.8535 7.02962 11.6624 6.47363 12.2549C 5.9222 12.8428 5.14974 13.1367 4.15625 13.1367C 3.27669 13.1367 2.55892 12.8929 2.00293 12.4053C 1.44694 11.9176 1.13021 11.2432 1.05273 10.3818L 2.24902 10.3818C 2.3265 10.9515 2.5293 11.3822 2.85742 11.6738C 3.18555 11.9609 3.61849 12.1045 4.15625 12.1045C 4.74414 12.1045 5.20443 11.904 5.53711 11.5029C 5.87435 11.1019 6.04297 10.5482 6.04297 9.8418C 6.04297 9.17643 5.86068 8.64323 5.49609 8.24219C 5.13607 7.83659 4.65527 7.63379 4.05371 7.63379C 3.50228 7.63379 3.06934 7.75456 2.75488 7.99609L 2.41992 8.26953L 1.4082 8.00977Z"/>
<path id="path7_fill" d="M 2.66602 7.4082L 3.61621 7.4082C 4.21322 7.39909 4.68262 7.24186 5.02441 6.93652C 5.36621 6.63118 5.53711 6.21875 5.53711 5.69922C 5.53711 4.53255 4.95605 3.94922 3.79395 3.94922C 3.24707 3.94922 2.80957 4.10645 2.48145 4.4209C 2.15788 4.73079 1.99609 5.14323 1.99609 5.6582L 0.731445 5.6582C 0.731445 4.86979 1.01855 4.21582 1.59277 3.69629C 2.17155 3.1722 2.90527 2.91016 3.79395 2.91016C 4.73275 2.91016 5.46875 3.15853 6.00195 3.65527C 6.53516 4.15202 6.80176 4.84245 6.80176 5.72656C 6.80176 6.15951 6.66048 6.57878 6.37793 6.98438C 6.09993 7.38997 5.7194 7.69303 5.23633 7.89355C 5.7832 8.06673 6.20475 8.35384 6.50098 8.75488C 6.80176 9.15592 6.95215 9.64583 6.95215 10.2246C 6.95215 11.1178 6.66048 11.8265 6.07715 12.3506C 5.49382 12.8747 4.73503 13.1367 3.80078 13.1367C 2.86654 13.1367 2.10547 12.8838 1.51758 12.3779C 0.934245 11.8721 0.642578 11.2044 0.642578 10.375L 1.91406 10.375C 1.91406 10.8991 2.08496 11.3184 2.42676 11.6328C 2.76855 11.9473 3.22656 12.1045 3.80078 12.1045C 4.41146 12.1045 4.87858 11.945 5.20215 11.626C 5.52572 11.307 5.6875 10.849 5.6875 10.252C 5.6875 9.67318 5.50977 9.22884 5.1543 8.91895C 4.79883 8.60905 4.28613 8.44954 3.61621 8.44043L 2.66602 8.44043L 2.66602 7.4082ZM 8.8457 12.3369C 8.8457 12.1182 8.90951 11.9359 9.03711 11.79C 9.16927 11.6442 9.36523 11.5713 9.625 11.5713C 9.88477 11.5713 10.0807 11.6442 10.2129 11.79C 10.3496 11.9359 10.418 12.1182 10.418 12.3369C 10.418 12.5465 10.3496 12.722 10.2129 12.8633C 10.0807 13.0046 9.88477 13.0752 9.625 13.0752C 9.36523 13.0752 9.16927 13.0046 9.03711 12.8633C 8.90951 12.722 8.8457 12.5465 8.8457 12.3369ZM 12.9609 8.00977L 13.4668 3.04688L 18.5664 3.04688L 18.5664 4.21582L 14.54 4.21582L 14.2393 6.92969C 14.7269 6.64258 15.2806 6.49902 15.9004 6.49902C 16.8073 6.49902 17.5273 6.7998 18.0605 7.40137C 18.5938 7.99837 18.8604 8.80729 18.8604 9.82812C 18.8604 10.8535 18.5824 11.6624 18.0264 12.2549C 17.4749 12.8428 16.7025 13.1367 15.709 13.1367C 14.8294 13.1367 14.1117 12.8929 13.5557 12.4053C 12.9997 11.9176 12.6829 11.2432 12.6055 10.3818L 13.8018 10.3818C 13.8792 10.9515 14.082 11.3822 14.4102 11.6738C 14.7383 11.9609 15.1712 12.1045 15.709 12.1045C 16.2969 12.1045 16.7572 11.904 17.0898 11.5029C 17.4271 11.1019 17.5957 10.5482 17.5957 9.8418C 17.5957 9.17643 17.4134 8.64323 17.0488 8.24219C 16.6888 7.83659 16.208 7.63379 15.6064 7.63379C 15.055 7.63379 14.6221 7.75456 14.3076 7.99609L 13.9727 8.26953L 12.9609 8.00977ZM 34.8154 13L 33.5439 13L 33.5439 4.57129L 30.9941 5.50781L 30.9941 4.35938L 34.6172 2.99902L 34.8154 2.99902L 34.8154 13ZM 39.1016 8.00977L 39.6074 3.04688L 44.707 3.04688L 44.707 4.21582L 40.6807 4.21582L 40.3799 6.92969C 40.8675 6.64258 41.4212 6.49902 42.041 6.49902C 42.9479 6.49902 43.668 6.7998 44.2012 7.40137C 44.7344 7.99837 45.001 8.80729 45.001 9.82812C 45.001 10.8535 44.723 11.6624 44.167 12.2549C 43.6156 12.8428 42.8431 13.1367 41.8496 13.1367C 40.9701 13.1367 40.2523 12.8929 39.6963 12.4053C 39.1403 11.9176 38.8236 11.2432 38.7461 10.3818L 39.9424 10.3818C 40.0199 10.9515 40.2227 11.3822 40.5508 11.6738C 40.8789 11.9609 41.3118 12.1045 41.8496 12.1045C 42.4375 12.1045 42.8978 11.904 43.2305 11.5029C 43.5677 11.1019 43.7363 10.5482 43.7363 9.8418C 43.7363 9.17643 43.554 8.64323 43.1895 8.24219C 42.8294 7.83659 42.3486 7.63379 41.7471 7.63379C 41.1956 7.63379 40.7627 7.75456 40.4482 7.99609L 40.1133 8.26953L 39.1016 8.00977ZM 62.1387 9.65723L 63.5195 9.65723L 63.5195 10.6895L 62.1387 10.6895L 62.1387 13L 60.8672 13L 60.8672 10.6895L 56.335 10.6895L 56.335 9.94434L 60.792 3.04688L 62.1387 3.04688L 62.1387 9.65723ZM 57.7705 9.65723L 60.8672 9.65723L 60.8672 4.77637L 60.7168 5.0498L 57.7705 9.65723ZM 65.2422 8.00977L 65.748 3.04688L 70.8477 3.04688L 70.8477 4.21582L 66.8213 4.21582L 66.5205 6.92969C 67.0081 6.64258 67.5618 6.49902 68.1816 6.49902C 69.0885 6.49902 69.8086 6.7998 70.3418 7.40137C 70.875 7.99837 71.1416 8.80729 71.1416 9.82812C 71.1416 10.8535 70.8636 11.6624 70.3076 12.2549C 69.7562 12.8428 68.9837 13.1367 67.9902 13.1367C 67.1107 13.1367 66.3929 12.8929 65.8369 12.4053C 65.2809 11.9176 64.9642 11.2432 64.8867 10.3818L 66.083 10.3818C 66.1605 10.9515 66.3633 11.3822 66.6914 11.6738C 67.0195 11.9609 67.4525 12.1045 67.9902 12.1045C 68.5781 12.1045 69.0384 11.904 69.3711 11.5029C 69.7083 11.1019 69.877 10.5482 69.877 9.8418C 69.877 9.17643 69.6947 8.64323 69.3301 8.24219C 68.9701 7.83659 68.4893 7.63379 67.8877 7.63379C 67.3363 7.63379 66.9033 7.75456 66.5889 7.99609L 66.2539 8.26953L 65.2422 8.00977ZM 6.86328 21.6445C 6.86328 22.1413 6.73112 22.5833 6.4668 22.9707C 6.20703 23.3581 5.85384 23.6611 5.40723 23.8799C 5.92676 24.1032 6.33691 24.429 6.6377 24.8574C 6.94303 25.2858 7.0957 25.7712 7.0957 26.3135C 7.0957 27.1748 6.80404 27.8607 6.2207 28.3711C 5.64193 28.8815 4.87858 29.1367 3.93066 29.1367C 2.97363 29.1367 2.20573 28.8815 1.62695 28.3711C 1.05273 27.8561 0.765625 27.1702 0.765625 26.3135C 0.765625 25.7757 0.911458 25.2904 1.20312 24.8574C 1.49935 24.4245 1.90723 24.0964 2.42676 23.873C 1.9847 23.6543 1.63607 23.3512 1.38086 22.9639C 1.12565 22.5765 0.998047 22.1367 0.998047 21.6445C 0.998047 20.806 1.26693 20.1406 1.80469 19.6484C 2.34245 19.1562 3.05111 18.9102 3.93066 18.9102C 4.80566 18.9102 5.51204 19.1562 6.0498 19.6484C 6.59212 20.1406 6.86328 20.806 6.86328 21.6445ZM 5.83105 26.2861C 5.83105 25.7301 5.65332 25.2767 5.29785 24.9258C 4.94694 24.5749 4.48665 24.3994 3.91699 24.3994C 3.34733 24.3994 2.88932 24.5726 2.54297 24.9189C 2.20117 25.2653 2.03027 25.721 2.03027 26.2861C 2.03027 26.8512 2.19661 27.2956 2.5293 27.6191C 2.86654 27.9427 3.33366 28.1045 3.93066 28.1045C 4.52311 28.1045 4.98796 27.9427 5.3252 27.6191C 5.66243 27.291 5.83105 26.8467 5.83105 26.2861ZM 3.93066 19.9492C 3.43392 19.9492 3.0306 20.1042 2.7207 20.4141C 2.41536 20.7194 2.2627 21.1364 2.2627 21.665C 2.2627 22.1709 2.41309 22.5811 2.71387 22.8955C 3.01921 23.2054 3.4248 23.3604 3.93066 23.3604C 4.43652 23.3604 4.83984 23.2054 5.14062 22.8955C 5.44596 22.5811 5.59863 22.1709 5.59863 21.665C 5.59863 21.1592 5.44141 20.7467 5.12695 20.4277C 4.8125 20.1087 4.41374 19.9492 3.93066 19.9492ZM 8.8457 28.3369C 8.8457 28.1182 8.90951 27.9359 9.03711 27.79C 9.16927 27.6442 9.36523 27.5713 9.625 27.5713C 9.88477 27.5713 10.0807 27.6442 10.2129 27.79C 10.3496 27.9359 10.418 28.1182 10.418 28.3369C 10.418 28.5465 10.3496 28.722 10.2129 28.8633C 10.0807 29.0046 9.88477 29.0752 9.625 29.0752C 9.36523 29.0752 9.16927 29.0046 9.03711 28.8633C 8.90951 28.722 8.8457 28.5465 8.8457 28.3369ZM 12.9609 24.0098L 13.4668 19.0469L 18.5664 19.0469L 18.5664 20.2158L 14.54 20.2158L 14.2393 22.9297C 14.7269 22.6426 15.2806 22.499 15.9004 22.499C 16.8073 22.499 17.5273 22.7998 18.0605 23.4014C 18.5938 23.9984 18.8604 24.8073 18.8604 25.8281C 18.8604 26.8535 18.5824 27.6624 18.0264 28.2549C 17.4749 28.8428 16.7025 29.1367 15.709 29.1367C 14.8294 29.1367 14.1117 28.8929 13.5557 28.4053C 12.9997 27.9176 12.6829 27.2432 12.6055 26.3818L 13.8018 26.3818C 13.8792 26.9515 14.082 27.3822 14.4102 27.6738C 14.7383 27.9609 15.1712 28.1045 15.709 28.1045C 16.2969 28.1045 16.7572 27.904 17.0898 27.5029C 17.4271 27.1019 17.5957 26.5482 17.5957 25.8418C 17.5957 25.1764 17.4134 24.6432 17.0488 24.2422C 16.6888 23.8366 16.208 23.6338 15.6064 23.6338C 15.055 23.6338 14.6221 23.7546 14.3076 23.9961L 13.9727 24.2695L 12.9609 24.0098ZM 34.8154 29L 33.5439 29L 33.5439 20.5713L 30.9941 21.5078L 30.9941 20.3594L 34.6172 18.999L 34.8154 18.999L 34.8154 29ZM 44.7617 24.7549C 44.7617 26.236 44.5088 27.3366 44.0029 28.0566C 43.4971 28.7767 42.7064 29.1367 41.6309 29.1367C 40.569 29.1367 39.7829 28.7858 39.2725 28.084C 38.762 27.3776 38.4977 26.3249 38.4795 24.9258L 38.4795 23.2373C 38.4795 21.7744 38.7324 20.6875 39.2383 19.9766C 39.7441 19.2656 40.5371 18.9102 41.6172 18.9102C 42.6882 18.9102 43.4766 19.2542 43.9824 19.9424C 44.4883 20.626 44.748 21.6833 44.7617 23.1143L 44.7617 24.7549ZM 43.4971 23.0254C 43.4971 21.9544 43.3467 21.1751 43.0459 20.6875C 42.7451 20.1953 42.2689 19.9492 41.6172 19.9492C 40.9701 19.9492 40.4984 20.193 40.2021 20.6807C 39.9059 21.1683 39.7533 21.918 39.7441 22.9297L 39.7441 24.9531C 39.7441 26.0286 39.8991 26.8239 40.209 27.3389C 40.5234 27.8493 40.9974 28.1045 41.6309 28.1045C 42.2552 28.1045 42.7178 27.863 43.0186 27.3799C 43.3239 26.8968 43.4834 26.1357 43.4971 25.0967L 43.4971 23.0254ZM 62.1387 25.6572L 63.5195 25.6572L 63.5195 26.6895L 62.1387 26.6895L 62.1387 29L 60.8672 29L 60.8672 26.6895L 56.335 26.6895L 56.335 25.9443L 60.792 19.0469L 62.1387 19.0469L 62.1387 25.6572ZM 57.7705 25.6572L 60.8672 25.6572L 60.8672 20.7764L 60.7168 21.0498L 57.7705 25.6572ZM 65.2422 24.0098L 65.748 19.0469L 70.8477 19.0469L 70.8477 20.2158L 66.8213 20.2158L 66.5205 22.9297C 67.0081 22.6426 67.5618 22.499 68.1816 22.499C 69.0885 22.499 69.8086 22.7998 70.3418 23.4014C 70.875 23.9984 71.1416 24.8073 71.1416 25.8281C 71.1416 26.8535 70.8636 27.6624 70.3076 28.2549C 69.7562 28.8428 68.9837 29.1367 67.9902 29.1367C 67.1107 29.1367 66.3929 28.8929 65.8369 28.4053C 65.2809 27.9176 64.9642 27.2432 64.8867 26.3818L 66.083 26.3818C 66.1605 26.9515 66.3633 27.3822 66.6914 27.6738C 67.0195 27.9609 67.4525 28.1045 67.9902 28.1045C 68.5781 28.1045 69.0384 27.904 69.3711 27.5029C 69.7083 27.1019 69.877 26.5482 69.877 25.8418C 69.877 25.1764 69.6947 24.6432 69.3301 24.2422C 68.9701 23.8366 68.4893 23.6338 67.8877 23.6338C 67.3363 23.6338 66.9033 23.7546 66.5889 23.9961L 66.2539 24.2695L 65.2422 24.0098ZM 2.66602 40.4082L 3.61621 40.4082C 4.21322 40.3991 4.68262 40.2419 5.02441 39.9365C 5.36621 39.6312 5.53711 39.2188 5.53711 38.6992C 5.53711 37.5326 4.95605 36.9492 3.79395 36.9492C 3.24707 36.9492 2.80957 37.1064 2.48145 37.4209C 2.15788 37.7308 1.99609 38.1432 1.99609 38.6582L 0.731445 38.6582C 0.731445 37.8698 1.01855 37.2158 1.59277 36.6963C 2.17155 36.1722 2.90527 35.9102 3.79395 35.9102C 4.73275 35.9102 5.46875 36.1585 6.00195 36.6553C 6.53516 37.152 6.80176 37.8424 6.80176 38.7266C 6.80176 39.1595 6.66048 39.5788 6.37793 39.9844C 6.09993 40.39 5.7194 40.693 5.23633 40.8936C 5.7832 41.0667 6.20475 41.3538 6.50098 41.7549C 6.80176 42.1559 6.95215 42.6458 6.95215 43.2246C 6.95215 44.1178 6.66048 44.8265 6.07715 45.3506C 5.49382 45.8747 4.73503 46.1367 3.80078 46.1367C 2.86654 46.1367 2.10547 45.8838 1.51758 45.3779C 0.934245 44.8721 0.642578 44.2044 0.642578 43.375L 1.91406 43.375C 1.91406 43.8991 2.08496 44.3184 2.42676 44.6328C 2.76855 44.9473 3.22656 45.1045 3.80078 45.1045C 4.41146 45.1045 4.87858 44.945 5.20215 44.626C 5.52572 44.307 5.6875 43.849 5.6875 43.252C 5.6875 42.6732 5.50977 42.2288 5.1543 41.9189C 4.79883 41.609 4.28613 41.4495 3.61621 41.4404L 2.66602 41.4404L 2.66602 40.4082ZM 8.8457 45.3369C 8.8457 45.1182 8.90951 44.9359 9.03711 44.79C 9.16927 44.6442 9.36523 44.5713 9.625 44.5713C 9.88477 44.5713 10.0807 44.6442 10.2129 44.79C 10.3496 44.9359 10.418 45.1182 10.418 45.3369C 10.418 45.5465 10.3496 45.722 10.2129 45.8633C 10.0807 46.0046 9.88477 46.0752 9.625 46.0752C 9.36523 46.0752 9.16927 46.0046 9.03711 45.8633C 8.90951 45.722 8.8457 45.5465 8.8457 45.3369ZM 12.9609 41.0098L 13.4668 36.0469L 18.5664 36.0469L 18.5664 37.2158L 14.54 37.2158L 14.2393 39.9297C 14.7269 39.6426 15.2806 39.499 15.9004 39.499C 16.8073 39.499 17.5273 39.7998 18.0605 40.4014C 18.5938 40.9984 18.8604 41.8073 18.8604 42.8281C 18.8604 43.8535 18.5824 44.6624 18.0264 45.2549C 17.4749 45.8428 16.7025 46.1367 15.709 46.1367C 14.8294 46.1367 14.1117 45.8929 13.5557 45.4053C 12.9997 44.9176 12.6829 44.2432 12.6055 43.3818L 13.8018 43.3818C 13.8792 43.9515 14.082 44.3822 14.4102 44.6738C 14.7383 44.9609 15.1712 45.1045 15.709 45.1045C 16.2969 45.1045 16.7572 44.904 17.0898 44.5029C 17.4271 44.1019 17.5957 43.5482 17.5957 42.8418C 17.5957 42.1764 17.4134 41.6432 17.0488 41.2422C 16.6888 40.8366 16.208 40.6338 15.6064 40.6338C 15.055 40.6338 14.6221 40.7546 14.3076 40.9961L 13.9727 41.2695L 12.9609 41.0098ZM 35.998 42.6572L 37.3789 42.6572L 37.3789 43.6895L 35.998 43.6895L 35.998 46L 34.7266 46L 34.7266 43.6895L 30.1943 43.6895L 30.1943 42.9443L 34.6514 36.0469L 35.998 36.0469L 35.998 42.6572ZM 31.6299 42.6572L 34.7266 42.6572L 34.7266 37.7764L 34.5762 38.0498L 31.6299 42.6572ZM 39.1016 41.0098L 39.6074 36.0469L 44.707 36.0469L 44.707 37.2158L 40.6807 37.2158L 40.3799 39.9297C 40.8675 39.6426 41.4212 39.499 42.041 39.499C 42.9479 39.499 43.668 39.7998 44.2012 40.4014C 44.7344 40.9984 45.001 41.8073 45.001 42.8281C 45.001 43.8535 44.723 44.6624 44.167 45.2549C 43.6156 45.8428 42.8431 46.1367 41.8496 46.1367C 40.9701 46.1367 40.2523 45.8929 39.6963 45.4053C 39.1403 44.9176 38.8236 44.2432 38.7461 43.3818L 39.9424 43.3818C 40.0199 43.9515 40.2227 44.3822 40.5508 44.6738C 40.8789 44.9609 41.3118 45.1045 41.8496 45.1045C 42.4375 45.1045 42.8978 44.904 43.2305 44.5029C 43.5677 44.1019 43.7363 43.5482 43.7363 42.8418C 43.7363 42.1764 43.554 41.6432 43.1895 41.2422C 42.8294 40.8366 42.3486 40.6338 41.7471 40.6338C 41.1956 40.6338 40.7627 40.7546 40.4482 40.9961L 40.1133 41.2695L 39.1016 41.0098ZM 60.9561 46L 59.6846 46L 59.6846 37.5713L 57.1348 38.5078L 57.1348 37.3594L 60.7578 35.999L 60.9561 35.999L 60.9561 46ZM 70.9023 41.7549C 70.9023 43.236 70.6494 44.3366 70.1436 45.0566C 69.6377 45.7767 68.847 46.1367 67.7715 46.1367C 66.7096 46.1367 65.9235 45.7858 65.4131 45.084C 64.9027 44.3776 64.6383 43.3249 64.6201 41.9258L 64.6201 40.2373C 64.6201 38.7744 64.873 37.6875 65.3789 36.9766C 65.8848 36.2656 66.6777 35.9102 67.7578 35.9102C 68.8288 35.9102 69.6172 36.2542 70.123 36.9424C 70.6289 37.626 70.8887 38.6833 70.9023 40.1143L 70.9023 41.7549ZM 69.6377 40.0254C 69.6377 38.9544 69.4873 38.1751 69.1865 37.6875C 68.8857 37.1953 68.4095 36.9492 67.7578 36.9492C 67.1107 36.9492 66.639 37.193 66.3428 37.6807C 66.0465 38.1683 65.8939 38.918 65.8848 39.9297L 65.8848 41.9531C 65.8848 43.0286 66.0397 43.8239 66.3496 44.3389C 66.6641 44.8493 67.138 45.1045 67.7715 45.1045C 68.3958 45.1045 68.8584 44.863 69.1592 44.3799C 69.4645 43.8968 69.624 43.1357 69.6377 42.0967L 69.6377 40.0254Z"/>
</defs>
</svg>

