<svg width="304" height="157" viewBox="0 0 304 157" version="1.1" xmlns="http://www.w3.org/2000/svg" xmlns:xlink="http://www.w3.org/1999/xlink" xmlns:figma="http://www.figma.com/figma/ns">
<title>Group</title>
<desc>Created using Figma</desc>
<g id="Canvas" transform="translate(783 -1961)" figma:type="canvas">
<g id="Group" figma:type="frame">
<g id="Component" figma:type="instance">
<g id="Line 2" figma:type="line">
<use xlink:href="#path0_stroke" transform="matrix(8.55488e-32 1 -0.999041 0.0437856 -587 1962)" fill="#333333"/>
</g>
<g id="Line 3" figma:type="line">
<use xlink:href="#path1_stroke" transform="translate(-587 1962)" fill="#333333"/>
</g>
<g id="Line 3" figma:type="line">
<use xlink:href="#path1_stroke" transform="translate(-587 2022)" fill="#333333"/>
</g>
</g>
<g id="Component" figma:type="instance">
<g id="Line 2" figma:type="line">
<use xlink:href="#path0_stroke" transform="matrix(-1.22465e-16 -1 0.999041 -0.0437856 -502 2022)" fill="#333333"/>
</g>
<g id="Line 3" figma:type="line">
<use xlink:href="#path1_stroke" transform="matrix(-1 1.22465e-16 -1.22465e-16 -1 -502 2022)" fill="#333333"/>
</g>
<g id="Line 3" figma:type="line">
<use xlink:href="#path1_stroke" transform="matrix(-1 1.22465e-16 -1.22465e-16 -1 -502 1962)" fill="#333333"/>
</g>
</g>
<g id="0.7 3 9 1.7 2 9 0.7 9 2" figma:type="text">
<use xlink:href="#path2_fill" transform="translate(-575 1967)"/>
</g>
<g id="Component" figma:type="instance">
<g id="Line 2" figma:type="line">
<use xlink:href="#path0_stroke" transform="matrix(8.55488e-32 1 -0.999041 0.0437856 -614 2058)" fill="#333333"/>
</g>
<g id="Line 3" figma:type="line">
<use xlink:href="#path1_stroke" transform="translate(-614 2058)" fill="#333333"/>
</g>
<g id="Line 3" figma:type="line">
<use xlink:href="#path1_stroke" transform="translate(-614 2118)" fill="#333333"/>
</g>
</g>
<g id="Component" figma:type="instance">
<g id="Line 2" figma:type="line">
<use xlink:href="#path0_stroke" transform="matrix(-1.22465e-16 -1 0.999041 -0.0437856 -582 2117)" fill="#333333"/>
</g>
<g id="Line 3" figma:type="line">
<use xlink:href="#path1_stroke" transform="matrix(-1 1.22465e-16 -1.22465e-16 -1 -582 2117)" fill="#333333"/>
</g>
<g id="Line 3" figma:type="line">
<use xlink:href="#path1_stroke" transform="matrix(-1 1.22465e-16 -1.22465e-16 -1 -582 2057)" fill="#333333"/>
</g>
</g>
<g id="0.7 1.7 0.7" figma:type="text">
<use xlink:href="#path3_fill" transform="translate(-608 2063)"/>
</g>
<g id="Component" figma:type="instance">
<g id="Line 2" figma:type="line">
<use xlink:href="#path0_stroke" transform="matrix(8.55488e-32 1 -0.999041 0.0437856 -554 2058)" fill="#333333"/>
</g>
<g id="Line 3" figma:type="line">
<use xlink:href="#path1_stroke" transform="translate(-554 2058)" fill="#333333"/>
</g>
<g id="Line 3" figma:type="line">
<use xlink:href="#path1_stroke" transform="translate(-554 2118)" fill="#333333"/>
</g>
</g>
<g id="Component" figma:type="instance">
<g id="Line 2" figma:type="line">
<use xlink:href="#path0_stroke" transform="matrix(-1.22465e-16 -1 0.999041 -0.0437856 -529 2117)" fill="#333333"/>
</g>
<g id="Line 3" figma:type="line">
<use xlink:href="#path1_stroke" transform="matrix(-1 1.22465e-16 -1.22465e-16 -1 -529 2117)" fill="#333333"/>
</g>
<g id="Line 3" figma:type="line">
<use xlink:href="#path1_stroke" transform="matrix(-1 1.22465e-16 -1.22465e-16 -1 -529 2057)" fill="#333333"/>
</g>
</g>
<g id="3 2 9" figma:type="text">
<use xlink:href="#path4_fill" transform="translate(-545 2063)"/>
</g>
<g id="Component" figma:type="instance">
<g id="Line 2" figma:type="line">
<use xlink:href="#path0_stroke" transform="matrix(8.55488e-32 1 -0.999041 0.0437856 -504 2058)" fill="#333333"/>
</g>
<g id="Line 3" figma:type="line">
<use xlink:href="#path1_stroke" transform="translate(-504 2058)" fill="#333333"/>
</g>
<g id="Line 3" figma:type="line">
<use xlink:href="#path1_stroke" transform="translate(-504 2118)" fill="#333333"/>
</g>
</g>
<g id="Component" figma:type="instance">
<g id="Line 2" figma:type="line">
<use xlink:href="#path0_stroke" transform="matrix(-1.22465e-16 -1 0.999041 -0.0437856 -479 2117)" fill="#333333"/>
</g>
<g id="Line 3" figma:type="line">
<use xlink:href="#path1_stroke" transform="matrix(-1 1.22465e-16 -1.22465e-16 -1 -479 2117)" fill="#333333"/>
</g>
<g id="Line 3" figma:type="line">
<use xlink:href="#path1_stroke" transform="matrix(-1 1.22465e-16 -1.22465e-16 -1 -479 2057)" fill="#333333"/>
</g>
</g>
<g id="9 9 2" figma:type="text">
<use xlink:href="#path5_fill" transform="translate(-495 2063)"/>
</g>
<g id="Matrix (A)" figma:type="text">
<use xlink:href="#path6_fill" transform="translate(-745 1991)"/>
</g>
<g id="Column Vectors" figma:type="text">
<use xlink:href="#path7_fill" transform="translate(-783 2077)"/>
</g>
<g id="Arrow 9" figma:type="vector">
<use xlink:href="#path8_stroke" transform="matrix(-0.744569 0.667545 -0.667545 -0.744569 -566 2022)"/>
</g>
<g id="Arrow 10" figma:type="vector">
<use xlink:href="#path9_stroke" transform="matrix(6.12323e-17 1 -1 6.12323e-17 -541 2022)"/>
</g>
<g id="Arrow 11" figma:type="vector">
<use xlink:href="#path10_stroke" transform="matrix(0.628337 0.777941 -0.777941 0.628337 -520 2022)"/>
</g>
</g>
</g>
<defs>
<path id="path0_stroke" d="M 0 0L 60 0L 60 -1L 0 -1L 0 0Z"/>
<path id="path1_stroke" d="M 0 0L 6 0L 6 -1L 0 -1L 0 0Z"/>
<path id="path2_fill" d="M 7.06836 8.75488C 7.06836 10.236 6.81543 11.3366 6.30957 12.0566C 5.80371 12.7767 5.01302 13.1367 3.9375 13.1367C 2.87565 13.1367 2.08952 12.7858 1.5791 12.084C 1.06868 11.3776 0.804362 10.3249 0.786133 8.92578L 0.786133 7.2373C 0.786133 5.77441 1.03906 4.6875 1.54492 3.97656C 2.05078 3.26562 2.84375 2.91016 3.92383 2.91016C 4.99479 2.91016 5.7832 3.25423 6.28906 3.94238C 6.79492 4.62598 7.05469 5.68327 7.06836 7.11426L 7.06836 8.75488ZM 5.80371 7.02539C 5.80371 5.95443 5.65332 5.17513 5.35254 4.6875C 5.05176 4.19531 4.57552 3.94922 3.92383 3.94922C 3.27669 3.94922 2.80501 4.19303 2.50879 4.68066C 2.21257 5.16829 2.0599 5.91797 2.05078 6.92969L 2.05078 8.95312C 2.05078 10.0286 2.20573 10.8239 2.51562 11.3389C 2.83008 11.8493 3.30404 12.1045 3.9375 12.1045C 4.56185 12.1045 5.02441 11.863 5.3252 11.3799C 5.63053 10.8968 5.79004 10.1357 5.80371 9.09668L 5.80371 7.02539ZM 8.8457 12.3369C 8.8457 12.1182 8.90951 11.9359 9.03711 11.79C 9.16927 11.6442 9.36523 11.5713 9.625 11.5713C 9.88477 11.5713 10.0807 11.6442 10.2129 11.79C 10.3496 11.9359 10.418 12.1182 10.418 12.3369C 10.418 12.5465 10.3496 12.722 10.2129 12.8633C 10.0807 13.0046 9.88477 13.0752 9.625 13.0752C 9.36523 13.0752 9.16927 13.0046 9.03711 12.8633C 8.90951 12.722 8.8457 12.5465 8.8457 12.3369ZM 18.8057 3.75781L 14.6836 13L 13.3574 13L 17.4658 4.08594L 12.0791 4.08594L 12.0791 3.04688L 18.8057 3.04688L 18.8057 3.75781ZM 32.498 7.4082L 33.4482 7.4082C 34.0452 7.39909 34.5146 7.24186 34.8564 6.93652C 35.1982 6.63118 35.3691 6.21875 35.3691 5.69922C 35.3691 4.53255 34.7881 3.94922 33.626 3.94922C 33.0791 3.94922 32.6416 4.10645 32.3135 4.4209C 31.9899 4.73079 31.8281 5.14323 31.8281 5.6582L 30.5635 5.6582C 30.5635 4.86979 30.8506 4.21582 31.4248 3.69629C 32.0036 3.1722 32.7373 2.91016 33.626 2.91016C 34.5648 2.91016 35.3008 3.15853 35.834 3.65527C 36.3672 4.15202 36.6338 4.84245 36.6338 5.72656C 36.6338 6.15951 36.4925 6.57878 36.21 6.98438C 35.932 7.38997 35.5514 7.69303 35.0684 7.89355C 35.6152 8.06673 36.0368 8.35384 36.333 8.75488C 36.6338 9.15592 36.7842 9.64583 36.7842 10.2246C 36.7842 11.1178 36.4925 11.8265 35.9092 12.3506C 35.3258 12.8747 34.5671 13.1367 33.6328 13.1367C 32.6986 13.1367 31.9375 12.8838 31.3496 12.3779C 30.7663 11.8721 30.4746 11.2044 30.4746 10.375L 31.7461 10.375C 31.7461 10.8991 31.917 11.3184 32.2588 11.6328C 32.6006 11.9473 33.0586 12.1045 33.6328 12.1045C 34.2435 12.1045 34.7106 11.945 35.0342 11.626C 35.3577 11.307 35.5195 10.849 35.5195 10.252C 35.5195 9.67318 35.3418 9.22884 34.9863 8.91895C 34.6309 8.60905 34.1182 8.44954 33.4482 8.44043L 32.498 8.44043L 32.498 7.4082ZM 53.7852 8.625C 53.5208 8.93945 53.2041 9.19238 52.835 9.38379C 52.4704 9.5752 52.0693 9.6709 51.6318 9.6709C 51.0576 9.6709 50.5563 9.52962 50.1279 9.24707C 49.7041 8.96452 49.376 8.56803 49.1436 8.05762C 48.9111 7.54264 48.7949 6.97526 48.7949 6.35547C 48.7949 5.6901 48.9202 5.09082 49.1709 4.55762C 49.4261 4.02441 49.7861 3.61654 50.251 3.33398C 50.7158 3.05143 51.2581 2.91016 51.8779 2.91016C 52.8623 2.91016 53.637 3.2793 54.2021 4.01758C 54.7718 4.7513 55.0566 5.75391 55.0566 7.02539L 55.0566 7.39453C 55.0566 9.33138 54.6738 10.7464 53.9082 11.6396C 53.1426 12.5283 51.9873 12.984 50.4424 13.0068L 50.1963 13.0068L 50.1963 11.9404L 50.4629 11.9404C 51.5065 11.9222 52.3086 11.651 52.8691 11.127C 53.4297 10.5983 53.735 9.76432 53.7852 8.625ZM 51.8369 8.625C 52.2607 8.625 52.6504 8.49512 53.0059 8.23535C 53.3659 7.97559 53.6279 7.6543 53.792 7.27148L 53.792 6.76562C 53.792 5.9362 53.612 5.26172 53.252 4.74219C 52.8919 4.22266 52.4362 3.96289 51.8848 3.96289C 51.3288 3.96289 50.8822 4.17708 50.5449 4.60547C 50.2077 5.0293 50.0391 5.58984 50.0391 6.28711C 50.0391 6.96615 50.2008 7.52669 50.5244 7.96875C 50.8525 8.40625 51.29 8.625 51.8369 8.625ZM 4.9834 29L 3.71191 29L 3.71191 20.5713L 1.16211 21.5078L 1.16211 20.3594L 4.78516 18.999L 4.9834 18.999L 4.9834 29ZM 8.8457 28.3369C 8.8457 28.1182 8.90951 27.9359 9.03711 27.79C 9.16927 27.6442 9.36523 27.5713 9.625 27.5713C 9.88477 27.5713 10.0807 27.6442 10.2129 27.79C 10.3496 27.9359 10.418 28.1182 10.418 28.3369C 10.418 28.5465 10.3496 28.722 10.2129 28.8633C 10.0807 29.0046 9.88477 29.0752 9.625 29.0752C 9.36523 29.0752 9.16927 29.0046 9.03711 28.8633C 8.90951 28.722 8.8457 28.5465 8.8457 28.3369ZM 18.8057 19.7578L 14.6836 29L 13.3574 29L 17.4658 20.0859L 12.0791 20.0859L 12.0791 19.0469L 18.8057 19.0469L 18.8057 19.7578ZM 37.1807 29L 30.6592 29L 30.6592 28.0908L 34.1045 24.2627C 34.6149 23.6839 34.9658 23.2145 35.1572 22.8545C 35.3532 22.4899 35.4512 22.1139 35.4512 21.7266C 35.4512 21.207 35.2939 20.7809 34.9795 20.4482C 34.665 20.1156 34.2458 19.9492 33.7217 19.9492C 33.0928 19.9492 32.6029 20.1292 32.252 20.4893C 31.9056 20.8447 31.7324 21.3415 31.7324 21.9795L 30.4678 21.9795C 30.4678 21.0635 30.7617 20.3229 31.3496 19.7578C 31.9421 19.1927 32.7327 18.9102 33.7217 18.9102C 34.6468 18.9102 35.3783 19.154 35.916 19.6416C 36.4538 20.1247 36.7227 20.7695 36.7227 21.5762C 36.7227 22.556 36.0983 23.7227 34.8496 25.0762L 32.1836 27.9678L 37.1807 27.9678L 37.1807 29ZM 53.7852 24.625C 53.5208 24.9395 53.2041 25.1924 52.835 25.3838C 52.4704 25.5752 52.0693 25.6709 51.6318 25.6709C 51.0576 25.6709 50.5563 25.5296 50.1279 25.2471C 49.7041 24.9645 49.376 24.568 49.1436 24.0576C 48.9111 23.5426 48.7949 22.9753 48.7949 22.3555C 48.7949 21.6901 48.9202 21.0908 49.1709 20.5576C 49.4261 20.0244 49.7861 19.6165 50.251 19.334C 50.7158 19.0514 51.2581 18.9102 51.8779 18.9102C 52.8623 18.9102 53.637 19.2793 54.2021 20.0176C 54.7718 20.7513 55.0566 21.7539 55.0566 23.0254L 55.0566 23.3945C 55.0566 25.3314 54.6738 26.7464 53.9082 27.6396C 53.1426 28.5283 51.9873 28.984 50.4424 29.0068L 50.1963 29.0068L 50.1963 27.9404L 50.4629 27.9404C 51.5065 27.9222 52.3086 27.651 52.8691 27.127C 53.4297 26.5983 53.735 25.7643 53.7852 24.625ZM 51.8369 24.625C 52.2607 24.625 52.6504 24.4951 53.0059 24.2354C 53.3659 23.9756 53.6279 23.6543 53.792 23.2715L 53.792 22.7656C 53.792 21.9362 53.612 21.2617 53.252 20.7422C 52.8919 20.2227 52.4362 19.9629 51.8848 19.9629C 51.3288 19.9629 50.8822 20.1771 50.5449 20.6055C 50.2077 21.0293 50.0391 21.5898 50.0391 22.2871C 50.0391 22.9661 50.2008 23.5267 50.5244 23.9688C 50.8525 24.4062 51.29 24.625 51.8369 24.625ZM 7.06836 41.7549C 7.06836 43.236 6.81543 44.3366 6.30957 45.0566C 5.80371 45.7767 5.01302 46.1367 3.9375 46.1367C 2.87565 46.1367 2.08952 45.7858 1.5791 45.084C 1.06868 44.3776 0.804362 43.3249 0.786133 41.9258L 0.786133 40.2373C 0.786133 38.7744 1.03906 37.6875 1.54492 36.9766C 2.05078 36.2656 2.84375 35.9102 3.92383 35.9102C 4.99479 35.9102 5.7832 36.2542 6.28906 36.9424C 6.79492 37.626 7.05469 38.6833 7.06836 40.1143L 7.06836 41.7549ZM 5.80371 40.0254C 5.80371 38.9544 5.65332 38.1751 5.35254 37.6875C 5.05176 37.1953 4.57552 36.9492 3.92383 36.9492C 3.27669 36.9492 2.80501 37.193 2.50879 37.6807C 2.21257 38.1683 2.0599 38.918 2.05078 39.9297L 2.05078 41.9531C 2.05078 43.0286 2.20573 43.8239 2.51562 44.3389C 2.83008 44.8493 3.30404 45.1045 3.9375 45.1045C 4.56185 45.1045 5.02441 44.863 5.3252 44.3799C 5.63053 43.8968 5.79004 43.1357 5.80371 42.0967L 5.80371 40.0254ZM 8.8457 45.3369C 8.8457 45.1182 8.90951 44.9359 9.03711 44.79C 9.16927 44.6442 9.36523 44.5713 9.625 44.5713C 9.88477 44.5713 10.0807 44.6442 10.2129 44.79C 10.3496 44.9359 10.418 45.1182 10.418 45.3369C 10.418 45.5465 10.3496 45.722 10.2129 45.8633C 10.0807 46.0046 9.88477 46.0752 9.625 46.0752C 9.36523 46.0752 9.16927 46.0046 9.03711 45.8633C 8.90951 45.722 8.8457 45.5465 8.8457 45.3369ZM 18.8057 36.7578L 14.6836 46L 13.3574 46L 17.4658 37.0859L 12.0791 37.0859L 12.0791 36.0469L 18.8057 36.0469L 18.8057 36.7578ZM 35.5059 41.625C 35.2415 41.9395 34.9248 42.1924 34.5557 42.3838C 34.1911 42.5752 33.79 42.6709 33.3525 42.6709C 32.7783 42.6709 32.277 42.5296 31.8486 42.2471C 31.4248 41.9645 31.0967 41.568 30.8643 41.0576C 30.6318 40.5426 30.5156 39.9753 30.5156 39.3555C 30.5156 38.6901 30.641 38.0908 30.8916 37.5576C 31.1468 37.0244 31.5068 36.6165 31.9717 36.334C 32.4365 36.0514 32.9788 35.9102 33.5986 35.9102C 34.583 35.9102 35.3577 36.2793 35.9229 37.0176C 36.4925 37.7513 36.7773 38.7539 36.7773 40.0254L 36.7773 40.3945C 36.7773 42.3314 36.3945 43.7464 35.6289 44.6396C 34.8633 45.5283 33.708 45.984 32.1631 46.0068L 31.917 46.0068L 31.917 44.9404L 32.1836 44.9404C 33.2272 44.9222 34.0293 44.651 34.5898 44.127C 35.1504 43.5983 35.4557 42.7643 35.5059 41.625ZM 33.5576 41.625C 33.9814 41.625 34.3711 41.4951 34.7266 41.2354C 35.0866 40.9756 35.3486 40.6543 35.5127 40.2715L 35.5127 39.7656C 35.5127 38.9362 35.3327 38.2617 34.9727 37.7422C 34.6126 37.2227 34.1569 36.9629 33.6055 36.9629C 33.0495 36.9629 32.6029 37.1771 32.2656 37.6055C 31.9284 38.0293 31.7598 38.5898 31.7598 39.2871C 31.7598 39.9661 31.9215 40.5267 32.2451 40.9688C 32.5732 41.4062 33.0107 41.625 33.5576 41.625ZM 55.46 46L 48.9385 46L 48.9385 45.0908L 52.3838 41.2627C 52.8942 40.6839 53.2451 40.2145 53.4365 39.8545C 53.6325 39.4899 53.7305 39.1139 53.7305 38.7266C 53.7305 38.207 53.5732 37.7809 53.2588 37.4482C 52.9443 37.1156 52.5251 36.9492 52.001 36.9492C 51.3721 36.9492 50.8822 37.1292 50.5312 37.4893C 50.1849 37.8447 50.0117 38.3415 50.0117 38.9795L 48.7471 38.9795C 48.7471 38.0635 49.041 37.3229 49.6289 36.7578C 50.2214 36.1927 51.012 35.9102 52.001 35.9102C 52.9261 35.9102 53.6576 36.154 54.1953 36.6416C 54.7331 37.1247 55.002 37.7695 55.002 38.5762C 55.002 39.556 54.3776 40.7227 53.1289 42.0762L 50.4629 44.9678L 55.46 44.9678L 55.46 46Z"/>
<path id="path3_fill" d="M 7.06836 8.75488C 7.06836 10.236 6.81543 11.3366 6.30957 12.0566C 5.80371 12.7767 5.01302 13.1367 3.9375 13.1367C 2.87565 13.1367 2.08952 12.7858 1.5791 12.084C 1.06868 11.3776 0.804362 10.3249 0.786133 8.92578L 0.786133 7.2373C 0.786133 5.77441 1.03906 4.6875 1.54492 3.97656C 2.05078 3.26562 2.84375 2.91016 3.92383 2.91016C 4.99479 2.91016 5.7832 3.25423 6.28906 3.94238C 6.79492 4.62598 7.05469 5.68327 7.06836 7.11426L 7.06836 8.75488ZM 5.80371 7.02539C 5.80371 5.95443 5.65332 5.17513 5.35254 4.6875C 5.05176 4.19531 4.57552 3.94922 3.92383 3.94922C 3.27669 3.94922 2.80501 4.19303 2.50879 4.68066C 2.21257 5.16829 2.0599 5.91797 2.05078 6.92969L 2.05078 8.95312C 2.05078 10.0286 2.20573 10.8239 2.51562 11.3389C 2.83008 11.8493 3.30404 12.1045 3.9375 12.1045C 4.56185 12.1045 5.02441 11.863 5.3252 11.3799C 5.63053 10.8968 5.79004 10.1357 5.80371 9.09668L 5.80371 7.02539ZM 8.8457 12.3369C 8.8457 12.1182 8.90951 11.9359 9.03711 11.79C 9.16927 11.6442 9.36523 11.5713 9.625 11.5713C 9.88477 11.5713 10.0807 11.6442 10.2129 11.79C 10.3496 11.9359 10.418 12.1182 10.418 12.3369C 10.418 12.5465 10.3496 12.722 10.2129 12.8633C 10.0807 13.0046 9.88477 13.0752 9.625 13.0752C 9.36523 13.0752 9.16927 13.0046 9.03711 12.8633C 8.90951 12.722 8.8457 12.5465 8.8457 12.3369ZM 18.8057 3.75781L 14.6836 13L 13.3574 13L 17.4658 4.08594L 12.0791 4.08594L 12.0791 3.04688L 18.8057 3.04688L 18.8057 3.75781ZM 4.9834 29L 3.71191 29L 3.71191 20.5713L 1.16211 21.5078L 1.16211 20.3594L 4.78516 18.999L 4.9834 18.999L 4.9834 29ZM 8.8457 28.3369C 8.8457 28.1182 8.90951 27.9359 9.03711 27.79C 9.16927 27.6442 9.36523 27.5713 9.625 27.5713C 9.88477 27.5713 10.0807 27.6442 10.2129 27.79C 10.3496 27.9359 10.418 28.1182 10.418 28.3369C 10.418 28.5465 10.3496 28.722 10.2129 28.8633C 10.0807 29.0046 9.88477 29.0752 9.625 29.0752C 9.36523 29.0752 9.16927 29.0046 9.03711 28.8633C 8.90951 28.722 8.8457 28.5465 8.8457 28.3369ZM 18.8057 19.7578L 14.6836 29L 13.3574 29L 17.4658 20.0859L 12.0791 20.0859L 12.0791 19.0469L 18.8057 19.0469L 18.8057 19.7578ZM 7.06836 41.7549C 7.06836 43.236 6.81543 44.3366 6.30957 45.0566C 5.80371 45.7767 5.01302 46.1367 3.9375 46.1367C 2.87565 46.1367 2.08952 45.7858 1.5791 45.084C 1.06868 44.3776 0.804362 43.3249 0.786133 41.9258L 0.786133 40.2373C 0.786133 38.7744 1.03906 37.6875 1.54492 36.9766C 2.05078 36.2656 2.84375 35.9102 3.92383 35.9102C 4.99479 35.9102 5.7832 36.2542 6.28906 36.9424C 6.79492 37.626 7.05469 38.6833 7.06836 40.1143L 7.06836 41.7549ZM 5.80371 40.0254C 5.80371 38.9544 5.65332 38.1751 5.35254 37.6875C 5.05176 37.1953 4.57552 36.9492 3.92383 36.9492C 3.27669 36.9492 2.80501 37.193 2.50879 37.6807C 2.21257 38.1683 2.0599 38.918 2.05078 39.9297L 2.05078 41.9531C 2.05078 43.0286 2.20573 43.8239 2.51562 44.3389C 2.83008 44.8493 3.30404 45.1045 3.9375 45.1045C 4.56185 45.1045 5.02441 44.863 5.3252 44.3799C 5.63053 43.8968 5.79004 43.1357 5.80371 42.0967L 5.80371 40.0254ZM 8.8457 45.3369C 8.8457 45.1182 8.90951 44.9359 9.03711 44.79C 9.16927 44.6442 9.36523 44.5713 9.625 44.5713C 9.88477 44.5713 10.0807 44.6442 10.2129 44.79C 10.3496 44.9359 10.418 45.1182 10.418 45.3369C 10.418 45.5465 10.3496 45.722 10.2129 45.8633C 10.0807 46.0046 9.88477 46.0752 9.625 46.0752C 9.36523 46.0752 9.16927 46.0046 9.03711 45.8633C 8.90951 45.722 8.8457 45.5465 8.8457 45.3369ZM 18.8057 36.7578L 14.6836 46L 13.3574 46L 17.4658 37.0859L 12.0791 37.0859L 12.0791 36.0469L 18.8057 36.0469L 18.8057 36.7578Z"/>
<path id="path4_fill" d="M 2.66602 7.4082L 3.61621 7.4082C 4.21322 7.39909 4.68262 7.24186 5.02441 6.93652C 5.36621 6.63118 5.53711 6.21875 5.53711 5.69922C 5.53711 4.53255 4.95605 3.94922 3.79395 3.94922C 3.24707 3.94922 2.80957 4.10645 2.48145 4.4209C 2.15788 4.73079 1.99609 5.14323 1.99609 5.6582L 0.731445 5.6582C 0.731445 4.86979 1.01855 4.21582 1.59277 3.69629C 2.17155 3.1722 2.90527 2.91016 3.79395 2.91016C 4.73275 2.91016 5.46875 3.15853 6.00195 3.65527C 6.53516 4.15202 6.80176 4.84245 6.80176 5.72656C 6.80176 6.15951 6.66048 6.57878 6.37793 6.98438C 6.09993 7.38997 5.7194 7.69303 5.23633 7.89355C 5.7832 8.06673 6.20475 8.35384 6.50098 8.75488C 6.80176 9.15592 6.95215 9.64583 6.95215 10.2246C 6.95215 11.1178 6.66048 11.8265 6.07715 12.3506C 5.49382 12.8747 4.73503 13.1367 3.80078 13.1367C 2.86654 13.1367 2.10547 12.8838 1.51758 12.3779C 0.934245 11.8721 0.642578 11.2044 0.642578 10.375L 1.91406 10.375C 1.91406 10.8991 2.08496 11.3184 2.42676 11.6328C 2.76855 11.9473 3.22656 12.1045 3.80078 12.1045C 4.41146 12.1045 4.87858 11.945 5.20215 11.626C 5.52572 11.307 5.6875 10.849 5.6875 10.252C 5.6875 9.67318 5.50977 9.22884 5.1543 8.91895C 4.79883 8.60905 4.28613 8.44954 3.61621 8.44043L 2.66602 8.44043L 2.66602 7.4082ZM 7.34863 29L 0.827148 29L 0.827148 28.0908L 4.27246 24.2627C 4.78288 23.6839 5.13379 23.2145 5.3252 22.8545C 5.52116 22.4899 5.61914 22.1139 5.61914 21.7266C 5.61914 21.207 5.46191 20.7809 5.14746 20.4482C 4.83301 20.1156 4.41374 19.9492 3.88965 19.9492C 3.26074 19.9492 2.77083 20.1292 2.41992 20.4893C 2.07357 20.8447 1.90039 21.3415 1.90039 21.9795L 0.635742 21.9795C 0.635742 21.0635 0.929688 20.3229 1.51758 19.7578C 2.11003 19.1927 2.90072 18.9102 3.88965 18.9102C 4.81478 18.9102 5.54622 19.154 6.08398 19.6416C 6.62174 20.1247 6.89062 20.7695 6.89062 21.5762C 6.89062 22.556 6.26628 23.7227 5.01758 25.0762L 2.35156 27.9678L 7.34863 27.9678L 7.34863 29ZM 5.67383 41.625C 5.40951 41.9395 5.09277 42.1924 4.72363 42.3838C 4.35905 42.5752 3.95801 42.6709 3.52051 42.6709C 2.94629 42.6709 2.44499 42.5296 2.0166 42.2471C 1.59277 41.9645 1.26465 41.568 1.03223 41.0576C 0.799805 40.5426 0.683594 39.9753 0.683594 39.3555C 0.683594 38.6901 0.808919 38.0908 1.05957 37.5576C 1.31478 37.0244 1.6748 36.6165 2.13965 36.334C 2.60449 36.0514 3.14681 35.9102 3.7666 35.9102C 4.75098 35.9102 5.52572 36.2793 6.09082 37.0176C 6.66048 37.7513 6.94531 38.7539 6.94531 40.0254L 6.94531 40.3945C 6.94531 42.3314 6.5625 43.7464 5.79688 44.6396C 5.03125 45.5283 3.87598 45.984 2.33105 46.0068L 2.08496 46.0068L 2.08496 44.9404L 2.35156 44.9404C 3.39518 44.9222 4.19727 44.651 4.75781 44.127C 5.31836 43.5983 5.6237 42.7643 5.67383 41.625ZM 3.72559 41.625C 4.14941 41.625 4.53906 41.4951 4.89453 41.2354C 5.25456 40.9756 5.5166 40.6543 5.68066 40.2715L 5.68066 39.7656C 5.68066 38.9362 5.50065 38.2617 5.14062 37.7422C 4.7806 37.2227 4.32487 36.9629 3.77344 36.9629C 3.21745 36.9629 2.77083 37.1771 2.43359 37.6055C 2.09635 38.0293 1.92773 38.5898 1.92773 39.2871C 1.92773 39.9661 2.08952 40.5267 2.41309 40.9688C 2.74121 41.4062 3.17871 41.625 3.72559 41.625Z"/>
<path id="path5_fill" d="M 5.67383 8.625C 5.40951 8.93945 5.09277 9.19238 4.72363 9.38379C 4.35905 9.5752 3.95801 9.6709 3.52051 9.6709C 2.94629 9.6709 2.44499 9.52962 2.0166 9.24707C 1.59277 8.96452 1.26465 8.56803 1.03223 8.05762C 0.799805 7.54264 0.683594 6.97526 0.683594 6.35547C 0.683594 5.6901 0.808919 5.09082 1.05957 4.55762C 1.31478 4.02441 1.6748 3.61654 2.13965 3.33398C 2.60449 3.05143 3.14681 2.91016 3.7666 2.91016C 4.75098 2.91016 5.52572 3.2793 6.09082 4.01758C 6.66048 4.7513 6.94531 5.75391 6.94531 7.02539L 6.94531 7.39453C 6.94531 9.33138 6.5625 10.7464 5.79688 11.6396C 5.03125 12.5283 3.87598 12.984 2.33105 13.0068L 2.08496 13.0068L 2.08496 11.9404L 2.35156 11.9404C 3.39518 11.9222 4.19727 11.651 4.75781 11.127C 5.31836 10.5983 5.6237 9.76432 5.67383 8.625ZM 3.72559 8.625C 4.14941 8.625 4.53906 8.49512 4.89453 8.23535C 5.25456 7.97559 5.5166 7.6543 5.68066 7.27148L 5.68066 6.76562C 5.68066 5.9362 5.50065 5.26172 5.14062 4.74219C 4.7806 4.22266 4.32487 3.96289 3.77344 3.96289C 3.21745 3.96289 2.77083 4.17708 2.43359 4.60547C 2.09635 5.0293 1.92773 5.58984 1.92773 6.28711C 1.92773 6.96615 2.08952 7.52669 2.41309 7.96875C 2.74121 8.40625 3.17871 8.625 3.72559 8.625ZM 5.67383 24.625C 5.40951 24.9395 5.09277 25.1924 4.72363 25.3838C 4.35905 25.5752 3.95801 25.6709 3.52051 25.6709C 2.94629 25.6709 2.44499 25.5296 2.0166 25.2471C 1.59277 24.9645 1.26465 24.568 1.03223 24.0576C 0.799805 23.5426 0.683594 22.9753 0.683594 22.3555C 0.683594 21.6901 0.808919 21.0908 1.05957 20.5576C 1.31478 20.0244 1.6748 19.6165 2.13965 19.334C 2.60449 19.0514 3.14681 18.9102 3.7666 18.9102C 4.75098 18.9102 5.52572 19.2793 6.09082 20.0176C 6.66048 20.7513 6.94531 21.7539 6.94531 23.0254L 6.94531 23.3945C 6.94531 25.3314 6.5625 26.7464 5.79688 27.6396C 5.03125 28.5283 3.87598 28.984 2.33105 29.0068L 2.08496 29.0068L 2.08496 27.9404L 2.35156 27.9404C 3.39518 27.9222 4.19727 27.651 4.75781 27.127C 5.31836 26.5983 5.6237 25.7643 5.67383 24.625ZM 3.72559 24.625C 4.14941 24.625 4.53906 24.4951 4.89453 24.2354C 5.25456 23.9756 5.5166 23.6543 5.68066 23.2715L 5.68066 22.7656C 5.68066 21.9362 5.50065 21.2617 5.14062 20.7422C 4.7806 20.2227 4.32487 19.9629 3.77344 19.9629C 3.21745 19.9629 2.77083 20.1771 2.43359 20.6055C 2.09635 21.0293 1.92773 21.5898 1.92773 22.2871C 1.92773 22.9661 2.08952 23.5267 2.41309 23.9688C 2.74121 24.4062 3.17871 24.625 3.72559 24.625ZM 7.34863 46L 0.827148 46L 0.827148 45.0908L 4.27246 41.2627C 4.78288 40.6839 5.13379 40.2145 5.3252 39.8545C 5.52116 39.4899 5.61914 39.1139 5.61914 38.7266C 5.61914 38.207 5.46191 37.7809 5.14746 37.4482C 4.83301 37.1156 4.41374 36.9492 3.88965 36.9492C 3.26074 36.9492 2.77083 37.1292 2.41992 37.4893C 2.07357 37.8447 1.90039 38.3415 1.90039 38.9795L 0.635742 38.9795C 0.635742 38.0635 0.929688 37.3229 1.51758 36.7578C 2.11003 36.1927 2.90072 35.9102 3.88965 35.9102C 4.81478 35.9102 5.54622 36.154 6.08398 36.6416C 6.62174 37.1247 6.89062 37.7695 6.89062 38.5762C 6.89062 39.556 6.26628 40.7227 5.01758 42.0762L 2.35156 44.9678L 7.34863 44.9678L 7.34863 46Z"/>
<path id="path6_fill" d="M 2.85059 3.04688L 6.10449 11.168L 9.3584 3.04688L 11.0605 3.04688L 11.0605 13L 9.74805 13L 9.74805 9.12402L 9.87109 4.94043L 6.60352 13L 5.59863 13L 2.33789 4.96094L 2.46777 9.12402L 2.46777 13L 1.15527 13L 1.15527 3.04688L 2.85059 3.04688ZM 17.7461 13C 17.6732 12.8542 17.6139 12.5944 17.5684 12.2207C 16.9805 12.8314 16.2786 13.1367 15.4629 13.1367C 14.7337 13.1367 14.1344 12.9316 13.665 12.5215C 13.2002 12.1068 12.9678 11.5827 12.9678 10.9492C 12.9678 10.179 13.2594 9.58203 13.8428 9.1582C 14.4307 8.72982 15.2555 8.51562 16.3174 8.51562L 17.5479 8.51562L 17.5479 7.93457C 17.5479 7.49251 17.4157 7.1416 17.1514 6.88184C 16.887 6.61751 16.4974 6.48535 15.9824 6.48535C 15.5312 6.48535 15.153 6.59928 14.8477 6.82715C 14.5423 7.05501 14.3896 7.33073 14.3896 7.6543L 13.1182 7.6543C 13.1182 7.28516 13.248 6.92969 13.5078 6.58789C 13.7721 6.24154 14.1276 5.9681 14.5742 5.76758C 15.0254 5.56706 15.5199 5.4668 16.0576 5.4668C 16.9098 5.4668 17.5775 5.68099 18.0605 6.10938C 18.5436 6.5332 18.7943 7.11882 18.8125 7.86621L 18.8125 11.2705C 18.8125 11.9495 18.8991 12.4896 19.0723 12.8906L 19.0723 13L 17.7461 13ZM 15.6475 12.0361C 16.0439 12.0361 16.4199 11.9336 16.7754 11.7285C 17.1309 11.5234 17.3883 11.2568 17.5479 10.9287L 17.5479 9.41113L 16.5566 9.41113C 15.0072 9.41113 14.2324 9.86458 14.2324 10.7715C 14.2324 11.168 14.3646 11.4779 14.6289 11.7012C 14.8932 11.9245 15.2327 12.0361 15.6475 12.0361ZM 22.5107 3.8125L 22.5107 5.60352L 23.8916 5.60352L 23.8916 6.58105L 22.5107 6.58105L 22.5107 11.168C 22.5107 11.4642 22.5723 11.6875 22.6953 11.8379C 22.8184 11.9837 23.028 12.0566 23.3242 12.0566C 23.4701 12.0566 23.6706 12.0293 23.9258 11.9746L 23.9258 13C 23.5931 13.0911 23.2695 13.1367 22.9551 13.1367C 22.39 13.1367 21.9639 12.9658 21.6768 12.624C 21.3896 12.2822 21.2461 11.7969 21.2461 11.168L 21.2461 6.58105L 19.8994 6.58105L 19.8994 5.60352L 21.2461 5.60352L 21.2461 3.8125L 22.5107 3.8125ZM 28.9502 6.73828C 28.7588 6.70638 28.5514 6.69043 28.3281 6.69043C 27.4987 6.69043 26.9359 7.04362 26.6396 7.75L 26.6396 13L 25.375 13L 25.375 5.60352L 26.6055 5.60352L 26.626 6.45801C 27.0407 5.7972 27.6286 5.4668 28.3896 5.4668C 28.6357 5.4668 28.8226 5.4987 28.9502 5.5625L 28.9502 6.73828ZM 31.4932 13L 30.2285 13L 30.2285 5.60352L 31.4932 5.60352L 31.4932 13ZM 30.126 3.6416C 30.126 3.43652 30.1875 3.26335 30.3105 3.12207C 30.4382 2.98079 30.625 2.91016 30.8711 2.91016C 31.1172 2.91016 31.304 2.98079 31.4316 3.12207C 31.5592 3.26335 31.623 3.43652 31.623 3.6416C 31.623 3.84668 31.5592 4.01758 31.4316 4.1543C 31.304 4.29102 31.1172 4.35938 30.8711 4.35938C 30.625 4.35938 30.4382 4.29102 30.3105 4.1543C 30.1875 4.01758 30.126 3.84668 30.126 3.6416ZM 36.0049 8.30371L 37.6455 5.60352L 39.1221 5.60352L 36.7021 9.26074L 39.1973 13L 37.7344 13L 36.0254 10.2314L 34.3164 13L 32.8467 13L 35.3418 9.26074L 32.9219 5.60352L 34.3848 5.60352L 36.0049 8.30371ZM 43.8936 8.95996C 43.8936 7.93001 44.0303 6.94108 44.3037 5.99316C 44.5817 5.04525 44.9941 4.18392 45.541 3.40918C 46.0879 2.63444 46.6553 2.08757 47.2432 1.76855L 47.5029 2.60254C 46.8376 3.11296 46.2907 3.89225 45.8623 4.94043C 45.4385 5.98861 45.2061 7.16211 45.165 8.46094L 45.1582 9.04199C 45.1582 10.8011 45.4795 12.3278 46.1221 13.6221C 46.5094 14.3968 46.9697 15.0029 47.5029 15.4404L 47.2432 16.2129C 46.637 15.8757 46.0583 15.3105 45.5068 14.5176C 44.4313 12.9681 43.8936 11.1156 43.8936 8.95996ZM 54.4209 10.4023L 50.251 10.4023L 49.3145 13L 47.9609 13L 51.7617 3.04688L 52.9102 3.04688L 56.7178 13L 55.3711 13L 54.4209 10.4023ZM 50.6475 9.32227L 54.0312 9.32227L 52.3359 4.66699L 50.6475 9.32227ZM 60.7783 9.02832C 60.7783 10.0446 60.6439 11.0199 60.375 11.9541C 60.1107 12.8838 59.7028 13.7428 59.1514 14.5312C 58.6045 15.3197 58.0303 15.8802 57.4287 16.2129L 57.1621 15.4404C 57.8639 14.9027 58.4268 14.0687 58.8506 12.9385C 59.279 11.8037 59.4977 10.5459 59.5068 9.16504L 59.5068 8.94629C 59.5068 7.98926 59.4066 7.10059 59.2061 6.28027C 59.0055 5.4554 58.7253 4.71712 58.3652 4.06543C 58.0098 3.41374 57.6087 2.9056 57.1621 2.54102L 57.4287 1.76855C 58.0303 2.10124 58.6022 2.65723 59.1445 3.43652C 59.6914 4.21582 60.0993 5.07487 60.3682 6.01367C 60.6416 6.95247 60.7783 7.95736 60.7783 9.02832Z"/>
<path id="path7_fill" d="M 8.47656 9.8418C 8.35352 10.8945 7.96387 11.708 7.30762 12.2822C 6.65592 12.8519 5.78776 13.1367 4.70312 13.1367C 3.52734 13.1367 2.58398 12.7152 1.87305 11.8721C 1.16667 11.029 0.813477 9.90104 0.813477 8.48828L 0.813477 7.53125C 0.813477 6.60612 0.977539 5.79264 1.30566 5.09082C 1.63835 4.389 2.10775 3.85124 2.71387 3.47754C 3.31999 3.09928 4.02181 2.91016 4.81934 2.91016C 5.87663 2.91016 6.72428 3.20638 7.3623 3.79883C 8.00033 4.38672 8.37174 5.20247 8.47656 6.24609L 7.15723 6.24609C 7.04329 5.45312 6.79492 4.87891 6.41211 4.52344C 6.03385 4.16797 5.50293 3.99023 4.81934 3.99023C 3.98079 3.99023 3.32227 4.30013 2.84375 4.91992C 2.36979 5.53971 2.13281 6.42155 2.13281 7.56543L 2.13281 8.5293C 2.13281 9.60938 2.3584 10.4684 2.80957 11.1064C 3.26074 11.7445 3.89193 12.0635 4.70312 12.0635C 5.43229 12.0635 5.99056 11.8994 6.37793 11.5713C 6.76986 11.2386 7.02962 10.6621 7.15723 9.8418L 8.47656 9.8418ZM 9.74121 9.2334C 9.74121 8.50879 9.88249 7.8571 10.165 7.27832C 10.4521 6.69954 10.8486 6.25293 11.3545 5.93848C 11.8649 5.62402 12.446 5.4668 13.0977 5.4668C 14.1048 5.4668 14.9183 5.81543 15.5381 6.5127C 16.1624 7.20996 16.4746 8.13737 16.4746 9.29492L 16.4746 9.38379C 16.4746 10.1038 16.3356 10.751 16.0576 11.3252C 15.7842 11.8949 15.39 12.3392 14.875 12.6582C 14.3646 12.9772 13.7767 13.1367 13.1113 13.1367C 12.1087 13.1367 11.2952 12.7881 10.6709 12.0908C 10.0511 11.3936 9.74121 10.4707 9.74121 9.32227L 9.74121 9.2334ZM 11.0127 9.38379C 11.0127 10.2041 11.2018 10.8626 11.5801 11.3594C 11.9629 11.8561 12.4733 12.1045 13.1113 12.1045C 13.7539 12.1045 14.2643 11.8538 14.6426 11.3525C 15.0208 10.8467 15.21 10.1403 15.21 9.2334C 15.21 8.4222 15.0163 7.76595 14.6289 7.26465C 14.2461 6.75879 13.7357 6.50586 13.0977 6.50586C 12.4733 6.50586 11.9697 6.75423 11.5869 7.25098C 11.2041 7.74772 11.0127 8.45866 11.0127 9.38379ZM 19.4346 13L 18.1699 13L 18.1699 2.5L 19.4346 2.5L 19.4346 13ZM 26.0312 12.2686C 25.5391 12.8473 24.8167 13.1367 23.8643 13.1367C 23.0758 13.1367 22.4743 12.9089 22.0596 12.4531C 21.6494 11.9928 21.4421 11.3138 21.4375 10.416L 21.4375 5.60352L 22.7021 5.60352L 22.7021 10.3818C 22.7021 11.5029 23.1579 12.0635 24.0693 12.0635C 25.0355 12.0635 25.6781 11.7035 25.9971 10.9834L 25.9971 5.60352L 27.2617 5.60352L 27.2617 13L 26.0586 13L 26.0312 12.2686ZM 30.3789 5.60352L 30.4131 6.42383C 30.9554 5.78581 31.6868 5.4668 32.6074 5.4668C 33.6419 5.4668 34.346 5.86328 34.7197 6.65625C 34.9658 6.30078 35.2848 6.01367 35.6768 5.79492C 36.0732 5.57617 36.5404 5.4668 37.0781 5.4668C 38.7005 5.4668 39.5254 6.32585 39.5527 8.04395L 39.5527 13L 38.2881 13L 38.2881 8.11914C 38.2881 7.59049 38.1673 7.19629 37.9258 6.93652C 37.6842 6.6722 37.2786 6.54004 36.709 6.54004C 36.2396 6.54004 35.8499 6.68132 35.54 6.96387C 35.2301 7.24186 35.0501 7.61784 35 8.0918L 35 13L 33.7285 13L 33.7285 8.15332C 33.7285 7.0778 33.2021 6.54004 32.1494 6.54004C 31.32 6.54004 30.7526 6.89323 30.4473 7.59961L 30.4473 13L 29.1826 13L 29.1826 5.60352L 30.3789 5.60352ZM 42.6631 5.60352L 42.7041 6.5332C 43.2692 5.82227 44.0075 5.4668 44.9189 5.4668C 46.4821 5.4668 47.2705 6.34863 47.2842 8.1123L 47.2842 13L 46.0195 13L 46.0195 8.10547C 46.015 7.57227 45.8919 7.17806 45.6504 6.92285C 45.4134 6.66764 45.042 6.54004 44.5361 6.54004C 44.126 6.54004 43.766 6.64941 43.4561 6.86816C 43.1462 7.08691 42.9046 7.37402 42.7314 7.72949L 42.7314 13L 41.4668 13L 41.4668 5.60352L 42.6631 5.60352ZM 56.1572 11.2568L 59.001 3.04688L 60.4365 3.04688L 56.7451 13L 55.583 13L 51.8984 3.04688L 53.3271 3.04688L 56.1572 11.2568ZM 64.3467 13.1367C 63.3441 13.1367 62.5283 12.8086 61.8994 12.1523C 61.2705 11.4915 60.9561 10.6097 60.9561 9.50684L 60.9561 9.27441C 60.9561 8.54069 61.0951 7.88672 61.373 7.3125C 61.6556 6.73372 62.0475 6.28255 62.5488 5.95898C 63.0547 5.63086 63.6016 5.4668 64.1895 5.4668C 65.151 5.4668 65.8984 5.78353 66.4316 6.41699C 66.9648 7.05046 67.2314 7.95736 67.2314 9.1377L 67.2314 9.66406L 62.2207 9.66406C 62.2389 10.3932 62.4508 10.9834 62.8564 11.4346C 63.2666 11.8812 63.7861 12.1045 64.415 12.1045C 64.8617 12.1045 65.2399 12.0133 65.5498 11.8311C 65.8597 11.6488 66.1309 11.4072 66.3633 11.1064L 67.1357 11.708C 66.516 12.6605 65.5863 13.1367 64.3467 13.1367ZM 64.1895 6.50586C 63.679 6.50586 63.2507 6.69271 62.9043 7.06641C 62.5579 7.43555 62.3438 7.95508 62.2617 8.625L 65.9668 8.625L 65.9668 8.5293C 65.9303 7.88672 65.7572 7.38997 65.4473 7.03906C 65.1374 6.68359 64.7181 6.50586 64.1895 6.50586ZM 71.668 12.1045C 72.1191 12.1045 72.5133 11.9678 72.8506 11.6943C 73.1878 11.4209 73.3747 11.0791 73.4111 10.6689L 74.6074 10.6689C 74.5846 11.0928 74.4388 11.4961 74.1699 11.8789C 73.901 12.2617 73.541 12.5671 73.0898 12.7949C 72.6432 13.0228 72.1693 13.1367 71.668 13.1367C 70.6608 13.1367 69.8587 12.8018 69.2617 12.1318C 68.6693 11.4574 68.373 10.5368 68.373 9.37012L 68.373 9.1582C 68.373 8.43815 68.5052 7.79785 68.7695 7.2373C 69.0339 6.67676 69.4121 6.24154 69.9043 5.93164C 70.401 5.62174 70.9867 5.4668 71.6611 5.4668C 72.4906 5.4668 73.1787 5.71517 73.7256 6.21191C 74.277 6.70866 74.571 7.35352 74.6074 8.14648L 73.4111 8.14648C 73.3747 7.66797 73.1924 7.27604 72.8643 6.9707C 72.5407 6.66081 72.1396 6.50586 71.6611 6.50586C 71.0186 6.50586 70.5195 6.73828 70.1641 7.20312C 69.8132 7.66341 69.6377 8.33105 69.6377 9.20605L 69.6377 9.44531C 69.6377 10.2975 69.8132 10.9538 70.1641 11.4141C 70.515 11.8743 71.0163 12.1045 71.668 12.1045ZM 77.7451 3.8125L 77.7451 5.60352L 79.126 5.60352L 79.126 6.58105L 77.7451 6.58105L 77.7451 11.168C 77.7451 11.4642 77.8066 11.6875 77.9297 11.8379C 78.0527 11.9837 78.2624 12.0566 78.5586 12.0566C 78.7044 12.0566 78.9049 12.0293 79.1602 11.9746L 79.1602 13C 78.8275 13.0911 78.5039 13.1367 78.1895 13.1367C 77.6243 13.1367 77.1982 12.9658 76.9111 12.624C 76.624 12.2822 76.4805 11.7969 76.4805 11.168L 76.4805 6.58105L 75.1338 6.58105L 75.1338 5.60352L 76.4805 5.60352L 76.4805 3.8125L 77.7451 3.8125ZM 80.1377 9.2334C 80.1377 8.50879 80.279 7.8571 80.5615 7.27832C 80.8486 6.69954 81.2451 6.25293 81.751 5.93848C 82.2614 5.62402 82.8424 5.4668 83.4941 5.4668C 84.5013 5.4668 85.3148 5.81543 85.9346 6.5127C 86.5589 7.20996 86.8711 8.13737 86.8711 9.29492L 86.8711 9.38379C 86.8711 10.1038 86.7321 10.751 86.4541 11.3252C 86.1807 11.8949 85.7865 12.3392 85.2715 12.6582C 84.7611 12.9772 84.1732 13.1367 83.5078 13.1367C 82.5052 13.1367 81.6917 12.7881 81.0674 12.0908C 80.4476 11.3936 80.1377 10.4707 80.1377 9.32227L 80.1377 9.2334ZM 81.4092 9.38379C 81.4092 10.2041 81.5983 10.8626 81.9766 11.3594C 82.3594 11.8561 82.8698 12.1045 83.5078 12.1045C 84.1504 12.1045 84.6608 11.8538 85.0391 11.3525C 85.4173 10.8467 85.6064 10.1403 85.6064 9.2334C 85.6064 8.4222 85.4128 7.76595 85.0254 7.26465C 84.6426 6.75879 84.1322 6.50586 83.4941 6.50586C 82.8698 6.50586 82.3662 6.75423 81.9834 7.25098C 81.6006 7.74772 81.4092 8.45866 81.4092 9.38379ZM 92.0322 6.73828C 91.8408 6.70638 91.6335 6.69043 91.4102 6.69043C 90.5807 6.69043 90.0179 7.04362 89.7217 7.75L 89.7217 13L 88.457 13L 88.457 5.60352L 89.6875 5.60352L 89.708 6.45801C 90.1227 5.7972 90.7106 5.4668 91.4717 5.4668C 91.7178 5.4668 91.9046 5.4987 92.0322 5.5625L 92.0322 6.73828ZM 97.5078 11.0381C 97.5078 10.6963 97.3779 10.432 97.1182 10.2451C 96.863 10.0537 96.4141 9.88965 95.7715 9.75293C 95.1335 9.61621 94.6253 9.45215 94.2471 9.26074C 93.8734 9.06934 93.5954 8.84147 93.4131 8.57715C 93.2354 8.31283 93.1465 7.99837 93.1465 7.63379C 93.1465 7.02767 93.4017 6.51497 93.9121 6.0957C 94.4271 5.67643 95.0833 5.4668 95.8809 5.4668C 96.7194 5.4668 97.3984 5.68327 97.918 6.11621C 98.4421 6.54915 98.7041 7.10286 98.7041 7.77734L 97.4326 7.77734C 97.4326 7.43099 97.2845 7.13249 96.9883 6.88184C 96.6966 6.63118 96.3275 6.50586 95.8809 6.50586C 95.4206 6.50586 95.0605 6.60612 94.8008 6.80664C 94.541 7.00716 94.4111 7.26921 94.4111 7.59277C 94.4111 7.89811 94.5319 8.12826 94.7734 8.2832C 95.015 8.43815 95.4502 8.58626 96.0791 8.72754C 96.7126 8.86882 97.2253 9.03743 97.6172 9.2334C 98.0091 9.42936 98.2985 9.66634 98.4854 9.94434C 98.6768 10.2178 98.7725 10.5527 98.7725 10.9492C 98.7725 11.61 98.5081 12.141 97.9795 12.542C 97.4508 12.9385 96.765 13.1367 95.9219 13.1367C 95.3294 13.1367 94.8053 13.0319 94.3496 12.8223C 93.8939 12.6126 93.5361 12.321 93.2764 11.9473C 93.0212 11.569 92.8936 11.1611 92.8936 10.7236L 94.1582 10.7236C 94.181 11.1475 94.3496 11.4847 94.6641 11.7354C 94.9831 11.9814 95.4023 12.1045 95.9219 12.1045C 96.4004 12.1045 96.7832 12.0088 97.0703 11.8174C 97.362 11.6214 97.5078 11.3617 97.5078 11.0381Z"/>
<path id="path8_stroke" d="M 39.3022 0.353553C 39.4975 0.158291 39.4975 -0.158291 39.3022 -0.353553L 36.1203 -3.53553C 35.925 -3.7308 35.6084 -3.7308 35.4131 -3.53553C 35.2179 -3.34027 35.2179 -3.02369 35.4131 -2.82843L 38.2416 0L 35.4131 2.82843C 35.2179 3.02369 35.2179 3.34027 35.4131 3.53553C 35.6084 3.7308 35.925 3.7308 36.1203 3.53553L 39.3022 0.353553ZM 0 0.5L 38.9487 0.5L 38.9487 -0.5L 0 -0.5L 0 0.5Z"/>
<path id="path9_stroke" d="M 26.3536 0.353553C 26.5488 0.158291 26.5488 -0.158291 26.3536 -0.353553L 23.1716 -3.53553C 22.9763 -3.7308 22.6597 -3.7308 22.4645 -3.53553C 22.2692 -3.34027 22.2692 -3.02369 22.4645 -2.82843L 25.2929 0L 22.4645 2.82843C 22.2692 3.02369 22.2692 3.34027 22.4645 3.53553C 22.6597 3.7308 22.9763 3.7308 23.1716 3.53553L 26.3536 0.353553ZM 0 0.5L 26 0.5L 26 -0.5L 0 -0.5L 0 0.5Z"/>
<path id="path10_stroke" d="M 33.7751 0.353553C 33.9704 0.158291 33.9704 -0.158291 33.7751 -0.353553L 30.5931 -3.53553C 30.3979 -3.7308 30.0813 -3.7308 29.886 -3.53553C 29.6908 -3.34027 29.6908 -3.02369 29.886 -2.82843L 32.7144 0L 29.886 2.82843C 29.6908 3.02369 29.6908 3.34027 29.886 3.53553C 30.0813 3.7308 30.3979 3.7308 30.5931 3.53553L 33.7751 0.353553ZM 0 0.5L 33.4216 0.5L 33.4216 -0.5L 0 -0.5L 0 0.5Z"/>
</defs>
</svg>

