<svg width="390" height="147" viewBox="0 0 390 147" version="1.1" xmlns="http://www.w3.org/2000/svg" xmlns:xlink="http://www.w3.org/1999/xlink">
<title>Group</title>
<desc>Created using Figma</desc>
<g id="Canvas" transform="translate(238 538)">
<g id="Group">
<g id="30x - y = 1000 50x - y = 100">
<use xlink:href="#path0_fill" transform="translate(-233 -518)" fill="#333333"/>
</g>
<g id="30 -1 -1000 50 -1 -100">
<use xlink:href="#path1_fill" transform="translate(-56 -519)" fill="#333333"/>
</g>
<g id="Component">
<g id="Line 2">
<use xlink:href="#path2_stroke" transform="matrix(1.04754e-31 1 -0.99936 0.0357696 -64 -524)"/>
</g>
<g id="Line 3">
<use xlink:href="#path3_stroke" transform="translate(-64 -524)"/>
</g>
<g id="Line 3">
<use xlink:href="#path3_stroke" transform="translate(-64 -475)"/>
</g>
</g>
<g id="Component">
<g id="Line 2">
<use xlink:href="#path4_stroke" transform="matrix(-1.22465e-16 -1 0.999386 -0.0350406 50 -476)"/>
</g>
<g id="Line 3">
<use xlink:href="#path3_stroke" transform="matrix(-1 1.22465e-16 -1.22465e-16 -1 50 -476)"/>
</g>
<g id="Line 3">
<use xlink:href="#path3_stroke" transform="matrix(-1 1.22465e-16 -1.22465e-16 -1 50 -524)"/>
</g>
</g>
<g id="Line">
<use xlink:href="#path5_stroke" transform="matrix(6.12323e-17 1 -1 6.12323e-17 -6 -521)"/>
</g>
<g id="30x - y = 1000 50x - y = 100">
<use xlink:href="#path0_fill" transform="translate(-233 -518)" fill="#333333"/>
</g>
<g id="30 -1 -1000 50 -1 -100">
<use xlink:href="#path1_fill" transform="translate(-56 -519)" fill="#333333"/>
</g>
<g id="Line 2">
<use xlink:href="#path2_stroke" transform="matrix(1.04754e-31 1 -0.99936 0.0357696 -64 -524)"/>
</g>
<g id="Line 3">
<use xlink:href="#path3_stroke" transform="translate(-64 -475)"/>
</g>
<g id="Line 2">
<use xlink:href="#path4_stroke" transform="matrix(-1.22465e-16 -1 0.999386 -0.0350406 50 -476)"/>
</g>
<g id="Line 3">
<use xlink:href="#path3_stroke" transform="matrix(-1 1.22465e-16 -1.22465e-16 -1 50 -476)"/>
</g>
<g id="x y">
<use xlink:href="#path6_fill" transform="translate(-50 -543)"/>
</g>
<g id="1 0 45 0 1 2350">
<use xlink:href="#path7_fill" transform="translate(-230 -435)" fill="#333333"/>
</g>
<g id="Component">
<g id="Line 2">
<use xlink:href="#path2_stroke" transform="matrix(1.04754e-31 1 -0.99936 0.0357696 -238 -440)"/>
</g>
<g id="Line 3">
<use xlink:href="#path3_stroke" transform="translate(-238 -440)"/>
</g>
<g id="Line 3">
<use xlink:href="#path3_stroke" transform="translate(-238 -391)"/>
</g>
</g>
<g id="Component">
<g id="Line 2">
<use xlink:href="#path4_stroke" transform="matrix(-1.22465e-16 -1 0.999386 -0.0350406 -124 -392)"/>
</g>
<g id="Line 3">
<use xlink:href="#path3_stroke" transform="matrix(-1 1.22465e-16 -1.22465e-16 -1 -124 -392)"/>
</g>
<g id="Line 3">
<use xlink:href="#path3_stroke" transform="matrix(-1 1.22465e-16 -1.22465e-16 -1 -124 -440)"/>
</g>
</g>
<g id="Line">
<use xlink:href="#path5_stroke" transform="matrix(6.12323e-17 1 -1 6.12323e-17 -180 -437)"/>
</g>
<g id="Line 2">
<use xlink:href="#path2_stroke" transform="matrix(1.04754e-31 1 -0.99936 0.0357696 -238 -440)"/>
</g>
<g id="Line 3">
<use xlink:href="#path3_stroke" transform="translate(-238 -391)"/>
</g>
<g id="Line 2">
<use xlink:href="#path4_stroke" transform="matrix(-1.22465e-16 -1 0.999386 -0.0350406 -124 -392)"/>
</g>
<g id="Line 3">
<use xlink:href="#path3_stroke" transform="matrix(-1 1.22465e-16 -1.22465e-16 -1 -124 -392)"/>
</g>
<g id="x y">
<use xlink:href="#path8_fill" transform="translate(-224 -459)"/>
</g>
<g id="Arrow 2">
<use xlink:href="#path9_stroke" transform="translate(-102 -500)"/>
</g>
<g id="Arrow 2">
<use xlink:href="#path9_stroke" transform="translate(-102 -416)"/>
</g>
<g id="1x - 0y = 45 0x - 1y = 2350">
<use xlink:href="#path10_fill" transform="translate(-68 -437)" fill="#333333"/>
</g>
<g id="Arrow 2">
<use xlink:href="#path9_stroke" transform="translate(57 -415)"/>
</g>
<g id="x = 45 y = 2350">
<use xlink:href="#path11_fill" transform="translate(92 -437)" fill="#333333"/>
</g>
</g>
</g>
<defs>
<path id="path0_fill" d="M 3.04688 8.60938L 4.13281 8.60938C 4.8151 8.59896 5.35156 8.41927 5.74219 8.07031C 6.13281 7.72135 6.32812 7.25 6.32812 6.65625C 6.32812 5.32292 5.66406 4.65625 4.33594 4.65625C 3.71094 4.65625 3.21094 4.83594 2.83594 5.19531C 2.46615 5.54948 2.28125 6.02083 2.28125 6.60938L 0.835938 6.60938C 0.835938 5.70833 1.16406 4.96094 1.82031 4.36719C 2.48177 3.76823 3.32031 3.46875 4.33594 3.46875C 5.40885 3.46875 6.25 3.7526 6.85938 4.32031C 7.46875 4.88802 7.77344 5.67708 7.77344 6.6875C 7.77344 7.18229 7.61198 7.66146 7.28906 8.125C 6.97135 8.58854 6.53646 8.9349 5.98438 9.16406C 6.60938 9.36198 7.09115 9.6901 7.42969 10.1484C 7.77344 10.6068 7.94531 11.1667 7.94531 11.8281C 7.94531 12.849 7.61198 13.6589 6.94531 14.2578C 6.27865 14.8568 5.41146 15.1562 4.34375 15.1562C 3.27604 15.1562 2.40625 14.8672 1.73438 14.2891C 1.06771 13.7109 0.734375 12.9479 0.734375 12L 2.1875 12C 2.1875 12.599 2.38281 13.0781 2.77344 13.4375C 3.16406 13.7969 3.6875 13.9766 4.34375 13.9766C 5.04167 13.9766 5.57552 13.7943 5.94531 13.4297C 6.3151 13.0651 6.5 12.5417 6.5 11.8594C 6.5 11.1979 6.29688 10.6901 5.89062 10.3359C 5.48438 9.98177 4.89844 9.79948 4.13281 9.78906L 3.04688 9.78906L 3.04688 8.60938ZM 17.0625 10.1484C 17.0625 11.8411 16.7734 13.099 16.1953 13.9219C 15.6172 14.7448 14.7135 15.1562 13.4844 15.1562C 12.2708 15.1562 11.3724 14.7552 10.7891 13.9531C 10.2057 13.1458 9.90365 11.9427 9.88281 10.3438L 9.88281 8.41406C 9.88281 6.74219 10.1719 5.5 10.75 4.6875C 11.3281 3.875 12.2344 3.46875 13.4688 3.46875C 14.6927 3.46875 15.5938 3.86198 16.1719 4.64844C 16.75 5.42969 17.0469 6.63802 17.0625 8.27344L 17.0625 10.1484ZM 15.6172 8.17188C 15.6172 6.94792 15.4453 6.05729 15.1016 5.5C 14.7578 4.9375 14.2135 4.65625 13.4688 4.65625C 12.7292 4.65625 12.1901 4.9349 11.8516 5.49219C 11.513 6.04948 11.3385 6.90625 11.3281 8.0625L 11.3281 10.375C 11.3281 11.6042 11.5052 12.513 11.8594 13.1016C 12.2188 13.6849 12.7604 13.9766 13.4844 13.9766C 14.1979 13.9766 14.7266 13.7005 15.0703 13.1484C 15.4193 12.5964 15.6016 11.7266 15.6172 10.5391L 15.6172 8.17188ZM 21.8984 9.63281L 23.7734 6.54688L 25.4609 6.54688L 22.6953 10.7266L 25.5469 15L 23.875 15L 21.9219 11.8359L 19.9688 15L 18.2891 15L 21.1406 10.7266L 18.375 6.54688L 20.0469 6.54688L 21.8984 9.63281ZM 33.9766 10.7578L 30.1641 10.7578L 30.1641 9.57812L 33.9766 9.57812L 33.9766 10.7578ZM 42.125 12.8828L 44.0938 6.54688L 45.6406 6.54688L 42.2422 16.3047C 41.7161 17.7109 40.8802 18.4141 39.7344 18.4141L 39.4609 18.3906L 38.9219 18.2891L 38.9219 17.1172L 39.3125 17.1484C 39.8021 17.1484 40.1823 17.0495 40.4531 16.8516C 40.7292 16.6536 40.9557 16.2917 41.1328 15.7656L 41.4531 14.9062L 38.4375 6.54688L 40.0156 6.54688L 42.125 12.8828ZM 61.4844 8.64062L 54.9688 8.64062L 54.9688 7.38281L 61.4844 7.38281L 61.4844 8.64062ZM 61.4844 11.8828L 54.9688 11.8828L 54.9688 10.6328L 61.4844 10.6328L 61.4844 11.8828ZM 76.1953 15L 74.7422 15L 74.7422 5.36719L 71.8281 6.4375L 71.8281 5.125L 75.9688 3.57031L 76.1953 3.57031L 76.1953 15ZM 87.5625 10.1484C 87.5625 11.8411 87.2734 13.099 86.6953 13.9219C 86.1172 14.7448 85.2135 15.1562 83.9844 15.1562C 82.7708 15.1562 81.8724 14.7552 81.2891 13.9531C 80.7057 13.1458 80.4036 11.9427 80.3828 10.3438L 80.3828 8.41406C 80.3828 6.74219 80.6719 5.5 81.25 4.6875C 81.8281 3.875 82.7344 3.46875 83.9688 3.46875C 85.1927 3.46875 86.0938 3.86198 86.6719 4.64844C 87.25 5.42969 87.5469 6.63802 87.5625 8.27344L 87.5625 10.1484ZM 86.1172 8.17188C 86.1172 6.94792 85.9453 6.05729 85.6016 5.5C 85.2578 4.9375 84.7135 4.65625 83.9688 4.65625C 83.2292 4.65625 82.6901 4.9349 82.3516 5.49219C 82.013 6.04948 81.8385 6.90625 81.8281 8.0625L 81.8281 10.375C 81.8281 11.6042 82.0052 12.513 82.3594 13.1016C 82.7188 13.6849 83.2604 13.9766 83.9844 13.9766C 84.6979 13.9766 85.2266 13.7005 85.5703 13.1484C 85.9193 12.5964 86.1016 11.7266 86.1172 10.5391L 86.1172 8.17188ZM 96.5469 10.1484C 96.5469 11.8411 96.2578 13.099 95.6797 13.9219C 95.1016 14.7448 94.1979 15.1562 92.9688 15.1562C 91.7552 15.1562 90.8568 14.7552 90.2734 13.9531C 89.6901 13.1458 89.388 11.9427 89.3672 10.3438L 89.3672 8.41406C 89.3672 6.74219 89.6562 5.5 90.2344 4.6875C 90.8125 3.875 91.7188 3.46875 92.9531 3.46875C 94.1771 3.46875 95.0781 3.86198 95.6562 4.64844C 96.2344 5.42969 96.5312 6.63802 96.5469 8.27344L 96.5469 10.1484ZM 95.1016 8.17188C 95.1016 6.94792 94.9297 6.05729 94.5859 5.5C 94.2422 4.9375 93.6979 4.65625 92.9531 4.65625C 92.2135 4.65625 91.6745 4.9349 91.3359 5.49219C 90.9974 6.04948 90.8229 6.90625 90.8125 8.0625L 90.8125 10.375C 90.8125 11.6042 90.9896 12.513 91.3438 13.1016C 91.7031 13.6849 92.2448 13.9766 92.9688 13.9766C 93.6823 13.9766 94.2109 13.7005 94.5547 13.1484C 94.9036 12.5964 95.0859 11.7266 95.1016 10.5391L 95.1016 8.17188ZM 105.531 10.1484C 105.531 11.8411 105.242 13.099 104.664 13.9219C 104.086 14.7448 103.182 15.1562 101.953 15.1562C 100.74 15.1562 99.8411 14.7552 99.2578 13.9531C 98.6745 13.1458 98.3724 11.9427 98.3516 10.3438L 98.3516 8.41406C 98.3516 6.74219 98.6406 5.5 99.2188 4.6875C 99.7969 3.875 100.703 3.46875 101.938 3.46875C 103.161 3.46875 104.062 3.86198 104.641 4.64844C 105.219 5.42969 105.516 6.63802 105.531 8.27344L 105.531 10.1484ZM 104.086 8.17188C 104.086 6.94792 103.914 6.05729 103.57 5.5C 103.227 4.9375 102.682 4.65625 101.938 4.65625C 101.198 4.65625 100.659 4.9349 100.32 5.49219C 99.9818 6.04948 99.8073 6.90625 99.7969 8.0625L 99.7969 10.375C 99.7969 11.6042 99.974 12.513 100.328 13.1016C 100.688 13.6849 101.229 13.9766 101.953 13.9766C 102.667 13.9766 103.195 13.7005 103.539 13.1484C 103.888 12.5964 104.07 11.7266 104.086 10.5391L 104.086 8.17188ZM 1.60938 28.2969L 2.1875 22.625L 8.01562 22.625L 8.01562 23.9609L 3.41406 23.9609L 3.07031 27.0625C 3.6276 26.7344 4.26042 26.5703 4.96875 26.5703C 6.00521 26.5703 6.82812 26.9141 7.4375 27.6016C 8.04688 28.2839 8.35156 29.2083 8.35156 30.375C 8.35156 31.5469 8.03385 32.4714 7.39844 33.1484C 6.76823 33.8203 5.88542 34.1562 4.75 34.1562C 3.74479 34.1562 2.92448 33.8776 2.28906 33.3203C 1.65365 32.763 1.29167 31.9922 1.20312 31.0078L 2.57031 31.0078C 2.65885 31.6589 2.89062 32.151 3.26562 32.4844C 3.64062 32.8125 4.13542 32.9766 4.75 32.9766C 5.42188 32.9766 5.94792 32.7474 6.32812 32.2891C 6.71354 31.8307 6.90625 31.1979 6.90625 30.3906C 6.90625 29.6302 6.69792 29.0208 6.28125 28.5625C 5.86979 28.099 5.32031 27.8672 4.63281 27.8672C 4.0026 27.8672 3.50781 28.0052 3.14844 28.2812L 2.76562 28.5938L 1.60938 28.2969ZM 17.0625 29.1484C 17.0625 30.8411 16.7734 32.099 16.1953 32.9219C 15.6172 33.7448 14.7135 34.1562 13.4844 34.1562C 12.2708 34.1562 11.3724 33.7552 10.7891 32.9531C 10.2057 32.1458 9.90365 30.9427 9.88281 29.3438L 9.88281 27.4141C 9.88281 25.7422 10.1719 24.5 10.75 23.6875C 11.3281 22.875 12.2344 22.4688 13.4688 22.4688C 14.6927 22.4688 15.5938 22.862 16.1719 23.6484C 16.75 24.4297 17.0469 25.638 17.0625 27.2734L 17.0625 29.1484ZM 15.6172 27.1719C 15.6172 25.9479 15.4453 25.0573 15.1016 24.5C 14.7578 23.9375 14.2135 23.6562 13.4688 23.6562C 12.7292 23.6562 12.1901 23.9349 11.8516 24.4922C 11.513 25.0495 11.3385 25.9062 11.3281 27.0625L 11.3281 29.375C 11.3281 30.6042 11.5052 31.513 11.8594 32.1016C 12.2188 32.6849 12.7604 32.9766 13.4844 32.9766C 14.1979 32.9766 14.7266 32.7005 15.0703 32.1484C 15.4193 31.5964 15.6016 30.7266 15.6172 29.5391L 15.6172 27.1719ZM 21.8984 28.6328L 23.7734 25.5469L 25.4609 25.5469L 22.6953 29.7266L 25.5469 34L 23.875 34L 21.9219 30.8359L 19.9688 34L 18.2891 34L 21.1406 29.7266L 18.375 25.5469L 20.0469 25.5469L 21.8984 28.6328ZM 33.9766 29.7578L 30.1641 29.7578L 30.1641 28.5781L 33.9766 28.5781L 33.9766 29.7578ZM 42.125 31.8828L 44.0938 25.5469L 45.6406 25.5469L 42.2422 35.3047C 41.7161 36.7109 40.8802 37.4141 39.7344 37.4141L 39.4609 37.3906L 38.9219 37.2891L 38.9219 36.1172L 39.3125 36.1484C 39.8021 36.1484 40.1823 36.0495 40.4531 35.8516C 40.7292 35.6536 40.9557 35.2917 41.1328 34.7656L 41.4531 33.9062L 38.4375 25.5469L 40.0156 25.5469L 42.125 31.8828ZM 61.4844 27.6406L 54.9688 27.6406L 54.9688 26.3828L 61.4844 26.3828L 61.4844 27.6406ZM 61.4844 30.8828L 54.9688 30.8828L 54.9688 29.6328L 61.4844 29.6328L 61.4844 30.8828ZM 76.1953 34L 74.7422 34L 74.7422 24.3672L 71.8281 25.4375L 71.8281 24.125L 75.9688 22.5703L 76.1953 22.5703L 76.1953 34ZM 87.5625 29.1484C 87.5625 30.8411 87.2734 32.099 86.6953 32.9219C 86.1172 33.7448 85.2135 34.1562 83.9844 34.1562C 82.7708 34.1562 81.8724 33.7552 81.2891 32.9531C 80.7057 32.1458 80.4036 30.9427 80.3828 29.3438L 80.3828 27.4141C 80.3828 25.7422 80.6719 24.5 81.25 23.6875C 81.8281 22.875 82.7344 22.4688 83.9688 22.4688C 85.1927 22.4688 86.0938 22.862 86.6719 23.6484C 87.25 24.4297 87.5469 25.638 87.5625 27.2734L 87.5625 29.1484ZM 86.1172 27.1719C 86.1172 25.9479 85.9453 25.0573 85.6016 24.5C 85.2578 23.9375 84.7135 23.6562 83.9688 23.6562C 83.2292 23.6562 82.6901 23.9349 82.3516 24.4922C 82.013 25.0495 81.8385 25.9062 81.8281 27.0625L 81.8281 29.375C 81.8281 30.6042 82.0052 31.513 82.3594 32.1016C 82.7188 32.6849 83.2604 32.9766 83.9844 32.9766C 84.6979 32.9766 85.2266 32.7005 85.5703 32.1484C 85.9193 31.5964 86.1016 30.7266 86.1172 29.5391L 86.1172 27.1719ZM 96.5469 29.1484C 96.5469 30.8411 96.2578 32.099 95.6797 32.9219C 95.1016 33.7448 94.1979 34.1562 92.9688 34.1562C 91.7552 34.1562 90.8568 33.7552 90.2734 32.9531C 89.6901 32.1458 89.388 30.9427 89.3672 29.3438L 89.3672 27.4141C 89.3672 25.7422 89.6562 24.5 90.2344 23.6875C 90.8125 22.875 91.7188 22.4688 92.9531 22.4688C 94.1771 22.4688 95.0781 22.862 95.6562 23.6484C 96.2344 24.4297 96.5312 25.638 96.5469 27.2734L 96.5469 29.1484ZM 95.1016 27.1719C 95.1016 25.9479 94.9297 25.0573 94.5859 24.5C 94.2422 23.9375 93.6979 23.6562 92.9531 23.6562C 92.2135 23.6562 91.6745 23.9349 91.3359 24.4922C 90.9974 25.0495 90.8229 25.9062 90.8125 27.0625L 90.8125 29.375C 90.8125 30.6042 90.9896 31.513 91.3438 32.1016C 91.7031 32.6849 92.2448 32.9766 92.9688 32.9766C 93.6823 32.9766 94.2109 32.7005 94.5547 32.1484C 94.9036 31.5964 95.0859 30.7266 95.1016 29.5391L 95.1016 27.1719Z"/>
<path id="path1_fill" d="M 3.04688 8.60938L 4.13281 8.60938C 4.8151 8.59896 5.35156 8.41927 5.74219 8.07031C 6.13281 7.72135 6.32812 7.25 6.32812 6.65625C 6.32812 5.32292 5.66406 4.65625 4.33594 4.65625C 3.71094 4.65625 3.21094 4.83594 2.83594 5.19531C 2.46615 5.54948 2.28125 6.02083 2.28125 6.60938L 0.835938 6.60938C 0.835938 5.70833 1.16406 4.96094 1.82031 4.36719C 2.48177 3.76823 3.32031 3.46875 4.33594 3.46875C 5.40885 3.46875 6.25 3.7526 6.85938 4.32031C 7.46875 4.88802 7.77344 5.67708 7.77344 6.6875C 7.77344 7.18229 7.61198 7.66146 7.28906 8.125C 6.97135 8.58854 6.53646 8.9349 5.98438 9.16406C 6.60938 9.36198 7.09115 9.6901 7.42969 10.1484C 7.77344 10.6068 7.94531 11.1667 7.94531 11.8281C 7.94531 12.849 7.61198 13.6589 6.94531 14.2578C 6.27865 14.8568 5.41146 15.1562 4.34375 15.1562C 3.27604 15.1562 2.40625 14.8672 1.73438 14.2891C 1.06771 13.7109 0.734375 12.9479 0.734375 12L 2.1875 12C 2.1875 12.599 2.38281 13.0781 2.77344 13.4375C 3.16406 13.7969 3.6875 13.9766 4.34375 13.9766C 5.04167 13.9766 5.57552 13.7943 5.94531 13.4297C 6.3151 13.0651 6.5 12.5417 6.5 11.8594C 6.5 11.1979 6.29688 10.6901 5.89062 10.3359C 5.48438 9.98177 4.89844 9.79948 4.13281 9.78906L 3.04688 9.78906L 3.04688 8.60938ZM 17.0625 10.1484C 17.0625 11.8411 16.7734 13.099 16.1953 13.9219C 15.6172 14.7448 14.7135 15.1562 13.4844 15.1562C 12.2708 15.1562 11.3724 14.7552 10.7891 13.9531C 10.2057 13.1458 9.90365 11.9427 9.88281 10.3438L 9.88281 8.41406C 9.88281 6.74219 10.1719 5.5 10.75 4.6875C 11.3281 3.875 12.2344 3.46875 13.4688 3.46875C 14.6927 3.46875 15.5938 3.86198 16.1719 4.64844C 16.75 5.42969 17.0469 6.63802 17.0625 8.27344L 17.0625 10.1484ZM 15.6172 8.17188C 15.6172 6.94792 15.4453 6.05729 15.1016 5.5C 14.7578 4.9375 14.2135 4.65625 13.4688 4.65625C 12.7292 4.65625 12.1901 4.9349 11.8516 5.49219C 11.513 6.04948 11.3385 6.90625 11.3281 8.0625L 11.3281 10.375C 11.3281 11.6042 11.5052 12.513 11.8594 13.1016C 12.2188 13.6849 12.7604 13.9766 13.4844 13.9766C 14.1979 13.9766 14.7266 13.7005 15.0703 13.1484C 15.4193 12.5964 15.6016 11.7266 15.6172 10.5391L 15.6172 8.17188ZM 33.9766 10.7578L 30.1641 10.7578L 30.1641 9.57812L 33.9766 9.57812L 33.9766 10.7578ZM 39.9922 15L 38.5391 15L 38.5391 5.36719L 35.625 6.4375L 35.625 5.125L 39.7656 3.57031L 39.9922 3.57031L 39.9922 15ZM 63.2578 10.7578L 59.4453 10.7578L 59.4453 9.57812L 63.2578 9.57812L 63.2578 10.7578ZM 69.2734 15L 67.8203 15L 67.8203 5.36719L 64.9062 6.4375L 64.9062 5.125L 69.0469 3.57031L 69.2734 3.57031L 69.2734 15ZM 80.6406 10.1484C 80.6406 11.8411 80.3516 13.099 79.7734 13.9219C 79.1953 14.7448 78.2917 15.1562 77.0625 15.1562C 75.849 15.1562 74.9505 14.7552 74.3672 13.9531C 73.7839 13.1458 73.4818 11.9427 73.4609 10.3438L 73.4609 8.41406C 73.4609 6.74219 73.75 5.5 74.3281 4.6875C 74.9062 3.875 75.8125 3.46875 77.0469 3.46875C 78.2708 3.46875 79.1719 3.86198 79.75 4.64844C 80.3281 5.42969 80.625 6.63802 80.6406 8.27344L 80.6406 10.1484ZM 79.1953 8.17188C 79.1953 6.94792 79.0234 6.05729 78.6797 5.5C 78.3359 4.9375 77.7917 4.65625 77.0469 4.65625C 76.3073 4.65625 75.7682 4.9349 75.4297 5.49219C 75.0911 6.04948 74.9167 6.90625 74.9062 8.0625L 74.9062 10.375C 74.9062 11.6042 75.0833 12.513 75.4375 13.1016C 75.7969 13.6849 76.3385 13.9766 77.0625 13.9766C 77.776 13.9766 78.3047 13.7005 78.6484 13.1484C 78.9974 12.5964 79.1797 11.7266 79.1953 10.5391L 79.1953 8.17188ZM 89.625 10.1484C 89.625 11.8411 89.3359 13.099 88.7578 13.9219C 88.1797 14.7448 87.276 15.1562 86.0469 15.1562C 84.8333 15.1562 83.9349 14.7552 83.3516 13.9531C 82.7682 13.1458 82.4661 11.9427 82.4453 10.3438L 82.4453 8.41406C 82.4453 6.74219 82.7344 5.5 83.3125 4.6875C 83.8906 3.875 84.7969 3.46875 86.0312 3.46875C 87.2552 3.46875 88.1562 3.86198 88.7344 4.64844C 89.3125 5.42969 89.6094 6.63802 89.625 8.27344L 89.625 10.1484ZM 88.1797 8.17188C 88.1797 6.94792 88.0078 6.05729 87.6641 5.5C 87.3203 4.9375 86.776 4.65625 86.0312 4.65625C 85.2917 4.65625 84.7526 4.9349 84.4141 5.49219C 84.0755 6.04948 83.901 6.90625 83.8906 8.0625L 83.8906 10.375C 83.8906 11.6042 84.0677 12.513 84.4219 13.1016C 84.7812 13.6849 85.3229 13.9766 86.0469 13.9766C 86.7604 13.9766 87.2891 13.7005 87.6328 13.1484C 87.9818 12.5964 88.1641 11.7266 88.1797 10.5391L 88.1797 8.17188ZM 98.6094 10.1484C 98.6094 11.8411 98.3203 13.099 97.7422 13.9219C 97.1641 14.7448 96.2604 15.1562 95.0312 15.1562C 93.8177 15.1562 92.9193 14.7552 92.3359 13.9531C 91.7526 13.1458 91.4505 11.9427 91.4297 10.3438L 91.4297 8.41406C 91.4297 6.74219 91.7188 5.5 92.2969 4.6875C 92.875 3.875 93.7812 3.46875 95.0156 3.46875C 96.2396 3.46875 97.1406 3.86198 97.7188 4.64844C 98.2969 5.42969 98.5938 6.63802 98.6094 8.27344L 98.6094 10.1484ZM 97.1641 8.17188C 97.1641 6.94792 96.9922 6.05729 96.6484 5.5C 96.3047 4.9375 95.7604 4.65625 95.0156 4.65625C 94.276 4.65625 93.737 4.9349 93.3984 5.49219C 93.0599 6.04948 92.8854 6.90625 92.875 8.0625L 92.875 10.375C 92.875 11.6042 93.0521 12.513 93.4062 13.1016C 93.7656 13.6849 94.3073 13.9766 95.0312 13.9766C 95.7448 13.9766 96.2734 13.7005 96.6172 13.1484C 96.9661 12.5964 97.1484 11.7266 97.1641 10.5391L 97.1641 8.17188ZM 1.60938 28.2969L 2.1875 22.625L 8.01562 22.625L 8.01562 23.9609L 3.41406 23.9609L 3.07031 27.0625C 3.6276 26.7344 4.26042 26.5703 4.96875 26.5703C 6.00521 26.5703 6.82812 26.9141 7.4375 27.6016C 8.04688 28.2839 8.35156 29.2083 8.35156 30.375C 8.35156 31.5469 8.03385 32.4714 7.39844 33.1484C 6.76823 33.8203 5.88542 34.1562 4.75 34.1562C 3.74479 34.1562 2.92448 33.8776 2.28906 33.3203C 1.65365 32.763 1.29167 31.9922 1.20312 31.0078L 2.57031 31.0078C 2.65885 31.6589 2.89062 32.151 3.26562 32.4844C 3.64062 32.8125 4.13542 32.9766 4.75 32.9766C 5.42188 32.9766 5.94792 32.7474 6.32812 32.2891C 6.71354 31.8307 6.90625 31.1979 6.90625 30.3906C 6.90625 29.6302 6.69792 29.0208 6.28125 28.5625C 5.86979 28.099 5.32031 27.8672 4.63281 27.8672C 4.0026 27.8672 3.50781 28.0052 3.14844 28.2812L 2.76562 28.5938L 1.60938 28.2969ZM 17.0625 29.1484C 17.0625 30.8411 16.7734 32.099 16.1953 32.9219C 15.6172 33.7448 14.7135 34.1562 13.4844 34.1562C 12.2708 34.1562 11.3724 33.7552 10.7891 32.9531C 10.2057 32.1458 9.90365 30.9427 9.88281 29.3438L 9.88281 27.4141C 9.88281 25.7422 10.1719 24.5 10.75 23.6875C 11.3281 22.875 12.2344 22.4688 13.4688 22.4688C 14.6927 22.4688 15.5938 22.862 16.1719 23.6484C 16.75 24.4297 17.0469 25.638 17.0625 27.2734L 17.0625 29.1484ZM 15.6172 27.1719C 15.6172 25.9479 15.4453 25.0573 15.1016 24.5C 14.7578 23.9375 14.2135 23.6562 13.4688 23.6562C 12.7292 23.6562 12.1901 23.9349 11.8516 24.4922C 11.513 25.0495 11.3385 25.9062 11.3281 27.0625L 11.3281 29.375C 11.3281 30.6042 11.5052 31.513 11.8594 32.1016C 12.2188 32.6849 12.7604 32.9766 13.4844 32.9766C 14.1979 32.9766 14.7266 32.7005 15.0703 32.1484C 15.4193 31.5964 15.6016 30.7266 15.6172 29.5391L 15.6172 27.1719ZM 33.9766 29.7578L 30.1641 29.7578L 30.1641 28.5781L 33.9766 28.5781L 33.9766 29.7578ZM 39.9922 34L 38.5391 34L 38.5391 24.3672L 35.625 25.4375L 35.625 24.125L 39.7656 22.5703L 39.9922 22.5703L 39.9922 34ZM 63.2578 29.7578L 59.4453 29.7578L 59.4453 28.5781L 63.2578 28.5781L 63.2578 29.7578ZM 69.2734 34L 67.8203 34L 67.8203 24.3672L 64.9062 25.4375L 64.9062 24.125L 69.0469 22.5703L 69.2734 22.5703L 69.2734 34ZM 80.6406 29.1484C 80.6406 30.8411 80.3516 32.099 79.7734 32.9219C 79.1953 33.7448 78.2917 34.1562 77.0625 34.1562C 75.849 34.1562 74.9505 33.7552 74.3672 32.9531C 73.7839 32.1458 73.4818 30.9427 73.4609 29.3438L 73.4609 27.4141C 73.4609 25.7422 73.75 24.5 74.3281 23.6875C 74.9062 22.875 75.8125 22.4688 77.0469 22.4688C 78.2708 22.4688 79.1719 22.862 79.75 23.6484C 80.3281 24.4297 80.625 25.638 80.6406 27.2734L 80.6406 29.1484ZM 79.1953 27.1719C 79.1953 25.9479 79.0234 25.0573 78.6797 24.5C 78.3359 23.9375 77.7917 23.6562 77.0469 23.6562C 76.3073 23.6562 75.7682 23.9349 75.4297 24.4922C 75.0911 25.0495 74.9167 25.9062 74.9062 27.0625L 74.9062 29.375C 74.9062 30.6042 75.0833 31.513 75.4375 32.1016C 75.7969 32.6849 76.3385 32.9766 77.0625 32.9766C 77.776 32.9766 78.3047 32.7005 78.6484 32.1484C 78.9974 31.5964 79.1797 30.7266 79.1953 29.5391L 79.1953 27.1719ZM 89.625 29.1484C 89.625 30.8411 89.3359 32.099 88.7578 32.9219C 88.1797 33.7448 87.276 34.1562 86.0469 34.1562C 84.8333 34.1562 83.9349 33.7552 83.3516 32.9531C 82.7682 32.1458 82.4661 30.9427 82.4453 29.3438L 82.4453 27.4141C 82.4453 25.7422 82.7344 24.5 83.3125 23.6875C 83.8906 22.875 84.7969 22.4688 86.0312 22.4688C 87.2552 22.4688 88.1562 22.862 88.7344 23.6484C 89.3125 24.4297 89.6094 25.638 89.625 27.2734L 89.625 29.1484ZM 88.1797 27.1719C 88.1797 25.9479 88.0078 25.0573 87.6641 24.5C 87.3203 23.9375 86.776 23.6562 86.0312 23.6562C 85.2917 23.6562 84.7526 23.9349 84.4141 24.4922C 84.0755 25.0495 83.901 25.9062 83.8906 27.0625L 83.8906 29.375C 83.8906 30.6042 84.0677 31.513 84.4219 32.1016C 84.7812 32.6849 85.3229 32.9766 86.0469 32.9766C 86.7604 32.9766 87.2891 32.7005 87.6328 32.1484C 87.9818 31.5964 88.1641 30.7266 88.1797 29.5391L 88.1797 27.1719Z"/>
<path id="path2_stroke" d="M 0 -5.55112e-17L 49 -5.55112e-17L 49 -1L 0 -1L 0 -5.55112e-17Z"/>
<path id="path3_stroke" d="M 0 0L 6 0L 6 -1L 0 -1L 0 0Z"/>
<path id="path4_stroke" d="M 0 0L 48 0L 48 -1L 0 -1L 0 0Z"/>
<path id="path5_stroke" d="M 0 0L 43 0L 43 -1L 0 -1L 0 0Z"/>
<path id="path6_fill" d="M 3.43848 8.30371L 5.0791 5.60352L 6.55566 5.60352L 4.13574 9.26074L 6.63086 13L 5.16797 13L 3.45898 10.2314L 1.75 13L 0.280273 13L 2.77539 9.26074L 0.355469 5.60352L 1.81836 5.60352L 3.43848 8.30371ZM 31.1582 11.1475L 32.8809 5.60352L 34.2344 5.60352L 31.2607 14.1416C 30.8005 15.3721 30.069 15.9873 29.0664 15.9873L 28.8271 15.9668L 28.3555 15.8779L 28.3555 14.8525L 28.6973 14.8799C 29.1257 14.8799 29.4583 14.7933 29.6953 14.6201C 29.9368 14.4469 30.1351 14.1302 30.29 13.6699L 30.5703 12.918L 27.9316 5.60352L 29.3125 5.60352L 31.1582 11.1475Z"/>
<path id="path7_fill" d="M 5.69531 15L 4.24219 15L 4.24219 5.36719L 1.32812 6.4375L 1.32812 5.125L 5.46875 3.57031L 5.69531 3.57031L 5.69531 15ZM 36.9062 10.1484C 36.9062 11.8411 36.6172 13.099 36.0391 13.9219C 35.4609 14.7448 34.5573 15.1562 33.3281 15.1562C 32.1146 15.1562 31.2161 14.7552 30.6328 13.9531C 30.0495 13.1458 29.7474 11.9427 29.7266 10.3438L 29.7266 8.41406C 29.7266 6.74219 30.0156 5.5 30.5938 4.6875C 31.1719 3.875 32.0781 3.46875 33.3125 3.46875C 34.5365 3.46875 35.4375 3.86198 36.0156 4.64844C 36.5938 5.42969 36.8906 6.63802 36.9062 8.27344L 36.9062 10.1484ZM 35.4609 8.17188C 35.4609 6.94792 35.2891 6.05729 34.9453 5.5C 34.6016 4.9375 34.0573 4.65625 33.3125 4.65625C 32.5729 4.65625 32.0339 4.9349 31.6953 5.49219C 31.3568 6.04948 31.1823 6.90625 31.1719 8.0625L 31.1719 10.375C 31.1719 11.6042 31.349 12.513 31.7031 13.1016C 32.0625 13.6849 32.6042 13.9766 33.3281 13.9766C 34.0417 13.9766 34.5703 13.7005 34.9141 13.1484C 35.263 12.5964 35.4453 11.7266 35.4609 10.5391L 35.4609 8.17188ZM 80.5781 11.1797L 82.1562 11.1797L 82.1562 12.3594L 80.5781 12.3594L 80.5781 15L 79.125 15L 79.125 12.3594L 73.9453 12.3594L 73.9453 11.5078L 79.0391 3.625L 80.5781 3.625L 80.5781 11.1797ZM 75.5859 11.1797L 79.125 11.1797L 79.125 5.60156L 78.9531 5.91406L 75.5859 11.1797ZM 84.125 9.29688L 84.7031 3.625L 90.5312 3.625L 90.5312 4.96094L 85.9297 4.96094L 85.5859 8.0625C 86.1432 7.73438 86.776 7.57031 87.4844 7.57031C 88.5208 7.57031 89.3438 7.91406 89.9531 8.60156C 90.5625 9.28385 90.8672 10.2083 90.8672 11.375C 90.8672 12.5469 90.5495 13.4714 89.9141 14.1484C 89.2839 14.8203 88.401 15.1562 87.2656 15.1562C 86.2604 15.1562 85.4401 14.8776 84.8047 14.3203C 84.1693 13.763 83.8073 12.9922 83.7188 12.0078L 85.0859 12.0078C 85.1745 12.6589 85.4062 13.151 85.7812 13.4844C 86.1562 13.8125 86.651 13.9766 87.2656 13.9766C 87.9375 13.9766 88.4635 13.7474 88.8438 13.2891C 89.2292 12.8307 89.4219 12.1979 89.4219 11.3906C 89.4219 10.6302 89.2135 10.0208 88.7969 9.5625C 88.3854 9.09896 87.8359 8.86719 87.1484 8.86719C 86.5182 8.86719 86.0234 9.00521 85.6641 9.28125L 85.2812 9.59375L 84.125 9.29688ZM 8.07812 29.1484C 8.07812 30.8411 7.78906 32.099 7.21094 32.9219C 6.63281 33.7448 5.72917 34.1562 4.5 34.1562C 3.28646 34.1562 2.38802 33.7552 1.80469 32.9531C 1.22135 32.1458 0.919271 30.9427 0.898438 29.3438L 0.898438 27.4141C 0.898438 25.7422 1.1875 24.5 1.76562 23.6875C 2.34375 22.875 3.25 22.4688 4.48438 22.4688C 5.70833 22.4688 6.60938 22.862 7.1875 23.6484C 7.76562 24.4297 8.0625 25.638 8.07812 27.2734L 8.07812 29.1484ZM 6.63281 27.1719C 6.63281 25.9479 6.46094 25.0573 6.11719 24.5C 5.77344 23.9375 5.22917 23.6562 4.48438 23.6562C 3.74479 23.6562 3.20573 23.9349 2.86719 24.4922C 2.52865 25.0495 2.35417 25.9062 2.34375 27.0625L 2.34375 29.375C 2.34375 30.6042 2.52083 31.513 2.875 32.1016C 3.23438 32.6849 3.77604 32.9766 4.5 32.9766C 5.21354 32.9766 5.74219 32.7005 6.08594 32.1484C 6.4349 31.5964 6.61719 30.7266 6.63281 29.5391L 6.63281 27.1719ZM 34.5234 34L 33.0703 34L 33.0703 24.3672L 30.1562 25.4375L 30.1562 24.125L 34.2969 22.5703L 34.5234 22.5703L 34.5234 34ZM 66.0547 34L 58.6016 34L 58.6016 32.9609L 62.5391 28.5859C 63.1224 27.9245 63.5234 27.388 63.7422 26.9766C 63.9661 26.5599 64.0781 26.1302 64.0781 25.6875C 64.0781 25.0938 63.8984 24.6068 63.5391 24.2266C 63.1797 23.8464 62.7005 23.6562 62.1016 23.6562C 61.3828 23.6562 60.8229 23.862 60.4219 24.2734C 60.026 24.6797 59.8281 25.2474 59.8281 25.9766L 58.3828 25.9766C 58.3828 24.9297 58.7188 24.0833 59.3906 23.4375C 60.0677 22.7917 60.9714 22.4688 62.1016 22.4688C 63.1589 22.4688 63.9948 22.7474 64.6094 23.3047C 65.224 23.8568 65.5312 24.5938 65.5312 25.5156C 65.5312 26.6354 64.8177 27.9688 63.3906 29.5156L 60.3438 32.8203L 66.0547 32.8203L 66.0547 34ZM 69.6875 27.6094L 70.7734 27.6094C 71.4557 27.599 71.9922 27.4193 72.3828 27.0703C 72.7734 26.7214 72.9688 26.25 72.9688 25.6562C 72.9688 24.3229 72.3047 23.6562 70.9766 23.6562C 70.3516 23.6562 69.8516 23.8359 69.4766 24.1953C 69.1068 24.5495 68.9219 25.0208 68.9219 25.6094L 67.4766 25.6094C 67.4766 24.7083 67.8047 23.9609 68.4609 23.3672C 69.1224 22.7682 69.9609 22.4688 70.9766 22.4688C 72.0495 22.4688 72.8906 22.7526 73.5 23.3203C 74.1094 23.888 74.4141 24.6771 74.4141 25.6875C 74.4141 26.1823 74.2526 26.6615 73.9297 27.125C 73.612 27.5885 73.1771 27.9349 72.625 28.1641C 73.25 28.362 73.7318 28.6901 74.0703 29.1484C 74.4141 29.6068 74.5859 30.1667 74.5859 30.8281C 74.5859 31.849 74.2526 32.6589 73.5859 33.2578C 72.9193 33.8568 72.0521 34.1562 70.9844 34.1562C 69.9167 34.1562 69.0469 33.8672 68.375 33.2891C 67.7083 32.7109 67.375 31.9479 67.375 31L 68.8281 31C 68.8281 31.599 69.0234 32.0781 69.4141 32.4375C 69.8047 32.7969 70.3281 32.9766 70.9844 32.9766C 71.6823 32.9766 72.2161 32.7943 72.5859 32.4297C 72.9557 32.0651 73.1406 31.5417 73.1406 30.8594C 73.1406 30.1979 72.9375 29.6901 72.5312 29.3359C 72.125 28.9818 71.5391 28.7995 70.7734 28.7891L 69.6875 28.7891L 69.6875 27.6094ZM 77.2344 28.2969L 77.8125 22.625L 83.6406 22.625L 83.6406 23.9609L 79.0391 23.9609L 78.6953 27.0625C 79.2526 26.7344 79.8854 26.5703 80.5938 26.5703C 81.6302 26.5703 82.4531 26.9141 83.0625 27.6016C 83.6719 28.2839 83.9766 29.2083 83.9766 30.375C 83.9766 31.5469 83.6589 32.4714 83.0234 33.1484C 82.3932 33.8203 81.5104 34.1562 80.375 34.1562C 79.3698 34.1562 78.5495 33.8776 77.9141 33.3203C 77.2786 32.763 76.9167 31.9922 76.8281 31.0078L 78.1953 31.0078C 78.2839 31.6589 78.5156 32.151 78.8906 32.4844C 79.2656 32.8125 79.7604 32.9766 80.375 32.9766C 81.0469 32.9766 81.5729 32.7474 81.9531 32.2891C 82.3385 31.8307 82.5312 31.1979 82.5312 30.3906C 82.5312 29.6302 82.3229 29.0208 81.9062 28.5625C 81.4948 28.099 80.9453 27.8672 80.2578 27.8672C 79.6276 27.8672 79.1328 28.0052 78.7734 28.2812L 78.3906 28.5938L 77.2344 28.2969ZM 92.6875 29.1484C 92.6875 30.8411 92.3984 32.099 91.8203 32.9219C 91.2422 33.7448 90.3385 34.1562 89.1094 34.1562C 87.8958 34.1562 86.9974 33.7552 86.4141 32.9531C 85.8307 32.1458 85.5286 30.9427 85.5078 29.3438L 85.5078 27.4141C 85.5078 25.7422 85.7969 24.5 86.375 23.6875C 86.9531 22.875 87.8594 22.4688 89.0938 22.4688C 90.3177 22.4688 91.2188 22.862 91.7969 23.6484C 92.375 24.4297 92.6719 25.638 92.6875 27.2734L 92.6875 29.1484ZM 91.2422 27.1719C 91.2422 25.9479 91.0703 25.0573 90.7266 24.5C 90.3828 23.9375 89.8385 23.6562 89.0938 23.6562C 88.3542 23.6562 87.8151 23.9349 87.4766 24.4922C 87.138 25.0495 86.9635 25.9062 86.9531 27.0625L 86.9531 29.375C 86.9531 30.6042 87.1302 31.513 87.4844 32.1016C 87.8438 32.6849 88.3854 32.9766 89.1094 32.9766C 89.8229 32.9766 90.3516 32.7005 90.6953 32.1484C 91.0443 31.5964 91.2266 30.7266 91.2422 29.5391L 91.2422 27.1719Z"/>
<path id="path8_fill" d="M 3.43848 8.30371L 5.0791 5.60352L 6.55566 5.60352L 4.13574 9.26074L 6.63086 13L 5.16797 13L 3.45898 10.2314L 1.75 13L 0.280273 13L 2.77539 9.26074L 0.355469 5.60352L 1.81836 5.60352L 3.43848 8.30371ZM 31.1582 11.1475L 32.8809 5.60352L 34.2344 5.60352L 31.2607 14.1416C 30.8005 15.3721 30.069 15.9873 29.0664 15.9873L 28.8271 15.9668L 28.3555 15.8779L 28.3555 14.8525L 28.6973 14.8799C 29.1257 14.8799 29.4583 14.7933 29.6953 14.6201C 29.9368 14.4469 30.1351 14.1302 30.29 13.6699L 30.5703 12.918L 27.9316 5.60352L 29.3125 5.60352L 31.1582 11.1475Z"/>
<path id="path9_stroke" d="M 13.3536 0.353553C 13.5488 0.158291 13.5488 -0.158291 13.3536 -0.353553L 10.1716 -3.53553C 9.97631 -3.7308 9.65973 -3.7308 9.46447 -3.53553C 9.2692 -3.34027 9.2692 -3.02369 9.46447 -2.82843L 12.2929 0L 9.46447 2.82843C 9.2692 3.02369 9.2692 3.34027 9.46447 3.53553C 9.65973 3.7308 9.97631 3.7308 10.1716 3.53553L 13.3536 0.353553ZM 0 0.5L 13 0.5L 13 -0.5L 0 -0.5L 0 0.5Z"/>
<path id="path10_fill" d="M 5.69531 15L 4.24219 15L 4.24219 5.36719L 1.32812 6.4375L 1.32812 5.125L 5.46875 3.57031L 5.69531 3.57031L 5.69531 15ZM 12.9141 9.63281L 14.7891 6.54688L 16.4766 6.54688L 13.7109 10.7266L 16.5625 15L 14.8906 15L 12.9375 11.8359L 10.9844 15L 9.30469 15L 12.1562 10.7266L 9.39062 6.54688L 11.0625 6.54688L 12.9141 9.63281ZM 24.9922 10.7578L 21.1797 10.7578L 21.1797 9.57812L 24.9922 9.57812L 24.9922 10.7578ZM 37.3594 10.1484C 37.3594 11.8411 37.0703 13.099 36.4922 13.9219C 35.9141 14.7448 35.0104 15.1562 33.7812 15.1562C 32.5677 15.1562 31.6693 14.7552 31.0859 13.9531C 30.5026 13.1458 30.2005 11.9427 30.1797 10.3438L 30.1797 8.41406C 30.1797 6.74219 30.4688 5.5 31.0469 4.6875C 31.625 3.875 32.5312 3.46875 33.7656 3.46875C 34.9896 3.46875 35.8906 3.86198 36.4688 4.64844C 37.0469 5.42969 37.3438 6.63802 37.3594 8.27344L 37.3594 10.1484ZM 35.9141 8.17188C 35.9141 6.94792 35.7422 6.05729 35.3984 5.5C 35.0547 4.9375 34.5104 4.65625 33.7656 4.65625C 33.026 4.65625 32.487 4.9349 32.1484 5.49219C 31.8099 6.04948 31.6354 6.90625 31.625 8.0625L 31.625 10.375C 31.625 11.6042 31.8021 12.513 32.1562 13.1016C 32.5156 13.6849 33.0573 13.9766 33.7812 13.9766C 34.4948 13.9766 35.0234 13.7005 35.3672 13.1484C 35.7161 12.5964 35.8984 11.7266 35.9141 10.5391L 35.9141 8.17188ZM 42.125 12.8828L 44.0938 6.54688L 45.6406 6.54688L 42.2422 16.3047C 41.7161 17.7109 40.8802 18.4141 39.7344 18.4141L 39.4609 18.3906L 38.9219 18.2891L 38.9219 17.1172L 39.3125 17.1484C 39.8021 17.1484 40.1823 17.0495 40.4531 16.8516C 40.7292 16.6536 40.9557 16.2917 41.1328 15.7656L 41.4531 14.9062L 38.4375 6.54688L 40.0156 6.54688L 42.125 12.8828ZM 61.4844 8.64062L 54.9688 8.64062L 54.9688 7.38281L 61.4844 7.38281L 61.4844 8.64062ZM 61.4844 11.8828L 54.9688 11.8828L 54.9688 10.6328L 61.4844 10.6328L 61.4844 11.8828ZM 77.5469 11.1797L 79.125 11.1797L 79.125 12.3594L 77.5469 12.3594L 77.5469 15L 76.0938 15L 76.0938 12.3594L 70.9141 12.3594L 70.9141 11.5078L 76.0078 3.625L 77.5469 3.625L 77.5469 11.1797ZM 72.5547 11.1797L 76.0938 11.1797L 76.0938 5.60156L 75.9219 5.91406L 72.5547 11.1797ZM 81.0938 9.29688L 81.6719 3.625L 87.5 3.625L 87.5 4.96094L 82.8984 4.96094L 82.5547 8.0625C 83.112 7.73438 83.7448 7.57031 84.4531 7.57031C 85.4896 7.57031 86.3125 7.91406 86.9219 8.60156C 87.5312 9.28385 87.8359 10.2083 87.8359 11.375C 87.8359 12.5469 87.5182 13.4714 86.8828 14.1484C 86.2526 14.8203 85.3698 15.1562 84.2344 15.1562C 83.2292 15.1562 82.4089 14.8776 81.7734 14.3203C 81.138 13.763 80.776 12.9922 80.6875 12.0078L 82.0547 12.0078C 82.1432 12.6589 82.375 13.151 82.75 13.4844C 83.125 13.8125 83.6198 13.9766 84.2344 13.9766C 84.9062 13.9766 85.4323 13.7474 85.8125 13.2891C 86.1979 12.8307 86.3906 12.1979 86.3906 11.3906C 86.3906 10.6302 86.1823 10.0208 85.7656 9.5625C 85.3542 9.09896 84.8047 8.86719 84.1172 8.86719C 83.487 8.86719 82.9922 9.00521 82.6328 9.28125L 82.25 9.59375L 81.0938 9.29688ZM 8.07812 29.1484C 8.07812 30.8411 7.78906 32.099 7.21094 32.9219C 6.63281 33.7448 5.72917 34.1562 4.5 34.1562C 3.28646 34.1562 2.38802 33.7552 1.80469 32.9531C 1.22135 32.1458 0.919271 30.9427 0.898438 29.3438L 0.898438 27.4141C 0.898438 25.7422 1.1875 24.5 1.76562 23.6875C 2.34375 22.875 3.25 22.4688 4.48438 22.4688C 5.70833 22.4688 6.60938 22.862 7.1875 23.6484C 7.76562 24.4297 8.0625 25.638 8.07812 27.2734L 8.07812 29.1484ZM 6.63281 27.1719C 6.63281 25.9479 6.46094 25.0573 6.11719 24.5C 5.77344 23.9375 5.22917 23.6562 4.48438 23.6562C 3.74479 23.6562 3.20573 23.9349 2.86719 24.4922C 2.52865 25.0495 2.35417 25.9062 2.34375 27.0625L 2.34375 29.375C 2.34375 30.6042 2.52083 31.513 2.875 32.1016C 3.23438 32.6849 3.77604 32.9766 4.5 32.9766C 5.21354 32.9766 5.74219 32.7005 6.08594 32.1484C 6.4349 31.5964 6.61719 30.7266 6.63281 29.5391L 6.63281 27.1719ZM 12.9141 28.6328L 14.7891 25.5469L 16.4766 25.5469L 13.7109 29.7266L 16.5625 34L 14.8906 34L 12.9375 30.8359L 10.9844 34L 9.30469 34L 12.1562 29.7266L 9.39062 25.5469L 11.0625 25.5469L 12.9141 28.6328ZM 24.9922 29.7578L 21.1797 29.7578L 21.1797 28.5781L 24.9922 28.5781L 24.9922 29.7578ZM 34.9766 34L 33.5234 34L 33.5234 24.3672L 30.6094 25.4375L 30.6094 24.125L 34.75 22.5703L 34.9766 22.5703L 34.9766 34ZM 42.125 31.8828L 44.0938 25.5469L 45.6406 25.5469L 42.2422 35.3047C 41.7161 36.7109 40.8802 37.4141 39.7344 37.4141L 39.4609 37.3906L 38.9219 37.2891L 38.9219 36.1172L 39.3125 36.1484C 39.8021 36.1484 40.1823 36.0495 40.4531 35.8516C 40.7292 35.6536 40.9557 35.2917 41.1328 34.7656L 41.4531 33.9062L 38.4375 25.5469L 40.0156 25.5469L 42.125 31.8828ZM 61.4844 27.6406L 54.9688 27.6406L 54.9688 26.3828L 61.4844 26.3828L 61.4844 27.6406ZM 61.4844 30.8828L 54.9688 30.8828L 54.9688 29.6328L 61.4844 29.6328L 61.4844 30.8828ZM 78.8984 34L 71.4453 34L 71.4453 32.9609L 75.3828 28.5859C 75.9661 27.9245 76.3672 27.388 76.5859 26.9766C 76.8099 26.5599 76.9219 26.1302 76.9219 25.6875C 76.9219 25.0938 76.7422 24.6068 76.3828 24.2266C 76.0234 23.8464 75.5443 23.6562 74.9453 23.6562C 74.2266 23.6562 73.6667 23.862 73.2656 24.2734C 72.8698 24.6797 72.6719 25.2474 72.6719 25.9766L 71.2266 25.9766C 71.2266 24.9297 71.5625 24.0833 72.2344 23.4375C 72.9115 22.7917 73.8151 22.4688 74.9453 22.4688C 76.0026 22.4688 76.8385 22.7474 77.4531 23.3047C 78.0677 23.8568 78.375 24.5938 78.375 25.5156C 78.375 26.6354 77.6615 27.9688 76.2344 29.5156L 73.1875 32.8203L 78.8984 32.8203L 78.8984 34ZM 82.5312 27.6094L 83.6172 27.6094C 84.2995 27.599 84.8359 27.4193 85.2266 27.0703C 85.6172 26.7214 85.8125 26.25 85.8125 25.6562C 85.8125 24.3229 85.1484 23.6562 83.8203 23.6562C 83.1953 23.6562 82.6953 23.8359 82.3203 24.1953C 81.9505 24.5495 81.7656 25.0208 81.7656 25.6094L 80.3203 25.6094C 80.3203 24.7083 80.6484 23.9609 81.3047 23.3672C 81.9661 22.7682 82.8047 22.4688 83.8203 22.4688C 84.8932 22.4688 85.7344 22.7526 86.3438 23.3203C 86.9531 23.888 87.2578 24.6771 87.2578 25.6875C 87.2578 26.1823 87.0964 26.6615 86.7734 27.125C 86.4557 27.5885 86.0208 27.9349 85.4688 28.1641C 86.0938 28.362 86.5755 28.6901 86.9141 29.1484C 87.2578 29.6068 87.4297 30.1667 87.4297 30.8281C 87.4297 31.849 87.0964 32.6589 86.4297 33.2578C 85.763 33.8568 84.8958 34.1562 83.8281 34.1562C 82.7604 34.1562 81.8906 33.8672 81.2188 33.2891C 80.5521 32.7109 80.2188 31.9479 80.2188 31L 81.6719 31C 81.6719 31.599 81.8672 32.0781 82.2578 32.4375C 82.6484 32.7969 83.1719 32.9766 83.8281 32.9766C 84.526 32.9766 85.0599 32.7943 85.4297 32.4297C 85.7995 32.0651 85.9844 31.5417 85.9844 30.8594C 85.9844 30.1979 85.7812 29.6901 85.375 29.3359C 84.9688 28.9818 84.3828 28.7995 83.6172 28.7891L 82.5312 28.7891L 82.5312 27.6094ZM 90.0781 28.2969L 90.6562 22.625L 96.4844 22.625L 96.4844 23.9609L 91.8828 23.9609L 91.5391 27.0625C 92.0964 26.7344 92.7292 26.5703 93.4375 26.5703C 94.474 26.5703 95.2969 26.9141 95.9062 27.6016C 96.5156 28.2839 96.8203 29.2083 96.8203 30.375C 96.8203 31.5469 96.5026 32.4714 95.8672 33.1484C 95.237 33.8203 94.3542 34.1562 93.2188 34.1562C 92.2135 34.1562 91.3932 33.8776 90.7578 33.3203C 90.1224 32.763 89.7604 31.9922 89.6719 31.0078L 91.0391 31.0078C 91.1276 31.6589 91.3594 32.151 91.7344 32.4844C 92.1094 32.8125 92.6042 32.9766 93.2188 32.9766C 93.8906 32.9766 94.4167 32.7474 94.7969 32.2891C 95.1823 31.8307 95.375 31.1979 95.375 30.3906C 95.375 29.6302 95.1667 29.0208 94.75 28.5625C 94.3385 28.099 93.7891 27.8672 93.1016 27.8672C 92.4714 27.8672 91.9766 28.0052 91.6172 28.2812L 91.2344 28.5938L 90.0781 28.2969ZM 105.531 29.1484C 105.531 30.8411 105.242 32.099 104.664 32.9219C 104.086 33.7448 103.182 34.1562 101.953 34.1562C 100.74 34.1562 99.8411 33.7552 99.2578 32.9531C 98.6745 32.1458 98.3724 30.9427 98.3516 29.3438L 98.3516 27.4141C 98.3516 25.7422 98.6406 24.5 99.2188 23.6875C 99.7969 22.875 100.703 22.4688 101.938 22.4688C 103.161 22.4688 104.062 22.862 104.641 23.6484C 105.219 24.4297 105.516 25.638 105.531 27.2734L 105.531 29.1484ZM 104.086 27.1719C 104.086 25.9479 103.914 25.0573 103.57 24.5C 103.227 23.9375 102.682 23.6562 101.938 23.6562C 101.198 23.6562 100.659 23.9349 100.32 24.4922C 99.9818 25.0495 99.8073 25.9062 99.7969 27.0625L 99.7969 29.375C 99.7969 30.6042 99.974 31.513 100.328 32.1016C 100.688 32.6849 101.229 32.9766 101.953 32.9766C 102.667 32.9766 103.195 32.7005 103.539 32.1484C 103.888 31.5964 104.07 30.7266 104.086 29.5391L 104.086 27.1719Z"/>
<path id="path11_fill" d="M 3.92969 9.63281L 5.80469 6.54688L 7.49219 6.54688L 4.72656 10.7266L 7.57812 15L 5.90625 15L 3.95312 11.8359L 2 15L 0.320312 15L 3.17188 10.7266L 0.40625 6.54688L 2.07812 6.54688L 3.92969 9.63281ZM 19.6094 8.64062L 13.0938 8.64062L 13.0938 7.38281L 19.6094 7.38281L 19.6094 8.64062ZM 19.6094 11.8828L 13.0938 11.8828L 13.0938 10.6328L 19.6094 10.6328L 19.6094 11.8828ZM 31.7031 11.1797L 33.2812 11.1797L 33.2812 12.3594L 31.7031 12.3594L 31.7031 15L 30.25 15L 30.25 12.3594L 25.0703 12.3594L 25.0703 11.5078L 30.1641 3.625L 31.7031 3.625L 31.7031 11.1797ZM 26.7109 11.1797L 30.25 11.1797L 30.25 5.60156L 30.0781 5.91406L 26.7109 11.1797ZM 35.25 9.29688L 35.8281 3.625L 41.6562 3.625L 41.6562 4.96094L 37.0547 4.96094L 36.7109 8.0625C 37.2682 7.73438 37.901 7.57031 38.6094 7.57031C 39.6458 7.57031 40.4688 7.91406 41.0781 8.60156C 41.6875 9.28385 41.9922 10.2083 41.9922 11.375C 41.9922 12.5469 41.6745 13.4714 41.0391 14.1484C 40.4089 14.8203 39.526 15.1562 38.3906 15.1562C 37.3854 15.1562 36.5651 14.8776 35.9297 14.3203C 35.2943 13.763 34.9323 12.9922 34.8438 12.0078L 36.2109 12.0078C 36.2995 12.6589 36.5312 13.151 36.9062 13.4844C 37.2812 13.8125 37.776 13.9766 38.3906 13.9766C 39.0625 13.9766 39.5885 13.7474 39.9688 13.2891C 40.3542 12.8307 40.5469 12.1979 40.5469 11.3906C 40.5469 10.6302 40.3385 10.0208 39.9219 9.5625C 39.5104 9.09896 38.9609 8.86719 38.2734 8.86719C 37.6432 8.86719 37.1484 9.00521 36.7891 9.28125L 36.4062 9.59375L 35.25 9.29688ZM 3.85938 31.8828L 5.82812 25.5469L 7.375 25.5469L 3.97656 35.3047C 3.45052 36.7109 2.61458 37.4141 1.46875 37.4141L 1.19531 37.3906L 0.65625 37.2891L 0.65625 36.1172L 1.04688 36.1484C 1.53646 36.1484 1.91667 36.0495 2.1875 35.8516C 2.46354 35.6536 2.6901 35.2917 2.86719 34.7656L 3.1875 33.9062L 0.171875 25.5469L 1.75 25.5469L 3.85938 31.8828ZM 19.25 27.6406L 12.7344 27.6406L 12.7344 26.3828L 19.25 26.3828L 19.25 27.6406ZM 19.25 30.8828L 12.7344 30.8828L 12.7344 29.6328L 19.25 29.6328L 19.25 30.8828ZM 32.6953 34L 25.2422 34L 25.2422 32.9609L 29.1797 28.5859C 29.763 27.9245 30.1641 27.388 30.3828 26.9766C 30.6068 26.5599 30.7188 26.1302 30.7188 25.6875C 30.7188 25.0938 30.5391 24.6068 30.1797 24.2266C 29.8203 23.8464 29.3411 23.6562 28.7422 23.6562C 28.0234 23.6562 27.4635 23.862 27.0625 24.2734C 26.6667 24.6797 26.4688 25.2474 26.4688 25.9766L 25.0234 25.9766C 25.0234 24.9297 25.3594 24.0833 26.0312 23.4375C 26.7083 22.7917 27.612 22.4688 28.7422 22.4688C 29.7995 22.4688 30.6354 22.7474 31.25 23.3047C 31.8646 23.8568 32.1719 24.5938 32.1719 25.5156C 32.1719 26.6354 31.4583 27.9688 30.0312 29.5156L 26.9844 32.8203L 32.6953 32.8203L 32.6953 34ZM 36.3281 27.6094L 37.4141 27.6094C 38.0964 27.599 38.6328 27.4193 39.0234 27.0703C 39.4141 26.7214 39.6094 26.25 39.6094 25.6562C 39.6094 24.3229 38.9453 23.6562 37.6172 23.6562C 36.9922 23.6562 36.4922 23.8359 36.1172 24.1953C 35.7474 24.5495 35.5625 25.0208 35.5625 25.6094L 34.1172 25.6094C 34.1172 24.7083 34.4453 23.9609 35.1016 23.3672C 35.763 22.7682 36.6016 22.4688 37.6172 22.4688C 38.6901 22.4688 39.5312 22.7526 40.1406 23.3203C 40.75 23.888 41.0547 24.6771 41.0547 25.6875C 41.0547 26.1823 40.8932 26.6615 40.5703 27.125C 40.2526 27.5885 39.8177 27.9349 39.2656 28.1641C 39.8906 28.362 40.3724 28.6901 40.7109 29.1484C 41.0547 29.6068 41.2266 30.1667 41.2266 30.8281C 41.2266 31.849 40.8932 32.6589 40.2266 33.2578C 39.5599 33.8568 38.6927 34.1562 37.625 34.1562C 36.5573 34.1562 35.6875 33.8672 35.0156 33.2891C 34.349 32.7109 34.0156 31.9479 34.0156 31L 35.4688 31C 35.4688 31.599 35.6641 32.0781 36.0547 32.4375C 36.4453 32.7969 36.9688 32.9766 37.625 32.9766C 38.3229 32.9766 38.8568 32.7943 39.2266 32.4297C 39.5964 32.0651 39.7812 31.5417 39.7812 30.8594C 39.7812 30.1979 39.5781 29.6901 39.1719 29.3359C 38.7656 28.9818 38.1797 28.7995 37.4141 28.7891L 36.3281 28.7891L 36.3281 27.6094ZM 43.875 28.2969L 44.4531 22.625L 50.2812 22.625L 50.2812 23.9609L 45.6797 23.9609L 45.3359 27.0625C 45.8932 26.7344 46.526 26.5703 47.2344 26.5703C 48.2708 26.5703 49.0938 26.9141 49.7031 27.6016C 50.3125 28.2839 50.6172 29.2083 50.6172 30.375C 50.6172 31.5469 50.2995 32.4714 49.6641 33.1484C 49.0339 33.8203 48.151 34.1562 47.0156 34.1562C 46.0104 34.1562 45.1901 33.8776 44.5547 33.3203C 43.9193 32.763 43.5573 31.9922 43.4688 31.0078L 44.8359 31.0078C 44.9245 31.6589 45.1562 32.151 45.5312 32.4844C 45.9062 32.8125 46.401 32.9766 47.0156 32.9766C 47.6875 32.9766 48.2135 32.7474 48.5938 32.2891C 48.9792 31.8307 49.1719 31.1979 49.1719 30.3906C 49.1719 29.6302 48.9635 29.0208 48.5469 28.5625C 48.1354 28.099 47.5859 27.8672 46.8984 27.8672C 46.2682 27.8672 45.7734 28.0052 45.4141 28.2812L 45.0312 28.5938L 43.875 28.2969ZM 59.3281 29.1484C 59.3281 30.8411 59.0391 32.099 58.4609 32.9219C 57.8828 33.7448 56.9792 34.1562 55.75 34.1562C 54.5365 34.1562 53.638 33.7552 53.0547 32.9531C 52.4714 32.1458 52.1693 30.9427 52.1484 29.3438L 52.1484 27.4141C 52.1484 25.7422 52.4375 24.5 53.0156 23.6875C 53.5938 22.875 54.5 22.4688 55.7344 22.4688C 56.9583 22.4688 57.8594 22.862 58.4375 23.6484C 59.0156 24.4297 59.3125 25.638 59.3281 27.2734L 59.3281 29.1484ZM 57.8828 27.1719C 57.8828 25.9479 57.7109 25.0573 57.3672 24.5C 57.0234 23.9375 56.4792 23.6562 55.7344 23.6562C 54.9948 23.6562 54.4557 23.9349 54.1172 24.4922C 53.7786 25.0495 53.6042 25.9062 53.5938 27.0625L 53.5938 29.375C 53.5938 30.6042 53.7708 31.513 54.125 32.1016C 54.4844 32.6849 55.026 32.9766 55.75 32.9766C 56.4635 32.9766 56.9922 32.7005 57.3359 32.1484C 57.6849 31.5964 57.8672 30.7266 57.8828 29.5391L 57.8828 27.1719Z"/>
</defs>
</svg>

