<?xml version="1.0" encoding="UTF-8" standalone="no"?>
<!-- Copyright 2017 mathsisfun.com -->
<svg xmlns="http://www.w3.org/2000/svg" width="382.8" height="95.4" version="1.1" style="font-family:'Comic Sans MS'; font-size:15.5px; fill:#fd3301; stroke-width:1.1;">
<path style="color:black; overflow:visible; fill:#0169c9; stroke:#636466; stroke-width:0.1; stroke-linejoin:round;" d="m 375.7,2.6 c 2.2,0.4 5.5,-0.9 6.9,0.9 0,21.3 0,42.5 0,63.8 -1.9,1.5 -5,0.3 -7.4,0.7 -1.3,-0.2 -1,-2.7 0.7,-1.9 1.6,0 3.7,0 4.9,0 -0.9,1.2 -0.1,-2.5 -0.4,-3.2 0,-19.7 0,-39.4 0,-59.1 1.9,0.8 -1.6,0.2 -2.4,0.4 -2.1,0.3 -2.9,-0.2 -2.3,-1.6 z"/>
<path style="color:black; overflow:visible; fill:#0169c9; stroke:#636466; stroke-width:0.1; stroke-linejoin:round;" d="m 279.9,2.6 c -2.2,0.4 -5.5,-0.9 -6.9,0.9 0,21.3 0,42.5 0,63.8 1.9,1.5 5,0.3 7.4,0.7 1.3,-0.2 1,-2.7 -0.7,-1.9 -1.6,0 -3.7,0 -4.9,0 0.9,1.2 0.1,-2.5 0.4,-3.2 0,-19.7 0,-39.4 0,-59.1 -1.9,0.8 1.6,0.2 2.4,0.4 2.1,0.3 2.9,-0.2 2.3,-1.6 z"/>
<g transform="matrix(0.573446,0,0,0.573446,-1500.96,-733.704)">
	<text x="2658.8" y="1339.7" style="font-weight:bold; font-size:36px; color:black; overflow:visible; fill:#d76cff;">1</text>
	<text x="2615.3" y="1359" style="font-weight:bold; font-size:48px; color:black; overflow:visible; fill:#d76cff;">A</text>
	<text x="2642.4" y="1336.8" style="font-weight:bold; font-size:36px; color:black; overflow:visible; fill:#d76cff;">-</text>
</g>
<text x="322.1" y="17.7" style="font-weight:900; color:black; overflow:visible;">0.2</text>
<text x="284.8" y="17.7" style="font-weight:900; color:black; overflow:visible;">0.2</text>
<text x="284.7" y="63.8" style="font-weight:900; color:black; overflow:visible;">0.2</text>
<text x="323.6" y="40.7" style="font-weight:900; color:black; overflow:visible;">0.3</text>
<text x="275.2" y="40.7" style="font-weight:900; color:black; overflow:visible;">-0.2</text>
<text x="314.3" y="63.8" style="font-weight:900; color:black; overflow:visible;">-0.3</text>
<text x="360.4" y="17.7" style="font-weight:900; color:black; overflow:visible;">0</text>
<text x="360.5" y="40.7" style="font-weight:900; color:black; overflow:visible;">1</text>
<text x="361.8" y="63.8" style="font-weight:900; color:black; overflow:visible;">0</text>
<path style="color:black; overflow:visible; fill:#0169c9; stroke:#636466; stroke-width:0.1; stroke-linejoin:round;" d="m 223.6,2.8 c 2.2,0.4 5.5,-0.9 6.9,0.9 0,21.3 0,42.5 0,63.8 -1.9,1.5 -5,0.3 -7.4,0.7 -1.3,-0.2 -1,-2.7 0.7,-1.9 1.6,0 3.7,0 4.9,0 -0.9,1.2 -0.1,-2.5 -0.4,-3.2 0,-19.7 0,-39.4 0,-59.1 1.9,0.8 -1.6,0.2 -2.4,0.4 -2.1,0.3 -2.9,-0.2 -2.3,-1.6 z"/>
<text x="122.1" y="41" style="font-weight:900; color:black; overflow:visible;">-2</text>
<text x="131.6" y="18.2" style="font-weight:900; color:black; overflow:visible;">2</text>
<text x="170.9" y="18.2" style="font-weight:900; color:black; overflow:visible;">2</text>
<text x="199.6" y="41" style="font-weight:900; color:black; overflow:visible;">10</text>
<text x="209.1" y="18.2" style="font-weight:900; color:black; overflow:visible;">0</text>
<text x="171" y="41" style="font-weight:900; color:black; overflow:visible;">3</text>
<path style="color:black; overflow:visible; fill:#0169c9; stroke:#636466; stroke-width:0.1; stroke-linejoin:round;" d="m 119.7,0.3 c -2.2,0.4 -5.5,-0.9 -6.9,0.9 0,21.3 0,42.5 0,63.8 1.9,1.5 5,0.3 7.4,0.7 1.3,-0.2 1,-2.7 -0.7,-1.9 -1.6,0 -3.7,0 -4.9,0 0.9,1.2 0.1,-2.5 0.4,-3.2 0,-19.7 0,-39.4 0,-59.1 -1.9,0.8 1.6,0.2 2.4,0.4 2.1,0.3 2.9,-0.2 2.3,-1.6 z"/>
<text x="131.6" y="63.6" style="font-weight:900; color:black; overflow:visible;">2</text>
<text x="209.1" y="63.6" style="font-weight:900; color:black; overflow:visible;">0</text>
<text x="161.5" y="63.6" style="font-weight:900; color:black; overflow:visible;">-3</text>
<text x="83.1" y="47" style="font-weight:900; color:black; overflow:visible; fill:#666666;">10</text>
<text x="89.1" y="29.4" style="font-weight:900; color:black; overflow:visible; fill:#666666;">1</text>
<path style="fill:#ff9900; stroke:#666666; stroke-width:1.56; stroke-linecap:round;" d="m 82.8,32.3 h 19.8"/>
<text x="132.3" y="89.8" style="font-size:19.3px; font-style:italic; color:black; overflow:visible; fill:#005c94; stroke-width:1px;">Adjugate</text>
<text x="294.5" y="89.8" style="font-size:19.3px; font-style:italic; color:black; overflow:visible; fill:#005c94; stroke-width:1px;">Inverse</text>
<text x="241.5" y="46.3" style="font-weight:bold; font-size:32.8px; color:black; overflow:visible; fill:#d76cff;">=</text>
<text x="45.5" y="46.3" style="font-weight:bold; font-size:32.8px; color:black; overflow:visible; fill:#d76cff;">=</text>
</svg>