<svg width="1264" height="288" viewBox="0 0 1264 288" version="1.1" xmlns="http://www.w3.org/2000/svg" xmlns:xlink="http://www.w3.org/1999/xlink">
<title>Group.svg</title>
<desc>Created using Figma</desc>
<g id="Canvas" transform="translate(-514 -2831)">
<g id="Group">
<g id="1">
<g id="figure 1">
<g id="patch 1">
<g id="Vector">
<use xlink:href="#path0_fill" transform="translate(514 2831)" fill="#FFFFFF"/>
</g>
</g>
<g id="axes 1">
<g id="patch 2">
<g id="Vector">
<use xlink:href="#path1_fill" transform="translate(568 2865.56)" fill="#FFFFFF"/>
</g>
</g>
<g id="matplotlib.axis 1">
<g id="xtick 1">
<g id="line2d 1">
<g id="Group">
<g id="Vector">
<use xlink:href="#path2_fill" transform="translate(583.218 3083)"/>
<use xlink:href="#path3_stroke" transform="translate(583.218 3083)"/>
</g>
</g>
</g>
<g id="text 1">
<g id="Group">
<g id="Vector">
<use xlink:href="#path4_fill" transform="matrix(0.1 0 0 -0.1 568.955 3094.88)"/>
</g>
<g id="Vector">
<use xlink:href="#path5_fill" transform="matrix(0.1 0 0 -0.1 577.373 3097.6)"/>
</g>
<g id="Vector">
<use xlink:href="#path6_fill" transform="matrix(0.1 0 0 -0.1 583.296 3097.74)"/>
</g>
<g id="Vector">
<use xlink:href="#path7_fill" transform="matrix(0.1 0 0 -0.1 590.068 3097.6)"/>
</g>
<g id="Vector">
<use xlink:href="#path6_fill" transform="matrix(0.1 0 0 -0.1 592.837 3097.74)"/>
</g>
</g>
</g>
</g>
<g id="xtick 2">
<g id="line2d 2">
<g id="Group">
<g id="Vector">
<use xlink:href="#path2_fill" transform="translate(621.264 3083)"/>
<use xlink:href="#path3_stroke" transform="translate(621.264 3083)"/>
</g>
</g>
</g>
<g id="text 2">
<g id="Group">
<g id="Vector">
<use xlink:href="#path4_fill" transform="matrix(0.1 0 0 -0.1 610.182 3094.88)"/>
</g>
<g id="Vector">
<use xlink:href="#path8_fill" transform="matrix(0.1 0 0 -0.1 618.321 3097.6)"/>
</g>
<g id="Vector">
<use xlink:href="#path7_fill" transform="matrix(0.1 0 0 -0.1 624.932 3097.6)"/>
</g>
<g id="Vector">
<use xlink:href="#path9_fill" transform="matrix(0.1 0 0 -0.1 627.814 3097.74)"/>
</g>
</g>
</g>
</g>
<g id="xtick 3">
<g id="line2d 3">
<g id="Group">
<g id="Vector">
<use xlink:href="#path2_fill" transform="translate(659.309 3083)"/>
<use xlink:href="#path3_stroke" transform="translate(659.309 3083)"/>
</g>
</g>
</g>
<g id="text 3">
<g id="Group">
<g id="Vector">
<use xlink:href="#path4_fill" transform="matrix(0.1 0 0 -0.1 648.227 3094.88)"/>
</g>
<g id="Vector">
<use xlink:href="#path9_fill" transform="matrix(0.1 0 0 -0.1 656.319 3097.74)"/>
</g>
<g id="Vector">
<use xlink:href="#path7_fill" transform="matrix(0.1 0 0 -0.1 662.978 3097.6)"/>
</g>
<g id="Vector">
<use xlink:href="#path6_fill" transform="matrix(0.1 0 0 -0.1 665.747 3097.74)"/>
</g>
</g>
</g>
</g>
<g id="xtick 4">
<g id="line2d 4">
<g id="Group">
<g id="Vector">
<use xlink:href="#path2_fill" transform="translate(697.355 3083)"/>
<use xlink:href="#path3_stroke" transform="translate(697.355 3083)"/>
</g>
</g>
</g>
<g id="text 4">
<g id="Group">
<g id="Vector">
<use xlink:href="#path4_fill" transform="matrix(0.1 0 0 -0.1 686.273 3094.88)"/>
</g>
<g id="Vector">
<use xlink:href="#path10_fill" transform="matrix(0.1 0 0 -0.1 694.325 3097.6)"/>
</g>
<g id="Vector">
<use xlink:href="#path7_fill" transform="matrix(0.1 0 0 -0.1 701.023 3097.6)"/>
</g>
<g id="Vector">
<use xlink:href="#path9_fill" transform="matrix(0.1 0 0 -0.1 703.905 3097.74)"/>
</g>
</g>
</g>
</g>
<g id="xtick 5">
<g id="line2d 5">
<g id="Group">
<g id="Vector">
<use xlink:href="#path2_fill" transform="translate(735.4 3083)"/>
<use xlink:href="#path3_stroke" transform="translate(735.4 3083)"/>
</g>
</g>
</g>
<g id="text 5">
<g id="Group">
<g id="Vector">
<use xlink:href="#path6_fill" transform="matrix(0.1 0 0 -0.1 728.108 3097.74)"/>
</g>
<g id="Vector">
<use xlink:href="#path7_fill" transform="matrix(0.1 0 0 -0.1 734.88 3097.6)"/>
</g>
<g id="Vector">
<use xlink:href="#path6_fill" transform="matrix(0.1 0 0 -0.1 737.649 3097.74)"/>
</g>
</g>
</g>
</g>
<g id="xtick 6">
<g id="line2d 6">
<g id="Group">
<g id="Vector">
<use xlink:href="#path2_fill" transform="translate(773.446 3083)"/>
<use xlink:href="#path3_stroke" transform="translate(773.446 3083)"/>
</g>
</g>
</g>
<g id="text 6">
<g id="Group">
<g id="Vector">
<use xlink:href="#path10_fill" transform="matrix(0.1 0 0 -0.1 766.227 3097.6)"/>
</g>
<g id="Vector">
<use xlink:href="#path7_fill" transform="matrix(0.1 0 0 -0.1 772.925 3097.6)"/>
</g>
<g id="Vector">
<use xlink:href="#path9_fill" transform="matrix(0.1 0 0 -0.1 775.807 3097.74)"/>
</g>
</g>
</g>
</g>
<g id="xtick 7">
<g id="line2d 7">
<g id="Group">
<g id="Vector">
<use xlink:href="#path2_fill" transform="translate(811.491 3083)"/>
<use xlink:href="#path3_stroke" transform="translate(811.491 3083)"/>
</g>
</g>
</g>
<g id="text 7">
<g id="Group">
<g id="Vector">
<use xlink:href="#path9_fill" transform="matrix(0.1 0 0 -0.1 804.311 3097.74)"/>
</g>
<g id="Vector">
<use xlink:href="#path7_fill" transform="matrix(0.1 0 0 -0.1 810.97 3097.6)"/>
</g>
<g id="Vector">
<use xlink:href="#path6_fill" transform="matrix(0.1 0 0 -0.1 813.74 3097.74)"/>
</g>
</g>
</g>
</g>
<g id="xtick 8">
<g id="line2d 8">
<g id="Group">
<g id="Vector">
<use xlink:href="#path2_fill" transform="translate(849.536 3083)"/>
<use xlink:href="#path3_stroke" transform="translate(849.536 3083)"/>
</g>
</g>
</g>
<g id="text 8">
<g id="Group">
<g id="Vector">
<use xlink:href="#path8_fill" transform="matrix(0.1 0 0 -0.1 842.405 3097.6)"/>
</g>
<g id="Vector">
<use xlink:href="#path7_fill" transform="matrix(0.1 0 0 -0.1 849.016 3097.6)"/>
</g>
<g id="Vector">
<use xlink:href="#path9_fill" transform="matrix(0.1 0 0 -0.1 851.898 3097.74)"/>
</g>
</g>
</g>
</g>
<g id="xtick 9">
<g id="line2d 9">
<g id="Group">
<g id="Vector">
<use xlink:href="#path2_fill" transform="translate(887.582 3083)"/>
<use xlink:href="#path3_stroke" transform="translate(887.582 3083)"/>
</g>
</g>
</g>
<g id="text 9">
<g id="Group">
<g id="Vector">
<use xlink:href="#path5_fill" transform="matrix(0.1 0 0 -0.1 877.547 3097.6)"/>
</g>
<g id="Vector">
<use xlink:href="#path6_fill" transform="matrix(0.1 0 0 -0.1 883.471 3097.74)"/>
</g>
<g id="Vector">
<use xlink:href="#path7_fill" transform="matrix(0.1 0 0 -0.1 890.242 3097.6)"/>
</g>
<g id="Vector">
<use xlink:href="#path6_fill" transform="matrix(0.1 0 0 -0.1 893.012 3097.74)"/>
</g>
</g>
</g>
</g>
</g>
<g id="matplotlib.axis 2">
<g id="ytick 1">
<g id="line2d 10">
<g id="Group">
<g id="Vector">
<use xlink:href="#path11_fill" transform="translate(564.5 3079.11)"/>
<use xlink:href="#path12_stroke" transform="translate(564.5 3079.11)"/>
</g>
</g>
</g>
<g id="text 10">
<g id="Group">
<g id="Vector">
<use xlink:href="#path4_fill" transform="matrix(0.1 0 0 -0.1 540.955 3080.19)"/>
</g>
<g id="Vector">
<use xlink:href="#path10_fill" transform="matrix(0.1 0 0 -0.1 549.007 3082.91)"/>
</g>
<g id="Vector">
<use xlink:href="#path6_fill" transform="matrix(0.1 0 0 -0.1 555.296 3083.05)"/>
</g>
</g>
</g>
</g>
<g id="ytick 2">
<g id="line2d 11">
<g id="Group">
<g id="Vector">
<use xlink:href="#path11_fill" transform="translate(564.5 3031.19)"/>
<use xlink:href="#path12_stroke" transform="translate(564.5 3031.19)"/>
</g>
</g>
</g>
<g id="text 11">
<g id="Group">
<g id="Vector">
<use xlink:href="#path4_fill" transform="matrix(0.1 0 0 -0.1 540.955 3032.26)"/>
</g>
<g id="Vector">
<use xlink:href="#path5_fill" transform="matrix(0.1 0 0 -0.1 549.373 3034.99)"/>
</g>
<g id="Vector">
<use xlink:href="#path6_fill" transform="matrix(0.1 0 0 -0.1 555.296 3035.13)"/>
</g>
</g>
</g>
</g>
<g id="ytick 3">
<g id="line2d 12">
<g id="Group">
<g id="Vector">
<use xlink:href="#path11_fill" transform="translate(564.5 2983.27)"/>
<use xlink:href="#path12_stroke" transform="translate(564.5 2983.27)"/>
</g>
</g>
</g>
<g id="text 12">
<g id="Group">
<g id="Vector">
<use xlink:href="#path6_fill" transform="matrix(0.1 0 0 -0.1 555.297 2987.21)"/>
</g>
</g>
</g>
</g>
<g id="ytick 4">
<g id="line2d 13">
<g id="Group">
<g id="Vector">
<use xlink:href="#path11_fill" transform="translate(564.5 2935.34)"/>
<use xlink:href="#path12_stroke" transform="translate(564.5 2935.34)"/>
</g>
</g>
</g>
<g id="text 13">
<g id="Group">
<g id="Vector">
<use xlink:href="#path5_fill" transform="matrix(0.1 0 0 -0.1 549.373 2939.14)"/>
</g>
<g id="Vector">
<use xlink:href="#path6_fill" transform="matrix(0.1 0 0 -0.1 555.297 2939.29)"/>
</g>
</g>
</g>
</g>
<g id="ytick 5">
<g id="line2d 14">
<g id="Group">
<g id="Vector">
<use xlink:href="#path11_fill" transform="translate(564.5 2887.42)"/>
<use xlink:href="#path12_stroke" transform="translate(564.5 2887.42)"/>
</g>
</g>
</g>
<g id="text 14">
<g id="Group">
<g id="Vector">
<use xlink:href="#path10_fill" transform="matrix(0.1 0 0 -0.1 549.008 2891.22)"/>
</g>
<g id="Vector">
<use xlink:href="#path6_fill" transform="matrix(0.1 0 0 -0.1 555.297 2891.37)"/>
</g>
</g>
</g>
</g>
</g>
<g id="line2d 15">
<g id="Vector">
<use xlink:href="#path13_stroke" transform="translate(583.218 2881.43)" fill="#0000FF"/>
</g>
</g>
<g id="line2d 16">
<g id="Vector">
<use xlink:href="#path14_stroke" transform="translate(583.218 2875.44)" fill="#0000FF"/>
</g>
</g>
<g id="patch 3">
<g id="Vector">
<use xlink:href="#path15_stroke" transform="translate(568 2865.56)"/>
</g>
</g>
<g id="patch 4">
<g id="Vector">
<use xlink:href="#path16_stroke" transform="translate(902.8 2865.56)"/>
</g>
</g>
<g id="patch 5">
<g id="Vector">
<use xlink:href="#path17_stroke" transform="translate(568 3083)"/>
</g>
</g>
<g id="patch 6">
<g id="Vector">
<use xlink:href="#path18_stroke" transform="translate(568 2865.56)"/>
</g>
</g>
</g>
</g>
</g>
<g id="2 4">
<g id="figure 1">
<g id="patch 1">
<g id="Vector">
<use xlink:href="#path0_fill" transform="translate(928 2831)" fill="#FFFFFF"/>
</g>
</g>
<g id="axes 1">
<g id="patch 2">
<g id="Vector">
<use xlink:href="#path1_fill" transform="translate(982 2865.56)" fill="#FFFFFF"/>
</g>
</g>
<g id="matplotlib.axis 1">
<g id="xtick 1">
<g id="line2d 1">
<g id="Group">
<g id="Vector">
<use xlink:href="#path2_fill" transform="translate(997.218 3083)"/>
<use xlink:href="#path3_stroke" transform="translate(997.218 3083)"/>
</g>
</g>
</g>
<g id="text 1">
<g id="Group">
<g id="Vector">
<use xlink:href="#path4_fill" transform="matrix(0.1 0 0 -0.1 982.955 3094.88)"/>
</g>
<g id="Vector">
<use xlink:href="#path5_fill" transform="matrix(0.1 0 0 -0.1 991.373 3097.6)"/>
</g>
<g id="Vector">
<use xlink:href="#path6_fill" transform="matrix(0.1 0 0 -0.1 997.296 3097.74)"/>
</g>
<g id="Vector">
<use xlink:href="#path7_fill" transform="matrix(0.1 0 0 -0.1 1004.07 3097.6)"/>
</g>
<g id="Vector">
<use xlink:href="#path6_fill" transform="matrix(0.1 0 0 -0.1 1006.84 3097.74)"/>
</g>
</g>
</g>
</g>
<g id="xtick 2">
<g id="line2d 2">
<g id="Group">
<g id="Vector">
<use xlink:href="#path2_fill" transform="translate(1035.26 3083)"/>
<use xlink:href="#path3_stroke" transform="translate(1035.26 3083)"/>
</g>
</g>
</g>
<g id="text 2">
<g id="Group">
<g id="Vector">
<use xlink:href="#path4_fill" transform="matrix(0.1 0 0 -0.1 1024.18 3094.88)"/>
</g>
<g id="Vector">
<use xlink:href="#path8_fill" transform="matrix(0.1 0 0 -0.1 1032.32 3097.6)"/>
</g>
<g id="Vector">
<use xlink:href="#path7_fill" transform="matrix(0.1 0 0 -0.1 1038.93 3097.6)"/>
</g>
<g id="Vector">
<use xlink:href="#path9_fill" transform="matrix(0.1 0 0 -0.1 1041.81 3097.74)"/>
</g>
</g>
</g>
</g>
<g id="xtick 3">
<g id="line2d 3">
<g id="Group">
<g id="Vector">
<use xlink:href="#path2_fill" transform="translate(1073.31 3083)"/>
<use xlink:href="#path3_stroke" transform="translate(1073.31 3083)"/>
</g>
</g>
</g>
<g id="text 3">
<g id="Group">
<g id="Vector">
<use xlink:href="#path4_fill" transform="matrix(0.1 0 0 -0.1 1062.23 3094.88)"/>
</g>
<g id="Vector">
<use xlink:href="#path9_fill" transform="matrix(0.1 0 0 -0.1 1070.32 3097.74)"/>
</g>
<g id="Vector">
<use xlink:href="#path7_fill" transform="matrix(0.1 0 0 -0.1 1076.98 3097.6)"/>
</g>
<g id="Vector">
<use xlink:href="#path6_fill" transform="matrix(0.1 0 0 -0.1 1079.75 3097.74)"/>
</g>
</g>
</g>
</g>
<g id="xtick 4">
<g id="line2d 4">
<g id="Group">
<g id="Vector">
<use xlink:href="#path2_fill" transform="translate(1111.35 3083)"/>
<use xlink:href="#path3_stroke" transform="translate(1111.35 3083)"/>
</g>
</g>
</g>
<g id="text 4">
<g id="Group">
<g id="Vector">
<use xlink:href="#path4_fill" transform="matrix(0.1 0 0 -0.1 1100.27 3094.88)"/>
</g>
<g id="Vector">
<use xlink:href="#path10_fill" transform="matrix(0.1 0 0 -0.1 1108.32 3097.6)"/>
</g>
<g id="Vector">
<use xlink:href="#path7_fill" transform="matrix(0.1 0 0 -0.1 1115.02 3097.6)"/>
</g>
<g id="Vector">
<use xlink:href="#path9_fill" transform="matrix(0.1 0 0 -0.1 1117.91 3097.74)"/>
</g>
</g>
</g>
</g>
<g id="xtick 5">
<g id="line2d 5">
<g id="Group">
<g id="Vector">
<use xlink:href="#path2_fill" transform="translate(1149.4 3083)"/>
<use xlink:href="#path3_stroke" transform="translate(1149.4 3083)"/>
</g>
</g>
</g>
<g id="text 5">
<g id="Group">
<g id="Vector">
<use xlink:href="#path6_fill" transform="matrix(0.1 0 0 -0.1 1142.11 3097.74)"/>
</g>
<g id="Vector">
<use xlink:href="#path7_fill" transform="matrix(0.1 0 0 -0.1 1148.88 3097.6)"/>
</g>
<g id="Vector">
<use xlink:href="#path6_fill" transform="matrix(0.1 0 0 -0.1 1151.65 3097.74)"/>
</g>
</g>
</g>
</g>
<g id="xtick 6">
<g id="line2d 6">
<g id="Group">
<g id="Vector">
<use xlink:href="#path2_fill" transform="translate(1187.45 3083)"/>
<use xlink:href="#path3_stroke" transform="translate(1187.45 3083)"/>
</g>
</g>
</g>
<g id="text 6">
<g id="Group">
<g id="Vector">
<use xlink:href="#path10_fill" transform="matrix(0.1 0 0 -0.1 1180.23 3097.6)"/>
</g>
<g id="Vector">
<use xlink:href="#path7_fill" transform="matrix(0.1 0 0 -0.1 1186.93 3097.6)"/>
</g>
<g id="Vector">
<use xlink:href="#path9_fill" transform="matrix(0.1 0 0 -0.1 1189.81 3097.74)"/>
</g>
</g>
</g>
</g>
<g id="xtick 7">
<g id="line2d 7">
<g id="Group">
<g id="Vector">
<use xlink:href="#path2_fill" transform="translate(1225.49 3083)"/>
<use xlink:href="#path3_stroke" transform="translate(1225.49 3083)"/>
</g>
</g>
</g>
<g id="text 7">
<g id="Group">
<g id="Vector">
<use xlink:href="#path9_fill" transform="matrix(0.1 0 0 -0.1 1218.31 3097.74)"/>
</g>
<g id="Vector">
<use xlink:href="#path7_fill" transform="matrix(0.1 0 0 -0.1 1224.97 3097.6)"/>
</g>
<g id="Vector">
<use xlink:href="#path6_fill" transform="matrix(0.1 0 0 -0.1 1227.74 3097.74)"/>
</g>
</g>
</g>
</g>
<g id="xtick 8">
<g id="line2d 8">
<g id="Group">
<g id="Vector">
<use xlink:href="#path2_fill" transform="translate(1263.54 3083)"/>
<use xlink:href="#path3_stroke" transform="translate(1263.54 3083)"/>
</g>
</g>
</g>
<g id="text 8">
<g id="Group">
<g id="Vector">
<use xlink:href="#path8_fill" transform="matrix(0.1 0 0 -0.1 1256.41 3097.6)"/>
</g>
<g id="Vector">
<use xlink:href="#path7_fill" transform="matrix(0.1 0 0 -0.1 1263.02 3097.6)"/>
</g>
<g id="Vector">
<use xlink:href="#path9_fill" transform="matrix(0.1 0 0 -0.1 1265.9 3097.74)"/>
</g>
</g>
</g>
</g>
<g id="xtick 9">
<g id="line2d 9">
<g id="Group">
<g id="Vector">
<use xlink:href="#path2_fill" transform="translate(1301.58 3083)"/>
<use xlink:href="#path3_stroke" transform="translate(1301.58 3083)"/>
</g>
</g>
</g>
<g id="text 9">
<g id="Group">
<g id="Vector">
<use xlink:href="#path5_fill" transform="matrix(0.1 0 0 -0.1 1291.55 3097.6)"/>
</g>
<g id="Vector">
<use xlink:href="#path6_fill" transform="matrix(0.1 0 0 -0.1 1297.47 3097.74)"/>
</g>
<g id="Vector">
<use xlink:href="#path7_fill" transform="matrix(0.1 0 0 -0.1 1304.24 3097.6)"/>
</g>
<g id="Vector">
<use xlink:href="#path6_fill" transform="matrix(0.1 0 0 -0.1 1307.01 3097.74)"/>
</g>
</g>
</g>
</g>
</g>
<g id="matplotlib.axis 2">
<g id="ytick 1">
<g id="line2d 10">
<g id="Group">
<g id="Vector">
<use xlink:href="#path11_fill" transform="translate(978.5 3079.11)"/>
<use xlink:href="#path12_stroke" transform="translate(978.5 3079.11)"/>
</g>
</g>
</g>
<g id="text 10">
<g id="Group">
<g id="Vector">
<use xlink:href="#path4_fill" transform="matrix(0.1 0 0 -0.1 954.955 3080.19)"/>
</g>
<g id="Vector">
<use xlink:href="#path10_fill" transform="matrix(0.1 0 0 -0.1 963.007 3082.91)"/>
</g>
<g id="Vector">
<use xlink:href="#path6_fill" transform="matrix(0.1 0 0 -0.1 969.296 3083.05)"/>
</g>
</g>
</g>
</g>
<g id="ytick 2">
<g id="line2d 11">
<g id="Group">
<g id="Vector">
<use xlink:href="#path11_fill" transform="translate(978.5 3031.19)"/>
<use xlink:href="#path12_stroke" transform="translate(978.5 3031.19)"/>
</g>
</g>
</g>
<g id="text 11">
<g id="Group">
<g id="Vector">
<use xlink:href="#path4_fill" transform="matrix(0.1 0 0 -0.1 954.955 3032.26)"/>
</g>
<g id="Vector">
<use xlink:href="#path5_fill" transform="matrix(0.1 0 0 -0.1 963.373 3034.99)"/>
</g>
<g id="Vector">
<use xlink:href="#path6_fill" transform="matrix(0.1 0 0 -0.1 969.296 3035.13)"/>
</g>
</g>
</g>
</g>
<g id="ytick 3">
<g id="line2d 12">
<g id="Group">
<g id="Vector">
<use xlink:href="#path11_fill" transform="translate(978.5 2983.27)"/>
<use xlink:href="#path12_stroke" transform="translate(978.5 2983.27)"/>
</g>
</g>
</g>
<g id="text 12">
<g id="Group">
<g id="Vector">
<use xlink:href="#path6_fill" transform="matrix(0.1 0 0 -0.1 969.297 2987.21)"/>
</g>
</g>
</g>
</g>
<g id="ytick 4">
<g id="line2d 13">
<g id="Group">
<g id="Vector">
<use xlink:href="#path11_fill" transform="translate(978.5 2935.34)"/>
<use xlink:href="#path12_stroke" transform="translate(978.5 2935.34)"/>
</g>
</g>
</g>
<g id="text 13">
<g id="Group">
<g id="Vector">
<use xlink:href="#path5_fill" transform="matrix(0.1 0 0 -0.1 963.373 2939.14)"/>
</g>
<g id="Vector">
<use xlink:href="#path6_fill" transform="matrix(0.1 0 0 -0.1 969.297 2939.29)"/>
</g>
</g>
</g>
</g>
<g id="ytick 5">
<g id="line2d 14">
<g id="Group">
<g id="Vector">
<use xlink:href="#path11_fill" transform="translate(978.5 2887.42)"/>
<use xlink:href="#path12_stroke" transform="translate(978.5 2887.42)"/>
</g>
</g>
</g>
<g id="text 14">
<g id="Group">
<g id="Vector">
<use xlink:href="#path10_fill" transform="matrix(0.1 0 0 -0.1 963.008 2891.22)"/>
</g>
<g id="Vector">
<use xlink:href="#path6_fill" transform="matrix(0.1 0 0 -0.1 969.297 2891.37)"/>
</g>
</g>
</g>
</g>
</g>
<g id="line2d 15">
<g id="Vector">
<use xlink:href="#path13_stroke" transform="translate(997.218 2881.43)" fill="#0000FF"/>
</g>
</g>
<g id="line2d 16">
<g id="Vector">
<use xlink:href="#path19_stroke" transform="translate(997.218 2875.44)" fill="#0000FF"/>
</g>
</g>
<g id="patch 3">
<g id="Vector">
<use xlink:href="#path15_stroke" transform="translate(982 2865.56)"/>
</g>
</g>
<g id="patch 4">
<g id="Vector">
<use xlink:href="#path16_stroke" transform="translate(1316.8 2865.56)"/>
</g>
</g>
<g id="patch 5">
<g id="Vector">
<use xlink:href="#path17_stroke" transform="translate(982 3083)"/>
</g>
</g>
<g id="patch 6">
<g id="Vector">
<use xlink:href="#path18_stroke" transform="translate(982 2865.56)"/>
</g>
</g>
</g>
</g>
</g>
<g id="y = -2x + 5/4 y = -2x + 5/2">
<use xlink:href="#path20_fill" transform="translate(625 2841)"/>
</g>
<g id="y = -2x + 5/4 y = 2x + 5/2">
<use xlink:href="#path21_fill" transform="translate(1034 2841)"/>
</g>
<g id="No solution">
<use xlink:href="#path22_fill" transform="translate(689 2876)" fill="#EB5757"/>
</g>
<g id="3">
<g id="figure 1">
<g id="patch 1">
<g id="Vector">
<use xlink:href="#path0_fill" transform="translate(1346 2831)" fill="#FFFFFF"/>
</g>
</g>
<g id="axes 1">
<g id="patch 2">
<g id="Vector">
<use xlink:href="#path1_fill" transform="translate(1400 2865.56)" fill="#FFFFFF"/>
</g>
</g>
<g id="matplotlib.axis 1">
<g id="xtick 1">
<g id="line2d 1">
<g id="Group">
<g id="Vector">
<use xlink:href="#path2_fill" transform="translate(1415.22 3083)"/>
<use xlink:href="#path3_stroke" transform="translate(1415.22 3083)"/>
</g>
</g>
</g>
<g id="text 1">
<g id="Group">
<g id="Vector">
<use xlink:href="#path4_fill" transform="matrix(0.1 0 0 -0.1 1400.95 3094.88)"/>
</g>
<g id="Vector">
<use xlink:href="#path5_fill" transform="matrix(0.1 0 0 -0.1 1409.37 3097.6)"/>
</g>
<g id="Vector">
<use xlink:href="#path6_fill" transform="matrix(0.1 0 0 -0.1 1415.3 3097.74)"/>
</g>
<g id="Vector">
<use xlink:href="#path7_fill" transform="matrix(0.1 0 0 -0.1 1422.07 3097.6)"/>
</g>
<g id="Vector">
<use xlink:href="#path6_fill" transform="matrix(0.1 0 0 -0.1 1424.84 3097.74)"/>
</g>
</g>
</g>
</g>
<g id="xtick 2">
<g id="line2d 2">
<g id="Group">
<g id="Vector">
<use xlink:href="#path2_fill" transform="translate(1453.26 3083)"/>
<use xlink:href="#path3_stroke" transform="translate(1453.26 3083)"/>
</g>
</g>
</g>
<g id="text 2">
<g id="Group">
<g id="Vector">
<use xlink:href="#path4_fill" transform="matrix(0.1 0 0 -0.1 1442.18 3094.88)"/>
</g>
<g id="Vector">
<use xlink:href="#path8_fill" transform="matrix(0.1 0 0 -0.1 1450.32 3097.6)"/>
</g>
<g id="Vector">
<use xlink:href="#path7_fill" transform="matrix(0.1 0 0 -0.1 1456.93 3097.6)"/>
</g>
<g id="Vector">
<use xlink:href="#path9_fill" transform="matrix(0.1 0 0 -0.1 1459.81 3097.74)"/>
</g>
</g>
</g>
</g>
<g id="xtick 3">
<g id="line2d 3">
<g id="Group">
<g id="Vector">
<use xlink:href="#path2_fill" transform="translate(1491.31 3083)"/>
<use xlink:href="#path3_stroke" transform="translate(1491.31 3083)"/>
</g>
</g>
</g>
<g id="text 3">
<g id="Group">
<g id="Vector">
<use xlink:href="#path4_fill" transform="matrix(0.1 0 0 -0.1 1480.23 3094.88)"/>
</g>
<g id="Vector">
<use xlink:href="#path9_fill" transform="matrix(0.1 0 0 -0.1 1488.32 3097.74)"/>
</g>
<g id="Vector">
<use xlink:href="#path7_fill" transform="matrix(0.1 0 0 -0.1 1494.98 3097.6)"/>
</g>
<g id="Vector">
<use xlink:href="#path6_fill" transform="matrix(0.1 0 0 -0.1 1497.75 3097.74)"/>
</g>
</g>
</g>
</g>
<g id="xtick 4">
<g id="line2d 4">
<g id="Group">
<g id="Vector">
<use xlink:href="#path2_fill" transform="translate(1529.35 3083)"/>
<use xlink:href="#path3_stroke" transform="translate(1529.35 3083)"/>
</g>
</g>
</g>
<g id="text 4">
<g id="Group">
<g id="Vector">
<use xlink:href="#path4_fill" transform="matrix(0.1 0 0 -0.1 1518.27 3094.88)"/>
</g>
<g id="Vector">
<use xlink:href="#path10_fill" transform="matrix(0.1 0 0 -0.1 1526.32 3097.6)"/>
</g>
<g id="Vector">
<use xlink:href="#path7_fill" transform="matrix(0.1 0 0 -0.1 1533.02 3097.6)"/>
</g>
<g id="Vector">
<use xlink:href="#path9_fill" transform="matrix(0.1 0 0 -0.1 1535.91 3097.74)"/>
</g>
</g>
</g>
</g>
<g id="xtick 5">
<g id="line2d 5">
<g id="Group">
<g id="Vector">
<use xlink:href="#path2_fill" transform="translate(1567.4 3083)"/>
<use xlink:href="#path3_stroke" transform="translate(1567.4 3083)"/>
</g>
</g>
</g>
<g id="text 5">
<g id="Group">
<g id="Vector">
<use xlink:href="#path6_fill" transform="matrix(0.1 0 0 -0.1 1560.11 3097.74)"/>
</g>
<g id="Vector">
<use xlink:href="#path7_fill" transform="matrix(0.1 0 0 -0.1 1566.88 3097.6)"/>
</g>
<g id="Vector">
<use xlink:href="#path6_fill" transform="matrix(0.1 0 0 -0.1 1569.65 3097.74)"/>
</g>
</g>
</g>
</g>
<g id="xtick 6">
<g id="line2d 6">
<g id="Group">
<g id="Vector">
<use xlink:href="#path2_fill" transform="translate(1605.45 3083)"/>
<use xlink:href="#path3_stroke" transform="translate(1605.45 3083)"/>
</g>
</g>
</g>
<g id="text 6">
<g id="Group">
<g id="Vector">
<use xlink:href="#path10_fill" transform="matrix(0.1 0 0 -0.1 1598.23 3097.6)"/>
</g>
<g id="Vector">
<use xlink:href="#path7_fill" transform="matrix(0.1 0 0 -0.1 1604.93 3097.6)"/>
</g>
<g id="Vector">
<use xlink:href="#path9_fill" transform="matrix(0.1 0 0 -0.1 1607.81 3097.74)"/>
</g>
</g>
</g>
</g>
<g id="xtick 7">
<g id="line2d 7">
<g id="Group">
<g id="Vector">
<use xlink:href="#path2_fill" transform="translate(1643.49 3083)"/>
<use xlink:href="#path3_stroke" transform="translate(1643.49 3083)"/>
</g>
</g>
</g>
<g id="text 7">
<g id="Group">
<g id="Vector">
<use xlink:href="#path9_fill" transform="matrix(0.1 0 0 -0.1 1636.31 3097.74)"/>
</g>
<g id="Vector">
<use xlink:href="#path7_fill" transform="matrix(0.1 0 0 -0.1 1642.97 3097.6)"/>
</g>
<g id="Vector">
<use xlink:href="#path6_fill" transform="matrix(0.1 0 0 -0.1 1645.74 3097.74)"/>
</g>
</g>
</g>
</g>
<g id="xtick 8">
<g id="line2d 8">
<g id="Group">
<g id="Vector">
<use xlink:href="#path2_fill" transform="translate(1681.54 3083)"/>
<use xlink:href="#path3_stroke" transform="translate(1681.54 3083)"/>
</g>
</g>
</g>
<g id="text 8">
<g id="Group">
<g id="Vector">
<use xlink:href="#path8_fill" transform="matrix(0.1 0 0 -0.1 1674.41 3097.6)"/>
</g>
<g id="Vector">
<use xlink:href="#path7_fill" transform="matrix(0.1 0 0 -0.1 1681.02 3097.6)"/>
</g>
<g id="Vector">
<use xlink:href="#path9_fill" transform="matrix(0.1 0 0 -0.1 1683.9 3097.74)"/>
</g>
</g>
</g>
</g>
<g id="xtick 9">
<g id="line2d 9">
<g id="Group">
<g id="Vector">
<use xlink:href="#path2_fill" transform="translate(1719.58 3083)"/>
<use xlink:href="#path3_stroke" transform="translate(1719.58 3083)"/>
</g>
</g>
</g>
<g id="text 9">
<g id="Group">
<g id="Vector">
<use xlink:href="#path5_fill" transform="matrix(0.1 0 0 -0.1 1709.55 3097.6)"/>
</g>
<g id="Vector">
<use xlink:href="#path6_fill" transform="matrix(0.1 0 0 -0.1 1715.47 3097.74)"/>
</g>
<g id="Vector">
<use xlink:href="#path7_fill" transform="matrix(0.1 0 0 -0.1 1722.24 3097.6)"/>
</g>
<g id="Vector">
<use xlink:href="#path6_fill" transform="matrix(0.1 0 0 -0.1 1725.01 3097.74)"/>
</g>
</g>
</g>
</g>
</g>
<g id="matplotlib.axis 2">
<g id="ytick 1">
<g id="line2d 10">
<g id="Group">
<g id="Vector">
<use xlink:href="#path11_fill" transform="translate(1396.5 3079.29)"/>
<use xlink:href="#path12_stroke" transform="translate(1396.5 3079.29)"/>
</g>
</g>
</g>
<g id="text 10">
<g id="Group">
<g id="Vector">
<use xlink:href="#path4_fill" transform="matrix(0.1 0 0 -0.1 1372.95 3080.37)"/>
</g>
<g id="Vector">
<use xlink:href="#path10_fill" transform="matrix(0.1 0 0 -0.1 1381.01 3083.09)"/>
</g>
<g id="Vector">
<use xlink:href="#path6_fill" transform="matrix(0.1 0 0 -0.1 1387.3 3083.23)"/>
</g>
</g>
</g>
</g>
<g id="ytick 2">
<g id="line2d 11">
<g id="Group">
<g id="Vector">
<use xlink:href="#path11_fill" transform="translate(1396.5 3054.58)"/>
<use xlink:href="#path12_stroke" transform="translate(1396.5 3054.58)"/>
</g>
</g>
</g>
<g id="text 11">
<g id="Group">
<g id="Vector">
<use xlink:href="#path4_fill" transform="matrix(0.1 0 0 -0.1 1372.95 3055.66)"/>
</g>
<g id="Vector">
<use xlink:href="#path5_fill" transform="matrix(0.1 0 0 -0.1 1381.37 3058.38)"/>
</g>
<g id="Vector">
<use xlink:href="#path9_fill" transform="matrix(0.1 0 0 -0.1 1387.41 3058.53)"/>
</g>
</g>
</g>
</g>
<g id="ytick 3">
<g id="line2d 12">
<g id="Group">
<g id="Vector">
<use xlink:href="#path11_fill" transform="translate(1396.5 3029.88)"/>
<use xlink:href="#path12_stroke" transform="translate(1396.5 3029.88)"/>
</g>
</g>
</g>
<g id="text 12">
<g id="Group">
<g id="Vector">
<use xlink:href="#path4_fill" transform="matrix(0.1 0 0 -0.1 1372.95 3030.95)"/>
</g>
<g id="Vector">
<use xlink:href="#path5_fill" transform="matrix(0.1 0 0 -0.1 1381.37 3033.67)"/>
</g>
<g id="Vector">
<use xlink:href="#path6_fill" transform="matrix(0.1 0 0 -0.1 1387.3 3033.82)"/>
</g>
</g>
</g>
</g>
<g id="ytick 4">
<g id="line2d 13">
<g id="Group">
<g id="Vector">
<use xlink:href="#path11_fill" transform="translate(1396.5 3005.17)"/>
<use xlink:href="#path12_stroke" transform="translate(1396.5 3005.17)"/>
</g>
</g>
</g>
<g id="text 13">
<g id="Group">
<g id="Vector">
<use xlink:href="#path4_fill" transform="matrix(0.1 0 0 -0.1 1379.32 3006.25)"/>
</g>
<g id="Vector">
<use xlink:href="#path9_fill" transform="matrix(0.1 0 0 -0.1 1387.41 3009.11)"/>
</g>
</g>
</g>
</g>
<g id="ytick 5">
<g id="line2d 14">
<g id="Group">
<g id="Vector">
<use xlink:href="#path11_fill" transform="translate(1396.5 2980.46)"/>
<use xlink:href="#path12_stroke" transform="translate(1396.5 2980.46)"/>
</g>
</g>
</g>
<g id="text 14">
<g id="Group">
<g id="Vector">
<use xlink:href="#path6_fill" transform="matrix(0.1 0 0 -0.1 1387.3 2984.4)"/>
</g>
</g>
</g>
</g>
<g id="ytick 6">
<g id="line2d 15">
<g id="Group">
<g id="Vector">
<use xlink:href="#path11_fill" transform="translate(1396.5 2955.75)"/>
<use xlink:href="#path12_stroke" transform="translate(1396.5 2955.75)"/>
</g>
</g>
</g>
<g id="text 15">
<g id="Group">
<g id="Vector">
<use xlink:href="#path9_fill" transform="matrix(0.1 0 0 -0.1 1387.41 2959.69)"/>
</g>
</g>
</g>
</g>
<g id="ytick 7">
<g id="line2d 16">
<g id="Group">
<g id="Vector">
<use xlink:href="#path11_fill" transform="translate(1396.5 2931.04)"/>
<use xlink:href="#path12_stroke" transform="translate(1396.5 2931.04)"/>
</g>
</g>
</g>
<g id="text 16">
<g id="Group">
<g id="Vector">
<use xlink:href="#path5_fill" transform="matrix(0.1 0 0 -0.1 1381.37 2934.84)"/>
</g>
<g id="Vector">
<use xlink:href="#path6_fill" transform="matrix(0.1 0 0 -0.1 1387.3 2934.98)"/>
</g>
</g>
</g>
</g>
<g id="ytick 8">
<g id="line2d 17">
<g id="Group">
<g id="Vector">
<use xlink:href="#path11_fill" transform="translate(1396.5 2906.33)"/>
<use xlink:href="#path12_stroke" transform="translate(1396.5 2906.33)"/>
</g>
</g>
</g>
<g id="text 17">
<g id="Group">
<g id="Vector">
<use xlink:href="#path5_fill" transform="matrix(0.1 0 0 -0.1 1381.37 2910.13)"/>
</g>
<g id="Vector">
<use xlink:href="#path9_fill" transform="matrix(0.1 0 0 -0.1 1387.41 2910.27)"/>
</g>
</g>
</g>
</g>
<g id="ytick 9">
<g id="line2d 18">
<g id="Group">
<g id="Vector">
<use xlink:href="#path11_fill" transform="translate(1396.5 2881.62)"/>
<use xlink:href="#path12_stroke" transform="translate(1396.5 2881.62)"/>
</g>
</g>
</g>
<g id="text 18">
<g id="Group">
<g id="Vector">
<use xlink:href="#path10_fill" transform="matrix(0.1 0 0 -0.1 1381.01 2885.42)"/>
</g>
<g id="Vector">
<use xlink:href="#path6_fill" transform="matrix(0.1 0 0 -0.1 1387.3 2885.56)"/>
</g>
</g>
</g>
</g>
</g>
<g id="line2d 19">
<g id="Vector">
<use xlink:href="#path23_stroke" transform="translate(1415.22 2875.44)" fill="#0000FF"/>
</g>
</g>
<g id="line2d 20">
<g id="Vector">
<use xlink:href="#path23_stroke" transform="translate(1415.22 2875.44)" fill="#0000FF"/>
</g>
</g>
<g id="patch 3">
<g id="Vector">
<use xlink:href="#path15_stroke" transform="translate(1400 2865.56)"/>
</g>
</g>
<g id="patch 4">
<g id="Vector">
<use xlink:href="#path16_stroke" transform="translate(1734.8 2865.56)"/>
</g>
</g>
<g id="patch 5">
<g id="Vector">
<use xlink:href="#path17_stroke" transform="translate(1400 3083)"/>
</g>
</g>
<g id="patch 6">
<g id="Vector">
<use xlink:href="#path18_stroke" transform="translate(1400 2865.56)"/>
</g>
</g>
</g>
</g>
<g id="y = -2x + 5/4 y = -2x + 5/4">
<use xlink:href="#path24_fill" transform="translate(1447 2841)"/>
</g>
</g>
<g id="One solution">
<use xlink:href="#path25_fill" transform="translate(1095 2876)" fill="#EB5757"/>
</g>
<g id="Infinite Solutions">
<use xlink:href="#path26_fill" transform="translate(1494 2875)" fill="#EB5757"/>
</g>
</g>
</g>
<defs>
<path id="path0_fill" d="M 0 288L 432 288L 432 0L 0 0L 0 288Z"/>
<path id="path1_fill" d="M 0 217.44L 334.8 217.44L 334.8 1.37329e-06L 0 1.37329e-06L 0 217.44Z"/>
<path id="path2_fill" d="M 0 0L 0 3.5Z"/>
<path id="path3_stroke" d="M -0.4 0L -0.4 3.5L 0.4 3.5L 0.4 0L -0.4 0Z"/>
<path id="path4_fill" d="M 0 8.29688L 62.5938 8.29688L 62.5938 0L 0 0L 0 8.29688Z"/>
<path id="path5_fill" d="M 1.42188 8.29688L 17.5312 8.29688L 17.5312 63.9219L 0 60.4062L 0 69.3906L 17.4375 72.9062L 27.2969 72.9062L 27.2969 8.29688L 43.4062 8.29688L 43.4062 0L 1.42188 0L 1.42188 8.29688Z"/>
<path id="path6_fill" d="M 25.1875 67.8281C 20.1146 67.8281 16.2969 65.3281 13.7344 60.3281C 11.1823 55.3385 9.90625 47.8281 9.90625 37.7969C 9.90625 27.8073 11.1823 20.3125 13.7344 15.3125C 16.2969 10.3125 20.1146 7.8125 25.1875 7.8125C 30.3021 7.8125 34.1354 10.3125 36.6875 15.3125C 39.25 20.3125 40.5312 27.8073 40.5312 37.7969C 40.5312 47.8281 39.25 55.3385 36.6875 60.3281C 34.1354 65.3281 30.3021 67.8281 25.1875 67.8281ZM 25.1875 75.6406C 33.3646 75.6406 39.6094 72.4062 43.9219 65.9375C 48.2344 59.4792 50.3906 50.099 50.3906 37.7969C 50.3906 25.526 48.2344 16.1562 43.9219 9.6875C 39.6094 3.22917 33.3646 0 25.1875 0C 17.0208 0 10.7812 3.22917 6.46875 9.6875C 2.15625 16.1562 0 25.526 0 37.7969C 0 50.099 2.15625 59.4792 6.46875 65.9375C 10.7812 72.4062 17.0208 75.6406 25.1875 75.6406Z"/>
<path id="path7_fill" d="M 0 12.4062L 10.3125 12.4062L 10.3125 0L 0 0L 0 12.4062Z"/>
<path id="path8_fill" d="M 0 72.9062L 46.875 72.9062L 46.875 68.7031L 20.4062 0L 10.1094 0L 35.0156 64.5938L 0 64.5938L 0 72.9062Z"/>
<path id="path9_fill" d="M 3.07812 74.3281L 41.7969 74.3281L 41.7969 66.0156L 12.1094 66.0156L 12.1094 48.1562C 13.5365 48.6458 14.9635 49.0104 16.3906 49.25C 17.8281 49.4896 19.2656 49.6094 20.7031 49.6094C 28.8385 49.6094 35.2812 47.3802 40.0312 42.9219C 44.7917 38.4635 47.1719 32.4271 47.1719 24.8125C 47.1719 16.9688 44.7292 10.8698 39.8438 6.51562C 34.9583 2.17188 28.0729 0 19.1875 0C 16.125 0 13.0052 0.260417 9.82812 0.78125C 6.66146 1.30208 3.38542 2.08333 0 3.125L 0 13.0469C 2.92708 11.4531 5.95312 10.2656 9.07812 9.48438C 12.2031 8.70312 15.5052 8.3125 18.9844 8.3125C 24.6198 8.3125 29.0781 9.79167 32.3594 12.75C 35.651 15.7083 37.2969 19.7292 37.2969 24.8125C 37.2969 29.8854 35.651 33.901 32.3594 36.8594C 29.0781 39.8281 24.6198 41.3125 18.9844 41.3125C 16.349 41.3125 13.7188 41.0208 11.0938 40.4375C 8.47917 39.8542 5.80729 38.9427 3.07812 37.7031L 3.07812 74.3281Z"/>
<path id="path10_fill" d="M 11.8594 8.29688L 46.2812 8.29688L 46.2812 0L 0 0L 0 8.29688C 3.73958 12.1719 8.83854 17.3698 15.2969 23.8906C 21.7656 30.4219 25.8281 34.6354 27.4844 36.5312C 30.6406 40.0729 32.8438 43.0729 34.0938 45.5312C 35.3542 47.9896 35.9844 50.4062 35.9844 52.7812C 35.9844 56.6562 34.625 59.8125 31.9062 62.25C 29.1875 64.6979 25.6458 65.9219 21.2812 65.9219C 18.1875 65.9219 14.9219 65.3854 11.4844 64.3125C 8.05729 63.2396 4.39062 61.6094 0.484375 59.4219L 0.484375 69.3906C 4.45312 70.9844 8.16146 72.1875 11.6094 73C 15.0677 73.8125 18.2292 74.2188 21.0938 74.2188C 28.6458 74.2188 34.6667 72.3281 39.1562 68.5469C 43.6458 64.776 45.8906 59.7344 45.8906 53.4219C 45.8906 50.4219 45.3281 47.5781 44.2031 44.8906C 43.0885 42.2135 41.0469 39.0521 38.0781 35.4062C 37.2656 34.4583 34.6771 31.7292 30.3125 27.2188C 25.9583 22.7083 19.8073 16.401 11.8594 8.29688Z"/>
<path id="path11_fill" d="M 3.5 0L 0 0Z"/>
<path id="path12_stroke" d="M 3.5 -0.4L 0 -0.4L 0 0.4L 3.5 0.4L 3.5 -0.4Z"/>
<path id="path13_stroke" d="M 0.399682 -0.63463L -0.234949 -1.03431L -1.03431 0.234953L -0.399676 0.634632L 0.399682 -0.63463ZM 303.964 192.317L 304.599 192.717L 305.398 191.448L 304.763 191.048L 303.964 192.317ZM -0.399676 0.634632L 303.964 192.317L 304.763 191.048L 0.399682 -0.63463L -0.399676 0.634632Z"/>
<path id="path14_stroke" d="M 0.399682 -0.634629L -0.234949 -1.03431L -1.03431 0.234954L -0.399676 0.634633L 0.399682 -0.634629ZM 303.964 192.317L 304.599 192.717L 305.398 191.448L 304.763 191.048L 303.964 192.317ZM -0.399676 0.634633L 303.964 192.317L 304.763 191.048L 0.399682 -0.634629L -0.399676 0.634633Z"/>
<path id="path15_stroke" d="M -0.4 217.44L -0.4 217.84L 0.4 217.84L 0.4 217.44L -0.4 217.44ZM 0.4 1.37329e-06L 0.4 -0.399999L -0.4 -0.399999L -0.4 1.37329e-06L 0.4 1.37329e-06ZM 0.4 217.44L 0.4 1.37329e-06L -0.4 1.37329e-06L -0.4 217.44L 0.4 217.44Z"/>
<path id="path16_stroke" d="M -0.400012 217.44L -0.400012 217.84L 0.399988 217.84L 0.399988 217.44L -0.400012 217.44ZM 0.399988 1.37329e-06L 0.399988 -0.399999L -0.400012 -0.399999L -0.400012 1.37329e-06L 0.399988 1.37329e-06ZM 0.399988 217.44L 0.399988 1.37329e-06L -0.400012 1.37329e-06L -0.400012 217.44L 0.399988 217.44Z"/>
<path id="path17_stroke" d="M 0 -0.4L -0.4 -0.4L -0.4 0.4L 0 0.4L 0 -0.4ZM 334.8 0.4L 335.2 0.4L 335.2 -0.4L 334.8 -0.4L 334.8 0.4ZM 0 0.4L 334.8 0.4L 334.8 -0.4L 0 -0.4L 0 0.4Z"/>
<path id="path18_stroke" d="M 0 -0.399999L -0.4 -0.399999L -0.4 0.400001L 0 0.400001L 0 -0.399999ZM 334.8 0.400001L 335.2 0.400001L 335.2 -0.399999L 334.8 -0.399999L 334.8 0.400001ZM 0 0.400001L 334.8 0.400001L 334.8 -0.399999L 0 -0.399999L 0 0.400001Z"/>
<path id="path19_stroke" d="M -0.399676 191.048L -1.03431 191.448L -0.234949 192.717L 0.399682 192.317L -0.399676 191.048ZM 304.763 0.634633L 305.398 0.234954L 304.599 -1.03431L 303.964 -0.634629L 304.763 0.634633ZM 0.399682 192.317L 304.763 0.634633L 303.964 -0.634629L -0.399676 191.048L 0.399682 192.317Z"/>
<path id="path20_fill" d="M 4.3418 14.6182L 6.55664 7.49023L 8.29688 7.49023L 4.47363 18.4678C 3.88184 20.0498 2.94141 20.8408 1.65234 20.8408L 1.34473 20.8145L 0.738281 20.7002L 0.738281 19.3818L 1.17773 19.417C 1.72852 19.417 2.15625 19.3057 2.46094 19.083C 2.77148 18.8604 3.02637 18.4531 3.22559 17.8613L 3.58594 16.8945L 0.193359 7.49023L 1.96875 7.49023L 4.3418 14.6182ZM 21.6562 9.8457L 14.3262 9.8457L 14.3262 8.43066L 21.6562 8.43066L 21.6562 9.8457ZM 21.6562 13.4932L 14.3262 13.4932L 14.3262 12.0869L 21.6562 12.0869L 21.6562 13.4932ZM 31.9482 12.2275L 27.6592 12.2275L 27.6592 10.9004L 31.9482 10.9004L 31.9482 12.2275ZM 41.7568 17L 33.3721 17L 33.3721 15.8311L 37.8018 10.9092C 38.458 10.165 38.9092 9.56152 39.1553 9.09863C 39.4072 8.62988 39.5332 8.14648 39.5332 7.64844C 39.5332 6.98047 39.3311 6.43262 38.9268 6.00488C 38.5225 5.57715 37.9834 5.36328 37.3096 5.36328C 36.501 5.36328 35.8711 5.59473 35.4199 6.05762C 34.9746 6.51465 34.752 7.15332 34.752 7.97363L 33.126 7.97363C 33.126 6.7959 33.5039 5.84375 34.2598 5.11719C 35.0215 4.39062 36.0381 4.02734 37.3096 4.02734C 38.499 4.02734 39.4395 4.34082 40.1309 4.96777C 40.8223 5.58887 41.168 6.41797 41.168 7.45508C 41.168 8.71484 40.3652 10.2148 38.7598 11.9551L 35.332 15.6729L 41.7568 15.6729L 41.7568 17ZM 46.8369 10.9619L 48.9463 7.49023L 50.8447 7.49023L 47.7334 12.1924L 50.9414 17L 49.0605 17L 46.8633 13.4404L 44.666 17L 42.7764 17L 45.9844 12.1924L 42.873 7.49023L 44.7539 7.49023L 46.8369 10.9619ZM 61.6992 10.1357L 65.2676 10.1357L 65.2676 11.6738L 61.6992 11.6738L 61.6992 15.7168L 60.0645 15.7168L 60.0645 11.6738L 56.4961 11.6738L 56.4961 10.1357L 60.0645 10.1357L 60.0645 6.40039L 61.6992 6.40039L 61.6992 10.1357ZM 72.2988 10.584L 72.9492 4.20312L 79.5059 4.20312L 79.5059 5.70605L 74.3291 5.70605L 73.9424 9.19531C 74.5693 8.82617 75.2812 8.6416 76.0781 8.6416C 77.2441 8.6416 78.1699 9.02832 78.8555 9.80176C 79.541 10.5693 79.8838 11.6094 79.8838 12.9219C 79.8838 14.2402 79.5264 15.2803 78.8115 16.042C 78.1025 16.7979 77.1094 17.1758 75.832 17.1758C 74.7012 17.1758 73.7783 16.8623 73.0635 16.2354C 72.3486 15.6084 71.9414 14.7412 71.8418 13.6338L 73.3799 13.6338C 73.4795 14.3662 73.7402 14.9199 74.1621 15.2949C 74.584 15.6641 75.1406 15.8486 75.832 15.8486C 76.5879 15.8486 77.1797 15.5908 77.6074 15.0752C 78.041 14.5596 78.2578 13.8477 78.2578 12.9395C 78.2578 12.084 78.0234 11.3984 77.5547 10.8828C 77.0918 10.3613 76.4736 10.1006 75.7002 10.1006C 74.9912 10.1006 74.4346 10.2559 74.0303 10.5664L 73.5996 10.918L 72.2988 10.584ZM 82.1514 18.0986L 80.7539 18.0986L 86.0977 4.20312L 87.4863 4.20312L 82.1514 18.0986ZM 95.9414 12.7021L 97.7168 12.7021L 97.7168 14.0293L 95.9414 14.0293L 95.9414 17L 94.3066 17L 94.3066 14.0293L 88.4795 14.0293L 88.4795 13.0713L 94.21 4.20312L 95.9414 4.20312L 95.9414 12.7021ZM 90.3252 12.7021L 94.3066 12.7021L 94.3066 6.42676L 94.1133 6.77832L 90.3252 12.7021ZM 138.182 14.6182L 140.396 7.49023L 142.137 7.49023L 138.313 18.4678C 137.722 20.0498 136.781 20.8408 135.492 20.8408L 135.185 20.8145L 134.578 20.7002L 134.578 19.3818L 135.018 19.417C 135.568 19.417 135.996 19.3057 136.301 19.083C 136.611 18.8604 136.866 18.4531 137.065 17.8613L 137.426 16.8945L 134.033 7.49023L 135.809 7.49023L 138.182 14.6182ZM 155.496 9.8457L 148.166 9.8457L 148.166 8.43066L 155.496 8.43066L 155.496 9.8457ZM 155.496 13.4932L 148.166 13.4932L 148.166 12.0869L 155.496 12.0869L 155.496 13.4932ZM 165.788 12.2275L 161.499 12.2275L 161.499 10.9004L 165.788 10.9004L 165.788 12.2275ZM 175.597 17L 167.212 17L 167.212 15.8311L 171.642 10.9092C 172.298 10.165 172.749 9.56152 172.995 9.09863C 173.247 8.62988 173.373 8.14648 173.373 7.64844C 173.373 6.98047 173.171 6.43262 172.767 6.00488C 172.362 5.57715 171.823 5.36328 171.149 5.36328C 170.341 5.36328 169.711 5.59473 169.26 6.05762C 168.814 6.51465 168.592 7.15332 168.592 7.97363L 166.966 7.97363C 166.966 6.7959 167.344 5.84375 168.1 5.11719C 168.861 4.39062 169.878 4.02734 171.149 4.02734C 172.339 4.02734 173.279 4.34082 173.971 4.96777C 174.662 5.58887 175.008 6.41797 175.008 7.45508C 175.008 8.71484 174.205 10.2148 172.6 11.9551L 169.172 15.6729L 175.597 15.6729L 175.597 17ZM 180.677 10.9619L 182.786 7.49023L 184.685 7.49023L 181.573 12.1924L 184.781 17L 182.9 17L 180.703 13.4404L 178.506 17L 176.616 17L 179.824 12.1924L 176.713 7.49023L 178.594 7.49023L 180.677 10.9619ZM 195.539 10.1357L 199.107 10.1357L 199.107 11.6738L 195.539 11.6738L 195.539 15.7168L 193.904 15.7168L 193.904 11.6738L 190.336 11.6738L 190.336 10.1357L 193.904 10.1357L 193.904 6.40039L 195.539 6.40039L 195.539 10.1357ZM 206.139 10.584L 206.789 4.20312L 213.346 4.20312L 213.346 5.70605L 208.169 5.70605L 207.782 9.19531C 208.409 8.82617 209.121 8.6416 209.918 8.6416C 211.084 8.6416 212.01 9.02832 212.695 9.80176C 213.381 10.5693 213.724 11.6094 213.724 12.9219C 213.724 14.2402 213.366 15.2803 212.651 16.042C 211.942 16.7979 210.949 17.1758 209.672 17.1758C 208.541 17.1758 207.618 16.8623 206.903 16.2354C 206.188 15.6084 205.781 14.7412 205.682 13.6338L 207.22 13.6338C 207.319 14.3662 207.58 14.9199 208.002 15.2949C 208.424 15.6641 208.98 15.8486 209.672 15.8486C 210.428 15.8486 211.02 15.5908 211.447 15.0752C 211.881 14.5596 212.098 13.8477 212.098 12.9395C 212.098 12.084 211.863 11.3984 211.395 10.8828C 210.932 10.3613 210.313 10.1006 209.54 10.1006C 208.831 10.1006 208.274 10.2559 207.87 10.5664L 207.439 10.918L 206.139 10.584ZM 215.991 18.0986L 214.594 18.0986L 219.938 4.20312L 221.326 4.20312L 215.991 18.0986ZM 231.302 17L 222.917 17L 222.917 15.8311L 227.347 10.9092C 228.003 10.165 228.454 9.56152 228.7 9.09863C 228.952 8.62988 229.078 8.14648 229.078 7.64844C 229.078 6.98047 228.876 6.43262 228.472 6.00488C 228.067 5.57715 227.528 5.36328 226.854 5.36328C 226.046 5.36328 225.416 5.59473 224.965 6.05762C 224.52 6.51465 224.297 7.15332 224.297 7.97363L 222.671 7.97363C 222.671 6.7959 223.049 5.84375 223.805 5.11719C 224.566 4.39062 225.583 4.02734 226.854 4.02734C 228.044 4.02734 228.984 4.34082 229.676 4.96777C 230.367 5.58887 230.713 6.41797 230.713 7.45508C 230.713 8.71484 229.91 10.2148 228.305 11.9551L 224.877 15.6729L 231.302 15.6729L 231.302 17Z"/>
<path id="path21_fill" d="M 4.3418 14.6182L 6.55664 7.49023L 8.29688 7.49023L 4.47363 18.4678C 3.88184 20.0498 2.94141 20.8408 1.65234 20.8408L 1.34473 20.8145L 0.738281 20.7002L 0.738281 19.3818L 1.17773 19.417C 1.72852 19.417 2.15625 19.3057 2.46094 19.083C 2.77148 18.8604 3.02637 18.4531 3.22559 17.8613L 3.58594 16.8945L 0.193359 7.49023L 1.96875 7.49023L 4.3418 14.6182ZM 21.6562 9.8457L 14.3262 9.8457L 14.3262 8.43066L 21.6562 8.43066L 21.6562 9.8457ZM 21.6562 13.4932L 14.3262 13.4932L 14.3262 12.0869L 21.6562 12.0869L 21.6562 13.4932ZM 31.9482 12.2275L 27.6592 12.2275L 27.6592 10.9004L 31.9482 10.9004L 31.9482 12.2275ZM 41.7568 17L 33.3721 17L 33.3721 15.8311L 37.8018 10.9092C 38.458 10.165 38.9092 9.56152 39.1553 9.09863C 39.4072 8.62988 39.5332 8.14648 39.5332 7.64844C 39.5332 6.98047 39.3311 6.43262 38.9268 6.00488C 38.5225 5.57715 37.9834 5.36328 37.3096 5.36328C 36.501 5.36328 35.8711 5.59473 35.4199 6.05762C 34.9746 6.51465 34.752 7.15332 34.752 7.97363L 33.126 7.97363C 33.126 6.7959 33.5039 5.84375 34.2598 5.11719C 35.0215 4.39062 36.0381 4.02734 37.3096 4.02734C 38.499 4.02734 39.4395 4.34082 40.1309 4.96777C 40.8223 5.58887 41.168 6.41797 41.168 7.45508C 41.168 8.71484 40.3652 10.2148 38.7598 11.9551L 35.332 15.6729L 41.7568 15.6729L 41.7568 17ZM 46.8369 10.9619L 48.9463 7.49023L 50.8447 7.49023L 47.7334 12.1924L 50.9414 17L 49.0605 17L 46.8633 13.4404L 44.666 17L 42.7764 17L 45.9844 12.1924L 42.873 7.49023L 44.7539 7.49023L 46.8369 10.9619ZM 61.6992 10.1357L 65.2676 10.1357L 65.2676 11.6738L 61.6992 11.6738L 61.6992 15.7168L 60.0645 15.7168L 60.0645 11.6738L 56.4961 11.6738L 56.4961 10.1357L 60.0645 10.1357L 60.0645 6.40039L 61.6992 6.40039L 61.6992 10.1357ZM 72.2988 10.584L 72.9492 4.20312L 79.5059 4.20312L 79.5059 5.70605L 74.3291 5.70605L 73.9424 9.19531C 74.5693 8.82617 75.2812 8.6416 76.0781 8.6416C 77.2441 8.6416 78.1699 9.02832 78.8555 9.80176C 79.541 10.5693 79.8838 11.6094 79.8838 12.9219C 79.8838 14.2402 79.5264 15.2803 78.8115 16.042C 78.1025 16.7979 77.1094 17.1758 75.832 17.1758C 74.7012 17.1758 73.7783 16.8623 73.0635 16.2354C 72.3486 15.6084 71.9414 14.7412 71.8418 13.6338L 73.3799 13.6338C 73.4795 14.3662 73.7402 14.9199 74.1621 15.2949C 74.584 15.6641 75.1406 15.8486 75.832 15.8486C 76.5879 15.8486 77.1797 15.5908 77.6074 15.0752C 78.041 14.5596 78.2578 13.8477 78.2578 12.9395C 78.2578 12.084 78.0234 11.3984 77.5547 10.8828C 77.0918 10.3613 76.4736 10.1006 75.7002 10.1006C 74.9912 10.1006 74.4346 10.2559 74.0303 10.5664L 73.5996 10.918L 72.2988 10.584ZM 82.1514 18.0986L 80.7539 18.0986L 86.0977 4.20312L 87.4863 4.20312L 82.1514 18.0986ZM 95.9414 12.7021L 97.7168 12.7021L 97.7168 14.0293L 95.9414 14.0293L 95.9414 17L 94.3066 17L 94.3066 14.0293L 88.4795 14.0293L 88.4795 13.0713L 94.21 4.20312L 95.9414 4.20312L 95.9414 12.7021ZM 90.3252 12.7021L 94.3066 12.7021L 94.3066 6.42676L 94.1133 6.77832L 90.3252 12.7021ZM 138.182 14.6182L 140.396 7.49023L 142.137 7.49023L 138.313 18.4678C 137.722 20.0498 136.781 20.8408 135.492 20.8408L 135.185 20.8145L 134.578 20.7002L 134.578 19.3818L 135.018 19.417C 135.568 19.417 135.996 19.3057 136.301 19.083C 136.611 18.8604 136.866 18.4531 137.065 17.8613L 137.426 16.8945L 134.033 7.49023L 135.809 7.49023L 138.182 14.6182ZM 155.496 9.8457L 148.166 9.8457L 148.166 8.43066L 155.496 8.43066L 155.496 9.8457ZM 155.496 13.4932L 148.166 13.4932L 148.166 12.0869L 155.496 12.0869L 155.496 13.4932ZM 170.622 17L 162.237 17L 162.237 15.8311L 166.667 10.9092C 167.323 10.165 167.774 9.56152 168.021 9.09863C 168.272 8.62988 168.398 8.14648 168.398 7.64844C 168.398 6.98047 168.196 6.43262 167.792 6.00488C 167.388 5.57715 166.849 5.36328 166.175 5.36328C 165.366 5.36328 164.736 5.59473 164.285 6.05762C 163.84 6.51465 163.617 7.15332 163.617 7.97363L 161.991 7.97363C 161.991 6.7959 162.369 5.84375 163.125 5.11719C 163.887 4.39062 164.903 4.02734 166.175 4.02734C 167.364 4.02734 168.305 4.34082 168.996 4.96777C 169.688 5.58887 170.033 6.41797 170.033 7.45508C 170.033 8.71484 169.23 10.2148 167.625 11.9551L 164.197 15.6729L 170.622 15.6729L 170.622 17ZM 175.702 10.9619L 177.812 7.49023L 179.71 7.49023L 176.599 12.1924L 179.807 17L 177.926 17L 175.729 13.4404L 173.531 17L 171.642 17L 174.85 12.1924L 171.738 7.49023L 173.619 7.49023L 175.702 10.9619ZM 190.564 10.1357L 194.133 10.1357L 194.133 11.6738L 190.564 11.6738L 190.564 15.7168L 188.93 15.7168L 188.93 11.6738L 185.361 11.6738L 185.361 10.1357L 188.93 10.1357L 188.93 6.40039L 190.564 6.40039L 190.564 10.1357ZM 201.164 10.584L 201.814 4.20312L 208.371 4.20312L 208.371 5.70605L 203.194 5.70605L 202.808 9.19531C 203.435 8.82617 204.146 8.6416 204.943 8.6416C 206.109 8.6416 207.035 9.02832 207.721 9.80176C 208.406 10.5693 208.749 11.6094 208.749 12.9219C 208.749 14.2402 208.392 15.2803 207.677 16.042C 206.968 16.7979 205.975 17.1758 204.697 17.1758C 203.566 17.1758 202.644 16.8623 201.929 16.2354C 201.214 15.6084 200.807 14.7412 200.707 13.6338L 202.245 13.6338C 202.345 14.3662 202.605 14.9199 203.027 15.2949C 203.449 15.6641 204.006 15.8486 204.697 15.8486C 205.453 15.8486 206.045 15.5908 206.473 15.0752C 206.906 14.5596 207.123 13.8477 207.123 12.9395C 207.123 12.084 206.889 11.3984 206.42 10.8828C 205.957 10.3613 205.339 10.1006 204.565 10.1006C 203.856 10.1006 203.3 10.2559 202.896 10.5664L 202.465 10.918L 201.164 10.584ZM 211.017 18.0986L 209.619 18.0986L 214.963 4.20312L 216.352 4.20312L 211.017 18.0986ZM 226.327 17L 217.942 17L 217.942 15.8311L 222.372 10.9092C 223.028 10.165 223.479 9.56152 223.726 9.09863C 223.978 8.62988 224.104 8.14648 224.104 7.64844C 224.104 6.98047 223.901 6.43262 223.497 6.00488C 223.093 5.57715 222.554 5.36328 221.88 5.36328C 221.071 5.36328 220.441 5.59473 219.99 6.05762C 219.545 6.51465 219.322 7.15332 219.322 7.97363L 217.696 7.97363C 217.696 6.7959 218.074 5.84375 218.83 5.11719C 219.592 4.39062 220.608 4.02734 221.88 4.02734C 223.069 4.02734 224.01 4.34082 224.701 4.96777C 225.393 5.58887 225.738 6.41797 225.738 7.45508C 225.738 8.71484 224.936 10.2148 223.33 11.9551L 219.902 15.6729L 226.327 15.6729L 226.327 17Z"/>
<path id="path22_fill" d="M 11.3203 17L 9.62402 17L 3.18164 7.13867L 3.18164 17L 1.48535 17L 1.48535 4.20312L 3.18164 4.20312L 9.6416 14.1084L 9.6416 4.20312L 11.3203 4.20312L 11.3203 17ZM 13.6318 12.1572C 13.6318 11.2256 13.8135 10.3877 14.1768 9.64355C 14.5459 8.89941 15.0557 8.3252 15.7061 7.9209C 16.3623 7.5166 17.1094 7.31445 17.9473 7.31445C 19.2422 7.31445 20.2881 7.7627 21.085 8.65918C 21.8877 9.55566 22.2891 10.748 22.2891 12.2363L 22.2891 12.3506C 22.2891 13.2764 22.1104 14.1084 21.7529 14.8467C 21.4014 15.5791 20.8945 16.1504 20.2324 16.5605C 19.5762 16.9707 18.8203 17.1758 17.9648 17.1758C 16.6758 17.1758 15.6299 16.7275 14.8271 15.8311C 14.0303 14.9346 13.6318 13.748 13.6318 12.2715L 13.6318 12.1572ZM 15.2666 12.3506C 15.2666 13.4053 15.5098 14.252 15.9961 14.8906C 16.4883 15.5293 17.1445 15.8486 17.9648 15.8486C 18.791 15.8486 19.4473 15.5264 19.9336 14.8818C 20.4199 14.2314 20.6631 13.3232 20.6631 12.1572C 20.6631 11.1143 20.4141 10.2705 19.916 9.62598C 19.4238 8.97559 18.7676 8.65039 17.9473 8.65039C 17.1445 8.65039 16.4971 8.96973 16.0049 9.6084C 15.5127 10.2471 15.2666 11.1611 15.2666 12.3506ZM 34.3301 14.4775C 34.3301 14.0381 34.1631 13.6982 33.8291 13.458C 33.501 13.2119 32.9238 13.001 32.0977 12.8252C 31.2773 12.6494 30.624 12.4385 30.1377 12.1924C 29.6572 11.9463 29.2998 11.6533 29.0654 11.3135C 28.8369 10.9736 28.7227 10.5693 28.7227 10.1006C 28.7227 9.32129 29.0508 8.66211 29.707 8.12305C 30.3691 7.58398 31.2129 7.31445 32.2383 7.31445C 33.3164 7.31445 34.1895 7.59277 34.8574 8.14941C 35.5312 8.70605 35.8682 9.41797 35.8682 10.2852L 34.2334 10.2852C 34.2334 9.83984 34.043 9.45605 33.6621 9.13379C 33.2871 8.81152 32.8125 8.65039 32.2383 8.65039C 31.6465 8.65039 31.1836 8.7793 30.8496 9.03711C 30.5156 9.29492 30.3486 9.63184 30.3486 10.0479C 30.3486 10.4404 30.5039 10.7363 30.8145 10.9355C 31.125 11.1348 31.6846 11.3252 32.4932 11.5068C 33.3076 11.6885 33.9668 11.9053 34.4707 12.1572C 34.9746 12.4092 35.3467 12.7139 35.5869 13.0713C 35.833 13.4229 35.9561 13.8535 35.9561 14.3633C 35.9561 15.2129 35.6162 15.8955 34.9365 16.4111C 34.2568 16.9209 33.375 17.1758 32.291 17.1758C 31.5293 17.1758 30.8555 17.041 30.2695 16.7715C 29.6836 16.502 29.2236 16.127 28.8896 15.6465C 28.5615 15.1602 28.3975 14.6357 28.3975 14.0732L 30.0234 14.0732C 30.0527 14.6182 30.2695 15.0518 30.6738 15.374C 31.084 15.6904 31.623 15.8486 32.291 15.8486C 32.9062 15.8486 33.3984 15.7256 33.7676 15.4795C 34.1426 15.2275 34.3301 14.8936 34.3301 14.4775ZM 37.6436 12.1572C 37.6436 11.2256 37.8252 10.3877 38.1885 9.64355C 38.5576 8.89941 39.0674 8.3252 39.7178 7.9209C 40.374 7.5166 41.1211 7.31445 41.959 7.31445C 43.2539 7.31445 44.2998 7.7627 45.0967 8.65918C 45.8994 9.55566 46.3008 10.748 46.3008 12.2363L 46.3008 12.3506C 46.3008 13.2764 46.1221 14.1084 45.7646 14.8467C 45.4131 15.5791 44.9062 16.1504 44.2441 16.5605C 43.5879 16.9707 42.832 17.1758 41.9766 17.1758C 40.6875 17.1758 39.6416 16.7275 38.8389 15.8311C 38.042 14.9346 37.6436 13.748 37.6436 12.2715L 37.6436 12.1572ZM 39.2783 12.3506C 39.2783 13.4053 39.5215 14.252 40.0078 14.8906C 40.5 15.5293 41.1562 15.8486 41.9766 15.8486C 42.8027 15.8486 43.459 15.5264 43.9453 14.8818C 44.4316 14.2314 44.6748 13.3232 44.6748 12.1572C 44.6748 11.1143 44.4258 10.2705 43.9277 9.62598C 43.4355 8.97559 42.7793 8.65039 41.959 8.65039C 41.1562 8.65039 40.5088 8.96973 40.0166 9.6084C 39.5244 10.2471 39.2783 11.1611 39.2783 12.3506ZM 50.1064 17L 48.4805 17L 48.4805 3.5L 50.1064 3.5L 50.1064 17ZM 58.5879 16.0596C 57.9551 16.8037 57.0264 17.1758 55.8018 17.1758C 54.7881 17.1758 54.0146 16.8828 53.4814 16.2969C 52.9541 15.7051 52.6875 14.832 52.6816 13.6777L 52.6816 7.49023L 54.3076 7.49023L 54.3076 13.6338C 54.3076 15.0752 54.8936 15.7959 56.0654 15.7959C 57.3076 15.7959 58.1338 15.333 58.5439 14.4072L 58.5439 7.49023L 60.1699 7.49023L 60.1699 17L 58.623 17L 58.5879 16.0596ZM 64.8545 5.1875L 64.8545 7.49023L 66.6299 7.49023L 66.6299 8.74707L 64.8545 8.74707L 64.8545 14.6445C 64.8545 15.0254 64.9336 15.3125 65.0918 15.5059C 65.25 15.6934 65.5195 15.7871 65.9004 15.7871C 66.0879 15.7871 66.3457 15.752 66.6738 15.6816L 66.6738 17C 66.2461 17.1172 65.8301 17.1758 65.4258 17.1758C 64.6992 17.1758 64.1514 16.9561 63.7822 16.5166C 63.4131 16.0771 63.2285 15.4531 63.2285 14.6445L 63.2285 8.74707L 61.4971 8.74707L 61.4971 7.49023L 63.2285 7.49023L 63.2285 5.1875L 64.8545 5.1875ZM 70.3037 17L 68.6777 17L 68.6777 7.49023L 70.3037 7.49023L 70.3037 17ZM 68.5459 4.96777C 68.5459 4.7041 68.625 4.48145 68.7832 4.2998C 68.9473 4.11816 69.1875 4.02734 69.5039 4.02734C 69.8203 4.02734 70.0605 4.11816 70.2246 4.2998C 70.3887 4.48145 70.4707 4.7041 70.4707 4.96777C 70.4707 5.23145 70.3887 5.45117 70.2246 5.62695C 70.0605 5.80273 69.8203 5.89062 69.5039 5.89062C 69.1875 5.89062 68.9473 5.80273 68.7832 5.62695C 68.625 5.45117 68.5459 5.23145 68.5459 4.96777ZM 72.4834 12.1572C 72.4834 11.2256 72.665 10.3877 73.0283 9.64355C 73.3975 8.89941 73.9072 8.3252 74.5576 7.9209C 75.2139 7.5166 75.9609 7.31445 76.7988 7.31445C 78.0938 7.31445 79.1396 7.7627 79.9365 8.65918C 80.7393 9.55566 81.1406 10.748 81.1406 12.2363L 81.1406 12.3506C 81.1406 13.2764 80.9619 14.1084 80.6045 14.8467C 80.2529 15.5791 79.7461 16.1504 79.084 16.5605C 78.4277 16.9707 77.6719 17.1758 76.8164 17.1758C 75.5273 17.1758 74.4814 16.7275 73.6787 15.8311C 72.8818 14.9346 72.4834 13.748 72.4834 12.2715L 72.4834 12.1572ZM 74.1182 12.3506C 74.1182 13.4053 74.3613 14.252 74.8477 14.8906C 75.3398 15.5293 75.9961 15.8486 76.8164 15.8486C 77.6426 15.8486 78.2988 15.5264 78.7852 14.8818C 79.2715 14.2314 79.5146 13.3232 79.5146 12.1572C 79.5146 11.1143 79.2656 10.2705 78.7676 9.62598C 78.2754 8.97559 77.6191 8.65039 76.7988 8.65039C 75.9961 8.65039 75.3486 8.96973 74.8564 9.6084C 74.3643 10.2471 74.1182 11.1611 74.1182 12.3506ZM 84.7178 7.49023L 84.7705 8.68555C 85.4971 7.77148 86.4463 7.31445 87.6182 7.31445C 89.6279 7.31445 90.6416 8.44824 90.6592 10.7158L 90.6592 17L 89.0332 17L 89.0332 10.707C 89.0273 10.0215 88.8691 9.51465 88.5586 9.18652C 88.2539 8.8584 87.7764 8.69434 87.126 8.69434C 86.5986 8.69434 86.1357 8.83496 85.7373 9.11621C 85.3389 9.39746 85.0283 9.7666 84.8057 10.2236L 84.8057 17L 83.1797 17L 83.1797 7.49023L 84.7178 7.49023Z"/>
<path id="path23_stroke" d="M 0.408507 -0.628985L -0.22048 -1.03749L -1.03749 0.220486L -0.4085 0.628989L 0.408507 -0.628985ZM 303.955 198.302L 304.584 198.71L 305.401 197.452L 304.772 197.044L 303.955 198.302ZM -0.4085 0.628989L 303.955 198.302L 304.772 197.044L 0.408507 -0.628985L -0.4085 0.628989Z"/>
<path id="path24_fill" d="M 4.3418 14.6182L 6.55664 7.49023L 8.29688 7.49023L 4.47363 18.4678C 3.88184 20.0498 2.94141 20.8408 1.65234 20.8408L 1.34473 20.8145L 0.738281 20.7002L 0.738281 19.3818L 1.17773 19.417C 1.72852 19.417 2.15625 19.3057 2.46094 19.083C 2.77148 18.8604 3.02637 18.4531 3.22559 17.8613L 3.58594 16.8945L 0.193359 7.49023L 1.96875 7.49023L 4.3418 14.6182ZM 21.6562 9.8457L 14.3262 9.8457L 14.3262 8.43066L 21.6562 8.43066L 21.6562 9.8457ZM 21.6562 13.4932L 14.3262 13.4932L 14.3262 12.0869L 21.6562 12.0869L 21.6562 13.4932ZM 31.9482 12.2275L 27.6592 12.2275L 27.6592 10.9004L 31.9482 10.9004L 31.9482 12.2275ZM 41.7568 17L 33.3721 17L 33.3721 15.8311L 37.8018 10.9092C 38.458 10.165 38.9092 9.56152 39.1553 9.09863C 39.4072 8.62988 39.5332 8.14648 39.5332 7.64844C 39.5332 6.98047 39.3311 6.43262 38.9268 6.00488C 38.5225 5.57715 37.9834 5.36328 37.3096 5.36328C 36.501 5.36328 35.8711 5.59473 35.4199 6.05762C 34.9746 6.51465 34.752 7.15332 34.752 7.97363L 33.126 7.97363C 33.126 6.7959 33.5039 5.84375 34.2598 5.11719C 35.0215 4.39062 36.0381 4.02734 37.3096 4.02734C 38.499 4.02734 39.4395 4.34082 40.1309 4.96777C 40.8223 5.58887 41.168 6.41797 41.168 7.45508C 41.168 8.71484 40.3652 10.2148 38.7598 11.9551L 35.332 15.6729L 41.7568 15.6729L 41.7568 17ZM 46.8369 10.9619L 48.9463 7.49023L 50.8447 7.49023L 47.7334 12.1924L 50.9414 17L 49.0605 17L 46.8633 13.4404L 44.666 17L 42.7764 17L 45.9844 12.1924L 42.873 7.49023L 44.7539 7.49023L 46.8369 10.9619ZM 61.6992 10.1357L 65.2676 10.1357L 65.2676 11.6738L 61.6992 11.6738L 61.6992 15.7168L 60.0645 15.7168L 60.0645 11.6738L 56.4961 11.6738L 56.4961 10.1357L 60.0645 10.1357L 60.0645 6.40039L 61.6992 6.40039L 61.6992 10.1357ZM 72.2988 10.584L 72.9492 4.20312L 79.5059 4.20312L 79.5059 5.70605L 74.3291 5.70605L 73.9424 9.19531C 74.5693 8.82617 75.2812 8.6416 76.0781 8.6416C 77.2441 8.6416 78.1699 9.02832 78.8555 9.80176C 79.541 10.5693 79.8838 11.6094 79.8838 12.9219C 79.8838 14.2402 79.5264 15.2803 78.8115 16.042C 78.1025 16.7979 77.1094 17.1758 75.832 17.1758C 74.7012 17.1758 73.7783 16.8623 73.0635 16.2354C 72.3486 15.6084 71.9414 14.7412 71.8418 13.6338L 73.3799 13.6338C 73.4795 14.3662 73.7402 14.9199 74.1621 15.2949C 74.584 15.6641 75.1406 15.8486 75.832 15.8486C 76.5879 15.8486 77.1797 15.5908 77.6074 15.0752C 78.041 14.5596 78.2578 13.8477 78.2578 12.9395C 78.2578 12.084 78.0234 11.3984 77.5547 10.8828C 77.0918 10.3613 76.4736 10.1006 75.7002 10.1006C 74.9912 10.1006 74.4346 10.2559 74.0303 10.5664L 73.5996 10.918L 72.2988 10.584ZM 82.1514 18.0986L 80.7539 18.0986L 86.0977 4.20312L 87.4863 4.20312L 82.1514 18.0986ZM 95.9414 12.7021L 97.7168 12.7021L 97.7168 14.0293L 95.9414 14.0293L 95.9414 17L 94.3066 17L 94.3066 14.0293L 88.4795 14.0293L 88.4795 13.0713L 94.21 4.20312L 95.9414 4.20312L 95.9414 12.7021ZM 90.3252 12.7021L 94.3066 12.7021L 94.3066 6.42676L 94.1133 6.77832L 90.3252 12.7021ZM 138.182 14.6182L 140.396 7.49023L 142.137 7.49023L 138.313 18.4678C 137.722 20.0498 136.781 20.8408 135.492 20.8408L 135.185 20.8145L 134.578 20.7002L 134.578 19.3818L 135.018 19.417C 135.568 19.417 135.996 19.3057 136.301 19.083C 136.611 18.8604 136.866 18.4531 137.065 17.8613L 137.426 16.8945L 134.033 7.49023L 135.809 7.49023L 138.182 14.6182ZM 155.496 9.8457L 148.166 9.8457L 148.166 8.43066L 155.496 8.43066L 155.496 9.8457ZM 155.496 13.4932L 148.166 13.4932L 148.166 12.0869L 155.496 12.0869L 155.496 13.4932ZM 165.788 12.2275L 161.499 12.2275L 161.499 10.9004L 165.788 10.9004L 165.788 12.2275ZM 175.597 17L 167.212 17L 167.212 15.8311L 171.642 10.9092C 172.298 10.165 172.749 9.56152 172.995 9.09863C 173.247 8.62988 173.373 8.14648 173.373 7.64844C 173.373 6.98047 173.171 6.43262 172.767 6.00488C 172.362 5.57715 171.823 5.36328 171.149 5.36328C 170.341 5.36328 169.711 5.59473 169.26 6.05762C 168.814 6.51465 168.592 7.15332 168.592 7.97363L 166.966 7.97363C 166.966 6.7959 167.344 5.84375 168.1 5.11719C 168.861 4.39062 169.878 4.02734 171.149 4.02734C 172.339 4.02734 173.279 4.34082 173.971 4.96777C 174.662 5.58887 175.008 6.41797 175.008 7.45508C 175.008 8.71484 174.205 10.2148 172.6 11.9551L 169.172 15.6729L 175.597 15.6729L 175.597 17ZM 180.677 10.9619L 182.786 7.49023L 184.685 7.49023L 181.573 12.1924L 184.781 17L 182.9 17L 180.703 13.4404L 178.506 17L 176.616 17L 179.824 12.1924L 176.713 7.49023L 178.594 7.49023L 180.677 10.9619ZM 195.539 10.1357L 199.107 10.1357L 199.107 11.6738L 195.539 11.6738L 195.539 15.7168L 193.904 15.7168L 193.904 11.6738L 190.336 11.6738L 190.336 10.1357L 193.904 10.1357L 193.904 6.40039L 195.539 6.40039L 195.539 10.1357ZM 206.139 10.584L 206.789 4.20312L 213.346 4.20312L 213.346 5.70605L 208.169 5.70605L 207.782 9.19531C 208.409 8.82617 209.121 8.6416 209.918 8.6416C 211.084 8.6416 212.01 9.02832 212.695 9.80176C 213.381 10.5693 213.724 11.6094 213.724 12.9219C 213.724 14.2402 213.366 15.2803 212.651 16.042C 211.942 16.7979 210.949 17.1758 209.672 17.1758C 208.541 17.1758 207.618 16.8623 206.903 16.2354C 206.188 15.6084 205.781 14.7412 205.682 13.6338L 207.22 13.6338C 207.319 14.3662 207.58 14.9199 208.002 15.2949C 208.424 15.6641 208.98 15.8486 209.672 15.8486C 210.428 15.8486 211.02 15.5908 211.447 15.0752C 211.881 14.5596 212.098 13.8477 212.098 12.9395C 212.098 12.084 211.863 11.3984 211.395 10.8828C 210.932 10.3613 210.313 10.1006 209.54 10.1006C 208.831 10.1006 208.274 10.2559 207.87 10.5664L 207.439 10.918L 206.139 10.584ZM 215.991 18.0986L 214.594 18.0986L 219.938 4.20312L 221.326 4.20312L 215.991 18.0986ZM 229.781 12.7021L 231.557 12.7021L 231.557 14.0293L 229.781 14.0293L 229.781 17L 228.146 17L 228.146 14.0293L 222.319 14.0293L 222.319 13.0713L 228.05 4.20312L 229.781 4.20312L 229.781 12.7021ZM 224.165 12.7021L 228.146 12.7021L 228.146 6.42676L 227.953 6.77832L 224.165 12.7021Z"/>
<path id="path25_fill" d="M 11.3291 11.0146C 11.3291 12.2686 11.1182 13.3643 10.6963 14.3018C 10.2744 15.2334 9.67676 15.9453 8.90332 16.4375C 8.12988 16.9297 7.22754 17.1758 6.19629 17.1758C 5.18848 17.1758 4.29492 16.9297 3.51562 16.4375C 2.73633 15.9395 2.12988 15.2334 1.69629 14.3193C 1.26855 13.3994 1.04883 12.3359 1.03711 11.1289L 1.03711 10.2061C 1.03711 8.97559 1.25098 7.88867 1.67871 6.94531C 2.10645 6.00195 2.70996 5.28125 3.48926 4.7832C 4.27441 4.2793 5.1709 4.02734 6.17871 4.02734C 7.2041 4.02734 8.10645 4.27637 8.88574 4.77441C 9.6709 5.2666 10.2744 5.98438 10.6963 6.92773C 11.1182 7.86523 11.3291 8.95801 11.3291 10.2061L 11.3291 11.0146ZM 9.65039 10.1885C 9.65039 8.6709 9.3457 7.50781 8.73633 6.69922C 8.12695 5.88477 7.27441 5.47754 6.17871 5.47754C 5.1123 5.47754 4.27148 5.88477 3.65625 6.69922C 3.04688 7.50781 2.7334 8.63281 2.71582 10.0742L 2.71582 11.0146C 2.71582 12.4854 3.02344 13.6426 3.63867 14.4863C 4.25977 15.3242 5.1123 15.7432 6.19629 15.7432C 7.28613 15.7432 8.12988 15.3477 8.72754 14.5566C 9.3252 13.7598 9.63281 12.6201 9.65039 11.1377L 9.65039 10.1885ZM 15.1436 7.49023L 15.1963 8.68555C 15.9229 7.77148 16.8721 7.31445 18.0439 7.31445C 20.0537 7.31445 21.0674 8.44824 21.085 10.7158L 21.085 17L 19.459 17L 19.459 10.707C 19.4531 10.0215 19.2949 9.51465 18.9844 9.18652C 18.6797 8.8584 18.2021 8.69434 17.5518 8.69434C 17.0244 8.69434 16.5615 8.83496 16.1631 9.11621C 15.7646 9.39746 15.4541 9.7666 15.2314 10.2236L 15.2314 17L 13.6055 17L 13.6055 7.49023L 15.1436 7.49023ZM 27.4834 17.1758C 26.1943 17.1758 25.1455 16.7539 24.3369 15.9102C 23.5283 15.0605 23.124 13.9268 23.124 12.5088L 23.124 12.21C 23.124 11.2666 23.3027 10.4258 23.6602 9.6875C 24.0234 8.94336 24.5273 8.36328 25.1719 7.94727C 25.8223 7.52539 26.5254 7.31445 27.2812 7.31445C 28.5176 7.31445 29.4785 7.72168 30.1641 8.53613C 30.8496 9.35059 31.1924 10.5166 31.1924 12.0342L 31.1924 12.7109L 24.75 12.7109C 24.7734 13.6484 25.0459 14.4072 25.5674 14.9873C 26.0947 15.5615 26.7627 15.8486 27.5713 15.8486C 28.1455 15.8486 28.6318 15.7314 29.0303 15.4971C 29.4287 15.2627 29.7773 14.9521 30.0762 14.5654L 31.0693 15.3389C 30.2725 16.5635 29.0771 17.1758 27.4834 17.1758ZM 27.2812 8.65039C 26.625 8.65039 26.0742 8.89062 25.6289 9.37109C 25.1836 9.8457 24.9082 10.5137 24.8027 11.375L 29.5664 11.375L 29.5664 11.252C 29.5195 10.4258 29.2969 9.78711 28.8984 9.33594C 28.5 8.87891 27.9609 8.65039 27.2812 8.65039ZM 43.084 14.4775C 43.084 14.0381 42.917 13.6982 42.583 13.458C 42.2549 13.2119 41.6777 13.001 40.8516 12.8252C 40.0312 12.6494 39.3779 12.4385 38.8916 12.1924C 38.4111 11.9463 38.0537 11.6533 37.8193 11.3135C 37.5908 10.9736 37.4766 10.5693 37.4766 10.1006C 37.4766 9.32129 37.8047 8.66211 38.4609 8.12305C 39.123 7.58398 39.9668 7.31445 40.9922 7.31445C 42.0703 7.31445 42.9434 7.59277 43.6113 8.14941C 44.2852 8.70605 44.6221 9.41797 44.6221 10.2852L 42.9873 10.2852C 42.9873 9.83984 42.7969 9.45605 42.416 9.13379C 42.041 8.81152 41.5664 8.65039 40.9922 8.65039C 40.4004 8.65039 39.9375 8.7793 39.6035 9.03711C 39.2695 9.29492 39.1025 9.63184 39.1025 10.0479C 39.1025 10.4404 39.2578 10.7363 39.5684 10.9355C 39.8789 11.1348 40.4385 11.3252 41.2471 11.5068C 42.0615 11.6885 42.7207 11.9053 43.2246 12.1572C 43.7285 12.4092 44.1006 12.7139 44.3408 13.0713C 44.5869 13.4229 44.71 13.8535 44.71 14.3633C 44.71 15.2129 44.3701 15.8955 43.6904 16.4111C 43.0107 16.9209 42.1289 17.1758 41.0449 17.1758C 40.2832 17.1758 39.6094 17.041 39.0234 16.7715C 38.4375 16.502 37.9775 16.127 37.6436 15.6465C 37.3154 15.1602 37.1514 14.6357 37.1514 14.0732L 38.7773 14.0732C 38.8066 14.6182 39.0234 15.0518 39.4277 15.374C 39.8379 15.6904 40.377 15.8486 41.0449 15.8486C 41.6602 15.8486 42.1523 15.7256 42.5215 15.4795C 42.8965 15.2275 43.084 14.8936 43.084 14.4775ZM 46.3975 12.1572C 46.3975 11.2256 46.5791 10.3877 46.9424 9.64355C 47.3115 8.89941 47.8213 8.3252 48.4717 7.9209C 49.1279 7.5166 49.875 7.31445 50.7129 7.31445C 52.0078 7.31445 53.0537 7.7627 53.8506 8.65918C 54.6533 9.55566 55.0547 10.748 55.0547 12.2363L 55.0547 12.3506C 55.0547 13.2764 54.876 14.1084 54.5186 14.8467C 54.167 15.5791 53.6602 16.1504 52.998 16.5605C 52.3418 16.9707 51.5859 17.1758 50.7305 17.1758C 49.4414 17.1758 48.3955 16.7275 47.5928 15.8311C 46.7959 14.9346 46.3975 13.748 46.3975 12.2715L 46.3975 12.1572ZM 48.0322 12.3506C 48.0322 13.4053 48.2754 14.252 48.7617 14.8906C 49.2539 15.5293 49.9102 15.8486 50.7305 15.8486C 51.5566 15.8486 52.2129 15.5264 52.6992 14.8818C 53.1855 14.2314 53.4287 13.3232 53.4287 12.1572C 53.4287 11.1143 53.1797 10.2705 52.6816 9.62598C 52.1895 8.97559 51.5332 8.65039 50.7129 8.65039C 49.9102 8.65039 49.2627 8.96973 48.7705 9.6084C 48.2783 10.2471 48.0322 11.1611 48.0322 12.3506ZM 58.8604 17L 57.2344 17L 57.2344 3.5L 58.8604 3.5L 58.8604 17ZM 67.3418 16.0596C 66.709 16.8037 65.7803 17.1758 64.5557 17.1758C 63.542 17.1758 62.7686 16.8828 62.2354 16.2969C 61.708 15.7051 61.4414 14.832 61.4355 13.6777L 61.4355 7.49023L 63.0615 7.49023L 63.0615 13.6338C 63.0615 15.0752 63.6475 15.7959 64.8193 15.7959C 66.0615 15.7959 66.8877 15.333 67.2979 14.4072L 67.2979 7.49023L 68.9238 7.49023L 68.9238 17L 67.377 17L 67.3418 16.0596ZM 73.6084 5.1875L 73.6084 7.49023L 75.3838 7.49023L 75.3838 8.74707L 73.6084 8.74707L 73.6084 14.6445C 73.6084 15.0254 73.6875 15.3125 73.8457 15.5059C 74.0039 15.6934 74.2734 15.7871 74.6543 15.7871C 74.8418 15.7871 75.0996 15.752 75.4277 15.6816L 75.4277 17C 75 17.1172 74.584 17.1758 74.1797 17.1758C 73.4531 17.1758 72.9053 16.9561 72.5361 16.5166C 72.167 16.0771 71.9824 15.4531 71.9824 14.6445L 71.9824 8.74707L 70.251 8.74707L 70.251 7.49023L 71.9824 7.49023L 71.9824 5.1875L 73.6084 5.1875ZM 79.0576 17L 77.4316 17L 77.4316 7.49023L 79.0576 7.49023L 79.0576 17ZM 77.2998 4.96777C 77.2998 4.7041 77.3789 4.48145 77.5371 4.2998C 77.7012 4.11816 77.9414 4.02734 78.2578 4.02734C 78.5742 4.02734 78.8145 4.11816 78.9785 4.2998C 79.1426 4.48145 79.2246 4.7041 79.2246 4.96777C 79.2246 5.23145 79.1426 5.45117 78.9785 5.62695C 78.8145 5.80273 78.5742 5.89062 78.2578 5.89062C 77.9414 5.89062 77.7012 5.80273 77.5371 5.62695C 77.3789 5.45117 77.2998 5.23145 77.2998 4.96777ZM 81.2373 12.1572C 81.2373 11.2256 81.4189 10.3877 81.7822 9.64355C 82.1514 8.89941 82.6611 8.3252 83.3115 7.9209C 83.9678 7.5166 84.7148 7.31445 85.5527 7.31445C 86.8477 7.31445 87.8936 7.7627 88.6904 8.65918C 89.4932 9.55566 89.8945 10.748 89.8945 12.2363L 89.8945 12.3506C 89.8945 13.2764 89.7158 14.1084 89.3584 14.8467C 89.0068 15.5791 88.5 16.1504 87.8379 16.5605C 87.1816 16.9707 86.4258 17.1758 85.5703 17.1758C 84.2812 17.1758 83.2354 16.7275 82.4326 15.8311C 81.6357 14.9346 81.2373 13.748 81.2373 12.2715L 81.2373 12.1572ZM 82.8721 12.3506C 82.8721 13.4053 83.1152 14.252 83.6016 14.8906C 84.0938 15.5293 84.75 15.8486 85.5703 15.8486C 86.3965 15.8486 87.0527 15.5264 87.5391 14.8818C 88.0254 14.2314 88.2686 13.3232 88.2686 12.1572C 88.2686 11.1143 88.0195 10.2705 87.5215 9.62598C 87.0293 8.97559 86.373 8.65039 85.5527 8.65039C 84.75 8.65039 84.1025 8.96973 83.6104 9.6084C 83.1182 10.2471 82.8721 11.1611 82.8721 12.3506ZM 93.4717 7.49023L 93.5244 8.68555C 94.251 7.77148 95.2002 7.31445 96.3721 7.31445C 98.3818 7.31445 99.3955 8.44824 99.4131 10.7158L 99.4131 17L 97.7871 17L 97.7871 10.707C 97.7812 10.0215 97.623 9.51465 97.3125 9.18652C 97.0078 8.8584 96.5303 8.69434 95.8799 8.69434C 95.3525 8.69434 94.8896 8.83496 94.4912 9.11621C 94.0928 9.39746 93.7822 9.7666 93.5596 10.2236L 93.5596 17L 91.9336 17L 91.9336 7.49023L 93.4717 7.49023Z"/>
<path id="path26_fill" d="M 3.2959 17L 1.6084 17L 1.6084 4.20312L 3.2959 4.20312L 3.2959 17ZM 7.67285 7.49023L 7.72559 8.68555C 8.45215 7.77148 9.40137 7.31445 10.5732 7.31445C 12.583 7.31445 13.5967 8.44824 13.6143 10.7158L 13.6143 17L 11.9883 17L 11.9883 10.707C 11.9824 10.0215 11.8242 9.51465 11.5137 9.18652C 11.209 8.8584 10.7314 8.69434 10.0811 8.69434C 9.55371 8.69434 9.09082 8.83496 8.69238 9.11621C 8.29395 9.39746 7.9834 9.7666 7.76074 10.2236L 7.76074 17L 6.13477 17L 6.13477 7.49023L 7.67285 7.49023ZM 16.6113 17L 16.6113 8.74707L 15.1084 8.74707L 15.1084 7.49023L 16.6113 7.49023L 16.6113 6.68164C 16.6113 5.62109 16.9131 4.79492 17.5166 4.20312C 18.126 3.61133 18.9844 3.31543 20.0918 3.31543C 20.748 3.31543 21.5771 3.49414 22.5791 3.85156L 22.3066 5.22266C 21.5742 4.92969 20.877 4.7832 20.2148 4.7832C 19.5176 4.7832 19.0137 4.94141 18.7031 5.25781C 18.3984 5.56836 18.2461 6.03711 18.2461 6.66406L 18.2461 7.49023L 20.1885 7.49023L 20.1885 8.74707L 18.2461 8.74707L 18.2461 17L 16.6113 17ZM 23.3877 17L 21.7529 17L 21.7529 7.49023L 23.3877 7.49023L 23.3877 17ZM 27.5713 7.49023L 27.624 8.68555C 28.3506 7.77148 29.2998 7.31445 30.4717 7.31445C 32.4814 7.31445 33.4951 8.44824 33.5127 10.7158L 33.5127 17L 31.8867 17L 31.8867 10.707C 31.8809 10.0215 31.7227 9.51465 31.4121 9.18652C 31.1074 8.8584 30.6299 8.69434 29.9795 8.69434C 29.4521 8.69434 28.9893 8.83496 28.5908 9.11621C 28.1924 9.39746 27.8818 9.7666 27.6592 10.2236L 27.6592 17L 26.0332 17L 26.0332 7.49023L 27.5713 7.49023ZM 37.7314 17L 36.1055 17L 36.1055 7.49023L 37.7314 7.49023L 37.7314 17ZM 35.9736 4.96777C 35.9736 4.7041 36.0527 4.48145 36.2109 4.2998C 36.375 4.11816 36.6152 4.02734 36.9316 4.02734C 37.248 4.02734 37.4883 4.11816 37.6523 4.2998C 37.8164 4.48145 37.8984 4.7041 37.8984 4.96777C 37.8984 5.23145 37.8164 5.45117 37.6523 5.62695C 37.4883 5.80273 37.248 5.89062 36.9316 5.89062C 36.6152 5.89062 36.375 5.80273 36.2109 5.62695C 36.0527 5.45117 35.9736 5.23145 35.9736 4.96777ZM 42.5479 5.1875L 42.5479 7.49023L 44.3232 7.49023L 44.3232 8.74707L 42.5479 8.74707L 42.5479 14.6445C 42.5479 15.0254 42.627 15.3125 42.7852 15.5059C 42.9434 15.6934 43.2129 15.7871 43.5938 15.7871C 43.7812 15.7871 44.0391 15.752 44.3672 15.6816L 44.3672 17C 43.9395 17.1172 43.5234 17.1758 43.1191 17.1758C 42.3926 17.1758 41.8447 16.9561 41.4756 16.5166C 41.1064 16.0771 40.9219 15.4531 40.9219 14.6445L 40.9219 8.74707L 39.1904 8.74707L 39.1904 7.49023L 40.9219 7.49023L 40.9219 5.1875L 42.5479 5.1875ZM 50.1768 17.1758C 48.8877 17.1758 47.8389 16.7539 47.0303 15.9102C 46.2217 15.0605 45.8174 13.9268 45.8174 12.5088L 45.8174 12.21C 45.8174 11.2666 45.9961 10.4258 46.3535 9.6875C 46.7168 8.94336 47.2207 8.36328 47.8652 7.94727C 48.5156 7.52539 49.2188 7.31445 49.9746 7.31445C 51.2109 7.31445 52.1719 7.72168 52.8574 8.53613C 53.543 9.35059 53.8857 10.5166 53.8857 12.0342L 53.8857 12.7109L 47.4434 12.7109C 47.4668 13.6484 47.7393 14.4072 48.2607 14.9873C 48.7881 15.5615 49.4561 15.8486 50.2646 15.8486C 50.8389 15.8486 51.3252 15.7314 51.7236 15.4971C 52.1221 15.2627 52.4707 14.9521 52.7695 14.5654L 53.7627 15.3389C 52.9658 16.5635 51.7705 17.1758 50.1768 17.1758ZM 49.9746 8.65039C 49.3184 8.65039 48.7676 8.89062 48.3223 9.37109C 47.877 9.8457 47.6016 10.5137 47.4961 11.375L 52.2598 11.375L 52.2598 11.252C 52.2129 10.4258 51.9902 9.78711 51.5918 9.33594C 51.1934 8.87891 50.6543 8.65039 49.9746 8.65039ZM 64.2656 11.2959C 62.8184 10.8799 61.7637 10.3701 61.1016 9.7666C 60.4453 9.15723 60.1172 8.40723 60.1172 7.5166C 60.1172 6.50879 60.5186 5.67676 61.3213 5.02051C 62.1299 4.3584 63.1787 4.02734 64.4678 4.02734C 65.3467 4.02734 66.1289 4.19727 66.8145 4.53711C 67.5059 4.87695 68.0391 5.3457 68.4141 5.94336C 68.7949 6.54102 68.9854 7.19434 68.9854 7.90332L 67.2891 7.90332C 67.2891 7.12988 67.043 6.52344 66.5508 6.08398C 66.0586 5.63867 65.3643 5.41602 64.4678 5.41602C 63.6357 5.41602 62.9854 5.60059 62.5166 5.96973C 62.0537 6.33301 61.8223 6.83984 61.8223 7.49023C 61.8223 8.01172 62.042 8.4541 62.4814 8.81738C 62.9268 9.1748 63.6797 9.50293 64.7402 9.80176C 65.8066 10.1006 66.6387 10.4316 67.2363 10.7949C 67.8398 11.1523 68.2852 11.5713 68.5723 12.0518C 68.8652 12.5322 69.0117 13.0977 69.0117 13.748C 69.0117 14.7852 68.6074 15.6172 67.7988 16.2441C 66.9902 16.8652 65.9092 17.1758 64.5557 17.1758C 63.6768 17.1758 62.8564 17.0088 62.0947 16.6748C 61.333 16.335 60.7441 15.8721 60.3281 15.2861C 59.918 14.7002 59.7129 14.0352 59.7129 13.291L 61.4092 13.291C 61.4092 14.0645 61.6934 14.6768 62.2617 15.1279C 62.8359 15.5732 63.6006 15.7959 64.5557 15.7959C 65.4463 15.7959 66.1289 15.6143 66.6035 15.251C 67.0781 14.8877 67.3154 14.3926 67.3154 13.7656C 67.3154 13.1387 67.0957 12.6553 66.6562 12.3154C 66.2168 11.9697 65.4199 11.6299 64.2656 11.2959ZM 70.4971 12.1572C 70.4971 11.2256 70.6787 10.3877 71.042 9.64355C 71.4111 8.89941 71.9209 8.3252 72.5713 7.9209C 73.2275 7.5166 73.9746 7.31445 74.8125 7.31445C 76.1074 7.31445 77.1533 7.7627 77.9502 8.65918C 78.7529 9.55566 79.1543 10.748 79.1543 12.2363L 79.1543 12.3506C 79.1543 13.2764 78.9756 14.1084 78.6182 14.8467C 78.2666 15.5791 77.7598 16.1504 77.0977 16.5605C 76.4414 16.9707 75.6855 17.1758 74.8301 17.1758C 73.541 17.1758 72.4951 16.7275 71.6924 15.8311C 70.8955 14.9346 70.4971 13.748 70.4971 12.2715L 70.4971 12.1572ZM 72.1318 12.3506C 72.1318 13.4053 72.375 14.252 72.8613 14.8906C 73.3535 15.5293 74.0098 15.8486 74.8301 15.8486C 75.6562 15.8486 76.3125 15.5264 76.7988 14.8818C 77.2852 14.2314 77.5283 13.3232 77.5283 12.1572C 77.5283 11.1143 77.2793 10.2705 76.7812 9.62598C 76.2891 8.97559 75.6328 8.65039 74.8125 8.65039C 74.0098 8.65039 73.3623 8.96973 72.8701 9.6084C 72.3779 10.2471 72.1318 11.1611 72.1318 12.3506ZM 82.96 17L 81.334 17L 81.334 3.5L 82.96 3.5L 82.96 17ZM 91.4414 16.0596C 90.8086 16.8037 89.8799 17.1758 88.6553 17.1758C 87.6416 17.1758 86.8682 16.8828 86.335 16.2969C 85.8076 15.7051 85.541 14.832 85.5352 13.6777L 85.5352 7.49023L 87.1611 7.49023L 87.1611 13.6338C 87.1611 15.0752 87.7471 15.7959 88.9189 15.7959C 90.1611 15.7959 90.9873 15.333 91.3975 14.4072L 91.3975 7.49023L 93.0234 7.49023L 93.0234 17L 91.4766 17L 91.4414 16.0596ZM 97.708 5.1875L 97.708 7.49023L 99.4834 7.49023L 99.4834 8.74707L 97.708 8.74707L 97.708 14.6445C 97.708 15.0254 97.7871 15.3125 97.9453 15.5059C 98.1035 15.6934 98.373 15.7871 98.7539 15.7871C 98.9414 15.7871 99.1992 15.752 99.5273 15.6816L 99.5273 17C 99.0996 17.1172 98.6836 17.1758 98.2793 17.1758C 97.5527 17.1758 97.0049 16.9561 96.6357 16.5166C 96.2666 16.0771 96.082 15.4531 96.082 14.6445L 96.082 8.74707L 94.3506 8.74707L 94.3506 7.49023L 96.082 7.49023L 96.082 5.1875L 97.708 5.1875ZM 103.157 17L 101.531 17L 101.531 7.49023L 103.157 7.49023L 103.157 17ZM 101.399 4.96777C 101.399 4.7041 101.479 4.48145 101.637 4.2998C 101.801 4.11816 102.041 4.02734 102.357 4.02734C 102.674 4.02734 102.914 4.11816 103.078 4.2998C 103.242 4.48145 103.324 4.7041 103.324 4.96777C 103.324 5.23145 103.242 5.45117 103.078 5.62695C 102.914 5.80273 102.674 5.89062 102.357 5.89062C 102.041 5.89062 101.801 5.80273 101.637 5.62695C 101.479 5.45117 101.399 5.23145 101.399 4.96777ZM 105.337 12.1572C 105.337 11.2256 105.519 10.3877 105.882 9.64355C 106.251 8.89941 106.761 8.3252 107.411 7.9209C 108.067 7.5166 108.814 7.31445 109.652 7.31445C 110.947 7.31445 111.993 7.7627 112.79 8.65918C 113.593 9.55566 113.994 10.748 113.994 12.2363L 113.994 12.3506C 113.994 13.2764 113.815 14.1084 113.458 14.8467C 113.106 15.5791 112.6 16.1504 111.938 16.5605C 111.281 16.9707 110.525 17.1758 109.67 17.1758C 108.381 17.1758 107.335 16.7275 106.532 15.8311C 105.735 14.9346 105.337 13.748 105.337 12.2715L 105.337 12.1572ZM 106.972 12.3506C 106.972 13.4053 107.215 14.252 107.701 14.8906C 108.193 15.5293 108.85 15.8486 109.67 15.8486C 110.496 15.8486 111.152 15.5264 111.639 14.8818C 112.125 14.2314 112.368 13.3232 112.368 12.1572C 112.368 11.1143 112.119 10.2705 111.621 9.62598C 111.129 8.97559 110.473 8.65039 109.652 8.65039C 108.85 8.65039 108.202 8.96973 107.71 9.6084C 107.218 10.2471 106.972 11.1611 106.972 12.3506ZM 117.571 7.49023L 117.624 8.68555C 118.351 7.77148 119.3 7.31445 120.472 7.31445C 122.481 7.31445 123.495 8.44824 123.513 10.7158L 123.513 17L 121.887 17L 121.887 10.707C 121.881 10.0215 121.723 9.51465 121.412 9.18652C 121.107 8.8584 120.63 8.69434 119.979 8.69434C 119.452 8.69434 118.989 8.83496 118.591 9.11621C 118.192 9.39746 117.882 9.7666 117.659 10.2236L 117.659 17L 116.033 17L 116.033 7.49023L 117.571 7.49023ZM 131.502 14.4775C 131.502 14.0381 131.335 13.6982 131.001 13.458C 130.673 13.2119 130.096 13.001 129.27 12.8252C 128.449 12.6494 127.796 12.4385 127.31 12.1924C 126.829 11.9463 126.472 11.6533 126.237 11.3135C 126.009 10.9736 125.895 10.5693 125.895 10.1006C 125.895 9.32129 126.223 8.66211 126.879 8.12305C 127.541 7.58398 128.385 7.31445 129.41 7.31445C 130.488 7.31445 131.361 7.59277 132.029 8.14941C 132.703 8.70605 133.04 9.41797 133.04 10.2852L 131.405 10.2852C 131.405 9.83984 131.215 9.45605 130.834 9.13379C 130.459 8.81152 129.984 8.65039 129.41 8.65039C 128.818 8.65039 128.355 8.7793 128.021 9.03711C 127.688 9.29492 127.521 9.63184 127.521 10.0479C 127.521 10.4404 127.676 10.7363 127.986 10.9355C 128.297 11.1348 128.856 11.3252 129.665 11.5068C 130.479 11.6885 131.139 11.9053 131.643 12.1572C 132.146 12.4092 132.519 12.7139 132.759 13.0713C 133.005 13.4229 133.128 13.8535 133.128 14.3633C 133.128 15.2129 132.788 15.8955 132.108 16.4111C 131.429 16.9209 130.547 17.1758 129.463 17.1758C 128.701 17.1758 128.027 17.041 127.441 16.7715C 126.855 16.502 126.396 16.127 126.062 15.6465C 125.733 15.1602 125.569 14.6357 125.569 14.0732L 127.195 14.0732C 127.225 14.6182 127.441 15.0518 127.846 15.374C 128.256 15.6904 128.795 15.8486 129.463 15.8486C 130.078 15.8486 130.57 15.7256 130.939 15.4795C 131.314 15.2275 131.502 14.8936 131.502 14.4775Z"/>
</defs>
</svg>

