<svg width="473" height="181" viewBox="0 0 473 181" version="1.1" xmlns="http://www.w3.org/2000/svg" xmlns:xlink="http://www.w3.org/1999/xlink">
<title>Group.svg</title>
<desc>Created using Figma</desc>
<g id="Canvas" transform="translate(216 -604)">
<g id="Group">
<g id="= 2.5 x + 0">
<use xlink:href="#path0_fill" transform="translate(-178 607)"/>
</g>
<g id="1">
<use xlink:href="#path1_fill" transform="translate(-131 617)"/>
</g>
<g id="Line 4">
<use xlink:href="#path2_stroke" transform="matrix(6.12323e-17 1 -1 6.12323e-17 -199 653)"/>
</g>
<g id="Line 6">
<use xlink:href="#path3_stroke" transform="translate(-199 755)"/>
</g>
<g id="Ellipse">
<use xlink:href="#path4_fill" transform="translate(-185 735)" fill="#C4C4C4"/>
</g>
<g id="Ellipse">
<use xlink:href="#path4_fill" transform="translate(-180 743)" fill="#C4C4C4"/>
</g>
<g id="Ellipse">
<use xlink:href="#path4_fill" transform="translate(-173 732)" fill="#C4C4C4"/>
</g>
<g id="Ellipse">
<use xlink:href="#path4_fill" transform="translate(-179 720)" fill="#C4C4C4"/>
</g>
<g id="Ellipse">
<use xlink:href="#path4_fill" transform="translate(-174 728)" fill="#C4C4C4"/>
</g>
<g id="Ellipse">
<use xlink:href="#path4_fill" transform="translate(-167 717)" fill="#C4C4C4"/>
</g>
<g id="Ellipse">
<use xlink:href="#path4_fill" transform="translate(-158 705)" fill="#C4C4C4"/>
</g>
<g id="Ellipse">
<use xlink:href="#path4_fill" transform="translate(-153 713)" fill="#C4C4C4"/>
</g>
<g id="Ellipse">
<use xlink:href="#path4_fill" transform="translate(-146 702)" fill="#C4C4C4"/>
</g>
<g id="Ellipse">
<use xlink:href="#path4_fill" transform="translate(-174 695)" fill="#C4C4C4"/>
</g>
<g id="Ellipse">
<use xlink:href="#path4_fill" transform="translate(-169 703)" fill="#C4C4C4"/>
</g>
<g id="Ellipse">
<use xlink:href="#path4_fill" transform="translate(-162 692)" fill="#C4C4C4"/>
</g>
<g id="Ellipse">
<use xlink:href="#path4_fill" transform="translate(-162 725)" fill="#C4C4C4"/>
</g>
<g id="Ellipse">
<use xlink:href="#path4_fill" transform="translate(-157 733)" fill="#C4C4C4"/>
</g>
<g id="Ellipse">
<use xlink:href="#path4_fill" transform="translate(-150 722)" fill="#C4C4C4"/>
</g>
<g id="Ellipse">
<use xlink:href="#path4_fill" transform="translate(-152 684)" fill="#C4C4C4"/>
</g>
<g id="Ellipse">
<use xlink:href="#path4_fill" transform="translate(-147 692)" fill="#C4C4C4"/>
</g>
<g id="Ellipse">
<use xlink:href="#path4_fill" transform="translate(-140 681)" fill="#C4C4C4"/>
</g>
<g id="Ellipse">
<use xlink:href="#path4_fill" transform="translate(-140 690)" fill="#C4C4C4"/>
</g>
<g id="Ellipse">
<use xlink:href="#path4_fill" transform="translate(-135 698)" fill="#C4C4C4"/>
</g>
<g id="Ellipse">
<use xlink:href="#path4_fill" transform="translate(-128 687)" fill="#C4C4C4"/>
</g>
<g id="Ellipse">
<use xlink:href="#path4_fill" transform="translate(-134 665)" fill="#C4C4C4"/>
</g>
<g id="Ellipse">
<use xlink:href="#path4_fill" transform="translate(-129 673)" fill="#C4C4C4"/>
</g>
<g id="Ellipse">
<use xlink:href="#path4_fill" transform="translate(-122 662)" fill="#C4C4C4"/>
</g>
<g id="Ellipse">
<use xlink:href="#path4_fill" transform="translate(-117 673)" fill="#C4C4C4"/>
</g>
<g id="Ellipse">
<use xlink:href="#path4_fill" transform="translate(-112 681)" fill="#C4C4C4"/>
</g>
<g id="Ellipse">
<use xlink:href="#path4_fill" transform="translate(-105 670)" fill="#C4C4C4"/>
</g>
<g id="Line 7">
<use xlink:href="#path5_stroke" transform="matrix(0.707107 -0.707107 0.707107 0.707107 -198 755)" fill="#2F80ED"/>
</g>
<g id="Line 7">
<use xlink:href="#path6_stroke" transform="matrix(0.780115 -0.625637 0.625637 0.780115 -23 754)" fill="#2F80ED"/>
</g>
<g id="x">
<use xlink:href="#path7_fill" transform="translate(-153 762)"/>
</g>
<g id="1">
<use xlink:href="#path8_fill" transform="translate(-143 774)"/>
</g>
<g id="y">
<use xlink:href="#path9_fill" transform="translate(-216 684)"/>
</g>
<g id="Line 4">
<use xlink:href="#path2_stroke" transform="matrix(6.12323e-17 1 -1 6.12323e-17 -24 653)"/>
</g>
<g id="Line 6">
<use xlink:href="#path3_stroke" transform="translate(-24 755)"/>
</g>
<g id="Ellipse">
<use xlink:href="#path10_fill" transform="translate(-10 735)" fill="#C4C4C4"/>
</g>
<g id="Ellipse">
<use xlink:href="#path10_fill" transform="translate(-9 744)" fill="#C4C4C4"/>
</g>
<g id="Ellipse">
<use xlink:href="#path10_fill" transform="translate(2 732)" fill="#C4C4C4"/>
</g>
<g id="Ellipse">
<use xlink:href="#path10_fill" transform="translate(-4 720)" fill="#C4C4C4"/>
</g>
<g id="Ellipse">
<use xlink:href="#path10_fill" transform="translate(1 728)" fill="#C4C4C4"/>
</g>
<g id="Ellipse">
<use xlink:href="#path10_fill" transform="translate(8 717)" fill="#C4C4C4"/>
</g>
<g id="Ellipse">
<use xlink:href="#path10_fill" transform="translate(17 705)" fill="#C4C4C4"/>
</g>
<g id="Ellipse">
<use xlink:href="#path10_fill" transform="translate(22 713)" fill="#C4C4C4"/>
</g>
<g id="Ellipse">
<use xlink:href="#path10_fill" transform="translate(29 702)" fill="#C4C4C4"/>
</g>
<g id="Ellipse">
<use xlink:href="#path10_fill" transform="translate(22 709)" fill="#C4C4C4"/>
</g>
<g id="Ellipse">
<use xlink:href="#path10_fill" transform="translate(6 703)" fill="#C4C4C4"/>
</g>
<g id="Ellipse">
<use xlink:href="#path10_fill" transform="translate(34 706)" fill="#C4C4C4"/>
</g>
<g id="Ellipse">
<use xlink:href="#path10_fill" transform="translate(13 725)" fill="#C4C4C4"/>
</g>
<g id="Ellipse">
<use xlink:href="#path10_fill" transform="translate(18 733)" fill="#C4C4C4"/>
</g>
<g id="Ellipse">
<use xlink:href="#path10_fill" transform="translate(25 722)" fill="#C4C4C4"/>
</g>
<g id="Ellipse">
<use xlink:href="#path10_fill" transform="translate(44 698)" fill="#C4C4C4"/>
</g>
<g id="Ellipse">
<use xlink:href="#path10_fill" transform="translate(47 706)" fill="#C4C4C4"/>
</g>
<g id="Ellipse">
<use xlink:href="#path10_fill" transform="translate(56 695)" fill="#C4C4C4"/>
</g>
<g id="Ellipse">
<use xlink:href="#path10_fill" transform="translate(56 704)" fill="#C4C4C4"/>
</g>
<g id="Ellipse">
<use xlink:href="#path10_fill" transform="translate(40 698)" fill="#C4C4C4"/>
</g>
<g id="Ellipse">
<use xlink:href="#path10_fill" transform="translate(47 687)" fill="#C4C4C4"/>
</g>
<g id="Ellipse">
<use xlink:href="#path10_fill" transform="translate(51 686)" fill="#C4C4C4"/>
</g>
<g id="Ellipse">
<use xlink:href="#path10_fill" transform="translate(54 694)" fill="#C4C4C4"/>
</g>
<g id="Ellipse">
<use xlink:href="#path10_fill" transform="translate(61 683)" fill="#C4C4C4"/>
</g>
<g id="Ellipse">
<use xlink:href="#path10_fill" transform="translate(66 694)" fill="#C4C4C4"/>
</g>
<g id="Ellipse">
<use xlink:href="#path10_fill" transform="translate(63 681)" fill="#C4C4C4"/>
</g>
<g id="Ellipse">
<use xlink:href="#path10_fill" transform="translate(78 691)" fill="#C4C4C4"/>
</g>
<g id="x">
<use xlink:href="#path7_fill" transform="translate(22 762)"/>
</g>
<g id="1">
<use xlink:href="#path8_fill" transform="translate(32 774)"/>
</g>
<g id="y">
<use xlink:href="#path9_fill" transform="translate(-41 684)"/>
</g>
<g id="Line 7">
<use xlink:href="#path11_stroke" transform="matrix(0.816968 0.576683 -0.576683 0.816968 143 668)" fill="#2F80ED"/>
</g>
<g id="Line 4">
<use xlink:href="#path2_stroke" transform="matrix(6.12323e-17 1 -1 6.12323e-17 142 653)"/>
</g>
<g id="Line 6">
<use xlink:href="#path3_stroke" transform="translate(142 755)"/>
</g>
<g id="Ellipse">
<use xlink:href="#path10_fill" transform="matrix(0.31662 0.948552 -0.948552 0.31662 158.066 672)" fill="#C4C4C4"/>
</g>
<g id="Ellipse">
<use xlink:href="#path10_fill" transform="matrix(0.31662 0.948552 -0.948552 0.31662 149.846 675.798)" fill="#C4C4C4"/>
</g>
<g id="Ellipse">
<use xlink:href="#path10_fill" transform="matrix(0.31662 0.948552 -0.948552 0.31662 164.711 682.433)" fill="#C4C4C4"/>
</g>
<g id="Ellipse">
<use xlink:href="#path10_fill" transform="matrix(0.31662 0.948552 -0.948552 0.31662 174.194 672.942)" fill="#C4C4C4"/>
</g>
<g id="Ellipse">
<use xlink:href="#path10_fill" transform="matrix(0.31662 0.948552 -0.948552 0.31662 168.189 680.218)" fill="#C4C4C4"/>
</g>
<g id="Ellipse">
<use xlink:href="#path10_fill" transform="matrix(0.31662 0.948552 -0.948552 0.31662 180.839 683.375)" fill="#C4C4C4"/>
</g>
<g id="Ellipse">
<use xlink:href="#path10_fill" transform="matrix(0.31662 0.948552 -0.948552 0.31662 195.071 688.112)" fill="#C4C4C4"/>
</g>
<g id="Ellipse">
<use xlink:href="#path10_fill" transform="matrix(0.31662 0.948552 -0.948552 0.31662 189.066 695.388)" fill="#C4C4C4"/>
</g>
<g id="Ellipse">
<use xlink:href="#path10_fill" transform="matrix(0.31662 0.948552 -0.948552 0.31662 201.716 698.545)" fill="#C4C4C4"/>
</g>
<g id="Ellipse">
<use xlink:href="#path10_fill" transform="matrix(0.31662 0.948552 -0.948552 0.31662 192.86 694.122)" fill="#C4C4C4"/>
</g>
<g id="Ellipse">
<use xlink:href="#path10_fill" transform="matrix(0.31662 0.948552 -0.948552 0.31662 193.486 677.045)" fill="#C4C4C4"/>
</g>
<g id="Ellipse">
<use xlink:href="#path10_fill" transform="matrix(0.31662 0.948552 -0.948552 0.31662 199.505 704.554)" fill="#C4C4C4"/>
</g>
<g id="Ellipse">
<use xlink:href="#path10_fill" transform="matrix(0.31662 0.948552 -0.948552 0.31662 174.834 690.65)" fill="#C4C4C4"/>
</g>
<g id="Ellipse">
<use xlink:href="#path10_fill" transform="matrix(0.31662 0.948552 -0.948552 0.31662 168.828 697.926)" fill="#C4C4C4"/>
</g>
<g id="Ellipse">
<use xlink:href="#path10_fill" transform="matrix(0.31662 0.948552 -0.948552 0.31662 181.479 701.083)" fill="#C4C4C4"/>
</g>
<g id="Ellipse">
<use xlink:href="#path10_fill" transform="matrix(0.31662 0.948552 -0.948552 0.31662 210.26 711.507)" fill="#C4C4C4"/>
</g>
<g id="Ellipse">
<use xlink:href="#path10_fill" transform="matrix(0.31662 0.948552 -0.948552 0.31662 203.621 716.885)" fill="#C4C4C4"/>
</g>
<g id="Ellipse">
<use xlink:href="#path10_fill" transform="matrix(0.31662 0.948552 -0.948552 0.31662 216.905 721.94)" fill="#C4C4C4"/>
</g>
<g id="Ellipse">
<use xlink:href="#path10_fill" transform="matrix(0.31662 0.948552 -0.948552 0.31662 208.368 724.789)" fill="#C4C4C4"/>
</g>
<g id="Ellipse">
<use xlink:href="#path10_fill" transform="matrix(0.31662 0.948552 -0.948552 0.31662 208.993 707.713)" fill="#C4C4C4"/>
</g>
<g id="Ellipse">
<use xlink:href="#path10_fill" transform="matrix(0.31662 0.948552 -0.948552 0.31662 221.644 710.87)" fill="#C4C4C4"/>
</g>
<g id="Ellipse">
<use xlink:href="#path10_fill" transform="matrix(0.31662 0.948552 -0.948552 0.31662 223.859 714.347)" fill="#C4C4C4"/>
</g>
<g id="Ellipse">
<use xlink:href="#path10_fill" transform="matrix(0.31662 0.948552 -0.948552 0.31662 217.22 719.726)" fill="#C4C4C4"/>
</g>
<g id="Ellipse">
<use xlink:href="#path10_fill" transform="matrix(0.31662 0.948552 -0.948552 0.31662 229.871 722.883)" fill="#C4C4C4"/>
</g>
<g id="Ellipse">
<use xlink:href="#path10_fill" transform="matrix(0.31662 0.948552 -0.948552 0.31662 221.02 731.109)" fill="#C4C4C4"/>
</g>
<g id="Ellipse">
<use xlink:href="#path10_fill" transform="matrix(0.31662 0.948552 -0.948552 0.31662 232.401 724.147)" fill="#C4C4C4"/>
</g>
<g id="Ellipse">
<use xlink:href="#path10_fill" transform="matrix(0.31662 0.948552 -0.948552 0.31662 227.665 741.541)" fill="#C4C4C4"/>
</g>
<g id="x">
<use xlink:href="#path7_fill" transform="translate(188 762)"/>
</g>
<g id="1">
<use xlink:href="#path8_fill" transform="translate(198 774)"/>
</g>
<g id="y">
<use xlink:href="#path9_fill" transform="translate(125 684)"/>
</g>
<g id="y">
<use xlink:href="#path12_fill" transform="translate(-100 646)" fill="#2F80ED"/>
</g>
<g id="^">
<use xlink:href="#path13_fill" transform="translate(-99 640)" fill="#2F80ED"/>
</g>
<g id="y">
<use xlink:href="#path12_fill" transform="translate(-194 607)" fill="#2F80ED"/>
</g>
<g id="^">
<use xlink:href="#path13_fill" transform="translate(-193 601)" fill="#2F80ED"/>
</g>
<g id="= 1.5 x + 0">
<use xlink:href="#path14_fill" transform="translate(1 607)"/>
</g>
<g id="1">
<use xlink:href="#path1_fill" transform="translate(48 617)"/>
</g>
<g id="y">
<use xlink:href="#path12_fill" transform="translate(-14 607)" fill="#2F80ED"/>
</g>
<g id="^">
<use xlink:href="#path13_fill" transform="translate(-13 601)" fill="#2F80ED"/>
</g>
<g id="= -2x + 8">
<use xlink:href="#path15_fill" transform="translate(163 607)"/>
</g>
<g id="1">
<use xlink:href="#path1_fill" transform="translate(201 617)"/>
</g>
<g id="y">
<use xlink:href="#path12_fill" transform="translate(153 607)" fill="#2F80ED"/>
</g>
<g id="^">
<use xlink:href="#path13_fill" transform="translate(154 601)" fill="#2F80ED"/>
</g>
<g id="y">
<use xlink:href="#path12_fill" transform="translate(83 657)" fill="#2F80ED"/>
</g>
<g id="^">
<use xlink:href="#path13_fill" transform="translate(84 651)" fill="#2F80ED"/>
</g>
<g id="y">
<use xlink:href="#path12_fill" transform="translate(249 735)" fill="#2F80ED"/>
</g>
<g id="^">
<use xlink:href="#path13_fill" transform="translate(250 729)" fill="#2F80ED"/>
</g>
</g>
</g>
<defs>
<path id="path0_fill" d="M 7.70312 8.64062L 1.1875 8.64062L 1.1875 7.38281L 7.70312 7.38281L 7.70312 8.64062ZM 7.70312 11.8828L 1.1875 11.8828L 1.1875 10.6328L 7.70312 10.6328L 7.70312 11.8828ZM 21.1484 15L 13.6953 15L 13.6953 13.9609L 17.6328 9.58594C 18.2161 8.92448 18.6172 8.38802 18.8359 7.97656C 19.0599 7.5599 19.1719 7.13021 19.1719 6.6875C 19.1719 6.09375 18.9922 5.60677 18.6328 5.22656C 18.2734 4.84635 17.7943 4.65625 17.1953 4.65625C 16.4766 4.65625 15.9167 4.86198 15.5156 5.27344C 15.1198 5.67969 14.9219 6.2474 14.9219 6.97656L 13.4766 6.97656C 13.4766 5.92969 13.8125 5.08333 14.4844 4.4375C 15.1615 3.79167 16.0651 3.46875 17.1953 3.46875C 18.2526 3.46875 19.0885 3.7474 19.7031 4.30469C 20.3177 4.85677 20.625 5.59375 20.625 6.51562C 20.625 7.63542 19.9115 8.96875 18.4844 10.5156L 15.4375 13.8203L 21.1484 13.8203L 21.1484 15ZM 22.8594 14.2422C 22.8594 13.9922 22.9323 13.7839 23.0781 13.6172C 23.2292 13.4505 23.4531 13.3672 23.75 13.3672C 24.0469 13.3672 24.2708 13.4505 24.4219 13.6172C 24.5781 13.7839 24.6562 13.9922 24.6562 14.2422C 24.6562 14.4818 24.5781 14.6823 24.4219 14.8438C 24.2708 15.0052 24.0469 15.0859 23.75 15.0859C 23.4531 15.0859 23.2292 15.0052 23.0781 14.8438C 22.9323 14.6823 22.8594 14.4818 22.8594 14.2422ZM 27.5625 9.29688L 28.1406 3.625L 33.9688 3.625L 33.9688 4.96094L 29.3672 4.96094L 29.0234 8.0625C 29.5807 7.73438 30.2135 7.57031 30.9219 7.57031C 31.9583 7.57031 32.7812 7.91406 33.3906 8.60156C 34 9.28385 34.3047 10.2083 34.3047 11.375C 34.3047 12.5469 33.987 13.4714 33.3516 14.1484C 32.7214 14.8203 31.8385 15.1562 30.7031 15.1562C 29.6979 15.1562 28.8776 14.8776 28.2422 14.3203C 27.6068 13.763 27.2448 12.9922 27.1562 12.0078L 28.5234 12.0078C 28.612 12.6589 28.8438 13.151 29.2188 13.4844C 29.5938 13.8125 30.0885 13.9766 30.7031 13.9766C 31.375 13.9766 31.901 13.7474 32.2812 13.2891C 32.6667 12.8307 32.8594 12.1979 32.8594 11.3906C 32.8594 10.6302 32.651 10.0208 32.2344 9.5625C 31.8229 9.09896 31.2734 8.86719 30.5859 8.86719C 29.9557 8.86719 29.4609 9.00521 29.1016 9.28125L 28.7188 9.59375L 27.5625 9.29688ZM 42.8359 9.63281L 44.7109 6.54688L 46.3984 6.54688L 43.6328 10.7266L 46.4844 15L 44.8125 15L 42.8594 11.8359L 40.9062 15L 39.2266 15L 42.0781 10.7266L 39.3125 6.54688L 40.9844 6.54688L 42.8359 9.63281ZM 60.0156 8.89844L 63.1875 8.89844L 63.1875 10.2656L 60.0156 10.2656L 60.0156 13.8594L 58.5625 13.8594L 58.5625 10.2656L 55.3906 10.2656L 55.3906 8.89844L 58.5625 8.89844L 58.5625 5.57812L 60.0156 5.57812L 60.0156 8.89844ZM 75.9062 10.1484C 75.9062 11.8411 75.6172 13.099 75.0391 13.9219C 74.4609 14.7448 73.5573 15.1562 72.3281 15.1562C 71.1146 15.1562 70.2161 14.7552 69.6328 13.9531C 69.0495 13.1458 68.7474 11.9427 68.7266 10.3438L 68.7266 8.41406C 68.7266 6.74219 69.0156 5.5 69.5938 4.6875C 70.1719 3.875 71.0781 3.46875 72.3125 3.46875C 73.5365 3.46875 74.4375 3.86198 75.0156 4.64844C 75.5938 5.42969 75.8906 6.63802 75.9062 8.27344L 75.9062 10.1484ZM 74.4609 8.17188C 74.4609 6.94792 74.2891 6.05729 73.9453 5.5C 73.6016 4.9375 73.0573 4.65625 72.3125 4.65625C 71.5729 4.65625 71.0339 4.9349 70.6953 5.49219C 70.3568 6.04948 70.1823 6.90625 70.1719 8.0625L 70.1719 10.375C 70.1719 11.6042 70.349 12.513 70.7031 13.1016C 71.0625 13.6849 71.6042 13.9766 72.3281 13.9766C 73.0417 13.9766 73.5703 13.7005 73.9141 13.1484C 74.263 12.5964 74.4453 11.7266 74.4609 10.5391L 74.4609 8.17188Z"/>
<path id="path1_fill" d="M 3.55957 9L 2.65137 9L 2.65137 2.97949L 0.830078 3.64844L 0.830078 2.82812L 3.41797 1.85645L 3.55957 1.85645L 3.55957 9Z"/>
<path id="path2_stroke" d="M 0 0L 102 0L 102 -1L 0 -1L 0 0Z"/>
<path id="path3_stroke" d="M 0 -5.55112e-17L 103 -5.55112e-17L 103 -1L 0 -1L 0 -5.55112e-17Z"/>
<path id="path4_fill" d="M 3 1.5C 3 2.32843 2.32843 3 1.5 3C 0.671573 3 0 2.32843 0 1.5C 0 0.671573 0.671573 0 1.5 0C 2.32843 0 3 0.671573 3 1.5Z"/>
<path id="path5_stroke" d="M 0 0L 132.936 0L 132.936 -0.75L 0 -0.75L 0 0Z"/>
<path id="path6_stroke" d="M 0 0L 129.468 0L 129.468 -0.75L 0 -0.75L 0 0Z"/>
<path id="path7_fill" d="M 4.4209 10.9619L 6.53027 7.49023L 8.42871 7.49023L 5.31738 12.1924L 8.52539 17L 6.64453 17L 4.44727 13.4404L 2.25 17L 0.360352 17L 3.56836 12.1924L 0.457031 7.49023L 2.33789 7.49023L 4.4209 10.9619Z"/>
<path id="path8_fill" d="M 4.27148 11L 3.18164 11L 3.18164 3.77539L 0.996094 4.57812L 0.996094 3.59375L 4.10156 2.42773L 4.27148 2.42773L 4.27148 11Z"/>
<path id="path9_fill" d="M 4.3418 14.6182L 6.55664 7.49023L 8.29688 7.49023L 4.47363 18.4678C 3.88184 20.0498 2.94141 20.8408 1.65234 20.8408L 1.34473 20.8145L 0.738281 20.7002L 0.738281 19.3818L 1.17773 19.417C 1.72852 19.417 2.15625 19.3057 2.46094 19.083C 2.77148 18.8604 3.02637 18.4531 3.22559 17.8613L 3.58594 16.8945L 0.193359 7.49023L 1.96875 7.49023L 4.3418 14.6182Z"/>
<path id="path10_fill" d="M 3 1.5C 3 2.32843 2.32843 3 1.5 3C 0.671573 3 0 2.32843 0 1.5C 0 0.671573 0.671573 0 1.5 0C 2.32843 0 3 0.671573 3 1.5Z"/>
<path id="path11_stroke" d="M 0 0L 124.852 0L 124.852 -0.75L 0 -0.75L 0 0Z"/>
<path id="path12_fill" d="M 3.85938 12.8828L 5.82812 6.54688L 7.375 6.54688L 3.97656 16.3047C 3.45052 17.7109 2.61458 18.4141 1.46875 18.4141L 1.19531 18.3906L 0.65625 18.2891L 0.65625 17.1172L 1.04688 17.1484C 1.53646 17.1484 1.91667 17.0495 2.1875 16.8516C 2.46354 16.6536 2.6901 16.2917 2.86719 15.7656L 3.1875 14.9062L 0.171875 6.54688L 1.75 6.54688L 3.85938 12.8828Z"/>
<path id="path13_fill" d="M 3.32812 5.53906L 1.84375 9.30469L 0.5 9.30469L 2.83594 3.625L 3.82812 3.625L 6.15625 9.30469L 4.82031 9.30469L 3.32812 5.53906Z"/>
<path id="path14_fill" d="M 7.70312 8.64062L 1.1875 8.64062L 1.1875 7.38281L 7.70312 7.38281L 7.70312 8.64062ZM 7.70312 11.8828L 1.1875 11.8828L 1.1875 10.6328L 7.70312 10.6328L 7.70312 11.8828ZM 18.4453 15L 16.9922 15L 16.9922 5.36719L 14.0781 6.4375L 14.0781 5.125L 18.2188 3.57031L 18.4453 3.57031L 18.4453 15ZM 22.8594 14.2422C 22.8594 13.9922 22.9323 13.7839 23.0781 13.6172C 23.2292 13.4505 23.4531 13.3672 23.75 13.3672C 24.0469 13.3672 24.2708 13.4505 24.4219 13.6172C 24.5781 13.7839 24.6562 13.9922 24.6562 14.2422C 24.6562 14.4818 24.5781 14.6823 24.4219 14.8438C 24.2708 15.0052 24.0469 15.0859 23.75 15.0859C 23.4531 15.0859 23.2292 15.0052 23.0781 14.8438C 22.9323 14.6823 22.8594 14.4818 22.8594 14.2422ZM 27.5625 9.29688L 28.1406 3.625L 33.9688 3.625L 33.9688 4.96094L 29.3672 4.96094L 29.0234 8.0625C 29.5807 7.73438 30.2135 7.57031 30.9219 7.57031C 31.9583 7.57031 32.7812 7.91406 33.3906 8.60156C 34 9.28385 34.3047 10.2083 34.3047 11.375C 34.3047 12.5469 33.987 13.4714 33.3516 14.1484C 32.7214 14.8203 31.8385 15.1562 30.7031 15.1562C 29.6979 15.1562 28.8776 14.8776 28.2422 14.3203C 27.6068 13.763 27.2448 12.9922 27.1562 12.0078L 28.5234 12.0078C 28.612 12.6589 28.8438 13.151 29.2188 13.4844C 29.5938 13.8125 30.0885 13.9766 30.7031 13.9766C 31.375 13.9766 31.901 13.7474 32.2812 13.2891C 32.6667 12.8307 32.8594 12.1979 32.8594 11.3906C 32.8594 10.6302 32.651 10.0208 32.2344 9.5625C 31.8229 9.09896 31.2734 8.86719 30.5859 8.86719C 29.9557 8.86719 29.4609 9.00521 29.1016 9.28125L 28.7188 9.59375L 27.5625 9.29688ZM 42.8359 9.63281L 44.7109 6.54688L 46.3984 6.54688L 43.6328 10.7266L 46.4844 15L 44.8125 15L 42.8594 11.8359L 40.9062 15L 39.2266 15L 42.0781 10.7266L 39.3125 6.54688L 40.9844 6.54688L 42.8359 9.63281ZM 60.0156 8.89844L 63.1875 8.89844L 63.1875 10.2656L 60.0156 10.2656L 60.0156 13.8594L 58.5625 13.8594L 58.5625 10.2656L 55.3906 10.2656L 55.3906 8.89844L 58.5625 8.89844L 58.5625 5.57812L 60.0156 5.57812L 60.0156 8.89844ZM 75.9062 10.1484C 75.9062 11.8411 75.6172 13.099 75.0391 13.9219C 74.4609 14.7448 73.5573 15.1562 72.3281 15.1562C 71.1146 15.1562 70.2161 14.7552 69.6328 13.9531C 69.0495 13.1458 68.7474 11.9427 68.7266 10.3438L 68.7266 8.41406C 68.7266 6.74219 69.0156 5.5 69.5938 4.6875C 70.1719 3.875 71.0781 3.46875 72.3125 3.46875C 73.5365 3.46875 74.4375 3.86198 75.0156 4.64844C 75.5938 5.42969 75.8906 6.63802 75.9062 8.27344L 75.9062 10.1484ZM 74.4609 8.17188C 74.4609 6.94792 74.2891 6.05729 73.9453 5.5C 73.6016 4.9375 73.0573 4.65625 72.3125 4.65625C 71.5729 4.65625 71.0339 4.9349 70.6953 5.49219C 70.3568 6.04948 70.1823 6.90625 70.1719 8.0625L 70.1719 10.375C 70.1719 11.6042 70.349 12.513 70.7031 13.1016C 71.0625 13.6849 71.6042 13.9766 72.3281 13.9766C 73.0417 13.9766 73.5703 13.7005 73.9141 13.1484C 74.263 12.5964 74.4453 11.7266 74.4609 10.5391L 74.4609 8.17188Z"/>
<path id="path15_fill" d="M 11.6719 8.64062L 5.15625 8.64062L 5.15625 7.38281L 11.6719 7.38281L 11.6719 8.64062ZM 11.6719 11.8828L 5.15625 11.8828L 5.15625 10.6328L 11.6719 10.6328L 11.6719 11.8828ZM 20.8203 10.7578L 17.0078 10.7578L 17.0078 9.57812L 20.8203 9.57812L 20.8203 10.7578ZM 29.5391 15L 22.0859 15L 22.0859 13.9609L 26.0234 9.58594C 26.6068 8.92448 27.0078 8.38802 27.2266 7.97656C 27.4505 7.5599 27.5625 7.13021 27.5625 6.6875C 27.5625 6.09375 27.3828 5.60677 27.0234 5.22656C 26.6641 4.84635 26.1849 4.65625 25.5859 4.65625C 24.8672 4.65625 24.3073 4.86198 23.9062 5.27344C 23.5104 5.67969 23.3125 6.2474 23.3125 6.97656L 21.8672 6.97656C 21.8672 5.92969 22.2031 5.08333 22.875 4.4375C 23.5521 3.79167 24.4557 3.46875 25.5859 3.46875C 26.6432 3.46875 27.4792 3.7474 28.0938 4.30469C 28.7083 4.85677 29.0156 5.59375 29.0156 6.51562C 29.0156 7.63542 28.3021 8.96875 26.875 10.5156L 23.8281 13.8203L 29.5391 13.8203L 29.5391 15ZM 34.0547 9.63281L 35.9297 6.54688L 37.6172 6.54688L 34.8516 10.7266L 37.7031 15L 36.0312 15L 34.0781 11.8359L 32.125 15L 30.4453 15L 33.2969 10.7266L 30.5312 6.54688L 32.2031 6.54688L 34.0547 9.63281ZM 51.2344 8.89844L 54.4062 8.89844L 54.4062 10.2656L 51.2344 10.2656L 51.2344 13.8594L 49.7812 13.8594L 49.7812 10.2656L 46.6094 10.2656L 46.6094 8.89844L 49.7812 8.89844L 49.7812 5.57812L 51.2344 5.57812L 51.2344 8.89844ZM 66.8906 6.59375C 66.8906 7.16146 66.7396 7.66667 66.4375 8.10938C 66.1406 8.55208 65.737 8.89844 65.2266 9.14844C 65.8203 9.40365 66.2891 9.77604 66.6328 10.2656C 66.9818 10.7552 67.1562 11.3099 67.1562 11.9297C 67.1562 12.9141 66.8229 13.6979 66.1562 14.2812C 65.4948 14.8646 64.6224 15.1562 63.5391 15.1562C 62.4453 15.1562 61.5677 14.8646 60.9062 14.2812C 60.25 13.6927 59.9219 12.9089 59.9219 11.9297C 59.9219 11.3151 60.0885 10.7604 60.4219 10.2656C 60.7604 9.77083 61.2266 9.39583 61.8203 9.14062C 61.3151 8.89062 60.9167 8.54427 60.625 8.10156C 60.3333 7.65885 60.1875 7.15625 60.1875 6.59375C 60.1875 5.63542 60.4948 4.875 61.1094 4.3125C 61.724 3.75 62.5339 3.46875 63.5391 3.46875C 64.5391 3.46875 65.3464 3.75 65.9609 4.3125C 66.5807 4.875 66.8906 5.63542 66.8906 6.59375ZM 65.7109 11.8984C 65.7109 11.263 65.5078 10.7448 65.1016 10.3438C 64.7005 9.94271 64.1745 9.74219 63.5234 9.74219C 62.8724 9.74219 62.349 9.9401 61.9531 10.3359C 61.5625 10.7318 61.3672 11.2526 61.3672 11.8984C 61.3672 12.5443 61.5573 13.0521 61.9375 13.4219C 62.3229 13.7917 62.8568 13.9766 63.5391 13.9766C 64.2161 13.9766 64.7474 13.7917 65.1328 13.4219C 65.5182 13.0469 65.7109 12.5391 65.7109 11.8984ZM 63.5391 4.65625C 62.9714 4.65625 62.5104 4.83333 62.1562 5.1875C 61.8073 5.53646 61.6328 6.01302 61.6328 6.61719C 61.6328 7.19531 61.8047 7.66406 62.1484 8.02344C 62.4974 8.3776 62.9609 8.55469 63.5391 8.55469C 64.1172 8.55469 64.5781 8.3776 64.9219 8.02344C 65.2708 7.66406 65.4453 7.19531 65.4453 6.61719C 65.4453 6.03906 65.2656 5.56771 64.9062 5.20312C 64.5469 4.83854 64.0911 4.65625 63.5391 4.65625Z"/>
</defs>
</svg>

