<svg width="489" height="35" viewBox="0 0 489 35" version="1.1" xmlns="http://www.w3.org/2000/svg" xmlns:xlink="http://www.w3.org/1999/xlink">
<title>Group</title>
<desc>Created using Figma</desc>
<g id="Canvas" transform="translate(232 182)">
<g id="Group">
<g id="y = 1000 + 30x y = 100 + 50x">
<use xlink:href="#path0_fill" transform="translate(-232 -185)" fill="#2D9CDB"/>
<use xlink:href="#path1_fill" transform="translate(-232 -185)" fill="#F2994A"/>
<use xlink:href="#path2_fill" transform="translate(-232 -185)"/>
</g>
<g id="Arrow 2">
<use xlink:href="#path3_stroke" transform="translate(-111 -168)"/>
</g>
<g id="1000 + 30x = 100 + 50x">
<use xlink:href="#path4_fill" transform="translate(-89 -178)"/>
<use xlink:href="#path5_fill" transform="translate(-89 -178)" fill="#2D9CDB"/>
<use xlink:href="#path6_fill" transform="translate(-89 -178)" fill="#F2994A"/>
</g>
<g id="Arrow 2">
<use xlink:href="#path3_stroke" transform="translate(86 -169)"/>
</g>
<g id="900 = 20x">
<use xlink:href="#path7_fill" transform="translate(110 -179)"/>
</g>
<g id="Arrow 2">
<use xlink:href="#path3_stroke" transform="translate(189 -170)"/>
</g>
<g id="45 = x">
<use xlink:href="#path8_fill" transform="translate(214 -179)"/>
</g>
</g>
</g>
<defs>
<path id="path0_fill" d="M 37.9297 34L 36.4766 34L 36.4766 24.3672L 33.5625 25.4375L 33.5625 24.125L 37.7031 22.5703L 37.9297 22.5703L 37.9297 34ZM 49.2969 29.1484C 49.2969 30.8411 49.0078 32.099 48.4297 32.9219C 47.8516 33.7448 46.9479 34.1562 45.7188 34.1562C 44.5052 34.1562 43.6068 33.7552 43.0234 32.9531C 42.4401 32.1458 42.138 30.9427 42.1172 29.3438L 42.1172 27.4141C 42.1172 25.7422 42.4062 24.5 42.9844 23.6875C 43.5625 22.875 44.4688 22.4688 45.7031 22.4688C 46.9271 22.4688 47.8281 22.862 48.4062 23.6484C 48.9844 24.4297 49.2812 25.638 49.2969 27.2734L 49.2969 29.1484ZM 47.8516 27.1719C 47.8516 25.9479 47.6797 25.0573 47.3359 24.5C 46.9922 23.9375 46.4479 23.6562 45.7031 23.6562C 44.9635 23.6562 44.4245 23.9349 44.0859 24.4922C 43.7474 25.0495 43.5729 25.9062 43.5625 27.0625L 43.5625 29.375C 43.5625 30.6042 43.7396 31.513 44.0938 32.1016C 44.4531 32.6849 44.9948 32.9766 45.7188 32.9766C 46.4323 32.9766 46.9609 32.7005 47.3047 32.1484C 47.6536 31.5964 47.8359 30.7266 47.8516 29.5391L 47.8516 27.1719ZM 58.2812 29.1484C 58.2812 30.8411 57.9922 32.099 57.4141 32.9219C 56.8359 33.7448 55.9323 34.1562 54.7031 34.1562C 53.4896 34.1562 52.5911 33.7552 52.0078 32.9531C 51.4245 32.1458 51.1224 30.9427 51.1016 29.3438L 51.1016 27.4141C 51.1016 25.7422 51.3906 24.5 51.9688 23.6875C 52.5469 22.875 53.4531 22.4688 54.6875 22.4688C 55.9115 22.4688 56.8125 22.862 57.3906 23.6484C 57.9688 24.4297 58.2656 25.638 58.2812 27.2734L 58.2812 29.1484ZM 56.8359 27.1719C 56.8359 25.9479 56.6641 25.0573 56.3203 24.5C 55.9766 23.9375 55.4323 23.6562 54.6875 23.6562C 53.9479 23.6562 53.4089 23.9349 53.0703 24.4922C 52.7318 25.0495 52.5573 25.9062 52.5469 27.0625L 52.5469 29.375C 52.5469 30.6042 52.724 31.513 53.0781 32.1016C 53.4375 32.6849 53.9792 32.9766 54.7031 32.9766C 55.4167 32.9766 55.9453 32.7005 56.2891 32.1484C 56.638 31.5964 56.8203 30.7266 56.8359 29.5391L 56.8359 27.1719ZM 68.3906 27.8984L 71.5625 27.8984L 71.5625 29.2656L 68.3906 29.2656L 68.3906 32.8594L 66.9375 32.8594L 66.9375 29.2656L 63.7656 29.2656L 63.7656 27.8984L 66.9375 27.8984L 66.9375 24.5781L 68.3906 24.5781L 68.3906 27.8984ZM 77.8125 28.2969L 78.3906 22.625L 84.2188 22.625L 84.2188 23.9609L 79.6172 23.9609L 79.2734 27.0625C 79.8307 26.7344 80.4635 26.5703 81.1719 26.5703C 82.2083 26.5703 83.0312 26.9141 83.6406 27.6016C 84.25 28.2839 84.5547 29.2083 84.5547 30.375C 84.5547 31.5469 84.237 32.4714 83.6016 33.1484C 82.9714 33.8203 82.0885 34.1562 80.9531 34.1562C 79.9479 34.1562 79.1276 33.8776 78.4922 33.3203C 77.8568 32.763 77.4948 31.9922 77.4062 31.0078L 78.7734 31.0078C 78.862 31.6589 79.0938 32.151 79.4688 32.4844C 79.8438 32.8125 80.3385 32.9766 80.9531 32.9766C 81.625 32.9766 82.151 32.7474 82.5312 32.2891C 82.9167 31.8307 83.1094 31.1979 83.1094 30.3906C 83.1094 29.6302 82.901 29.0208 82.4844 28.5625C 82.0729 28.099 81.5234 27.8672 80.8359 27.8672C 80.2057 27.8672 79.7109 28.0052 79.3516 28.2812L 78.9688 28.5938L 77.8125 28.2969ZM 93.2656 29.1484C 93.2656 30.8411 92.9766 32.099 92.3984 32.9219C 91.8203 33.7448 90.9167 34.1562 89.6875 34.1562C 88.474 34.1562 87.5755 33.7552 86.9922 32.9531C 86.4089 32.1458 86.1068 30.9427 86.0859 29.3438L 86.0859 27.4141C 86.0859 25.7422 86.375 24.5 86.9531 23.6875C 87.5312 22.875 88.4375 22.4688 89.6719 22.4688C 90.8958 22.4688 91.7969 22.862 92.375 23.6484C 92.9531 24.4297 93.25 25.638 93.2656 27.2734L 93.2656 29.1484ZM 91.8203 27.1719C 91.8203 25.9479 91.6484 25.0573 91.3047 24.5C 90.9609 23.9375 90.4167 23.6562 89.6719 23.6562C 88.9323 23.6562 88.3932 23.9349 88.0547 24.4922C 87.7161 25.0495 87.5417 25.9062 87.5312 27.0625L 87.5312 29.375C 87.5312 30.6042 87.7083 31.513 88.0625 32.1016C 88.4219 32.6849 88.9635 32.9766 89.6875 32.9766C 90.401 32.9766 90.9297 32.7005 91.2734 32.1484C 91.6224 31.5964 91.8047 30.7266 91.8203 29.5391L 91.8203 27.1719ZM 98.1016 28.6328L 99.9766 25.5469L 101.664 25.5469L 98.8984 29.7266L 101.75 34L 100.078 34L 98.125 30.8359L 96.1719 34L 94.4922 34L 97.3438 29.7266L 94.5781 25.5469L 96.25 25.5469L 98.1016 28.6328Z"/>
<path id="path1_fill" d="M 37.9297 15L 36.4766 15L 36.4766 5.36719L 33.5625 6.4375L 33.5625 5.125L 37.7031 3.57031L 37.9297 3.57031L 37.9297 15ZM 49.2969 10.1484C 49.2969 11.8411 49.0078 13.099 48.4297 13.9219C 47.8516 14.7448 46.9479 15.1562 45.7188 15.1562C 44.5052 15.1562 43.6068 14.7552 43.0234 13.9531C 42.4401 13.1458 42.138 11.9427 42.1172 10.3438L 42.1172 8.41406C 42.1172 6.74219 42.4062 5.5 42.9844 4.6875C 43.5625 3.875 44.4688 3.46875 45.7031 3.46875C 46.9271 3.46875 47.8281 3.86198 48.4062 4.64844C 48.9844 5.42969 49.2812 6.63802 49.2969 8.27344L 49.2969 10.1484ZM 47.8516 8.17188C 47.8516 6.94792 47.6797 6.05729 47.3359 5.5C 46.9922 4.9375 46.4479 4.65625 45.7031 4.65625C 44.9635 4.65625 44.4245 4.9349 44.0859 5.49219C 43.7474 6.04948 43.5729 6.90625 43.5625 8.0625L 43.5625 10.375C 43.5625 11.6042 43.7396 12.513 44.0938 13.1016C 44.4531 13.6849 44.9948 13.9766 45.7188 13.9766C 46.4323 13.9766 46.9609 13.7005 47.3047 13.1484C 47.6536 12.5964 47.8359 11.7266 47.8516 10.5391L 47.8516 8.17188ZM 58.2812 10.1484C 58.2812 11.8411 57.9922 13.099 57.4141 13.9219C 56.8359 14.7448 55.9323 15.1562 54.7031 15.1562C 53.4896 15.1562 52.5911 14.7552 52.0078 13.9531C 51.4245 13.1458 51.1224 11.9427 51.1016 10.3438L 51.1016 8.41406C 51.1016 6.74219 51.3906 5.5 51.9688 4.6875C 52.5469 3.875 53.4531 3.46875 54.6875 3.46875C 55.9115 3.46875 56.8125 3.86198 57.3906 4.64844C 57.9688 5.42969 58.2656 6.63802 58.2812 8.27344L 58.2812 10.1484ZM 56.8359 8.17188C 56.8359 6.94792 56.6641 6.05729 56.3203 5.5C 55.9766 4.9375 55.4323 4.65625 54.6875 4.65625C 53.9479 4.65625 53.4089 4.9349 53.0703 5.49219C 52.7318 6.04948 52.5573 6.90625 52.5469 8.0625L 52.5469 10.375C 52.5469 11.6042 52.724 12.513 53.0781 13.1016C 53.4375 13.6849 53.9792 13.9766 54.7031 13.9766C 55.4167 13.9766 55.9453 13.7005 56.2891 13.1484C 56.638 12.5964 56.8203 11.7266 56.8359 10.5391L 56.8359 8.17188ZM 67.2656 10.1484C 67.2656 11.8411 66.9766 13.099 66.3984 13.9219C 65.8203 14.7448 64.9167 15.1562 63.6875 15.1562C 62.474 15.1562 61.5755 14.7552 60.9922 13.9531C 60.4089 13.1458 60.1068 11.9427 60.0859 10.3438L 60.0859 8.41406C 60.0859 6.74219 60.375 5.5 60.9531 4.6875C 61.5312 3.875 62.4375 3.46875 63.6719 3.46875C 64.8958 3.46875 65.7969 3.86198 66.375 4.64844C 66.9531 5.42969 67.25 6.63802 67.2656 8.27344L 67.2656 10.1484ZM 65.8203 8.17188C 65.8203 6.94792 65.6484 6.05729 65.3047 5.5C 64.9609 4.9375 64.4167 4.65625 63.6719 4.65625C 62.9323 4.65625 62.3932 4.9349 62.0547 5.49219C 61.7161 6.04948 61.5417 6.90625 61.5312 8.0625L 61.5312 10.375C 61.5312 11.6042 61.7083 12.513 62.0625 13.1016C 62.4219 13.6849 62.9635 13.9766 63.6875 13.9766C 64.401 13.9766 64.9297 13.7005 65.2734 13.1484C 65.6224 12.5964 65.8047 11.7266 65.8203 10.5391L 65.8203 8.17188ZM 77.375 8.89844L 80.5469 8.89844L 80.5469 10.2656L 77.375 10.2656L 77.375 13.8594L 75.9219 13.8594L 75.9219 10.2656L 72.75 10.2656L 72.75 8.89844L 75.9219 8.89844L 75.9219 5.57812L 77.375 5.57812L 77.375 8.89844ZM 88.2344 8.60938L 89.3203 8.60938C 90.0026 8.59896 90.5391 8.41927 90.9297 8.07031C 91.3203 7.72135 91.5156 7.25 91.5156 6.65625C 91.5156 5.32292 90.8516 4.65625 89.5234 4.65625C 88.8984 4.65625 88.3984 4.83594 88.0234 5.19531C 87.6536 5.54948 87.4688 6.02083 87.4688 6.60938L 86.0234 6.60938C 86.0234 5.70833 86.3516 4.96094 87.0078 4.36719C 87.6693 3.76823 88.5078 3.46875 89.5234 3.46875C 90.5964 3.46875 91.4375 3.7526 92.0469 4.32031C 92.6562 4.88802 92.9609 5.67708 92.9609 6.6875C 92.9609 7.18229 92.7995 7.66146 92.4766 8.125C 92.1589 8.58854 91.724 8.9349 91.1719 9.16406C 91.7969 9.36198 92.2786 9.6901 92.6172 10.1484C 92.9609 10.6068 93.1328 11.1667 93.1328 11.8281C 93.1328 12.849 92.7995 13.6589 92.1328 14.2578C 91.4661 14.8568 90.599 15.1562 89.5312 15.1562C 88.4635 15.1562 87.5938 14.8672 86.9219 14.2891C 86.2552 13.7109 85.9219 12.9479 85.9219 12L 87.375 12C 87.375 12.599 87.5703 13.0781 87.9609 13.4375C 88.3516 13.7969 88.875 13.9766 89.5312 13.9766C 90.2292 13.9766 90.763 13.7943 91.1328 13.4297C 91.5026 13.0651 91.6875 12.5417 91.6875 11.8594C 91.6875 11.1979 91.4844 10.6901 91.0781 10.3359C 90.6719 9.98177 90.0859 9.79948 89.3203 9.78906L 88.2344 9.78906L 88.2344 8.60938ZM 102.25 10.1484C 102.25 11.8411 101.961 13.099 101.383 13.9219C 100.805 14.7448 99.901 15.1562 98.6719 15.1562C 97.4583 15.1562 96.5599 14.7552 95.9766 13.9531C 95.3932 13.1458 95.0911 11.9427 95.0703 10.3438L 95.0703 8.41406C 95.0703 6.74219 95.3594 5.5 95.9375 4.6875C 96.5156 3.875 97.4219 3.46875 98.6562 3.46875C 99.8802 3.46875 100.781 3.86198 101.359 4.64844C 101.938 5.42969 102.234 6.63802 102.25 8.27344L 102.25 10.1484ZM 100.805 8.17188C 100.805 6.94792 100.633 6.05729 100.289 5.5C 99.9453 4.9375 99.401 4.65625 98.6562 4.65625C 97.9167 4.65625 97.3776 4.9349 97.0391 5.49219C 96.7005 6.04948 96.526 6.90625 96.5156 8.0625L 96.5156 10.375C 96.5156 11.6042 96.6927 12.513 97.0469 13.1016C 97.4062 13.6849 97.9479 13.9766 98.6719 13.9766C 99.3854 13.9766 99.9141 13.7005 100.258 13.1484C 100.607 12.5964 100.789 11.7266 100.805 10.5391L 100.805 8.17188ZM 107.086 9.63281L 108.961 6.54688L 110.648 6.54688L 107.883 10.7266L 110.734 15L 109.062 15L 107.109 11.8359L 105.156 15L 103.477 15L 106.328 10.7266L 103.562 6.54688L 105.234 6.54688L 107.086 9.63281Z"/>
<path id="path2_fill" d="M 3.85938 12.8828L 5.82812 6.54688L 7.375 6.54688L 3.97656 16.3047C 3.45052 17.7109 2.61458 18.4141 1.46875 18.4141L 1.19531 18.3906L 0.65625 18.2891L 0.65625 17.1172L 1.04688 17.1484C 1.53646 17.1484 1.91667 17.0495 2.1875 16.8516C 2.46354 16.6536 2.6901 16.2917 2.86719 15.7656L 3.1875 14.9062L 0.171875 6.54688L 1.75 6.54688L 3.85938 12.8828ZM 23.2188 8.64062L 16.7031 8.64062L 16.7031 7.38281L 23.2188 7.38281L 23.2188 8.64062ZM 23.2188 11.8828L 16.7031 11.8828L 16.7031 10.6328L 23.2188 10.6328L 23.2188 11.8828ZM 3.85938 31.8828L 5.82812 25.5469L 7.375 25.5469L 3.97656 35.3047C 3.45052 36.7109 2.61458 37.4141 1.46875 37.4141L 1.19531 37.3906L 0.65625 37.2891L 0.65625 36.1172L 1.04688 36.1484C 1.53646 36.1484 1.91667 36.0495 2.1875 35.8516C 2.46354 35.6536 2.6901 35.2917 2.86719 34.7656L 3.1875 33.9062L 0.171875 25.5469L 1.75 25.5469L 3.85938 31.8828ZM 23.2188 27.6406L 16.7031 27.6406L 16.7031 26.3828L 23.2188 26.3828L 23.2188 27.6406ZM 23.2188 30.8828L 16.7031 30.8828L 16.7031 29.6328L 23.2188 29.6328L 23.2188 30.8828Z"/>
<path id="path3_stroke" d="M 13.3536 0.353553C 13.5488 0.158291 13.5488 -0.158291 13.3536 -0.353553L 10.1716 -3.53553C 9.97631 -3.7308 9.65973 -3.7308 9.46447 -3.53553C 9.2692 -3.34027 9.2692 -3.02369 9.46447 -2.82843L 12.2929 0L 9.46447 2.82843C 9.2692 3.02369 9.2692 3.34027 9.46447 3.53553C 9.65973 3.7308 9.97631 3.7308 10.1716 3.53553L 13.3536 0.353553ZM 0 0.5L 13 0.5L 13 -0.5L 0 -0.5L 0 0.5Z"/>
<path id="path4_fill" d="M 90.5312 8.64062L 84.0156 8.64062L 84.0156 7.38281L 90.5312 7.38281L 90.5312 8.64062ZM 90.5312 11.8828L 84.0156 11.8828L 84.0156 10.6328L 90.5312 10.6328L 90.5312 11.8828Z"/>
<path id="path5_fill" d="M 101.273 15L 99.8203 15L 99.8203 5.36719L 96.9062 6.4375L 96.9062 5.125L 101.047 3.57031L 101.273 3.57031L 101.273 15ZM 112.641 10.1484C 112.641 11.8411 112.352 13.099 111.773 13.9219C 111.195 14.7448 110.292 15.1562 109.062 15.1562C 107.849 15.1562 106.951 14.7552 106.367 13.9531C 105.784 13.1458 105.482 11.9427 105.461 10.3438L 105.461 8.41406C 105.461 6.74219 105.75 5.5 106.328 4.6875C 106.906 3.875 107.812 3.46875 109.047 3.46875C 110.271 3.46875 111.172 3.86198 111.75 4.64844C 112.328 5.42969 112.625 6.63802 112.641 8.27344L 112.641 10.1484ZM 111.195 8.17188C 111.195 6.94792 111.023 6.05729 110.68 5.5C 110.336 4.9375 109.792 4.65625 109.047 4.65625C 108.307 4.65625 107.768 4.9349 107.43 5.49219C 107.091 6.04948 106.917 6.90625 106.906 8.0625L 106.906 10.375C 106.906 11.6042 107.083 12.513 107.438 13.1016C 107.797 13.6849 108.339 13.9766 109.062 13.9766C 109.776 13.9766 110.305 13.7005 110.648 13.1484C 110.997 12.5964 111.18 11.7266 111.195 10.5391L 111.195 8.17188ZM 121.625 10.1484C 121.625 11.8411 121.336 13.099 120.758 13.9219C 120.18 14.7448 119.276 15.1562 118.047 15.1562C 116.833 15.1562 115.935 14.7552 115.352 13.9531C 114.768 13.1458 114.466 11.9427 114.445 10.3438L 114.445 8.41406C 114.445 6.74219 114.734 5.5 115.312 4.6875C 115.891 3.875 116.797 3.46875 118.031 3.46875C 119.255 3.46875 120.156 3.86198 120.734 4.64844C 121.312 5.42969 121.609 6.63802 121.625 8.27344L 121.625 10.1484ZM 120.18 8.17188C 120.18 6.94792 120.008 6.05729 119.664 5.5C 119.32 4.9375 118.776 4.65625 118.031 4.65625C 117.292 4.65625 116.753 4.9349 116.414 5.49219C 116.076 6.04948 115.901 6.90625 115.891 8.0625L 115.891 10.375C 115.891 11.6042 116.068 12.513 116.422 13.1016C 116.781 13.6849 117.323 13.9766 118.047 13.9766C 118.76 13.9766 119.289 13.7005 119.633 13.1484C 119.982 12.5964 120.164 11.7266 120.18 10.5391L 120.18 8.17188ZM 131.734 8.89844L 134.906 8.89844L 134.906 10.2656L 131.734 10.2656L 131.734 13.8594L 130.281 13.8594L 130.281 10.2656L 127.109 10.2656L 127.109 8.89844L 130.281 8.89844L 130.281 5.57812L 131.734 5.57812L 131.734 8.89844ZM 141.156 9.29688L 141.734 3.625L 147.562 3.625L 147.562 4.96094L 142.961 4.96094L 142.617 8.0625C 143.174 7.73438 143.807 7.57031 144.516 7.57031C 145.552 7.57031 146.375 7.91406 146.984 8.60156C 147.594 9.28385 147.898 10.2083 147.898 11.375C 147.898 12.5469 147.581 13.4714 146.945 14.1484C 146.315 14.8203 145.432 15.1562 144.297 15.1562C 143.292 15.1562 142.471 14.8776 141.836 14.3203C 141.201 13.763 140.839 12.9922 140.75 12.0078L 142.117 12.0078C 142.206 12.6589 142.438 13.151 142.812 13.4844C 143.188 13.8125 143.682 13.9766 144.297 13.9766C 144.969 13.9766 145.495 13.7474 145.875 13.2891C 146.26 12.8307 146.453 12.1979 146.453 11.3906C 146.453 10.6302 146.245 10.0208 145.828 9.5625C 145.417 9.09896 144.867 8.86719 144.18 8.86719C 143.549 8.86719 143.055 9.00521 142.695 9.28125L 142.312 9.59375L 141.156 9.29688ZM 156.609 10.1484C 156.609 11.8411 156.32 13.099 155.742 13.9219C 155.164 14.7448 154.26 15.1562 153.031 15.1562C 151.818 15.1562 150.919 14.7552 150.336 13.9531C 149.753 13.1458 149.451 11.9427 149.43 10.3438L 149.43 8.41406C 149.43 6.74219 149.719 5.5 150.297 4.6875C 150.875 3.875 151.781 3.46875 153.016 3.46875C 154.24 3.46875 155.141 3.86198 155.719 4.64844C 156.297 5.42969 156.594 6.63802 156.609 8.27344L 156.609 10.1484ZM 155.164 8.17188C 155.164 6.94792 154.992 6.05729 154.648 5.5C 154.305 4.9375 153.76 4.65625 153.016 4.65625C 152.276 4.65625 151.737 4.9349 151.398 5.49219C 151.06 6.04948 150.885 6.90625 150.875 8.0625L 150.875 10.375C 150.875 11.6042 151.052 12.513 151.406 13.1016C 151.766 13.6849 152.307 13.9766 153.031 13.9766C 153.745 13.9766 154.273 13.7005 154.617 13.1484C 154.966 12.5964 155.148 11.7266 155.164 10.5391L 155.164 8.17188ZM 161.445 9.63281L 163.32 6.54688L 165.008 6.54688L 162.242 10.7266L 165.094 15L 163.422 15L 161.469 11.8359L 159.516 15L 157.836 15L 160.688 10.7266L 157.922 6.54688L 159.594 6.54688L 161.445 9.63281Z"/>
<path id="path6_fill" d="M 5.69531 15L 4.24219 15L 4.24219 5.36719L 1.32812 6.4375L 1.32812 5.125L 5.46875 3.57031L 5.69531 3.57031L 5.69531 15ZM 17.0625 10.1484C 17.0625 11.8411 16.7734 13.099 16.1953 13.9219C 15.6172 14.7448 14.7135 15.1562 13.4844 15.1562C 12.2708 15.1562 11.3724 14.7552 10.7891 13.9531C 10.2057 13.1458 9.90365 11.9427 9.88281 10.3438L 9.88281 8.41406C 9.88281 6.74219 10.1719 5.5 10.75 4.6875C 11.3281 3.875 12.2344 3.46875 13.4688 3.46875C 14.6927 3.46875 15.5938 3.86198 16.1719 4.64844C 16.75 5.42969 17.0469 6.63802 17.0625 8.27344L 17.0625 10.1484ZM 15.6172 8.17188C 15.6172 6.94792 15.4453 6.05729 15.1016 5.5C 14.7578 4.9375 14.2135 4.65625 13.4688 4.65625C 12.7292 4.65625 12.1901 4.9349 11.8516 5.49219C 11.513 6.04948 11.3385 6.90625 11.3281 8.0625L 11.3281 10.375C 11.3281 11.6042 11.5052 12.513 11.8594 13.1016C 12.2188 13.6849 12.7604 13.9766 13.4844 13.9766C 14.1979 13.9766 14.7266 13.7005 15.0703 13.1484C 15.4193 12.5964 15.6016 11.7266 15.6172 10.5391L 15.6172 8.17188ZM 26.0469 10.1484C 26.0469 11.8411 25.7578 13.099 25.1797 13.9219C 24.6016 14.7448 23.6979 15.1562 22.4688 15.1562C 21.2552 15.1562 20.3568 14.7552 19.7734 13.9531C 19.1901 13.1458 18.888 11.9427 18.8672 10.3438L 18.8672 8.41406C 18.8672 6.74219 19.1562 5.5 19.7344 4.6875C 20.3125 3.875 21.2188 3.46875 22.4531 3.46875C 23.6771 3.46875 24.5781 3.86198 25.1562 4.64844C 25.7344 5.42969 26.0312 6.63802 26.0469 8.27344L 26.0469 10.1484ZM 24.6016 8.17188C 24.6016 6.94792 24.4297 6.05729 24.0859 5.5C 23.7422 4.9375 23.1979 4.65625 22.4531 4.65625C 21.7135 4.65625 21.1745 4.9349 20.8359 5.49219C 20.4974 6.04948 20.3229 6.90625 20.3125 8.0625L 20.3125 10.375C 20.3125 11.6042 20.4896 12.513 20.8438 13.1016C 21.2031 13.6849 21.7448 13.9766 22.4688 13.9766C 23.1823 13.9766 23.7109 13.7005 24.0547 13.1484C 24.4036 12.5964 24.5859 11.7266 24.6016 10.5391L 24.6016 8.17188ZM 35.0312 10.1484C 35.0312 11.8411 34.7422 13.099 34.1641 13.9219C 33.5859 14.7448 32.6823 15.1562 31.4531 15.1562C 30.2396 15.1562 29.3411 14.7552 28.7578 13.9531C 28.1745 13.1458 27.8724 11.9427 27.8516 10.3438L 27.8516 8.41406C 27.8516 6.74219 28.1406 5.5 28.7188 4.6875C 29.2969 3.875 30.2031 3.46875 31.4375 3.46875C 32.6615 3.46875 33.5625 3.86198 34.1406 4.64844C 34.7188 5.42969 35.0156 6.63802 35.0312 8.27344L 35.0312 10.1484ZM 33.5859 8.17188C 33.5859 6.94792 33.4141 6.05729 33.0703 5.5C 32.7266 4.9375 32.1823 4.65625 31.4375 4.65625C 30.6979 4.65625 30.1589 4.9349 29.8203 5.49219C 29.4818 6.04948 29.3073 6.90625 29.2969 8.0625L 29.2969 10.375C 29.2969 11.6042 29.474 12.513 29.8281 13.1016C 30.1875 13.6849 30.7292 13.9766 31.4531 13.9766C 32.1667 13.9766 32.6953 13.7005 33.0391 13.1484C 33.388 12.5964 33.5703 11.7266 33.5859 10.5391L 33.5859 8.17188ZM 45.1406 8.89844L 48.3125 8.89844L 48.3125 10.2656L 45.1406 10.2656L 45.1406 13.8594L 43.6875 13.8594L 43.6875 10.2656L 40.5156 10.2656L 40.5156 8.89844L 43.6875 8.89844L 43.6875 5.57812L 45.1406 5.57812L 45.1406 8.89844ZM 56 8.60938L 57.0859 8.60938C 57.7682 8.59896 58.3047 8.41927 58.6953 8.07031C 59.0859 7.72135 59.2812 7.25 59.2812 6.65625C 59.2812 5.32292 58.6172 4.65625 57.2891 4.65625C 56.6641 4.65625 56.1641 4.83594 55.7891 5.19531C 55.4193 5.54948 55.2344 6.02083 55.2344 6.60938L 53.7891 6.60938C 53.7891 5.70833 54.1172 4.96094 54.7734 4.36719C 55.4349 3.76823 56.2734 3.46875 57.2891 3.46875C 58.362 3.46875 59.2031 3.7526 59.8125 4.32031C 60.4219 4.88802 60.7266 5.67708 60.7266 6.6875C 60.7266 7.18229 60.5651 7.66146 60.2422 8.125C 59.9245 8.58854 59.4896 8.9349 58.9375 9.16406C 59.5625 9.36198 60.0443 9.6901 60.3828 10.1484C 60.7266 10.6068 60.8984 11.1667 60.8984 11.8281C 60.8984 12.849 60.5651 13.6589 59.8984 14.2578C 59.2318 14.8568 58.3646 15.1562 57.2969 15.1562C 56.2292 15.1562 55.3594 14.8672 54.6875 14.2891C 54.0208 13.7109 53.6875 12.9479 53.6875 12L 55.1406 12C 55.1406 12.599 55.3359 13.0781 55.7266 13.4375C 56.1172 13.7969 56.6406 13.9766 57.2969 13.9766C 57.9948 13.9766 58.5286 13.7943 58.8984 13.4297C 59.2682 13.0651 59.4531 12.5417 59.4531 11.8594C 59.4531 11.1979 59.25 10.6901 58.8438 10.3359C 58.4375 9.98177 57.8516 9.79948 57.0859 9.78906L 56 9.78906L 56 8.60938ZM 70.0156 10.1484C 70.0156 11.8411 69.7266 13.099 69.1484 13.9219C 68.5703 14.7448 67.6667 15.1562 66.4375 15.1562C 65.224 15.1562 64.3255 14.7552 63.7422 13.9531C 63.1589 13.1458 62.8568 11.9427 62.8359 10.3438L 62.8359 8.41406C 62.8359 6.74219 63.125 5.5 63.7031 4.6875C 64.2812 3.875 65.1875 3.46875 66.4219 3.46875C 67.6458 3.46875 68.5469 3.86198 69.125 4.64844C 69.7031 5.42969 70 6.63802 70.0156 8.27344L 70.0156 10.1484ZM 68.5703 8.17188C 68.5703 6.94792 68.3984 6.05729 68.0547 5.5C 67.7109 4.9375 67.1667 4.65625 66.4219 4.65625C 65.6823 4.65625 65.1432 4.9349 64.8047 5.49219C 64.4661 6.04948 64.2917 6.90625 64.2812 8.0625L 64.2812 10.375C 64.2812 11.6042 64.4583 12.513 64.8125 13.1016C 65.1719 13.6849 65.7135 13.9766 66.4375 13.9766C 67.151 13.9766 67.6797 13.7005 68.0234 13.1484C 68.3724 12.5964 68.5547 11.7266 68.5703 10.5391L 68.5703 8.17188ZM 74.8516 9.63281L 76.7266 6.54688L 78.4141 6.54688L 75.6484 10.7266L 78.5 15L 76.8281 15L 74.875 11.8359L 72.9219 15L 71.2422 15L 74.0938 10.7266L 71.3281 6.54688L 73 6.54688L 74.8516 9.63281Z"/>
<path id="path7_fill" d="M 6.48438 10C 6.18229 10.3594 5.82031 10.6484 5.39844 10.8672C 4.98177 11.0859 4.52344 11.1953 4.02344 11.1953C 3.36719 11.1953 2.79427 11.0339 2.30469 10.7109C 1.82031 10.388 1.44531 9.9349 1.17969 9.35156C 0.914062 8.76302 0.78125 8.11458 0.78125 7.40625C 0.78125 6.64583 0.924479 5.96094 1.21094 5.35156C 1.5026 4.74219 1.91406 4.27604 2.44531 3.95312C 2.97656 3.63021 3.59635 3.46875 4.30469 3.46875C 5.42969 3.46875 6.3151 3.89062 6.96094 4.73438C 7.61198 5.57292 7.9375 6.71875 7.9375 8.17188L 7.9375 8.59375C 7.9375 10.8073 7.5 12.4245 6.625 13.4453C 5.75 14.4609 4.42969 14.9818 2.66406 15.0078L 2.38281 15.0078L 2.38281 13.7891L 2.6875 13.7891C 3.88021 13.7682 4.79688 13.4583 5.4375 12.8594C 6.07812 12.2552 6.42708 11.3021 6.48438 10ZM 4.25781 10C 4.74219 10 5.1875 9.85156 5.59375 9.55469C 6.00521 9.25781 6.30469 8.89062 6.49219 8.45312L 6.49219 7.875C 6.49219 6.92708 6.28646 6.15625 5.875 5.5625C 5.46354 4.96875 4.94271 4.67188 4.3125 4.67188C 3.67708 4.67188 3.16667 4.91667 2.78125 5.40625C 2.39583 5.89062 2.20312 6.53125 2.20312 7.32812C 2.20312 8.10417 2.38802 8.74479 2.75781 9.25C 3.13281 9.75 3.63281 10 4.25781 10ZM 17.0625 10.1484C 17.0625 11.8411 16.7734 13.099 16.1953 13.9219C 15.6172 14.7448 14.7135 15.1562 13.4844 15.1562C 12.2708 15.1562 11.3724 14.7552 10.7891 13.9531C 10.2057 13.1458 9.90365 11.9427 9.88281 10.3438L 9.88281 8.41406C 9.88281 6.74219 10.1719 5.5 10.75 4.6875C 11.3281 3.875 12.2344 3.46875 13.4688 3.46875C 14.6927 3.46875 15.5938 3.86198 16.1719 4.64844C 16.75 5.42969 17.0469 6.63802 17.0625 8.27344L 17.0625 10.1484ZM 15.6172 8.17188C 15.6172 6.94792 15.4453 6.05729 15.1016 5.5C 14.7578 4.9375 14.2135 4.65625 13.4688 4.65625C 12.7292 4.65625 12.1901 4.9349 11.8516 5.49219C 11.513 6.04948 11.3385 6.90625 11.3281 8.0625L 11.3281 10.375C 11.3281 11.6042 11.5052 12.513 11.8594 13.1016C 12.2188 13.6849 12.7604 13.9766 13.4844 13.9766C 14.1979 13.9766 14.7266 13.7005 15.0703 13.1484C 15.4193 12.5964 15.6016 11.7266 15.6172 10.5391L 15.6172 8.17188ZM 26.0469 10.1484C 26.0469 11.8411 25.7578 13.099 25.1797 13.9219C 24.6016 14.7448 23.6979 15.1562 22.4688 15.1562C 21.2552 15.1562 20.3568 14.7552 19.7734 13.9531C 19.1901 13.1458 18.888 11.9427 18.8672 10.3438L 18.8672 8.41406C 18.8672 6.74219 19.1562 5.5 19.7344 4.6875C 20.3125 3.875 21.2188 3.46875 22.4531 3.46875C 23.6771 3.46875 24.5781 3.86198 25.1562 4.64844C 25.7344 5.42969 26.0312 6.63802 26.0469 8.27344L 26.0469 10.1484ZM 24.6016 8.17188C 24.6016 6.94792 24.4297 6.05729 24.0859 5.5C 23.7422 4.9375 23.1979 4.65625 22.4531 4.65625C 21.7135 4.65625 21.1745 4.9349 20.8359 5.49219C 20.4974 6.04948 20.3229 6.90625 20.3125 8.0625L 20.3125 10.375C 20.3125 11.6042 20.4896 12.513 20.8438 13.1016C 21.2031 13.6849 21.7448 13.9766 22.4688 13.9766C 23.1823 13.9766 23.7109 13.7005 24.0547 13.1484C 24.4036 12.5964 24.5859 11.7266 24.6016 10.5391L 24.6016 8.17188ZM 38.625 8.64062L 32.1094 8.64062L 32.1094 7.38281L 38.625 7.38281L 38.625 8.64062ZM 38.625 11.8828L 32.1094 11.8828L 32.1094 10.6328L 38.625 10.6328L 38.625 11.8828ZM 52.0703 15L 44.6172 15L 44.6172 13.9609L 48.5547 9.58594C 49.138 8.92448 49.5391 8.38802 49.7578 7.97656C 49.9818 7.5599 50.0938 7.13021 50.0938 6.6875C 50.0938 6.09375 49.9141 5.60677 49.5547 5.22656C 49.1953 4.84635 48.7161 4.65625 48.1172 4.65625C 47.3984 4.65625 46.8385 4.86198 46.4375 5.27344C 46.0417 5.67969 45.8438 6.2474 45.8438 6.97656L 44.3984 6.97656C 44.3984 5.92969 44.7344 5.08333 45.4062 4.4375C 46.0833 3.79167 46.987 3.46875 48.1172 3.46875C 49.1745 3.46875 50.0104 3.7474 50.625 4.30469C 51.2396 4.85677 51.5469 5.59375 51.5469 6.51562C 51.5469 7.63542 50.8333 8.96875 49.4062 10.5156L 46.3594 13.8203L 52.0703 13.8203L 52.0703 15ZM 60.7344 10.1484C 60.7344 11.8411 60.4453 13.099 59.8672 13.9219C 59.2891 14.7448 58.3854 15.1562 57.1562 15.1562C 55.9427 15.1562 55.0443 14.7552 54.4609 13.9531C 53.8776 13.1458 53.5755 11.9427 53.5547 10.3438L 53.5547 8.41406C 53.5547 6.74219 53.8438 5.5 54.4219 4.6875C 55 3.875 55.9062 3.46875 57.1406 3.46875C 58.3646 3.46875 59.2656 3.86198 59.8438 4.64844C 60.4219 5.42969 60.7188 6.63802 60.7344 8.27344L 60.7344 10.1484ZM 59.2891 8.17188C 59.2891 6.94792 59.1172 6.05729 58.7734 5.5C 58.4297 4.9375 57.8854 4.65625 57.1406 4.65625C 56.401 4.65625 55.862 4.9349 55.5234 5.49219C 55.1849 6.04948 55.0104 6.90625 55 8.0625L 55 10.375C 55 11.6042 55.1771 12.513 55.5312 13.1016C 55.8906 13.6849 56.4323 13.9766 57.1562 13.9766C 57.8698 13.9766 58.3984 13.7005 58.7422 13.1484C 59.0911 12.5964 59.2734 11.7266 59.2891 10.5391L 59.2891 8.17188ZM 65.5703 9.63281L 67.4453 6.54688L 69.1328 6.54688L 66.3672 10.7266L 69.2188 15L 67.5469 15L 65.5938 11.8359L 63.6406 15L 61.9609 15L 64.8125 10.7266L 62.0469 6.54688L 63.7188 6.54688L 65.5703 9.63281Z"/>
<path id="path8_fill" d="M 7.04688 11.1797L 8.625 11.1797L 8.625 12.3594L 7.04688 12.3594L 7.04688 15L 5.59375 15L 5.59375 12.3594L 0.414062 12.3594L 0.414062 11.5078L 5.50781 3.625L 7.04688 3.625L 7.04688 11.1797ZM 2.05469 11.1797L 5.59375 11.1797L 5.59375 5.60156L 5.42188 5.91406L 2.05469 11.1797ZM 10.5938 9.29688L 11.1719 3.625L 17 3.625L 17 4.96094L 12.3984 4.96094L 12.0547 8.0625C 12.612 7.73438 13.2448 7.57031 13.9531 7.57031C 14.9896 7.57031 15.8125 7.91406 16.4219 8.60156C 17.0312 9.28385 17.3359 10.2083 17.3359 11.375C 17.3359 12.5469 17.0182 13.4714 16.3828 14.1484C 15.7526 14.8203 14.8698 15.1562 13.7344 15.1562C 12.7292 15.1562 11.9089 14.8776 11.2734 14.3203C 10.638 13.763 10.276 12.9922 10.1875 12.0078L 11.5547 12.0078C 11.6432 12.6589 11.875 13.151 12.25 13.4844C 12.625 13.8125 13.1198 13.9766 13.7344 13.9766C 14.4062 13.9766 14.9323 13.7474 15.3125 13.2891C 15.6979 12.8307 15.8906 12.1979 15.8906 11.3906C 15.8906 10.6302 15.6823 10.0208 15.2656 9.5625C 14.8542 9.09896 14.3047 8.86719 13.6172 8.86719C 12.987 8.86719 12.4922 9.00521 12.1328 9.28125L 11.75 9.59375L 10.5938 9.29688ZM 29.6406 8.64062L 23.125 8.64062L 23.125 7.38281L 29.6406 7.38281L 29.6406 8.64062ZM 29.6406 11.8828L 23.125 11.8828L 23.125 10.6328L 29.6406 10.6328L 29.6406 11.8828ZM 38.6172 9.63281L 40.4922 6.54688L 42.1797 6.54688L 39.4141 10.7266L 42.2656 15L 40.5938 15L 38.6406 11.8359L 36.6875 15L 35.0078 15L 37.8594 10.7266L 35.0938 6.54688L 36.7656 6.54688L 38.6172 9.63281Z"/>
</defs>
</svg>

