<svg width="225" height="36" viewBox="0 0 225 36" version="1.1" xmlns="http://www.w3.org/2000/svg" xmlns:xlink="http://www.w3.org/1999/xlink">
<title>Group</title>
<desc>Created using Figma</desc>
<g id="Canvas" transform="translate(230 120)">
<g id="Group">
<g id="y = 1000 + 30 (45) y = 100 + 50 (45)">
<use xlink:href="#path0_fill" transform="translate(-230 -122)" fill="#2D9CDB"/>
<use xlink:href="#path1_fill" transform="translate(-230 -122)" fill="#F2994A"/>
<use xlink:href="#path2_fill" transform="translate(-230 -122)"/>
</g>
<g id="Arrow 3">
<use xlink:href="#path3_stroke" transform="translate(-91 -106)"/>
</g>
<g id="y = 2350 y = 2350">
<use xlink:href="#path4_fill" transform="translate(-65 -122)" fill="#2D9CDB"/>
<use xlink:href="#path5_fill" transform="translate(-65 -122)" fill="#F2994A"/>
<use xlink:href="#path6_fill" transform="translate(-65 -122)"/>
</g>
</g>
</g>
<defs>
<path id="path0_fill" d="M 29.9922 34L 28.5391 34L 28.5391 24.3672L 25.625 25.4375L 25.625 24.125L 29.7656 22.5703L 29.9922 22.5703L 29.9922 34ZM 41.3594 29.1484C 41.3594 30.8411 41.0703 32.099 40.4922 32.9219C 39.9141 33.7448 39.0104 34.1562 37.7812 34.1562C 36.5677 34.1562 35.6693 33.7552 35.0859 32.9531C 34.5026 32.1458 34.2005 30.9427 34.1797 29.3438L 34.1797 27.4141C 34.1797 25.7422 34.4688 24.5 35.0469 23.6875C 35.625 22.875 36.5312 22.4688 37.7656 22.4688C 38.9896 22.4688 39.8906 22.862 40.4688 23.6484C 41.0469 24.4297 41.3438 25.638 41.3594 27.2734L 41.3594 29.1484ZM 39.9141 27.1719C 39.9141 25.9479 39.7422 25.0573 39.3984 24.5C 39.0547 23.9375 38.5104 23.6562 37.7656 23.6562C 37.026 23.6562 36.487 23.9349 36.1484 24.4922C 35.8099 25.0495 35.6354 25.9062 35.625 27.0625L 35.625 29.375C 35.625 30.6042 35.8021 31.513 36.1562 32.1016C 36.5156 32.6849 37.0573 32.9766 37.7812 32.9766C 38.4948 32.9766 39.0234 32.7005 39.3672 32.1484C 39.7161 31.5964 39.8984 30.7266 39.9141 29.5391L 39.9141 27.1719ZM 50.3438 29.1484C 50.3438 30.8411 50.0547 32.099 49.4766 32.9219C 48.8984 33.7448 47.9948 34.1562 46.7656 34.1562C 45.5521 34.1562 44.6536 33.7552 44.0703 32.9531C 43.487 32.1458 43.1849 30.9427 43.1641 29.3438L 43.1641 27.4141C 43.1641 25.7422 43.4531 24.5 44.0312 23.6875C 44.6094 22.875 45.5156 22.4688 46.75 22.4688C 47.974 22.4688 48.875 22.862 49.4531 23.6484C 50.0312 24.4297 50.3281 25.638 50.3438 27.2734L 50.3438 29.1484ZM 48.8984 27.1719C 48.8984 25.9479 48.7266 25.0573 48.3828 24.5C 48.0391 23.9375 47.4948 23.6562 46.75 23.6562C 46.0104 23.6562 45.4714 23.9349 45.1328 24.4922C 44.7943 25.0495 44.6198 25.9062 44.6094 27.0625L 44.6094 29.375C 44.6094 30.6042 44.7865 31.513 45.1406 32.1016C 45.5 32.6849 46.0417 32.9766 46.7656 32.9766C 47.4792 32.9766 48.0078 32.7005 48.3516 32.1484C 48.7005 31.5964 48.8828 30.7266 48.8984 29.5391L 48.8984 27.1719ZM 60.4531 27.8984L 63.625 27.8984L 63.625 29.2656L 60.4531 29.2656L 60.4531 32.8594L 59 32.8594L 59 29.2656L 55.8281 29.2656L 55.8281 27.8984L 59 27.8984L 59 24.5781L 60.4531 24.5781L 60.4531 27.8984ZM 69.875 28.2969L 70.4531 22.625L 76.2812 22.625L 76.2812 23.9609L 71.6797 23.9609L 71.3359 27.0625C 71.8932 26.7344 72.526 26.5703 73.2344 26.5703C 74.2708 26.5703 75.0938 26.9141 75.7031 27.6016C 76.3125 28.2839 76.6172 29.2083 76.6172 30.375C 76.6172 31.5469 76.2995 32.4714 75.6641 33.1484C 75.0339 33.8203 74.151 34.1562 73.0156 34.1562C 72.0104 34.1562 71.1901 33.8776 70.5547 33.3203C 69.9193 32.763 69.5573 31.9922 69.4688 31.0078L 70.8359 31.0078C 70.9245 31.6589 71.1562 32.151 71.5312 32.4844C 71.9062 32.8125 72.401 32.9766 73.0156 32.9766C 73.6875 32.9766 74.2135 32.7474 74.5938 32.2891C 74.9792 31.8307 75.1719 31.1979 75.1719 30.3906C 75.1719 29.6302 74.9635 29.0208 74.5469 28.5625C 74.1354 28.099 73.5859 27.8672 72.8984 27.8672C 72.2682 27.8672 71.7734 28.0052 71.4141 28.2812L 71.0312 28.5938L 69.875 28.2969ZM 85.3281 29.1484C 85.3281 30.8411 85.0391 32.099 84.4609 32.9219C 83.8828 33.7448 82.9792 34.1562 81.75 34.1562C 80.5365 34.1562 79.638 33.7552 79.0547 32.9531C 78.4714 32.1458 78.1693 30.9427 78.1484 29.3438L 78.1484 27.4141C 78.1484 25.7422 78.4375 24.5 79.0156 23.6875C 79.5938 22.875 80.5 22.4688 81.7344 22.4688C 82.9583 22.4688 83.8594 22.862 84.4375 23.6484C 85.0156 24.4297 85.3125 25.638 85.3281 27.2734L 85.3281 29.1484ZM 83.8828 27.1719C 83.8828 25.9479 83.7109 25.0573 83.3672 24.5C 83.0234 23.9375 82.4792 23.6562 81.7344 23.6562C 80.9948 23.6562 80.4557 23.9349 80.1172 24.4922C 79.7786 25.0495 79.6042 25.9062 79.5938 27.0625L 79.5938 29.375C 79.5938 30.6042 79.7708 31.513 80.125 32.1016C 80.4844 32.6849 81.026 32.9766 81.75 32.9766C 82.4635 32.9766 82.9922 32.7005 83.3359 32.1484C 83.6849 31.5964 83.8672 30.7266 83.8828 29.5391L 83.8828 27.1719ZM 91.2422 29.3828C 91.2422 28.2057 91.3984 27.0755 91.7109 25.9922C 92.0286 24.9089 92.5 23.9245 93.125 23.0391C 93.75 22.1536 94.3984 21.5286 95.0703 21.1641L 95.3672 22.1172C 94.6068 22.7005 93.9818 23.5911 93.4922 24.7891C 93.0078 25.987 92.7422 27.3281 92.6953 28.8125L 92.6875 29.4766C 92.6875 31.487 93.0547 33.2318 93.7891 34.7109C 94.2318 35.5964 94.7578 36.2891 95.3672 36.7891L 95.0703 37.6719C 94.3776 37.2865 93.7161 36.6406 93.0859 35.7344C 91.8568 33.9635 91.2422 31.8464 91.2422 29.3828ZM 102.719 30.1797L 104.297 30.1797L 104.297 31.3594L 102.719 31.3594L 102.719 34L 101.266 34L 101.266 31.3594L 96.0859 31.3594L 96.0859 30.5078L 101.18 22.625L 102.719 22.625L 102.719 30.1797ZM 97.7266 30.1797L 101.266 30.1797L 101.266 24.6016L 101.094 24.9141L 97.7266 30.1797ZM 106.266 28.2969L 106.844 22.625L 112.672 22.625L 112.672 23.9609L 108.07 23.9609L 107.727 27.0625C 108.284 26.7344 108.917 26.5703 109.625 26.5703C 110.661 26.5703 111.484 26.9141 112.094 27.6016C 112.703 28.2839 113.008 29.2083 113.008 30.375C 113.008 31.5469 112.69 32.4714 112.055 33.1484C 111.424 33.8203 110.542 34.1562 109.406 34.1562C 108.401 34.1562 107.581 33.8776 106.945 33.3203C 106.31 32.763 105.948 31.9922 105.859 31.0078L 107.227 31.0078C 107.315 31.6589 107.547 32.151 107.922 32.4844C 108.297 32.8125 108.792 32.9766 109.406 32.9766C 110.078 32.9766 110.604 32.7474 110.984 32.2891C 111.37 31.8307 111.562 31.1979 111.562 30.3906C 111.562 29.6302 111.354 29.0208 110.938 28.5625C 110.526 28.099 109.977 27.8672 109.289 27.8672C 108.659 27.8672 108.164 28.0052 107.805 28.2812L 107.422 28.5938L 106.266 28.2969ZM 118.07 29.4609C 118.07 30.6224 117.917 31.737 117.609 32.8047C 117.307 33.8672 116.841 34.849 116.211 35.75C 115.586 36.651 114.93 37.2917 114.242 37.6719L 113.938 36.7891C 114.74 36.1745 115.383 35.2214 115.867 33.9297C 116.357 32.6328 116.607 31.1953 116.617 29.6172L 116.617 29.3672C 116.617 28.2734 116.503 27.2578 116.273 26.3203C 116.044 25.3776 115.724 24.5339 115.312 23.7891C 114.906 23.0443 114.448 22.4635 113.938 22.0469L 114.242 21.1641C 114.93 21.5443 115.583 22.1797 116.203 23.0703C 116.828 23.9609 117.294 24.9427 117.602 26.0156C 117.914 27.0885 118.07 28.237 118.07 29.4609Z"/>
<path id="path1_fill" d="M 29.9922 15L 28.5391 15L 28.5391 5.36719L 25.625 6.4375L 25.625 5.125L 29.7656 3.57031L 29.9922 3.57031L 29.9922 15ZM 41.3594 10.1484C 41.3594 11.8411 41.0703 13.099 40.4922 13.9219C 39.9141 14.7448 39.0104 15.1562 37.7812 15.1562C 36.5677 15.1562 35.6693 14.7552 35.0859 13.9531C 34.5026 13.1458 34.2005 11.9427 34.1797 10.3438L 34.1797 8.41406C 34.1797 6.74219 34.4688 5.5 35.0469 4.6875C 35.625 3.875 36.5312 3.46875 37.7656 3.46875C 38.9896 3.46875 39.8906 3.86198 40.4688 4.64844C 41.0469 5.42969 41.3438 6.63802 41.3594 8.27344L 41.3594 10.1484ZM 39.9141 8.17188C 39.9141 6.94792 39.7422 6.05729 39.3984 5.5C 39.0547 4.9375 38.5104 4.65625 37.7656 4.65625C 37.026 4.65625 36.487 4.9349 36.1484 5.49219C 35.8099 6.04948 35.6354 6.90625 35.625 8.0625L 35.625 10.375C 35.625 11.6042 35.8021 12.513 36.1562 13.1016C 36.5156 13.6849 37.0573 13.9766 37.7812 13.9766C 38.4948 13.9766 39.0234 13.7005 39.3672 13.1484C 39.7161 12.5964 39.8984 11.7266 39.9141 10.5391L 39.9141 8.17188ZM 50.3438 10.1484C 50.3438 11.8411 50.0547 13.099 49.4766 13.9219C 48.8984 14.7448 47.9948 15.1562 46.7656 15.1562C 45.5521 15.1562 44.6536 14.7552 44.0703 13.9531C 43.487 13.1458 43.1849 11.9427 43.1641 10.3438L 43.1641 8.41406C 43.1641 6.74219 43.4531 5.5 44.0312 4.6875C 44.6094 3.875 45.5156 3.46875 46.75 3.46875C 47.974 3.46875 48.875 3.86198 49.4531 4.64844C 50.0312 5.42969 50.3281 6.63802 50.3438 8.27344L 50.3438 10.1484ZM 48.8984 8.17188C 48.8984 6.94792 48.7266 6.05729 48.3828 5.5C 48.0391 4.9375 47.4948 4.65625 46.75 4.65625C 46.0104 4.65625 45.4714 4.9349 45.1328 5.49219C 44.7943 6.04948 44.6198 6.90625 44.6094 8.0625L 44.6094 10.375C 44.6094 11.6042 44.7865 12.513 45.1406 13.1016C 45.5 13.6849 46.0417 13.9766 46.7656 13.9766C 47.4792 13.9766 48.0078 13.7005 48.3516 13.1484C 48.7005 12.5964 48.8828 11.7266 48.8984 10.5391L 48.8984 8.17188ZM 59.3281 10.1484C 59.3281 11.8411 59.0391 13.099 58.4609 13.9219C 57.8828 14.7448 56.9792 15.1562 55.75 15.1562C 54.5365 15.1562 53.638 14.7552 53.0547 13.9531C 52.4714 13.1458 52.1693 11.9427 52.1484 10.3438L 52.1484 8.41406C 52.1484 6.74219 52.4375 5.5 53.0156 4.6875C 53.5938 3.875 54.5 3.46875 55.7344 3.46875C 56.9583 3.46875 57.8594 3.86198 58.4375 4.64844C 59.0156 5.42969 59.3125 6.63802 59.3281 8.27344L 59.3281 10.1484ZM 57.8828 8.17188C 57.8828 6.94792 57.7109 6.05729 57.3672 5.5C 57.0234 4.9375 56.4792 4.65625 55.7344 4.65625C 54.9948 4.65625 54.4557 4.9349 54.1172 5.49219C 53.7786 6.04948 53.6042 6.90625 53.5938 8.0625L 53.5938 10.375C 53.5938 11.6042 53.7708 12.513 54.125 13.1016C 54.4844 13.6849 55.026 13.9766 55.75 13.9766C 56.4635 13.9766 56.9922 13.7005 57.3359 13.1484C 57.6849 12.5964 57.8672 11.7266 57.8828 10.5391L 57.8828 8.17188ZM 69.4375 8.89844L 72.6094 8.89844L 72.6094 10.2656L 69.4375 10.2656L 69.4375 13.8594L 67.9844 13.8594L 67.9844 10.2656L 64.8125 10.2656L 64.8125 8.89844L 67.9844 8.89844L 67.9844 5.57812L 69.4375 5.57812L 69.4375 8.89844ZM 80.2969 8.60938L 81.3828 8.60938C 82.0651 8.59896 82.6016 8.41927 82.9922 8.07031C 83.3828 7.72135 83.5781 7.25 83.5781 6.65625C 83.5781 5.32292 82.9141 4.65625 81.5859 4.65625C 80.9609 4.65625 80.4609 4.83594 80.0859 5.19531C 79.7161 5.54948 79.5312 6.02083 79.5312 6.60938L 78.0859 6.60938C 78.0859 5.70833 78.4141 4.96094 79.0703 4.36719C 79.7318 3.76823 80.5703 3.46875 81.5859 3.46875C 82.6589 3.46875 83.5 3.7526 84.1094 4.32031C 84.7188 4.88802 85.0234 5.67708 85.0234 6.6875C 85.0234 7.18229 84.862 7.66146 84.5391 8.125C 84.2214 8.58854 83.7865 8.9349 83.2344 9.16406C 83.8594 9.36198 84.3411 9.6901 84.6797 10.1484C 85.0234 10.6068 85.1953 11.1667 85.1953 11.8281C 85.1953 12.849 84.862 13.6589 84.1953 14.2578C 83.5286 14.8568 82.6615 15.1562 81.5938 15.1562C 80.526 15.1562 79.6562 14.8672 78.9844 14.2891C 78.3177 13.7109 77.9844 12.9479 77.9844 12L 79.4375 12C 79.4375 12.599 79.6328 13.0781 80.0234 13.4375C 80.4141 13.7969 80.9375 13.9766 81.5938 13.9766C 82.2917 13.9766 82.8255 13.7943 83.1953 13.4297C 83.5651 13.0651 83.75 12.5417 83.75 11.8594C 83.75 11.1979 83.5469 10.6901 83.1406 10.3359C 82.7344 9.98177 82.1484 9.79948 81.3828 9.78906L 80.2969 9.78906L 80.2969 8.60938ZM 94.3125 10.1484C 94.3125 11.8411 94.0234 13.099 93.4453 13.9219C 92.8672 14.7448 91.9635 15.1562 90.7344 15.1562C 89.5208 15.1562 88.6224 14.7552 88.0391 13.9531C 87.4557 13.1458 87.1536 11.9427 87.1328 10.3438L 87.1328 8.41406C 87.1328 6.74219 87.4219 5.5 88 4.6875C 88.5781 3.875 89.4844 3.46875 90.7188 3.46875C 91.9427 3.46875 92.8438 3.86198 93.4219 4.64844C 94 5.42969 94.2969 6.63802 94.3125 8.27344L 94.3125 10.1484ZM 92.8672 8.17188C 92.8672 6.94792 92.6953 6.05729 92.3516 5.5C 92.0078 4.9375 91.4635 4.65625 90.7188 4.65625C 89.9792 4.65625 89.4401 4.9349 89.1016 5.49219C 88.763 6.04948 88.5885 6.90625 88.5781 8.0625L 88.5781 10.375C 88.5781 11.6042 88.7552 12.513 89.1094 13.1016C 89.4688 13.6849 90.0104 13.9766 90.7344 13.9766C 91.4479 13.9766 91.9766 13.7005 92.3203 13.1484C 92.6693 12.5964 92.8516 11.7266 92.8672 10.5391L 92.8672 8.17188ZM 100.227 10.3828C 100.227 9.20573 100.383 8.07552 100.695 6.99219C 101.013 5.90885 101.484 4.92448 102.109 4.03906C 102.734 3.15365 103.383 2.52865 104.055 2.16406L 104.352 3.11719C 103.591 3.70052 102.966 4.59115 102.477 5.78906C 101.992 6.98698 101.727 8.32812 101.68 9.8125L 101.672 10.4766C 101.672 12.487 102.039 14.2318 102.773 15.7109C 103.216 16.5964 103.742 17.2891 104.352 17.7891L 104.055 18.6719C 103.362 18.2865 102.701 17.6406 102.07 16.7344C 100.841 14.9635 100.227 12.8464 100.227 10.3828ZM 111.703 11.1797L 113.281 11.1797L 113.281 12.3594L 111.703 12.3594L 111.703 15L 110.25 15L 110.25 12.3594L 105.07 12.3594L 105.07 11.5078L 110.164 3.625L 111.703 3.625L 111.703 11.1797ZM 106.711 11.1797L 110.25 11.1797L 110.25 5.60156L 110.078 5.91406L 106.711 11.1797ZM 115.25 9.29688L 115.828 3.625L 121.656 3.625L 121.656 4.96094L 117.055 4.96094L 116.711 8.0625C 117.268 7.73438 117.901 7.57031 118.609 7.57031C 119.646 7.57031 120.469 7.91406 121.078 8.60156C 121.688 9.28385 121.992 10.2083 121.992 11.375C 121.992 12.5469 121.674 13.4714 121.039 14.1484C 120.409 14.8203 119.526 15.1562 118.391 15.1562C 117.385 15.1562 116.565 14.8776 115.93 14.3203C 115.294 13.763 114.932 12.9922 114.844 12.0078L 116.211 12.0078C 116.299 12.6589 116.531 13.151 116.906 13.4844C 117.281 13.8125 117.776 13.9766 118.391 13.9766C 119.062 13.9766 119.589 13.7474 119.969 13.2891C 120.354 12.8307 120.547 12.1979 120.547 11.3906C 120.547 10.6302 120.339 10.0208 119.922 9.5625C 119.51 9.09896 118.961 8.86719 118.273 8.86719C 117.643 8.86719 117.148 9.00521 116.789 9.28125L 116.406 9.59375L 115.25 9.29688ZM 127.055 10.4609C 127.055 11.6224 126.901 12.737 126.594 13.8047C 126.292 14.8672 125.826 15.849 125.195 16.75C 124.57 17.651 123.914 18.2917 123.227 18.6719L 122.922 17.7891C 123.724 17.1745 124.367 16.2214 124.852 14.9297C 125.341 13.6328 125.591 12.1953 125.602 10.6172L 125.602 10.3672C 125.602 9.27344 125.487 8.25781 125.258 7.32031C 125.029 6.3776 124.708 5.53385 124.297 4.78906C 123.891 4.04427 123.432 3.46354 122.922 3.04688L 123.227 2.16406C 123.914 2.54427 124.568 3.17969 125.188 4.07031C 125.812 4.96094 126.279 5.94271 126.586 7.01562C 126.898 8.08854 127.055 9.23698 127.055 10.4609Z"/>
<path id="path2_fill" d="M 3.85938 12.8828L 5.82812 6.54688L 7.375 6.54688L 3.97656 16.3047C 3.45052 17.7109 2.61458 18.4141 1.46875 18.4141L 1.19531 18.3906L 0.65625 18.2891L 0.65625 17.1172L 1.04688 17.1484C 1.53646 17.1484 1.91667 17.0495 2.1875 16.8516C 2.46354 16.6536 2.6901 16.2917 2.86719 15.7656L 3.1875 14.9062L 0.171875 6.54688L 1.75 6.54688L 3.85938 12.8828ZM 19.25 8.64062L 12.7344 8.64062L 12.7344 7.38281L 19.25 7.38281L 19.25 8.64062ZM 19.25 11.8828L 12.7344 11.8828L 12.7344 10.6328L 19.25 10.6328L 19.25 11.8828ZM 3.85938 31.8828L 5.82812 25.5469L 7.375 25.5469L 3.97656 35.3047C 3.45052 36.7109 2.61458 37.4141 1.46875 37.4141L 1.19531 37.3906L 0.65625 37.2891L 0.65625 36.1172L 1.04688 36.1484C 1.53646 36.1484 1.91667 36.0495 2.1875 35.8516C 2.46354 35.6536 2.6901 35.2917 2.86719 34.7656L 3.1875 33.9062L 0.171875 25.5469L 1.75 25.5469L 3.85938 31.8828ZM 19.25 27.6406L 12.7344 27.6406L 12.7344 26.3828L 19.25 26.3828L 19.25 27.6406ZM 19.25 30.8828L 12.7344 30.8828L 12.7344 29.6328L 19.25 29.6328L 19.25 30.8828Z"/>
<path id="path3_stroke" d="M 13.3536 0.353553C 13.5488 0.158291 13.5488 -0.158291 13.3536 -0.353553L 10.1716 -3.53553C 9.97631 -3.7308 9.65973 -3.7308 9.46447 -3.53553C 9.2692 -3.34027 9.2692 -3.02369 9.46447 -2.82843L 12.2929 0L 9.46447 2.82843C 9.2692 3.02369 9.2692 3.34027 9.46447 3.53553C 9.65973 3.7308 9.97631 3.7308 10.1716 3.53553L 13.3536 0.353553ZM 0 0.5L 13 0.5L 13 -0.5L 0 -0.5L 0 0.5Z"/>
<path id="path4_fill" d="M 32.6953 34L 25.2422 34L 25.2422 32.9609L 29.1797 28.5859C 29.763 27.9245 30.1641 27.388 30.3828 26.9766C 30.6068 26.5599 30.7188 26.1302 30.7188 25.6875C 30.7188 25.0938 30.5391 24.6068 30.1797 24.2266C 29.8203 23.8464 29.3411 23.6562 28.7422 23.6562C 28.0234 23.6562 27.4635 23.862 27.0625 24.2734C 26.6667 24.6797 26.4688 25.2474 26.4688 25.9766L 25.0234 25.9766C 25.0234 24.9297 25.3594 24.0833 26.0312 23.4375C 26.7083 22.7917 27.612 22.4688 28.7422 22.4688C 29.7995 22.4688 30.6354 22.7474 31.25 23.3047C 31.8646 23.8568 32.1719 24.5938 32.1719 25.5156C 32.1719 26.6354 31.4583 27.9688 30.0312 29.5156L 26.9844 32.8203L 32.6953 32.8203L 32.6953 34ZM 36.3281 27.6094L 37.4141 27.6094C 38.0964 27.599 38.6328 27.4193 39.0234 27.0703C 39.4141 26.7214 39.6094 26.25 39.6094 25.6562C 39.6094 24.3229 38.9453 23.6562 37.6172 23.6562C 36.9922 23.6562 36.4922 23.8359 36.1172 24.1953C 35.7474 24.5495 35.5625 25.0208 35.5625 25.6094L 34.1172 25.6094C 34.1172 24.7083 34.4453 23.9609 35.1016 23.3672C 35.763 22.7682 36.6016 22.4688 37.6172 22.4688C 38.6901 22.4688 39.5312 22.7526 40.1406 23.3203C 40.75 23.888 41.0547 24.6771 41.0547 25.6875C 41.0547 26.1823 40.8932 26.6615 40.5703 27.125C 40.2526 27.5885 39.8177 27.9349 39.2656 28.1641C 39.8906 28.362 40.3724 28.6901 40.7109 29.1484C 41.0547 29.6068 41.2266 30.1667 41.2266 30.8281C 41.2266 31.849 40.8932 32.6589 40.2266 33.2578C 39.5599 33.8568 38.6927 34.1562 37.625 34.1562C 36.5573 34.1562 35.6875 33.8672 35.0156 33.2891C 34.349 32.7109 34.0156 31.9479 34.0156 31L 35.4688 31C 35.4688 31.599 35.6641 32.0781 36.0547 32.4375C 36.4453 32.7969 36.9688 32.9766 37.625 32.9766C 38.3229 32.9766 38.8568 32.7943 39.2266 32.4297C 39.5964 32.0651 39.7812 31.5417 39.7812 30.8594C 39.7812 30.1979 39.5781 29.6901 39.1719 29.3359C 38.7656 28.9818 38.1797 28.7995 37.4141 28.7891L 36.3281 28.7891L 36.3281 27.6094ZM 43.875 28.2969L 44.4531 22.625L 50.2812 22.625L 50.2812 23.9609L 45.6797 23.9609L 45.3359 27.0625C 45.8932 26.7344 46.526 26.5703 47.2344 26.5703C 48.2708 26.5703 49.0938 26.9141 49.7031 27.6016C 50.3125 28.2839 50.6172 29.2083 50.6172 30.375C 50.6172 31.5469 50.2995 32.4714 49.6641 33.1484C 49.0339 33.8203 48.151 34.1562 47.0156 34.1562C 46.0104 34.1562 45.1901 33.8776 44.5547 33.3203C 43.9193 32.763 43.5573 31.9922 43.4688 31.0078L 44.8359 31.0078C 44.9245 31.6589 45.1562 32.151 45.5312 32.4844C 45.9062 32.8125 46.401 32.9766 47.0156 32.9766C 47.6875 32.9766 48.2135 32.7474 48.5938 32.2891C 48.9792 31.8307 49.1719 31.1979 49.1719 30.3906C 49.1719 29.6302 48.9635 29.0208 48.5469 28.5625C 48.1354 28.099 47.5859 27.8672 46.8984 27.8672C 46.2682 27.8672 45.7734 28.0052 45.4141 28.2812L 45.0312 28.5938L 43.875 28.2969ZM 59.3281 29.1484C 59.3281 30.8411 59.0391 32.099 58.4609 32.9219C 57.8828 33.7448 56.9792 34.1562 55.75 34.1562C 54.5365 34.1562 53.638 33.7552 53.0547 32.9531C 52.4714 32.1458 52.1693 30.9427 52.1484 29.3438L 52.1484 27.4141C 52.1484 25.7422 52.4375 24.5 53.0156 23.6875C 53.5938 22.875 54.5 22.4688 55.7344 22.4688C 56.9583 22.4688 57.8594 22.862 58.4375 23.6484C 59.0156 24.4297 59.3125 25.638 59.3281 27.2734L 59.3281 29.1484ZM 57.8828 27.1719C 57.8828 25.9479 57.7109 25.0573 57.3672 24.5C 57.0234 23.9375 56.4792 23.6562 55.7344 23.6562C 54.9948 23.6562 54.4557 23.9349 54.1172 24.4922C 53.7786 25.0495 53.6042 25.9062 53.5938 27.0625L 53.5938 29.375C 53.5938 30.6042 53.7708 31.513 54.125 32.1016C 54.4844 32.6849 55.026 32.9766 55.75 32.9766C 56.4635 32.9766 56.9922 32.7005 57.3359 32.1484C 57.6849 31.5964 57.8672 30.7266 57.8828 29.5391L 57.8828 27.1719Z"/>
<path id="path5_fill" d="M 32.6953 15L 25.2422 15L 25.2422 13.9609L 29.1797 9.58594C 29.763 8.92448 30.1641 8.38802 30.3828 7.97656C 30.6068 7.5599 30.7188 7.13021 30.7188 6.6875C 30.7188 6.09375 30.5391 5.60677 30.1797 5.22656C 29.8203 4.84635 29.3411 4.65625 28.7422 4.65625C 28.0234 4.65625 27.4635 4.86198 27.0625 5.27344C 26.6667 5.67969 26.4688 6.2474 26.4688 6.97656L 25.0234 6.97656C 25.0234 5.92969 25.3594 5.08333 26.0312 4.4375C 26.7083 3.79167 27.612 3.46875 28.7422 3.46875C 29.7995 3.46875 30.6354 3.7474 31.25 4.30469C 31.8646 4.85677 32.1719 5.59375 32.1719 6.51562C 32.1719 7.63542 31.4583 8.96875 30.0312 10.5156L 26.9844 13.8203L 32.6953 13.8203L 32.6953 15ZM 36.3281 8.60938L 37.4141 8.60938C 38.0964 8.59896 38.6328 8.41927 39.0234 8.07031C 39.4141 7.72135 39.6094 7.25 39.6094 6.65625C 39.6094 5.32292 38.9453 4.65625 37.6172 4.65625C 36.9922 4.65625 36.4922 4.83594 36.1172 5.19531C 35.7474 5.54948 35.5625 6.02083 35.5625 6.60938L 34.1172 6.60938C 34.1172 5.70833 34.4453 4.96094 35.1016 4.36719C 35.763 3.76823 36.6016 3.46875 37.6172 3.46875C 38.6901 3.46875 39.5312 3.7526 40.1406 4.32031C 40.75 4.88802 41.0547 5.67708 41.0547 6.6875C 41.0547 7.18229 40.8932 7.66146 40.5703 8.125C 40.2526 8.58854 39.8177 8.9349 39.2656 9.16406C 39.8906 9.36198 40.3724 9.6901 40.7109 10.1484C 41.0547 10.6068 41.2266 11.1667 41.2266 11.8281C 41.2266 12.849 40.8932 13.6589 40.2266 14.2578C 39.5599 14.8568 38.6927 15.1562 37.625 15.1562C 36.5573 15.1562 35.6875 14.8672 35.0156 14.2891C 34.349 13.7109 34.0156 12.9479 34.0156 12L 35.4688 12C 35.4688 12.599 35.6641 13.0781 36.0547 13.4375C 36.4453 13.7969 36.9688 13.9766 37.625 13.9766C 38.3229 13.9766 38.8568 13.7943 39.2266 13.4297C 39.5964 13.0651 39.7812 12.5417 39.7812 11.8594C 39.7812 11.1979 39.5781 10.6901 39.1719 10.3359C 38.7656 9.98177 38.1797 9.79948 37.4141 9.78906L 36.3281 9.78906L 36.3281 8.60938ZM 43.875 9.29688L 44.4531 3.625L 50.2812 3.625L 50.2812 4.96094L 45.6797 4.96094L 45.3359 8.0625C 45.8932 7.73438 46.526 7.57031 47.2344 7.57031C 48.2708 7.57031 49.0938 7.91406 49.7031 8.60156C 50.3125 9.28385 50.6172 10.2083 50.6172 11.375C 50.6172 12.5469 50.2995 13.4714 49.6641 14.1484C 49.0339 14.8203 48.151 15.1562 47.0156 15.1562C 46.0104 15.1562 45.1901 14.8776 44.5547 14.3203C 43.9193 13.763 43.5573 12.9922 43.4688 12.0078L 44.8359 12.0078C 44.9245 12.6589 45.1562 13.151 45.5312 13.4844C 45.9062 13.8125 46.401 13.9766 47.0156 13.9766C 47.6875 13.9766 48.2135 13.7474 48.5938 13.2891C 48.9792 12.8307 49.1719 12.1979 49.1719 11.3906C 49.1719 10.6302 48.9635 10.0208 48.5469 9.5625C 48.1354 9.09896 47.5859 8.86719 46.8984 8.86719C 46.2682 8.86719 45.7734 9.00521 45.4141 9.28125L 45.0312 9.59375L 43.875 9.29688ZM 59.3281 10.1484C 59.3281 11.8411 59.0391 13.099 58.4609 13.9219C 57.8828 14.7448 56.9792 15.1562 55.75 15.1562C 54.5365 15.1562 53.638 14.7552 53.0547 13.9531C 52.4714 13.1458 52.1693 11.9427 52.1484 10.3438L 52.1484 8.41406C 52.1484 6.74219 52.4375 5.5 53.0156 4.6875C 53.5938 3.875 54.5 3.46875 55.7344 3.46875C 56.9583 3.46875 57.8594 3.86198 58.4375 4.64844C 59.0156 5.42969 59.3125 6.63802 59.3281 8.27344L 59.3281 10.1484ZM 57.8828 8.17188C 57.8828 6.94792 57.7109 6.05729 57.3672 5.5C 57.0234 4.9375 56.4792 4.65625 55.7344 4.65625C 54.9948 4.65625 54.4557 4.9349 54.1172 5.49219C 53.7786 6.04948 53.6042 6.90625 53.5938 8.0625L 53.5938 10.375C 53.5938 11.6042 53.7708 12.513 54.125 13.1016C 54.4844 13.6849 55.026 13.9766 55.75 13.9766C 56.4635 13.9766 56.9922 13.7005 57.3359 13.1484C 57.6849 12.5964 57.8672 11.7266 57.8828 10.5391L 57.8828 8.17188Z"/>
<path id="path6_fill" d="M 3.85938 12.8828L 5.82812 6.54688L 7.375 6.54688L 3.97656 16.3047C 3.45052 17.7109 2.61458 18.4141 1.46875 18.4141L 1.19531 18.3906L 0.65625 18.2891L 0.65625 17.1172L 1.04688 17.1484C 1.53646 17.1484 1.91667 17.0495 2.1875 16.8516C 2.46354 16.6536 2.6901 16.2917 2.86719 15.7656L 3.1875 14.9062L 0.171875 6.54688L 1.75 6.54688L 3.85938 12.8828ZM 19.25 8.64062L 12.7344 8.64062L 12.7344 7.38281L 19.25 7.38281L 19.25 8.64062ZM 19.25 11.8828L 12.7344 11.8828L 12.7344 10.6328L 19.25 10.6328L 19.25 11.8828ZM 3.85938 31.8828L 5.82812 25.5469L 7.375 25.5469L 3.97656 35.3047C 3.45052 36.7109 2.61458 37.4141 1.46875 37.4141L 1.19531 37.3906L 0.65625 37.2891L 0.65625 36.1172L 1.04688 36.1484C 1.53646 36.1484 1.91667 36.0495 2.1875 35.8516C 2.46354 35.6536 2.6901 35.2917 2.86719 34.7656L 3.1875 33.9062L 0.171875 25.5469L 1.75 25.5469L 3.85938 31.8828ZM 19.25 27.6406L 12.7344 27.6406L 12.7344 26.3828L 19.25 26.3828L 19.25 27.6406ZM 19.25 30.8828L 12.7344 30.8828L 12.7344 29.6328L 19.25 29.6328L 19.25 30.8828Z"/>
</defs>
</svg>

