<svg width="486" height="380" viewBox="0 0 486 380" version="1.1" xmlns="http://www.w3.org/2000/svg" xmlns:xlink="http://www.w3.org/1999/xlink">
<title>Group.svg</title>
<desc>Created using Figma</desc>
<g id="Canvas" transform="translate(-401 -687)">
<g id="Group">
<g id="Line 4">
<use xlink:href="#path0_stroke" transform="matrix(6.11083e-17 1 -1 6.13566e-17 525.292 693)"/>
</g>
<g id="Line 4">
<use xlink:href="#path1_stroke" transform="matrix(-1 1.22713e-16 -1.22217e-16 -1 606 775.291)"/>
</g>
<g id="Line 5">
<use xlink:href="#path2_stroke" transform="matrix(6.11083e-17 1 -1 6.13566e-17 546.531 773.872)"/>
</g>
<g id="Line 5">
<use xlink:href="#path2_stroke" transform="matrix(6.11083e-17 1 -1 6.13566e-17 566.354 773.872)"/>
</g>
<g id="Line 5">
<use xlink:href="#path2_stroke" transform="matrix(6.11083e-17 1 -1 6.13566e-17 586.177 773.872)"/>
</g>
<g id="Line 5">
<use xlink:href="#path3_stroke" transform="matrix(-1 1.22713e-16 -1.22217e-16 -1 528.124 714.282)"/>
</g>
<g id="Line 5">
<use xlink:href="#path3_stroke" transform="matrix(-1 1.22713e-16 -1.22217e-16 -1 528.124 734.145)"/>
</g>
<g id="Line 5">
<use xlink:href="#path3_stroke" transform="matrix(-1 1.22713e-16 -1.22217e-16 -1 528.124 752.59)"/>
</g>
<g id="Component">
<g id="Line 2">
<use xlink:href="#path4_stroke" transform="matrix(6.12323e-17 1 -1 6.12323e-17 401 697)" fill="#333333"/>
</g>
<g id="Line 3">
<use xlink:href="#path5_stroke" transform="translate(401 697)" fill="#333333"/>
</g>
<g id="Line 3">
<use xlink:href="#path5_stroke" transform="translate(401 748)" fill="#333333"/>
</g>
</g>
<g id="Component">
<g id="Line 2">
<use xlink:href="#path6_stroke" transform="matrix(-1.30708e-16 -1 1 -2.58169e-16 427 748)"/>
</g>
<g id="Line 3">
<use xlink:href="#path5_stroke" transform="matrix(-1 1.72113e-16 -8.71383e-17 -1 427 748)"/>
</g>
<g id="Line 3">
<use xlink:href="#path5_stroke" transform="matrix(-1 1.22465e-16 -1.22465e-16 -1 427 696)"/>
</g>
</g>
<g id="2 3">
<use xlink:href="#path7_fill" transform="translate(409 703)"/>
</g>
<g id="Line 4">
<use xlink:href="#path0_stroke" transform="matrix(-1.83325e-16 -1 1 -1.8407e-16 526.708 859)"/>
</g>
<g id="Line 4">
<use xlink:href="#path1_stroke" transform="matrix(1 -2.45427e-16 2.44433e-16 1 446 776.709)"/>
</g>
<g id="Line 5">
<use xlink:href="#path2_stroke" transform="matrix(-1.83325e-16 -1 1 -1.8407e-16 505.469 778.128)"/>
</g>
<g id="Line 5">
<use xlink:href="#path2_stroke" transform="matrix(-1.83325e-16 -1 1 -1.8407e-16 485.646 778.128)"/>
</g>
<g id="Line 5">
<use xlink:href="#path2_stroke" transform="matrix(-1.83325e-16 -1 1 -1.8407e-16 465.823 778.128)"/>
</g>
<g id="Line 5">
<use xlink:href="#path3_stroke" transform="matrix(1 -2.45427e-16 2.44433e-16 1 523.876 837.718)"/>
</g>
<g id="Line 5">
<use xlink:href="#path3_stroke" transform="matrix(1 -2.45427e-16 2.44433e-16 1 523.876 817.855)"/>
</g>
<g id="Line 5">
<use xlink:href="#path3_stroke" transform="matrix(1 -2.45427e-16 2.44433e-16 1 523.876 797.991)"/>
</g>
<g id="Arrow 5">
<use xlink:href="#path8_stroke" transform="matrix(0.544896 -0.838503 0.837492 0.54645 526.708 775.291)"/>
</g>
<g id="2">
<use xlink:href="#path9_fill" transform="translate(564.938 779.547)"/>
</g>
<g id="-2">
<use xlink:href="#path10_fill" transform="translate(481.398 779.547)"/>
</g>
<g id="2">
<use xlink:href="#path9_fill" transform="translate(530.956 730.47)"/>
</g>
<g id="-2">
<use xlink:href="#path10_fill" transform="translate(530.956 811.761)"/>
</g>
<g id="Line 4">
<use xlink:href="#path11_stroke" transform="matrix(6.15568e-17 1 -1 6.09096e-17 802.761 687)"/>
</g>
<g id="Line 4">
<use xlink:href="#path12_stroke" transform="matrix(-1 1.21819e-16 -1.23114e-16 -1 887 772.265)"/>
</g>
<g id="Line 5">
<use xlink:href="#path13_stroke" transform="matrix(6.15568e-17 1 -1 6.09096e-17 824.929 770.795)"/>
</g>
<g id="Line 5">
<use xlink:href="#path13_stroke" transform="matrix(6.15568e-17 1 -1 6.09096e-17 845.619 770.795)"/>
</g>
<g id="Line 5">
<use xlink:href="#path13_stroke" transform="matrix(6.15568e-17 1 -1 6.09096e-17 866.31 770.795)"/>
</g>
<g id="Line 5">
<use xlink:href="#path14_stroke" transform="matrix(-1 1.21819e-16 -1.23114e-16 -1 805.717 709.051)"/>
</g>
<g id="Line 5">
<use xlink:href="#path14_stroke" transform="matrix(-1 1.21819e-16 -1.23114e-16 -1 805.717 729.633)"/>
</g>
<g id="Line 5">
<use xlink:href="#path14_stroke" transform="matrix(-1 1.21819e-16 -1.23114e-16 -1 805.717 748.744)"/>
</g>
<g id="Line 4">
<use xlink:href="#path11_stroke" transform="matrix(-1.84671e-16 -1 1 -1.82729e-16 804.239 859)"/>
</g>
<g id="Line 4">
<use xlink:href="#path12_stroke" transform="matrix(1 -2.43638e-16 2.46227e-16 1 720 773.735)"/>
</g>
<g id="Line 5">
<use xlink:href="#path13_stroke" transform="matrix(-1.84671e-16 -1 1 -1.82729e-16 782.071 775.205)"/>
</g>
<g id="Line 5">
<use xlink:href="#path13_stroke" transform="matrix(-1.84671e-16 -1 1 -1.82729e-16 761.381 775.205)"/>
</g>
<g id="Line 5">
<use xlink:href="#path13_stroke" transform="matrix(-1.84671e-16 -1 1 -1.82729e-16 740.69 775.205)"/>
</g>
<g id="Line 5">
<use xlink:href="#path14_stroke" transform="matrix(1 -2.43638e-16 2.46227e-16 1 801.283 836.949)"/>
</g>
<g id="Line 5">
<use xlink:href="#path14_stroke" transform="matrix(1 -2.43638e-16 2.46227e-16 1 801.283 816.367)"/>
</g>
<g id="Line 5">
<use xlink:href="#path14_stroke" transform="matrix(1 -2.43638e-16 2.46227e-16 1 801.283 795.786)"/>
</g>
<g id="Arrow 5">
<use xlink:href="#path15_stroke" transform="matrix(-0.708973 -0.705236 0.708973 -0.705236 804.239 772.265)"/>
</g>
<g id="2">
<use xlink:href="#path9_fill" transform="translate(844.142 776.675)"/>
</g>
<g id="-2">
<use xlink:href="#path10_fill" transform="translate(756.947 776.675)"/>
</g>
<g id="2">
<use xlink:href="#path9_fill" transform="translate(808.673 724.834)"/>
</g>
<g id="-2">
<use xlink:href="#path10_fill" transform="translate(808.673 810.181)"/>
</g>
<g id="Line 4">
<use xlink:href="#path16_stroke" transform="matrix(6.11753e-17 1 -1 6.12894e-17 525.77 891)"/>
</g>
<g id="Line 4">
<use xlink:href="#path17_stroke" transform="matrix(-1 1.22579e-16 -1.22351e-16 -1 609 975.769)"/>
</g>
<g id="Line 5">
<use xlink:href="#path18_stroke" transform="matrix(6.11753e-17 1 -1 6.12894e-17 547.673 974.308)"/>
</g>
<g id="Line 5">
<use xlink:href="#path18_stroke" transform="matrix(6.11753e-17 1 -1 6.12894e-17 568.115 974.308)"/>
</g>
<g id="Line 5">
<use xlink:href="#path18_stroke" transform="matrix(6.11753e-17 1 -1 6.12894e-17 588.557 974.308)"/>
</g>
<g id="Line 5">
<use xlink:href="#path19_stroke" transform="matrix(-1 1.22579e-16 -1.22351e-16 -1 528.69 912.923)"/>
</g>
<g id="Line 5">
<use xlink:href="#path19_stroke" transform="matrix(-1 1.22579e-16 -1.22351e-16 -1 528.69 933.385)"/>
</g>
<g id="Line 5">
<use xlink:href="#path19_stroke" transform="matrix(-1 1.22579e-16 -1.22351e-16 -1 528.69 952.385)"/>
</g>
<g id="Line 4">
<use xlink:href="#path16_stroke" transform="matrix(-1.83526e-16 -1 1 -1.83868e-16 527.23 1062)"/>
</g>
<g id="Line 4">
<use xlink:href="#path17_stroke" transform="matrix(1 -2.45158e-16 2.44701e-16 1 444 977.231)"/>
</g>
<g id="Line 5">
<use xlink:href="#path18_stroke" transform="matrix(-1.83526e-16 -1 1 -1.83868e-16 505.327 978.692)"/>
</g>
<g id="Line 5">
<use xlink:href="#path18_stroke" transform="matrix(-1.83526e-16 -1 1 -1.83868e-16 484.885 978.692)"/>
</g>
<g id="Line 5">
<use xlink:href="#path18_stroke" transform="matrix(-1.83526e-16 -1 1 -1.83868e-16 464.443 978.692)"/>
</g>
<g id="Line 5">
<use xlink:href="#path19_stroke" transform="matrix(1 -2.45158e-16 2.44701e-16 1 524.31 1040.08)"/>
</g>
<g id="Line 5">
<use xlink:href="#path19_stroke" transform="matrix(1 -2.45158e-16 2.44701e-16 1 524.31 1019.62)"/>
</g>
<g id="Line 5">
<use xlink:href="#path19_stroke" transform="matrix(1 -2.45158e-16 2.44701e-16 1 524.31 999.154)"/>
</g>
<g id="Arrow 5">
<use xlink:href="#path20_stroke" transform="matrix(-0.6986 0.715513 -0.714862 -0.699266 527.23 975.769)"/>
</g>
<g id="2">
<use xlink:href="#path9_fill" transform="translate(566.655 980.154)"/>
</g>
<g id="-2">
<use xlink:href="#path10_fill" transform="translate(480.504 980.154)"/>
</g>
<g id="2">
<use xlink:href="#path9_fill" transform="translate(531.611 927.538)"/>
</g>
<g id="-2">
<use xlink:href="#path10_fill" transform="translate(531.611 1012.31)"/>
</g>
<g id="Line 4">
<use xlink:href="#path21_stroke" transform="matrix(6.11882e-17 1 -1 6.12765e-17 803.266 895)"/>
</g>
<g id="Line 4">
<use xlink:href="#path22_stroke" transform="matrix(-1 1.22553e-16 -1.22376e-16 -1 887 980.265)"/>
</g>
<g id="Line 5">
<use xlink:href="#path13_stroke" transform="matrix(6.11882e-17 1 -1 6.12765e-17 825.301 978.795)"/>
</g>
<g id="Line 5">
<use xlink:href="#path13_stroke" transform="matrix(6.11882e-17 1 -1 6.12765e-17 845.867 978.795)"/>
</g>
<g id="Line 5">
<use xlink:href="#path13_stroke" transform="matrix(6.11882e-17 1 -1 6.12765e-17 866.434 978.795)"/>
</g>
<g id="Line 5">
<use xlink:href="#path23_stroke" transform="matrix(-1 1.22553e-16 -1.22376e-16 -1 806.204 917.051)"/>
</g>
<g id="Line 5">
<use xlink:href="#path23_stroke" transform="matrix(-1 1.22553e-16 -1.22376e-16 -1 806.204 937.632)"/>
</g>
<g id="Line 5">
<use xlink:href="#path23_stroke" transform="matrix(-1 1.22553e-16 -1.22376e-16 -1 806.204 956.744)"/>
</g>
<g id="Line 4">
<use xlink:href="#path21_stroke" transform="matrix(-1.83565e-16 -1 1 -1.83829e-16 804.734 1067)"/>
</g>
<g id="Line 4">
<use xlink:href="#path22_stroke" transform="matrix(1 -2.45106e-16 2.44753e-16 1 721 981.735)"/>
</g>
<g id="Line 5">
<use xlink:href="#path13_stroke" transform="matrix(-1.83565e-16 -1 1 -1.83829e-16 782.699 983.205)"/>
</g>
<g id="Line 5">
<use xlink:href="#path13_stroke" transform="matrix(-1.83565e-16 -1 1 -1.83829e-16 762.133 983.205)"/>
</g>
<g id="Line 5">
<use xlink:href="#path13_stroke" transform="matrix(-1.83565e-16 -1 1 -1.83829e-16 741.566 983.205)"/>
</g>
<g id="Line 5">
<use xlink:href="#path23_stroke" transform="matrix(1 -2.45106e-16 2.44753e-16 1 801.796 1044.95)"/>
</g>
<g id="Line 5">
<use xlink:href="#path23_stroke" transform="matrix(1 -2.45106e-16 2.44753e-16 1 801.796 1024.37)"/>
</g>
<g id="Line 5">
<use xlink:href="#path23_stroke" transform="matrix(1 -2.45106e-16 2.44753e-16 1 801.796 1003.79)"/>
</g>
<g id="Arrow 5">
<use xlink:href="#path24_stroke" transform="matrix(0.934402 0.356219 -0.355771 0.934573 804.734 980.265)"/>
</g>
<g id="2">
<use xlink:href="#path9_fill" transform="translate(844.398 984.675)"/>
</g>
<g id="-2">
<use xlink:href="#path10_fill" transform="translate(757.726 984.675)"/>
</g>
<g id="2">
<use xlink:href="#path9_fill" transform="translate(809.142 931.752)"/>
</g>
<g id="-2">
<use xlink:href="#path10_fill" transform="translate(809.142 1017.02)"/>
</g>
<g id="Component">
<g id="Line 2">
<use xlink:href="#path4_stroke" transform="matrix(6.12323e-17 1 -1 6.12323e-17 676 697)" fill="#333333"/>
</g>
<g id="Line 3">
<use xlink:href="#path5_stroke" transform="translate(676 697)" fill="#333333"/>
</g>
<g id="Line 3">
<use xlink:href="#path5_stroke" transform="translate(676 748)" fill="#333333"/>
</g>
</g>
<g id="Component">
<g id="Line 2">
<use xlink:href="#path6_stroke" transform="matrix(-1.30708e-16 -1 1 -2.58169e-16 702 748)"/>
</g>
<g id="Line 3">
<use xlink:href="#path5_stroke" transform="matrix(-1 1.72113e-16 -8.71383e-17 -1 702 748)"/>
</g>
<g id="Line 3">
<use xlink:href="#path5_stroke" transform="matrix(-1 1.22465e-16 -1.22465e-16 -1 702 696)"/>
</g>
</g>
<g id="-1 1">
<use xlink:href="#path25_fill" transform="translate(683 703)"/>
</g>
<g id="Component">
<g id="Line 2">
<use xlink:href="#path4_stroke" transform="matrix(6.12323e-17 1 -1 6.12323e-17 675 885)" fill="#333333"/>
</g>
<g id="Line 3">
<use xlink:href="#path5_stroke" transform="translate(675 885)" fill="#333333"/>
</g>
<g id="Line 3">
<use xlink:href="#path5_stroke" transform="translate(675 936)" fill="#333333"/>
</g>
</g>
<g id="Component">
<g id="Line 2">
<use xlink:href="#path6_stroke" transform="matrix(-1.30708e-16 -1 1 -2.58169e-16 701 936)"/>
</g>
<g id="Line 3">
<use xlink:href="#path5_stroke" transform="matrix(-1 1.72113e-16 -8.71383e-17 -1 701 936)"/>
</g>
<g id="Line 3">
<use xlink:href="#path5_stroke" transform="matrix(-1 1.22465e-16 -1.22465e-16 -1 701 884)"/>
</g>
</g>
<g id="3 -1">
<use xlink:href="#path26_fill" transform="translate(682 891)"/>
</g>
<g id="Component">
<g id="Line 2">
<use xlink:href="#path4_stroke" transform="matrix(6.12323e-17 1 -1 6.12323e-17 421 885)" fill="#333333"/>
</g>
<g id="Line 3">
<use xlink:href="#path5_stroke" transform="translate(421 885)" fill="#333333"/>
</g>
<g id="Line 3">
<use xlink:href="#path5_stroke" transform="translate(421 936)" fill="#333333"/>
</g>
</g>
<g id="Component">
<g id="Line 2">
<use xlink:href="#path6_stroke" transform="matrix(-1.30708e-16 -1 1 -2.58169e-16 447 936)"/>
</g>
<g id="Line 3">
<use xlink:href="#path5_stroke" transform="matrix(-1 1.72113e-16 -8.71383e-17 -1 447 936)"/>
</g>
<g id="Line 3">
<use xlink:href="#path5_stroke" transform="matrix(-1 1.22465e-16 -1.22465e-16 -1 447 884)"/>
</g>
</g>
<g id="-3 -3">
<use xlink:href="#path27_fill" transform="translate(427 891)"/>
</g>
</g>
</g>
<defs>
<path id="path0_stroke" d="M 0 0L 82.2906 0L 82.2906 -1L 0 -1L 0 0Z"/>
<path id="path1_stroke" d="M 0 0L 80.708 0L 80.708 -1L 0 -1L 0 0Z"/>
<path id="path2_stroke" d="M 0 0L 4.25641 0L 4.25641 -1L 0 -1L 0 0Z"/>
<path id="path3_stroke" d="M 0 0L 4.24779 0L 4.24779 -1L 0 -1L 0 0Z"/>
<path id="path4_stroke" d="M 0 0L 51 0L 51 -1L 0 -1L 0 0Z"/>
<path id="path5_stroke" d="M 0 0L 6 0L 6 -1L 0 -1L 0 0Z"/>
<path id="path6_stroke" d="M 0 0L 52 0L 52 -1L 0 -1L 0 0Z"/>
<path id="path7_fill" d="M 8.39844 15L 0.945312 15L 0.945312 13.9609L 4.88281 9.58594C 5.46615 8.92448 5.86719 8.38802 6.08594 7.97656C 6.3099 7.5599 6.42188 7.13021 6.42188 6.6875C 6.42188 6.09375 6.24219 5.60677 5.88281 5.22656C 5.52344 4.84635 5.04427 4.65625 4.44531 4.65625C 3.72656 4.65625 3.16667 4.86198 2.76562 5.27344C 2.36979 5.67969 2.17188 6.2474 2.17188 6.97656L 0.726562 6.97656C 0.726562 5.92969 1.0625 5.08333 1.73438 4.4375C 2.41146 3.79167 3.3151 3.46875 4.44531 3.46875C 5.5026 3.46875 6.33854 3.7474 6.95312 4.30469C 7.56771 4.85677 7.875 5.59375 7.875 6.51562C 7.875 7.63542 7.16146 8.96875 5.73438 10.5156L 2.6875 13.8203L 8.39844 13.8203L 8.39844 15ZM 3.04688 27.6094L 4.13281 27.6094C 4.8151 27.599 5.35156 27.4193 5.74219 27.0703C 6.13281 26.7214 6.32812 26.25 6.32812 25.6562C 6.32812 24.3229 5.66406 23.6562 4.33594 23.6562C 3.71094 23.6562 3.21094 23.8359 2.83594 24.1953C 2.46615 24.5495 2.28125 25.0208 2.28125 25.6094L 0.835938 25.6094C 0.835938 24.7083 1.16406 23.9609 1.82031 23.3672C 2.48177 22.7682 3.32031 22.4688 4.33594 22.4688C 5.40885 22.4688 6.25 22.7526 6.85938 23.3203C 7.46875 23.888 7.77344 24.6771 7.77344 25.6875C 7.77344 26.1823 7.61198 26.6615 7.28906 27.125C 6.97135 27.5885 6.53646 27.9349 5.98438 28.1641C 6.60938 28.362 7.09115 28.6901 7.42969 29.1484C 7.77344 29.6068 7.94531 30.1667 7.94531 30.8281C 7.94531 31.849 7.61198 32.6589 6.94531 33.2578C 6.27865 33.8568 5.41146 34.1562 4.34375 34.1562C 3.27604 34.1562 2.40625 33.8672 1.73438 33.2891C 1.06771 32.7109 0.734375 31.9479 0.734375 31L 2.1875 31C 2.1875 31.599 2.38281 32.0781 2.77344 32.4375C 3.16406 32.7969 3.6875 32.9766 4.34375 32.9766C 5.04167 32.9766 5.57552 32.7943 5.94531 32.4297C 6.3151 32.0651 6.5 31.5417 6.5 30.8594C 6.5 30.1979 6.29688 29.6901 5.89062 29.3359C 5.48438 28.9818 4.89844 28.7995 4.13281 28.7891L 3.04688 28.7891L 3.04688 27.6094Z"/>
<path id="path8_stroke" d="M 73.1124 0.353553C 73.3077 0.158291 73.3077 -0.158291 73.1124 -0.353553L 69.9304 -3.53553C 69.7352 -3.7308 69.4186 -3.7308 69.2233 -3.53553C 69.0281 -3.34027 69.0281 -3.02369 69.2233 -2.82843L 72.0517 0L 69.2233 2.82843C 69.0281 3.02369 69.0281 3.34027 69.2233 3.53553C 69.4186 3.7308 69.7352 3.7308 69.9304 3.53553L 73.1124 0.353553ZM 0 0.5L 72.7589 0.5L 72.7589 -0.5L 0 -0.5L 0 0.5Z"/>
<path id="path9_fill" d="M 5.24902 9L 0.59082 9L 0.59082 8.35059L 3.05176 5.61621C 3.41634 5.2028 3.66699 4.86751 3.80371 4.61035C 3.94368 4.34993 4.01367 4.08138 4.01367 3.80469C 4.01367 3.43359 3.90137 3.12923 3.67676 2.8916C 3.45215 2.65397 3.15267 2.53516 2.77832 2.53516C 2.3291 2.53516 1.97917 2.66374 1.72852 2.9209C 1.48112 3.1748 1.35742 3.52962 1.35742 3.98535L 0.454102 3.98535C 0.454102 3.33105 0.664062 2.80208 1.08398 2.39844C 1.50716 1.99479 2.07194 1.79297 2.77832 1.79297C 3.43913 1.79297 3.96159 1.96712 4.3457 2.31543C 4.72982 2.66048 4.92188 3.12109 4.92188 3.69727C 4.92188 4.39714 4.47591 5.23047 3.58398 6.19727L 1.67969 8.2627L 5.24902 8.2627L 5.24902 9Z"/>
<path id="path10_fill" d="M 2.56348 6.34863L 0.180664 6.34863L 0.180664 5.61133L 2.56348 5.61133L 2.56348 6.34863ZM 8.0127 9L 3.35449 9L 3.35449 8.35059L 5.81543 5.61621C 6.18001 5.2028 6.43066 4.86751 6.56738 4.61035C 6.70736 4.34993 6.77734 4.08138 6.77734 3.80469C 6.77734 3.43359 6.66504 3.12923 6.44043 2.8916C 6.21582 2.65397 5.91634 2.53516 5.54199 2.53516C 5.09277 2.53516 4.74284 2.66374 4.49219 2.9209C 4.24479 3.1748 4.12109 3.52962 4.12109 3.98535L 3.21777 3.98535C 3.21777 3.33105 3.42773 2.80208 3.84766 2.39844C 4.27083 1.99479 4.83561 1.79297 5.54199 1.79297C 6.2028 1.79297 6.72526 1.96712 7.10938 2.31543C 7.49349 2.66048 7.68555 3.12109 7.68555 3.69727C 7.68555 4.39714 7.23958 5.23047 6.34766 6.19727L 4.44336 8.2627L 8.0127 8.2627L 8.0127 9Z"/>
<path id="path11_stroke" d="M 0 0L 85.265 0L 85.265 -1L 0 -1L 0 0Z"/>
<path id="path12_stroke" d="M 0 0L 84.2389 0L 84.2389 -1L 0 -1L 0 0Z"/>
<path id="path13_stroke" d="M 0 0L 4.41026 0L 4.41026 -1L 0 -1L 0 0Z"/>
<path id="path14_stroke" d="M 0 0L 4.43363 0L 4.43363 -1L 0 -1L 0 0Z"/>
<path id="path15_stroke" d="M 31.6215 0.353553C 31.8168 0.158291 31.8168 -0.158291 31.6215 -0.353553L 28.4395 -3.53553C 28.2443 -3.7308 27.9277 -3.7308 27.7324 -3.53553C 27.5372 -3.34027 27.5372 -3.02369 27.7324 -2.82843L 30.5609 0L 27.7324 2.82843C 27.5372 3.02369 27.5372 3.34027 27.7324 3.53553C 27.9277 3.7308 28.2443 3.7308 28.4395 3.53553L 31.6215 0.353553ZM 0 0.5L 31.268 0.5L 31.268 -0.5L 0 -0.5L 0 0.5Z"/>
<path id="path16_stroke" d="M 0 0L 84.7692 0L 84.7692 -1L 0 -1L 0 0Z"/>
<path id="path17_stroke" d="M 0 0L 83.2301 0L 83.2301 -1L 0 -1L 0 0Z"/>
<path id="path18_stroke" d="M 0 0L 4.38462 0L 4.38462 -1L 0 -1L 0 0Z"/>
<path id="path19_stroke" d="M 0 0L 4.38053 0L 4.38053 -1L 0 -1L 0 0Z"/>
<path id="path20_stroke" d="M 90.2299 0.353553C 90.4252 0.158291 90.4252 -0.158291 90.2299 -0.353553L 87.048 -3.53553C 86.8527 -3.7308 86.5361 -3.7308 86.3408 -3.53553C 86.1456 -3.34027 86.1456 -3.02369 86.3408 -2.82843L 89.1693 0L 86.3408 2.82843C 86.1456 3.02369 86.1456 3.34027 86.3408 3.53553C 86.5361 3.7308 86.8527 3.7308 87.048 3.53553L 90.2299 0.353553ZM 0 0.5L 89.8764 0.5L 89.8764 -0.5L 0 -0.5L 0 0.5Z"/>
<path id="path21_stroke" d="M 0 0L 85.265 0L 85.265 -1L 0 -1L 0 0Z"/>
<path id="path22_stroke" d="M 0 0L 83.7345 0L 83.7345 -1L 0 -1L 0 0Z"/>
<path id="path23_stroke" d="M 0 0L 4.40708 0L 4.40708 -1L 0 -1L 0 0Z"/>
<path id="path24_stroke" d="M 66.3841 0.353553C 66.5794 0.158291 66.5794 -0.158291 66.3841 -0.353553L 63.2021 -3.53553C 63.0069 -3.7308 62.6903 -3.7308 62.495 -3.53553C 62.2998 -3.34027 62.2998 -3.02369 62.495 -2.82843L 65.3235 0L 62.495 2.82843C 62.2998 3.02369 62.2998 3.34027 62.495 3.53553C 62.6903 3.7308 63.0069 3.7308 63.2021 3.53553L 66.3841 0.353553ZM 0 0.5L 66.0306 0.5L 66.0306 -0.5L 0 -0.5L 0 0.5Z"/>
<path id="path25_fill" d="M 4.10156 10.7578L 0.289062 10.7578L 0.289062 9.57812L 4.10156 9.57812L 4.10156 10.7578ZM 10.1172 15L 8.66406 15L 8.66406 5.36719L 5.75 6.4375L 5.75 5.125L 9.89062 3.57031L 10.1172 3.57031L 10.1172 15ZM 5.69531 34L 4.24219 34L 4.24219 24.3672L 1.32812 25.4375L 1.32812 24.125L 5.46875 22.5703L 5.69531 22.5703L 5.69531 34Z"/>
<path id="path26_fill" d="M 3.04688 8.60938L 4.13281 8.60938C 4.8151 8.59896 5.35156 8.41927 5.74219 8.07031C 6.13281 7.72135 6.32812 7.25 6.32812 6.65625C 6.32812 5.32292 5.66406 4.65625 4.33594 4.65625C 3.71094 4.65625 3.21094 4.83594 2.83594 5.19531C 2.46615 5.54948 2.28125 6.02083 2.28125 6.60938L 0.835938 6.60938C 0.835938 5.70833 1.16406 4.96094 1.82031 4.36719C 2.48177 3.76823 3.32031 3.46875 4.33594 3.46875C 5.40885 3.46875 6.25 3.7526 6.85938 4.32031C 7.46875 4.88802 7.77344 5.67708 7.77344 6.6875C 7.77344 7.18229 7.61198 7.66146 7.28906 8.125C 6.97135 8.58854 6.53646 8.9349 5.98438 9.16406C 6.60938 9.36198 7.09115 9.6901 7.42969 10.1484C 7.77344 10.6068 7.94531 11.1667 7.94531 11.8281C 7.94531 12.849 7.61198 13.6589 6.94531 14.2578C 6.27865 14.8568 5.41146 15.1562 4.34375 15.1562C 3.27604 15.1562 2.40625 14.8672 1.73438 14.2891C 1.06771 13.7109 0.734375 12.9479 0.734375 12L 2.1875 12C 2.1875 12.599 2.38281 13.0781 2.77344 13.4375C 3.16406 13.7969 3.6875 13.9766 4.34375 13.9766C 5.04167 13.9766 5.57552 13.7943 5.94531 13.4297C 6.3151 13.0651 6.5 12.5417 6.5 11.8594C 6.5 11.1979 6.29688 10.6901 5.89062 10.3359C 5.48438 9.98177 4.89844 9.79948 4.13281 9.78906L 3.04688 9.78906L 3.04688 8.60938ZM 4.10156 29.7578L 0.289062 29.7578L 0.289062 28.5781L 4.10156 28.5781L 4.10156 29.7578ZM 10.1172 34L 8.66406 34L 8.66406 24.3672L 5.75 25.4375L 5.75 24.125L 9.89062 22.5703L 10.1172 22.5703L 10.1172 34Z"/>
<path id="path27_fill" d="M 4.10156 10.7578L 0.289062 10.7578L 0.289062 9.57812L 4.10156 9.57812L 4.10156 10.7578ZM 7.46875 8.60938L 8.55469 8.60938C 9.23698 8.59896 9.77344 8.41927 10.1641 8.07031C 10.5547 7.72135 10.75 7.25 10.75 6.65625C 10.75 5.32292 10.0859 4.65625 8.75781 4.65625C 8.13281 4.65625 7.63281 4.83594 7.25781 5.19531C 6.88802 5.54948 6.70312 6.02083 6.70312 6.60938L 5.25781 6.60938C 5.25781 5.70833 5.58594 4.96094 6.24219 4.36719C 6.90365 3.76823 7.74219 3.46875 8.75781 3.46875C 9.83073 3.46875 10.6719 3.7526 11.2812 4.32031C 11.8906 4.88802 12.1953 5.67708 12.1953 6.6875C 12.1953 7.18229 12.0339 7.66146 11.7109 8.125C 11.3932 8.58854 10.9583 8.9349 10.4062 9.16406C 11.0312 9.36198 11.513 9.6901 11.8516 10.1484C 12.1953 10.6068 12.3672 11.1667 12.3672 11.8281C 12.3672 12.849 12.0339 13.6589 11.3672 14.2578C 10.7005 14.8568 9.83333 15.1562 8.76562 15.1562C 7.69792 15.1562 6.82812 14.8672 6.15625 14.2891C 5.48958 13.7109 5.15625 12.9479 5.15625 12L 6.60938 12C 6.60938 12.599 6.80469 13.0781 7.19531 13.4375C 7.58594 13.7969 8.10938 13.9766 8.76562 13.9766C 9.46354 13.9766 9.9974 13.7943 10.3672 13.4297C 10.737 13.0651 10.9219 12.5417 10.9219 11.8594C 10.9219 11.1979 10.7188 10.6901 10.3125 10.3359C 9.90625 9.98177 9.32031 9.79948 8.55469 9.78906L 7.46875 9.78906L 7.46875 8.60938ZM 4.10156 29.7578L 0.289062 29.7578L 0.289062 28.5781L 4.10156 28.5781L 4.10156 29.7578ZM 7.46875 27.6094L 8.55469 27.6094C 9.23698 27.599 9.77344 27.4193 10.1641 27.0703C 10.5547 26.7214 10.75 26.25 10.75 25.6562C 10.75 24.3229 10.0859 23.6562 8.75781 23.6562C 8.13281 23.6562 7.63281 23.8359 7.25781 24.1953C 6.88802 24.5495 6.70312 25.0208 6.70312 25.6094L 5.25781 25.6094C 5.25781 24.7083 5.58594 23.9609 6.24219 23.3672C 6.90365 22.7682 7.74219 22.4688 8.75781 22.4688C 9.83073 22.4688 10.6719 22.7526 11.2812 23.3203C 11.8906 23.888 12.1953 24.6771 12.1953 25.6875C 12.1953 26.1823 12.0339 26.6615 11.7109 27.125C 11.3932 27.5885 10.9583 27.9349 10.4062 28.1641C 11.0312 28.362 11.513 28.6901 11.8516 29.1484C 12.1953 29.6068 12.3672 30.1667 12.3672 30.8281C 12.3672 31.849 12.0339 32.6589 11.3672 33.2578C 10.7005 33.8568 9.83333 34.1562 8.76562 34.1562C 7.69792 34.1562 6.82812 33.8672 6.15625 33.2891C 5.48958 32.7109 5.15625 31.9479 5.15625 31L 6.60938 31C 6.60938 31.599 6.80469 32.0781 7.19531 32.4375C 7.58594 32.7969 8.10938 32.9766 8.76562 32.9766C 9.46354 32.9766 9.9974 32.7943 10.3672 32.4297C 10.737 32.0651 10.9219 31.5417 10.9219 30.8594C 10.9219 30.1979 10.7188 29.6901 10.3125 29.3359C 9.90625 28.9818 9.32031 28.7995 8.55469 28.7891L 7.46875 28.7891L 7.46875 27.6094Z"/>
</defs>
</svg>

